<svg width="23" height="28" viewBox="0 0 23 28" fill="none" xmlns="http://www.w3.org/2000/svg">
<g id="Frame 811357">
<path id="Vector" d="M20.3762 18.4225C21.1392 19.5117 22.0138 20.216 23 20.5352C22.572 21.8685 21.8928 23.2582 20.9624 24.7042C19.5295 26.8826 18.1153 27.9718 16.7197 27.9718C16.1986 27.9718 15.4264 27.7934 14.4029 27.4366C13.4539 27.0798 12.6258 26.9014 11.9187 26.9014C11.2116 26.9014 10.43 27.0892 9.57403 27.4648C8.68083 27.8216 7.94579 28 7.36893 28C5.69417 28 4.04733 26.5634 2.4284 23.6901C0.809466 20.8545 0 18.0657 0 15.3239C0 12.7887 0.614078 10.7136 1.84223 9.09859C3.1076 7.48357 4.67071 6.67606 6.53155 6.67606C6.94094 6.67606 7.39684 6.7277 7.89927 6.83099C8.4017 6.93427 8.92273 7.12676 9.46238 7.40845C10.0392 7.7277 10.5138 7.94836 10.8859 8.07042C11.2581 8.19249 11.5465 8.25352 11.7512 8.25352C11.9931 8.25352 12.3653 8.19718 12.8677 8.08451C13.3701 7.97183 13.8726 7.76526 14.375 7.46479C14.9146 7.16432 15.3799 6.93897 15.7706 6.78873C16.1614 6.6385 16.5615 6.56338 16.9709 6.56338C18.2735 6.56338 19.4458 6.92019 20.4879 7.6338C21.0461 8.00939 21.6137 8.56338 22.1905 9.29577C21.3345 10.0469 20.7112 10.7042 20.3204 11.2676C19.5947 12.3192 19.2318 13.4648 19.2318 14.7042C19.2318 16.0751 19.6133 17.3146 20.3762 18.4225ZM14.7658 5.26761C14.1145 5.88732 13.519 6.29108 12.9794 6.47887C12.7933 6.53521 12.556 6.58685 12.2676 6.6338C11.9792 6.68075 11.6489 6.723 11.2767 6.76056C11.2953 5.10798 11.7233 3.68075 12.5607 2.47887C13.3981 1.277 14.7751 0.450704 16.6917 0C16.729 0.187793 16.7569 0.319249 16.7755 0.394366V0.704225C16.7755 1.38028 16.6173 2.14085 16.301 2.98592C15.966 3.81221 15.4543 4.57277 14.7658 5.26761Z" fill="white"/>
</g>
</svg>
