<svg width="28" height="28" viewBox="0 0 28 28" fill="none" xmlns="http://www.w3.org/2000/svg">
<g id="Frame">
<path id="Vector" d="M13.79 13.4399L3.01001 24.7099C3.19004 25.3138 3.55935 25.8439 4.06347 26.222C4.5676 26.6001 5.17987 26.8062 5.81001 26.8099C6.37001 26.8099 6.86001 26.6699 7.28001 26.3899L19.46 19.4599L13.79 13.4399Z" fill="#EA4335"/>
<path id="Vector_2" d="M24.71 11.48L19.46 8.46997L13.58 13.65L19.53 19.46L24.78 16.52C25.69 16.03 26.32 15.05 26.32 14C26.2821 13.4792 26.1151 12.9762 25.834 12.5362C25.5529 12.0962 25.1666 11.7332 24.71 11.48Z" fill="#FBBC04"/>
<path id="Vector_3" d="M3.01 3.29004C2.94 3.50004 2.94 3.78004 2.94 4.06004V24.01C2.94 24.29 2.94 24.5 3.01 24.78L14.21 13.79L3.01 3.29004Z" fill="#4285F4"/>
<path id="Vector_4" d="M13.86 13.9999L19.46 8.46994L7.35001 1.60994C6.93001 1.32994 6.37001 1.18994 5.81001 1.18994C4.48001 1.18994 3.29001 2.09994 3.01001 3.28994L13.86 13.9999Z" fill="#34A853"/>
</g>
</svg>
