<?xml version="1.0" encoding="UTF-8"?>
<svg width="200px" height="183px" viewBox="0 0 200 183" version="1.1" xmlns="http://www.w3.org/2000/svg" xmlns:xlink="http://www.w3.org/1999/xlink">
    <title>safari-pinned-tab</title>
    <defs>
        <linearGradient x1="30.7725632%" y1="60.6102429%" x2="90.7821901%" y2="38.565449%" id="linearGradient-1">
            <stop stop-color="#9D95FF" offset="1%"></stop>
            <stop stop-color="#9093FC" offset="17%"></stop>
            <stop stop-color="#558BED" offset="100%"></stop>
        </linearGradient>
    </defs>
    <g id="页面-1" stroke="none" stroke-width="1" fill="none" fill-rule="evenodd">
        <g id="safari-pinned-tab" fill-rule="nonzero">
            <path d="M170.326409,149.79822 L161.762611,135.311573 L38.2551929,135.311573 L100.089021,28.3145401 L83.9406528,0.21958457 L63.1097923,0.21958457 C54.0048872,0.225911321 45.6073455,5.12976739 41.1275964,13.0563798 L3.7388724,79.0029674 C-0.64152838,86.734222 -0.64152838,96.1975288 3.7388724,103.928783 L29.9169139,150.124629 L41.1097923,169.881306 C45.5920769,177.790005 53.977686,182.680855 63.0682493,182.688427 L137.014837,182.688427 C146.117572,182.685858 154.517894,177.795679 159.014837,169.881306 L170.154303,150.219585 L170.154303,150.219585 L170.326409,149.79822 Z" id="路径" fill="#000000"></path>
            <path d="M161.780415,135.311573 L38.4866469,135.311573 L38.9970326,135.008902 L80.3738872,110.136499 C86.7596439,105.982196 91.5548961,103.548961 96.0771513,102.759644 C96.1808427,102.735601 96.285876,102.717766 96.3916914,102.706231 C96.6884273,102.658754 96.9851632,102.617211 97.2759644,102.587537 C97.7922849,102.52819 98.3026706,102.492582 98.8130564,102.474777 L99.7388724,102.474777 C100.473288,102.494459 101.206205,102.551903 101.934718,102.646884 C106.682493,103.281899 111.709199,105.614243 118.593472,109.602374 L161.513353,135.151335 L161.780415,135.311573 Z" id="路径" fill="url(#linearGradient-1)"></path>
            <path d="M170.326409,149.79822 L170.118694,150.160237 L158.991098,169.839763 C154.508813,177.748462 146.123204,182.639312 137.032641,182.646884 L63.0860534,182.646884 C53.9981784,182.629394 45.61719,177.741239 41.1275964,169.839763 L29.9465875,150.106825 L29.9465875,150.106825 L29.9465875,150.106825 L38.4688427,135.311573 L38.9080119,135.04451 L80.3501484,110.118694 C86.7477745,105.964392 91.5430267,103.525223 96.0771513,102.74184 C96.1808427,102.717797 96.285876,102.699961 96.3916914,102.688427 C96.6884273,102.64095 96.9851632,102.599407 97.2759644,102.569733 C97.7922849,102.510386 98.3026706,102.474777 98.8130564,102.456973 L99.7388724,102.456973 C100.473288,102.476655 101.206205,102.534099 101.934718,102.62908 C106.682493,103.27003 111.697329,105.596439 118.551929,109.58457 L161.507418,135.151335 L161.744807,135.293769 L170.326409,149.79822 Z" id="路径" fill="#000000"></path>
            <g id="编组" opacity="0.5" transform="translate(37.982196, 102.077151)" fill="#000000">
                <path d="M80.4688427,7.52522255 C64.1186944,-1.89317507 58.0771513,-2.24925816 42.2551929,8.05934718 L0.367952522,33.2344214 L42.2551929,13.388724 C58.0771513,3.08011869 64.1186944,3.43620178 80.4688427,12.8605341 L123.661721,33.2344214 L80.4688427,7.52522255 Z" id="路径"></path>
            </g>
            <path d="M196.385757,103.88724 L170.154303,150.178042 L170.154303,150.178042 L170.362018,149.816024 L161.762611,135.311573 L161.762611,135.311573 L100.172107,28.1721068 L100.089021,28.3145401 L83.9406528,0.21958457 L137.032641,0.21958457 C146.124104,0.229611643 154.509424,5.1225591 158.991098,13.0326409 L196.379822,78.9792285 C200.755342,86.7048659 200.757595,96.1595193 196.385757,103.88724 Z" id="路径" fill="#000000"></path>
            <path d="M3.56083086,103.88724 L29.7922849,150.178042 L29.7922849,150.178042 L29.5845697,149.816024 L38.1661721,135.311573 L38.1661721,135.311573 L99.7566766,28.1721068 L99.8397626,28.3145401 L115.988131,0.21958457 L62.9080119,0.21958457 C53.816549,0.229611643 45.4312291,5.1225591 40.9495549,13.0326409 L3.56083086,78.9792285 C-0.812848071,86.7059074 -0.812848071,96.1605614 3.56083086,103.88724 Z" id="路径" fill="#000000"></path>
            <polygon id="路径" fill="#000000" points="115.988131 0.142433234 99.9643917 28.0356083 102.931751 32.7833828"></polygon>
        </g>
    </g>
</svg>