<?xml version="1.0" encoding="UTF-8"?>
<svg width="77px" height="80px" viewBox="0 0 77 80" version="1.1" xmlns="http://www.w3.org/2000/svg" xmlns:xlink="http://www.w3.org/1999/xlink">
    <title>多链一键买卖</title>
    <g id="avedex" stroke="none" stroke-width="1" fill="none" fill-rule="evenodd">
        <g id="首页0515" transform="translate(-833.000000, -2470.000000)">
            <g id="开启你的avedex" transform="translate(0.000000, 2226.000000)">
                <g id="优点1备份-2" transform="translate(730.000000, 214.000000)">
                    <g id="多链一键买卖" transform="translate(103.000000, 30.000000)">
                        <path d="M60.2992821,16.2284786 C58.8240684,16.2284786 57.2261197,16.353265 55.522188,16.6065983 C47.7854359,17.7580513 38.7358632,21.3409573 30.0387692,26.6968547 C21.3420171,32.0517265 14.0685128,38.5204444 9.55842735,44.9108718 C5.29757265,50.9481368 4.02817094,56.3173675 6.07569231,59.6424957 C8.12355556,62.9676239 13.4893675,64.2493333 20.7987692,63.1638632 C28.5351795,62.0127521 37.585094,58.4295043 46.2818462,53.0742906 C54.9785983,47.7190769 62.2521026,41.2500171 66.762188,34.8599316 C71.0230427,28.8226667 72.2924444,23.4534359 70.2449231,20.1279658 C68.6746667,17.5775385 65.1519316,16.2284786 60.2992821,16.2284786 M15.9690256,65.7529231 C10.3016752,65.7529231 6.20287179,64.0548034 4.19774359,60.798735 C1.62851282,56.6257436 2.89210256,50.5313846 7.75671795,43.6394188 C12.4350085,37.0110427 19.9375726,30.3269402 28.8825299,24.818906 C37.8278291,19.3108718 47.1727863,15.6195897 55.1977436,14.4257436 C63.5413333,13.1840342 69.5526154,14.7983932 72.1225299,18.9717265 C74.6924444,23.1447179 73.4285128,29.2390769 68.5638974,36.1313846 C63.8856068,42.7597607 56.3830427,49.4435214 47.4380855,54.9522393 C38.4931282,60.4602735 29.1478291,64.1512137 21.1232137,65.3450598 C19.2886838,65.6182222 17.5662906,65.7529231 15.9690256,65.7529231" id="Fill-1" fill="#558BED"></path>
                        <path d="M38.160547,2.20505983 C29.7643077,2.20505983 22.6713162,19.4607863 22.6713162,39.8854017 C22.6713162,60.3100171 29.7643077,77.5657436 38.160547,77.5657436 C46.5564444,77.5657436 53.6494359,60.3100171 53.6494359,39.8854017 C53.6494359,19.4607863 46.5564444,2.20505983 38.160547,2.20505983 M38.160547,79.7705299 C28.2384957,79.7705299 20.466188,62.2512137 20.466188,39.8854017 C20.466188,17.5195897 28.2384957,0.000273504274 38.160547,0.000273504274 C48.0822564,0.000273504274 55.8545641,17.5195897 55.8545641,39.8854017 C55.8545641,62.2512137 48.0822564,79.7705299 38.160547,79.7705299" id="Fill-3" fill="#558BED"></path>
                        <path d="M15.9873846,15.5243419 C11.5429402,15.5243419 8.27832479,16.7585299 6.71969231,19.1188718 C4.56755556,22.3773333 5.66533333,27.7845128 9.73234188,33.9537436 C14.0372991,40.4843419 21.1015726,47.1807521 29.6239658,52.8094701 C38.1460171,58.4385299 47.0779829,62.3075897 54.7737094,63.7038291 C62.0451624,65.0221197 67.4485812,63.9103248 69.6010598,60.6518632 C71.7531966,57.3934017 70.6550769,51.9858803 66.5884103,45.8166496 C62.283453,39.2863932 55.2188376,32.5899829 46.6964444,26.961265 C38.1743932,21.3318632 29.2424274,17.4631453 21.5467009,16.066906 C19.5419145,15.7031453 17.6790085,15.5243419 15.9873846,15.5243419 M60.3832821,66.4587009 C58.5467009,66.4587009 56.5398632,66.2648547 54.380547,65.8734017 C46.397641,64.4251966 37.1743932,60.4392137 28.4085812,54.6491282 C19.6431111,48.8600684 12.3569573,41.9414359 7.89131624,35.1674188 C3.24789744,28.124 2.17849573,21.9927179 4.87969231,17.9034872 C7.58020513,13.8139145 13.6400342,12.3920342 21.9402051,13.8969915 C29.9227692,15.3455385 39.146359,19.3315214 47.9121709,25.121265 C56.677641,30.9106667 63.9637949,37.8292991 68.4294359,44.6033162 C73.0725128,51.6463932 74.1422564,57.7780171 71.4410598,61.8672479 C69.4427692,64.8922051 65.6058462,66.4587009 60.3832821,66.4587009" id="Fill-5" fill="#558BED"></path>
                        <path d="M66.7806496,40.0926496 C66.7806496,38.2601709 65.2948376,36.774359 63.462359,36.774359 C61.6298803,36.774359 60.1440684,38.2601709 60.1440684,40.0926496 C60.1440684,41.9251282 61.6298803,43.4109402 63.462359,43.4109402 C65.2948376,43.4109402 66.7806496,41.9251282 66.7806496,40.0926496" id="Fill-7" fill="#558BED"></path>
                        <path d="M27.7905983,63.3208205 C27.7905983,61.4883419 26.3047863,60.0025299 24.4723077,60.0025299 C22.6398291,60.0025299 21.1540171,61.4883419 21.1540171,63.3208205 C21.1540171,65.1532991 22.6398291,66.6391111 24.4723077,66.6391111 C26.3047863,66.6391111 27.7905983,65.1532991 27.7905983,63.3208205" id="Fill-9" fill="#558BED"></path>
                        <path d="M15.6157949,40.4178462 C15.6157949,38.5850256 14.1303248,37.0995556 12.2975043,37.0995556 C10.4650256,37.0995556 8.97921368,38.5850256 8.97921368,40.4178462 C8.97921368,42.2503248 10.4650256,43.7361368 12.2975043,43.7361368 C14.1303248,43.7361368 15.6157949,42.2503248 15.6157949,40.4178462" id="Fill-11" fill="#558BED"></path>
                        <path d="M54.337094,64.1504957 C54.337094,62.3176752 52.8512821,60.8322051 51.0188034,60.8322051 C49.1863248,60.8322051 47.7005128,62.3176752 47.7005128,64.1504957 C47.7005128,65.9829744 49.1863248,67.4684444 51.0188034,67.4684444 C52.8512821,67.4684444 54.337094,65.9829744 54.337094,64.1504957" id="Fill-13" fill="#558BED"></path>
                        <path d="M28.6202735,15.2055043 C28.6202735,13.3730256 27.1344615,11.8872137 25.3019829,11.8872137 C23.4695043,11.8872137 21.9836923,13.3730256 21.9836923,15.2055043 C21.9836923,17.0379829 23.4695043,18.5237949 25.3019829,18.5237949 C27.1344615,18.5237949 28.6202735,17.0379829 28.6202735,15.2055043" id="Fill-15" fill="#558BED"></path>
                        <path d="M54.337094,16.0351795 C54.337094,14.2027009 52.8512821,12.7168889 51.0188034,12.7168889 C49.1863248,12.7168889 47.7005128,14.2027009 47.7005128,16.0351795 C47.7005128,17.8676581 49.1863248,19.3534701 51.0188034,19.3534701 C52.8512821,19.3534701 54.337094,17.8676581 54.337094,16.0351795" id="Fill-17" fill="#558BED"></path>
                        <path d="M24.4726496,61.1049573 C23.2507692,61.1049573 22.2565812,62.0988034 22.2565812,63.3206838 C22.2565812,64.5425641 23.2507692,65.5364103 24.4726496,65.5364103 C25.694188,65.5364103 26.6880342,64.5425641 26.6880342,63.3206838 C26.6880342,62.0988034 25.694188,61.1049573 24.4726496,61.1049573 M24.4726496,67.7415385 C22.0347009,67.7415385 20.051453,65.7586325 20.051453,63.3206838 C20.051453,60.8834188 22.0347009,58.8998291 24.4726496,58.8998291 C26.9102564,58.8998291 28.8935043,60.8834188 28.8935043,63.3206838 C28.8935043,65.7586325 26.9102564,67.7415385 24.4726496,67.7415385" id="Fill-19" fill="#FFFFFF"></path>
                        <path d="M51.0187692,61.9345983 C49.7972308,61.9345983 48.8030427,62.9284444 48.8030427,64.1503248 C48.8030427,65.3722051 49.7972308,66.3663932 51.0187692,66.3663932 C52.2403077,66.3663932 53.2341538,65.3722051 53.2341538,64.1503248 C53.2341538,62.9284444 52.2403077,61.9345983 51.0187692,61.9345983 M51.0187692,68.5711795 C48.5808205,68.5711795 46.5975726,66.5879316 46.5975726,64.1503248 C46.5975726,61.7127179 48.5808205,59.7294701 51.0187692,59.7294701 C53.4563761,59.7294701 55.4396239,61.7127179 55.4396239,64.1503248 C55.4396239,66.5879316 53.4563761,68.5711795 51.0187692,68.5711795" id="Fill-21" fill="#FFFFFF"></path>
                        <path d="M25.3019487,12.989641 C24.0804103,12.989641 23.0865641,13.9834872 23.0865641,15.2053675 C23.0865641,16.4275897 24.0804103,17.4214359 25.3019487,17.4214359 C26.5234872,17.4214359 27.5176752,16.4275897 27.5176752,15.2053675 C27.5176752,13.9834872 26.5234872,12.989641 25.3019487,12.989641 M25.3019487,19.6265641 C22.8643419,19.6265641 20.881094,17.6433162 20.881094,15.2053675 C20.881094,12.7681026 22.8643419,10.7845128 25.3019487,10.7845128 C27.7395556,10.7845128 29.7228034,12.7681026 29.7228034,15.2053675 C29.7228034,17.6433162 27.7395556,19.6265641 25.3019487,19.6265641" id="Fill-23" fill="#FFFFFF"></path>
                        <path d="M51.0187692,13.8196239 C49.7972308,13.8196239 48.8030427,14.8134701 48.8030427,16.0350085 C48.8030427,17.2568889 49.7972308,18.2510769 51.0187692,18.2510769 C52.2403077,18.2510769 53.2341538,17.2568889 53.2341538,16.0350085 C53.2341538,14.8134701 52.2403077,13.8196239 51.0187692,13.8196239 M51.0187692,20.4558632 C48.5808205,20.4558632 46.5975726,18.4726154 46.5975726,16.0350085 C46.5975726,13.5974017 48.5808205,11.6144957 51.0187692,11.6144957 C53.4563761,11.6144957 55.4396239,13.5974017 55.4396239,16.0350085 C55.4396239,18.4726154 53.4563761,20.4558632 51.0187692,20.4558632" id="Fill-25" fill="#FFFFFF"></path>
                        <path d="M21.5689915,6.90991453 C21.5689915,5.7642735 20.6404444,4.83606838 19.4951453,4.83606838 C18.3495043,4.83606838 17.4209573,5.7642735 17.4209573,6.90991453 C17.4209573,8.05555556 18.3495043,8.98376068 19.4951453,8.98376068 C20.6404444,8.98376068 21.5689915,8.05555556 21.5689915,6.90991453" id="Fill-27" fill="#558BED"></path>
                        <path d="M58.8997265,6.90991453 C58.8997265,5.7642735 57.9711795,4.83606838 56.8258803,4.83606838 C55.6802393,4.83606838 54.7516923,5.7642735 54.7516923,6.90991453 C54.7516923,8.05555556 55.6802393,8.98376068 56.8258803,8.98376068 C57.9711795,8.98376068 58.8997265,8.05555556 58.8997265,6.90991453" id="Fill-29" fill="#558BED"></path>
                        <path d="M21.5689915,72.4460855 C21.5689915,71.3004444 20.6404444,70.3722393 19.4951453,70.3722393 C18.3495043,70.3722393 17.4209573,71.3004444 17.4209573,72.4460855 C17.4209573,73.5913846 18.3495043,74.5199316 19.4951453,74.5199316 C20.6404444,74.5199316 21.5689915,73.5913846 21.5689915,72.4460855" id="Fill-31" fill="#558BED"></path>
                        <path d="M58.8997265,72.4460855 C58.8997265,71.3004444 57.9711795,70.3722393 56.8258803,70.3722393 C55.6802393,70.3722393 54.7516923,71.3004444 54.7516923,72.4460855 C54.7516923,73.5913846 55.6802393,74.5199316 56.8258803,74.5199316 C57.9711795,74.5199316 58.8997265,73.5913846 58.8997265,72.4460855" id="Fill-33" fill="#558BED"></path>
                        <path d="M75.4909402,40.0926496 C75.4909402,38.9470085 74.5623932,38.0188034 73.4174359,38.0188034 C72.2717949,38.0188034 71.3432479,38.9470085 71.3432479,40.0926496 C71.3432479,41.2382906 72.2717949,42.1664957 73.4174359,42.1664957 C74.5623932,42.1664957 75.4909402,41.2382906 75.4909402,40.0926496" id="Fill-35" fill="#558BED"></path>
                        <path d="M4.14779487,40.0926496 C4.14779487,38.9470085 3.21924786,38.0188034 2.07394872,38.0188034 C0.928649573,38.0188034 0.000102564103,38.9470085 0.000102564103,40.0926496 C0.000102564103,41.2382906 0.928649573,42.1664957 2.07394872,42.1664957 C3.21924786,42.1664957 4.14779487,41.2382906 4.14779487,40.0926496" id="Fill-37" fill="#558BED"></path>
                        <path d="M38.160547,45.9820855 C33.8952479,45.9820855 29.5916581,44.8925128 29.5916581,42.4579829 L31.7967863,42.4579829 C31.7967863,42.4036239 31.7820855,42.3649915 31.7766154,42.354735 C32.0046496,42.7728547 34.1656752,43.7769573 38.160547,43.7769573 C42.1550769,43.7769573 44.3161026,42.7728547 44.5441368,42.354735 C44.5383248,42.3649915 44.5236239,42.4036239 44.5236239,42.4579829 L46.7287521,42.4579829 C46.7287521,44.8925128 42.4258462,45.9820855 38.160547,45.9820855" id="Fill-39" fill="#3C446E"></path>
                        <path d="M38.160547,40.3096752 C33.8952479,40.3096752 29.5916581,39.2197607 29.5916581,36.7855726 L31.7967863,36.7855726 C31.7967863,36.7308718 31.7820855,36.6922393 31.7766154,36.6819829 C32.0046496,37.1004444 34.1653333,38.104547 38.160547,38.104547 C42.1554188,38.104547 44.3161026,37.1004444 44.5441368,36.6819829 C44.5383248,36.6922393 44.5236239,36.7308718 44.5236239,36.7855726 L46.7287521,36.7855726 C46.7287521,39.2197607 42.4258462,40.3096752 38.160547,40.3096752" id="Fill-41" fill="#3C446E"></path>
                        <path d="M38.160547,34.8509402 C33.8952479,34.8509402 29.5916581,33.7610256 29.5916581,31.3268376 L31.7967863,31.3268376 C31.7967863,31.2724786 31.7820855,31.2335043 31.7766154,31.2235897 C32.0046496,31.6417094 34.1656752,32.645812 38.160547,32.645812 C42.1550769,32.645812 44.3161026,31.6417094 44.5441368,31.2235897 C44.5383248,31.2335043 44.5236239,31.2724786 44.5236239,31.3268376 L46.7287521,31.3268376 C46.7287521,33.7610256 42.4258462,34.8509402 38.160547,34.8509402" id="Fill-43" fill="#3C446E"></path>
                        <path d="M31.7936752,48.0607521 C32.1092308,48.4963077 34.2610256,49.4522051 38.157094,49.4522051 C42.0558974,49.4522051 44.2066667,48.4963077 44.5208547,48.061094 L44.5208547,31.1824615 C44.2042735,30.7486154 42.0521368,29.798188 38.157094,29.798188 C34.2623932,29.798188 32.1099145,30.7486154 31.7936752,31.1824615 L31.7936752,48.0607521 Z M38.157094,51.6576752 C33.8921368,51.6576752 29.588547,50.5674188 29.588547,48.132547 L29.588547,31.109641 C29.588547,28.6802393 33.8921368,27.5930598 38.157094,27.5930598 C42.4223932,27.5930598 46.7259829,28.6802393 46.7259829,31.109641 L46.7259829,48.132547 C46.7259829,50.5674188 42.4223932,51.6576752 38.157094,51.6576752 L38.157094,51.6576752 Z" id="Fill-45" fill="#3C446E"></path>
                        <path d="M63.462359,37.8771282 C62.2404786,37.8771282 61.2466325,38.8709744 61.2466325,40.0928547 C61.2466325,41.3143932 62.2404786,42.3082393 63.462359,42.3082393 C64.6838974,42.3082393 65.6777436,41.3143932 65.6777436,40.0928547 C65.6777436,38.8709744 64.6838974,37.8771282 63.462359,37.8771282 M63.462359,44.5133675 C61.0247521,44.5133675 59.0411624,42.5304615 59.0411624,40.0928547 C59.0411624,37.6552479 61.0247521,35.672 63.462359,35.672 C65.8999658,35.672 67.8832137,37.6552479 67.8832137,40.0928547 C67.8832137,42.5304615 65.8999658,44.5133675 63.462359,44.5133675" id="Fill-47" fill="#FFFFFF"></path>
                        <path d="M12.0287179,37.8771282 C10.8071795,37.8771282 9.81333333,38.8709744 9.81333333,40.0928547 C9.81333333,41.3143932 10.8071795,42.3082393 12.0287179,42.3082393 C13.2502564,42.3082393 14.2444444,41.3143932 14.2444444,40.0928547 C14.2444444,38.8709744 13.2502564,37.8771282 12.0287179,37.8771282 M12.0287179,44.5133675 C9.59111111,44.5133675 7.60786325,42.5304615 7.60786325,40.0928547 C7.60786325,37.6552479 9.59111111,35.672 12.0287179,35.672 C14.4666667,35.672 16.4495726,37.6552479 16.4495726,40.0928547 C16.4495726,42.5304615 14.4666667,44.5133675 12.0287179,44.5133675" id="Fill-49" fill="#FFFFFF"></path>
                    </g>
                </g>
            </g>
        </g>
    </g>
</svg>