<?xml version="1.0" encoding="UTF-8"?>
<svg width="80px" height="80px" viewBox="0 0 80 80" version="1.1" xmlns="http://www.w3.org/2000/svg" xmlns:xlink="http://www.w3.org/1999/xlink">
    <title>用户社群</title>
    <defs>
        <polygon id="path-1" points="0 0.00420512821 17.8888205 0.00420512821 17.8888205 12.0561709 0 12.0561709"></polygon>
        <polygon id="path-3" points="0.326529915 0.228512821 12.3726838 0.228512821 12.3726838 18.1196581 0.326529915 18.1196581"></polygon>
        <polygon id="path-5" points="0.206188034 0.264102564 18.0967521 0.264102564 18.0967521 12.3123077 0.206188034 12.3123077"></polygon>
    </defs>
    <g id="avedex" stroke="none" stroke-width="1" fill="none" fill-rule="evenodd">
        <g id="首页0515" transform="translate(-1138.000000, -2470.000000)">
            <g id="开启你的avedex" transform="translate(0.000000, 2226.000000)">
                <g id="优点1备份-3" transform="translate(1035.000000, 214.000000)">
                    <g id="用户社群" transform="translate(103.000000, 30.000000)">
                        <path d="M7.99131624,36.8195556 C7.94311111,36.8195556 7.89490598,36.8164786 7.84567521,36.8103248 C7.24225641,36.7303248 6.81729915,36.1764786 6.89695726,35.5727179 C8.95439316,19.9891282 21.8306325,7.84451282 37.5137094,6.69613675 C38.1239658,6.64758974 38.649094,7.10810256 38.6935385,7.71494017 C38.7379829,8.32246154 38.2819145,8.85032479 37.6743932,8.89476923 C23.0289231,9.96793162 11.0043077,21.3087863 9.08328205,35.861265 C9.00977778,36.4157949 8.5362735,36.8195556 7.99131624,36.8195556" id="Fill-3" fill="#558BED"></path>
                        <polygon id="Fill-5" fill="#558BED" points="31.5139487 17.8885812 29.8161709 16.4779829 36.7737778 8.12311111 27.9313846 1.79353846 29.2175385 3.41880342e-05 39.9850598 7.71046154"></polygon>
                        <path d="M35.2325812,73.0108034 C35.1792479,73.0108034 35.1248889,73.0067009 35.070188,72.9991795 C19.7611282,70.7393504 7.82950427,57.8925128 6.6985641,42.4535385 C6.65411966,41.846359 7.11018803,41.317812 7.7177094,41.2733675 C8.32864957,41.229265 8.8534359,41.6849915 8.89788034,42.2921709 C9.95394872,56.7102906 21.0961709,68.7072137 35.3922393,70.8172991 C35.9946325,70.9065299 36.4107009,71.4665299 36.3224957,72.069265 C36.2411282,72.6172991 35.770359,73.0108034 35.2325812,73.0108034" id="Fill-7" fill="#558BED"></path>
                        <g id="编组" transform="translate(0.000000, 39.977778)">
                            <mask id="mask-2" fill="white">
                                <use xlink:href="#path-1"></use>
                            </mask>
                            <g id="Clip-10"></g>
                            <polygon id="Fill-9" fill="#558BED" mask="url(#mask-2)" points="17.8888205 8.4777094 16.4778803 10.1751453 8.12471795 3.21548718 1.79309402 12.0561709 -6.83760684e-05 10.7696752 7.71309402 0.00420512821"></polygon>
                        </g>
                        <path d="M42.3743248,73.2715556 C41.8016752,73.2715556 41.3182564,72.8291624 41.2758632,72.2493333 C41.2314188,71.641812 41.6874872,71.1136068 42.2950085,71.0695043 C56.2201368,70.0493333 67.8430427,59.7751453 70.5592821,46.0842051 C70.6779145,45.4865983 71.2577436,45.0995897 71.8550085,45.2171966 C72.4526154,45.3354872 72.8406496,45.9156581 72.722359,46.5129231 C69.813641,61.1741197 57.3671453,72.1765128 42.4560342,73.2684786 C42.4283419,73.2705299 42.4013333,73.2715556 42.3743248,73.2715556" id="Fill-11" fill="#558BED"></path>
                        <g id="编组" transform="translate(39.658120, 61.858120)">
                            <mask id="mask-4" fill="white">
                                <use xlink:href="#path-3"></use>
                            </mask>
                            <g id="Clip-14"></g>
                            <polygon id="Fill-13" fill="#558BED" mask="url(#mask-4)" points="8.81063248 0.228512821 10.506359 1.64116239 3.53849573 9.98748718 12.3726838 16.328 11.0841368 18.1197949 0.326529915 10.3956923"></polygon>
                        </g>
                        <path d="M72.1700171,38.6938803 C71.5977094,38.6938803 71.1139487,38.2514872 71.0718974,37.672 C70.0366838,23.5369573 59.5812991,11.8795214 45.6455726,9.32362393 C45.0465983,9.21388034 44.650359,8.63917949 44.7601026,8.04020513 C44.8695043,7.44191453 45.444547,7.04294017 46.0435214,7.15439316 C60.9662564,9.89217094 72.1624957,22.3752479 73.2712137,37.5109744 C73.3156581,38.117812 72.8592479,38.646359 72.2517265,38.6908034 C72.2243761,38.6931966 72.1973675,38.6938803 72.1700171,38.6938803" id="Fill-15" fill="#558BED"></path>
                        <g id="编组" transform="translate(61.880342, 27.670085)">
                            <mask id="mask-6" fill="white">
                                <use xlink:href="#path-5"></use>
                            </mask>
                            <g id="Clip-18"></g>
                            <polygon id="Fill-17" fill="#558BED" mask="url(#mask-6)" points="0.206188034 3.83162393 1.61849573 2.13521368 9.96687179 9.10068376 16.3046496 0.264102564 18.0967863 1.55196581 10.3761026 12.3123077"></polygon>
                        </g>
                        <path d="M60.0603077,52.1721026 C60.0603077,51.0999658 59.1912479,50.230906 58.1191111,50.230906 C57.0473162,50.230906 56.1782564,51.0999658 56.1782564,52.1721026 C56.1782564,53.2442393 57.0473162,54.1132991 58.1191111,54.1132991 C59.1912479,54.1132991 60.0603077,53.2442393 60.0603077,52.1721026" id="Fill-19" fill="#558BED"></path>
                        <path d="M60.0603077,39.5449231 C60.0603077,38.4727863 59.1912479,37.6037265 58.1191111,37.6037265 C57.0473162,37.6037265 56.1782564,38.4727863 56.1782564,39.5449231 C56.1782564,40.6170598 57.0473162,41.4861197 58.1191111,41.4861197 C59.1912479,41.4861197 60.0603077,40.6170598 60.0603077,39.5449231" id="Fill-21" fill="#558BED"></path>
                        <path d="M60.0603077,26.8585983 C60.0603077,25.7868034 59.1912479,24.9174017 58.1191111,24.9174017 C57.0473162,24.9174017 56.1782564,25.7868034 56.1782564,26.8585983 C56.1782564,27.930735 57.0473162,28.7997949 58.1191111,28.7997949 C59.1912479,28.7997949 60.0603077,27.930735 60.0603077,26.8585983" id="Fill-23" fill="#558BED"></path>
                        <path d="M23.2363761,52.1721026 C23.2363761,51.0999658 22.3673162,50.230906 21.2951795,50.230906 C20.2233846,50.230906 19.3543248,51.0999658 19.3543248,52.1721026 C19.3543248,53.2442393 20.2233846,54.1132991 21.2951795,54.1132991 C22.3673162,54.1132991 23.2363761,53.2442393 23.2363761,52.1721026" id="Fill-25" fill="#558BED"></path>
                        <path d="M23.2363761,39.5449231 C23.2363761,38.4727863 22.3673162,37.6037265 21.2951795,37.6037265 C20.2233846,37.6037265 19.3543248,38.4727863 19.3543248,39.5449231 C19.3543248,40.6170598 20.2233846,41.4861197 21.2951795,41.4861197 C22.3673162,41.4861197 23.2363761,40.6170598 23.2363761,39.5449231" id="Fill-27" fill="#558BED"></path>
                        <path d="M23.2363761,26.8585983 C23.2363761,25.7868034 22.3673162,24.9174017 21.2951795,24.9174017 C20.2233846,24.9174017 19.3543248,25.7868034 19.3543248,26.8585983 C19.3543248,27.930735 20.2233846,28.7997949 21.2951795,28.7997949 C22.3673162,28.7997949 23.2363761,27.930735 23.2363761,26.8585983" id="Fill-29" fill="#558BED"></path>
                        <path d="M44.8158974,2.5457094 C42.874359,2.28451282 40.8928205,2.17682051 38.9270085,2.22536752 L38.8801709,0.315623932 C40.9464957,0.264683761 43.0288889,0.377846154 45.0699145,0.652034188 L44.8158974,2.5457094 Z M52.6801709,4.49169231 C50.8350427,3.81511111 48.9242735,3.2814359 46.9998291,2.90605128 L47.365641,1.03083761 C49.3888889,1.42639316 51.3981197,1.98707692 53.3376068,2.69852991 L52.6801709,4.49169231 Z M17.9075214,9.31630769 L16.7878632,7.76861538 C18.4620513,6.55733333 20.2442735,5.47186325 22.0846154,4.54160684 L22.945812,6.2465641 C21.1953846,7.13135043 19.5003419,8.16417094 17.9075214,9.31630769 L17.9075214,9.31630769 Z M59.9393162,8.0848547 C58.2818803,7.02844444 56.5304274,6.09647863 54.7331624,5.31425641 L55.4948718,3.56280342 C57.3841026,4.38434188 59.2247863,5.36382906 60.9663248,6.47391453 L59.9393162,8.0848547 Z M11.8887179,14.7477607 L10.4637607,13.4759658 C11.8377778,11.9364786 13.3441026,10.4937436 14.9413675,9.18844444 L16.1502564,10.6674188 C14.6302564,11.9101538 13.1964103,13.2828034 11.8887179,14.7477607 L11.8887179,14.7477607 Z M66.2661538,13.1501538 C64.8753846,11.7665641 63.3625641,10.4807521 61.7707692,9.32895726 L62.8897436,7.78126496 C64.5632479,8.99152137 66.1519658,10.3422906 67.6135043,11.7963077 L66.2661538,13.1501538 Z M7.17247863,21.3392137 L5.50888889,20.4007521 C6.52119658,18.6045128 7.68461538,16.8739145 8.96598291,15.2568205 L10.4630769,16.4428034 C9.24324786,17.9822906 8.1365812,19.629812 7.17247863,21.3392137 L7.17247863,21.3392137 Z M71.3622222,19.4547692 C70.3020513,17.8048547 69.1,16.2250256 67.7899145,14.7587009 L69.2145299,13.4855385 C70.5912821,15.0270769 71.8548718,16.6875897 72.9694017,18.4219487 L71.3622222,19.4547692 Z M3.98205128,28.7805812 L2.15470085,28.2233162 C2.75606838,26.2534017 3.52051282,24.3139145 4.42683761,22.4585299 L6.14307692,23.2968205 C5.2808547,25.0622906 4.55367521,26.9074188 3.98205128,28.7805812 L3.98205128,28.7805812 Z M74.977265,26.712547 C74.2986325,24.8708376 73.4668376,23.0674188 72.5044444,21.3545983 L74.1700855,20.4188718 C75.1813675,22.2202393 76.0565812,24.1159658 76.7700855,26.0530598 L74.977265,26.712547 Z M2.47264957,36.7402393 L0.568376068,36.5904957 C0.73042735,34.5323761 1.05760684,32.4722051 1.54136752,30.4677607 L3.39846154,30.9156239 C2.9382906,32.8229744 2.62649573,34.7822906 2.47264957,36.7402393 L2.47264957,36.7402393 Z M78.9280342,44.866735 L77.0336752,44.6188718 C77.2876923,42.6776752 77.388547,40.695453 77.3348718,38.7289573 L79.2442735,38.6763077 C79.3010256,40.7433162 79.1947009,42.8253675 78.9280342,44.866735 L78.9280342,44.866735 Z M76.9116239,53.141265 L75.1157265,52.4899829 C75.7854701,50.6438291 76.3123077,48.7306667 76.6822222,46.8041709 L78.5581197,47.1638291 C78.1697436,49.1891282 77.6152137,51.2004103 76.9116239,53.141265 L76.9116239,53.141265 Z M6.67264957,60.989812 C5.5557265,59.2503248 4.57076923,57.4106667 3.74444444,55.5217778 L5.49452991,54.7559658 C6.28051282,56.5532308 7.21760684,58.3033162 8.27982906,59.9576752 L6.67264957,60.989812 Z M73.1594872,60.7816068 L71.5461538,59.7593846 C72.5967521,58.0998974 73.5235897,56.3453675 74.2996581,54.5453675 L76.054188,55.3016068 C75.2377778,57.1939145 74.2641026,59.0373333 73.1594872,60.7816068 L73.1594872,60.7816068 Z M12.0237607,67.6195556 C10.5608547,66.1617778 9.20324786,64.5778462 7.98854701,62.9118632 L9.53179487,61.7863932 C10.6876923,63.3716923 11.9796581,64.8790427 13.3721368,66.266735 L12.0237607,67.6195556 Z M67.8576068,67.4431453 L66.4993162,66.0998974 C67.8794872,64.704 69.1605128,63.1881026 70.3075214,61.5932308 L71.8582906,62.7087863 C70.6535043,64.3836581 69.3075214,65.9768205 67.8576068,67.4431453 L67.8576068,67.4431453 Z M18.6671795,72.9477607 C16.9294017,71.838359 15.2644444,70.5816068 13.7198291,69.2130598 L14.9861538,67.7826325 C16.4565812,69.0855385 18.0408547,70.2814359 19.6948718,71.3375043 L18.6671795,72.9477607 Z M61.2500855,72.8198974 L60.211453,71.2161368 C61.8589744,70.149812 63.4347009,68.9429744 64.8958974,67.6291282 L66.1728205,69.049641 C64.6377778,70.4304957 62.9813675,71.6985299 61.2500855,72.8198974 L61.2500855,72.8198974 Z M26.2928205,76.7286154 C24.3608547,76.0192137 22.4661538,75.1484444 20.6620513,74.1409231 L21.5940171,72.4732308 C23.3105983,73.432547 25.1129915,74.2605812 26.9512821,74.9351111 L26.2928205,76.7286154 Z M53.6350427,76.6475897 L52.9676923,74.8578462 C54.8070085,74.1720342 56.6063248,73.3337436 58.3164103,72.3651966 L59.2576068,74.0277607 C57.4603419,75.0455385 55.5683761,75.926906 53.6350427,76.6475897 L53.6350427,76.6475897 Z M34.5564103,78.7768205 C32.5116239,78.5016068 30.4729915,78.0598974 28.4965812,77.4643419 L29.0476923,75.6356239 C30.9276923,76.2014359 32.8668376,76.6219487 34.811453,76.8834872 L34.5564103,78.7768205 Z M43.0682051,78.9945983 C41.0035897,79.1638291 38.9184615,79.1720342 36.8699145,79.0192137 L37.0128205,77.1135726 C38.9618803,77.2595556 40.9468376,77.2520342 42.9119658,77.0906667 L43.0682051,78.9945983 Z" id="Fill-31" fill="#3C446E"></path>
                        <path d="M47.5843419,36.9076923 L41.392547,47.765812 L41.392547,54.8837607 C41.392547,55.4923077 40.9074188,55.9863248 40.2985299,55.9863248 C39.681094,55.9863248 39.1870769,55.4923077 39.1870769,54.8837607 L39.1870769,48.0123077 L33.4277607,37.7104274 C33.1275897,37.1811966 33.3214359,36.5107692 33.8510085,36.2109402 C34.3798974,35.9196581 35.0503248,36.1046154 35.3504957,36.634188 L40.2281026,45.3576068 L45.6701538,35.8140171 C45.9703248,35.2844444 46.649641,35.0994872 47.1785299,35.4078632 C47.7077607,35.7080342 47.8930598,36.3781197 47.5843419,36.9076923" id="Fill-33" fill="#558BED"></path>
                        <path d="M30.2836581,54.6377436 L50.1916923,54.6377436 L50.1916923,46.2230427 C50.1916923,43.1204786 48.7281026,40.182359 46.2628034,38.3078291 C44.6159658,39.9242393 42.4675897,40.8339829 40.2334017,40.8339829 C37.9988718,40.8339829 35.8552821,39.9269744 34.2159658,38.3146667 C31.741094,40.1871453 30.2836581,43.1105641 30.2836581,46.2230427 L30.2836581,54.6377436 Z M52.3971624,56.8428718 L28.0785299,56.8428718 L28.0785299,46.2230427 C28.0785299,42.2524444 30.0197265,38.5341538 33.2713504,36.2763761 C33.4251966,36.165265 33.5947692,36.0514188 33.7650256,35.9382564 L34.598188,35.3827009 L35.2313504,36.1591111 C36.5103248,37.7286838 38.3335726,38.6288547 40.2334017,38.6288547 C42.1304957,38.6288547 43.9578462,37.7276581 45.2463932,36.1563761 L45.8539145,35.4151795 L46.6727179,35.9139829 C46.9007521,36.0534701 47.1195556,36.2018462 47.338359,36.3611624 C50.5038291,38.6346667 52.3971624,42.3228718 52.3971624,46.2230427 L52.3971624,56.8428718 Z" id="Fill-35" fill="#558BED"></path>
                        <path d="M40.2375726,23.5326154 C36.5015043,23.5326154 33.4625299,26.9175726 33.4625299,31.0789402 C33.4625299,32.9657778 34.0898803,34.7685128 35.2293675,36.1558632 C36.5076581,37.7274872 38.3319316,38.6259487 40.2375726,38.6259487 C42.1363761,38.6259487 43.9616752,37.7264615 45.2447521,36.1575726 C46.3842393,34.7606496 47.0126154,32.9568889 47.0126154,31.0789402 C47.0126154,26.9175726 43.9732991,23.5326154 40.2375726,23.5326154 M40.2375726,40.8314188 C37.6656068,40.8314188 35.2177436,39.6358632 33.5216752,37.5514188 C32.0625299,35.7746667 31.2570598,33.4744957 31.2570598,31.0789402 C31.2570598,25.702188 35.2857778,21.3274872 40.2375726,21.3274872 C45.1890256,21.3274872 49.2177436,25.702188 49.2177436,31.0789402 C49.2177436,33.4635556 48.4132991,35.762359 46.9524444,37.5527863 C45.2474872,39.636547 42.8003077,40.8314188 40.2375726,40.8314188" id="Fill-37" fill="#558BED"></path>
                    </g>
                </g>
            </g>
        </g>
    </g>
</svg>