<?xml version="1.0" encoding="UTF-8"?>
<svg width="80px" height="80px" viewBox="0 0 80 80" version="1.1" xmlns="http://www.w3.org/2000/svg" xmlns:xlink="http://www.w3.org/1999/xlink">
    <title>去中心化内核</title>
    <defs>
        <polygon id="path-1" points="-0.000978902954 0.313755274 56.7611814 0.313755274 56.7611814 62.4470886 -0.000978902954 62.4470886"></polygon>
        <polygon id="path-3" points="0 79.7066667 79.7147679 79.7066667 79.7147679 0 0 0"></polygon>
    </defs>
    <g id="avedex" stroke="none" stroke-width="1" fill="none" fill-rule="evenodd">
        <g id="首页0515" transform="translate(-223.000000, -2470.000000)">
            <g id="开启你的avedex" transform="translate(0.000000, 2226.000000)">
                <g id="优点1" transform="translate(120.000000, 214.000000)">
                    <g id="去中心化内核" transform="translate(103.000000, 30.000000)">
                        <path d="M31.5968945,42.5408608 C31.5790042,41.6537722 31.5705654,40.7582447 31.5705654,39.8539409 C31.5705654,38.8254177 31.5790042,37.8147848 31.6053333,36.8210295 L33.7818734,36.8780759 C33.7562194,37.8529283 33.7477806,38.8449958 33.7477806,39.8539409 C33.7477806,40.74373 33.7562194,41.6247426 33.773097,42.4973165 L31.5968945,42.5408608 Z" id="Fill-1" fill="#558BED"></path>
                        <path d="M48.1254346,42.4370295 L45.9488945,42.3917975 C45.9661097,41.5546667 45.9745485,40.7084219 45.9745485,39.8540759 C45.9745485,38.8066498 45.9576709,37.7761013 45.9401181,36.7637806 L48.1173333,36.7263122 C48.1345485,37.7517975 48.1517637,38.7938228 48.1517637,39.8540759 C48.1517637,40.7236118 48.1433249,41.5843713 48.1254346,42.4370295" id="Fill-3" fill="#558BED"></path>
                        <path d="M36.7796793,45.9328608 L36.742211,48.1100759 C37.7673586,48.1276287 38.8097215,48.1451814 39.8611983,48.1451814 C40.9329283,48.1451814 41.9962194,48.1276287 43.0412827,48.1006245 L42.9859241,45.9244219 C40.9450802,45.9764051 38.8181603,45.9683038 36.7796793,45.9328608" id="Fill-5" fill="#558BED"></path>
                        <path d="M36.7422785,31.5891983 L36.7797468,33.7664135 C38.8178903,33.7306329 40.9448101,33.7228692 42.9859916,33.7751899 L43.0413502,31.5983122 C40.9701266,31.5459916 38.8121519,31.5540928 36.7422785,31.5891983" id="Fill-7" fill="#558BED"></path>
                        <path d="M67.9870042,39.9670211 C67.8421941,40.8534346 65.8762869,42.6120844 59.4965401,44.0716624 C59.630211,42.6539409 59.7027848,41.2065148 59.7027848,39.733097 C59.7027848,38.3427173 59.6359494,36.9763038 59.5167932,35.6348692 C65.9623629,37.1096371 67.8894515,38.8767257 67.9924051,39.7003544 C67.9927426,39.726346 67.9944304,39.7523376 67.9944304,39.7783291 C67.9940928,39.841789 67.9880169,39.9038987 67.9870042,39.9670211 L67.9870042,39.9670211 Z M57.5444726,53.4539409 C58.2860759,51.2328439 58.8531646,48.8557975 59.2190717,46.3619578 C62.0801688,45.7496371 65.1481857,44.8544473 67.3118987,43.5913249 C65.9039662,47.5386667 62.3893671,50.9901435 57.5444726,53.4539409 L57.5444726,53.4539409 Z M49.3625316,66.3325907 C52.2307173,63.9332658 54.6678481,60.4801013 56.455865,56.3194262 C60.5399156,54.5641519 63.9383966,52.1823797 66.3309705,49.3830549 C63.4891139,57.2510717 57.2345992,63.499173 49.3625316,66.3325907 L49.3625316,66.3325907 Z M43.6744304,67.1947004 C44.9254008,64.9921688 45.8013502,61.9008608 46.3907173,59.0988354 C48.9240506,58.7339409 51.3372152,58.1601013 53.5907173,57.4080338 C51.115443,62.2745316 47.6437131,65.7999325 43.6744304,67.1947004 L43.6744304,67.1947004 Z M40.3559494,67.8377384 L39.3578059,67.8357131 C38.2776371,67.1994262 36.8146835,64.6711561 35.6217722,59.367865 C37.0104641,59.4957975 38.4275105,59.566346 39.8695359,59.566346 C41.3061603,59.566346 42.7181435,59.4957975 44.1021097,59.3692152 C42.9068354,64.6876962 41.438481,67.2129283 40.3559494,67.8377384 L40.3559494,67.8377384 Z M26.1483544,57.4080338 C28.3971308,58.1590886 30.8055696,58.7315781 33.3331646,59.0964726 C33.9228692,61.8988354 34.7988186,64.9857553 36.0474262,67.1886245 C32.0848945,65.7894684 28.6199156,62.267443 26.1483544,57.4080338 L26.1483544,57.4080338 Z M13.3733333,49.3438987 C15.76827,52.1604388 19.1802532,54.5560506 23.2828692,56.3194262 C25.0739241,60.4865148 27.515443,63.9447426 30.3897046,66.3444051 C22.48827,63.5116624 16.212827,57.2419578 13.3733333,49.3438987 L13.3733333,49.3438987 Z M20.5196624,46.3626329 C20.8855696,48.856135 21.4529958,51.2331814 22.1942616,53.4539409 C17.3547679,50.9928439 13.8421941,47.5457553 12.4315612,43.6038143 C14.6020253,44.8652489 17.6727426,45.7553755 20.5196624,46.3626329 L20.5196624,46.3626329 Z M11.7557806,40.0601857 C11.755443,40.0439831 11.7540928,40.0277806 11.7537553,40.0115781 L11.755443,39.9842363 L11.7524051,39.9720844 C11.7503797,39.8917468 11.7422785,39.813097 11.7422785,39.733097 C11.7422785,39.7057553 11.745654,39.6790886 11.7459916,39.6517468 C12.0379747,38.5817046 14.4308861,36.9671899 20.2219409,35.6379072 C20.1031224,36.9783291 20.0359494,38.3433924 20.0359494,39.733097 C20.0359494,41.2065148 20.1085232,42.6539409 20.2425316,44.0716624 C14.0794937,42.6640675 12.0156962,40.9567257 11.7557806,40.0601857 L11.7557806,40.0601857 Z M22.1942616,26.0115781 C21.4280169,28.3065992 20.8464135,30.7666835 20.4825316,33.3506498 C16.8818565,34.1236456 14.1581435,35.0549536 12.3302954,36.1378228 C13.6727426,32.0804388 17.2416878,28.5307342 22.1942616,26.0115781 L22.1942616,26.0115781 Z M29.9248945,13.5302278 C27.2531646,15.9069367 24.9760338,19.2068523 23.2828692,23.1464304 C19.2646414,24.8733502 15.91173,27.2075274 13.5252321,29.9491308 C16.3738397,22.3984135 22.378903,16.3876118 29.9248945,13.5302278 L29.9248945,13.5302278 Z M36.2378059,12.2073586 C34.9348523,14.3430549 34.0126582,17.4451646 33.3814346,20.3619578 C30.8359494,20.7268523 28.411308,21.3023797 26.1483544,22.0578228 C28.6594093,17.1201013 32.1956118,13.5589198 36.2378059,12.2073586 L36.2378059,12.2073586 Z M39.8614346,11.7158819 C40.9814346,11.7158819 42.71173,14.3545316 44.0477637,20.0925907 C42.6810127,19.9687089 41.2875949,19.8995105 39.8695359,19.8995105 C38.4454008,19.8995105 37.0462447,19.9687089 35.6740928,20.0936034 C37.0101266,14.3545316 38.741097,11.7158819 39.8614346,11.7158819 L39.8614346,11.7158819 Z M53.5907173,22.0578228 C51.3223629,21.3003544 48.8919831,20.7238143 46.3404219,20.3592574 C45.7085232,17.4401013 44.7846414,14.3342785 43.4796624,12.1992574 C47.5309705,13.5457553 51.0749367,17.1116624 53.5907173,22.0578228 L53.5907173,22.0578228 Z M50.6955274,47.6348692 C52.9007595,47.4208608 54.996962,47.137654 56.9611814,46.7953755 C56.5014346,49.620692 55.76827,52.270481 54.8156962,54.6792574 C52.375865,55.6439831 49.6875949,56.3832236 46.8214346,56.8422954 C47.1853165,54.7673586 47.4833755,52.5094684 47.7031224,50.0898903 L45.5353586,49.8924219 C45.2963713,52.5192574 44.9635443,54.942211 44.5530802,57.1396793 C43.028692,57.3010295 41.4654852,57.3891308 39.8695359,57.3891308 C38.2681857,57.3891308 36.6999156,57.3003544 35.1704641,57.1379916 C34.7627004,54.9530127 34.4325738,52.5621266 34.1959494,49.9957131 L32.0281857,50.1955443 C32.2459072,52.5590886 32.5416034,54.7818734 32.9024473,56.84027 C30.0416878,56.3808608 27.3588186,55.6426329 24.923038,54.6792574 C23.9708017,52.2714937 23.2383122,49.6223797 22.7778903,46.7987511 C24.7333333,47.1430549 26.8383122,47.4279494 29.0708861,47.6429705 L29.2798312,45.4762194 C26.8393249,45.2409451 24.5625316,44.9195949 22.4751055,44.5283713 C22.3063291,42.9688776 22.2131646,41.3682025 22.2131646,39.733097 C22.2131646,38.1827173 22.2955274,36.6627173 22.4477637,35.1795105 C24.5166245,34.7923376 26.8025316,34.4686245 29.2825316,34.2228861 L29.0678481,32.056135 C26.8011814,32.2806076 24.6854008,32.5688776 22.741097,32.9111561 C23.198481,29.9963882 23.9434599,27.2632236 24.923038,24.7862616 C27.3696203,23.819173 30.065654,23.0789198 32.9402532,22.6198481 C32.5736709,24.6748692 32.2772996,26.8669367 32.062616,29.1724219 L34.2303797,29.3736034 C34.4632911,26.8713249 34.7957806,24.510481 35.2102954,22.3231392 C36.7269198,22.1638143 38.2820253,22.0767257 39.8695359,22.0767257 C41.4506329,22.0767257 43,22.1631392 44.5105485,22.3214515 C44.9223629,24.5020422 45.2521519,26.8294684 45.483038,29.2709873 L47.6508017,29.0657553 C47.4381435,26.8183291 47.1437975,24.6603544 46.7802532,22.6178228 C49.6616034,23.0762194 52.3640506,23.8168101 54.8156962,24.7862616 C55.7952743,27.2632236 56.5402532,29.9963882 56.9976371,32.9108186 C55.0401688,32.5661772 52.9318143,32.2806076 50.6951899,32.0645738 L50.4859072,34.2316624 C52.9270886,34.4672743 55.2042194,34.7886245 57.2909705,35.1795105 C57.4432068,36.6623797 57.5255696,38.1823797 57.5255696,39.733097 C57.5255696,41.3675274 57.4327426,42.967865 57.2636287,44.5270211 C55.1640506,44.9152068 52.8950211,45.2341941 50.4855696,45.4677806 L50.6955274,47.6348692 Z M67.4219409,36.1739409 C65.2636287,34.8831392 62.158481,33.9710717 59.255865,33.3482869 C58.8919831,30.7649958 58.3103797,28.3055865 57.5444726,26.0115781 C62.5118987,28.5381603 66.0889451,32.1010295 67.4219409,36.1739409 L67.4219409,36.1739409 Z M66.1753586,29.9055865 C63.7912236,27.1828861 60.452827,24.8642363 56.455865,23.1464304 C54.7660759,19.2149536 52.4956962,15.9211139 49.8310549,13.5450802 C57.3446414,16.4031392 63.3247257,22.3886245 66.1753586,29.9055865 L66.1753586,29.9055865 Z M70.1740084,39.6466835 C70.1733333,39.6375696 70.1699578,39.6291308 70.1692827,39.6203544 C70.1689451,39.5825485 70.1655696,39.5457553 70.1648945,39.5086245 C69.9880169,23.710481 57.6700422,10.7835612 42.1210127,9.62980591 C41.3814346,9.50119831 40.6310549,9.42862447 39.8695359,9.42862447 C39.1124051,9.42862447 38.3667511,9.50018565 37.6315612,9.62676793 C21.9532489,10.7720844 9.54413502,23.8853333 9.54413502,39.850903 C9.54413502,56.5459241 23.1107173,70.1310717 39.7983122,70.1638143 C39.8209283,70.1644895 39.8381435,70.1698903 39.8614346,70.1698903 C39.8864135,70.1698903 39.9113924,70.1641519 39.9363713,70.1634768 C56.5527426,70.1212827 70.0663291,56.6424641 70.1689451,40.0406076 C70.1699578,40.0088776 70.1763713,39.9676962 70.1763713,39.9413671 L70.1740084,39.6466835 Z" id="Fill-9" fill="#558BED"></path>
                        <path d="M9.16020253,65.2604219 C3.25336709,58.1356962 3.37552743e-05,49.1122363 3.37552743e-05,39.852827 C3.37552743e-05,17.8778059 17.8822278,0 39.8623122,0 C46.9215527,0 53.8494852,1.8649789 59.8967426,5.39409283 L58.7996962,7.2742616 C53.0849283,3.93991561 46.5364051,2.17721519 39.8623122,2.17721519 C19.0825654,2.17721519 2.17724895,19.078481 2.17724895,39.852827 C2.17724895,48.6059072 5.25235443,57.135865 10.8364895,63.8707173 L9.16020253,65.2604219 Z" id="Fill-11" fill="#558BED"></path>
                        <path d="M60.2864135,5.89167932 C60.2864135,4.7190211 59.335865,3.76847257 58.1632068,3.76847257 C56.9905485,3.76847257 56.04,4.7190211 56.04,5.89167932 C56.04,7.06433755 56.9905485,8.01488608 58.1632068,8.01488608 C59.335865,8.01488608 60.2864135,7.06433755 60.2864135,5.89167932" id="Fill-13" fill="#558BED"></path>
                        <path d="M12.6049283,64.7662785 C10.8439156,64.7662785 9.41134177,66.1988523 9.41134177,67.959865 C9.41134177,69.7212152 10.8439156,71.153789 12.6049283,71.153789 C14.3659409,71.153789 15.7985148,69.7212152 15.7985148,67.959865 C15.7985148,66.1988523 14.3659409,64.7662785 12.6049283,64.7662785 M12.6049283,73.3310042 C9.64324051,73.3310042 7.23378903,70.9215527 7.23378903,67.959865 C7.23378903,64.9981772 9.64324051,62.5890633 12.6049283,62.5890633 C15.5662785,62.5890633 17.97573,64.9981772 17.97573,67.959865 C17.97573,70.9215527 15.5662785,73.3310042 12.6049283,73.3310042" id="Fill-15" fill="#558BED"></path>
                        <path d="M20.5857215,74.7448439 C20.1938228,74.5277975 19.8059747,74.3046751 19.4221772,74.0754768 L20.5401519,72.2064473 C20.9026835,72.4234937 21.2692658,72.6348017 21.6398987,72.8396962 L20.5857215,74.7448439 Z" id="Fill-17" fill="#558BED"></path>
                        <g id="编组" transform="translate(22.953586, 17.259409)">
                            <mask id="mask-2" fill="white">
                                <use xlink:href="#path-1"></use>
                            </mask>
                            <g id="Clip-20"></g>
                            <path d="M49.4906667,3.66126582 C49.0704135,2.93991561 48.6207932,2.22362869 48.1536203,1.53232068 L49.9578397,0.313755274 C50.4520169,1.04523207 50.9276287,1.80270042 51.3718481,2.56590717 L49.4906667,3.66126582 Z M51.722903,8.1628692 C51.4035781,7.39324895 51.0531983,6.62295359 50.6818903,5.8742616 L52.6329451,4.90683544 C53.025519,5.69940928 53.3958143,6.5135865 53.7337046,7.32843882 L51.722903,8.1628692 Z M53.3320169,12.923038 C53.1186835,12.116962 52.8749705,11.307173 52.6076287,10.5159494 L54.6700759,9.8185654 C54.9532827,10.6560338 55.211173,11.5134177 55.4369958,12.3660759 L53.3320169,12.923038 Z M54.2893165,17.8563713 C54.1853502,17.0270042 54.0523544,16.1912236 53.8933671,15.3733333 L56.0307511,14.958481 C56.1988523,15.8243038 56.3399494,16.7080169 56.449654,17.5859916 L54.2893165,17.8563713 Z M56.7602025,22.8926582 L54.5826498,22.8781435 L54.584,22.5915612 C54.584,21.851308 54.5620591,21.1009283 54.5188523,20.3616878 L56.6923544,20.2347679 C56.7379241,21.0162025 56.7612152,21.8091139 56.7612152,22.5915612 L56.7602025,22.8926582 Z M56.3706667,28.1908861 L54.2147173,27.8881013 C54.3304979,27.0644726 54.4202869,26.2239662 54.4820591,25.3891983 L56.6531983,25.5491983 C56.5883882,26.4312236 56.4931983,27.3206751 56.3706667,28.1908861 L56.3706667,28.1908861 Z M55.2800338,33.3925738 L53.1838312,32.8032068 C53.409654,31.9998312 53.6108354,31.178903 53.7816371,30.363038 L55.9126076,30.8096203 C55.7320169,31.6727426 55.5190211,32.5422785 55.2800338,33.3925738 L55.2800338,33.3925738 Z M53.5034937,38.3971308 L51.505519,37.5329958 C51.8366582,36.7667511 52.145519,35.9812658 52.4229873,35.1981435 L54.475308,35.9259072 C54.1812996,36.7549367 53.8545485,37.5863291 53.5034937,38.3971308 L53.5034937,38.3971308 Z M51.0751392,43.118481 L49.2098228,41.9947679 C49.6402025,41.2805063 50.0516793,40.5429536 50.4324388,39.8020253 L52.3683038,40.7981435 C51.9659409,41.5812658 51.5304979,42.3620253 51.0751392,43.118481 L51.0751392,43.118481 Z M48.039865,47.4759494 L46.3396118,46.1159494 C46.8601181,45.4654852 47.3661097,44.7880169 47.8440844,44.1031224 L49.6300759,45.3480169 C49.125097,46.0727426 48.5900759,46.7883544 48.039865,47.4759494 L48.039865,47.4759494 Z M44.4523544,51.3949367 L42.9475443,49.8216034 C43.5497384,49.2457384 44.1407932,48.641519 44.705519,48.0251477 L46.3112574,49.4951899 C45.7141266,50.1470042 45.0889789,50.785654 44.4523544,51.3949367 L44.4523544,51.3949367 Z M40.3767426,54.8065823 L39.0930295,53.0479325 C39.7661097,52.5567932 40.4327764,52.0352743 41.0741266,51.498903 L42.4712574,53.1691139 C41.7931139,53.7365401 41.0883038,54.2870886 40.3767426,54.8065823 L40.3767426,54.8065823 Z M35.8822278,57.6477637 L34.8442532,55.7341772 C35.5764051,55.3368776 36.3065316,54.9085232 37.0140422,54.4616034 L38.1769114,56.3019409 C37.4288945,56.7751899 36.6565738,57.227173 35.8822278,57.6477637 L35.8822278,57.6477637 Z M2.44357806,59.7419409 C1.62197468,59.4219409 0.799696203,59.0695359 -0.000978902954,58.6941772 L0.924253165,56.7225316 C1.68070886,57.0776371 2.45775527,57.4111392 3.23345148,57.7135865 L2.44357806,59.7419409 Z M31.0457722,59.8658228 L30.2734515,57.8297046 C31.0565738,57.5329958 31.8373333,57.2062447 32.5934515,56.858903 L33.502481,58.836962 C32.7011308,59.2052321 31.8744641,59.5508861 31.0457722,59.8658228 L31.0457722,59.8658228 Z M7.51463291,61.3341772 C6.6575865,61.1275949 5.79547679,60.88827 4.95227004,60.6232911 L5.60442194,58.5466667 C6.40138397,58.7967932 7.21589873,59.0229536 8.02568776,59.2183966 L7.51463291,61.3341772 Z M25.9575021,61.4148523 L25.4646751,59.2940084 C26.2802025,59.1043038 27.0967426,58.8855696 27.8916793,58.6435443 L28.5256034,60.7265823 C27.6840844,60.9821097 26.8202869,61.2140084 25.9575021,61.4148523 L25.9575021,61.4148523 Z M12.7524388,62.2334177 C11.8751392,62.1429536 10.9890633,62.0207595 10.1185148,61.8715612 L10.4867848,59.7257384 C11.3097384,59.8668354 12.1475443,59.9822785 12.9765738,60.0680169 L12.7524388,62.2334177 Z M20.7126076,62.2678481 L20.5077131,60.0997468 C21.339443,60.0214346 22.1779241,59.9134177 22.999865,59.7797468 L23.3499072,61.9289451 C22.4800338,62.0703797 21.5929451,62.1844726 20.7126076,62.2678481 L20.7126076,62.2678481 Z M16.9053502,62.4470886 C16.4027342,62.4470886 15.9018059,62.4379747 15.4035781,62.4194093 L15.4835781,60.2442194 C16.3176709,60.2749367 17.162903,60.2779747 17.9986835,60.254346 L18.0607932,62.4305485 C17.6769958,62.4416878 17.2918481,62.4470886 16.9053502,62.4470886 L16.9053502,62.4470886 Z" id="Fill-19" fill="#3C446E" mask="url(#mask-2)"></path>
                        </g>
                        <path d="M69.6001013,16.7151055 C69.3398481,16.3812658 69.0738565,16.0514768 68.8034768,15.7270886 L70.475038,14.3323207 C70.7612827,14.6756118 71.0421266,15.0236287 71.3172321,15.3763713 L69.6001013,16.7151055 Z" id="Fill-21" fill="#558BED"></path>
                        <path d="M22.9902785,73.9276624 C22.9902785,72.7550042 22.03973,71.8044557 20.8667342,71.8044557 C19.6944135,71.8044557 18.7435274,72.7550042 18.7435274,73.9276624 C18.7435274,75.1006582 19.6944135,76.0508692 20.8667342,76.0508692 C22.03973,76.0508692 22.9902785,75.1006582 22.9902785,73.9276624" id="Fill-23" fill="#558BED"></path>
                        <mask id="mask-4" fill="white">
                            <use xlink:href="#path-3"></use>
                        </mask>
                        <g id="Clip-26"></g>
                        <path d="M30.2643038,49.0106329 L35.6685232,49.0106329 L35.6685232,43.6060759 L30.2643038,43.6060759 L30.2643038,49.0106329 Z M28.0870886,51.1881857 L37.8457384,51.1881857 L37.8457384,41.4295359 L28.0870886,41.4295359 L28.0870886,51.1881857 Z" id="Fill-25" fill="#3C446E" mask="url(#mask-4)"></path>
                        <path d="M44.1009283,48.9053165 L49.5048101,48.9053165 L49.5048101,43.5014346 L44.1009283,43.5014346 L44.1009283,48.9053165 Z M41.9237131,51.0825316 L51.6820253,51.0825316 L51.6820253,41.3242194 L41.9237131,41.3242194 L41.9237131,51.0825316 Z" id="Fill-27" fill="#3C446E" mask="url(#mask-4)"></path>
                        <path d="M30.2643038,35.7627004 L35.6685232,35.7627004 L35.6685232,30.3588186 L30.2643038,30.3588186 L30.2643038,35.7627004 Z M28.0870886,37.9399156 L37.8457384,37.9399156 L37.8457384,28.1816034 L28.0870886,28.1816034 L28.0870886,37.9399156 Z" id="Fill-28" fill="#3C446E" mask="url(#mask-4)"></path>
                        <path d="M44.1009283,35.6580591 L49.5048101,35.6580591 L49.5048101,30.2538397 L44.1009283,30.2538397 L44.1009283,35.6580591 Z M41.9237131,37.8349367 L51.6820253,37.8349367 L51.6820253,28.0766245 L41.9237131,28.0766245 L41.9237131,37.8349367 Z" id="Fill-29" fill="#3C446E" mask="url(#mask-4)"></path>
                        <path d="M66.9212827,9.27740084 C65.16027,9.27740084 63.7273586,10.7103122 63.7273586,12.4716624 C63.7273586,14.2326751 65.16027,15.6652489 66.9212827,15.6652489 C68.6822954,15.6652489 70.1148692,14.2326751 70.1148692,12.4716624 C70.1148692,10.7103122 68.6822954,9.27740084 66.9212827,9.27740084 M66.9212827,17.8421266 C63.9595949,17.8421266 61.5501435,15.4326751 61.5501435,12.4716624 C61.5501435,9.50963713 63.9595949,7.10052321 66.9212827,7.10052321 C69.8826329,7.10052321 72.2920844,9.50963713 72.2920844,12.4716624 C72.2920844,15.4326751 69.8826329,17.8421266 66.9212827,17.8421266" id="Fill-30" fill="#558BED" mask="url(#mask-4)"></path>
                    </g>
                </g>
            </g>
        </g>
    </g>
</svg>