<?xml version="1.0" encoding="UTF-8"?>
<svg width="79px" height="80px" viewBox="0 0 79 80" version="1.1" xmlns="http://www.w3.org/2000/svg" xmlns:xlink="http://www.w3.org/1999/xlink">
    <title>热门币种</title>
    <defs>
        <polygon id="path-1" points="0 78.7154662 77.8309351 78.7154662 77.8309351 0.0393577331 0 0.0393577331"></polygon>
    </defs>
    <g id="avedex" stroke="none" stroke-width="1" fill="none" fill-rule="evenodd">
        <g id="首页0515" transform="translate(-527.000000, -2469.000000)">
            <g id="开启你的avedex" transform="translate(0.000000, 2226.000000)">
                <g id="优点1备份" transform="translate(425.000000, 214.000000)">
                    <g id="热门币种" transform="translate(102.000000, 29.000000)">
                        <polygon id="Fill-1" fill="#558BED" points="14.036715 51.9361889 16.252496 51.9361889 16.252496 27.9669351 14.036715 27.9669351"></polygon>
                        <polygon id="Fill-2" fill="#558BED" points="26.5533011 16.2219216 52.1539882 16.2219216 52.1539882 14.0061406 26.5533011 14.0061406"></polygon>
                        <polygon id="Fill-3" fill="#558BED" points="62.3115405 51.9361889 64.5273215 51.9361889 64.5273215 27.9669351 62.3115405 27.9669351"></polygon>
                        <polygon id="Fill-4" fill="#558BED" points="26.5529576 66.6637466 52.4075148 66.6637466 52.4075148 64.4483092 26.5529576 64.4483092"></polygon>
                        <polygon id="Fill-5" fill="#558BED" points="48.8943854 32.5049232 47.4367794 30.8363886 56.2380676 23.1519227 57.6956736 24.8208009"></polygon>
                        <polygon id="Fill-6" fill="#558BED" points="21.7022179 56.2498851 20.245299 54.5803199 30.0744348 46.0009533 31.5313537 47.6705185"></polygon>
                        <polygon id="Fill-7" fill="#558BED" points="57.2580827 56.0023017 47.5533054 47.5469501 49.0091938 45.8763543 58.713971 54.3320494"></polygon>
                        <polygon id="Fill-8" fill="#558BED" points="30.1814793 32.4086656 21.7700998 25.0787246 23.2259882 23.4084724 31.6373677 30.7380698"></polygon>
                        <g id="热门币种2" transform="translate(0.000000, 0.303682)">
                            <path d="M39.0036832,28.1874656 C33.3287052,28.1874656 28.7119752,32.8041955 28.7119752,38.4795128 C28.7119752,44.1544908 33.3287052,48.77156 39.0036832,48.77156 C44.6786611,48.77156 49.2953911,44.1544908 49.2953911,38.4795128 C49.2953911,32.8041955 44.6786611,28.1874656 39.0036832,28.1874656 M39.0036832,50.9596464 C32.1221871,50.9596464 26.5235496,45.3610089 26.5235496,38.4795128 C26.5235496,31.5980167 32.1221871,25.9990399 39.0036832,25.9990399 C45.8851792,25.9990399 51.484156,31.5980167 51.484156,38.4795128 C51.484156,45.3610089 45.8851792,50.9596464 39.0036832,50.9596464" id="Fill-9" fill="#558BED"></path>
                            <path d="M43.281767,36.7824141 C42.5509346,37.381941 41.4689362,37.2737072 40.8707665,36.5435534 C40.5803336,36.1896731 40.4452959,35.743845 40.4904215,35.288856 C40.5355472,34.8331885 40.7557469,34.4226466 41.1096272,34.1322137 C41.4275427,33.8716383 41.8116199,33.7447436 42.1940006,33.7447436 C42.6900438,33.7447436 43.182694,33.9591754 43.5206277,34.3710744 C44.1191367,35.1019068 44.0122601,36.1835659 43.281767,36.7824141 M45.2133495,32.9840536 C43.8490612,31.3201715 41.3861492,31.0769 39.7222672,32.4398311 C38.9161122,33.1004303 38.415319,34.0358551 38.3128532,35.0727278 C38.24737,35.7340056 38.3657825,36.379676 38.6185542,36.9744527 L32.3111381,42.1452446 C31.8439347,42.5283039 31.775398,43.2174035 32.1584573,43.6849462 C32.3745855,43.9485752 32.6887688,44.0853094 33.0049878,44.0853094 C33.2492772,44.0853094 33.4949238,44.0042189 33.6984982,43.8376271 L34.3024359,43.3426018 L35.6633313,45.0024124 L37.3560531,43.6150523 L35.9948184,41.9549024 L36.846099,41.2576598 L38.2066551,42.9174704 L39.8990377,41.529771 L38.5384815,39.8702997 L40.0062536,38.6671745 C40.539958,39.0319122 41.1500028,39.2748444 41.8109413,39.3403275 C41.9422469,39.3535598 42.0725345,39.3600064 42.2028222,39.3600064 C43.1012643,39.3600064 43.9647593,39.0519303 44.6691271,38.4751359 C46.3323306,37.1111869 46.5766199,34.6479357 45.2133495,32.9840536" id="Fill-11" fill="#558BED"></path>
                            <mask id="mask-2" fill="white">
                                <use xlink:href="#path-1"></use>
                            </mask>
                            <g id="Clip-14"></g>
                            <polygon id="Fill-13" fill="#558BED" mask="url(#mask-2)" points="45.7336859 6.42684638 47.9221116 6.42684638 47.9221116 0.320969099 45.7336859 0.320969099"></polygon>
                            <path d="M71.7250578,32.0287125 L77.8309351,32.0287125 L77.8309351,29.8402868 L71.7250578,29.8402868 L71.7250578,32.0287125 Z M68.0206808,32.3998966 C67.211133,32.3998966 66.5552839,31.7437082 66.5552839,30.9344996 C66.5552839,30.1252911 67.211133,29.4691027 68.0206808,29.4691027 C68.8298894,29.4691027 69.4860778,30.1252911 69.4860778,30.9344996 C69.4860778,31.7437082 68.8298894,32.3998966 68.0206808,32.3998966 L68.0206808,32.3998966 Z" id="Fill-15" fill="#3C446E" mask="url(#mask-2)"></path>
                            <path d="M71.7250578,37.3616853 L77.8309351,37.3616853 L77.8309351,35.1732596 L71.7250578,35.1732596 L71.7250578,37.3616853 Z M68.0206808,37.7325302 C67.211133,37.7325302 66.5552839,37.076681 66.5552839,36.2674725 C66.5552839,35.4579246 67.211133,34.8020755 68.0206808,34.8020755 C68.8298894,34.8020755 69.4860778,35.4579246 69.4860778,36.2674725 C69.4860778,37.076681 68.8298894,37.7325302 68.0206808,37.7325302 L68.0206808,37.7325302 Z" id="Fill-16" fill="#3C446E" mask="url(#mask-2)"></path>
                            <path d="M71.7250578,42.6943189 L77.8309351,42.6943189 L77.8309351,40.5058932 L71.7250578,40.5058932 L71.7250578,42.6943189 Z M68.0206808,43.065503 C67.211133,43.065503 66.5552839,42.4096539 66.5552839,41.6004453 C66.5552839,40.7908975 67.211133,40.1350483 68.0206808,40.1350483 C68.8298894,40.1350483 69.4860778,40.7908975 69.4860778,41.6004453 C69.4860778,42.4096539 68.8298894,43.065503 68.0206808,43.065503 L68.0206808,43.065503 Z" id="Fill-17" fill="#3C446E" mask="url(#mask-2)"></path>
                            <path d="M71.7250578,48.0272917 L77.8309351,48.0272917 L77.8309351,45.838866 L71.7250578,45.838866 L71.7250578,48.0272917 Z M68.0206808,48.3988151 C67.211133,48.3988151 66.5552839,47.7426267 66.5552839,46.9334182 C66.5552839,46.1238703 67.211133,45.4676819 68.0206808,45.4676819 C68.8298894,45.4676819 69.4860778,46.1238703 69.4860778,46.9334182 C69.4860778,47.7426267 68.8298894,48.3988151 68.0206808,48.3988151 L68.0206808,48.3988151 Z" id="Fill-18" fill="#3C446E" mask="url(#mask-2)"></path>
                            <path d="M45.7428467,78.7154662 L47.9312724,78.7154662 L47.9312724,72.6095889 L45.7428467,72.6095889 L45.7428467,78.7154662 Z M45.3720019,68.9048727 C45.3720019,68.0956641 46.027851,67.4394757 46.8370596,67.4394757 C47.6466074,67.4394757 48.3024565,68.0956641 48.3024565,68.9048727 C48.3024565,69.7140812 47.6466074,70.3706089 46.8370596,70.3706089 C46.027851,70.3706089 45.3720019,69.7140812 45.3720019,68.9048727 L45.3720019,68.9048727 Z" id="Fill-19" fill="#3C446E" mask="url(#mask-2)"></path>
                            <path d="M40.4098739,78.7154662 L42.5982996,78.7154662 L42.5982996,72.6095889 L40.4098739,72.6095889 L40.4098739,78.7154662 Z M40.039029,68.9048727 C40.039029,68.0956641 40.6948782,67.4394757 41.504426,67.4394757 C42.3136346,67.4394757 42.9694837,68.0956641 42.9694837,68.9048727 C42.9694837,69.7140812 42.3136346,70.3706089 41.504426,70.3706089 C40.6948782,70.3706089 40.039029,69.7140812 40.039029,68.9048727 L40.039029,68.9048727 Z" id="Fill-20" fill="#3C446E" mask="url(#mask-2)"></path>
                            <path d="M35.0772403,78.7154662 L37.265666,78.7154662 L37.265666,72.6095889 L35.0772403,72.6095889 L35.0772403,78.7154662 Z M34.7057169,68.9048727 C34.7057169,68.0956641 35.3619053,67.4394757 36.1714532,67.4394757 C36.9806617,67.4394757 37.6368502,68.0956641 37.6368502,68.9048727 C37.6368502,69.7140812 36.9806617,70.3706089 36.1714532,70.3706089 C35.3619053,70.3706089 34.7057169,69.7140812 34.7057169,68.9048727 L34.7057169,68.9048727 Z" id="Fill-21" fill="#3C446E" mask="url(#mask-2)"></path>
                            <path d="M29.7442675,78.7154662 L31.9326932,78.7154662 L31.9326932,72.6095889 L29.7442675,72.6095889 L29.7442675,78.7154662 Z M29.3730834,68.9048727 C29.3730834,68.0956641 30.0289325,67.4394757 30.8384803,67.4394757 C31.6476889,67.4394757 32.3038773,68.0956641 32.3038773,68.9048727 C32.3038773,69.7140812 31.6476889,70.3706089 30.8384803,70.3706089 C30.0289325,70.3706089 29.3730834,69.7140812 29.3730834,68.9048727 L29.3730834,68.9048727 Z" id="Fill-22" fill="#3C446E" mask="url(#mask-2)"></path>
                            <path d="M29.8145007,6.14523502 L32.0029264,6.14523502 L32.0029264,0.0393577331 L29.8145007,0.0393577331 L29.8145007,6.14523502 Z M32.3741105,9.84995129 C32.3741105,10.6594991 31.7179221,11.3153483 30.9087135,11.3153483 C30.099505,11.3153483 29.4433166,10.6594991 29.4433166,9.84995129 C29.4433166,9.04074273 30.099505,8.38421503 30.9087135,8.38421503 C31.7179221,8.38421503 32.3741105,9.04074273 32.3741105,9.84995129 L32.3741105,9.84995129 Z" id="Fill-23" fill="#3C446E" mask="url(#mask-2)"></path>
                            <path d="M35.1478128,6.14523502 L37.3362385,6.14523502 L37.3362385,0.0393577331 L35.1478128,0.0393577331 L35.1478128,6.14523502 Z M37.7070834,9.84995129 C37.7070834,10.6594991 37.0508949,11.3153483 36.2416864,11.3153483 C35.4324778,11.3153483 34.7762894,10.6594991 34.7762894,9.84995129 C34.7762894,9.04074273 35.4324778,8.38421503 36.2416864,8.38421503 C37.0508949,8.38421503 37.7070834,9.04074273 37.7070834,9.84995129 L37.7070834,9.84995129 Z" id="Fill-24" fill="#3C446E" mask="url(#mask-2)"></path>
                            <path d="M40.4804464,6.14523502 L42.6688721,6.14523502 L42.6688721,0.0393577331 L40.4804464,0.0393577331 L40.4804464,6.14523502 Z M43.0400562,9.84995129 C43.0400562,10.6594991 42.3838678,11.3153483 41.5746592,11.3153483 C40.7651114,11.3153483 40.1092622,10.6594991 40.1092622,9.84995129 C40.1092622,9.04074273 40.7651114,8.38421503 41.5746592,8.38421503 C42.3838678,8.38421503 43.0400562,9.04074273 43.0400562,9.84995129 L43.0400562,9.84995129 Z" id="Fill-25" fill="#3C446E" mask="url(#mask-2)"></path>
                            <path d="M45.8130799,6.14523502 L48.0015056,6.14523502 L48.0015056,0.0393577331 L45.8130799,0.0393577331 L45.8130799,6.14523502 Z M48.373029,9.84995129 C48.373029,10.6594991 47.7168406,11.3153483 46.9076321,11.3153483 C46.0984235,11.3153483 45.4422351,10.6594991 45.4422351,9.84995129 C45.4422351,9.04074273 46.0984235,8.38421503 46.9076321,8.38421503 C47.7168406,8.38421503 48.373029,9.04074273 48.373029,9.84995129 L48.373029,9.84995129 Z" id="Fill-26" fill="#3C446E" mask="url(#mask-2)"></path>
                            <path d="M0,32.0287125 L6.10587729,32.0287125 L6.10587729,29.8402868 L0,29.8402868 L0,32.0287125 Z M8.34519658,30.9344996 C8.34519658,30.1252911 9.0010457,29.4691027 9.81025427,29.4691027 C10.6198021,29.4691027 11.2759905,30.1252911 11.2759905,30.9344996 C11.2759905,31.7437082 10.6198021,32.3998966 9.81025427,32.3998966 C9.0010457,32.3998966 8.34519658,31.7437082 8.34519658,30.9344996 L8.34519658,30.9344996 Z" id="Fill-27" fill="#3C446E" mask="url(#mask-2)"></path>
                            <path d="M0,37.3620246 L6.10587729,37.3620246 L6.10587729,35.1735989 L0,35.1735989 L0,37.3620246 Z M8.34519658,36.2674725 C8.34519658,35.4579246 9.0010457,34.8020755 9.81025427,34.8020755 C10.6198021,34.8020755 11.2759905,35.4579246 11.2759905,36.2674725 C11.2759905,37.076681 10.6198021,37.7325302 9.81025427,37.7325302 C9.0010457,37.7325302 8.34519658,37.076681 8.34519658,36.2674725 L8.34519658,36.2674725 Z" id="Fill-28" fill="#3C446E" mask="url(#mask-2)"></path>
                            <path d="M0,42.6943189 L6.10587729,42.6943189 L6.10587729,40.5058932 L0,40.5058932 L0,42.6943189 Z M8.34519658,41.6004453 C8.34519658,40.7908975 9.0010457,40.1350483 9.81025427,40.1350483 C10.6198021,40.1350483 11.2759905,40.7908975 11.2759905,41.6004453 C11.2759905,42.4096539 10.6198021,43.065503 9.81025427,43.065503 C9.0010457,43.065503 8.34519658,42.4096539 8.34519658,41.6004453 L8.34519658,41.6004453 Z" id="Fill-29" fill="#3C446E" mask="url(#mask-2)"></path>
                            <path d="M0,48.0272917 L6.10587729,48.0272917 L6.10587729,45.838866 L0,45.838866 L0,48.0272917 Z M8.34519658,46.9334182 C8.34519658,46.1238703 9.0010457,45.4676819 9.81025427,45.4676819 C10.6198021,45.4676819 11.2759905,46.1238703 11.2759905,46.9334182 C11.2759905,47.7426267 10.6198021,48.3988151 9.81025427,48.3988151 C9.0010457,48.3988151 8.34519658,47.7426267 8.34519658,46.9334182 L8.34519658,46.9334182 Z" id="Fill-30" fill="#3C446E" mask="url(#mask-2)"></path>
                            <path d="M63.8093355,25.3820396 L63.8093355,15.0377416 L72.7326836,9.88561076 L72.7326836,20.2336409 L63.8093355,25.3820396 Z M52.5397915,9.79434153 L61.6209099,15.0374023 L61.6209099,25.4729695 L52.5397915,20.2336409 L52.5397915,9.79434153 Z M71.6754535,7.9692963 L62.715462,13.1421239 L53.6764157,7.92349204 L62.6364072,2.74998588 L71.6754535,7.9692963 Z M62.6364072,0.222947986 L50.3513658,7.3165008 L50.3513658,21.4981778 L62.6364072,28.5846055 L74.9211093,21.4981778 L74.9211093,7.3165008 L62.6364072,0.222947986 Z" id="Fill-31" fill="#558BED" mask="url(#mask-2)"></path>
                            <path d="M16.1306991,74.8909803 L16.1306991,64.5466823 L25.0540472,59.3945515 L25.0540472,69.7425817 L16.1306991,74.8909803 Z M4.86115505,59.3032822 L13.9422734,64.5460037 L13.9422734,74.9819102 L4.86115505,69.7425817 L4.86115505,59.3032822 Z M23.9961384,57.4785763 L15.0368255,62.6510646 L5.99845782,57.432772 L14.9577708,52.2589266 L23.9961384,57.4785763 Z M14.9577708,49.7318887 L2.67272937,56.8257808 L2.67272937,71.0071185 L14.9577708,78.0935462 L27.2424728,71.0071185 L27.2424728,56.8257808 L14.9577708,49.7318887 Z" id="Fill-32" fill="#558BED" mask="url(#mask-2)"></path>
                            <path d="M16.1306991,25.3820396 L16.1306991,15.0377416 L25.0540472,9.88561076 L25.0540472,20.2336409 L16.1306991,25.3820396 Z M4.86115505,9.79434153 L13.9422734,15.0374023 L13.9422734,25.4729695 L4.86115505,20.2336409 L4.86115505,9.79434153 Z M23.996817,7.9692963 L15.0368255,13.1421239 L5.99777924,7.92349204 L14.9577708,2.74998588 L23.996817,7.9692963 Z M14.9577708,0.222947986 L2.67272937,7.3165008 L2.67272937,21.4981778 L14.9577708,28.5846055 L27.2424728,21.4981778 L27.2424728,7.3165008 L14.9577708,0.222947986 Z" id="Fill-33" fill="#558BED" mask="url(#mask-2)"></path>
                            <path d="M72.7327854,69.7426495 L63.8094373,74.8907089 L63.8094373,64.5467502 L72.7327854,59.3946193 L72.7327854,69.7426495 Z M53.6765175,57.4328399 L62.636509,52.2589945 L71.6748767,57.4786442 L62.7155638,62.6507932 L53.6765175,57.4328399 Z M61.6210116,74.9816388 L52.5398933,69.7426495 L52.5398933,59.3030108 L61.6210116,64.5460716 L61.6210116,74.9816388 Z M62.636509,49.7316173 L50.3514676,56.8258487 L50.3514676,71.0071863 L62.636509,78.093614 L74.9212111,71.0071863 L74.9212111,56.8258487 L62.636509,49.7316173 Z" id="Fill-34" fill="#558BED" mask="url(#mask-2)"></path>
                        </g>
                    </g>
                </g>
            </g>
        </g>
    </g>
</svg>