<svg width="9" height="9" viewBox="0 0 9 9" fill="none" xmlns="http://www.w3.org/2000/svg">
<g clip-path="url(#clip0_13611_80174)">
<path d="M4.5 8.3718C3.4735 8.37061 2.48938 7.96231 1.76354 7.23646C1.03769 6.51062 0.629391 5.5265 0.6282 4.5C0.629391 3.4735 1.03769 2.48938 1.76354 1.76354C2.48938 1.03769 3.4735 0.629391 4.5 0.6282C5.5265 0.629391 6.51062 1.03769 7.23646 1.76354C7.96231 2.48938 8.37061 3.4735 8.3718 4.5C8.37037 5.52643 7.96199 6.5104 7.2362 7.2362C6.5104 7.96199 5.52643 8.37037 4.5 8.3718ZM4.5 0C2.0187 0 0 2.0187 0 4.5C0 6.9813 2.0187 9 4.5 9C6.9813 9 9 6.9813 9 4.5C9 2.0187 6.9813 0 4.5 0Z" fill="#959A9F"/>
<path d="M4.59007 6.48C4.30207 6.48 4.03567 6.3783 3.83047 6.1722L3.00787 5.3505C2.90837 5.25072 2.82986 5.13202 2.777 5.0014C2.72413 4.87078 2.69797 4.73089 2.70007 4.59C2.70007 4.302 2.80267 4.0356 3.00787 3.8304L3.83047 3.0078C4.03567 2.8026 4.30207 2.7 4.59007 2.7C4.87807 2.7 5.14537 2.8026 5.35057 3.0078L6.17227 3.8304C6.37837 4.0356 6.48097 4.3029 6.48097 4.59C6.48097 4.878 6.37837 5.1453 6.17227 5.3505L5.35057 6.1722C5.14384 6.36541 4.87297 6.47536 4.59007 6.4809V6.48ZM4.59007 3.276C4.52797 3.27343 4.4661 3.28507 4.40917 3.31003C4.35225 3.33498 4.30176 3.37259 4.26157 3.42L3.43987 4.2408C3.35145 4.3281 3.29991 4.44601 3.29587 4.5702C3.29587 4.6935 3.33727 4.8168 3.43987 4.8987L4.26157 5.7204C4.42627 5.8851 4.73407 5.8851 4.91857 5.7204L5.74117 4.8987C5.82937 4.81162 5.8809 4.69407 5.88517 4.5702C5.88787 4.50795 5.8763 4.4459 5.85134 4.38881C5.82638 4.33172 5.7887 4.28109 5.74117 4.2408L4.91947 3.42C4.83216 3.33158 4.71426 3.28004 4.59007 3.276Z" fill="#959A9F"/>
</g>
<defs>
<clipPath id="clip0_13611_80174">
<rect width="9" height="9" fill="white"/>
</clipPath>
</defs>
</svg>
