<svg width="30" height="30" viewBox="0 0 30 30" fill="currentColor" xmlns="http://www.w3.org/2000/svg">
<path d="M21.8965 15.6943C21.8848 13.6962 22.79 12.1904 24.6182 11.08C23.5957 9.61516 22.0488 8.80949 20.0098 8.65422C18.0791 8.50188 15.9668 9.77922 15.1934 9.77922C14.376 9.77922 12.5068 8.70696 11.0361 8.70696C8.00098 8.75383 4.77539 11.1269 4.77539 15.955C4.77539 17.3818 5.03613 18.8554 5.55762 20.373C6.25488 22.371 8.76855 27.2665 11.3906 27.1874C12.7617 27.1552 13.7314 26.2148 15.5156 26.2148C17.2471 26.2148 18.1436 27.1874 19.6729 27.1874C22.3184 27.1493 24.5918 22.6991 25.2539 20.6952C21.7061 19.0224 21.8965 15.7968 21.8965 15.6943Z" fill="#222"/>
<path d="M18.8169 6.75879C20.3023 4.99512 20.1675 3.38965 20.1235 2.8125C18.811 2.88867 17.2935 3.70605 16.4292 4.71094C15.4771 5.78906 14.9175 7.12207 15.0376 8.625C16.4556 8.7334 17.7505 8.00391 18.8169 6.75879Z" fill="#222"/>
</svg>
