<?xml version="1.0" encoding="UTF-8"?>
<svg width="108px" height="67px" viewBox="0 0 108 67" version="1.1" xmlns="http://www.w3.org/2000/svg" xmlns:xlink="http://www.w3.org/1999/xlink">
    <title>完成审计</title>
    <g id="合约检测二级页面" stroke="none" stroke-width="1" fill="none" fill-rule="evenodd">
        <g id="NFT合约检测" transform="translate(-237.000000, -388.000000)">
            <g id="完成审计" transform="translate(237.000000, 389.000000)">
                <g id="编组-14" transform="translate(23.000000, 0.000000)">
                    <g id="编组-11" transform="translate(0.000000, -0.000000)" fill="#3F80F7" fill-rule="nonzero">
                        <path d="M59.477841,46.2928206 C59.6593431,45.9204903 60.108313,45.7657935 60.4806433,45.9472956 C60.8529736,46.1287977 61.0076704,46.5777676 60.8261683,46.9500979 C55.3072893,58.2714301 43.8052301,65.6090369 30.9845593,65.6090369 C18.2054881,65.6090369 6.73432763,58.3191221 1.19396334,47.0542803 C1.01115536,46.6825894 1.16427522,46.2330792 1.53596611,46.0502712 C1.907657,45.8674633 2.35716715,46.0205831 2.53997513,46.392274 C7.83036565,57.1488614 18.7826597,64.1090369 30.9845593,64.1090369 C43.2261664,64.1090369 54.2079847,57.1033117 59.477841,46.2928206 Z M30.9845593,-0.75 C43.7265829,-0.75 55.17017,6.49756765 60.7294024,17.7120964 C60.9133716,18.0832139 60.761658,18.5332006 60.3905405,18.7171698 C60.019423,18.9011391 59.5694363,18.7494254 59.3854671,18.3783079 C54.0770434,7.66973062 43.1510963,0.75 30.9845593,0.75 C18.7971047,0.75 7.85556692,7.69364073 2.55778122,18.4306173 C2.37449869,18.8020744 1.92479335,18.9546201 1.55333624,18.7713375 C1.18187912,18.588055 1.02933347,18.1383497 1.212616,17.7668926 C6.76071789,6.52260232 18.2206214,-0.75 30.9845593,-0.75 Z" id="形状"></path>
                        <path d="M30.9697682,4.51904683 C40.7974822,4.51904683 49.7426622,9.63991482 54.783928,17.8658481 C54.8560742,17.9835705 54.8191274,18.1374895 54.7014049,18.2096357 C54.5836825,18.2817819 54.4297635,18.2448351 54.3576173,18.1271127 C49.4063316,10.0480018 40.6217061,5.01904683 30.9697682,5.01904683 C21.1800541,5.01904683 12.2879341,10.1934705 7.38186538,18.4587823 C7.3113902,18.5775126 7.15800879,18.6166312 7.03927842,18.546156 C6.92054805,18.4756808 6.88142949,18.3222994 6.95190467,18.2035691 C11.9471503,9.78801996 21.0017512,4.51904683 30.9697682,4.51904683 Z M54.4566609,46.5690443 C54.5279866,46.4508229 54.6816449,46.4128065 54.7998663,46.4841322 C54.9180876,46.5554579 54.9561041,46.7091162 54.8847783,46.8273376 C49.8656229,55.1465155 40.866511,60.3399901 30.9697682,60.3399901 C21.1875171,60.3399901 12.2779587,55.266665 7.22269249,47.1020905 C7.15000763,46.9846998 7.18624883,46.8306132 7.30363948,46.7579283 C7.42103012,46.6852434 7.57511676,46.7214846 7.64780163,46.8388753 C12.6128434,54.8577316 21.3624744,59.8399901 30.9697682,59.8399901 C40.6894918,59.8399901 49.5270997,54.739721 54.4566609,46.5690443 Z" id="形状"></path>
                    </g>
                    <rect id="矩形" fill="#B4CEFB" x="11.5598133" y="16.8142739" width="38.1523747" height="1"></rect>
                    <g id="编组-12" transform="translate(15.528646, 47.813328)" fill="#3F80F7">
                        <polygon id="路径" transform="translate(25.822217, 3.924208) rotate(-251.000000) translate(-25.822217, -3.924208) " points="26.2830713 2.16121001 24.5522552 0.830949948 24.5445289 3.01156868 22.7369877 4.23722192 24.8187775 4.92385111 25.4323767 7.01746545 26.7229977 5.2552068 28.907446 5.3164122 27.6248872 3.54461329 28.3648611 1.49802834 26.2830713 2.16114283"></polygon>
                        <polygon id="路径" transform="translate(15.250216, 6.985131) rotate(-8.000000) translate(-15.250216, -6.985131) " points="16.2390758 5.97080768 15.4143146 3.94820772 14.3069738 5.83294436 12.1324017 5.99082876 13.5848711 7.62073326 13.0678164 9.73987785 15.0686485 8.86580293 16.9296689 10.0220542 16.7105791 7.84748214 18.3680294 6.43660025 16.2390758 5.97080768"></polygon>
                        <polygon id="路径" transform="translate(3.805059, 4.783211) rotate(-345.000000) translate(-3.805059, -4.783211) " points="2.84777549 5.86162905 3.88410183 7.78956556 4.78787245 5.79639256 6.93879547 5.41182647 5.32441067 3.93953763 5.62069587 1.77685726 3.7183568 2.85248674 1.75266241 1.90128361 2.19070764 4.03614945 0.671322223 5.61700901 2.84777549 5.86162905"></polygon>
                    </g>
                    <g id="编组-12备份" transform="translate(30.404347, 12.012732) scale(1, -1) translate(-30.404347, -12.012732) translate(15.528646, 6.799525)" fill="#3F80F7">
                        <polygon id="路径" transform="translate(25.822217, 3.924208) rotate(-251.000000) translate(-25.822217, -3.924208) " points="26.2830713 2.16121001 24.5522552 0.830949948 24.5445289 3.01156868 22.7369877 4.23722192 24.8187775 4.92385111 25.4323767 7.01746545 26.7229977 5.2552068 28.907446 5.3164122 27.6248872 3.54461329 28.3648611 1.49802834 26.2830713 2.16114283"></polygon>
                        <polygon id="路径" transform="translate(15.250216, 6.985131) rotate(-8.000000) translate(-15.250216, -6.985131) " points="16.2390758 5.97080768 15.4143146 3.94820772 14.3069738 5.83294436 12.1324017 5.99082876 13.5848711 7.62073326 13.0678164 9.73987785 15.0686485 8.86580293 16.9296689 10.0220542 16.7105791 7.84748214 18.3680294 6.43660025 16.2390758 5.97080768"></polygon>
                        <polygon id="路径" transform="translate(3.805059, 4.783211) rotate(-345.000000) translate(-3.805059, -4.783211) " points="2.84777549 5.86162905 3.88410183 7.78956556 4.78787245 5.79639256 6.93879547 5.41182647 5.32441067 3.93953763 5.62069587 1.77685726 3.7183568 2.85248674 1.75266241 1.90128361 2.19070764 4.03614945 0.671322223 5.61700901 2.84777549 5.86162905"></polygon>
                    </g>
                    <rect id="矩形备份-2" fill="#B4CEFB" x="11.5598133" y="47.2901453" width="38.1523747" height="1"></rect>
                </g>
                <g id="编组-16" transform="translate(81.000000, 26.000000)" fill="#3F80F7">
                    <rect id="矩形" x="0" y="0" width="27" height="1" rx="0.5"></rect>
                    <rect id="矩形备份-3" x="0" y="4" width="20" height="1" rx="0.5"></rect>
                    <rect id="矩形备份-5" x="0" y="8" width="15" height="1" rx="0.5"></rect>
                    <rect id="矩形备份-6" x="0" y="12" width="10" height="1" rx="0.5"></rect>
                </g>
                <g id="编组-16" transform="translate(13.500000, 32.500000) scale(-1, 1) translate(-13.500000, -32.500000) translate(0.000000, 26.000000)" fill="#3F80F7">
                    <rect id="矩形" x="0" y="0" width="27" height="1" rx="0.5"></rect>
                    <rect id="矩形备份-3" x="0" y="4" width="20" height="1" rx="0.5"></rect>
                    <rect id="矩形备份-5" x="0" y="8" width="15" height="1" rx="0.5"></rect>
                    <rect id="矩形备份-6" x="0" y="12" width="10" height="1" rx="0.5"></rect>
                </g>
            </g>
        </g>
    </g>
</svg>