<svg width="20" height="20" viewBox="0 0 20 20" fill="none" xmlns="http://www.w3.org/2000/svg">
<path d="M17.5 9.99989C17.5 10.6666 16.9167 11.2499 16.25 11.2499H11.9167L10 7.49989L12 3.99989C12.3333 3.41655 13.0833 3.16655 13.75 3.49989C14.3333 3.83322 14.5833 4.58322 14.25 5.24989L12.25 8.74989H16.3333C16.9167 8.74989 17.5 9.33322 17.5 9.99989Z" fill="white"/>
<path d="M13.7499 16.5003C13.1666 16.8337 12.3332 16.667 11.9999 16.0003L9.99989 12.5003L7.99989 16.0003C7.66655 16.5837 6.91655 16.8337 6.24989 16.5003C5.66655 16.167 5.41655 15.417 5.74989 14.7503L7.74989 11.2503L9.91655 11.167L12.0832 11.2503L14.0832 14.7503C14.5832 15.3337 14.3332 16.167 13.7499 16.5003Z" fill="white"/>
<path d="M9.99989 7.49967L9.41655 9.08301L7.83322 8.83301L5.74989 5.24967C5.41655 4.66634 5.66655 3.83301 6.24989 3.49967C6.83322 3.16634 7.66655 3.33301 7.99989 3.99967L9.99989 7.49967Z" fill="white"/>
<path d="M9.66667 8.75L8.16667 11.25H3.75C3.08333 11.25 2.5 10.6667 2.5 10C2.5 9.33333 3.08333 8.75 3.75 8.75H9.66667Z" fill="white"/>
<path d="M12.1663 11.25H7.83301L9.99967 7.5L12.1663 11.25Z" fill="white"/>
</svg>
