<?xml version="1.0" encoding="utf-8"?>
<!-- Generator: Adobe Illustrator 24.1.0, SVG Export Plug-In . SVG Version: 6.00 Build 0)  -->
<svg version="1.1" id="图层_1" xmlns="http://www.w3.org/2000/svg" xmlns:xlink="http://www.w3.org/1999/xlink" x="0px" y="0px"
	 viewBox="0 0 1095.2 518" style="enable-background:new 0 0 1095.2 518;" xml:space="preserve">
<style type="text/css">
	.st0{fill:#FFFFFF;}
	.st1{fill:url(#SVGID_1_);}
	.st2{fill:url(#SVGID_2_);}
	.st3{fill:url(#SVGID_3_);}
	.st4{opacity:0.5;}
	.st5{fill:url(#SVGID_4_);}
	.st6{fill:url(#SVGID_5_);}
	.st7{fill:url(#SVGID_6_);}
	.st8{opacity:0.51;fill:#3F7CED;enable-background:new    ;}
	.st9{fill:none;}
</style>
<path class="st0" d="M668.4,293.3h-72.2l-13.8,33.3h-36.9L614.8,171h35.6L720,326.6h-37.8L668.4,293.3z M657.1,266l-24.7-59.6
	L607.7,266H657.1z"/>
<path class="st0" d="M846.2,207.1l-50.5,119.6H760l-50.2-119.6h35.8l33.1,81.3l34.2-81.3L846.2,207.1L846.2,207.1z"/>
<path class="st0" d="M973.5,276.6h-90.4c1.4,7.1,5.6,13.4,11.5,17.5c6.1,4.3,13.6,6.5,22.7,6.5c5.6,0.1,11.3-0.8,16.6-2.8
	c5-2,9.6-5,13.4-8.8l18.5,20c-11.3,12.9-27.7,19.3-49.3,19.3c-13.5,0-25.4-2.6-35.8-7.9c-9.9-4.9-18.3-12.5-24-21.9
	c-5.7-9.6-8.6-20.6-8.4-31.8c-0.2-11.1,2.7-22.1,8.3-31.7c5.5-9.3,13.4-16.9,22.9-22c20.2-10.4,44.1-10.5,64.3-0.3
	c9.4,4.9,17.1,12.4,22.3,21.7c5.4,9.4,8.1,20.3,8.1,32.8C974.2,267.8,974,270.9,973.5,276.6z M892.4,238.2
	c-5.3,4.5-8.6,10.5-9.8,18.2h58.9c-1.2-7.6-4.4-13.6-9.8-18.1c-5.3-4.5-11.9-6.8-19.6-6.8C904.4,231.5,897.8,233.8,892.4,238.2z"/>
<linearGradient id="SVGID_1_" gradientUnits="userSpaceOnUse" x1="388.8874" y1="2887.9246" x2="157.9573" y2="2644.3647" gradientTransform="matrix(1 0 0 1 0 -2480)">
	<stop  offset="1.000000e-02" style="stop-color:#9D95FF"/>
	<stop  offset="0.19" style="stop-color:#8E95FB"/>
	<stop  offset="1" style="stop-color:#5397ED"/>
</linearGradient>
<path class="st1" d="M422.6,360.2l-14.5-24.4H200l104.2-180.3L277,108.1h-35.1c-15.3,0-29.4,8.3-37,21.6l-63,111.1
	c-7.4,13-7.4,29,0,42l44.1,77.8l18.9,33.3c7.6,13.3,21.7,21.6,37,21.6h124.6c15.3,0,29.5-8.2,37.1-21.6l18.8-33.1l0,0L422.6,360.2z"
	/>
<linearGradient id="SVGID_2_" gradientUnits="userSpaceOnUse" x1="264.3674" y1="2870.8799" x2="389.0374" y2="2698.9199" gradientTransform="matrix(1 0 0 1 0 -2480)">
	<stop  offset="1.000000e-02" style="stop-color:#9D95FF"/>
	<stop  offset="0.17" style="stop-color:#9093FC"/>
	<stop  offset="1" style="stop-color:#558BED"/>
</linearGradient>
<path class="st2" d="M408.2,335.8H200.4l0.9-0.5l69.7-41.9c10.8-7,18.8-11.1,26.5-12.4c0.2,0,0.4-0.1,0.5-0.1c0.5-0.1,1-0.1,1.5-0.2
	c0.9-0.1,1.7-0.2,2.6-0.2h1.6c1.2,0,2.5,0.1,3.7,0.3c8,1.1,16.5,5,28.1,11.7l72.3,43L408.2,335.8z"/>
<linearGradient id="SVGID_3_" gradientUnits="userSpaceOnUse" x1="304.3434" y1="2897.6699" x2="304.2434" y2="2765.8101" gradientTransform="matrix(1 0 0 1 0 -2480)">
	<stop  offset="1.000000e-02" style="stop-color:#9D95FF"/>
	<stop  offset="2.000000e-02" style="stop-color:#9B95FF"/>
	<stop  offset="0.25" style="stop-color:#7C96F7"/>
	<stop  offset="0.47" style="stop-color:#6597F1"/>
	<stop  offset="0.68" style="stop-color:#5897EE"/>
	<stop  offset="0.86" style="stop-color:#5397ED"/>
</linearGradient>
<path class="st3" d="M422.6,360.2l-0.4,0.6L403.4,394c-7.6,13.3-21.7,21.6-37,21.6H241.9c-15.3,0-29.4-8.3-37-21.6L186,360.7l0,0
	l0,0l14.4-24.9l0.7-0.5l69.8-42c10.8-7,18.9-11.1,26.5-12.4c0.2,0,0.4-0.1,0.5-0.1c0.5-0.1,1-0.1,1.5-0.2c0.9-0.1,1.7-0.2,2.6-0.2
	h1.6c1.2,0,2.5,0.1,3.7,0.3c8,1.1,16.5,5,28,11.7l72.4,43.1l0.4,0.2L422.6,360.2z"/>
<g class="st4">
	
		<linearGradient id="SVGID_4_" gradientUnits="userSpaceOnUse" x1="268.2046" y1="2865.0745" x2="339.7955" y2="2766.3254" gradientTransform="matrix(1 0 0 1 0 -2480)">
		<stop  offset="1.000000e-02" style="stop-color:#9D95FF"/>
		<stop  offset="0.41" style="stop-color:#7185F7"/>
		<stop  offset="1" style="stop-color:#3670ED"/>
	</linearGradient>
	<path class="st5" d="M335.1,292.4c-27.5-15.9-37.7-16.5-64.4,0.9l-70.6,42.4l70.6-33.4c26.7-17.4,36.8-16.8,64.4-0.9l72.8,34.3
		L335.1,292.4z"/>
</g>
<linearGradient id="SVGID_5_" gradientUnits="userSpaceOnUse" x1="329.8951" y1="2578.4761" x2="466.605" y2="2826.6262" gradientTransform="matrix(1 0 0 1 0 -2480)">
	<stop  offset="1.000000e-02" style="stop-color:#9D95FF"/>
	<stop  offset="2.000000e-02" style="stop-color:#9B95FF"/>
	<stop  offset="0.25" style="stop-color:#7C96F7"/>
	<stop  offset="0.47" style="stop-color:#6597F1"/>
	<stop  offset="0.68" style="stop-color:#5897EE"/>
	<stop  offset="0.86" style="stop-color:#5397ED"/>
</linearGradient>
<path class="st6" d="M466.5,282.8l-44.2,78l0,0l0.4-0.6l-14.5-24.4l0,0L304.4,155.2l-0.1,0.2L277,108.1h89.5
	c15.3,0,29.4,8.3,37,21.6l63,111.1C473.8,253.9,473.8,269.8,466.5,282.8z"/>
<linearGradient id="SVGID_6_" gradientUnits="userSpaceOnUse" x1="-5715.4834" y1="2790.3452" x2="-5910.3887" y2="2584.771" gradientTransform="matrix(-1 0 0 1 -5583 -2480)">
	<stop  offset="1.000000e-02" style="stop-color:#9D95FF"/>
	<stop  offset="0.19" style="stop-color:#8E95FB"/>
	<stop  offset="1" style="stop-color:#5397ED"/>
</linearGradient>
<path class="st7" d="M141.5,282.8l44.2,78l0,0l-0.4-0.6l14.5-24.4l0,0l103.8-180.6l0.1,0.2l27.2-47.3h-89.5
	c-15.3,0-29.4,8.3-37,21.6l-63,111.1C134.2,253.9,134.2,269.8,141.5,282.8z"/>
<polygon class="st8" points="331,108 304,155 309,163 "/>
<rect id="_切片_" x="67" y="49" class="st9" width="1469" height="434"/>
</svg>
