<svg width="40" height="40" viewBox="0 0 40 40" fill="none" xmlns="http://www.w3.org/2000/svg">
<g clip-path="url(#clip0_3143_1883)">
<rect x="18.353" y="25.3167" width="4.09441" height="10.236" fill="white"/>
<rect x="11.188" y="35.5515" width="18.4249" height="4.09441" fill="white"/>
<path d="M39.0005 5.68979V12.3802L38.5503 12.7406L34.4565 16.016L32.5063 17.5755V5.68979H39.0005Z" stroke="white" stroke-width="2.4"/>
<path d="M1.80029 5.68979V12.3802L2.25049 12.7406L6.34424 16.016L8.29443 17.5755V5.68979H1.80029Z" stroke="white" stroke-width="2.4"/>
<path d="M33.7061 14.0585C33.7061 21.4077 27.7486 27.3651 20.3994 27.3651C13.0503 27.365 7.09277 21.4076 7.09277 14.0585V0.751862H33.7061V14.0585ZM18.791 9.79581H13.585L17.7969 12.8564L16.1875 17.8075L20.3994 14.747L24.6113 17.8075L23.002 12.8564L27.2139 9.79581H22.0078L20.3994 4.84561L18.791 9.79581Z" fill="white"/>
</g>
<defs>
<clipPath id="clip0_3143_1883">
<rect width="40" height="40" fill="white"/>
</clipPath>
</defs>
</svg>
