<svg width="40" height="40" viewBox="0 0 40 40" fill="none" xmlns="http://www.w3.org/2000/svg">
<path d="M5 2.9V9.6824C4.99991 9.81328 5.02857 9.94261 5.08398 10.0614C5.13939 10.1801 5.22021 10.2854 5.32081 10.37L15.9638 19.3133C16.0642 19.3978 16.1449 19.503 16.2003 19.6216C16.2556 19.7402 16.2843 19.8693 16.2843 20C16.2843 20.1307 16.2556 20.2598 16.2003 20.3784C16.1449 20.497 16.0642 20.6022 15.9638 20.6867L5.32081 29.63C5.22021 29.7146 5.13939 29.8199 5.08398 29.9386C5.02857 30.0574 4.99991 30.1867 5 30.3176V37.1C5 37.2182 5.02344 37.3352 5.06898 37.4444C5.11453 37.5536 5.18128 37.6528 5.26544 37.7364C5.34959 37.82 5.44949 37.8863 5.55944 37.9315C5.66939 37.9767 5.78724 38 5.90625 38H33.0938C33.2128 38 33.3306 37.9767 33.4406 37.9315C33.5505 37.8863 33.6504 37.82 33.7346 37.7364C33.8187 37.6528 33.8855 37.5536 33.931 37.4444C33.9766 37.3352 34 37.2182 34 37.1V30.3176C34.0001 30.1867 33.9714 30.0574 33.916 29.9386C33.8606 29.8199 33.7798 29.7146 33.6792 29.63L23.038 20.6867C22.9376 20.6022 22.8569 20.497 22.8016 20.3784C22.7462 20.2598 22.7176 20.1307 22.7176 20C22.7176 19.8693 22.7462 19.7402 22.8016 19.6216C22.8569 19.503 22.9376 19.3978 23.038 19.3133L33.6792 10.37C33.7798 10.2854 33.8606 10.1801 33.916 10.0614C33.9714 9.94261 34.0001 9.81328 34 9.6824V2.9C34 2.78181 33.9766 2.66478 33.931 2.55558C33.8855 2.44639 33.8187 2.34718 33.7346 2.2636C33.6504 2.18003 33.5505 2.11374 33.4406 2.06851C33.3306 2.02328 33.2128 2 33.0938 2H5.90625C5.78724 2 5.66939 2.02328 5.55944 2.06851C5.44949 2.11374 5.34959 2.18003 5.26544 2.2636C5.18128 2.34718 5.11453 2.44639 5.06898 2.55558C5.02344 2.66478 5 2.78181 5 2.9Z" fill="white"/>
</svg>
