<svg width="28" height="28" viewBox="0 0 28 28" fill="none" xmlns="http://www.w3.org/2000/svg">
<g clip-path="url(#clip0_40520_42591)">
<path opacity="0.2" d="M24.9203 12.7772C24.3165 12.7772 23.8266 12.2873 23.8266 11.6835C23.8266 8.61553 22.6322 5.73242 20.4633 3.56228C20.0357 3.1347 20.0357 2.44356 20.4633 2.01578C20.8908 1.5882 21.5822 1.5882 22.0098 2.01578C24.5923 4.59809 26.014 8.03154 26.014 11.6835C26.014 12.2873 25.5241 12.7772 24.9203 12.7772Z" fill="#6B9FFF"/>
<path opacity="0.2" d="M3.04534 12.7772C2.44172 12.7772 1.95166 12.2873 1.95166 11.6835C1.95166 8.03154 3.37359 4.59809 5.95589 2.01578C6.38347 1.5882 7.07481 1.5882 7.50239 2.01578C7.93017 2.44356 7.93017 3.1347 7.50239 3.56228C5.33345 5.73122 4.13923 8.61553 4.13923 11.6835C4.13923 12.2873 3.64916 12.7772 3.04534 12.7772Z" fill="#6B9FFF"/>
<path opacity="0.2" d="M20.1426 20.5989C20.1426 24.0009 17.3849 26.7586 13.9829 26.7586C10.581 26.7586 7.823 24.0009 7.823 20.5989C7.823 17.1969 10.581 14.439 13.9829 14.439C17.3849 14.439 20.1426 17.1969 20.1426 20.5989Z" fill="#256AE7"/>
<path d="M13.983 5.24996C13.3792 5.24996 12.8892 4.7601 12.8892 4.15628V1.96871C12.8892 1.3651 13.3792 0.875031 13.983 0.875031C14.5867 0.875031 15.0767 1.3651 15.0767 1.96871V4.15628C15.0767 4.7601 14.5867 5.24996 13.983 5.24996Z" fill="#256AE7"/>
<path d="M24.2414 19.3725C22.5875 17.9746 21.6392 15.9326 21.6392 13.7681V10.7188C21.6392 6.49685 18.2038 3.06259 13.983 3.06259C9.76212 3.06259 6.32666 6.49685 6.32666 10.7188V13.7681C6.32666 15.9326 5.37837 17.9758 3.71492 19.3823C3.28934 19.7454 3.04541 20.2759 3.04541 20.8359C3.04541 21.8915 3.90397 22.7501 4.95961 22.7501H23.0065C24.0619 22.7501 24.9205 21.8915 24.9205 20.8359C24.9205 20.2759 24.6765 19.7454 24.2414 19.3725Z" fill="#286DFF"/>
</g>
<defs>
<clipPath id="clip0_40520_42591">
<rect width="26.25" height="26.25" fill="white" transform="translate(0.875 0.875031)"/>
</clipPath>
</defs>
</svg>
