<svg width="44" height="44" viewBox="0 0 44 44" fill="none" xmlns="http://www.w3.org/2000/svg">
<path d="M7.41762 4.00383C7.54406 4.2567 7.71264 4.46743 7.92337 4.63602C8.1341 4.8046 8.42912 5.09962 8.85057 5.52107L10.1571 6.82759C10.6628 7.33333 11.1686 7.92337 11.7586 8.51341H23.3065C23.8544 7.92337 24.4023 7.33333 24.908 6.82759C25.3295 6.36398 25.7931 5.94253 26.2146 5.52107C26.636 5.09962 26.9732 4.8046 27.1418 4.63602C27.3103 4.46743 27.4789 4.2567 27.6475 4.00383C27.8161 3.75096 27.9004 3.49808 27.9425 3.24521C27.9847 2.99234 27.9847 2.73946 27.9425 2.44444C27.9004 2.19157 27.7739 1.9387 27.5632 1.72797C27.3525 1.51724 27.1418 1.3908 26.931 1.43295C26.7625 1.4751 26.5517 1.51724 26.341 1.60153C26.1303 1.68582 25.8774 1.81226 25.5824 1.9387C25.2874 2.06513 24.908 2.10728 24.4444 2.10728C24.023 2.10728 23.6858 1.98084 23.433 1.77011C23.1801 1.55939 22.9693 1.30651 22.7586 1.05364C22.5479 0.800766 22.3372 0.547893 22.0843 0.337165C21.8314 0.126437 21.4943 0 21.0307 0C20.567 0 20.2299 0.126437 19.977 0.337165C19.7241 0.547893 19.4713 0.800766 19.2184 1.05364C19.0077 1.30651 18.7548 1.55939 18.5019 1.77011C18.249 1.98084 17.954 2.10728 17.5747 2.10728C17.1111 2.10728 16.7318 1.98084 16.4789 1.77011C16.2261 1.55939 15.9732 1.30651 15.7625 1.05364C15.5517 0.800766 15.341 0.547893 15.0881 0.337165C14.8352 0.126437 14.4981 0 14.0766 0C13.6552 0 13.2759 0.126437 13.023 0.337165C12.7701 0.547893 12.5172 0.800766 12.3065 1.05364C12.0958 1.30651 11.8429 1.55939 11.6322 1.77011C11.3793 1.98084 11.0421 2.10728 10.6628 2.10728C10.1992 2.10728 9.81992 2.06513 9.5249 1.9387C9.22989 1.81226 8.93487 1.68582 8.72414 1.60153C8.51341 1.51724 8.30268 1.43295 8.1341 1.43295C7.96552 1.3908 7.75479 1.51724 7.50192 1.72797C7.29119 1.9387 7.16475 2.19157 7.08046 2.44444C6.99617 2.69732 6.99617 2.95019 7.08046 3.24521C7.16475 3.49808 7.29119 3.75096 7.41762 4.00383ZM24.6973 26.4253C24.6552 26.2989 24.613 25.9617 24.5287 25.2874C24.1916 22.7586 24.7395 20.6513 24.7395 20.6513C25.3295 17.364 29.7969 16.0996 31.3142 15.7625C30.8084 15.1724 30.2605 14.5824 29.7548 14.0766C28.1954 12.5594 26.4674 11.295 24.4866 10.1992H10.5364C8.55556 11.2529 6.78544 12.5594 5.2682 14.0766C4.59387 14.7088 3.96169 15.4253 3.3295 16.2261C2.69732 17.0268 2.14943 17.8697 1.64368 18.8391C1.13793 19.8084 0.758621 20.8199 0.463602 21.9579C0.168582 23.0536 0 24.2759 0 25.5402C0 27.6475 0.337165 29.5441 1.01149 31.2299C1.68582 32.9157 2.73946 34.3065 4.17241 35.4866C5.60536 36.6667 7.41762 37.5517 9.65134 38.1839C10.8736 38.5211 12.2222 38.7739 13.7395 38.9425V34.1801C13.613 32.2835 14.1188 31.567 14.1188 31.567C16.0153 26.3831 24.3602 26.4253 24.6973 26.4253Z" fill="#C5842B"/>
<path d="M24.7816 28.8276C20.1456 28.8276 16.3525 30.8084 16.3525 33.2529C16.3525 35.6973 20.1034 37.6782 24.7816 37.6782C29.4176 37.6782 33.2107 35.6973 33.2107 33.2529C33.1686 30.8506 29.4176 28.8276 24.7816 28.8276ZM35.5287 37.0038C35.2759 37.0038 34.9808 37.0038 34.728 36.9617C34.728 37.046 34.728 37.1303 34.6858 37.2146C34.728 37.3831 34.7701 37.5517 34.7701 37.7203V38.7739H35.5287C40.1647 38.7739 43.9578 36.7931 43.9578 34.3487V32.5785C43.9578 34.9808 40.2069 37.0038 35.5287 37.0038Z" fill="#C5842B"/>
<path d="M24.7816 39.069C20.1456 39.069 16.3946 37.0881 16.3525 34.6437V36.4138C16.3525 38.8582 20.1034 40.8391 24.7816 40.8391C29.4176 40.8391 33.2107 38.8582 33.2107 36.4138V34.6015C33.1686 37.046 29.4176 39.069 24.7816 39.069Z" fill="#C5842B"/>
<path d="M24.7816 42.1456C20.1456 42.1456 16.3946 40.1648 16.3525 37.7203V39.4904C16.3525 41.9349 20.1034 43.9157 24.7816 43.9157C29.4176 43.9157 33.2107 41.9349 33.2107 39.4904V37.7203C33.1686 40.1648 29.4176 42.1456 24.7816 42.1456ZM35.5287 27.7318C30.8927 27.7318 27.1418 25.751 27.0996 23.3065V25.0766C27.0996 26.1303 27.7739 27.0996 28.954 27.8582C30.1341 28.1533 31.1456 28.5747 32.0306 29.1226C33.0843 29.3755 34.3065 29.5441 35.5287 29.5441C40.1647 29.5441 43.9578 27.5632 43.9578 25.1188V23.3487C43.9578 25.751 40.2069 27.7318 35.5287 27.7318Z" fill="#C5842B"/>
<path d="M27.1418 21.9579C27.1418 24.4023 30.8927 26.3831 35.5709 26.3831C40.2069 26.3831 44 24.4023 44 21.9579C44 19.5134 40.2491 17.5326 35.5709 17.5326C30.8927 17.5326 27.1418 19.5134 27.1418 21.9579ZM35.5288 30.8084C34.9809 30.8084 34.3908 30.7663 33.8851 30.7241C34.3065 31.272 34.6016 31.9042 34.728 32.5785C34.9809 32.5785 35.2759 32.6207 35.5288 32.6207C40.1648 32.6207 43.9579 30.6398 43.9579 28.1954V26.4253C43.9579 28.8276 40.2069 30.8084 35.5288 30.8084Z" fill="#C5842B"/>
<path d="M35.5288 33.8851C35.2759 33.8851 34.9809 33.8851 34.728 33.8429C34.728 33.9272 34.728 34.0115 34.6859 34.0958C34.728 34.2644 34.7701 34.433 34.7701 34.6015V35.6552H35.5288C40.1648 35.6552 43.9579 33.6743 43.9579 31.2299V29.4598C43.9579 31.9042 40.2069 33.8851 35.5288 33.8851Z" fill="#C5842B"/>
</svg>
