<svg width="14" height="14" viewBox="0 0 14 14" fill="none" xmlns="http://www.w3.org/2000/svg">
<g clip-path="url(#clip0_30766_98977)">
<path d="M12.734 1.39454C12.7122 1.37266 12.693 1.35079 12.6711 1.32891C12.6493 1.30704 12.6274 1.28516 12.6055 1.26602C11.7579 0.456646 10.6012 0.0793025 9.43365 0.232427C8.24419 0.385552 7.2024 1.06094 6.57896 2.0836L6.56255 2.11094C6.29459 2.54844 5.99927 2.97227 5.68209 3.37696C5.41412 3.16915 5.02857 3.18829 4.78248 3.43438C4.65123 3.56563 4.5856 3.7379 4.58287 3.91016C4.4024 3.9129 4.2356 3.98126 4.10709 4.10977C3.97584 4.24102 3.91021 4.41329 3.90748 4.58555C3.72701 4.58829 3.56021 4.65665 3.43169 4.78516C3.1856 5.03126 3.16646 5.4168 3.37427 5.68477C2.96959 6.00196 2.54576 6.29727 2.10826 6.56524L2.08091 6.58165C1.05826 7.20782 0.385601 8.24688 0.229742 9.43633C0.0766169 10.6066 0.453961 11.7633 1.26334 12.6082C1.28521 12.6301 1.30435 12.652 1.32623 12.6738C1.3481 12.6957 1.36998 12.7176 1.39185 12.7367C2.11646 13.4285 3.06529 13.8031 4.05513 13.8031C4.22466 13.8031 4.3942 13.7922 4.56373 13.7703C5.75318 13.6172 6.79498 12.9418 7.41841 11.9191L7.43482 11.8918C7.44849 11.8727 7.45943 11.8508 7.4731 11.8316C7.74107 12.9801 8.77466 13.8387 10.0024 13.8387C10.3797 13.8387 10.686 13.5324 10.686 13.1551C10.686 12.7777 10.3797 12.4715 10.0024 12.4715C9.32427 12.4715 8.77193 11.9191 8.77193 11.241V10.768C8.93326 10.7598 9.09185 10.6914 9.2149 10.5711C9.34615 10.4398 9.41177 10.2676 9.41451 10.0953C9.59498 10.0926 9.76177 10.0242 9.89029 9.89571C10.0215 9.76446 10.0872 9.59219 10.0899 9.41993C10.2704 9.41719 10.4372 9.34883 10.5657 9.22032C10.8118 8.97423 10.8309 8.58868 10.6231 8.32071C11.0278 8.00352 11.4516 7.70821 11.8891 7.44024L11.9165 7.42383C12.9391 6.79766 13.6118 5.7586 13.7676 4.56915C13.9208 3.39883 13.5434 2.24219 12.734 1.39454ZM6.41763 10.9867L6.28091 11.2082C5.87076 11.8754 5.1899 12.3184 4.4106 12.4195C3.64771 12.518 2.89576 12.2746 2.34341 11.7496C2.32701 11.7332 2.3106 11.7195 2.2942 11.7031C2.27779 11.6867 2.26138 11.6703 2.24771 11.6539C1.72271 11.1016 1.47935 10.3469 1.57779 9.58672C1.67896 8.80743 2.12193 8.12657 2.78912 7.71641L3.0106 7.57969C3.46998 7.29805 3.91568 6.98633 4.33951 6.65274L4.72779 7.04102C4.3313 7.35001 3.91568 7.64258 3.48638 7.90508L3.06802 8.16212C2.87935 8.27969 2.70982 8.42461 2.56763 8.59415C2.51568 8.65704 2.17662 9.16563 2.12193 9.56212C2.03716 10.0652 2.14107 10.5711 2.41998 10.9922C2.49654 11.107 2.58404 11.2164 2.68248 11.3148C2.78091 11.4133 2.89029 11.5008 3.00513 11.5773C3.33326 11.7934 3.70787 11.9055 4.09341 11.9055C4.23834 11.9055 4.38599 11.8891 4.53365 11.8563C5.07232 11.7359 5.5481 11.3996 5.83794 10.9293L6.09498 10.5109C6.35748 10.0816 6.64732 9.66602 6.95904 9.26954L7.34732 9.65782C7.01099 10.0816 6.69927 10.5273 6.41763 10.9867ZM5.63287 7.94337L6.05669 8.36719C5.56724 8.95235 5.11334 9.57305 4.70318 10.2156L4.69771 10.2266C4.51998 10.5055 4.17545 10.6203 3.88013 10.5027C3.79537 10.4672 3.7188 10.418 3.65318 10.3523C3.57935 10.2785 3.52466 10.191 3.48912 10.0953C3.38794 9.80821 3.50826 9.48008 3.77623 9.31055L3.78716 9.30235C4.42701 8.88946 5.04771 8.43282 5.63287 7.94337ZM10.0079 12.8789C10.1583 12.8789 10.2813 13.002 10.2813 13.1523C10.2813 13.3027 10.1583 13.4258 10.0079 13.4258C8.80201 13.4258 7.82037 12.4441 7.82037 11.2383V10.1336L8.25513 10.5684C8.29068 10.6039 8.32623 10.634 8.36724 10.6586V11.2383C8.36724 12.1434 9.10279 12.8789 10.0079 12.8789ZM10.2786 8.93047C10.2266 8.98243 10.1583 9.00977 10.0872 9.00977C10.0161 9.00977 9.94771 8.98243 9.89576 8.93047L6.88248 5.91719C6.80318 5.8379 6.67193 5.8379 6.59263 5.91719C6.51334 5.99649 6.51334 6.12774 6.59263 6.20704L9.60591 9.22032C9.65787 9.27227 9.68521 9.34063 9.68521 9.41173C9.68521 9.48282 9.65787 9.55118 9.60591 9.60313C9.55396 9.65508 9.4856 9.68243 9.41451 9.68243C9.34341 9.68243 9.27505 9.65508 9.2231 9.60313L4.39693 4.77969C4.34498 4.72774 4.31763 4.65938 4.31763 4.58829C4.31763 4.51719 4.34498 4.44883 4.39693 4.39688C4.44888 4.34493 4.51724 4.31758 4.58834 4.31758C4.65943 4.31758 4.72779 4.34493 4.77974 4.39688L5.23091 4.84805C5.31021 4.92735 5.44146 4.92735 5.52076 4.84805C5.60005 4.76876 5.60005 4.63751 5.52076 4.55821L5.06959 4.10704C4.96294 4.0004 4.96294 3.82813 5.06959 3.72422C5.17623 3.61758 5.34849 3.61758 5.4524 3.72422L10.2758 8.54766C10.3825 8.65157 10.3825 8.82383 10.2786 8.93047ZM7.94341 5.63282C8.43287 5.04766 8.88677 4.42696 9.29693 3.78438C9.47466 3.50547 9.81919 3.3879 10.1145 3.50821C10.1993 3.54376 10.2758 3.59297 10.3415 3.6586C10.4071 3.72422 10.459 3.80079 10.4919 3.88555C10.6122 4.18087 10.4946 4.5254 10.2157 4.70313C9.5731 5.11329 8.9524 5.56719 8.36724 6.05665L7.94341 5.63282ZM12.4333 4.23829C12.4305 4.30391 12.4387 5.58907 11.2028 6.28907L10.9868 6.42032C10.5274 6.70196 10.0817 7.01368 9.65787 7.34727L9.27232 6.96172C9.66881 6.65274 10.0872 6.3629 10.5137 6.09766L10.9239 5.8461C11.3942 5.55626 11.7333 5.08047 11.8536 4.5418C11.9711 4.0086 11.8727 3.46446 11.5747 3.01329C11.4981 2.89844 11.4106 2.78907 11.3122 2.69063C11.2137 2.59219 11.1044 2.50469 10.9895 2.42813C10.5383 2.13008 9.99419 2.03165 9.46099 2.14922C8.92232 2.26954 8.44654 2.60587 8.15669 3.07891L7.90513 3.48907C7.64263 3.91837 7.35279 4.33399 7.04107 4.73047L6.65552 4.34493C6.98912 3.9211 7.30084 3.4754 7.58248 3.01602L7.71373 2.80274C8.12388 2.13555 8.80474 1.69258 9.58404 1.59141C10.3469 1.49024 11.0989 1.73633 11.6512 2.26133C11.6676 2.27774 11.684 2.29141 11.7004 2.30782C11.7169 2.32422 11.7333 2.34063 11.7469 2.35704C12.2309 2.86016 12.4743 3.53008 12.4333 4.23829Z" fill="#999999"/>
<path d="M6.05664 5.5863C6.1699 5.5863 6.26172 5.49449 6.26172 5.38123C6.26172 5.26796 6.1699 5.17615 6.05664 5.17615C5.94338 5.17615 5.85156 5.26796 5.85156 5.38123C5.85156 5.49449 5.94338 5.5863 6.05664 5.5863Z" fill="#999999"/>
</g>
<defs>
<clipPath id="clip0_30766_98977">
<rect width="14" height="14" fill="white"/>
</clipPath>
</defs>
</svg>
