<svg width="13" height="14" viewBox="0 0 13 14" fill="none" xmlns="http://www.w3.org/2000/svg">
<path d="M11.6075 9.06133C11.2807 8.55905 10.8216 8.11369 10.243 7.73761C10.1759 7.69396 10.1074 7.65156 10.0377 7.61029V3.16981C10.0377 2.71082 9.91953 2.26853 9.68641 1.85517C9.47255 1.47594 9.17175 1.13935 8.79233 0.854825C8.05736 0.303575 7.09252 0 6.07547 0C5.05846 0 4.09358 0.303575 3.35861 0.854825C2.97919 1.13938 2.67839 1.47594 2.4645 1.85517C2.23142 2.26853 2.11321 2.71082 2.11321 3.16981V7.61025C2.0436 7.65156 1.97509 7.69392 1.90793 7.73758C1.32934 8.11366 0.870245 8.55902 0.543392 9.0613C0.182825 9.61546 0 10.2106 0 10.8302V11.3585C0 11.7002 0.121873 12.2083 0.70241 12.6888C1.04109 12.969 1.50391 13.213 2.07804 13.4139C3.15783 13.7918 4.57747 14 6.07547 14C7.57344 14 8.99308 13.7918 10.0729 13.4139C10.647 13.213 11.1098 12.969 11.4485 12.6888C12.0291 12.2083 12.1509 11.7002 12.1509 11.3585V10.8302C12.1509 10.2106 11.9681 9.61546 11.6075 9.06133Z" fill="#999999"/>
<path d="M0.79248 10.8302C0.79248 8.9337 3.15779 7.39624 6.0755 7.39624C8.99321 7.39624 11.3585 8.9337 11.3585 10.8302V11.3585C11.3585 12.3797 8.99321 13.2076 6.0755 13.2076C3.15779 13.2076 0.79248 12.3797 0.79248 11.3585V10.8302Z" fill="#999999"/>
<path d="M6.07544 7.39624V13.2076C8.99315 13.2076 11.3585 12.3797 11.3585 11.3585V10.8302C11.3585 8.9337 8.99315 7.39624 6.07544 7.39624Z" fill="#999999"/>
<path d="M7.60168 10.7422H7.70441V11.3586H7.60168V10.7422Z" fill="#17191C"/>
<path d="M7.49896 10.7422H7.60168V11.3586H7.49896V10.7422Z" fill="#17191C"/>
<path d="M7.39624 9.50952V10.7422C7.39624 10.8557 7.48823 10.9477 7.60172 10.9477V9.50952H7.39624Z" fill="#17191C"/>
<path d="M7.80716 9.50952V10.7422C7.80716 10.8557 7.7152 10.9477 7.60172 10.9477V9.50952H7.80716Z" fill="#17191C"/>
<path d="M4.54932 10.7418H4.65204V11.3582H4.54932V10.7418Z" fill="#17191C"/>
<path d="M4.44653 10.7419H4.54925V11.3583H4.44653V10.7419Z" fill="#17191C"/>
<path d="M4.44653 10.8447V11.0367C4.47942 11.0452 4.51373 11.0502 4.54925 11.0502C4.58478 11.0502 4.61909 11.0452 4.65198 11.0367V10.8447H4.54925H4.44653Z" fill="#17191C"/>
<path d="M4.34375 9.5094V10.7421C4.34375 10.8556 4.43574 10.9476 4.54923 10.9476V9.5094H4.34375Z" fill="#17191C"/>
<path d="M4.75455 9.50928V10.742C4.75455 10.8555 4.66256 10.9474 4.54907 10.9474V9.50928H4.75455Z" fill="#17191C"/>
<path d="M4.54907 10.331L4.75455 10.1255V9.92004L4.54907 10.1255V10.331Z" fill="#17191C"/>
<path d="M4.54907 10.7419L4.75455 10.5365V10.3311L4.54907 10.5365V10.7419Z" fill="#17191C"/>
<path d="M4.54907 9.92016L4.75455 9.71475V9.50928L4.54907 9.71475V9.92016Z" fill="#17191C"/>
<path d="M6.07557 0.79248C4.32491 0.79248 2.90576 1.85688 2.90576 3.16984V7.66041C2.90576 8.97337 4.32491 10.0378 6.07557 10.0378C7.82623 10.0378 9.24538 8.97337 9.24538 7.66041V3.16984C9.24538 1.85688 7.82623 0.79248 6.07557 0.79248Z" fill="#999999"/>
<path d="M2.37744 10.8302V12.6788C2.4208 12.6936 2.46474 12.7083 2.50952 12.7227V10.566C2.43658 10.566 2.37744 10.6843 2.37744 10.8302Z" fill="#17191C"/>
<path d="M2.50952 10.566V12.7227C2.55287 12.7366 2.59691 12.7502 2.64159 12.7635V10.8302C2.64159 10.6843 2.58246 10.566 2.50952 10.566Z" fill="#17191C"/>
<path d="M9.6416 12.7227V10.566C9.56866 10.566 9.50952 10.6843 9.50952 10.8302V12.7636C9.5542 12.7502 9.59828 12.7366 9.6416 12.7227Z" fill="#17191C"/>
<path d="M9.77368 12.6788V10.8302C9.77368 10.6843 9.71454 10.566 9.6416 10.566V12.7227C9.68638 12.7083 9.73036 12.6937 9.77368 12.6788Z" fill="#17191C"/>
<path d="M6.07544 0.79248V3.89625C7.68022 3.89625 8.9811 4.87196 8.9811 6.0755V7.47329C8.9811 8.67683 7.68022 9.65253 6.07544 9.65253V10.0378C7.8261 10.0378 9.24525 8.97337 9.24525 7.66041V3.16984C9.24525 1.85688 7.8261 0.79248 6.07544 0.79248Z" fill="#999999"/>
<path d="M6.07558 4.4906C4.4708 4.4906 3.16992 5.43672 3.16992 6.60381V7.39626C3.16992 7.48911 3.17824 7.58051 3.19419 7.67022C3.20737 7.68778 3.22084 7.70462 3.23447 7.72074C3.23517 7.72153 3.23583 7.72242 3.23652 7.72321C3.25059 7.73969 3.26482 7.75531 3.27935 7.7698L4.38128 8.87174C4.58673 9.07722 4.99256 9.24532 5.28313 9.24532H6.07558H6.86804C7.1586 9.24532 7.56444 9.07722 7.76988 8.87178L8.87182 7.76984C8.88631 7.75534 8.90058 7.73972 8.91464 7.72325C8.91534 7.72246 8.916 7.72156 8.91669 7.72077C8.93033 7.70466 8.94377 7.68782 8.95697 7.67025C8.97292 7.58051 8.98124 7.48911 8.98124 7.39626V6.60381C8.98124 5.43672 7.68033 4.4906 6.07558 4.4906Z" fill="#D7D9DB"/>
<path d="M6.07542 5.0188L5.54712 7.13201H6.60372L6.07542 7.66031V9.24521H6.86787C7.15844 9.24521 7.56427 9.07712 7.76972 8.87167L8.87166 7.76973C8.88615 7.75524 8.90042 7.73962 8.91448 7.72314C8.91518 7.72235 8.91584 7.72146 8.91653 7.72067C8.93017 7.70455 8.94361 7.68771 8.95681 7.67015C8.97276 7.5804 8.98108 7.48901 8.98108 7.39616V6.60374C8.98108 5.72841 7.68017 5.0188 6.07542 5.0188Z" fill="#F1F2F2"/>
<path d="M5.81128 7.92456H6.33958L6.07543 8.71701L5.81128 7.92456Z" fill="#231F20"/>
<path d="M5.44802 5.62965H5.28292C5.28292 5.38386 5.08296 5.18389 4.83717 5.18389C4.59137 5.18389 4.39141 5.38386 4.39141 5.62965H4.22632C4.22632 5.29282 4.50034 5.0188 4.83717 5.0188C5.17399 5.0188 5.44802 5.29282 5.44802 5.62965Z" fill="#231F20"/>
<path d="M7.92458 5.62965H7.75948C7.75948 5.38386 7.55952 5.18389 7.31373 5.18389C7.06794 5.18389 6.86798 5.38386 6.86798 5.62965H6.70288C6.70288 5.29282 6.9769 5.0188 7.31373 5.0188C7.65056 5.0188 7.92458 5.29282 7.92458 5.62965Z" fill="#231F20"/>
<path d="M4.09422 7.13205C4.31305 7.13205 4.49045 6.95466 4.49045 6.73583C4.49045 6.517 4.31305 6.3396 4.09422 6.3396C3.87539 6.3396 3.698 6.517 3.698 6.73583C3.698 6.95466 3.87539 7.13205 4.09422 7.13205Z" fill="#E5CFCF"/>
<path d="M8.05638 7.13205C8.27521 7.13205 8.45261 6.95466 8.45261 6.73583C8.45261 6.517 8.27521 6.3396 8.05638 6.3396C7.83755 6.3396 7.66016 6.517 7.66016 6.73583C7.66016 6.95466 7.83755 7.13205 8.05638 7.13205Z" fill="#E5CFCF"/>
<path d="M7.45527 7.63083C7.42277 7.64711 7.36648 7.66038 7.33016 7.66038H6.93393C6.89761 7.66038 6.85462 7.6338 6.83834 7.60131L6.60374 7.13208H6.07544L6.53047 7.81465C6.57079 7.87507 6.66318 7.92453 6.73582 7.92453H7.26412C7.33676 7.92453 7.43819 7.88253 7.48957 7.83116L7.9245 7.39623L7.45527 7.63083Z" fill="#231F20"/>
<path d="M5.54707 7.13208L5.31247 7.60131C5.2962 7.6338 5.25321 7.66038 5.21688 7.66038H4.82066C4.78434 7.66038 4.72804 7.64711 4.69555 7.63083L4.22632 7.39623L4.66124 7.83116C4.71262 7.88253 4.81405 7.92453 4.8867 7.92453H5.415C5.48764 7.92453 5.58003 7.87507 5.62034 7.81465L6.07537 7.13208H5.54707Z" fill="#231F20"/>
</svg>
