<svg width="14" height="12" viewBox="0 0 14 12" fill="none" xmlns="http://www.w3.org/2000/svg">
<g clip-path="url(#clip0_26577_49212)">
<path d="M11.6667 0H2.33333C0.777778 0 0 0.8 0 2.4V9.6C0 11.2 0.777778 12 2.33333 12H11.6667C13.2222 12 14 11.2 14 9.6V2.4C14 0.8 13.2222 0 11.6667 0ZM11.62 3.688L7.80111 6.544C7.56 6.72 7.28 6.816 7 6.816C6.72 6.816 6.44 6.728 6.19889 6.544L2.38 3.688C2.12333 3.496 2.06111 3.12 2.25556 2.848C2.44222 2.584 2.80778 2.52 3.07222 2.712L6.89111 5.568C6.96111 5.616 7.05444 5.616 7.11667 5.568L10.9356 2.712C11.2 2.512 11.5578 2.576 11.7522 2.848C11.9389 3.112 11.8844 3.488 11.6278 3.688H11.62Z" fill="#333333"/>
</g>
<defs>
<clipPath id="clip0_26577_49212">
<rect width="14" height="12" fill="white"/>
</clipPath>
</defs>
</svg>
