<svg width="14" height="14" viewBox="0 0 14 14" fill="none" xmlns="http://www.w3.org/2000/svg">
<g clip-path="url(#clip0_15670_46259)">
<path d="M0 3.5C0 1.567 1.567 0 3.5 0H10.5C12.433 0 14 1.567 14 3.5V10.5C14 12.433 12.433 14 10.5 14H3.5C1.567 14 0 12.433 0 10.5V3.5Z" fill="white"/>
<path d="M10.5 0C12.433 0 14 1.567 14 3.5V10.5C14 12.433 12.433 14 10.5 14H3.5C1.567 14 0 12.433 0 10.5V3.5C0 1.567 1.567 0 3.5 0H10.5ZM10.5 0.25H3.5C1.705 0.25 0.25 1.705 0.25 3.5V10.5C0.25 12.295 1.705 13.75 3.5 13.75H10.5C12.295 13.75 13.75 12.295 13.75 10.5V3.5C13.75 1.705 12.295 0.25 10.5 0.25Z" fill="#E9E9E9"/>
<path d="M12.25 6.99965C12.2501 7.11589 12.2272 7.231 12.1828 7.3384C12.1383 7.44581 12.0731 7.54339 11.9909 7.62559C11.9087 7.70778 11.8112 7.77297 11.7038 7.81742C11.5963 7.86187 11.4812 7.88472 11.365 7.88465H8.3125L7 5.2299L8.4165 2.77665C8.53389 2.57353 8.72712 2.42533 8.95373 2.36462C9.18035 2.30391 9.42179 2.33566 9.625 2.4529C9.82812 2.57029 9.97632 2.76352 10.037 2.99014C10.0977 3.21675 10.066 3.45819 9.94875 3.6614L8.53225 6.1149H11.3653C11.4814 6.11487 11.5965 6.13773 11.7039 6.18218C11.8112 6.22663 11.9088 6.2918 11.9909 6.37396C12.0731 6.45613 12.1383 6.55368 12.1827 6.66103C12.2272 6.76839 12.25 6.88345 12.25 6.99965Z" fill="#1A73E8"/>
<path d="M9.62479 11.5464C9.42156 11.6637 9.18006 11.6955 8.95339 11.6348C8.72671 11.5741 8.53343 11.4258 8.41605 11.2227L6.9998 8.76941L5.5833 11.2227C5.46591 11.4258 5.27267 11.574 5.04606 11.6347C4.81945 11.6954 4.578 11.6636 4.3748 11.5464C4.17167 11.429 4.02347 11.2358 3.96276 11.0092C3.90206 10.7826 3.93381 10.5411 4.05105 10.3379L5.4673 7.88441L6.9998 7.82666L8.53204 7.88441L9.94854 10.3379C10.0658 10.5411 10.0975 10.7826 10.0368 11.0092C9.97612 11.2358 9.82792 11.429 9.62479 11.5464Z" fill="#EA4335"/>
<path d="M6.9998 5.2299L6.60055 6.3149L5.4673 6.1149L4.05105 3.6614C3.93381 3.45819 3.90206 3.21675 3.96276 2.99014C4.02347 2.76352 4.17167 2.57029 4.3748 2.4529C4.578 2.33566 4.81945 2.30391 5.04606 2.36462C5.27267 2.42533 5.46591 2.57353 5.5833 2.77665L6.9998 5.2299Z" fill="#FBBC04"/>
<path d="M6.7715 6.11499L5.7445 7.88499H2.6345C2.5183 7.88499 2.40325 7.8621 2.2959 7.81761C2.18856 7.77313 2.09103 7.70794 2.00889 7.62575C1.92675 7.54356 1.86161 7.446 1.81719 7.33863C1.77276 7.23126 1.74993 7.11619 1.75 6.99999C1.74993 6.88375 1.77278 6.76864 1.81723 6.66124C1.86169 6.55383 1.92687 6.45625 2.00906 6.37405C2.09126 6.29186 2.18884 6.22667 2.29625 6.18222C2.40365 6.13777 2.51876 6.11492 2.635 6.11499H6.7715Z" fill="#34A853"/>
<path d="M8.53203 7.88497H5.46729L6.99979 5.23047L8.53203 7.88497Z" fill="#185DB7"/>
</g>
<defs>
<clipPath id="clip0_15670_46259">
<rect width="14" height="14" fill="white"/>
</clipPath>
</defs>
</svg>
