<svg width="42" height="48" viewBox="0 0 42 48" fill="none" xmlns="http://www.w3.org/2000/svg">
<path d="M41.5385 48H38.7692C38.7692 48 38.7692 42.4615 32.7692 36C34.3846 39.9231 35.3077 44.7692 35.5385 48H27.9231C27 46.1538 25.8462 44.0769 23.7692 42C24.4615 43.8462 25.1538 45.9231 25.6154 48H0.230769C-2.23517e-07 47.0769 0 45.9231 0 45C0 37.3846 4.15385 30.6923 10.3846 27H31.6154C37.8462 30.6923 42 37.1538 42 45C42 45.9231 41.7692 46.8462 41.5385 48ZM27 24H15C13.3846 24 12 22.6154 12 21V18C12 16.3846 13.3846 15 15 15H18V3C18 1.38462 19.3846 0 21 0C22.6154 0 24 1.38462 24 3V15H27C28.6154 15 30 16.3846 30 18V21C30 22.6154 28.6154 24 27 24Z" fill="#EB2B4B"/>
</svg>
