<svg width="48" height="48" viewBox="0 0 48 48" fill="none" xmlns="http://www.w3.org/2000/svg">
<circle cx="24" cy="24" r="23" stroke="#999999" stroke-width="2"/>
<path d="M26.2328 21.9359C26.095 21.7981 25.948 21.6738 25.7966 21.5586L25.7963 21.5589C25.6405 21.409 25.4288 21.3167 25.1955 21.3167C24.7166 21.3167 24.3285 21.7048 24.3285 22.1837C24.3285 22.3956 24.4046 22.5896 24.5309 22.7402H24.5308C24.5309 22.7403 24.5309 22.7403 24.5309 22.7403C24.5916 22.8127 24.6638 22.8751 24.7448 22.9244C24.8265 22.9918 24.9068 23.0582 24.9818 23.1333L25.0533 23.2048C25.9519 24.1023 25.6837 25.6485 24.785 26.5472L20.9505 30.3806C20.0519 31.2781 18.591 31.2781 17.6924 30.3806L17.6203 30.3085C16.7217 29.4099 16.7217 27.948 17.6203 27.0515L19.3144 25.358C19.5317 25.1855 19.6713 24.9192 19.6713 24.6202C19.6713 24.1001 19.2497 23.6785 18.7296 23.6785C18.5333 23.6785 18.3511 23.7386 18.2003 23.8413C18.1998 23.8403 18.1993 23.8393 18.1988 23.8383L18.1807 23.8552C18.114 23.9031 18.0537 23.9594 18.0017 24.0227L16.2412 25.6701C14.5863 27.3261 14.5863 30.0346 16.2412 31.6883L16.3126 31.7597C17.9675 33.4135 20.6748 33.4135 22.3297 31.7597L26.1631 27.9252C27.8157 26.2704 27.9558 23.66 26.3032 22.0062L26.2328 21.9359Z" fill="#999999"/>
<path d="M31.7584 16.3126L31.6869 16.2412C30.0321 14.5863 27.3248 14.5863 25.6699 16.2412L21.8365 20.0757C20.1816 21.7306 20.0905 24.1203 21.7454 25.7763L21.8157 25.8455C21.8909 25.9207 21.9689 25.9915 22.0485 26.0594C22.1061 26.1238 22.1738 26.1789 22.2491 26.2225C22.2497 26.223 22.2503 26.2234 22.2509 26.2239L22.2511 26.2237C22.3711 26.2927 22.5101 26.3323 22.6584 26.3323C23.1105 26.3323 23.4769 25.9658 23.4769 25.5138C23.4769 25.3862 23.4477 25.2655 23.3956 25.1578C23.2874 24.9148 23.0849 24.7669 22.9447 24.6268L22.8744 24.5576C21.9758 23.659 22.317 22.3535 23.2156 21.4549L27.0513 17.6214C27.9477 16.7228 29.4091 16.7228 30.3077 17.6214L30.3792 17.6918C31.2778 18.5904 31.2778 20.053 30.3792 20.9505L28.6907 22.6401C28.461 22.8103 28.312 23.0833 28.312 23.3911C28.312 23.907 28.7302 24.3253 29.2461 24.3253C29.4257 24.3253 29.5934 24.2745 29.7357 24.1867C29.7368 24.1885 29.7378 24.1902 29.7389 24.192L29.7651 24.1679C29.8457 24.1139 29.9174 24.0475 29.9776 23.9717L31.7572 22.3297C33.4133 20.6748 33.4133 17.9675 31.7584 16.3126Z" fill="#999999"/>
</svg>
