      <svg width="20" height="20" viewBox="0 0 20 20" fill="none" xmlns="http://www.w3.org/2000/svg">
      <path d="M12.273 5.23871H3.93157C2.263 5.23871 1.42871 6.07157 1.42871 7.73871V16.0716C1.42871 17.7387 2.263 18.5716 3.93157 18.5716H12.2744C13.9416 18.5716 14.7759 17.7387 14.7759 16.0716V7.73871C14.7759 6.07157 13.9416 5.23871 12.273 5.23871ZM12.2601 3.81014C14.7201 3.81014 16.1887 5.27585 16.1887 7.733V14.453C16.1887 14.6187 16.3359 14.7587 16.503 14.743C17.8759 14.6059 18.5716 13.7759 18.5716 12.2673V3.92442C18.5716 2.26728 17.733 1.42871 16.0744 1.42871H7.72157C6.21157 1.42871 5.38014 2.123 5.243 3.49585C5.24006 3.53584 5.24537 3.576 5.25859 3.61384C5.2718 3.65169 5.29265 3.68642 5.31984 3.71589C5.34703 3.74535 5.37997 3.76892 5.41664 3.78513C5.4533 3.80134 5.49291 3.80986 5.533 3.81014H12.2616H12.2601Z" fill="#999999"/>
      </svg>