<svg width="60" height="60" viewBox="0 0 60 60" fill="none" xmlns="http://www.w3.org/2000/svg">
<circle cx="30" cy="30" r="29.5" stroke="#666666"/>
<path d="M27.3403 32.2099L27.9845 32.2478C29.2541 32.3425 30.5047 32.5889 31.7174 32.9868C32.3616 33.1763 33.0627 33.3658 33.8964 33.5552C35.4502 33.9342 36.4166 34.7111 36.4166 35.7722C36.3976 36.8333 35.4312 37.6102 34.1238 37.6102C33.8396 37.6102 33.5743 37.5723 33.2901 37.5155C32.7974 37.3828 32.3048 37.2502 31.831 37.0986C30.732 36.7007 29.5951 36.4544 28.4393 36.3407H28.1929C28.0414 36.3596 27.8708 36.3975 27.7192 36.4354L27.5297 36.4922L27.1129 37.1175L27.4729 37.4776C27.6813 37.6671 27.9087 37.7997 28.155 37.9323C28.3824 38.065 28.6667 38.1976 29.0077 38.3492L29.2541 38.4439C29.8036 38.6713 30.5047 38.9366 31.3573 39.2587L31.6226 39.3535C31.5847 39.3535 31.5658 39.3724 31.5279 39.3724C32.4184 39.7703 33.3659 39.9788 34.3322 40.0167C35.9808 39.9977 37.4966 39.1261 40.2442 37.4207C41.0021 36.8902 41.8927 36.568 42.8211 36.5112C43.238 36.4922 43.6549 36.6438 43.9581 36.9091C44.2044 37.1744 44.337 37.5155 44.3181 37.8755C44.3181 38.8419 43.6549 39.8082 42.4801 40.4904C41.8737 40.8693 41.2863 41.2673 40.7368 41.7031C38.7662 43.1621 36.3218 45.0001 32.8922 45.0001C31.1489 44.9433 29.4056 44.6022 27.7571 44.0148C26.715 43.6169 25.616 43.3705 24.498 43.3137C23.3421 43.3137 22.1673 43.4463 21.0304 43.7116C20.5378 43.8064 20.0451 43.9579 19.5524 44.1095L19.4577 44.1474C19.3819 44.1853 19.2872 44.2232 19.2114 44.2611C17.506 43.7495 14.8722 39.8272 15.0048 37.9892L15.2701 37.8376C15.3838 37.7807 15.4785 37.7239 15.5543 37.6481C17.3734 36.2459 19.1166 35.0901 20.7083 34.2184L20.6894 34.1995C21.6368 33.65 22.641 33.1952 23.7022 32.8541L24.1001 32.7215C24.6306 32.551 25.1233 32.4373 25.5781 32.3615C26.1655 32.2478 26.7529 32.2099 27.3403 32.2099Z" fill="#424ADF"/>
<path d="M27.3403 31.035C28.2119 31.0539 29.0646 31.1487 29.9173 31.3381V29.557H26.9613C26.5066 29.557 26.1655 29.178 26.1655 28.7422C26.1655 28.3443 26.4876 28.0032 26.8855 27.9464H29.9173V26.5252H26.9613C26.5066 26.5063 26.1655 26.1463 26.1845 25.6915C26.2034 25.2936 26.4876 24.9715 26.8855 24.9146H28.3825L26.9613 21.9587C26.7719 21.5608 26.9234 21.087 27.3214 20.8976H27.3403C27.7382 20.7081 28.2309 20.8597 28.4204 21.2576L30.2015 24.9146H31.0542L32.8354 21.2576C33.0438 20.8597 33.5365 20.6891 33.9344 20.8786C34.3323 21.0681 34.5028 21.5418 34.3133 21.9397V21.9587L32.8922 24.9146H34.5218C34.9576 24.9146 35.2987 25.2746 35.2987 25.7105V25.7484C35.2797 26.1652 34.9576 26.5063 34.5218 26.5063H31.5658V27.9274H34.5218C34.9576 27.9274 35.2987 28.2874 35.2987 28.7233V28.7612C35.2797 29.178 34.9576 29.5191 34.5218 29.5191H31.5658V31.6792L32.0585 31.8119C32.6648 31.9824 33.3849 32.1719 34.1996 32.3614C36.3029 32.854 37.6293 34.1994 37.6483 35.7531C37.6293 36.5869 37.2693 37.3638 36.644 37.9133C42.5559 34.6731 44.716 27.2642 41.4948 21.3523C38.2546 15.4404 30.8647 13.2613 24.9528 16.5015C19.0409 19.7417 16.8808 27.1695 20.102 33.0814L20.1399 33.1761C21.7884 32.2098 23.5696 31.5087 25.4455 31.1487C26.0518 31.0729 26.6961 31.035 27.3403 31.035Z" fill="#12B886"/>
<path d="M26.2226 19.4765L23.2666 28.4012L25.9004 30.4476L29.6522 31.2813L31.5471 31.7172L39.0507 27.5106L36.8716 20.8408L33.783 18.8322L26.2226 19.4765Z" fill="#12B886"/>
<path d="M31.1106 29.5485V31H30.027V29.5992C28.7715 29.5485 27.8428 29.211 27 28.3671L27.9631 27.4388C28.5995 28.0633 29.3047 28.2827 30.1474 28.3165V25.4304L29.8034 25.3966C29.0467 25.3122 28.4103 25.0084 28.0319 24.654C27.5676 24.2321 27.3268 23.6414 27.3268 22.8819C27.3268 21.3966 28.3415 20.3333 30.0442 20.1814V19H31.1278V20.1646C32.1769 20.2321 32.9509 20.5359 33.656 21.211L32.7445 22.0886C32.2801 21.6667 31.6781 21.4304 31.0074 21.3797V24.1983L31.4545 24.2658C32.3317 24.4008 32.8305 24.6034 33.226 24.9578C33.742 25.3966 34 26.0717 34 26.865C33.9828 28.4177 32.8305 29.3966 31.1106 29.5485ZM30.1474 21.3966C29.2187 21.481 28.7199 22.0549 28.7199 22.8143C28.7199 23.1519 28.8231 23.4557 29.0811 23.6751C29.3563 23.9283 29.7518 24.0464 30.1646 24.097V21.3966H30.1474ZM32.1941 25.9367C31.8329 25.616 31.4545 25.5992 31.0074 25.5316V28.2996C31.9877 28.2152 32.5725 27.7089 32.5725 26.8987C32.5553 26.4937 32.4349 26.1561 32.1941 25.9367Z" fill="black"/>
</svg>
