<?xml version="1.0" encoding="UTF-8"?>
<svg width="60px" height="71px" viewBox="0 0 60 71" version="1.1" xmlns="http://www.w3.org/2000/svg" xmlns:xlink="http://www.w3.org/1999/xlink">
    <title>担保合约</title>
    <defs>
        <polygon id="path-1" points="0 0 60 0 60 70.2515945 0 70.2515945"></polygon>
    </defs>
    <g id="合约检测二级页面" stroke="none" stroke-width="1" fill="none" fill-rule="evenodd">
        <g id="NFT合约检测" transform="translate(-69.000000, -368.000000)">
            <g id="担保合约" transform="translate(99.000000, 403.125797) rotate(-360.000000) translate(-99.000000, -403.125797) translate(69.000000, 368.000000)">
                <g id="编组">
                    <mask id="mask-2" fill="white">
                        <use xlink:href="#path-1"></use>
                    </mask>
                    <g id="Clip-4"></g>
                    <path d="M59.0777576,34.2223689 C59.0777576,41.78884 56.5118411,48.2224743 51.2331729,53.8920656 C46.7547364,58.7025246 41.0986223,62.2019478 35.6284442,65.5858162 L35.6220383,65.590059 C34.1166641,66.5215691 32.6943163,67.4011669 31.31448,68.2979024 L30.0000333,69.1520432 L28.6861689,68.2979024 C27.3035041,67.3997526 25.8789933,66.5186574 24.3715392,65.5858162 C18.901361,62.2019478 13.2452469,58.7025246 8.7668105,53.8920656 C3.48814225,48.2224743 0.922225796,41.78884 0.922225796,34.2223689 L0.922225796,8.06379781 L3.19447156,7.93185398 C13.297076,7.34592688 20.0442641,6.20801535 28.8890762,1.61602072 L30.0000333,1.03924483 L31.1116559,1.61602072 C39.9557192,6.20801535 46.7029073,7.34592688 56.805595,7.93185398 L59.0777576,8.06379781 L59.0777576,34.2223689 Z M56.8587552,7.01107574 C46.8873458,6.43222003 40.2325018,5.31277731 31.5365217,0.798068817 L30.0000333,0 L28.4634617,0.798068817 C19.7674816,5.31277731 13.1133031,6.43222003 3.14122815,7.01107574 L-4.99156979e-05,7.19335123 L-4.99156979e-05,34.2223689 C-4.99156979e-05,42.0329277 2.64681316,48.6722147 8.0914511,54.5205043 C12.6549938,59.4218098 18.3650169,62.9539278 23.8863586,66.3704078 C25.3895698,67.3005036 26.8098378,68.1786871 28.1832683,69.0711798 L30.0000333,70.2516028 L31.8167151,69.0711798 C33.1901455,68.1786871 34.6104135,67.3005036 36.1136248,66.3704078 C41.635632,62.9539278 47.3449896,59.4218098 51.9085323,54.5205043 C57.3532534,48.6722147 60.0000333,42.0329277 60.0000333,34.2223689 L60.0000333,7.19335123 L56.8587552,7.01107574 Z" id="Fill-3" fill="#3F80F7" mask="url(#mask-2)"></path>
                </g>
                <g id="编组" transform="translate(4.000000, 5.000000)" fill="#3F80F7">
                    <path d="M1.70730432,15.5687407 C1.70730432,13.8311515 1.70730432,11.2247676 1.70730432,7.74958922 L3.56655486,7.64110954 C11.8329463,7.15938043 17.3537897,6.22382871 24.5910005,2.44844867 L25.500034,1.97424338 L26.4096121,2.44844867 C33.6462103,6.22382871 39.1670537,7.15938043 47.4335132,7.64110954 L49.2926957,7.74958922 C49.2926957,11.2247676 49.2926957,13.8311515 49.2926957,15.5687407 M49.2926957,29.2562666 C49.2926957,35.4771589 47.193151,40.7666717 42.8739145,45.4280147 C39.2094626,49.3830086 34.5813834,52.260114 30.1054452,55.0422142 L30.1002037,55.0457025 C28.8684408,55.8115581 27.7046138,56.5347331 26.5755716,57.2719982 L25.500034,57.9742434 L24.4249729,57.2719982 C23.2936163,56.5335703 22.1280194,55.8091641 20.8945548,55.0422142 C16.4186166,52.260114 11.7905374,49.3830086 8.12608551,45.4280147 C3.80684902,40.7666717 1.70730432,35.4771589 1.70730432,29.2562666 L49.2926957,29.2562666 Z M49.303817,15.2047186 L49.303817,15.5743645 L1.70730432,15.5743645 L1.70730432,15.3576336 L49.303817,15.2047186 Z M0,29.2284026 C0,35.8991904 2.24983049,41.5696264 6.87776633,46.5644928 C10.7567722,50.7505658 15.6102851,53.7672525 20.3034191,56.6851759 C21.5811469,57.4795457 22.788373,58.2295786 23.9557872,58.9918325 L25.5000354,60 L27.0442128,58.9918325 C28.211627,58.2295786 29.4188531,57.4795457 30.6965809,56.6851759 C35.3902806,53.7672525 40.2432278,50.7505658 44.1222337,46.5644928 C48.7502402,41.5696264 51,35.8991904 51,29.2284026 M51,15.1861417 C51,13.1766985 51,10.1625337 51,6.14364735 L48.3299173,5.98797077 C39.8542311,5.49358571 34.1976215,4.53749987 26.8060487,0.681609061 L25.5000354,0 L24.1939513,0.681609061 C16.8023785,4.53749987 11.1463346,5.49358571 2.67008265,5.98797077 L0,6.14364735 C0,10.2387523 0,13.3100811 0,15.3576336" id="Fill-3"></path>
                </g>
                <polygon id="路径" fill="#3F80F7" transform="translate(30.117814, 13.036923) rotate(-5.000000) translate(-30.117814, -13.036923) " points="31.1066741 12.0226 30.2819128 10 29.1745721 11.8847366 27 12.042621 28.4524693 13.6725255 27.9354147 15.7916701 29.9362468 14.9175952 31.7972671 16.0738465 31.5781773 13.8992744 33.2356276 12.4883925 31.1066741 12.0226"></polygon>
                <polygon id="Fill-1" fill="#3F80F7" points="29.0025154 51.9165848 25 51.0290247 27.1240169 53.0477327 29.0025154 54.8333333 30.9339793 53.0968596 35 49"></polygon>
            </g>
        </g>
    </g>
</svg>