<svg width="380" height="180" viewBox="0 0 380 180" fill="none" xmlns="http://www.w3.org/2000/svg">
<mask id="mask0_15525_22448" style="mask-type:alpha" maskUnits="userSpaceOnUse" x="0" y="0" width="380" height="180">
<rect width="380" height="180" rx="8" fill="#222222"/>
</mask>
<g mask="url(#mask0_15525_22448)">
<path d="M350 100C322.386 100 300 122.386 300 150C300 177.614 322.386 200 350 200C377.614 200 400 177.614 400 150C400 122.386 377.614 100 350 100ZM353.285 174.877V183.265H345.843V175.529C340.808 175.286 335.923 173.738 333.067 172.029L335.321 162.501C338.479 164.373 342.913 166.084 347.796 166.084C352.156 166.084 355.088 164.213 355.088 161.036C355.088 157.943 352.681 155.987 347.046 153.951C339.004 151.02 333.52 146.95 333.52 139.049C333.52 131.802 338.176 126.183 346.217 124.556V116.82H353.584V123.985C358.543 124.148 361.926 125.37 364.556 126.671L362.301 135.875C360.423 134.898 356.89 133.024 351.481 133.024C346.596 133.024 345.017 135.385 345.017 137.664C345.017 140.272 347.647 142.063 354.11 144.588C363.052 148.007 366.585 152.486 366.585 159.896C366.585 167.144 361.926 173.331 353.285 174.877Z" fill="#FFC94E" fill-opacity="0.2"/>
</g>
</svg>
