<svg width="380" height="180" viewBox="0 0 380 180" fill="none" xmlns="http://www.w3.org/2000/svg">
<mask id="mask0_15525_22464" style="mask-type:alpha" maskUnits="userSpaceOnUse" x="0" y="0" width="380" height="180">
<rect width="380" height="180" rx="8" fill="#222222"/>
</mask>
<g mask="url(#mask0_15525_22464)">
<path d="M334.099 136.357C342.893 136.357 349.994 129.382 349.994 120.775V115.581C349.994 106.988 342.868 100 334.099 100C325.304 100 318.203 106.975 318.203 115.581V120.775C318.178 129.382 325.304 136.357 334.099 136.357ZM373.855 136.382C380.78 136.382 386.376 130.711 386.376 123.711V119.483C386.376 112.483 380.768 106.812 373.855 106.812C366.943 106.812 361.335 112.483 361.335 119.483V123.711C361.322 130.711 366.943 136.382 373.855 136.382ZM394.129 146.92C388.182 144.499 381.734 143.182 374.997 143.182C371.835 143.182 368.737 143.495 365.738 144.06C366.215 144.223 366.679 144.373 367.143 144.549C373.115 147.146 377.28 152.954 377.28 159.754V170.393C383.453 170.23 389.474 169.439 395.283 168.034C398.005 167.168 400 164.509 400 161.335V156.517C399.987 152.214 397.566 148.551 394.129 146.92ZM360.168 150.42C352.064 147.209 343.282 145.44 334.099 145.44C324.928 145.44 316.146 147.209 308.054 150.408C303.325 152.578 300 157.483 300 163.229V169.627C300 173.868 302.697 177.418 306.398 178.572C315.305 180.667 324.564 181.822 334.086 181.822C343.583 181.822 352.842 180.693 361.736 178.585C365.45 177.443 368.172 173.88 368.172 169.627V163.229C368.172 157.496 364.873 152.616 360.168 150.42Z" fill="#54FFA3" fill-opacity="0.2"/>
</g>
</svg>
