<svg width="380" height="180" viewBox="0 0 380 180" fill="none" xmlns="http://www.w3.org/2000/svg">
<mask id="mask0_15525_22433" style="mask-type:alpha" maskUnits="userSpaceOnUse" x="0" y="0" width="380" height="180">
<rect width="380" height="180" rx="8" fill="#222222"/>
</mask>
<g mask="url(#mask0_15525_22433)">
<path d="M350.44 100C322.583 100 300 122.583 300 150.44C300 178.297 322.583 200.88 350.44 200.88C378.297 200.88 400.88 178.297 400.88 150.44C400.88 122.583 378.297 100 350.44 100ZM323.472 127.217C323.472 125.41 324.937 123.945 326.744 123.945H382.543C384.35 123.945 385.815 125.41 385.815 127.217V133.657C385.815 135.464 384.35 136.929 382.543 136.929H326.744C324.937 136.929 323.472 135.464 323.472 133.657V127.217ZM314.714 144.431C315.16 142.295 317.932 141.488 317.932 141.488L370.777 141.632C370.826 141.627 370.871 141.626 370.906 141.632L370.777 141.632C370.35 141.671 369.492 142.065 369.492 142.065C368.194 142.353 367.098 143.767 367.098 143.767C365.828 145.152 358.211 155.048 358.211 155.048H318.077C315.249 154.5 314.714 152.105 314.714 152.105V144.431ZM363.606 173.125H318.163C318.163 173.125 315.55 172.995 314.714 170.211V162.55C314.714 162.55 315.826 159.65 318.279 159.737H354.604C354.604 159.737 353.219 161.064 353.104 162.666C353.104 162.666 352.974 163.805 353.104 164.151C353.104 164.151 353.263 166.416 354.604 167.426C354.604 167.426 355.499 168.306 356.422 168.378H363.606V173.125ZM385.313 163.954L379.485 164.089C379.485 164.089 377.523 164.417 377.1 166.398L377.061 173.9C377.061 173.9 376.984 176.477 374.215 177.401H370.137C370.137 177.401 368.155 177.208 368.002 174.4L368.04 166.551C368.04 166.551 368.079 164.358 366.117 164.127L360.885 164.05C360.885 164.05 358.749 164.05 359.403 162.319L360.404 160.704L369.444 147.893C369.444 147.893 370.964 145.719 372.022 145.623C372.022 145.623 373.791 145.142 375.157 145.623C375.157 145.623 375.927 145.892 376.523 147.104L386.045 162.281C386.045 162.281 387.121 163.897 385.313 163.954Z" fill="#656DFF" fill-opacity="0.2"/>
</g>
</svg>
