<svg width="16" height="16" viewBox="0 0 16 16" fill="currentColor" xmlns="http://www.w3.org/2000/svg">
<path d="M5.10357 9.25541C4.86316 9.015 4.86316 8.62523 5.10357 8.38482C5.34398 8.14441 5.73375 8.14441 5.97416 8.38482L7.38542 9.79612V0.615385C7.38542 0.275692 7.66111 0 8.0008 0C8.34049 0 8.61619 0.275692 8.61619 0.615385V9.79612L10.0274 8.38482C10.2679 8.14441 10.6576 8.14441 10.898 8.38482C11.1384 8.62523 11.1384 9.015 10.898 9.25541L8.4365 11.7169C8.37988 11.7736 8.31187 11.8187 8.23638 11.8499C8.16089 11.881 8.08121 11.8974 8.0008 11.8974C7.92039 11.8974 7.84091 11.881 7.76542 11.8499C7.68994 11.8187 7.62172 11.7736 7.5651 11.7169L5.10357 9.25541ZM12.9231 5.74359C12.5834 5.74359 12.3077 6.01928 12.3077 6.35897C12.3077 6.69867 12.5834 6.97436 12.9231 6.97436C14.217 6.97436 14.7692 7.52656 14.7692 8.82051V12.9231C14.7692 14.217 14.217 14.7692 12.9231 14.7692H3.07692C1.78297 14.7692 1.23077 14.217 1.23077 12.9231V8.82051C1.23077 7.52656 1.78297 6.97436 3.07692 6.97436C3.41662 6.97436 3.69231 6.69867 3.69231 6.35897C3.69231 6.01928 3.41662 5.74359 3.07692 5.74359C1.09292 5.74359 0 6.83651 0 8.82051V12.9231C0 14.9071 1.09292 16 3.07692 16H12.9231C14.9071 16 16 14.9071 16 12.9231V8.82051C16 6.83651 14.9071 5.74359 12.9231 5.74359Z" fill="#222"/>
</svg>
