<svg width="17" height="14" viewBox="0 0 17 14" fill="currentColor" xmlns="http://www.w3.org/2000/svg">
<path d="M13.3636 14H3.18182C1.13018 14 0 12.8698 0 10.8182V3.18182C0 1.13018 1.13018 0 3.18182 0H13.3636C15.4153 0 16.5455 1.13018 16.5455 3.18182V10.8182C16.5455 12.8698 15.4153 14 13.3636 14ZM3.18182 1.27273C1.84376 1.27273 1.27273 1.84376 1.27273 3.18182V10.8182C1.27273 12.1562 1.84376 12.7273 3.18182 12.7273H13.3636C14.7017 12.7273 15.2727 12.1562 15.2727 10.8182V3.18182C15.2727 1.84376 14.7017 1.27273 13.3636 1.27273H3.18182ZM9.14586 7.57612L13.3135 4.54533C13.5977 4.33915 13.6606 3.94037 13.4535 3.65613C13.2474 3.37273 12.8504 3.30824 12.5645 3.51612L8.3966 6.54691C8.32194 6.60122 8.22269 6.60122 8.14802 6.54691L3.98017 3.51612C3.69339 3.30824 3.29727 3.37358 3.09109 3.65613C2.88406 3.94037 2.94688 4.3383 3.23112 4.54533L7.39876 7.57696C7.6601 7.76702 7.96644 7.86121 8.2719 7.86121C8.57735 7.86121 8.88538 7.76618 9.14586 7.57612Z" fill="#F5F5F5"/>
</svg>
