<?xml version="1.0" encoding="UTF-8"?>
<svg width="115px" height="108px" viewBox="0 0 115 108" version="1.1" xmlns="http://www.w3.org/2000/svg" xmlns:xlink="http://www.w3.org/1999/xlink">
    <title>暂无数据-黑</title>
    <g id="avedex电脑端" stroke="none" stroke-width="1" fill="none" fill-rule="evenodd">
        <g id="首页0512备份" transform="translate(-1643.000000, -941.000000)">
            <g id="编组-13" transform="translate(-11.000000, 0.000000)">
                <g id="资产折合备份" transform="translate(1213.000000, 197.000000)">
                    <g id="暂无数据-黑" transform="translate(441.000000, 744.000000)">
                        <path d="M61.0341045,107.135132 C89.1833582,107.135132 112.011716,84.4784155 112.011716,56.5008035 C112.011716,28.5231916 89.1833582,5.86647519 61.0341045,5.86647519 C32.8848507,5.86647519 10.0564925,28.5231916 10.0564925,56.5008035 C10.0564925,84.4784155 32.8848507,107.135132 61.0341045,107.135132 Z" id="Path" fill="#191E2D"></path>
                        <path d="M100.082612,49.8925946 L100.082612,80.8739379 C100.082612,87.310505 94.8475373,92.5455797 88.3251493,92.5455797 L33.9147015,92.5455797 C27.4781343,92.5455797 22.2430597,87.3963259 22.1572388,80.9597588 C22.1572388,80.8739379 22.1572388,80.8739379 22.1572388,80.788117 L22.1572388,49.8925946 C22.1572388,49.8067737 22.1572388,49.8067737 22.1572388,49.7209528 C22.1572388,49.549311 22.1572388,49.3776692 22.2430597,49.2060274 C22.3288806,48.9485647 22.4147015,48.7769229 22.5005224,48.5194603 L37.0900746,20.6276692 C37.605,19.5119976 38.7206716,18.9112513 39.9221642,18.9112513 L82.2318657,18.9112513 C83.4333582,18.9112513 84.463209,19.5119976 85.0639552,20.6276692 L99.6535075,48.5194603 C99.7393284,48.6911021 99.8251493,48.9485647 99.9109701,49.2060274 C100.082612,49.3776692 100.082612,49.6351319 100.082612,49.8925946 Z" id="Path" fill="#787B86" fill-rule="nonzero"></path>
                        <path d="M100.082612,49.8925946 L100.082612,84.049311 C100.082612,88.7694603 96.3064925,92.5455797 91.5005224,92.5455797 L30.7393284,92.5455797 C26.0191791,92.5455797 22.1572388,88.7694603 22.1572388,84.049311 L22.1572388,49.7209528 C22.1572388,49.549311 22.1572388,49.3776692 22.2430597,49.2060274 L41.8102239,49.2060274 C44.7281343,49.2060274 47.1311194,51.5231916 47.1311194,54.5269229 C47.1311194,55.9858782 47.7318657,57.3590125 48.6758955,58.3030424 C49.7057463,59.3328931 50.9072388,59.8478185 52.4520149,59.8478185 L69.8736567,59.8478185 C72.7915672,59.8478185 75.1945522,57.5306543 75.1945522,54.5269229 C75.1945522,53.0679677 75.7952985,51.6948334 76.7393284,50.7508035 C77.7691791,49.7209528 78.9706716,49.2060274 80.4296269,49.2060274 L99.9109701,49.2060274 C100.082612,49.3776692 100.082612,49.6351319 100.082612,49.8925946 Z" id="Path" fill="#42454E" fill-rule="nonzero"></path>
                        <path d="M110.708955,32.299311 C112.65194,32.299311 114.227612,30.7202065 114.227612,28.7806543 C114.227612,26.8411021 112.65194,25.2619976 110.708955,25.2619976 C108.765112,25.2619976 107.190299,26.8411021 107.190299,28.7806543 C107.190299,30.7202065 108.765112,32.299311 110.708955,32.299311 Z" id="Path" fill="#787B86" fill-rule="nonzero"></path>
                        <path d="M107.190299,20.8851319 C108.51709,20.8851319 109.593284,19.8123707 109.593284,18.4821468 C109.593284,17.1519229 108.51709,16.0791618 107.190299,16.0791618 C105.862649,16.0791618 104.787313,17.1519229 104.787313,18.4821468 C104.787313,19.8123707 105.862649,20.8851319 107.190299,20.8851319 Z" id="Path" fill="#787B86" fill-rule="nonzero"></path>
                        <path d="M9.86940299,28.7806543 C11.196194,28.7806543 12.2723881,27.7078931 12.2723881,26.3776692 C12.2723881,25.0474453 11.196194,23.9746841 9.86940299,23.9746841 C8.54175373,23.9746841 7.46641791,25.0474453 7.46641791,26.3776692 C7.46641791,27.7078931 8.54175373,28.7806543 9.86940299,28.7806543 Z" id="Path" fill="#787B86" fill-rule="nonzero"></path>
                        <path d="M4.46268657,81.6463259 C6.92746269,81.6463259 8.92537313,79.6466991 8.92537313,77.1836394 C8.92537313,74.7205797 6.92746269,72.7209528 4.46268657,72.7209528 C1.99791045,72.7209528 -1.21958828e-14,74.7205797 -1.21958828e-14,77.1836394 C-1.21958828e-14,79.6466991 1.99791045,81.6463259 4.46268657,81.6463259 Z" id="Path" fill="#787B86" fill-rule="nonzero"></path>
                        <path d="M82.5923134,8.58699757 C83.7122761,20.8164752 84.2718284,23.6142364 81.7358209,34.6851319 C80.9110821,37.1481916 80.0872015,39.8429677 78.319291,41.7224453 C75.8459328,44.6489379 71.3686567,45.9362513 67.7169776,45.0008035 C63.9468657,44.0653558 60.8839179,40.7784155 60.1767537,36.7963259 C59.5880224,34.3332662 60.4127612,31.4067737 62.5333955,29.8791618 C64.7716045,28.4716991 67.9521269,28.8235647 69.8376119,30.5828931 C71.9582463,32.3422215 72.7829851,35.0369976 72.6645522,37.6202065 C72.5469776,40.1948334 71.6046642,42.7780424 70.3087687,45.0008035 C67.3788433,50.4761767 66.1730597,50.4590125 60.1767537,59.4530424" id="Path" stroke="#42454E" stroke-width="2" stroke-dasharray="4"></path>
                        <path d="M89.1601866,4.02990802 C88.7122015,5.66908713 86.9211194,6.26125131 85.1300373,5.22281847 C83.1896269,4.33028116 81.8465299,3.58363937 82.1443284,2.09893787 C82.5923134,0.61423638 84.3833955,0.468340858 86.4731343,0.322445336 C89.0108582,0.0220722012 89.4588433,2.39931101 89.1601866,4.02990802 Z" id="Path" fill="#787B86" fill-rule="nonzero"></path>
                        <path d="M74.6813433,5.51460951 C75.4279851,6.85341548 77.5177239,7.7459528 79.0101493,6.40714683 C80.651903,4.92244534 81.995,3.8840125 81.2492164,2.39931101 C80.5025746,1.06050504 79.308806,1.50677369 76.7710821,1.80714683 C74.6813433,2.25341548 73.7853731,4.02990802 74.6813433,5.51460951 Z" id="Path" fill="#787B86" fill-rule="nonzero"></path>
                        <path d="M81.2492164,0.0220722012 C82.2936567,-0.123823321 83.3389552,0.468340858 83.6376119,1.36087817 C83.7869403,1.65266922 83.9362687,2.09893787 83.9362687,2.39931101 C84.2340672,4.47617668 83.4882836,6.26125131 82.2936567,6.40714683 C80.9505597,6.70751996 79.6074627,5.22281847 79.4581343,3.29184832 C79.4581343,2.69110205 79.4581343,2.39931101 79.4581343,1.95304235 C79.6074627,0.914609515 80.2039179,0.167967724 81.2492164,0.0220722012 C81.3985448,0.0220722012 81.2492164,0.0220722012 81.2492164,0.0220722012 Z" id="Path" fill="#42454E" fill-rule="nonzero"></path>
                        <path d="M51.3277612,72.1716991 C52.4151119,72.1716991 53.2964925,71.2877438 53.2964925,70.1978185 C53.2964925,69.1164752 52.4151119,68.23252 51.3277612,68.23252 C50.2404104,68.23252 49.3590299,69.1164752 49.3590299,70.1978185 C49.3590299,71.2877438 50.2404104,72.1716991 51.3277612,72.1716991 Z" id="Path" fill="#787B86" fill-rule="nonzero"></path>
                        <path d="M70.9112313,72.1716991 C71.9985821,72.1716991 72.8799627,71.2877438 72.8799627,70.1978185 C72.8799627,69.1164752 71.9985821,68.23252 70.9112313,68.23252 C69.8238806,68.23252 68.9425,69.1164752 68.9425,70.1978185 C68.9425,71.2877438 69.8238806,72.1716991 70.9112313,72.1716991 Z" id="Path" fill="#787B86" fill-rule="nonzero"></path>
                        <path d="M64.3124627,85.104908 L58.1393657,85.104908 C57.1816045,85.104908 56.3834701,84.3067737 56.3834701,83.3455797 C56.3834701,82.3843856 57.1816045,81.5862513 58.1393657,81.5862513 L64.2592537,81.5862513 C65.2170149,81.5862513 66.0151493,82.3843856 66.0151493,83.3455797 C66.0683582,84.3067737 65.2702239,85.104908 64.3124627,85.104908 Z" id="Path" fill="#787B86" fill-rule="nonzero"></path>
                    </g>
                </g>
            </g>
        </g>
    </g>
</svg>