<svg width="14" height="14" viewBox="0 0 14 14" fill="currentColor" xmlns="http://www.w3.org/2000/svg">
<path d="M7 0C3.1339 0 0 3.1339 0 7C0 10.8661 3.1339 14 7 14C10.8661 14 14 10.8661 14 7C14 3.1339 10.8661 0 7 0ZM6.475 3.85C6.475 3.5602 6.7102 3.325 7 3.325C7.2898 3.325 7.525 3.5602 7.525 3.85V7.04973C7.525 7.33953 7.2898 7.57473 7 7.57473C6.7102 7.57473 6.475 7.33953 6.475 7.04973V3.85ZM7.01401 10.15C6.62761 10.15 6.31042 9.8364 6.31042 9.45C6.31042 9.0636 6.62061 8.75 7.00701 8.75H7.01401C7.40111 8.75 7.71401 9.0636 7.71401 9.45C7.71401 9.8364 7.40041 10.15 7.01401 10.15Z" fill="#FFBE3C"/>
</svg>
