<svg width="32" height="32" viewBox="0 0 32 32" fill="none" xmlns="http://www.w3.org/2000/svg">
<path d="M11.9937 14.5094C14.1844 14.5094 15.9531 12.7719 15.9531 10.6281V9.33438C15.9531 7.19375 14.1781 5.45312 11.9937 5.45312C9.80312 5.45312 8.03438 7.19063 8.03438 9.33438V10.6281C8.02813 12.7719 9.80312 14.5094 11.9937 14.5094ZM21.8969 14.5156C23.6219 14.5156 25.0156 13.1031 25.0156 11.3594V10.3062C25.0156 8.5625 23.6187 7.15 21.8969 7.15C20.175 7.15 18.7781 8.5625 18.7781 10.3062V11.3594C18.775 13.1031 20.175 14.5156 21.8969 14.5156ZM26.9469 17.1406C25.4656 16.5375 23.8594 16.2094 22.1812 16.2094C21.3937 16.2094 20.6219 16.2875 19.875 16.4281C19.9937 16.4688 20.1094 16.5062 20.225 16.55C21.7125 17.1969 22.75 18.6437 22.75 20.3375V22.9875C24.2875 22.9469 25.7875 22.75 27.2344 22.4C27.9125 22.1844 28.4094 21.5219 28.4094 20.7313V19.5312C28.4062 18.4594 27.8031 17.5469 26.9469 17.1406ZM18.4875 18.0125C16.4687 17.2125 14.2812 16.7719 11.9937 16.7719C9.70937 16.7719 7.52187 17.2125 5.50625 18.0094C4.32812 18.55 3.5 19.7719 3.5 21.2031V22.7969C3.5 23.8531 4.17188 24.7375 5.09375 25.025C7.3125 25.5469 9.61875 25.8344 11.9906 25.8344C14.3563 25.8344 16.6625 25.5531 18.8781 25.0281C19.8031 24.7438 20.4813 23.8563 20.4813 22.7969V21.2031C20.4813 19.775 19.6594 18.5594 18.4875 18.0125Z" fill="#12B886"/>
<path d="M21.8971 14.5156C23.6221 14.5156 25.0158 13.1031 25.0158 11.3594V10.3063C25.0158 8.56252 23.6189 7.15002 21.8971 7.15002C20.1752 7.15002 18.7783 8.56252 18.7783 10.3063V11.3594C18.7752 13.1031 20.1752 14.5156 21.8971 14.5156ZM26.9471 17.1406C25.4658 16.5375 23.8596 16.2094 22.1814 16.2094C21.3939 16.2094 20.6221 16.2875 19.8752 16.4282C19.9939 16.4688 20.1096 16.5063 20.2252 16.55C21.7127 17.1969 22.7502 18.6438 22.7502 20.3375V22.9875C24.2877 22.9469 25.7877 22.75 27.2346 22.4C27.9127 22.1844 28.4096 21.5219 28.4096 20.7313V19.5313C28.4064 18.4594 27.8033 17.5469 26.9471 17.1406Z" fill="#424ADF"/>
</svg>
