<svg width="18" height="18" viewBox="0 0 18 18" fill="none" xmlns="http://www.w3.org/2000/svg">
<mask id="mask0_10970_17218" style="mask-type:luminance" maskUnits="userSpaceOnUse" x="0" y="0" width="18" height="18">
<path fill-rule="evenodd" clip-rule="evenodd" d="M0 0H18V17.9996H0V0Z" fill="white"/>
</mask>
<g mask="url(#mask0_10970_17218)">
<path d="M17.7067 16.293C18.0974 16.6837 18.0974 17.317 17.7067 17.7077C17.512 17.9023 17.256 17.9997 17 17.9997C16.744 17.9997 16.488 17.9023 16.292 17.7077L9.00002 10.4143L1.70669 17.7077C1.51202 17.9023 1.25602 17.9997 1.00002 17.9997C0.744023 17.9997 0.488023 17.9023 0.292023 17.7077C-0.0986432 17.317 -0.0986432 16.6837 0.292023 16.293L7.58536 8.99967L0.292023 1.70767C-0.0986432 1.317 -0.0986432 0.683667 0.292023 0.293C0.68269 -0.0976667 1.31602 -0.0976667 1.70669 0.293L9.00002 7.58633L16.292 0.293C16.6827 -0.0976667 17.316 -0.0976667 17.7067 0.293C18.0974 0.683667 18.0974 1.317 17.7067 1.70767L10.4134 8.99967L17.7067 16.293Z" fill="#EE0A24"/>
</g>
</svg>
