<svg width="14" height="14" viewBox="0 0 14 14" fill="none" xmlns="http://www.w3.org/2000/svg">
<circle cx="7" cy="7" r="7" fill="#F5F5F5"/>
<path d="M9.98059 6.49317C9.94861 6.41742 9.87664 6.36693 9.79668 6.36693H7.99753V3.21088C7.99753 3.12251 7.94555 3.04677 7.86959 3.0131C7.79363 2.98365 7.70567 3.00469 7.64969 3.06781L4.05139 7.28008C3.99942 7.3432 3.98342 7.43157 4.01941 7.50731C4.05139 7.58306 4.12336 7.63355 4.20332 7.63355H6.00247V10.7896C6.00247 10.878 6.05445 10.9537 6.13041 10.9874C6.1544 10.9958 6.17839 11 6.20238 11C6.25835 11 6.31033 10.9748 6.35031 10.9285L9.94861 6.7204C10.0006 6.65728 10.0166 6.56891 9.98059 6.49317Z" fill="#333333"/>
</svg>
