<svg width="16" height="16" viewBox="0 0 16 16" fill="none" xmlns="http://www.w3.org/2000/svg">
<g clip-path="url(#clip0_15527_25957)">
<path d="M8 1C4.136 1 1 4.136 1 8C1 11.864 4.136 15 8 15C11.864 15 15 11.864 15 8C15 4.136 11.864 1 8 1ZM10.821 6.74L7.552 10.002C7.454 10.107 7.321 10.156 7.181 10.156C7.041 10.156 6.915 10.107 6.81 10.002L5.179 8.371C4.976 8.168 4.976 7.832 5.179 7.629C5.382 7.426 5.718 7.426 5.921 7.629L7.181 8.889L10.079 5.998C10.282 5.788 10.618 5.788 10.821 5.998C11.024 6.201 11.024 6.53 10.821 6.74Z" fill="#12B886"/>
</g>
<defs>
<clipPath id="clip0_15527_25957">
<rect width="14" height="14" fill="white" transform="translate(1 1)"/>
</clipPath>
</defs>
</svg>
