<?xml version="1.0" encoding="UTF-8"?>
<svg width="1920px" height="204px" viewBox="0 0 1920 204" version="1.1" xmlns="http://www.w3.org/2000/svg" xmlns:xlink="http://www.w3.org/1999/xlink">
    <title>编组</title>
    <defs>
        <rect id="path-1" x="0" y="0" width="1920" height="204"></rect>
        <polygon id="path-3" points="0.404799451 0.0508467604 19.9733973 5.28362016 71.0176208 4.28643126 84.5043538 10.417662 67.9470689 28.3670621"></polygon>
        <linearGradient x1="84.8790338%" y1="32.5717961%" x2="24.9716898%" y2="56.3346043%" id="linearGradient-5">
            <stop stop-color="#558BED" offset="0%"></stop>
            <stop stop-color="#FFFFFF" offset="100%"></stop>
        </linearGradient>
        <polygon id="path-6" points="19.6278368 0.337168324 22.3627014 1.93612616 29.8564278 6.31980802 38.6336647 11.8393966 38.9594789 11.6320603 73.9005828 37.8551663 14.0889955 18.9870689 0.227082619 19.9650051"></polygon>
        <linearGradient x1="84.8790338%" y1="10.1318289%" x2="24.9716898%" y2="64.490827%" id="linearGradient-8">
            <stop stop-color="#558BED" offset="0%"></stop>
            <stop stop-color="#FFFFFF" offset="100%"></stop>
        </linearGradient>
        <polygon id="path-9" points="14.8492287 0.188577305 34.7436407 18.2070895 0.325814193 13.0236819 0.355433665 12.8365855"></polygon>
        <linearGradient x1="84.8790338%" y1="7.86523446%" x2="24.9716898%" y2="65.3146629%" id="linearGradient-11">
            <stop stop-color="#558BED" offset="0%"></stop>
            <stop stop-color="#FFFFFF" offset="100%"></stop>
        </linearGradient>
        <polygon id="path-12" points="27.8719232 0.119958862 45.1005828 23.0750497 9.01419266 25.602578 0.0789852588 19.9650051 0.128351046 19.8860199"></polygon>
        <linearGradient x1="84.8790338%" y1="0.748900157%" x2="24.9716898%" y2="67.9012267%" id="linearGradient-14">
            <stop stop-color="#558BED" offset="0%"></stop>
            <stop stop-color="#FFFFFF" offset="100%"></stop>
        </linearGradient>
        <polygon id="path-15" points="31.8409325 0.356914638 43.6887213 4.37528968 83.3689407 17.8324032 0.552896812 23.8155365 0.493657868 23.973507 0.0888584162 23.8155365 27.1808022 3.80264655"></polygon>
        <linearGradient x1="84.8790338%" y1="37.6370593%" x2="24.9716898%" y2="54.4935403%" id="linearGradient-17">
            <stop stop-color="#558BED" offset="0%"></stop>
            <stop stop-color="#FFFFFF" offset="100%"></stop>
        </linearGradient>
        <polygon id="path-18" points="37.2020569 0.23843675 51.1133356 6.20182379 73.4365444 15.7689133 0.276448406 25.4248612"></polygon>
        <linearGradient x1="84.8790338%" y1="31.7797593%" x2="24.9716898%" y2="56.6224848%" id="linearGradient-20">
            <stop stop-color="#558BED" offset="0%"></stop>
            <stop stop-color="#FFFFFF" offset="100%"></stop>
        </linearGradient>
        <polygon id="path-21" points="14.4839218 0.347041481 41.5956119 15.9658828 16.3302023 23.3510045 0.0296194721 14.0109976 0.217209462 13.6856771"></polygon>
        <linearGradient x1="84.8790338%" y1="2.91326033%" x2="24.9716898%" y2="67.1145498%" id="linearGradient-23">
            <stop stop-color="#558BED" offset="0%"></stop>
            <stop stop-color="#FFFFFF" offset="100%"></stop>
        </linearGradient>
        <polygon id="path-24" points="16.8929722 0.258183065 78.0868015 29.2457731 52.456085 41.1226877 50.4814535 41.2120398 0.0394926294 21.2682619 0.33568735 20.5080288 5.21302708 14.5347686 10.1199863 8.53188893"></polygon>
        <linearGradient x1="84.8790338%" y1="7.67047876%" x2="24.9716898%" y2="65.3854504%" id="linearGradient-26">
            <stop stop-color="#558BED" offset="0%"></stop>
            <stop stop-color="#FFFFFF" offset="100%"></stop>
        </linearGradient>
        <polygon id="path-27" points="35.9284196 0.485265684 36.3727117 0.495138841 37.271169 0.732094618 122.081591 52.7631402 121.824889 52.8228728 70.5535824 40.6393966 59.0217347 33.4907371 51.6761056 37.5194789 0.602262599 24.1907165 0.454165238 23.8550291"></polygon>
        <linearGradient x1="84.8790338%" y1="21.5334846%" x2="24.9716898%" y2="60.3466836%" id="linearGradient-29">
            <stop stop-color="#558BED" offset="0%"></stop>
            <stop stop-color="#FFFFFF" offset="100%"></stop>
        </linearGradient>
        <polygon id="path-30" points="51.9624272 0.100212547 52.2783682 0.198944121 78.9655125 17.0622969 100.834556 30.8847172 69.7834762 31.3388824 62.1910182 28.3571889 47.49976 31.5358519 47.4602674 31.3487556 0.0691121015 18.92783"></polygon>
        <linearGradient x1="84.8790338%" y1="35.0379549%" x2="24.9716898%" y2="55.4382331%" id="linearGradient-32">
            <stop stop-color="#558BED" offset="0%"></stop>
            <stop stop-color="#FFFFFF" offset="100%"></stop>
        </linearGradient>
        <polygon id="path-33" points="126.149332 0.228069935 170.321838 28.0605005 115.150634 21.9095235 94.3972575 15.4134796 87.15036 18.5926363 0.0987315735 9.14402468 40.3614673 6.26106274 93.0248886 2.55862873 112.287419 1.20600617"></polygon>
        <linearGradient x1="84.8790338%" y1="45.8900659%" x2="24.9716898%" y2="51.4938319%" id="linearGradient-35">
            <stop stop-color="#558BED" offset="0%"></stop>
            <stop stop-color="#FFFFFF" offset="100%"></stop>
        </linearGradient>
        <path d="M50.6196778,0.228069935 C50.6196778,0.228069935 54.4307165,1.57131299 59.9399383,3.52619815 C63.9026287,4.93490024 68.7421503,6.66328036 73.6670052,8.44164649 L74.6868986,8.81020909 C86.4237045,13.0548465 98.3345739,17.477167 99.7583819,18.4445389 L99.8472403,18.6321289 L99.4029482,18.7007473 C92.1268262,19.629614 3.65479405,27.727009 0.118823212,28.0505332 L0.00987315735,28.0605005 L0.00987315735,28.0605005 L15.8069249,19.3726157 L43.4616387,4.16795338 L50.6196778,0.228069935 Z" id="path-36"></path>
        <linearGradient x1="84.8790338%" y1="38.0522634%" x2="24.9716898%" y2="54.3426267%" id="linearGradient-38">
            <stop stop-color="#558BED" offset="0%"></stop>
            <stop stop-color="#FFFFFF" offset="100%"></stop>
        </linearGradient>
        <polygon id="path-39" points="15.3231402 0.198944121 15.4909839 0.277929379 30.4191978 42.5745355 0.217209462 33.2241618"></polygon>
        <linearGradient x1="67.7175625%" y1="-103.733888%" x2="37.2863264%" y2="105.877436%" id="linearGradient-41">
            <stop stop-color="#558BED" offset="0%"></stop>
            <stop stop-color="#FFFFFF" offset="100%"></stop>
        </linearGradient>
        <polygon id="path-42" points="20.3880699 0.129338361 20.6052794 0.218690435 20.4670552 0.544504628 37.8931779 34.3995612 0.256702091 22.1864655 20.328831 0.139705177 20.3387041 0.139705177"></polygon>
        <linearGradient x1="84.8790338%" y1="-77.4634194%" x2="24.9716898%" y2="96.3289464%" id="linearGradient-44">
            <stop stop-color="#558BED" offset="0%"></stop>
            <stop stop-color="#FFFFFF" offset="100%"></stop>
        </linearGradient>
        <filter id="filter-45">
            <feColorMatrix in="SourceGraphic" type="matrix" values="0 0 0 0 0.847000 0 0 0 0 0.847000 0 0 0 0 0.847000 0 0 0 1.000000 0"></feColorMatrix>
        </filter>
        <linearGradient x1="84.8790338%" y1="-5.34419952%" x2="24.9716898%" y2="70.1158769%" id="linearGradient-46">
            <stop stop-color="#558BED" offset="0%"></stop>
            <stop stop-color="#FFFFFF" offset="100%"></stop>
        </linearGradient>
        <polygon id="path-47" points="30.7153925 0.110085704 51.4687693 6.60612959 90.9021598 18.9381968 0.849091532 54.3137196 0.355433665 54.402578"></polygon>
        <linearGradient x1="84.8790338%" y1="-5.27180685%" x2="24.9716898%" y2="70.0895644%" id="linearGradient-49">
            <stop stop-color="#558BED" offset="0%"></stop>
            <stop stop-color="#FFFFFF" offset="100%"></stop>
        </linearGradient>
        <filter id="filter-50">
            <feColorMatrix in="SourceGraphic" type="matrix" values="0 0 0 0 0.847000 0 0 0 0 0.847000 0 0 0 0 0.847000 0 0 0 1.000000 0"></feColorMatrix>
        </filter>
        <linearGradient x1="84.8790338%" y1="21.6366829%" x2="24.9716898%" y2="60.3091742%" id="linearGradient-51">
            <stop stop-color="#558BED" offset="0%"></stop>
            <stop stop-color="#FFFFFF" offset="100%"></stop>
        </linearGradient>
        <polygon id="path-52" points="45.3869044 0.149084676 59.2685636 13.0143024 73.2193349 25.9382653 0.33568735 31.4079945"></polygon>
        <linearGradient x1="84.8790338%" y1="21.7214546%" x2="24.9716898%" y2="60.2783624%" id="linearGradient-54">
            <stop stop-color="#558BED" offset="0%"></stop>
            <stop stop-color="#FFFFFF" offset="100%"></stop>
        </linearGradient>
        <polygon id="path-55" points="94.5947206 0.119958862 127.225506 15.5117175 147.692561 25.1681591 35.1286939 16.0947275 28.98759 13.6659308 23.2512856 15.4919712 0 14.3471786 26.8352417 4.24693864 27.3486459 4.395036 27.5362359 4.15758656"></polygon>
        <linearGradient x1="84.8790338%" y1="45.5781356%" x2="24.9716898%" y2="51.6072087%" id="linearGradient-57">
            <stop stop-color="#558BED" offset="0%"></stop>
            <stop stop-color="#FFFFFF" offset="100%"></stop>
        </linearGradient>
        <polygon id="path-58" points="56.9286253 0.268056222 57.4519026 0.603743572 95.1179979 25.0891738 93.7555022 24.9706959 0.33568735 16.8055948"></polygon>
        <linearGradient x1="84.8790338%" y1="39.4571582%" x2="24.9716898%" y2="53.8319916%" id="linearGradient-60">
            <stop stop-color="#558BED" offset="0%"></stop>
            <stop stop-color="#FFFFFF" offset="100%"></stop>
        </linearGradient>
        <polygon id="path-61" points="15.3033939 0.119958862 51.6464861 34.2904628 0.355433665 27.586589"></polygon>
        <linearGradient x1="84.8790338%" y1="-18.2321657%" x2="24.9716898%" y2="74.8002475%" id="linearGradient-63">
            <stop stop-color="#558BED" offset="0%"></stop>
            <stop stop-color="#FFFFFF" offset="100%"></stop>
        </linearGradient>
        <polygon id="path-64" points="42.9087419 0.258183065 76.1417895 11.2075146 103.638533 20.271073 93.2914638 21.1690367 86.1630442 19.8070346 84.267398 21.7026808 20.8224889 27.6364484 0.355433665 17.9800069 0.582516284 17.506589 1.11566678 17.2893795"></polygon>
        <linearGradient x1="84.8790338%" y1="39.1975331%" x2="24.9716898%" y2="53.9263572%" id="linearGradient-66">
            <stop stop-color="#558BED" offset="0%"></stop>
            <stop stop-color="#FFFFFF" offset="100%"></stop>
        </linearGradient>
        <polygon id="path-67" points="74.4238601 0.23843675 37.5081248 53.207926 0.118477888 34.744628 19.3020226 17.4967158 37.0934522 11.9282551 41.8621872 10.4275351 59.6634899 4.85858073"></polygon>
        <linearGradient x1="84.8790338%" y1="-28.1233097%" x2="24.9716898%" y2="78.3953675%" id="linearGradient-69">
            <stop stop-color="#558BED" offset="0%"></stop>
            <stop stop-color="#FFFFFF" offset="100%"></stop>
        </linearGradient>
        <polygon id="path-70" points="0 0.386139184 1439.98025 0.386139184 1439.98025 169.817912 0 169.817912"></polygon>
        <polygon id="path-72" points="0 0.386139184 1439.98025 0.386139184 1439.98025 169.817912 0 169.817912"></polygon>
        <polygon id="path-74" points="0 260.651354 1920 260.651354 1920 0.123908125 0 0.123908125"></polygon>
    </defs>
    <g id="avedex" stroke="none" stroke-width="1" fill="none" fill-rule="evenodd">
        <g id="首页0515备份" transform="translate(0.000000, -3383.000000)">
            <g id="编组" transform="translate(0.000000, 3383.000000)">
                <mask id="mask-2" fill="white">
                    <use xlink:href="#path-1"></use>
                </mask>
                <use id="蒙版" fill="#1A202F" xlink:href="#path-1"></use>
                <g opacity="0.0613644622" mask="url(#mask-2)">
                    <g transform="translate(0.000000, -33.000000)">
                        <g id="编组-27" stroke-width="1" fill="none" transform="translate(240.000000, 111.000000)">
                            <g id="编组" transform="translate(916.722660, 86.592924)">
                                <mask id="mask-4" fill="white">
                                    <use xlink:href="#path-3"></use>
                                </mask>
                                <g id="Clip-2"></g>
                                <polygon id="Fill-1" fill="url(#linearGradient-5)" mask="url(#mask-4)" points="19.9733973 5.28362016 71.0176208 4.28643126 84.5043538 10.417662 67.9470689 28.3670621 0.404799451 0.0508467604"></polygon>
                            </g>
                            <g id="编组" transform="translate(720.740487, 72.276846)">
                                <mask id="mask-7" fill="white">
                                    <use xlink:href="#path-6"></use>
                                </mask>
                                <g id="Clip-4"></g>
                                <polygon id="Fill-3" fill="url(#linearGradient-8)" mask="url(#mask-7)" points="22.3627014 1.93612616 29.8564278 6.31980802 38.6336647 11.8393966 38.9594789 11.6320603 73.9005828 37.8551663 14.0889955 18.9870689 0.227082619 19.9650051 19.6278368 0.337168324"></polygon>
                            </g>
                            <g id="编组" transform="translate(811.079877, 51.049558)">
                                <mask id="mask-10" fill="white">
                                    <use xlink:href="#path-9"></use>
                                </mask>
                                <g id="Clip-6"></g>
                                <polygon id="Fill-5" fill="url(#linearGradient-11)" mask="url(#mask-10)" points="34.7436407 18.2070895 0.325814193 13.0236819 0.355433665 12.8365855 14.8492287 0.188577305"></polygon>
                            </g>
                            <g id="编组" transform="translate(734.562907, 48.581268)">
                                <mask id="mask-13" fill="white">
                                    <use xlink:href="#path-12"></use>
                                </mask>
                                <g id="Clip-8"></g>
                                <polygon id="Fill-7" fill="url(#linearGradient-14)" mask="url(#mask-13)" points="27.8719232 0.119958862 45.1005828 23.0750497 9.01419266 25.602578 0.0789852588 19.9650051 0.128351046 19.8860199"></polygon>
                            </g>
                            <g id="编组" transform="translate(1238.093932, 95.972424)">
                                <mask id="mask-16" fill="white">
                                    <use xlink:href="#path-15"></use>
                                </mask>
                                <g id="Clip-10"></g>
                                <polygon id="Fill-9" fill="url(#linearGradient-17)" mask="url(#mask-16)" points="27.1808022 3.80264655 31.8409325 0.356914638 43.6887213 4.37528968 83.3689407 17.8324032 0.552896812 23.8155365 0.493657868 23.973507 0.0888584162 23.8155365"></polygon>
                            </g>
                            <g id="编组" transform="translate(1079.629757, 72.276846)">
                                <mask id="mask-19" fill="white">
                                    <use xlink:href="#path-18"></use>
                                </mask>
                                <g id="Clip-12"></g>
                                <polygon id="Fill-11" fill="url(#linearGradient-20)" mask="url(#mask-19)" points="73.4365444 15.7689133 0.276448406 25.4248612 37.2020569 0.23843675 51.1133356 6.20182379"></polygon>
                            </g>
                            <g id="编组" transform="translate(1215.879328, 75.732451)">
                                <mask id="mask-22" fill="white">
                                    <use xlink:href="#path-21"></use>
                                </mask>
                                <g id="Clip-14"></g>
                                <polygon id="Fill-13" fill="url(#linearGradient-23)" mask="url(#mask-22)" points="14.4839218 0.347041481 41.5956119 15.9658828 16.3302023 23.3510045 0.0296194721 14.0109976 0.217209462 13.6856771"></polygon>
                            </g>
                            <g id="编组" transform="translate(1160.095989, 90.542187)">
                                <mask id="mask-25" fill="white">
                                    <use xlink:href="#path-24"></use>
                                </mask>
                                <g id="Clip-16"></g>
                                <polygon id="Fill-15" fill="url(#linearGradient-26)" mask="url(#mask-25)" points="10.1199863 8.53188893 16.8929722 0.258183065 78.0868015 29.2457731 52.456085 41.1226877 50.4814535 41.2120398 0.0394926294 21.2682619 0.33568735 20.5080288 5.21302708 14.5347686"></polygon>
                            </g>
                            <g id="编组" transform="translate(878.711004, 85.605609)">
                                <mask id="mask-28" fill="white">
                                    <use xlink:href="#path-27"></use>
                                </mask>
                                <g id="Clip-18"></g>
                                <polygon id="Fill-17" fill="url(#linearGradient-29)" mask="url(#mask-28)" points="122.081591 52.7631402 121.824889 52.8228728 70.5535824 40.6393966 59.0217347 33.4907371 51.6761056 37.5194789 0.602262599 24.1907165 0.454165238 23.8550291 35.9284196 0.485265684 36.3727117 0.495138841 37.271169 0.732094618"></polygon>
                            </g>
                            <g id="编组" transform="translate(1014.960576, 93.504134)">
                                <mask id="mask-31" fill="white">
                                    <use xlink:href="#path-30"></use>
                                </mask>
                                <g id="Clip-20"></g>
                                <polygon id="Fill-19" fill="url(#linearGradient-32)" mask="url(#mask-31)" points="78.9655125 17.0622969 100.834556 30.8847172 69.7834762 31.3388824 62.1910182 28.3571889 47.49976 31.5358519 47.4602674 31.3487556 0.0691121015 18.92783 51.9624272 0.100212547 52.2783682 0.198944121"></polygon>
                            </g>
                            <g id="编组" transform="translate(608.680151, 91.035845)">
                                <mask id="mask-34" fill="white">
                                    <use xlink:href="#path-33"></use>
                                </mask>
                                <g id="Clip-22"></g>
                                <polygon id="Fill-21" fill="url(#linearGradient-35)" mask="url(#mask-34)" points="112.287419 1.20600617 126.149332 0.228069935 170.321838 28.0605005 115.150634 21.9095235 94.3972575 15.4134796 87.15036 18.5926363 0.0987315735 9.14402468 40.3614673 6.26106274 93.0248886 2.55862873"></polygon>
                            </g>
                            <g id="编组" transform="translate(778.992115, 91.035845)">
                                <mask id="mask-37" fill="white">
                                    <use xlink:href="#path-36"></use>
                                </mask>
                                <g id="Clip-24"></g>
                                <path d="M43.4616387,4.16795338 L50.6196778,0.228069935 C50.6196778,0.228069935 54.4307165,1.57131299 59.9399383,3.52619815 C73.6043881,8.38379157 97.694892,17.0425506 99.7583819,18.4445389 L99.8472403,18.6321289 L99.4029482,18.7007473 C91.9783339,19.6485704 0.00987315735,28.0605005 0.00987315735,28.0605005 L15.8069249,19.3726157 L43.4616387,4.16795338 Z" id="Fill-23" fill="url(#linearGradient-38)" mask="url(#mask-37)"></path>
                            </g>
                            <g id="编组" transform="translate(281.384985, 54.011505)">
                                <mask id="mask-40" fill="white">
                                    <use xlink:href="#path-39"></use>
                                </mask>
                                <g id="Clip-26"></g>
                                <polygon id="Fill-25" fill="url(#linearGradient-41)" mask="url(#mask-40)" points="15.4909839 0.277929379 30.4191978 42.5745355 0.217209462 33.2241618 15.3231402 0.198944121"></polygon>
                            </g>
                            <g id="编组" transform="translate(611.148440, 62.897347)">
                                <mask id="mask-43" fill="white">
                                    <use xlink:href="#path-42"></use>
                                </mask>
                                <g id="Clip-28"></g>
                                <polygon id="Fill-27" fill="url(#linearGradient-44)" mask="url(#mask-43)" points="20.4670552 0.544504628 37.8931779 34.3995612 0.256702091 22.1864655 20.328831 0.139705177 20.3387041 0.139705177 20.3880699 0.129338361 20.6052794 0.218690435"></polygon>
                            </g>
                            <g filter="url(#filter-45)" id="编组">
                                <g transform="translate(672.362016, 106.339239)">
                                    <mask id="mask-48" fill="white">
                                        <use xlink:href="#path-47"></use>
                                    </mask>
                                    <g id="Clip-30"></g>
                                    <polygon id="Fill-29" fill="url(#linearGradient-49)" mask="url(#mask-48)" points="51.4687693 6.60612959 90.9021598 18.9381968 0.849091532 54.3137196 0.355433665 54.402578 30.7153925 0.110085704"></polygon>
                                </g>
                            </g>
                            <g filter="url(#filter-50)" id="编组">
                                <g transform="translate(74.048680, 78.694398)">
                                    <mask id="mask-53" fill="white">
                                        <use xlink:href="#path-52"></use>
                                    </mask>
                                    <g id="Clip-32"></g>
                                    <polygon id="Fill-31" fill="url(#linearGradient-54)" mask="url(#mask-53)" points="59.2685636 13.0143024 73.2193349 25.9382653 0.33568735 31.4079945 45.3869044 0.149084676"></polygon>
                                </g>
                            </g>
                            <g id="编组" transform="translate(217.209462, 96.466082)">
                                <mask id="mask-56" fill="white">
                                    <use xlink:href="#path-55"></use>
                                </mask>
                                <g id="Clip-34"></g>
                                <polygon id="Fill-33" fill="url(#linearGradient-57)" mask="url(#mask-56)" points="147.692561 25.1681591 35.1286939 16.0947275 28.98759 13.6659308 23.2512856 15.4919712 0 14.3471786 26.8352417 4.24693864 27.3486459 4.395036 27.5362359 4.15758656 94.5947206 0.119958862 127.225506 15.5117175"></polygon>
                            </g>
                            <g id="编组" transform="translate(90.339390, 104.364607)">
                                <mask id="mask-59" fill="white">
                                    <use xlink:href="#path-58"></use>
                                </mask>
                                <g id="Clip-36"></g>
                                <polygon id="Fill-35" fill="url(#linearGradient-60)" mask="url(#mask-59)" points="57.4519026 0.603743572 95.1179979 25.0891738 93.7555022 24.9706959 0.33568735 16.8055948 56.9286253 0.268056222"></polygon>
                            </g>
                            <g id="编组" transform="translate(376.167295, 41.670058)">
                                <mask id="mask-62" fill="white">
                                    <use xlink:href="#path-61"></use>
                                </mask>
                                <g id="Clip-38"></g>
                                <polygon id="Fill-37" fill="url(#linearGradient-63)" mask="url(#mask-62)" points="51.6464861 34.2904628 0.355433665 27.586589 15.3033939 0.119958862"></polygon>
                            </g>
                            <g id="编组" transform="translate(344.079534, 93.997792)">
                                <mask id="mask-65" fill="white">
                                    <use xlink:href="#path-64"></use>
                                </mask>
                                <g id="Clip-40"></g>
                                <polygon id="Fill-39" fill="url(#linearGradient-66)" mask="url(#mask-65)" points="1.11566678 17.2893795 42.9087419 0.258183065 76.1417895 11.2075146 103.638533 20.271073 93.2914638 21.1690367 86.1630442 19.8070346 84.267398 21.7026808 20.8224889 27.6364484 0.355433665 17.9800069 0.582516284 17.506589"></polygon>
                            </g>
                            <g id="编组" transform="translate(500.075420, 42.657374)">
                                <mask id="mask-68" fill="white">
                                    <use xlink:href="#path-67"></use>
                                </mask>
                                <g id="Clip-42"></g>
                                <polygon id="Fill-41" fill="url(#linearGradient-69)" mask="url(#mask-68)" points="74.4238601 0.23843675 37.5081248 53.207926 0.118477888 34.744628 19.3020226 17.4967158 37.0934522 11.9282551 41.8621872 10.4275351 59.6634899 4.85858073"></polygon>
                            </g>
                            <g id="编组" transform="translate(0.000000, 0.202797)">
                                <mask id="mask-71" fill="white">
                                    <use xlink:href="#path-70"></use>
                                </mask>
                                <g id="Clip-44"></g>
                                <path d="M1292.10331,98.987387 L1325.59158,77.3942983 L1358.46623,101.595875 L1364.60832,105.574758 L1292.10331,98.987387 Z M1321.50952,113.096623 L1283.50873,100.208697 L1290.59469,99.8369722 L1362.63419,106.386331 L1321.50952,113.096623 Z M1239.79631,119.007682 L1265.43345,100.066029 L1265.56081,100.066029 C1265.81949,100.066029 1266.02485,99.8656044 1266.04657,99.6133452 L1270.02051,96.6770682 L1318.99286,113.286187 L1239.79631,119.007682 Z M1265.16786,128.171453 L1263.06241,128.732248 L1240.47805,119.947606 L1316.32069,114.468004 L1265.16786,128.171453 Z M1349.64802,113.235834 L1318.11365,132.064932 L1308.09733,127.31002 L1301.48084,131.28594 L1266.82655,129.005735 L1349.64802,113.235834 Z M1257.01757,158.004679 C1256.94352,157.868923 1256.80974,157.768217 1256.64535,157.74847 L1256.07369,157.681827 L1212.67376,132.209574 L1213.80769,132.297445 L1212.90726,131.941518 L1263.03131,129.745728 L1299.99641,132.177486 L1257.01757,158.004679 Z M1139.51613,144.436986 L1200.39451,137.574154 L1251.73938,157.189156 L1139.51613,144.436986 Z M1136.88494,143.485214 L1134.90438,143.803623 L1087.25899,125.096952 L1115.76378,124.680304 L1196.69702,136.997068 L1137.36082,143.68712 C1137.25469,143.537048 1137.07351,143.447696 1136.88494,143.485214 L1136.88494,143.485214 Z M1006.9532,146.329177 L1005.11334,145.695814 C1005.18442,145.558083 1005.19775,145.392214 1005.11975,145.243129 L1002.18989,139.658378 L1002.69392,139.984192 L1001.66069,138.488902 L1077.10988,122.172522 L1083.57087,124.710911 C1083.60296,124.953791 1083.8024,125.142862 1084.05318,125.142862 L1084.0596,125.142862 L1084.64902,125.134963 L1132.6301,143.986276 L1006.9532,146.329177 Z M1042.68909,158.64989 L1009.68461,147.271569 L1126.9787,145.079728 L1042.68909,158.64989 Z M878.729023,165.157288 L931.347521,154.130945 L934.546918,154.111199 L933.189359,153.698008 L976.49747,143.483239 C976.715667,143.602704 976.98866,143.540503 977.134289,143.332673 L987.861968,140.802677 L1005.58231,146.907744 C1005.6144,147.15013 1005.81532,147.338707 1006.06461,147.338707 L1006.07745,147.338707 L1006.79325,147.325378 L1040.00063,158.76738 L878.729023,165.157288 Z M874.137511,165.111377 C874.039273,165.131617 873.960782,165.186413 873.895125,165.252564 L749.147288,155.256485 L926.389715,154.161552 L874.137511,165.111377 Z M767.370175,144.653208 L768.501145,144.458213 C768.769201,144.412797 768.948399,144.159057 768.904463,143.891494 L817.689709,119.659804 L893.786575,142.532948 L893.894686,142.769903 L928.044457,153.164363 L747.997065,154.276081 L767.370175,144.653208 Z M744.114446,154.863534 L682.612575,159.329656 L763.964923,145.242636 L744.534056,154.894141 L744.114446,154.863534 Z M763.306383,125.590116 C763.321687,125.591597 763.33699,125.597521 763.352787,125.597521 C763.4841,125.597521 763.595667,125.531864 763.687487,125.440044 L778.985944,119.430747 L798.041138,128.317082 L767.061145,143.704891 L677.91542,159.135155 L763.306383,125.590116 Z M703.312636,106.837041 L722.932081,112.975183 C723.010079,113.080826 723.128063,113.156355 723.268756,113.172646 L723.728845,113.22448 L761.779993,125.128052 L673.746479,159.709773 L703.312636,106.837041 Z M672.943792,159.121827 L665.912129,123.09665 L695.909249,109.931288 L696.120041,109.955478 C696.1388,109.957946 696.157559,109.958439 696.176318,109.958439 C696.392047,109.958439 696.574206,109.813798 696.638876,109.611398 L701.927926,107.289725 L672.943792,159.121827 Z M602.606431,134.653181 L644.525389,118.222272 C644.732725,118.2746 644.940555,118.187716 645.054097,118.014936 L651.756983,115.388182 L653.600795,119.464315 C653.545506,119.686955 653.652629,119.906139 653.847624,120.010795 L671.78567,159.677192 L602.606431,134.653181 Z M601.199506,134.143726 L591.899979,130.775992 L574.720686,142.076808 L536.209448,130.161388 L536.110223,130.131275 L525.597779,131.328395 L584.424025,100.792694 L593.198793,103.337994 C593.290614,103.449067 593.424395,103.521635 593.573973,103.521635 C593.606061,103.521635 593.638642,103.519166 593.671224,103.511761 L593.747247,103.496952 L642.969873,117.772056 L601.199506,134.143726 Z M573.333507,142.989581 L487.367432,136.675203 L536.015934,131.135868 L573.65241,142.779776 L573.333507,142.989581 Z M539.479931,165.257994 L486.589921,137.60871 L571.97348,143.883595 L539.479931,165.257994 Z M384.863325,168.708169 L482.932904,137.34016 L484.110771,137.426551 L537.578361,165.378446 L384.863325,168.708169 Z M381.544463,168.733345 L342.054796,142.563061 L404.494618,139.864727 C404.495605,139.864233 404.496099,139.863739 404.497086,139.863739 L480.054385,137.224151 L381.544463,168.733345 Z M340.392156,141.592529 L302.254124,131.536225 L255.597532,113.110939 L363.672568,121.827456 L340.392156,141.592529 Z M283.967062,155.871583 L236.445581,134.709951 L302.043826,132.501326 L338.537977,142.124199 L283.967062,155.871583 Z M225.070716,129.64749 L207.480699,134.277013 L165.345519,135.466235 L184.22892,129.72302 C184.279767,129.707716 184.321728,129.679578 184.363195,129.650945 L185.291272,129.731905 L185.444306,129.831131 L185.661022,129.704261 L240.521714,112.252468 L240.655989,112.257898 C240.800631,112.270239 240.938855,112.199153 241.037587,112.088573 L246.179033,110.453085 L250.333164,112.094003 C250.324278,112.125104 250.308975,112.153736 250.306013,112.187798 C250.282811,112.45931 250.485211,112.698241 250.756229,112.720949 L252.220418,112.838933 L299.70685,131.592008 L234.376661,133.789279 L225.070716,129.64749 Z M155.005362,148.08808 L109.345958,156.729067 L162.049366,136.54784 L203.275228,135.384288 L155.005362,148.08808 Z M104.111704,157.676396 L70.3617964,130.543479 L158.472815,136.642128 L158.497991,136.648052 L159.07409,136.631761 L104.111704,157.676396 Z M42.3990401,157.065742 L68.8610764,130.604692 L102.602098,157.729218 L42.3990401,157.065742 Z M93.4067329,121.702067 L181.806047,129.427318 L162.773068,135.216444 C162.766651,135.217925 162.762701,135.222862 162.756284,135.224836 C162.751347,135.226811 162.745917,135.22533 162.740487,135.227798 L161.861282,135.564473 L158.58833,135.656787 L93.4067329,121.702067 Z M147.102887,104.992735 C147.183846,105.124048 147.306274,105.227716 147.471649,105.23907 L147.629619,105.251905 L183.529901,128.586619 L93.3341652,120.704384 L147.102887,104.992735 Z M83.1253205,119.500846 L76.853891,118.157603 L75.5738361,118.530808 L35.1684333,113.340983 L142.617017,105.27412 L90.6353377,120.46496 L83.1253205,119.500846 Z M119.391402,79.2726664 L132.55084,91.4665094 C132.509866,91.5785698 132.505917,91.7059335 132.55627,91.824905 C132.661419,92.0766706 132.951196,92.1946548 133.201975,92.089012 L133.216784,92.0835818 L146.101748,104.022204 L76.1533905,109.273242 L119.391402,79.2726664 Z M163.898608,79.1378978 L147.182859,103.678124 L134.214961,91.6619979 L163.898608,79.1378978 Z M165.539527,78.4907124 L242.510168,100.583383 L217.217607,110.081854 L169.77363,91.1752513 L169.552472,91.0878738 L148.884004,102.935169 L165.539527,78.4907124 Z M194.570065,73.6271951 L240.529613,98.9878807 L167.455413,78.0138389 L194.570065,73.6271951 Z M254.660569,86.7372671 L244.610682,99.7792143 L244.245375,99.9110209 L197.868193,74.3193034 L254.660569,86.7372671 Z M272.727953,72.1990429 L255.404018,85.8886692 L234.491683,81.31641 L234.078985,77.222999 L272.727953,72.1990429 Z M274.607309,71.9719602 C274.724799,71.9413534 274.814152,71.8673048 274.870922,71.7641303 L295.506315,55.4566363 L281.288474,86.532399 L256.907206,85.9592623 L274.607309,71.9719602 Z M296.727624,55.1505684 L311.011615,95.6216277 L283.160919,86.9989057 L284.266219,86.6024985 L282.362674,86.5575756 L296.727624,55.1505684 Z M321.650435,67.2797422 L311.806404,94.9053301 L297.649777,54.7946411 L321.650435,67.2797422 Z M322.573576,67.6302393 L356.775674,76.3724265 L312.651052,95.4784669 L322.573576,67.6302393 Z M374.148975,69.460229 L358.285773,75.7257347 L358.003894,75.6284841 L357.990566,75.6645211 L326.852108,67.704288 L374.148975,69.460229 Z M376.481015,69.6019088 L428.951909,100.213633 L359.716887,76.2218608 L376.481015,69.6019088 Z M391.5983,42.3845759 L426.361687,75.0706507 L377.299993,68.658035 L391.5983,42.3845759 Z M415.284498,47.1409695 L426.462393,73.8098485 L393.093589,42.4354227 L415.284498,47.1409695 Z M444.587535,65.6837463 L428.054439,75.0553473 L416.703764,47.9717957 L444.587535,65.6837463 Z M478.990552,29.2972122 L461.913939,47.5196051 C461.8236,47.5674899 461.750045,47.6464751 461.700679,47.7466877 L445.465259,65.0716106 L433.493562,57.4673048 L478.990552,29.2972122 Z M482.056661,27.4691971 L502.435845,32.9023956 C502.441769,32.9043702 502.447199,32.9023956 502.453123,32.9038766 C502.457566,32.9048639 502.461515,32.9083195 502.466452,32.9093068 L543.215934,41.0852684 L516.679849,38.3755804 L516.518917,38.2556215 L516.316517,38.3815043 L463.48772,47.2846239 L482.056661,27.4691971 Z M541.570079,52.3939829 C541.53108,52.4290326 541.505903,52.4709935 541.480233,52.5134481 L537.395214,53.7925156 L518.224505,39.5253096 L552.154104,42.9902941 L541.570079,52.3939829 Z M553.358629,43.2410723 L558.86637,47.0703764 L543.707617,51.8164032 L553.358629,43.2410723 Z M573.268344,43.595025 L537.421378,95.0322002 L501.034844,77.0640411 L519.62748,60.390253 L573.268344,43.595025 Z M574.260103,43.8991183 L579.92384,69.5357587 L539.314556,94.0414289 L574.260103,43.8991183 Z M608.239561,98.6788509 L580.934851,69.5357587 L575.615687,45.4590771 L608.239561,98.6788509 Z M610.878162,85.0297045 L608.703106,97.5523236 L577.967967,47.4080384 L610.878162,85.0297045 Z M629.884484,63.850301 L611.4123,84.1396394 L601.445348,72.7465094 L629.884484,63.850301 Z M631.319054,63.7421899 L648.054549,96.2549907 L612.284594,84.6476133 L631.319054,63.7421899 Z M654.216387,72.7706987 C654.299815,72.8482029 654.409407,72.8960878 654.530847,72.9010243 L681.039287,83.9021899 L649.275859,96.4707192 L632.420898,63.7249119 L654.216387,72.7706987 Z M698.94722,71.5029853 L682.29071,83.3517614 L656.942365,72.8328996 L698.94722,71.5029853 Z M718.421035,58.8623819 L730.767419,73.8118231 L684.515132,82.981518 L718.421035,58.8623819 Z M739.611793,72.0583504 L731.867782,73.59412 L720.845389,60.2475859 L739.611793,72.0583504 Z M762.328447,49.1797765 L778.724306,71.0241371 L743.718533,73.4766294 L735.493205,68.2996394 L762.328447,49.1797765 Z M809.663819,63.6538252 L788.156627,70.8636983 L764.602729,49.7761152 L809.663819,63.6538252 Z M839.741406,78.1683538 L803.749798,79.1018608 L789.257484,71.535073 L810.799726,64.3133521 L839.741406,78.1683538 Z M825.922935,51.6959506 L844.280096,68.3228413 L812.374988,63.5175756 L825.922935,51.6959506 Z M869.204882,58.8485595 L845.923977,68.4783435 L827.512019,51.8040617 L869.204882,58.8485595 Z M876.08351,83.0269345 L842.839602,78.3756901 L846.209805,69.4286349 L870.631059,59.3264203 L876.08351,83.0269345 Z M913.829578,85.3910621 L889.294289,84.8756832 L877.164128,83.1784875 L871.72698,59.6828413 L913.829578,85.3910621 Z M919.524415,55.2295537 L936.991018,85.484857 L888.755214,68.8737635 C888.722139,68.8633966 888.689064,68.8653713 888.655495,68.861422 L873.629537,59.6867905 L919.524415,55.2295537 Z M938.826932,86.6903696 L963.232389,80.081278 L985.552143,90.2259472 L936.756037,91.1792005 L917.28074,85.97111 L915.351032,85.170397 L892.492698,71.2053096 L939.166568,87.2783161 L938.826932,86.6903696 Z M1000.40236,96.9747439 L984.541625,114.16786 L924.026082,88.7987823 L936.568941,92.1507192 L936.636572,92.1684909 L987.635379,91.172783 L1000.40236,96.9747439 Z M1009.12776,90.7531738 L1014.06286,110.410136 L1001.89419,96.8133178 L1002.05266,96.6415249 L1001.43756,96.3621145 C1001.43707,96.3616208 1001.43657,96.3616208 1001.43608,96.3611272 L989.922002,91.1278601 L1009.12776,90.7531738 Z M1044.77973,98.0780692 L1015.36414,111.532714 L1010.18172,90.8983092 L1044.77973,98.0780692 Z M1060.60739,91.9256112 L1065.36872,93.4283058 L1026.35741,107.59135 L1060.60739,91.9256112 Z M1014.986,112.728354 L1054.94662,123.201305 L989.387864,114.859475 L1014.986,112.728354 Z M985.892273,114.159468 L1001.22183,97.5419568 L1014.00066,111.819036 L985.892273,114.159468 Z M985.704189,115.386701 L1060.06486,124.847654 L1001.05103,137.605748 L985.704189,115.386701 Z M952.114721,127.226098 L1000.4226,138.705124 L1000.53417,138.732276 L1000.58452,138.721415 L1004.05098,145.330507 L987.914296,139.776362 L976.662845,142.430267 L952.114721,127.226098 Z M930.451039,123.450603 L930.703792,123.517246 C930.968886,123.584878 931.236942,123.430856 931.308522,123.167243 C931.3258,123.102574 931.328762,123.036917 931.319877,122.973729 L937.717189,119.464809 L975.306274,142.750157 L931.312472,153.126845 L895.960644,142.367079 L930.451039,123.450603 Z M880.186301,110.317329 L929.061392,123.08579 L894.885458,141.830472 L894.498924,141.715944 L880.186301,110.317329 Z M878.471334,110.022615 L878.83664,109.964857 L878.958574,109.996945 L893.242564,141.338296 L819.858841,119.280675 L878.471334,110.022615 Z M861.191334,111.752392 L817.679342,118.625097 L817.60085,118.600908 L799.173589,127.754312 L780.867768,119.218474 C790.466945,118.339269 835.637134,114.195505 861.191334,111.752392 L861.191334,111.752392 Z M738.327789,92.6828824 L793.811971,110.185522 L779.018526,118.32051 L738.327789,92.6828824 Z M776.965403,119.16269 L763.24517,124.552447 L728.867823,113.797617 L776.965403,119.16269 Z M699.887144,93.0235063 L652.195351,96.3774179 L682.333164,84.4526184 L699.887144,93.0235063 Z M720.7511,91.5563552 L701.853384,92.8852821 L683.886212,84.1124882 L738.886116,73.2085732 L720.7511,91.5563552 Z M750.260487,78.7602496 L759.111279,84.330685 C759.135962,84.346482 759.163606,84.3499376 759.189277,84.3603044 C759.21939,84.3731395 759.247035,84.3884429 759.278629,84.3943668 C759.317628,84.4022653 759.356133,84.3993034 759.395132,84.3978224 C759.419321,84.3963414 759.442523,84.3997971 759.466712,84.3953541 C759.507192,84.3879493 759.544217,84.3696839 759.581735,84.3519122 C759.600494,84.3430264 759.621227,84.3410518 759.639493,84.3296976 L759.678492,84.3060021 L792.034803,108.59002 L735.040027,90.6105067 L734.955612,90.5571916 L722.236517,91.4516997 L740.450518,73.0318437 L742.525362,74.2432801 C742.607309,74.4051999 742.774659,74.5142983 742.964224,74.5142983 C742.972122,74.5142983 742.980021,74.5138046 742.987919,74.5133109 L750.260487,78.7602496 Z M759.693795,83.1306027 L750.814371,77.9422585 L745.127926,74.3637326 L777.688612,72.0859952 L759.693795,83.1306027 Z M821.556037,94.9280384 L795.317134,109.357658 L803.445211,80.8336126 L821.556037,94.9280384 Z M868.398738,86.8552513 L845.758601,79.7594131 L875.094714,83.8765197 L868.398738,86.8552513 Z M877.447487,109.148347 C866.709441,110.350897 795.269743,116.907168 781.31206,118.185742 L794.878272,110.72509 L794.918752,110.756191 L794.936524,110.693496 L822.40661,95.5870716 L822.409078,95.5890463 C822.498924,95.658652 822.60506,95.6912335 822.710209,95.6912335 C822.857813,95.6912335 823.004429,95.6250833 823.10168,95.4987069 C823.180171,95.3955324 823.209791,95.2716243 823.198437,95.1516654 L829.655975,91.6007844 C830.521851,91.9063586 834.012012,93.1370477 838.767419,94.8233829 C859.870799,102.326489 873.644841,107.436835 877.447487,109.148347 L877.447487,109.148347 Z M840.216798,94.2917134 L868.13167,87.939324 L877.695303,108.200524 C872.593349,105.920318 855.200795,99.623712 840.216798,94.2917134 L840.216798,94.2917134 Z M878.125773,106.795574 L869.1723,87.8297319 C869.22216,87.7769105 869.275968,87.7265574 869.29917,87.6525087 C869.312993,87.6080795 869.311512,87.5636503 869.312993,87.5197148 L876.30072,84.4195434 L878.125773,106.795574 Z M879.37374,108.529794 L879.288337,108.341216 C879.275502,108.314559 879.253781,108.295306 879.237491,108.272104 L877.266808,84.1811066 L889.215303,85.8580624 L913.048612,86.349252 L879.37374,108.529794 Z M920.837052,88.5341817 L984.345643,115.15715 L999.141063,136.574003 L920.837052,88.5341817 Z M998.220391,137.16738 L949.461803,125.583205 L937.748289,118.321497 L930.319232,122.396149 L880.040178,109.272749 L914.781844,86.3857827 L915.014851,86.3897319 L915.790881,86.5975619 L998.220391,137.16738 Z M814.023312,64.7620871 L845.146466,69.4513432 L841.888324,78.1012163 L814.023312,64.7620871 Z M866.521358,87.3025053 L838.931313,93.5724539 C838.822215,93.5971368 838.735824,93.661806 838.668687,93.7412849 C833.393953,91.8708152 829.775441,90.5956969 829.775441,90.5956969 L829.567117,90.5231292 L822.500405,94.409204 L804.086472,80.0807844 L840.481892,79.1369105 L866.521358,87.3025053 Z M765.83095,52.2014563 L787.747384,71.8233692 L800.552376,78.5395845 L779.970298,71.0399342 L765.83095,52.2014563 Z M802.584272,80.306386 L794.363387,109.103918 L760.579417,83.7531052 L779.718533,71.9991114 L802.584272,80.306386 Z M614.285883,100.078371 L648.979664,97.5937909 L649.057662,97.6194611 L649.151951,97.5814494 L720.097991,92.5930367 C720.121193,92.6651107 720.155749,92.7347165 720.213013,92.7919808 C720.406034,92.985001 720.718025,92.985001 720.911046,92.7919808 L721.184038,92.5165197 L734.702859,91.5657347 L776.919493,118.165008 L723.954446,112.26086 L703.048036,105.720387 L695.752266,108.921758 L614.285883,100.078371 Z M609.645005,99.0890806 L609.481111,98.8210243 L611.793898,85.5258306 L646.482249,96.7832047 L609.704244,99.420325 C609.722016,99.309252 609.7077,99.1927487 609.645005,99.0890806 L609.645005,99.0890806 Z M539.195585,95.2657004 L580.394789,70.4036092 L607.570655,99.4094645 L539.195585,95.2657004 Z M529.983929,114.776047 L537.901214,96.1764991 L604.973027,100.237329 L593.789702,102.481497 L584.320357,99.7347851 L571.819458,106.223424 L529.983929,114.776047 Z M504.774796,109.856252 L528.873692,115.885296 L529.281947,116.424864 L529.513966,115.880359 L568.614631,107.887051 L524.204676,130.939393 L504.774796,109.856252 Z M440.955201,115.148265 L449.225944,114.429992 L449.460432,114.601292 L496.791361,102.649835 L522.71926,130.785865 L440.955201,115.148265 Z M427.085883,117.457103 L427.615084,117.304562 C427.876723,117.229033 428.028276,116.955546 427.952746,116.69292 C427.944847,116.667744 427.928063,116.648985 427.917203,116.625783 L428.570806,115.97218 L428.90748,115.940092 C429.178992,115.914422 429.377443,115.673023 429.351772,115.401017 C429.345848,115.342766 429.327089,115.289451 429.303394,115.239591 L430.406719,114.136266 L436.840562,115.366955 C436.924978,115.433599 437.028646,115.477534 437.143174,115.477534 C437.156997,115.477534 437.170819,115.476053 437.185629,115.475066 L437.33965,115.462231 L522.27941,131.70555 L483.567254,136.113914 L405.708522,138.833475 L427.085883,117.457103 Z M425.116188,118.030239 L404.260624,138.88531 L344.584793,141.465166 L425.116188,118.030239 Z M365.066164,121.939516 L367.563579,122.140435 L366.745094,121.754888 L427.029112,116.116821 L426.564086,116.582341 L342.597326,141.015443 L365.066164,121.939516 Z M345.410189,111.689698 C345.48325,111.634902 345.545944,111.563321 345.579513,111.470514 L345.58445,111.458666 L387.0058,94.5790223 L419.295468,105.219324 C419.354707,105.43604 419.547233,105.585124 419.766911,105.585124 C419.798012,105.585124 419.830099,105.581669 419.861694,105.576732 L420.190963,105.515025 L445.280137,113.782807 L437.392472,114.466523 L430.077943,113.06799 L428.125033,115.020901 L364.990141,120.92653 L345.410189,111.689698 Z M344.808913,110.708799 L344.475694,110.844555 C344.345369,110.897377 344.252067,111.000058 344.204676,111.121497 L313.002043,96.4021008 L357.424834,77.1672156 L344.808913,110.708799 Z M420.250202,104.494634 L386.970257,93.527531 L346.057374,110.200332 L358.589373,76.8754638 L431.971121,102.305262 L420.250202,104.494634 Z M432.850326,101.345097 L378.885129,69.8610792 L427.404786,76.2031018 L432.850326,101.345097 Z M433.666836,100.45207 L428.372849,76.008107 L444.680836,66.7653507 L433.666836,100.45207 Z M479.923072,61.3825053 L434.593925,100.7922 L445.919424,66.1542023 L479.923072,61.3825053 Z M480.135838,60.3552033 L446.863298,65.0237257 L462.23926,48.6170065 L480.135838,60.3552033 Z M481.555598,60.0486418 L481.506726,60.0051999 L481.461803,60.0446925 L463.511909,48.2818128 L514.114803,39.7543668 L481.555598,60.0486418 Z M483.282907,60.1350319 L516.470045,39.4492863 L536.230675,54.1568351 L519.296236,59.4592143 L483.282907,60.1350319 Z M482.780363,61.1322208 L518.062091,60.4702256 L500.191676,76.5378019 L482.780363,61.1322208 Z M435.917916,100.949677 L481.500802,61.3188234 L499.25422,77.0270168 L435.917916,100.949677 Z M448.256894,113.723568 L422.203606,105.138364 L433.639685,102.998357 L448.069304,113.586331 L448.256894,113.723568 Z M435.159657,102.89074 L484.379815,104.765652 L449.667768,113.530548 L435.159657,102.89074 Z M501.826178,78.5376099 L536.946479,95.8980761 L529.041042,114.47146 L501.826178,78.5376099 Z M527.92192,114.62943 L503.554967,108.532262 L497.11915,101.548978 L487.78013,103.907181 C487.777662,103.907181 487.7747,103.906688 487.772232,103.906688 L436.088228,101.938967 L500.023339,77.7916928 L527.92192,114.62943 Z M281.613795,87.5537772 L309.070058,96.0530847 L247.602743,99.7545314 L281.613795,87.5537772 Z M246.333055,99.160661 L255.765869,86.9209078 L278.938169,87.4639314 L246.333055,99.160661 Z M219.609873,110.233901 L244.066178,101.030637 L244.740021,101.224151 L244.994748,100.898337 L311.088132,96.9204415 L310.957806,97.287723 L311.795543,96.9243908 L362.240466,120.721168 L252.462311,111.873338 L246.214577,109.406036 L240.393857,111.257253 L219.609873,110.233901 Z M217.324731,111.11508 L220.476736,111.380668 L220.146973,111.249355 L237.700459,112.114243 L189.513034,127.442814 L217.324731,111.11508 Z M148.443661,104.32531 L169.629976,92.181326 L213.942187,109.839468 L148.443661,104.32531 Z M214.988248,110.919098 L214.80905,110.986729 L215.532259,111.022272 L185.469976,128.670541 L149.715818,105.427648 L214.988248,110.919098 Z M671.420857,156.474833 L655.102996,120.390418 L664.925307,123.194888 L671.420857,156.474833 Z M654.569846,119.21255 L652.269894,114.126393 L644.470593,117.183616 L595.841344,103.076355 L608.799863,100.476753 L693.941035,109.717041 L665.316284,122.279646 L654.569846,119.21255 Z M1066.93559,93.9224573 L1067.03037,93.9525704 L1093.24262,110.516767 C1093.30285,110.725584 1093.48747,110.877137 1093.70814,110.877137 C1093.72394,110.877137 1093.73924,110.876149 1093.75553,110.875162 L1093.80391,110.871707 L1114.12928,123.716191 L1084.83365,124.144686 L1077.19281,121.144727 L1062.51785,124.317466 L1062.54599,124.17233 L1016.68714,112.152749 L1066.93559,93.9224573 Z M1078.78881,97.662903 L1077.91504,98.258748 L1079.9336,97.9926664 L1169.19484,99.3497319 L1165.06441,104.401333 L1094.04827,109.858721 L1070.72293,95.117603 L1078.78881,97.662903 Z M1116.88587,72.8723922 L1151.22027,87.5883332 L1081.89737,96.7372945 L1116.88587,72.8723922 Z M1157.85009,70.1745519 L1152.75308,87.171686 L1131.51295,78.0676476 L1157.85009,70.1745519 Z M1158.91442,70.0595297 L1183.1856,77.7151759 L1153.80802,87.0882578 L1158.91442,70.0595297 Z M1163.41164,60.0076682 L1215.60313,89.9322208 L1215.60313,90.3528173 L1215.88204,90.0921659 L1223.436,94.4240137 L1185.02546,77.2644662 C1185.02152,77.2629853 1185.01855,77.2615043 1185.0146,77.259036 L1184.84676,77.1849873 L1184.81714,77.1948605 L1159.26541,69.1363894 L1163.41164,60.0076682 Z M1230.43409,76.4874487 L1256.22919,91.3465506 L1232.27297,98.3485938 L1216.63833,89.3852479 L1230.43409,76.4874487 Z M1230.10087,98.8782887 C1230.22231,98.8264546 1230.31611,98.7257484 1230.36399,98.597891 L1230.96724,98.8674282 L1230.10087,98.8782887 Z M1238.12725,119.012125 L1198.57193,100.274847 L1231.74525,99.8384532 L1263.78463,100.056156 L1238.12725,119.012125 Z M1238.18057,120.129766 L1238.23931,120.157411 L1238.25807,120.143589 L1260.66866,128.860599 L1215.0211,130.863369 L1238.18057,120.129766 Z M1229.63288,98.8847062 L1197.23165,99.3053027 C1197.08849,99.3072773 1196.9631,99.3719465 1196.87424,99.4706781 L1180.197,91.5711649 L1229.63288,98.8847062 Z M1153.17417,88.327339 L1154.91332,88.0972945 L1154.47792,87.9111855 L1184.789,78.2404278 L1228.34888,97.697459 L1177.13533,90.1207981 L1176.85098,89.9865231 L1169.98914,98.3787069 L1086.6434,97.1070442 L1152.37493,88.4324882 L1152.32557,88.5983572 L1153.17417,88.327339 Z M1210.66457,131.054908 L1160.66098,111.284405 C1160.71824,111.254785 1160.77107,111.213318 1160.815,111.159509 L1165.57189,105.341751 C1165.81181,105.298309 1165.98854,105.09196 1165.97866,104.844144 L1170.45219,99.3724402 L1170.53759,99.3744148 C1170.79973,99.3679973 1171.03718,99.1675722 1171.04557,98.8955667 C1171.04754,98.8239863 1171.03273,98.7558615 1171.00706,98.6936606 L1177.12694,91.20882 L1237.01998,119.580325 L1212.42989,130.977404 L1210.66457,131.054908 Z M1211.3394,132.569944 L1251.03739,155.864178 L1201.72542,137.026194 L1211.3394,132.569944 Z M1210.18869,132.01606 L1200.38563,136.559687 L1129.14882,125.718467 L1210.18869,132.01606 Z M1153.2961,109.435162 L1207.34818,130.804624 L1117.91465,123.854908 L1153.2961,109.435162 Z M1159.97628,111.013386 L1153.29067,108.370342 L1115.84376,123.633256 L1095.45075,110.744836 L1164.20347,105.454305 L1160.04934,110.535032 C1159.9358,110.674737 1159.91901,110.855416 1159.97628,111.013386 L1159.97628,111.013386 Z M1257.50234,92.0070648 C1257.59169,92.0070648 1257.67709,91.9789263 1257.75262,91.9300542 L1273.06342,87.4555393 L1289.19764,98.9256798 L1281.87472,99.30629 C1281.71428,99.3141885 1281.58248,99.403047 1281.49905,99.5269551 L1269.84872,95.5762112 L1265.11158,99.0757518 L1234.02743,98.8634789 L1257.49444,92.0050902 C1257.49691,92.0055838 1257.49938,92.0070648 1257.50234,92.0070648 L1257.50234,92.0070648 Z M1408.4017,124.578611 L1393.29281,126.897322 L1360.1812,114.621038 L1408.4017,124.578611 Z M1439.64679,108.080071 L1420.68243,101.598837 L1366.68169,105.741614 L1359.02703,100.784302 L1325.62811,76.1952033 L1290.65294,98.7494439 L1273.24459,86.3734412 L1257.54134,90.9634721 L1230.2934,75.2661392 L1216.59044,88.0770545 L1216.59044,49.5352101 C1216.59044,49.262711 1216.36978,49.0415523 1216.09678,49.0415523 C1215.82379,49.0415523 1215.60313,49.262711 1215.60313,49.5352101 L1215.60313,88.7918711 L1162.96192,58.61111 L1158.22922,69.0297593 L1130.83862,77.240277 C1130.65201,77.2960603 1130.52761,77.4530435 1130.4975,77.632735 L1116.77825,71.7522825 L1079.82648,96.9554913 L1067.44949,93.0491766 L1067.07283,92.8092588 L1066.89511,92.873928 L1060.54173,90.8691834 L1046.26959,97.3963277 C1046.24343,97.3864546 1046.22023,97.3696702 1046.19159,97.3632527 L1009.91465,89.8349702 L1009.89342,89.7505547 L987.838272,90.1810243 L963.768502,79.241566 L963.768502,44.3597011 C963.768502,44.0872019 963.54685,43.8660432 963.274844,43.8660432 C963.001851,43.8660432 962.781186,44.0872019 962.781186,44.3597011 L962.781186,79.1818334 L938.31649,85.8057347 L920.286623,54.5769379 L920.286623,30.900613 C920.286623,30.6276202 920.065958,30.4069551 919.792965,30.4069551 C919.520466,30.4069551 919.299308,30.6276202 919.299308,30.900613 L919.299308,54.2605033 L872.354913,58.8179527 C872.319369,58.8214083 872.288762,58.8372053 872.256181,58.8475722 L871.414988,58.334168 L871.331066,57.9688612 L870.923305,58.1376921 L826.152485,50.572879 L825.934289,50.3749222 L811.317573,63.1305478 L763.044251,48.2635475 C762.994391,48.2482441 762.944532,48.2482441 762.89566,48.2482441 L762.798409,48.1608666 L762.54072,47.8162935 L734.589318,67.7314391 L719.002564,57.9209763 L719.002564,36.1249942 C719.002564,35.8520014 718.781406,35.6313363 718.508906,35.6313363 C718.235914,35.6313363 718.015249,35.8520014 718.015249,36.1249942 L718.015249,57.9392417 L700.353651,70.5028344 C700.301817,70.4865437 700.248008,70.4732149 700.188769,70.4751896 L654.731272,71.9146959 L632.108906,62.5268043 L632.108906,49.3125704 C632.108906,49.0395776 631.888241,48.8189126 631.615249,48.8189126 C631.342256,48.8189126 631.121591,49.0395776 631.121591,49.3125704 L631.121591,62.427579 L600.734481,71.9334549 L574.993185,42.5079904 L574.993185,25.0517545 C574.993185,24.7792554 574.772026,24.5580967 574.499527,24.5580967 C574.22604,24.5580967 574.005869,24.7792554 574.005869,25.0517545 L574.005869,42.3302736 L560.023504,46.7080315 C559.99339,46.6700199 559.964265,46.6315146 559.922304,46.6023888 L553.284086,41.9857004 L553.177456,42.08147 L502.680699,31.945193 L482.392348,26.5361838 L482.392348,0.879797052 C482.392348,0.606310593 482.171683,0.386139184 481.89869,0.386139184 C481.625698,0.386139184 481.405033,0.606310593 481.405033,0.879797052 L481.405033,26.6408392 L432.570422,56.8808392 L416.693397,46.7959026 L420.771999,45.0419362 C421.022283,44.9348125 421.137799,44.6430607 421.030182,44.3932698 C420.921577,44.1424916 420.631306,44.0245074 420.381515,44.1350867 L415.589085,46.1961083 L391.212753,41.0275105 L376.235173,68.5499239 L322.388948,66.5511032 L297.369379,53.5363072 L297.369379,43.6690737 C297.369379,43.3965746 297.148714,43.1754158 296.875722,43.1754158 C296.602729,43.1754158 296.382064,43.3965746 296.382064,43.6690737 L296.382064,53.5066877 L274.237065,71.0063654 L241.138786,70.5546685 C240.820377,70.5309729 240.642167,70.7699033 240.638711,71.0414152 C240.634268,71.3139143 240.852465,71.538035 241.125458,71.5419842 L267.353994,71.9013672 L233.000343,76.3665026 L233.476723,81.0947576 L194.764566,72.6300062 L194.67324,72.6097662 L165.316394,77.3335783 L165.103627,77.3681344 L164.922948,77.6337223 L133.420665,90.9269414 L119.480261,78.0098896 L74.2118341,109.419365 L0.456386699,114.956232 C0.184381214,114.976965 -0.0190058279,115.212934 -0.000154475288,115.484939 C0.0204868015,115.744603 0.237202605,115.94256 0.492917381,115.94256 C0.505752485,115.94256 0.518093932,115.94256 0.530435379,115.941079 L31.1470963,113.642608 C31.2236133,113.759111 31.3430785,113.845502 31.4921632,113.864261 L73.2052657,119.220448 L29.5367844,131.938556 L17.2940692,125.360071 C17.0526706,125.232214 16.7545012,125.32206 16.6256565,125.561484 C16.4963181,125.801401 16.5866575,126.100558 16.8265752,126.229896 L29.4252177,132.999427 L75.6572643,119.535402 L82.9372369,120.470884 L151.639109,135.178926 L69.014604,129.460394 L68.7899897,129.279715 L40.0418238,158.028374 L103.847103,158.730356 L103.934974,158.800949 L104.158108,158.715052 L155.223065,149.050219 L224.986301,130.691576 L233.299006,134.392529 C233.34146,134.623561 233.535962,134.799303 233.775879,134.799303 L233.795132,134.799303 L234.184134,134.786468 L283.877216,156.913201 L340.424244,142.666729 L381.196435,169.68808 L381.393898,169.817912 L381.5494,169.768546 L539.519424,166.324295 L539.661598,166.321333 L573.593665,144.000592 L573.759534,144.009972 C573.769407,144.011453 573.77928,144.011453 573.789153,144.011453 C574.047336,144.011453 574.264052,143.81004 574.280836,143.548402 L592.029318,131.8729 L600.472842,134.930616 C600.473829,134.934072 600.47531,134.937034 600.476298,134.94049 C600.57108,135.196698 600.857401,135.328505 601.110154,135.232735 L601.207899,135.196698 L672.002386,160.805694 L671.845403,161.085598 L672.314378,161.052029 L672.325732,161.110774 L672.513322,161.078193 C672.578485,161.108799 672.644141,161.140887 672.717203,161.140887 C672.7641,161.140887 672.810504,161.128546 672.856908,161.114723 L673.648735,161.401539 L673.453246,160.969588 L744.112472,155.847888 L873.990401,166.247778 C874.064943,166.292207 874.146891,166.324295 874.238711,166.324295 L874.258951,166.324295 L874.702256,166.306523 L874.888858,166.321827 C874.902187,166.322814 874.916503,166.324295 874.931313,166.324295 C874.99302,166.324295 875.052259,166.311953 875.107055,166.290726 L1045.2882,159.545879 L1044.66422,159.330644 L1133.99803,144.948909 L1135.10382,144.929163 L1255.43984,158.603486 L1256.19711,158.893757 L1256.81763,159.261038 L1256.96573,159.171686 C1256.99387,159.176623 1257.0225,159.186496 1257.05015,159.186496 C1257.25255,159.186496 1257.44359,159.060119 1257.51517,158.858707 C1257.51665,158.852783 1257.51567,158.846365 1257.51715,158.839948 L1301.74346,132.270788 L1308.15164,128.428649 L1317.57556,132.902176 C1317.58198,132.916492 1317.58248,132.932783 1317.59087,132.946112 C1317.68219,133.102108 1317.84806,133.189979 1318.01689,133.189979 C1318.05244,133.189979 1318.08699,133.169739 1318.12204,133.16184 L1351.47752,148.997397 L1324.22711,148.997397 C1323.95461,148.997397 1323.73345,149.217569 1323.73345,149.491055 C1323.73345,149.763061 1323.95461,149.984713 1324.22711,149.984713 L1355.86071,149.984713 L1319.18588,132.573894 L1352.34734,112.77377 L1352.79657,112.939639 C1352.86618,113.052193 1352.97774,113.139077 1353.11794,113.167216 L1353.77204,113.298529 L1393.18914,127.911295 L1413.97855,124.721278 L1354.04207,112.346756 L1352.24713,111.684761 L1352.11977,111.760291 L1276.33341,126.18991 L1321.53075,114.09233 L1323.93338,113.918563 L1323.4965,113.769972 L1366.61406,106.736828 L1420.55506,102.599482 L1439.3264,109.013578 C1439.37972,109.032337 1439.43353,109.04073 1439.48684,109.04073 C1439.6922,109.04073 1439.88374,108.911885 1439.95335,108.707017 C1440.04221,108.44834 1439.90398,108.168436 1439.64679,108.080071 L1439.64679,108.080071 Z" id="Fill-43" fill="#787B86" mask="url(#mask-71)"></path>
                            </g>
                            <g id="编组">
                                <mask id="mask-73" fill="white">
                                    <use xlink:href="#path-72"></use>
                                </mask>
                                <g id="Clip-46"></g>
                                <path d="M1292.10331,98.987387 L1325.59158,77.3942983 L1358.46623,101.595875 L1364.60832,105.574758 L1292.10331,98.987387 Z M1321.50952,113.096623 L1283.50873,100.208697 L1290.59469,99.8369722 L1362.63419,106.386331 L1321.50952,113.096623 Z M1239.79631,119.007682 L1265.43345,100.066029 L1265.56081,100.066029 C1265.81949,100.066029 1266.02485,99.8656044 1266.04657,99.6133452 L1270.02051,96.6770682 L1318.99286,113.286187 L1239.79631,119.007682 Z M1265.16786,128.171453 L1263.06241,128.732248 L1240.47805,119.947606 L1316.32069,114.468004 L1265.16786,128.171453 Z M1349.64802,113.235834 L1318.11365,132.064932 L1308.09733,127.31002 L1301.48084,131.28594 L1266.82655,129.005735 L1349.64802,113.235834 Z M1257.01757,158.004679 C1256.94352,157.868923 1256.80974,157.768217 1256.64535,157.74847 L1256.07369,157.681827 L1212.67376,132.209574 L1213.80769,132.297445 L1212.90726,131.941518 L1263.03131,129.745728 L1299.99641,132.177486 L1257.01757,158.004679 Z M1139.51613,144.436986 L1200.39451,137.574154 L1251.73938,157.189156 L1139.51613,144.436986 Z M1136.88494,143.485214 L1134.90438,143.803623 L1087.25899,125.096952 L1115.76378,124.680304 L1196.69702,136.997068 L1137.36082,143.68712 C1137.25469,143.537048 1137.07351,143.447696 1136.88494,143.485214 L1136.88494,143.485214 Z M1006.9532,146.329177 L1005.11334,145.695814 C1005.18442,145.558083 1005.19775,145.392214 1005.11975,145.243129 L1002.18989,139.658378 L1002.69392,139.984192 L1001.66069,138.488902 L1077.10988,122.172522 L1083.57087,124.710911 C1083.60296,124.953791 1083.8024,125.142862 1084.05318,125.142862 L1084.0596,125.142862 L1084.64902,125.134963 L1132.6301,143.986276 L1006.9532,146.329177 Z M1042.68909,158.64989 L1009.68461,147.271569 L1126.9787,145.079728 L1042.68909,158.64989 Z M878.729023,165.157288 L931.347521,154.130945 L934.546918,154.111199 L933.189359,153.698008 L976.49747,143.483239 C976.715667,143.602704 976.98866,143.540503 977.134289,143.332673 L987.861968,140.802677 L1005.58231,146.907744 C1005.6144,147.15013 1005.81532,147.338707 1006.06461,147.338707 L1006.07745,147.338707 L1006.79325,147.325378 L1040.00063,158.76738 L878.729023,165.157288 Z M874.137511,165.111377 C874.039273,165.131617 873.960782,165.186413 873.895125,165.252564 L749.147288,155.256485 L926.389715,154.161552 L874.137511,165.111377 Z M767.370175,144.653208 L768.501145,144.458213 C768.769201,144.412797 768.948399,144.159057 768.904463,143.891494 L817.689709,119.659804 L893.786575,142.532948 L893.894686,142.769903 L928.044457,153.164363 L747.997065,154.276081 L767.370175,144.653208 Z M744.114446,154.863534 L682.612575,159.329656 L763.964923,145.242636 L744.534056,154.894141 L744.114446,154.863534 Z M763.306383,125.590116 C763.321687,125.591597 763.33699,125.597521 763.352787,125.597521 C763.4841,125.597521 763.595667,125.531864 763.687487,125.440044 L778.985944,119.430747 L798.041138,128.317082 L767.061145,143.704891 L677.91542,159.135155 L763.306383,125.590116 Z M703.312636,106.837041 L722.932081,112.975183 C723.010079,113.080826 723.128063,113.156355 723.268756,113.172646 L723.728845,113.22448 L761.779993,125.128052 L673.746479,159.709773 L703.312636,106.837041 Z M672.943792,159.121827 L665.912129,123.09665 L695.909249,109.931288 L696.120041,109.955478 C696.1388,109.957946 696.157559,109.958439 696.176318,109.958439 C696.392047,109.958439 696.574206,109.813798 696.638876,109.611398 L701.927926,107.289725 L672.943792,159.121827 Z M602.606431,134.653181 L644.525389,118.222272 C644.732725,118.2746 644.940555,118.187716 645.054097,118.014936 L651.756983,115.388182 L653.600795,119.464315 C653.545506,119.686955 653.652629,119.906139 653.847624,120.010795 L671.78567,159.677192 L602.606431,134.653181 Z M601.199506,134.143726 L591.899979,130.775992 L574.720686,142.076808 L536.209448,130.161388 L536.110223,130.131275 L525.597779,131.328395 L584.424025,100.792694 L593.198793,103.337994 C593.290614,103.449067 593.424395,103.521635 593.573973,103.521635 C593.606061,103.521635 593.638642,103.519166 593.671224,103.511761 L593.747247,103.496952 L642.969873,117.772056 L601.199506,134.143726 Z M573.333507,142.989581 L487.367432,136.675203 L536.015934,131.135868 L573.65241,142.779776 L573.333507,142.989581 Z M539.479931,165.257994 L486.589921,137.60871 L571.97348,143.883595 L539.479931,165.257994 Z M384.863325,168.708169 L482.932904,137.34016 L484.110771,137.426551 L537.578361,165.378446 L384.863325,168.708169 Z M381.544463,168.733345 L342.054796,142.563061 L404.494618,139.864727 C404.495605,139.864233 404.496099,139.863739 404.497086,139.863739 L480.054385,137.224151 L381.544463,168.733345 Z M340.392156,141.592529 L302.254124,131.536225 L255.597532,113.110939 L363.672568,121.827456 L340.392156,141.592529 Z M283.967062,155.871583 L236.445581,134.709951 L302.043826,132.501326 L338.537977,142.124199 L283.967062,155.871583 Z M225.070716,129.64749 L207.480699,134.277013 L165.345519,135.466235 L184.22892,129.72302 C184.279767,129.707716 184.321728,129.679578 184.363195,129.650945 L185.291272,129.731905 L185.444306,129.831131 L185.661022,129.704261 L240.521714,112.252468 L240.655989,112.257898 C240.800631,112.270239 240.938855,112.199153 241.037587,112.088573 L246.179033,110.453085 L250.333164,112.094003 C250.324278,112.125104 250.308975,112.153736 250.306013,112.187798 C250.282811,112.45931 250.485211,112.698241 250.756229,112.720949 L252.220418,112.838933 L299.70685,131.592008 L234.376661,133.789279 L225.070716,129.64749 Z M155.005362,148.08808 L109.345958,156.729067 L162.049366,136.54784 L203.275228,135.384288 L155.005362,148.08808 Z M104.111704,157.676396 L70.3617964,130.543479 L158.472815,136.642128 L158.497991,136.648052 L159.07409,136.631761 L104.111704,157.676396 Z M42.3990401,157.065742 L68.8610764,130.604692 L102.602098,157.729218 L42.3990401,157.065742 Z M93.4067329,121.702067 L181.806047,129.427318 L162.773068,135.216444 C162.766651,135.217925 162.762701,135.222862 162.756284,135.224836 C162.751347,135.226811 162.745917,135.22533 162.740487,135.227798 L161.861282,135.564473 L158.58833,135.656787 L93.4067329,121.702067 Z M147.102887,104.992735 C147.183846,105.124048 147.306274,105.227716 147.471649,105.23907 L147.629619,105.251905 L183.529901,128.586619 L93.3341652,120.704384 L147.102887,104.992735 Z M83.1253205,119.500846 L76.853891,118.157603 L75.5738361,118.530808 L35.1684333,113.340983 L142.617017,105.27412 L90.6353377,120.46496 L83.1253205,119.500846 Z M119.391402,79.2726664 L132.55084,91.4665094 C132.509866,91.5785698 132.505917,91.7059335 132.55627,91.824905 C132.661419,92.0766706 132.951196,92.1946548 133.201975,92.089012 L133.216784,92.0835818 L146.101748,104.022204 L76.1533905,109.273242 L119.391402,79.2726664 Z M163.898608,79.1378978 L147.182859,103.678124 L134.214961,91.6619979 L163.898608,79.1378978 Z M165.539527,78.4907124 L242.510168,100.583383 L217.217607,110.081854 L169.77363,91.1752513 L169.552472,91.0878738 L148.884004,102.935169 L165.539527,78.4907124 Z M194.570065,73.6271951 L240.529613,98.9878807 L167.455413,78.0138389 L194.570065,73.6271951 Z M254.660569,86.7372671 L244.610682,99.7792143 L244.245375,99.9110209 L197.868193,74.3193034 L254.660569,86.7372671 Z M272.727953,72.1990429 L255.404018,85.8886692 L234.491683,81.31641 L234.078985,77.222999 L272.727953,72.1990429 Z M274.607309,71.9719602 C274.724799,71.9413534 274.814152,71.8673048 274.870922,71.7641303 L295.506315,55.4566363 L281.288474,86.532399 L256.907206,85.9592623 L274.607309,71.9719602 Z M296.727624,55.1505684 L311.011615,95.6216277 L283.160919,86.9989057 L284.266219,86.6024985 L282.362674,86.5575756 L296.727624,55.1505684 Z M321.650435,67.2797422 L311.806404,94.9053301 L297.649777,54.7946411 L321.650435,67.2797422 Z M322.573576,67.6302393 L356.775674,76.3724265 L312.651052,95.4784669 L322.573576,67.6302393 Z M374.148975,69.460229 L358.285773,75.7257347 L358.003894,75.6284841 L357.990566,75.6645211 L326.852108,67.704288 L374.148975,69.460229 Z M376.481015,69.6019088 L428.951909,100.213633 L359.716887,76.2218608 L376.481015,69.6019088 Z M391.5983,42.3845759 L426.361687,75.0706507 L377.299993,68.658035 L391.5983,42.3845759 Z M415.284498,47.1409695 L426.462393,73.8098485 L393.093589,42.4354227 L415.284498,47.1409695 Z M444.587535,65.6837463 L428.054439,75.0553473 L416.703764,47.9717957 L444.587535,65.6837463 Z M478.990552,29.2972122 L461.913939,47.5196051 C461.8236,47.5674899 461.750045,47.6464751 461.700679,47.7466877 L445.465259,65.0716106 L433.493562,57.4673048 L478.990552,29.2972122 Z M482.056661,27.4691971 L502.435845,32.9023956 C502.441769,32.9043702 502.447199,32.9023956 502.453123,32.9038766 C502.457566,32.9048639 502.461515,32.9083195 502.466452,32.9093068 L543.215934,41.0852684 L516.679849,38.3755804 L516.518917,38.2556215 L516.316517,38.3815043 L463.48772,47.2846239 L482.056661,27.4691971 Z M541.570079,52.3939829 C541.53108,52.4290326 541.505903,52.4709935 541.480233,52.5134481 L537.395214,53.7925156 L518.224505,39.5253096 L552.154104,42.9902941 L541.570079,52.3939829 Z M553.358629,43.2410723 L558.86637,47.0703764 L543.707617,51.8164032 L553.358629,43.2410723 Z M573.268344,43.595025 L537.421378,95.0322002 L501.034844,77.0640411 L519.62748,60.390253 L573.268344,43.595025 Z M574.260103,43.8991183 L579.92384,69.5357587 L539.314556,94.0414289 L574.260103,43.8991183 Z M608.239561,98.6788509 L580.934851,69.5357587 L575.615687,45.4590771 L608.239561,98.6788509 Z M610.878162,85.0297045 L608.703106,97.5523236 L577.967967,47.4080384 L610.878162,85.0297045 Z M629.884484,63.850301 L611.4123,84.1396394 L601.445348,72.7465094 L629.884484,63.850301 Z M631.319054,63.7421899 L648.054549,96.2549907 L612.284594,84.6476133 L631.319054,63.7421899 Z M654.216387,72.7706987 C654.299815,72.8482029 654.409407,72.8960878 654.530847,72.9010243 L681.039287,83.9021899 L649.275859,96.4707192 L632.420898,63.7249119 L654.216387,72.7706987 Z M698.94722,71.5029853 L682.29071,83.3517614 L656.942365,72.8328996 L698.94722,71.5029853 Z M718.421035,58.8623819 L730.767419,73.8118231 L684.515132,82.981518 L718.421035,58.8623819 Z M739.611793,72.0583504 L731.867782,73.59412 L720.845389,60.2475859 L739.611793,72.0583504 Z M762.328447,49.1797765 L778.724306,71.0241371 L743.718533,73.4766294 L735.493205,68.2996394 L762.328447,49.1797765 Z M809.663819,63.6538252 L788.156627,70.8636983 L764.602729,49.7761152 L809.663819,63.6538252 Z M839.741406,78.1683538 L803.749798,79.1018608 L789.257484,71.535073 L810.799726,64.3133521 L839.741406,78.1683538 Z M825.922935,51.6959506 L844.280096,68.3228413 L812.374988,63.5175756 L825.922935,51.6959506 Z M869.204882,58.8485595 L845.923977,68.4783435 L827.512019,51.8040617 L869.204882,58.8485595 Z M876.08351,83.0269345 L842.839602,78.3756901 L846.209805,69.4286349 L870.631059,59.3264203 L876.08351,83.0269345 Z M913.829578,85.3910621 L889.294289,84.8756832 L877.164128,83.1784875 L871.72698,59.6828413 L913.829578,85.3910621 Z M919.524415,55.2295537 L936.991018,85.484857 L888.755214,68.8737635 C888.722139,68.8633966 888.689064,68.8653713 888.655495,68.861422 L873.629537,59.6867905 L919.524415,55.2295537 Z M938.826932,86.6903696 L963.232389,80.081278 L985.552143,90.2259472 L936.756037,91.1792005 L917.28074,85.97111 L915.351032,85.170397 L892.492698,71.2053096 L939.166568,87.2783161 L938.826932,86.6903696 Z M1000.40236,96.9747439 L984.541625,114.16786 L924.026082,88.7987823 L936.568941,92.1507192 L936.636572,92.1684909 L987.635379,91.172783 L1000.40236,96.9747439 Z M1009.12776,90.7531738 L1014.06286,110.410136 L1001.89419,96.8133178 L1002.05266,96.6415249 L1001.43756,96.3621145 C1001.43707,96.3616208 1001.43657,96.3616208 1001.43608,96.3611272 L989.922002,91.1278601 L1009.12776,90.7531738 Z M1044.77973,98.0780692 L1015.36414,111.532714 L1010.18172,90.8983092 L1044.77973,98.0780692 Z M1060.60739,91.9256112 L1065.36872,93.4283058 L1026.35741,107.59135 L1060.60739,91.9256112 Z M1014.986,112.728354 L1054.94662,123.201305 L989.387864,114.859475 L1014.986,112.728354 Z M985.892273,114.159468 L1001.22183,97.5419568 L1014.00066,111.819036 L985.892273,114.159468 Z M985.704189,115.386701 L1060.06486,124.847654 L1001.05103,137.605748 L985.704189,115.386701 Z M952.114721,127.226098 L1000.4226,138.705124 L1000.53417,138.732276 L1000.58452,138.721415 L1004.05098,145.330507 L987.914296,139.776362 L976.662845,142.430267 L952.114721,127.226098 Z M930.451039,123.450603 L930.703792,123.517246 C930.968886,123.584878 931.236942,123.430856 931.308522,123.167243 C931.3258,123.102574 931.328762,123.036917 931.319877,122.973729 L937.717189,119.464809 L975.306274,142.750157 L931.312472,153.126845 L895.960644,142.367079 L930.451039,123.450603 Z M880.186301,110.317329 L929.061392,123.08579 L894.885458,141.830472 L894.498924,141.715944 L880.186301,110.317329 Z M878.471334,110.022615 L878.83664,109.964857 L878.958574,109.996945 L893.242564,141.338296 L819.858841,119.280675 L878.471334,110.022615 Z M861.191334,111.752392 L817.679342,118.625097 L817.60085,118.600908 L799.173589,127.754312 L780.867768,119.218474 C790.466945,118.339269 835.637134,114.195505 861.191334,111.752392 L861.191334,111.752392 Z M738.327789,92.6828824 L793.811971,110.185522 L779.018526,118.32051 L738.327789,92.6828824 Z M776.965403,119.16269 L763.24517,124.552447 L728.867823,113.797617 L776.965403,119.16269 Z M699.887144,93.0235063 L652.195351,96.3774179 L682.333164,84.4526184 L699.887144,93.0235063 Z M720.7511,91.5563552 L701.853384,92.8852821 L683.886212,84.1124882 L738.886116,73.2085732 L720.7511,91.5563552 Z M750.260487,78.7602496 L759.111279,84.330685 C759.135962,84.346482 759.163606,84.3499376 759.189277,84.3603044 C759.21939,84.3731395 759.247035,84.3884429 759.278629,84.3943668 C759.317628,84.4022653 759.356133,84.3993034 759.395132,84.3978224 C759.419321,84.3963414 759.442523,84.3997971 759.466712,84.3953541 C759.507192,84.3879493 759.544217,84.3696839 759.581735,84.3519122 C759.600494,84.3430264 759.621227,84.3410518 759.639493,84.3296976 L759.678492,84.3060021 L792.034803,108.59002 L735.040027,90.6105067 L734.955612,90.5571916 L722.236517,91.4516997 L740.450518,73.0318437 L742.525362,74.2432801 C742.607309,74.4051999 742.774659,74.5142983 742.964224,74.5142983 C742.972122,74.5142983 742.980021,74.5138046 742.987919,74.5133109 L750.260487,78.7602496 Z M759.693795,83.1306027 L750.814371,77.9422585 L745.127926,74.3637326 L777.688612,72.0859952 L759.693795,83.1306027 Z M821.556037,94.9280384 L795.317134,109.357658 L803.445211,80.8336126 L821.556037,94.9280384 Z M868.398738,86.8552513 L845.758601,79.7594131 L875.094714,83.8765197 L868.398738,86.8552513 Z M877.447487,109.148347 C866.709441,110.350897 795.269743,116.907168 781.31206,118.185742 L794.878272,110.72509 L794.918752,110.756191 L794.936524,110.693496 L822.40661,95.5870716 L822.409078,95.5890463 C822.498924,95.658652 822.60506,95.6912335 822.710209,95.6912335 C822.857813,95.6912335 823.004429,95.6250833 823.10168,95.4987069 C823.180171,95.3955324 823.209791,95.2716243 823.198437,95.1516654 L829.655975,91.6007844 C830.521851,91.9063586 834.012012,93.1370477 838.767419,94.8233829 C859.870799,102.326489 873.644841,107.436835 877.447487,109.148347 L877.447487,109.148347 Z M840.216798,94.2917134 L868.13167,87.939324 L877.695303,108.200524 C872.593349,105.920318 855.200795,99.623712 840.216798,94.2917134 L840.216798,94.2917134 Z M878.125773,106.795574 L869.1723,87.8297319 C869.22216,87.7769105 869.275968,87.7265574 869.29917,87.6525087 C869.312993,87.6080795 869.311512,87.5636503 869.312993,87.5197148 L876.30072,84.4195434 L878.125773,106.795574 Z M879.37374,108.529794 L879.288337,108.341216 C879.275502,108.314559 879.253781,108.295306 879.237491,108.272104 L877.266808,84.1811066 L889.215303,85.8580624 L913.048612,86.349252 L879.37374,108.529794 Z M920.837052,88.5341817 L984.345643,115.15715 L999.141063,136.574003 L920.837052,88.5341817 Z M998.220391,137.16738 L949.461803,125.583205 L937.748289,118.321497 L930.319232,122.396149 L880.040178,109.272749 L914.781844,86.3857827 L915.014851,86.3897319 L915.790881,86.5975619 L998.220391,137.16738 Z M814.023312,64.7620871 L845.146466,69.4513432 L841.888324,78.1012163 L814.023312,64.7620871 Z M866.521358,87.3025053 L838.931313,93.5724539 C838.822215,93.5971368 838.735824,93.661806 838.668687,93.7412849 C833.393953,91.8708152 829.775441,90.5956969 829.775441,90.5956969 L829.567117,90.5231292 L822.500405,94.409204 L804.086472,80.0807844 L840.481892,79.1369105 L866.521358,87.3025053 Z M765.83095,52.2014563 L787.747384,71.8233692 L800.552376,78.5395845 L779.970298,71.0399342 L765.83095,52.2014563 Z M802.584272,80.306386 L794.363387,109.103918 L760.579417,83.7531052 L779.718533,71.9991114 L802.584272,80.306386 Z M614.285883,100.078371 L648.979664,97.5937909 L649.057662,97.6194611 L649.151951,97.5814494 L720.097991,92.5930367 C720.121193,92.6651107 720.155749,92.7347165 720.213013,92.7919808 C720.406034,92.985001 720.718025,92.985001 720.911046,92.7919808 L721.184038,92.5165197 L734.702859,91.5657347 L776.919493,118.165008 L723.954446,112.26086 L703.048036,105.720387 L695.752266,108.921758 L614.285883,100.078371 Z M609.645005,99.0890806 L609.481111,98.8210243 L611.793898,85.5258306 L646.482249,96.7832047 L609.704244,99.420325 C609.722016,99.309252 609.7077,99.1927487 609.645005,99.0890806 L609.645005,99.0890806 Z M539.195585,95.2657004 L580.394789,70.4036092 L607.570655,99.4094645 L539.195585,95.2657004 Z M529.983929,114.776047 L537.901214,96.1764991 L604.973027,100.237329 L593.789702,102.481497 L584.320357,99.7347851 L571.819458,106.223424 L529.983929,114.776047 Z M504.774796,109.856252 L528.873692,115.885296 L529.281947,116.424864 L529.513966,115.880359 L568.614631,107.887051 L524.204676,130.939393 L504.774796,109.856252 Z M440.955201,115.148265 L449.225944,114.429992 L449.460432,114.601292 L496.791361,102.649835 L522.71926,130.785865 L440.955201,115.148265 Z M427.085883,117.457103 L427.615084,117.304562 C427.876723,117.229033 428.028276,116.955546 427.952746,116.69292 C427.944847,116.667744 427.928063,116.648985 427.917203,116.625783 L428.570806,115.97218 L428.90748,115.940092 C429.178992,115.914422 429.377443,115.673023 429.351772,115.401017 C429.345848,115.342766 429.327089,115.289451 429.303394,115.239591 L430.406719,114.136266 L436.840562,115.366955 C436.924978,115.433599 437.028646,115.477534 437.143174,115.477534 C437.156997,115.477534 437.170819,115.476053 437.185629,115.475066 L437.33965,115.462231 L522.27941,131.70555 L483.567254,136.113914 L405.708522,138.833475 L427.085883,117.457103 Z M425.116188,118.030239 L404.260624,138.88531 L344.584793,141.465166 L425.116188,118.030239 Z M365.066164,121.939516 L367.563579,122.140435 L366.745094,121.754888 L427.029112,116.116821 L426.564086,116.582341 L342.597326,141.015443 L365.066164,121.939516 Z M345.410189,111.689698 C345.48325,111.634902 345.545944,111.563321 345.579513,111.470514 L345.58445,111.458666 L387.0058,94.5790223 L419.295468,105.219324 C419.354707,105.43604 419.547233,105.585124 419.766911,105.585124 C419.798012,105.585124 419.830099,105.581669 419.861694,105.576732 L420.190963,105.515025 L445.280137,113.782807 L437.392472,114.466523 L430.077943,113.06799 L428.125033,115.020901 L364.990141,120.92653 L345.410189,111.689698 Z M344.808913,110.708799 L344.475694,110.844555 C344.345369,110.897377 344.252067,111.000058 344.204676,111.121497 L313.002043,96.4021008 L357.424834,77.1672156 L344.808913,110.708799 Z M420.250202,104.494634 L386.970257,93.527531 L346.057374,110.200332 L358.589373,76.8754638 L431.971121,102.305262 L420.250202,104.494634 Z M432.850326,101.345097 L378.885129,69.8610792 L427.404786,76.2031018 L432.850326,101.345097 Z M433.666836,100.45207 L428.372849,76.008107 L444.680836,66.7653507 L433.666836,100.45207 Z M479.923072,61.3825053 L434.593925,100.7922 L445.919424,66.1542023 L479.923072,61.3825053 Z M480.135838,60.3552033 L446.863298,65.0237257 L462.23926,48.6170065 L480.135838,60.3552033 Z M481.555598,60.0486418 L481.506726,60.0051999 L481.461803,60.0446925 L463.511909,48.2818128 L514.114803,39.7543668 L481.555598,60.0486418 Z M483.282907,60.1350319 L516.470045,39.4492863 L536.230675,54.1568351 L519.296236,59.4592143 L483.282907,60.1350319 Z M482.780363,61.1322208 L518.062091,60.4702256 L500.191676,76.5378019 L482.780363,61.1322208 Z M435.917916,100.949677 L481.500802,61.3188234 L499.25422,77.0270168 L435.917916,100.949677 Z M448.256894,113.723568 L422.203606,105.138364 L433.639685,102.998357 L448.069304,113.586331 L448.256894,113.723568 Z M435.159657,102.89074 L484.379815,104.765652 L449.667768,113.530548 L435.159657,102.89074 Z M501.826178,78.5376099 L536.946479,95.8980761 L529.041042,114.47146 L501.826178,78.5376099 Z M527.92192,114.62943 L503.554967,108.532262 L497.11915,101.548978 L487.78013,103.907181 C487.777662,103.907181 487.7747,103.906688 487.772232,103.906688 L436.088228,101.938967 L500.023339,77.7916928 L527.92192,114.62943 Z M281.613795,87.5537772 L309.070058,96.0530847 L247.602743,99.7545314 L281.613795,87.5537772 Z M246.333055,99.160661 L255.765869,86.9209078 L278.938169,87.4639314 L246.333055,99.160661 Z M219.609873,110.233901 L244.066178,101.030637 L244.740021,101.224151 L244.994748,100.898337 L311.088132,96.9204415 L310.957806,97.287723 L311.795543,96.9243908 L362.240466,120.721168 L252.462311,111.873338 L246.214577,109.406036 L240.393857,111.257253 L219.609873,110.233901 Z M217.324731,111.11508 L220.476736,111.380668 L220.146973,111.249355 L237.700459,112.114243 L189.513034,127.442814 L217.324731,111.11508 Z M148.443661,104.32531 L169.629976,92.181326 L213.942187,109.839468 L148.443661,104.32531 Z M214.988248,110.919098 L214.80905,110.986729 L215.532259,111.022272 L185.469976,128.670541 L149.715818,105.427648 L214.988248,110.919098 Z M671.420857,156.474833 L655.102996,120.390418 L664.925307,123.194888 L671.420857,156.474833 Z M654.569846,119.21255 L652.269894,114.126393 L644.470593,117.183616 L595.841344,103.076355 L608.799863,100.476753 L693.941035,109.717041 L665.316284,122.279646 L654.569846,119.21255 Z M1066.93559,93.9224573 L1067.03037,93.9525704 L1093.24262,110.516767 C1093.30285,110.725584 1093.48747,110.877137 1093.70814,110.877137 C1093.72394,110.877137 1093.73924,110.876149 1093.75553,110.875162 L1093.80391,110.871707 L1114.12928,123.716191 L1084.83365,124.144686 L1077.19281,121.144727 L1062.51785,124.317466 L1062.54599,124.17233 L1016.68714,112.152749 L1066.93559,93.9224573 Z M1078.78881,97.662903 L1077.91504,98.258748 L1079.9336,97.9926664 L1169.19484,99.3497319 L1165.06441,104.401333 L1094.04827,109.858721 L1070.72293,95.117603 L1078.78881,97.662903 Z M1116.88587,72.8723922 L1151.22027,87.5883332 L1081.89737,96.7372945 L1116.88587,72.8723922 Z M1157.85009,70.1745519 L1152.75308,87.171686 L1131.51295,78.0676476 L1157.85009,70.1745519 Z M1158.91442,70.0595297 L1183.1856,77.7151759 L1153.80802,87.0882578 L1158.91442,70.0595297 Z M1163.41164,60.0076682 L1215.60313,89.9322208 L1215.60313,90.3528173 L1215.88204,90.0921659 L1223.436,94.4240137 L1185.02546,77.2644662 C1185.02152,77.2629853 1185.01855,77.2615043 1185.0146,77.259036 L1184.84676,77.1849873 L1184.81714,77.1948605 L1159.26541,69.1363894 L1163.41164,60.0076682 Z M1230.43409,76.4874487 L1256.22919,91.3465506 L1232.27297,98.3485938 L1216.63833,89.3852479 L1230.43409,76.4874487 Z M1230.10087,98.8782887 C1230.22231,98.8264546 1230.31611,98.7257484 1230.36399,98.597891 L1230.96724,98.8674282 L1230.10087,98.8782887 Z M1238.12725,119.012125 L1198.57193,100.274847 L1231.74525,99.8384532 L1263.78463,100.056156 L1238.12725,119.012125 Z M1238.18057,120.129766 L1238.23931,120.157411 L1238.25807,120.143589 L1260.66866,128.860599 L1215.0211,130.863369 L1238.18057,120.129766 Z M1229.63288,98.8847062 L1197.23165,99.3053027 C1197.08849,99.3072773 1196.9631,99.3719465 1196.87424,99.4706781 L1180.197,91.5711649 L1229.63288,98.8847062 Z M1153.17417,88.327339 L1154.91332,88.0972945 L1154.47792,87.9111855 L1184.789,78.2404278 L1228.34888,97.697459 L1177.13533,90.1207981 L1176.85098,89.9865231 L1169.98914,98.3787069 L1086.6434,97.1070442 L1152.37493,88.4324882 L1152.32557,88.5983572 L1153.17417,88.327339 Z M1210.66457,131.054908 L1160.66098,111.284405 C1160.71824,111.254785 1160.77107,111.213318 1160.815,111.159509 L1165.57189,105.341751 C1165.81181,105.298309 1165.98854,105.09196 1165.97866,104.844144 L1170.45219,99.3724402 L1170.53759,99.3744148 C1170.79973,99.3679973 1171.03718,99.1675722 1171.04557,98.8955667 C1171.04754,98.8239863 1171.03273,98.7558615 1171.00706,98.6936606 L1177.12694,91.20882 L1237.01998,119.580325 L1212.42989,130.977404 L1210.66457,131.054908 Z M1211.3394,132.569944 L1251.03739,155.864178 L1201.72542,137.026194 L1211.3394,132.569944 Z M1210.18869,132.01606 L1200.38563,136.559687 L1129.14882,125.718467 L1210.18869,132.01606 Z M1153.2961,109.435162 L1207.34818,130.804624 L1117.91465,123.854908 L1153.2961,109.435162 Z M1159.97628,111.013386 L1153.29067,108.370342 L1115.84376,123.633256 L1095.45075,110.744836 L1164.20347,105.454305 L1160.04934,110.535032 C1159.9358,110.674737 1159.91901,110.855416 1159.97628,111.013386 L1159.97628,111.013386 Z M1257.50234,92.0070648 C1257.59169,92.0070648 1257.67709,91.9789263 1257.75262,91.9300542 L1273.06342,87.4555393 L1289.19764,98.9256798 L1281.87472,99.30629 C1281.71428,99.3141885 1281.58248,99.403047 1281.49905,99.5269551 L1269.84872,95.5762112 L1265.11158,99.0757518 L1234.02743,98.8634789 L1257.49444,92.0050902 C1257.49691,92.0055838 1257.49938,92.0070648 1257.50234,92.0070648 L1257.50234,92.0070648 Z M1408.4017,124.578611 L1393.29281,126.897322 L1360.1812,114.621038 L1408.4017,124.578611 Z M1439.64679,108.080071 L1420.68243,101.598837 L1366.68169,105.741614 L1359.02703,100.784302 L1325.62811,76.1952033 L1290.65294,98.7494439 L1273.24459,86.3734412 L1257.54134,90.9634721 L1230.2934,75.2661392 L1216.59044,88.0770545 L1216.59044,49.5352101 C1216.59044,49.262711 1216.36978,49.0415523 1216.09678,49.0415523 C1215.82379,49.0415523 1215.60313,49.262711 1215.60313,49.5352101 L1215.60313,88.7918711 L1162.96192,58.61111 L1158.22922,69.0297593 L1130.83862,77.240277 C1130.65201,77.2960603 1130.52761,77.4530435 1130.4975,77.632735 L1116.77825,71.7522825 L1079.82648,96.9554913 L1067.44949,93.0491766 L1067.07283,92.8092588 L1066.89511,92.873928 L1060.54173,90.8691834 L1046.26959,97.3963277 C1046.24343,97.3864546 1046.22023,97.3696702 1046.19159,97.3632527 L1009.91465,89.8349702 L1009.89342,89.7505547 L987.838272,90.1810243 L963.768502,79.241566 L963.768502,44.3597011 C963.768502,44.0872019 963.54685,43.8660432 963.274844,43.8660432 C963.001851,43.8660432 962.781186,44.0872019 962.781186,44.3597011 L962.781186,79.1818334 L938.31649,85.8057347 L920.286623,54.5769379 L920.286623,30.900613 C920.286623,30.6276202 920.065958,30.4069551 919.792965,30.4069551 C919.520466,30.4069551 919.299308,30.6276202 919.299308,30.900613 L919.299308,54.2605033 L872.354913,58.8179527 C872.319369,58.8214083 872.288762,58.8372053 872.256181,58.8475722 L871.414988,58.334168 L871.331066,57.9688612 L870.923305,58.1376921 L826.152485,50.572879 L825.934289,50.3749222 L811.317573,63.1305478 L763.044251,48.2635475 C762.994391,48.2482441 762.944532,48.2482441 762.89566,48.2482441 L762.798409,48.1608666 L762.54072,47.8162935 L734.589318,67.7314391 L719.002564,57.9209763 L719.002564,36.1249942 C719.002564,35.8520014 718.781406,35.6313363 718.508906,35.6313363 C718.235914,35.6313363 718.015249,35.8520014 718.015249,36.1249942 L718.015249,57.9392417 L700.353651,70.5028344 C700.301817,70.4865437 700.248008,70.4732149 700.188769,70.4751896 L654.731272,71.9146959 L632.108906,62.5268043 L632.108906,49.3125704 C632.108906,49.0395776 631.888241,48.8189126 631.615249,48.8189126 C631.342256,48.8189126 631.121591,49.0395776 631.121591,49.3125704 L631.121591,62.427579 L600.734481,71.9334549 L574.993185,42.5079904 L574.993185,25.0517545 C574.993185,24.7792554 574.772026,24.5580967 574.499527,24.5580967 C574.22604,24.5580967 574.005869,24.7792554 574.005869,25.0517545 L574.005869,42.3302736 L560.023504,46.7080315 C559.99339,46.6700199 559.964265,46.6315146 559.922304,46.6023888 L553.284086,41.9857004 L553.177456,42.08147 L502.680699,31.945193 L482.392348,26.5361838 L482.392348,0.879797052 C482.392348,0.606310593 482.171683,0.386139184 481.89869,0.386139184 C481.625698,0.386139184 481.405033,0.606310593 481.405033,0.879797052 L481.405033,26.6408392 L432.570422,56.8808392 L416.693397,46.7959026 L420.771999,45.0419362 C421.022283,44.9348125 421.137799,44.6430607 421.030182,44.3932698 C420.921577,44.1424916 420.631306,44.0245074 420.381515,44.1350867 L415.589085,46.1961083 L391.212753,41.0275105 L376.235173,68.5499239 L322.388948,66.5511032 L297.369379,53.5363072 L297.369379,43.6690737 C297.369379,43.3965746 297.148714,43.1754158 296.875722,43.1754158 C296.602729,43.1754158 296.382064,43.3965746 296.382064,43.6690737 L296.382064,53.5066877 L274.237065,71.0063654 L241.138786,70.5546685 C240.820377,70.5309729 240.642167,70.7699033 240.638711,71.0414152 C240.634268,71.3139143 240.852465,71.538035 241.125458,71.5419842 L267.353994,71.9013672 L233.000343,76.3665026 L233.476723,81.0947576 L194.764566,72.6300062 L194.67324,72.6097662 L165.316394,77.3335783 L165.103627,77.3681344 L164.922948,77.6337223 L133.420665,90.9269414 L119.480261,78.0098896 L74.2118341,109.419365 L0.456386699,114.956232 C0.184381214,114.976965 -0.0190058279,115.212934 -0.000154475288,115.484939 C0.0204868015,115.744603 0.237202605,115.94256 0.492917381,115.94256 C0.505752485,115.94256 0.518093932,115.94256 0.530435379,115.941079 L31.1470963,113.642608 C31.2236133,113.759111 31.3430785,113.845502 31.4921632,113.864261 L73.2052657,119.220448 L29.5367844,131.938556 L17.2940692,125.360071 C17.0526706,125.232214 16.7545012,125.32206 16.6256565,125.561484 C16.4963181,125.801401 16.5866575,126.100558 16.8265752,126.229896 L29.4252177,132.999427 L75.6572643,119.535402 L82.9372369,120.470884 L151.639109,135.178926 L69.014604,129.460394 L68.7899897,129.279715 L40.0418238,158.028374 L103.847103,158.730356 L103.934974,158.800949 L104.158108,158.715052 L155.223065,149.050219 L224.986301,130.691576 L233.299006,134.392529 C233.34146,134.623561 233.535962,134.799303 233.775879,134.799303 L233.795132,134.799303 L234.184134,134.786468 L283.877216,156.913201 L340.424244,142.666729 L381.196435,169.68808 L381.393898,169.817912 L381.5494,169.768546 L539.519424,166.324295 L539.661598,166.321333 L573.593665,144.000592 L573.759534,144.009972 C573.769407,144.011453 573.77928,144.011453 573.789153,144.011453 C574.047336,144.011453 574.264052,143.81004 574.280836,143.548402 L592.029318,131.8729 L600.472842,134.930616 C600.473829,134.934072 600.47531,134.937034 600.476298,134.94049 C600.57108,135.196698 600.857401,135.328505 601.110154,135.232735 L601.207899,135.196698 L672.002386,160.805694 L671.845403,161.085598 L672.314378,161.052029 L672.325732,161.110774 L672.513322,161.078193 C672.578485,161.108799 672.644141,161.140887 672.717203,161.140887 C672.7641,161.140887 672.810504,161.128546 672.856908,161.114723 L673.648735,161.401539 L673.453246,160.969588 L744.112472,155.847888 L873.990401,166.247778 C874.064943,166.292207 874.146891,166.324295 874.238711,166.324295 L874.258951,166.324295 L874.702256,166.306523 L874.888858,166.321827 C874.902187,166.322814 874.916503,166.324295 874.931313,166.324295 C874.99302,166.324295 875.052259,166.311953 875.107055,166.290726 L1045.2882,159.545879 L1044.66422,159.330644 L1133.99803,144.948909 L1135.10382,144.929163 L1255.43984,158.603486 L1256.19711,158.893757 L1256.81763,159.261038 L1256.96573,159.171686 C1256.99387,159.176623 1257.0225,159.186496 1257.05015,159.186496 C1257.25255,159.186496 1257.44359,159.060119 1257.51517,158.858707 C1257.51665,158.852783 1257.51567,158.846365 1257.51715,158.839948 L1301.74346,132.270788 L1308.15164,128.428649 L1317.57556,132.902176 C1317.58198,132.916492 1317.58248,132.932783 1317.59087,132.946112 C1317.68219,133.102108 1317.84806,133.189979 1318.01689,133.189979 C1318.05244,133.189979 1318.08699,133.169739 1318.12204,133.16184 L1351.47752,148.997397 L1324.22711,148.997397 C1323.95461,148.997397 1323.73345,149.217569 1323.73345,149.491055 C1323.73345,149.763061 1323.95461,149.984713 1324.22711,149.984713 L1355.86071,149.984713 L1319.18588,132.573894 L1352.34734,112.77377 L1352.79657,112.939639 C1352.86618,113.052193 1352.97774,113.139077 1353.11794,113.167216 L1353.77204,113.298529 L1393.18914,127.911295 L1413.97855,124.721278 L1354.04207,112.346756 L1352.24713,111.684761 L1352.11977,111.760291 L1276.33341,126.18991 L1321.53075,114.09233 L1323.93338,113.918563 L1323.4965,113.769972 L1366.61406,106.736828 L1420.55506,102.599482 L1439.3264,109.013578 C1439.37972,109.032337 1439.43353,109.04073 1439.48684,109.04073 C1439.6922,109.04073 1439.88374,108.911885 1439.95335,108.707017 C1440.04221,108.44834 1439.90398,108.168436 1439.64679,108.080071 L1439.64679,108.080071 Z" id="Fill-45" fill="#787B86" mask="url(#mask-73)"></path>
                            </g>
                        </g>
                        <path d="M720.335391,146.292344 C720.335391,147.508717 719.349063,148.495046 718.13269,148.495046 C716.916317,148.495046 715.930482,147.508717 715.930482,146.292344 C715.930482,145.075971 716.916317,144.090136 718.13269,144.090136 C719.349063,144.090136 720.335391,145.075971 720.335391,146.292344" id="Fill-47" fill="#FFFF99"></path>
                        <path d="M964.882391,155.332454 C964.882391,156.548827 963.896557,157.534662 962.680184,157.534662 C961.463317,157.534662 960.477482,156.548827 960.477482,155.332454 C960.477482,154.115587 961.463317,153.129752 962.680184,153.129752 C963.896557,153.129752 964.882391,154.115587 964.882391,155.332454" id="Fill-49" fill="#FFFF99"></path>
                        <path d="M576.453672,135.547535 C576.453672,136.763908 575.467343,137.750237 574.251464,137.750237 C573.035091,137.750237 572.048762,136.763908 572.048762,135.547535 C572.048762,134.331162 573.035091,133.345327 574.251464,133.345327 C575.467343,133.345327 576.453672,134.331162 576.453672,135.547535" id="Fill-51" fill="#FFFF99"></path>
                        <path d="M633.266978,159.013167 C633.266978,159.843006 632.594616,160.515368 631.764778,160.515368 C630.934939,160.515368 630.262577,159.843006 630.262577,159.013167 C630.262577,158.183328 630.934939,157.510966 631.764778,157.510966 C632.594616,157.510966 633.266978,158.183328 633.266978,159.013167" id="Fill-53" fill="#FFFF99"></path>
                        <path d="M921.436155,141.068901 C921.436155,141.89874 920.763793,142.571102 919.933954,142.571102 C919.104115,142.571102 918.43126,141.89874 918.43126,141.068901 C918.43126,140.239062 919.104115,139.5667 919.933954,139.5667 C920.763793,139.5667 921.436155,140.239062 921.436155,141.068901" id="Fill-55" fill="#FFFF99"></path>
                        <path d="M1217.61064,160.585763 C1217.61064,161.415602 1216.93827,162.087964 1216.10843,162.087964 C1215.2786,162.087964 1214.60623,161.415602 1214.60623,160.585763 C1214.60623,159.755431 1215.2786,159.083069 1216.10843,159.083069 C1216.93827,159.083069 1217.61064,159.755431 1217.61064,160.585763" id="Fill-57" fill="#FFFF99"></path>
                        <path d="M298.30881,155.209977 C298.30881,156.04031 297.636448,156.712672 296.80661,156.712672 C295.976771,156.712672 295.304409,156.04031 295.304409,155.209977 C295.304409,154.380138 295.976771,153.707776 296.80661,153.707776 C297.636448,153.707776 298.30881,154.380138 298.30881,155.209977" id="Fill-59" fill="#FFFF99"></path>
                        <path d="M483.610104,111.622012 C483.610104,112.451851 482.937742,113.124213 482.107903,113.124213 C481.278064,113.124213 480.605702,112.451851 480.605702,111.622012 C480.605702,110.792173 481.278064,110.119811 482.107903,110.119811 C482.937742,110.119811 483.610104,110.792173 483.610104,111.622012" id="Fill-61" fill="#FFFF99"></path>
                        <g id="编组" stroke-width="1" fill="none">
                            <mask id="mask-75" fill="white">
                                <use xlink:href="#path-74"></use>
                            </mask>
                            <g id="Clip-66"></g>
                        </g>
                    </g>
                </g>
            </g>
        </g>
    </g>
</svg>