<svg width="24" height="25" viewBox="0 0 24 25" fill="none" xmlns="http://www.w3.org/2000/svg">
<path d="M21.0031 5.25928H16.0484C16.0227 5.25928 16.0016 5.2373 16.0016 5.21045C15.9898 4.65625 15.7719 4.15332 15.4109 3.77979C15.05 3.40381 14.5508 3.17432 14 3.17432C12.9008 3.17432 12.0008 4.10205 12.0008 5.25684C12.0008 4.68311 11.7805 4.16309 11.4102 3.77734C11.0492 3.40137 10.55 3.17188 9.99922 3.17188C8.91406 3.17188 8.02344 4.07275 8 5.20801C8 5.23486 7.97891 5.25684 7.95312 5.25684H3.00078C2.45 5.25684 2 5.72559 2 6.29932V10.4668C2 10.9844 2.375 11.3994 2.85312 11.4775H21.1508C21.6289 11.3994 22.0039 10.9868 22.0039 10.4668V6.30176C22.0039 5.72803 21.5539 5.25928 21.0031 5.25928Z" fill="white"/>
<path d="M4 12.5684V20.8838C4 21.46 4.44766 21.9263 5.00078 21.9263H19.0023C19.5555 21.9263 20.0031 21.46 20.0031 20.8838V12.5684C20.0031 12.5415 19.982 12.5195 19.9562 12.5195H4.04687C4.02109 12.5195 4 12.5415 4 12.5684ZM14.1227 16.4111L12.7094 17.8833C12.5148 18.0859 12.2594 18.1885 12.0016 18.1885C11.7437 18.1885 11.4906 18.0859 11.2937 17.8833L9.87812 16.4111C9.48672 16.0034 9.48672 15.3442 9.87812 14.939C10.0727 14.7363 10.3281 14.6338 10.5859 14.6338C10.8414 14.6338 11.0969 14.7363 11.2937 14.939L11.9687 15.6421C11.9875 15.6616 12.018 15.6616 12.0344 15.6421L12.7094 14.939C12.9039 14.7363 13.1594 14.6338 13.4172 14.6338C13.6727 14.6338 13.9281 14.7363 14.125 14.939C14.5117 15.3442 14.5117 16.0034 14.1227 16.4111Z" fill="white"/>
</svg>
