<svg width="100" height="100" viewBox="0 0 100 100" fill="none" xmlns="http://www.w3.org/2000/svg">
<g clip-path="url(#clip0_9111_96895)">
<path d="M0 25C0 11.1929 11.1929 0 25 0H75C88.8071 0 100 11.1929 100 25V75C100 88.8071 88.8071 100 75 100H25C11.1929 100 0 88.8071 0 75V25Z" fill="white"/>
<path d="M75 0C88.8071 0 100 11.1929 100 25V75C100 88.8071 88.8071 100 75 100H25C11.1929 100 0 88.8071 0 75V25C0 11.1929 11.1929 0 25 0H75ZM75 1.78574H25C12.1786 1.78574 1.78574 12.1786 1.78574 25V75C1.78574 87.8214 12.1786 98.2143 25 98.2143H75C87.8214 98.2143 98.2143 87.8214 98.2143 75V25C98.2143 12.1786 87.8214 1.78574 75 1.78574Z" fill="#E9E9E9"/>
<path d="M87.5 49.9985C87.5005 50.8287 87.3373 51.6509 87.0198 52.4181C86.7022 53.1853 86.2366 53.8823 85.6495 54.4694C85.0625 55.0565 84.3654 55.5221 83.5983 55.8396C82.8311 56.1571 82.0089 56.3203 81.1786 56.3199H59.375L50 37.3573L60.1179 19.8342C60.9563 18.3833 62.3366 17.3247 63.9552 16.8911C65.5739 16.4575 67.2985 16.6843 68.75 17.5217C70.2009 18.3602 71.2595 19.7404 71.6931 21.3591C72.1268 22.9778 71.8999 24.7024 71.0625 26.1539L60.9446 43.6788H81.1804C82.0103 43.6786 82.8322 43.8419 83.5991 44.1594C84.3659 44.4769 85.0627 44.9424 85.6495 45.5293C86.2364 46.1162 86.7019 46.8129 87.0194 47.5798C87.3369 48.3466 87.5002 49.1685 87.5 49.9985Z" fill="#1A73E8"/>
<path d="M68.7502 82.475C67.2986 83.313 65.5735 83.5401 63.9545 83.1064C62.3354 82.6728 60.9548 81.6139 60.1163 80.1625L50.0002 62.6393L39.8823 80.1625C39.0439 81.6134 37.6636 82.672 36.045 83.1056C34.4263 83.5392 32.7017 83.3124 31.2502 82.475C29.7993 81.6365 28.7408 80.2563 28.3071 78.6376C27.8735 77.019 28.1003 75.2944 28.9377 73.8429L39.0538 56.3179L50.0002 55.9053L60.9448 56.3178L71.0627 73.8428C71.9002 75.2943 72.127 77.0189 71.6934 78.6376C71.2597 80.2563 70.2011 81.6365 68.7502 82.475Z" fill="#EA4335"/>
<path d="M50.0003 37.357L47.1485 45.107L39.0538 43.6784L28.9378 26.1534C28.1003 24.7019 27.8735 22.9773 28.3071 21.3586C28.7408 19.74 29.7994 18.3597 31.2503 17.5212C32.7018 16.6838 34.4264 16.457 36.045 16.8906C37.6637 17.3243 39.0439 18.3828 39.8824 19.8337L50.0003 37.357Z" fill="#FBBC04"/>
<path d="M48.3679 43.6787L41.0321 56.3214H18.8179C17.9879 56.3214 17.1661 56.1579 16.3993 55.8401C15.6326 55.5224 14.936 55.0567 14.3493 54.4697C13.7625 53.8827 13.2972 53.1858 12.9799 52.4189C12.6626 51.652 12.4996 50.8301 12.5 50.0001C12.4995 49.1698 12.6627 48.3476 12.9802 47.5805C13.2978 46.8133 13.7634 46.1163 14.3505 45.5292C14.9375 44.9421 15.6346 44.4765 16.4018 44.159C17.1689 43.8414 17.9911 43.6782 18.8214 43.6787H48.3679Z" fill="#34A853"/>
<path d="M60.9456 56.3215H39.0547L50.001 37.3608L60.9456 56.3215Z" fill="#185DB7"/>
</g>
<defs>
<clipPath id="clip0_9111_96895">
<rect width="100" height="100" fill="white"/>
</clipPath>
</defs>
</svg>
