<svg width="22" height="25" viewBox="0 0 22 25" fill="none" xmlns="http://www.w3.org/2000/svg">
<path d="M0.461543 24.0099C0.172645 23.6641 0.057259 23.2611 0 22.8581V1.66453C0 1.20433 0.115386 0.743262 0.460676 0.397461C0.518802 0.397461 0.576061 0.455528 0.634188 0.512728L9.45468 9.32416L12.1641 12.0308L12.3376 12.2041C12.3376 12.3194 12.2213 12.3766 12.1641 12.4338L6.68716 17.9051C5.47691 19.1149 4.20854 20.3239 2.99742 21.591C2.24785 22.397 1.44102 23.1458 0.691446 23.9527C0.57606 23.9527 0.517935 24.0099 0.460676 24.0099H0.461543Z" fill="#01D4FE"/>
<path d="M0.461804 24.0099L3.68913 20.785L12.1643 12.3194L12.2797 12.2041H12.337C12.3951 12.2041 12.4524 12.2613 12.5105 12.3194L16.1994 16.0044C16.2575 16.0625 16.3729 16.1197 16.3148 16.235C15.3344 16.8113 14.4122 17.3296 13.4327 17.9051C10.7233 19.4599 8.01393 21.0155 5.30366 22.5123C4.38145 23.0305 3.4011 23.6069 2.47888 24.1243C2.1336 24.3557 1.72931 24.4709 1.3259 24.4129C0.92248 24.3557 0.692576 24.2395 0.460938 24.0099H0.461804Z" fill="#FE3A44"/>
<path d="M12.2797 12.2041C9.74298 9.66998 7.20623 7.19303 4.7276 4.65976L0.576323 0.512744C0.519064 0.455544 0.460938 0.455544 0.460938 0.397477C0.807962 -0.00552408 1.26777 -0.0627242 1.78744 0.0525429C2.19085 0.16781 2.59427 0.397478 2.94043 0.570812L7.78315 3.33549C9.33956 4.19869 10.896 5.12083 12.4524 5.98403C13.7207 6.73283 14.9891 7.42357 16.2575 8.17237C16.3148 8.23044 16.1994 8.28764 16.1994 8.34571L12.4524 12.0889C12.3951 12.1461 12.337 12.2041 12.2789 12.2041H12.2797Z" fill="#03EE76"/>
<path d="M12.2793 12.2036C12.3366 12.1456 12.3947 12.0884 12.3947 12.0303L16.1417 8.28714C16.1989 8.22994 16.2571 8.22994 16.2571 8.17188C17.8135 9.09314 19.428 9.95721 20.9844 10.8785C21.3878 11.109 21.734 11.4548 21.8494 11.915C21.9639 12.3189 21.7912 12.721 21.5605 13.0096C21.387 13.2402 21.1571 13.4126 20.9271 13.5279C19.3699 14.392 17.8707 15.256 16.3143 16.1192C16.3143 16.1192 16.2571 16.1192 16.2571 16.1773C16.2571 16.1192 16.1989 16.062 16.1417 16.004C14.9306 14.7369 13.6631 13.5279 12.3938 12.2608C12.3366 12.2608 12.3366 12.2036 12.2793 12.2036Z" fill="#FED504"/>
</svg>
