<svg width="24" height="24" viewBox="0 0 24 24" fill="none" xmlns="http://www.w3.org/2000/svg">
<path d="M12.74 10.7281C13.004 12.5521 12.68 14.4001 12.956 16.2121C13.076 17.0281 13.364 18.3601 14.108 18.8401C14.912 19.3441 16.328 19.4641 17.084 18.7921C17.432 18.4801 17.648 18.0481 17.78 17.6041C17.888 17.2441 17.864 16.7641 18.008 16.4161C17.504 15.7921 16.892 15.3001 16.172 14.9401C15.884 14.7961 16.136 14.3521 16.424 14.4961C17.192 14.8801 17.864 15.4321 18.404 16.1041C18.464 16.0921 18.524 16.0921 18.596 16.0921C19.1 16.0801 19.616 16.1401 20.12 16.0561C21.308 15.8521 21.476 14.3401 21.356 13.3441C21.236 12.3841 20.204 11.6761 19.388 11.3041C18.38 10.8241 17.252 10.6921 16.148 10.6441C15.02 10.5721 13.868 10.5841 12.74 10.7281ZM9.29604 4.21209C9.29604 5.28009 9.56004 6.57609 10.136 7.48809C10.796 8.50809 11.72 9.34809 12.56 10.2121C13.784 9.96009 14.828 9.28809 15.776 8.48409C16.7 7.69209 17.66 6.81609 18.248 5.73609C18.824 4.66809 19.136 2.91609 17.828 2.25609C16.892 1.78809 15.332 1.87209 14.72 2.82009C14.672 3.50409 14.54 4.17609 14.312 4.82409C14.204 5.13609 13.712 5.00409 13.82 4.69209C14.036 4.09209 14.168 3.48009 14.204 2.84409C14.192 2.82009 14.192 2.78409 14.192 2.74809V2.73609C14.036 1.32009 12.392 0.804095 11.192 1.17609C10.652 1.34409 10.148 1.69209 9.77604 2.12409C9.33204 2.66409 9.29604 3.55209 9.29604 4.21209ZM3.22404 9.75609C3.02004 10.2961 3.12804 10.8721 3.36804 11.3761C3.59604 11.8681 3.96804 12.5641 4.59204 12.5521C4.62804 12.5521 4.65204 12.5641 4.67604 12.5641C5.56404 12.5281 6.41604 12.3481 7.24404 12.0121C7.54404 11.8921 7.67604 12.3841 7.37604 12.5041C6.52404 12.8401 5.63604 13.0321 4.72404 13.0681C4.20804 14.0041 4.12404 15.1921 4.67604 16.1521C4.97604 16.6681 5.46804 17.1001 6.09204 17.1121C6.65604 17.1241 7.31604 16.9201 7.83204 16.6921C8.93604 16.2121 9.50004 14.8441 10.088 13.8601C10.712 12.8281 11.312 11.7841 11.912 10.7401C11.144 10.1641 10.364 9.60009 9.50004 9.15609C8.37204 8.58009 7.17204 8.31609 5.90004 8.31609C4.79604 8.32809 3.64404 8.59209 3.22404 9.75609Z" fill="#28BE3E"/>
<path d="M4.3278 8.0159C3.2958 8.3999 2.5158 9.4199 2.6118 10.5479C2.6838 11.4239 3.2718 12.7199 4.1958 13.0079C3.7038 14.0039 3.6438 15.2039 4.1358 16.2239C4.3758 16.7159 4.7478 17.1599 5.2398 17.4119C5.7918 17.6999 6.3798 17.6399 6.9678 17.5079C7.5678 17.3639 8.1798 17.1839 8.6718 16.7999C9.2478 16.3559 9.5958 15.6599 9.9678 15.0599C10.5678 14.0879 11.1438 13.1159 11.7078 12.1319C10.6758 15.6719 10.6878 19.3439 10.7598 23.0399C10.7718 23.3639 11.2758 23.3639 11.2638 23.0399C11.1918 19.2239 11.1798 15.4319 12.3438 11.7839C12.4758 14.0039 12.0318 16.2959 13.0998 18.3359C13.5198 19.1879 14.2398 19.6799 15.1998 19.7159C16.1958 19.7639 17.1078 19.6439 17.7438 18.8039C18.0798 18.3719 18.2598 17.8439 18.3798 17.3159C18.4038 17.1959 18.4158 16.6079 18.5118 16.5479C18.5598 16.5119 19.2198 16.5839 19.3158 16.5839C20.3118 16.5839 21.1758 16.4159 21.6198 15.4199C21.9798 14.6039 22.0998 13.2599 21.6078 12.4679C21.1158 11.6639 20.2278 11.0639 19.3638 10.7159C18.3198 10.2839 17.1918 10.1519 16.0758 10.1159C15.4998 10.0919 14.9238 10.0919 14.3478 10.1039C15.1878 9.6599 15.9438 9.0479 16.6518 8.3999C17.7678 7.3799 18.8958 6.1919 19.1838 4.6439C19.4478 3.2639 18.9198 1.9679 17.4798 1.5959C16.5198 1.3439 15.3078 1.4879 14.5758 2.1959C14.1918 1.1279 13.0758 0.503898 11.9118 0.551898C10.6038 0.599898 9.3798 1.4279 8.9838 2.6759C8.5398 4.0799 8.8638 5.6639 9.3798 7.0079C9.7878 8.0759 10.5798 8.9279 11.3838 9.7439C10.5318 9.1439 9.6318 8.6039 8.6478 8.2559C7.9158 8.0039 7.1478 7.8719 6.3798 7.8359C5.7078 7.7999 4.9638 7.7759 4.3278 8.0159ZM3.3558 11.3759C3.1158 10.8599 3.0198 10.2959 3.2118 9.7559C3.6318 8.5919 4.7838 8.3279 5.8878 8.3279C7.1478 8.3279 8.3598 8.5919 9.4878 9.1679C10.3398 9.6119 11.1198 10.1759 11.8998 10.7519C11.3118 11.8079 10.6998 12.8399 10.0758 13.8719C9.4878 14.8559 8.9238 16.2119 7.8198 16.7039C7.3038 16.9319 6.6438 17.1359 6.0798 17.1239C5.4558 17.1119 4.9638 16.6799 4.6638 16.1639C4.1118 15.2159 4.1958 14.0279 4.7118 13.0799C5.6238 13.0319 6.5118 12.8519 7.3638 12.5159C7.6638 12.3959 7.5318 11.9039 7.2318 12.0239C6.4038 12.3479 5.5518 12.5399 4.6638 12.5759C4.6398 12.5639 4.6158 12.5639 4.5798 12.5639C3.9678 12.5639 3.5958 11.8799 3.3558 11.3759ZM10.1358 7.4879C9.5598 6.5759 9.2958 5.2799 9.2958 4.2119C9.2958 3.5519 9.3318 2.6759 9.7758 2.1359C10.1358 1.7039 10.6518 1.3559 11.1918 1.1879C12.3918 0.803898 14.0358 1.3319 14.1918 2.7479V2.7599C14.1918 2.7959 14.1918 2.8199 14.2038 2.8559C14.1558 3.4919 14.0358 4.1039 13.8198 4.7039C13.7118 5.0159 14.2038 5.1479 14.3118 4.8359C14.5398 4.1879 14.6718 3.5159 14.7198 2.8319C15.3318 1.8839 16.8918 1.7999 17.8278 2.2679C19.1358 2.9279 18.8238 4.6799 18.2478 5.7479C17.6598 6.8279 16.7118 7.7039 15.7758 8.4959C14.8278 9.2879 13.7838 9.9599 12.5598 10.2119C11.7198 9.3479 10.7958 8.5079 10.1358 7.4879ZM12.9438 16.2119C12.6678 14.3999 13.0038 12.5519 12.7278 10.7279C13.8558 10.5839 15.0078 10.5719 16.1478 10.6199C17.2518 10.6679 18.3798 10.7999 19.3878 11.2799C20.1918 11.6639 21.2358 12.3719 21.3558 13.3199C21.4758 14.3159 21.3078 15.8279 20.1198 16.0319C19.6278 16.1159 19.0998 16.0559 18.5958 16.0679C18.5238 16.0679 18.4638 16.0679 18.4038 16.0799C17.8638 15.4079 17.2038 14.8679 16.4238 14.4719C16.1358 14.3279 15.8718 14.7599 16.1718 14.9159C16.8918 15.2759 17.5038 15.7679 18.0078 16.3919C17.8758 16.7519 17.8998 17.2199 17.7798 17.5799C17.6478 18.0239 17.4318 18.4559 17.0838 18.7679C16.3278 19.4399 14.9118 19.3319 14.1078 18.8159C13.3518 18.3599 13.0758 17.0279 12.9438 16.2119Z" fill="#28BE3E"/>
</svg>
