<?xml version="1.0" standalone="no"?>
<!DOCTYPE svg PUBLIC "-//W3C//DTD SVG 1.1//EN" "http://www.w3.org/Graphics/SVG/1.1/DTD/svg11.dtd" >
<svg xmlns="http://www.w3.org/2000/svg">
  <metadata>Created by iconfont</metadata>
  <defs>
  <font id="iconfont" horiz-adv-x="1024">
    <font-face
      font-family="iconfont"
      font-weight="400"
      font-stretch="normal"
      units-per-em="1024"
      ascent="896"
      descent="-128"
    />
      <missing-glyph />
      
      <glyph glyph-name="jiance1" unicode="&#59770;" d="M502.784 894.03392a22.65088 22.65088 0 0 0 18.432 0l407.42912-180.96128c8.192-3.64544 13.43488-11.75552 13.43488-20.6848v-231.0144c0-233.10336-137.25696-444.29312-349.71648-537.96864-34.816-15.36-61.07136-22.81472-80.36352-22.81472-19.2512 0-45.54752 7.45472-80.36352 22.81472C219.17696 16.9984 81.92 228.22912 81.92 461.4144V692.4288c0 8.88832 5.28384 16.9984 13.43488 20.64384zM683.8272 609.28L461.2096 330.91584l-118.784 107.64288L286.72 368.0256l185.5488-170.72128 278.40512 348.89728L683.86816 609.28z"  horiz-adv-x="1024" />
      
      <glyph glyph-name="dizhi" unicode="&#59859;" d="M512 384m-512 0a512 512 0 1 1 1024 0 512 512 0 1 1-1024 0ZM660.138667 473.088h-45.909334v32.142222a67.498667 67.498667 0 0 1-67.413333 67.413334h-156.017778a67.498667 67.498667 0 0 1-67.413333-67.413334v-155.989333a67.498667 67.498667 0 0 1 67.413333-67.413333h45.937778v-32.142223a67.498667 67.498667 0 0 1 67.413333-67.413333h155.989334a67.498667 67.498667 0 0 1 67.413333 67.413333v155.989334a67.498667 67.498667 0 0 1-67.413333 67.413333z m36.807111-223.374222c-0.028444-20.309333-16.497778-36.778667-36.807111-36.807111h-155.989334c-20.309333 0.028444-36.750222 16.497778-36.778666 36.807111v32.142222h79.416889a67.498667 67.498667 0 0 1 67.413333 67.413333v44.544a15.331556 15.331556 0 1 1-30.606222 0v-44.572444c-0.028444-20.309333-16.497778-36.750222-36.807111-36.778667H390.826667c-20.309333 0-36.778667 16.497778-36.778667 36.778667v155.989333c0 20.280889 16.469333 36.750222 36.778667 36.778667h155.989333c20.309333-0.028444 36.778667-16.497778 36.807111-36.778667v-32.142222h-79.445333a67.498667 67.498667 0 0 1-67.413334-67.413333v-44.003556a15.331556 15.331556 0 0 1 30.634667 0v44.003556c0 20.280889 16.497778 36.750222 36.778667 36.778666h155.989333c20.309333-0.028444 36.778667-16.497778 36.807111-36.807111v-155.960889z"  horiz-adv-x="1024" />
      
      <glyph glyph-name="dangqianchicang1" unicode="&#59860;" d="M512 384m-512 0a512 512 0 1 1 1024 0 512 512 0 1 1-1024 0ZM513.166222 373.90222200000005c-4.608 0-9.187556 0.938667-13.425778 2.759111l-177.92 77.255111a33.706667 33.706667 0 0 0 0.113778 61.895112l178.176 81.152c8.419556 3.498667 17.92 3.498667 26.311111-0.056889l0.426667-0.199111 175.217778-80.952889a33.706667 33.706667 0 0 0 0.113778-61.752889l-175.388445-77.255111c-4.295111-1.877333-8.931556-2.844444-13.624889-2.844445z m-0.853333 31.744c0.568889-0.227556 1.166222-0.227556 1.706667 0l175.416888 77.226667a2.104889 2.104889 0 0 1 0 3.896889l-0.455111 0.199111-175.075555 80.896a2.133333 2.133333 0 0 1-1.422222 0l-178.062223-81.066667a2.104889 2.104889 0 0 1 0-3.896889l177.92-77.255111z m0.967111-130.190222c-4.835556 0-9.614222 0.995556-14.051556 2.901333l-193.308444 83.911111a15.815111 15.815111 0 1 0 12.600889 29.013334l193.308444-83.911111a3.697778 3.697778 0 0 1 2.929778 0l190.577778 83.911111a15.786667 15.786667 0 1 0 12.743111-28.928l-190.577778-83.911111a35.271111 35.271111 0 0 0-14.222222-2.986667z m0-99.555556a35.271111 35.271111 0 0 0-14.051556 2.929778l-193.308444 83.911111a15.815111 15.815111 0 1 0 12.600889 29.013334l193.308444-83.911111a3.697778 3.697778 0 0 1 2.929778 0l190.577778 83.911111a15.786667 15.786667 0 1 0 12.743111-28.928l-190.577778-83.911111c-4.465778-1.991111-9.329778-2.986667-14.222222-2.986667z"  horiz-adv-x="1024" />
      
      <glyph glyph-name="yingkuiqingkuang1" unicode="&#59861;" d="M512 384m-512 0a512 512 0 1 1 1024 0 512 512 0 1 1-1024 0ZM575.089778 420.835556h0.341333a6650.026667 6650.026667 0 0 0 51.342222 0.426666c24.348444 0.142222 47.331556 0.284444 65.365334 0.739556a25.457778 25.457778 0 0 1 23.438222 33.848889 217.6 217.6 0 0 1-132.152889 131.868444 25.429333 25.429333 0 0 1-33.763556-24.064l-0.028444-117.333333c0-14.051556 11.377778-25.486222 25.457778-25.486222z m7.111111 132.551111a185.201778 185.201778 0 0 0 99.128889-99.072c-15.928889-0.284444-34.901333-0.398222-54.755556-0.512-14.904889-0.113778-30.065778-0.199111-44.430222-0.369778l0.028444 99.953778z m138.353778-160.910223a25.628444 25.628444 0 0 1-18.488889 7.879112h-171.690667a2.161778 2.161778 0 0 0-2.190222 2.161777c-0.142222 26.282667-0.056889 62.407111 0.056889 100.693334 0.056889 23.125333 0.113778 47.217778 0.113778 70.883555a25.400889 25.400889 0 0 1-26.680889 25.457778 216.064 216.064 0 0 1-205.027556-225.592889c5.063111-110.08 95.232-200.248889 205.283556-205.283555a216.064 216.064 0 0 1 225.621333 204.999111 25.6 25.6 0 0 1-6.997333 18.773333z m-391.395556-17.066666a183.552 183.552 0 0 0 166.684445 191.146666l-0.113778-63.288888c-0.113778-38.314667-0.199111-74.524444-0.056889-100.949334 0.028444-2.56 0.341333-5.176889 0.967111-7.68l-121.742222-131.242666A181.959111 181.959111 0 0 0 329.102222 375.46666700000003z m174.250667-174.279111a181.532444 181.532444 0 0 0-104.96 39.822222l119.751111 129.137778c3.896889-1.479111 8.021333-2.247111 12.174222-2.275556h164.181333a183.466667 183.466667 0 0 0-191.146666-166.684444z"  horiz-adv-x="1024" />
      
      <glyph glyph-name="pingjunchengben" unicode="&#59862;" d="M512 384m-512 0a512 512 0 1 1 1024 0 512 512 0 1 1-1024 0ZM709.518222 178.517333H336.128c-21.902222 0-39.68 17.777778-39.708444 39.68v363.52a17.863111 17.863111 0 0 0 35.726222 0v-363.52c0-2.190222 1.763556-3.982222 3.982222-3.982222h373.390222a17.863111 17.863111 0 1 0 0-35.697778z m-333.596444 144.469334a17.863111 17.863111 0 0 0-12.373334 30.72l106.581334 102.656a17.863111 17.863111 0 0 0 25.002666-0.227556l59.420445-59.392 102.940444 100.608a17.863111 17.863111 0 1 0 24.945778-25.543111l-115.541333-112.924444a17.863111 17.863111 0 0 0-25.116445 0.142222l-59.534222 59.448889-93.952-90.481778a17.777778 17.777778 0 0 0-12.373333-5.006222z"  horiz-adv-x="1024" />
      
      <glyph glyph-name="chicangjiazhi1" unicode="&#59905;" d="M512 384m-512 0a512 512 0 1 1 1024 0 512 512 0 1 1-1024 0ZM512 168.44799999999998c-29.098667 0-57.344 5.688889-83.911111 16.924444a215.580444 215.580444 0 0 0-68.522667 46.193778 214.584889 214.584889 0 0 0-63.146666 152.462222 214.528 214.528 0 0 0 63.146666 152.433778A214.442667 214.442667 0 0 0 512 599.5804439999999a215.096889 215.096889 0 0 0 152.462222-63.118222 214.528 214.528 0 0 0 63.118222-152.433778 214.442667 214.442667 0 0 0-63.118222-152.462222A214.442667 214.442667 0 0 0 512 168.44799999999998z m0 397.994667A182.584889 182.584889 0 0 1 329.614222 384 182.584889 182.584889 0 0 1 512 201.61422200000004a182.584889 182.584889 0 0 1 182.414222 182.414222A182.641778 182.641778 0 0 1 512 566.442667z m0-328.334223a16.668444 16.668444 0 0 0-16.583111 16.554667v24.775111l-2.531556 0.625778a85.248 85.248 0 0 0-26.168889 11.036444 75.235556 75.235556 0 0 0-16.924444 13.824 16.583111 16.583111 0 1 0 25.031111 21.788445c1.365333-1.564444 4.721778-4.522667 9.472-7.509333 8.704-5.404444 17.976889-8.135111 27.648-8.135112 11.52 0 22.072889 4.096 28.188445 10.922667a17.351111 17.351111 0 0 1 4.949333 13.368889c-1.137778 10.410667-9.898667 17.92-37.518222 32.256l-6.371556 3.271111c-21.219556 11.008-33.109333 18.773333-41.016889 26.794667-8.533333 8.647111-12.8 18.033778-14.222222 31.317333a48.753778 48.753778 0 0 0 11.264 36.807111 67.128889 67.128889 0 0 0 35.697778 21.987556l2.474666 0.654222v24.888889a16.64 16.64 0 0 0 33.223112 0v-24.775111l2.531555-0.597334c9.329778-2.218667 18.090667-5.944889 26.168889-11.036444 9.272889-5.774222 14.563556-11.121778 16.924444-13.824a16.583111 16.583111 0 0 0-25.002666-21.788444 46.250667 46.250667 0 0 1-9.500445 7.509333 51.228444 51.228444 0 0 1-27.648 8.163555c-11.491556 0-22.072889-4.096-28.188444-10.951111a17.493333 17.493333 0 0 1-4.977778-13.368889c1.137778-10.382222 9.898667-17.92 37.546667-32.227555l6.343111-3.271111c21.219556-11.008 33.080889-18.773333 41.016889-26.823111 8.504889-8.647111 12.8-18.033778 14.250666-31.288889 1.422222-13.198222-2.446222-25.941333-11.292444-36.807111a67.015111 67.015111 0 0 0-35.669333-21.959111l-2.503111-0.625778v-24.945778a16.583111 16.583111 0 0 0-16.611556-16.611556z"  horiz-adv-x="1024" />
      
      <glyph glyph-name="yingkuifenxi" unicode="&#59902;" d="M535.4496 793.6c48.7424 0 88.2688-39.5264 88.2688-88.2688V193.024c0-48.7424-39.5264-88.2688-88.2688-88.2688h-46.8992a88.2688 88.2688 0 0 0-88.2688 88.2688V705.3312C400.2816 754.0736 439.808 793.6 488.5504 793.6h46.8992z m297.8816-130.304c48.7424 0 88.2688-39.5264 88.2688-88.2688v-382.0544c0-48.7424-39.5264-88.2688-88.2688-88.2688h-46.8992a88.2688 88.2688 0 0 0-88.2688 88.2688V574.976c0 48.7424 39.5264 88.2688 88.2688 88.2688h46.8992zM237.568 532.9408c48.7424 0 88.2688-39.5264 88.2688-88.2688v-251.6992c0-48.7424-39.5264-88.2688-88.2688-88.2688h-46.8992A88.2688 88.2688 0 0 0 102.4 193.024V444.672c0 48.7424 39.5264 88.2688 88.2688 88.2688h46.8992zM139.6224 11.6224h744.7552c24.832 0 37.2224-12.3904 37.2224-37.2224s-12.3904-37.2224-37.2224-37.2224H139.6224C114.7904-62.8224 102.4-50.432 102.4-25.6s12.3904 37.2224 37.2224 37.2224z"  horiz-adv-x="1024" />
      
      <glyph glyph-name="contract" unicode="&#59887;" d="M673.024 196.77866700000004H321.578667c-16.085333 0-29.44-9.130667-29.44-20.48 0-11.392 12.970667-20.565333 29.44-20.565334h351.445333c16.085333 0 29.44 9.173333 29.44 20.522667 0 11.392-13.354667 20.522667-29.44 20.522667zM665.6 853.248v-0.896c-3.669333 0-19.84 1.322667-60.501333 0.853333H249.045333C182.058667 853.248 128 800 128 734.592v-665.258667c0-65.450667 54.058667-118.698667 121.045333-118.698666h537.557334c66.986667 0 121.045333 53.248 121.045333 118.698666V615.8506669999999L665.6 853.205333z m183.338667-239.232l-123.306667 1.792h4.181333c-28.16 0-67.882667 26.666667-67.882666 59.136l-0.938667 122.794667 187.946667-183.722667z m6.485333-553.301333c0-33.408-27.690667-60.928-61.866667-60.928H242.090667c-34.218667 0-61.866667 27.093333-61.866667 60.928V742.656c0 33.408 27.648 60.928 61.866667 60.928h363.946666c-0.341333-40.448 0-80.938667 0.896-121.429333 0-67.242667 55.466667-121.386667 124.245334-121.386667h124.245333v-500.053333zM673.024 400.426667H321.578667c-16.085333 0-29.44-8.832-29.44-19.712 0-10.965333 12.970667-19.797333 29.44-19.797334h351.445333c16.085333 0 29.44 8.832 29.44 19.797334 0 10.88-13.354667 19.712-29.44 19.712z m-144.213333 165.674666H310.442667c-10.368 0-18.346667-8.832-18.346667-19.797333 0-10.922667 8.021333-19.712 18.304-19.712h218.325333c10.24 0 18.346667 8.789333 18.346667 19.712 0 10.965333-8.106667 19.797333-18.346667 19.797333z"  horiz-adv-x="1024" />
      
      <glyph glyph-name="warning" unicode="&#59882;" d="M537.6 793.6a409.6 409.6 0 1 0 0-819.2 409.6 409.6 0 0 0 0 819.2z m0-163.84a40.96 40.96 0 0 1-40.96-40.96v-327.68a40.96 40.96 0 0 1 81.92 0V588.8a40.96 40.96 0 0 1-40.96 40.96z m0-532.48a40.96 40.96 0 1 1 0 81.92 40.96 40.96 0 0 1 0-81.92z"  horiz-adv-x="1075" />
      
      <glyph glyph-name="danger" unicode="&#59883;" d="M901.0176 13.107200000000034H173.056c-37.2224 0-55.3472 43.8272-39.0144 77.312 22.3744 45.6704 344.0128 587.1616 364.0832 625.7664 17.9712 34.6624 60.8768 35.2256 78.848 0 27.392-53.6576 347.4432-592.7424 363.2128-624.128 19.8656-39.168-5.2736-78.9504-39.168-78.9504zM499.3024 512.256l25.6-268.7488h38.4l25.6512 268.7488h-89.6z m89.6512-307.2h-89.6v-76.7488h89.6v76.7488z"  horiz-adv-x="1075" />
      
      <glyph glyph-name="normal" unicode="&#59884;" d="M487.2704 302.13120000000004L395.8784 393.5744a34.3552 34.3552 0 0 1-48.64-48.5888l115.4048-115.3536a34.304 34.304 0 0 1 36.2496-7.936 34.0992 34.0992 0 0 1 13.3632 8.2944l212.992 212.992a34.3552 34.3552 0 1 1-48.5888 48.5888l-189.3888-189.44z m382.8224 384.1024l41.0112-3.072v-423.2192c0-156.4672-328.3456-325.12-365.9776-325.12-41.0112 0-365.9264 168.6528-365.9264 325.12V683.1616l44.4928 3.072s51.3024 3.072 143.616 30.72C459.6224 747.52 521.216 781.312 521.216 781.312l23.9616 12.288 27.3408-12.288s58.1632-33.7408 153.9072-64.4096c88.9344-30.6688 143.6672-30.6688 143.6672-30.6688z"  horiz-adv-x="1075" />
      
      <glyph glyph-name="fandui" unicode="&#59885;" d="M301.283556 240.564148c-18.090667-0.075852-36.143407-0.18963-54.234075-0.379259l-10.012444-0.075852c-95.952593-0.720593-161.640296 77.255111-144.839111 171.690667L144.990815 708.266667c11.45363 64.549926 73.045333 116.053333 138.429629 116.129185l488.675556 0.417185c26.81363 0 48.545185-21.617778 48.772741-48.469333l0.910222-438.840889c0-26.661926-21.390222-48.355556-48.014222-48.772741l-3.602963-0.075852h-22.452148c-105.054815 0.872296-195.318519-99.100444-195.090963-195.39437 0.151704-99.13837-45.511111-144.877037-121.666371-145.787259-71.149037-0.872296-121.856 68.114963-122.728296 170.439111-0.227556 30.378667 7.205926 83.702519 16.611556 122.766222-7.092148 0-14.942815 0-23.514075-0.075852z m568.888888 72.286815l-0.606814 487.537778a24.348444 24.348444 0 0 0 24.651851 24.462222h48.279704a24.38637 24.38637 0 0 0 24.613926-24.462222l-0.037926-487.537778a24.310519 24.310519 0 0 0-24.462222-24.424296h-47.976296a24.576 24.576 0 0 0-24.500148 24.424296z"  horiz-adv-x="1024" />
      
      <glyph glyph-name="zhichi" unicode="&#59886;" d="M722.678519 564.565333l54.234074 0.37926 9.974518 0.113777c95.990519 0.682667 161.678222-77.255111 144.839111-171.690666l-52.792889-296.466963c-11.45363-64.512-73.045333-116.053333-138.429629-116.09126l-488.599704-0.455111a48.848593 48.848593 0 0 0-48.772741 48.469334l-0.948148 438.802963c0 26.699852 21.390222 48.393481 48.052148 48.810666l3.602963 0.075852h22.414222c105.092741-0.910222 195.318519 99.062519 195.128889 195.318519-0.18963 99.176296 45.473185 144.877037 121.628445 145.825185 71.149037 0.872296 121.856-68.114963 122.69037-170.401185 0.265481-30.416593-7.205926-83.702519-16.573629-122.804148l23.514074 0.113777zM153.865481 492.316444L154.358519 4.740741a24.348444 24.348444 0 0 0-24.613926-24.424297H81.540741A24.38637 24.38637 0 0 0 56.888889 4.778667l0.037926 487.537777A24.272593 24.272593 0 0 0 81.389037 516.740741h47.976296c13.349926 0 24.500148-10.960593 24.500148-24.424297z"  horiz-adv-x="1024" />
      
      <glyph glyph-name="yingkuiqingkuang" unicode="&#59889;" d="M512 384m-512 0a512 512 0 1 1 1024 0 512 512 0 1 1-1024 0ZM575.089778 420.835556h0.341333a6650.026667 6650.026667 0 0 0 51.342222 0.426666c24.348444 0.142222 47.331556 0.284444 65.365334 0.739556a25.457778 25.457778 0 0 1 23.438222 33.848889 217.6 217.6 0 0 1-132.152889 131.868444 25.429333 25.429333 0 0 1-33.763556-24.064l-0.028444-117.333333c0-14.051556 11.377778-25.486222 25.457778-25.486222z m7.111111 132.551111a185.201778 185.201778 0 0 0 99.128889-99.072c-15.928889-0.284444-34.901333-0.398222-54.755556-0.512-14.904889-0.113778-30.065778-0.199111-44.430222-0.369778l0.028444 99.953778z m138.353778-160.910223a25.628444 25.628444 0 0 1-18.488889 7.879112h-171.690667a2.161778 2.161778 0 0 0-2.190222 2.161777c-0.142222 26.282667-0.056889 62.407111 0.056889 100.693334 0.056889 23.125333 0.113778 47.217778 0.113778 70.883555a25.400889 25.400889 0 0 1-26.680889 25.457778 216.064 216.064 0 0 1-205.027556-225.592889c5.063111-110.08 95.232-200.248889 205.283556-205.283555a216.064 216.064 0 0 1 225.621333 204.999111 25.6 25.6 0 0 1-6.997333 18.773333z m-391.395556-17.066666a183.552 183.552 0 0 0 166.684445 191.146666l-0.113778-63.288888c-0.113778-38.314667-0.199111-74.524444-0.056889-100.949334 0.028444-2.56 0.341333-5.176889 0.967111-7.68l-121.742222-131.242666A181.959111 181.959111 0 0 0 329.102222 375.466667z m174.250667-174.279111a181.532444 181.532444 0 0 0-104.96 39.822222l119.751111 129.137778c3.896889-1.479111 8.021333-2.247111 12.174222-2.275556h164.181333a183.466667 183.466667 0 0 0-191.146666-166.684444z"  horiz-adv-x="1024" />
      
      <glyph glyph-name="chicangchengbenjia" unicode="&#59890;" d="M512 384m-512 0a512 512 0 1 1 1024 0 512 512 0 1 1-1024 0ZM709.518222 178.517333H336.128c-21.902222 0-39.68 17.777778-39.708444 39.68v363.52a17.863111 17.863111 0 0 0 35.726222 0v-363.52c0-2.190222 1.763556-3.982222 3.982222-3.982222h373.390222a17.863111 17.863111 0 1 0 0-35.697778z m-333.596444 144.469334a17.863111 17.863111 0 0 0-12.373334 30.72l106.581334 102.656a17.863111 17.863111 0 0 0 25.002666-0.227556l59.420445-59.392 102.940444 100.608a17.863111 17.863111 0 1 0 24.945778-25.543111l-115.541333-112.924444a17.863111 17.863111 0 0 0-25.116445 0.142222l-59.534222 59.448889-93.952-90.481778a17.777778 17.777778 0 0 0-12.373333-5.006222z"  horiz-adv-x="1024" />
      
      <glyph glyph-name="dangqianchicang" unicode="&#59891;" d="M512 384m-512 0a512 512 0 1 1 1024 0 512 512 0 1 1-1024 0ZM513.166222 373.902222c-4.608 0-9.187556 0.938667-13.425778 2.759111l-177.92 77.255111a33.706667 33.706667 0 0 0 0.113778 61.895112l178.176 81.152c8.419556 3.498667 17.92 3.498667 26.311111-0.056889l0.426667-0.199111 175.217778-80.952889a33.706667 33.706667 0 0 0 0.113778-61.752889l-175.388445-77.255111c-4.295111-1.877333-8.931556-2.844444-13.624889-2.844445z m-0.853333 31.744c0.568889-0.227556 1.166222-0.227556 1.706667 0l175.416888 77.226667a2.104889 2.104889 0 0 1 0 3.896889l-0.455111 0.199111-175.075555 80.896a2.133333 2.133333 0 0 1-1.422222 0l-178.062223-81.066667a2.104889 2.104889 0 0 1 0-3.896889l177.92-77.255111z m0.967111-130.190222c-4.835556 0-9.614222 0.995556-14.051556 2.901333l-193.308444 83.911111a15.815111 15.815111 0 1 0 12.600889 29.013334l193.308444-83.911111a3.697778 3.697778 0 0 1 2.929778 0l190.577778 83.911111a15.786667 15.786667 0 1 0 12.743111-28.928l-190.577778-83.911111a35.271111 35.271111 0 0 0-14.222222-2.986667z m0-99.555556a35.271111 35.271111 0 0 0-14.051556 2.929778l-193.308444 83.911111a15.815111 15.815111 0 1 0 12.600889 29.013334l193.308444-83.911111a3.697778 3.697778 0 0 1 2.929778 0l190.577778 83.911111a15.786667 15.786667 0 1 0 12.743111-28.928l-190.577778-83.911111c-4.465778-1.991111-9.329778-2.986667-14.222222-2.986667z"  horiz-adv-x="1024" />
      
      <glyph glyph-name="address" unicode="&#59892;" d="M512 384m-512 0a512 512 0 1 1 1024 0 512 512 0 1 1-1024 0ZM660.138667 473.088h-45.909334v32.142222a67.498667 67.498667 0 0 1-67.413333 67.413334h-156.017778a67.498667 67.498667 0 0 1-67.413333-67.413334v-155.989333a67.498667 67.498667 0 0 1 67.413333-67.413333h45.937778v-32.142223a67.498667 67.498667 0 0 1 67.413333-67.413333h155.989334a67.498667 67.498667 0 0 1 67.413333 67.413333v155.989334a67.498667 67.498667 0 0 1-67.413333 67.413333z m36.807111-223.374222c-0.028444-20.309333-16.497778-36.778667-36.807111-36.807111h-155.989334c-20.309333 0.028444-36.750222 16.497778-36.778666 36.807111v32.142222h79.416889a67.498667 67.498667 0 0 1 67.413333 67.413333v44.544a15.331556 15.331556 0 1 1-30.606222 0v-44.572444c-0.028444-20.309333-16.497778-36.750222-36.807111-36.778667H390.826667c-20.309333 0-36.778667 16.497778-36.778667 36.778667v155.989333c0 20.280889 16.469333 36.750222 36.778667 36.778667h155.989333c20.309333-0.028444 36.778667-16.497778 36.807111-36.778667v-32.142222h-79.445333a67.498667 67.498667 0 0 1-67.413334-67.413333v-44.003556a15.331556 15.331556 0 0 1 30.634667 0v44.003556c0 20.280889 16.497778 36.750222 36.778667 36.778666h155.989333c20.309333-0.028444 36.778667-16.497778 36.807111-36.807111v-155.960889z"  horiz-adv-x="1024" />
      
      <glyph glyph-name="chicangjiazhi" unicode="&#59893;" d="M512 384m-512 0a512 512 0 1 1 1024 0 512 512 0 1 1-1024 0ZM512 168.448c-29.098667 0-57.344 5.688889-83.911111 16.924444a215.580444 215.580444 0 0 0-68.522667 46.193778 214.584889 214.584889 0 0 0-63.146666 152.462222 214.528 214.528 0 0 0 63.146666 152.433778A214.442667 214.442667 0 0 0 512 599.580444a215.096889 215.096889 0 0 0 152.462222-63.118222 214.528 214.528 0 0 0 63.118222-152.433778 214.442667 214.442667 0 0 0-63.118222-152.462222A214.442667 214.442667 0 0 0 512 168.448z m0 397.994667A182.584889 182.584889 0 0 1 329.614222 384 182.584889 182.584889 0 0 1 512 201.614222a182.584889 182.584889 0 0 1 182.414222 182.414222A182.641778 182.641778 0 0 1 512 566.442667z m0-328.334223a16.668444 16.668444 0 0 0-16.583111 16.554667v24.775111l-2.531556 0.625778a85.248 85.248 0 0 0-26.168889 11.036444 75.235556 75.235556 0 0 0-16.924444 13.824 16.583111 16.583111 0 1 0 25.031111 21.788445c1.365333-1.564444 4.721778-4.522667 9.472-7.509333 8.704-5.404444 17.976889-8.135111 27.648-8.135112 11.52 0 22.072889 4.096 28.188445 10.922667a17.351111 17.351111 0 0 1 4.949333 13.368889c-1.137778 10.410667-9.898667 17.92-37.518222 32.256l-6.371556 3.271111c-21.219556 11.008-33.109333 18.773333-41.016889 26.794667-8.533333 8.647111-12.8 18.033778-14.222222 31.317333a48.753778 48.753778 0 0 0 11.264 36.807111 67.128889 67.128889 0 0 0 35.697778 21.987556l2.474666 0.654222v24.888889a16.64 16.64 0 0 0 33.223112 0v-24.775111l2.531555-0.597334c9.329778-2.218667 18.090667-5.944889 26.168889-11.036444 9.272889-5.774222 14.563556-11.121778 16.924444-13.824a16.583111 16.583111 0 0 0-25.002666-21.788444 46.250667 46.250667 0 0 1-9.500445 7.509333 51.228444 51.228444 0 0 1-27.648 8.163555c-11.491556 0-22.072889-4.096-28.188444-10.951111a17.493333 17.493333 0 0 1-4.977778-13.368889c1.137778-10.382222 9.898667-17.92 37.546667-32.227555l6.343111-3.271111c21.219556-11.008 33.080889-18.773333 41.016889-26.823111 8.504889-8.647111 12.8-18.033778 14.250666-31.288889 1.422222-13.198222-2.446222-25.941333-11.292444-36.807111a67.015111 67.015111 0 0 0-35.669333-21.959111l-2.503111-0.625778v-24.945778a16.583111 16.583111 0 0 0-16.611556-16.611556z"  horiz-adv-x="1024" />
      
      <glyph glyph-name="sort-down" unicode="&#59459;" d="M2.27555555 815.78666663l509.72444445-509.72444444 509.72444445 509.72444444z"  horiz-adv-x="1024" />
      
      <glyph glyph-name="sort-up" unicode="&#59460;" d="M1021.72444445-47.78666663000001L512 461.93777781l-509.72444445-509.72444444z"  horiz-adv-x="1024" />
      
      <glyph glyph-name="youtube" unicode="&#58895;" d="M548.123981-115.107257h-72.248011c-254.327592 0-462.435919 208.108326-462.435918 462.435918v72.248011c0 254.327592 208.108326 462.435919 462.435918 462.435919h72.248011c254.327592 0 462.435919-208.108326 462.435919-462.435919v-72.248011c0.12163-254.449222-207.986697-462.435919-462.435919-462.435918z m0 0M786.031571 515.055945c-12.162965 40.259413-21.650077 62.517639-61.909491 67.382824 0 0-107.885497 5.473334-215.041216 5.473335-106.061052 0-211.392327-5.473334-211.392327-5.473335-42.692006-4.865186-52.908897-28.339708-63.733935-67.382824 0 0-10.946668-62.15275-10.946668-125.156907 0-64.585343 10.946668-130.022093 10.946668-130.022093 8.514075-37.82682 25.907115-62.517639 63.733935-67.382825 0 0 117.007721-7.297779 228.420478-7.297778 101.317496 0 198.013066 7.297779 198.013065 7.297778 37.82682 7.297779 51.084452 27.123411 61.909491 67.382825 0 0 10.946668 59.841786 10.946668 121.508018 0 65.801639-10.946668 133.670982-10.946668 133.670982zM452.523078 279.945837V494.987053L618.425917 387.466445l-165.902839-107.520608z m0 0"  horiz-adv-x="1024" />
      
      <glyph glyph-name="instagram" unicode="&#59196;" d="M512 384m-426.666667 0a426.666667 426.666667 0 1 1 853.333334 0 426.666667 426.666667 0 1 1-853.333334 0ZM512-128C229.248-128 0 101.24800000000005 0 384S229.248 896 512 896s512-229.248 512-512-229.248-512-512-512z m0 824.874667c-84.992 0-95.573333-0.384-128.981333-1.877334-33.322667-1.536-56.021333-6.826667-75.946667-14.506666-20.906667-7.893333-39.808-20.224-55.466667-36.138667-15.914667-15.616-28.245333-34.56-36.096-55.424-7.722667-19.925333-12.970667-42.624-14.506666-75.946667-1.578667-33.408-1.877333-43.989333-1.877334-128.981333 0-84.992 0.384-95.573333 1.877334-128.981333 1.536-33.28 6.826667-56.021333 14.506666-75.946667 7.893333-20.906667 20.224-39.850667 36.138667-55.466667 15.616-15.914667 34.56-28.245333 55.424-36.053333 19.968-7.722667 42.666667-13.013333 75.946667-14.549333 33.408-1.578667 43.989333-1.877333 128.981333-1.877334 84.992 0 95.573333 0.384 128.981333 1.877334 33.28 1.536 56.021333 6.826667 75.946667 14.549333 20.906667 7.850667 39.808 20.181333 55.466667 36.053333 15.914667 15.658667 28.245333 34.56 36.053333 55.466667 7.722667 19.925333 13.013333 42.666667 14.549333 75.946667 1.578667 33.408 1.877333 43.989333 1.877334 128.981333 0 84.992-0.384 95.573333-1.877334 128.981333-1.536 33.28-6.826667 56.064-14.549333 75.946667a153.6 153.6 0 0 1-36.053333 55.466667 152.448 152.448 0 0 1-55.466667 36.096c-19.925333 7.722667-42.666667 12.970667-75.946667 14.506666-33.408 1.578667-43.989333 1.877333-128.981333 1.877334z m0-56.32c83.498667 0 93.44-0.426667 126.464-1.834667 30.506667-1.408 47.061333-6.485333 58.026667-10.794667 14.677333-5.717333 25.045333-12.458667 36.053333-23.381333 10.922667-10.965333 17.706667-21.333333 23.381333-36.010667 4.266667-11.008 9.386667-27.562667 10.752-58.069333 1.493333-32.981333 1.834667-42.922667 1.834667-126.464s-0.426667-93.44-1.92-126.464c-1.621333-30.506667-6.656-47.061333-11.008-58.026667-5.077333-13.653333-13.056-25.898667-23.424-36.053333-10.112-10.368-22.4-18.346667-35.968-23.381333-10.965333-4.266667-27.776-9.386667-58.282667-10.752-33.194667-1.493333-43.008-1.834667-126.677333-1.834667-83.754667 0-93.525333 0.426667-126.72 1.92-30.506667 1.621333-47.36 6.656-58.325333 11.008a96.853333 96.853333 0 0 0-35.925334 23.424 95.018667 95.018667 0 0 0-23.466666 35.968c-4.309333 10.965333-9.386667 27.776-10.922667 58.282667-1.194667 32.853333-1.621333 43.008-1.621333 126.293333 0 83.328 0.426667 93.525333 1.621333 126.762667 1.578667 30.506667 6.613333 47.274667 10.922667 58.24 5.461333 14.848 12.501333 25.002667 23.466666 36.010666 10.922667 10.922667 21.12 17.962667 35.968 23.424 10.965333 4.309333 27.392 9.386667 57.898667 10.965334 33.237333 1.152 43.008 1.536 126.72 1.536l1.152-0.768z m0-95.872a160.682667 160.682667 0 1 1 0-321.365334 160.682667 160.682667 0 0 1 0 321.365334z m0-264.96a104.277333 104.277333 0 1 0-0.042667 208.512A104.277333 104.277333 0 0 0 512 279.67999999999995z m204.586667 271.274666a37.546667 37.546667 0 1 1-75.093334 0 37.546667 37.546667 0 0 1 75.093334 0z"  horiz-adv-x="1024" />
      
      <glyph glyph-name="Wechat" unicode="&#59609;" d="M0 384C0 666.784 229.216 896 512 896s512-229.216 512-512-229.216-512-512-512S0 101.216 0 384z m645.184 100.576c3.424 0 6.848-0.032 10.24-0.224-17.92 97.856-119.008 172.704-240.96 172.704-134.656 0-243.808-91.264-243.808-203.872 0-66.048 37.536-124.736 95.68-161.984l2.24-1.44-23.52-73.76 88.128 44.896 4.16-1.216a287.872 287.872 0 0 1 93.504-9.92 158.112 158.112 0 0 0-7.744 48.64c0 102.848 99.456 186.176 222.08 186.176z m-204.16-187.36c0-95.136 92.256-172.256 206.016-172.256 22.72 0 44.704 3.104 65.152 8.832l3.52 0.992 74.4-37.952-19.904 62.368 1.92 1.184c49.12 31.456 80.832 81.024 80.832 136.832 0 95.136-92.224 172.256-205.92 172.256-113.76 0-206.016-77.12-206.016-172.256zM499.296 556.512c18.912 0 34.24-14.784 34.24-33.12 0-18.272-15.328-33.152-34.24-33.152-18.912 0-34.24 14.88-34.24 33.152 0 18.336 15.328 33.12 34.24 33.12M689.76 356.576c0 15.424 12.928 27.968 28.896 27.968 16 0 28.928-12.544 28.928-27.968a28.48 28.48 0 0 0-28.928-28.064 28.48 28.48 0 0 0-28.896 28.064M546.4 356.576c0 15.424 12.992 27.968 28.928 27.968 16 0 28.96-12.544 28.96-27.968 0-15.488-12.96-28.064-28.96-28.064-15.936 0-28.928 12.576-28.928 28.064M329.6 490.24c-18.88 0-34.24 14.88-34.24 33.152 0 18.336 15.36 33.12 34.24 33.12 18.944 0 34.304-14.784 34.304-33.12 0-18.272-15.36-33.152-34.272-33.152"  horiz-adv-x="1024" />
      
      <glyph glyph-name="discord" unicode="&#58892;" d="M0 384a512 512 0 1 1 1024 0A512 512 0 1 1 0 384zM190.915 661.695h642.169v-477.288H190.915zM698.157-36.274L157.288 33.15c-58.43 7.5-55.4 191.167-50.26 249.853l26.034 297.22c5.14 58.686 74.356 120.22 132.7 128.362l466.441 65.085c58.346 8.14 177.24-212.65 176.09-271.548l-8.677-445.108M512 595.627c-114.347 0-194.56-49.067-194.56-49.067 43.947 39.253 120.747 61.867 120.747 61.867l-7.254 7.253c-72.106-1.28-137.386-51.2-137.386-51.2-73.387-153.173-68.694-285.44-68.694-285.44 59.734-77.227 148.48-71.68 148.48-71.68l30.294 38.4c-53.334 11.52-87.04 58.88-87.04 58.88S396.8 250.027 512 250.027c115.2 0 195.413 54.613 195.413 54.613s-33.706-47.36-87.04-58.88l30.294-38.4s88.746-5.547 148.48 71.68c0 0 4.693 132.267-68.694 285.44 0 0-65.28 49.92-137.386 51.2l-7.254-7.253s76.8-22.614 120.747-61.867c0 0-80.213 49.067-194.56 49.067M423.68 433.92c27.733 0 50.347-24.32 49.92-54.187 0-29.44-22.187-54.186-49.92-54.186-27.307 0-49.493 24.746-49.493 54.186 0 29.867 21.76 54.187 49.493 54.187m177.92 0c27.733 0 49.92-24.32 49.92-54.187 0-29.44-22.187-54.186-49.92-54.186-27.307 0-49.493 24.746-49.493 54.186 0 29.867 21.76 54.187 49.493 54.187z"  horiz-adv-x="1024" />
      
      <glyph glyph-name="liulanqi" unicode="&#59767;" d="M512 896C229.660444 896 0 666.339556 0 384s229.660444-512 512-512 512 229.660444 512 512-229.660444 512-512 512zM68.266667 384c0 107.008 38.115556 205.312 101.376 281.998222 6.656-7.395556 12.117333-17.237333 14.620444-30.264889 5.347556-27.875556-14.222222-119.580444 10.638222-139.719111 38.001778-30.72 96.711111-4.892444 126.976-23.495111 30.549333-18.773333 106.837333-106.325333 136.590223-88.519111 50.062222 29.866667-35.726222 147.968-39.424 179.882667-5.461333 47.331556 24.462222 102.798222 78.904888 82.659555 34.190222-12.629333 41.301333-58.254222 73.272889-60.131555 31.914667-1.877333 17.009778 98.417778 16.896 114.574222-0.341333 45.283556 44.259556 77.482667 91.704889 93.696C841.500444 728.348444 955.733333 569.344 955.733333 384a440.888889 440.888889 0 0 0-50.915555-205.994667c-3.697778 39.708444-13.368889 83.911111-37.546667 97.507556-46.933333 26.282667-99.214222 1.137778-137.102222 43.178667-15.701333 17.351111 3.982222 95.004444-43.178667 113.664-91.704889 36.295111-166.058667-38.570667-188.586666-98.645334a176.071111 176.071111 0 0 1-8.248889-85.902222c0.910222-96.312889-48.924444-96.369778-29.980445-135.054222 20.707556-42.325333 94.776889-27.306667 80.327111-115.882667-1.991111-13.084444-8.305778-25.031111-17.976889-34.133333-8.590222-5.688889-17.351111-11.150222-26.282666-16.384a124.131556 124.131556 0 0 0-15.246222-4.892445C250.766222-42.609778 68.266667 149.731556 68.266667 384z"  horiz-adv-x="1024" />
      
      <glyph glyph-name="guanwang" unicode="&#59768;" d="M1002.315294 760.952471a364.001882 364.001882 0 0 1-512 53.790117L370.447059 717.643294l59.873882-73.968941 119.868235 97.099294a268.890353 268.890353 0 1 0 338.401883-417.912471l-128.421647-104.026352 59.873882-73.968942 128.421647 104.026353a364.001882 364.001882 0 0 1 53.850353 512zM533.383529 35.177412a268.890353 268.890353 0 1 0-338.401882 417.91247L327.077647 560.007529 267.143529 633.976471 135.107765 527.058824a364.062118 364.062118 0 0 1 458.149647-565.850353l125.108706 101.255529-59.934118 74.029176-125.048471-101.315764zM723.546353 594.703059l60.897882-73.125647-408.69647-340.630588-60.897883 73.125647z"  horiz-adv-x="1084" />
      
      <glyph glyph-name="baipishu" unicode="&#59769;" d="M458.859789 452.769684H268.880842a37.941895 37.941895 0 1 0 0 75.991579h189.978947a37.941895 37.941895 0 1 0 0-75.991579z m291.893895-151.983158H269.473684a37.941895 37.941895 0 1 0 0 75.991579h481.28a37.941895 37.941895 0 1 0 0-75.991579z m0-151.929263H269.473684a37.941895 37.941895 0 1 0 0 75.991579h481.28a37.941895 37.941895 0 1 0 0-75.991579zM543.151158 820.008421l311.673263-311.619368a38.157474 38.157474 0 0 0 11.156211-26.839579v-484.621474c0-21.018947-16.976842-37.995789-37.99579-37.995789H194.829474a37.941895 37.941895 0 0 0-37.99579 37.995789V782.012632c0 21.018947 16.976842 37.995789 37.99579 37.995789h348.321684M574.733474 896H156.833684A75.991579 75.991579 0 0 1 80.842105 820.008421v-861.07621c0-41.930105 34.061474-75.991579 75.991579-75.991579h709.146948a75.991579 75.991579 0 0 1 75.991579 75.991579V528.761263L574.679579 896zM650.671158 712.488421l107.789474-107.789474h-107.789474v107.789474M574.679579 896v-329.242947c0-21.018947 16.976842-37.995789 37.995789-37.99579h329.296843L574.679579 896z"  horiz-adv-x="1024" />
      
      <glyph glyph-name="telegram" unicode="&#59771;" d="M512 384m-512 0a512 512 0 1 1 1024 0 512 512 0 1 1-1024 0ZM679.424 149.12l84.010667 396.032c7.424 34.816-12.586667 48.554667-35.413334 39.978667L234.24 394.837333c-33.706667-13.098667-33.152-32-5.717333-40.533333l126.293333-39.424 293.12 184.576c13.738667 9.130667 26.325333 3.968 16.042667-5.12l-237.141334-214.314667-9.130666-130.304c13.141333 0 18.858667 5.717333 25.728 12.586667l61.696 59.434667 128-94.293334c23.466667-13.141333 39.978667-6.272 46.293333 21.76l-0.042667-0.085333zM1024 384c0-282.88-229.12-512-512-512S0 101.12 0 384 229.12 896 512 896s512-229.12 512-512z"  horiz-adv-x="1024" />
      
      <glyph glyph-name="medium" unicode="&#59772;" d="M512 384m-512 0a512 512 0 1 1 1024 0 512 512 0 1 1-1024 0ZM512 896C229.248 896 0 666.752 0 384s229.248-512 512-512 512 229.248 512 512S794.752 896 512 896z m292.565333-289.962667l-46.634666-44.672a13.525333 13.525333 0 0 1-5.248-13.013333v-328.789333a13.354667 13.354667 0 0 1 5.248-13.056l45.738666-44.672v-9.941334h-229.504v9.472l47.189334 45.824c4.693333 4.693333 4.693333 6.058667 4.693333 13.056V486.272l-131.413333-333.226667h-17.706667l-152.917333 333.226667v-223.402667a30.421333 30.421333 0 0 1 8.533333-25.6l61.525333-74.410666v-9.941334H219.434667v9.941334l61.44 74.410666a29.824 29.824 0 0 1 8.021333 25.6V521.130667a22.186667 22.186667 0 0 1-7.424 19.114666l-54.613333 65.792v9.984h169.728l130.986666-287.445333 115.285334 287.189333h161.706666v-9.728z"  horiz-adv-x="1024" />
      
      <glyph glyph-name="twitter" unicode="&#59773;" d="M512 384m-512 0a512 512 0 1 1 1024 0 512 512 0 1 1-1024 0ZM1024 384c0 282.752-229.248 512-512 512S0 666.752 0 384s229.248-512 512-512 512 229.248 512 512zM236.330667 202.069333a218.368 218.368 0 0 1 167.466666 49.450667c-49.536 1.109333-91.306667 36.138667-105.685333 84.181333a107.093333 107.093333 0 0 1 51.072 1.706667c-51.754667 11.434667-90.752 60.586667-90.752 119.04v1.578667c15.274667-9.216 32.682667-14.805333 51.2-15.658667-30.293333 21.930667-50.218667 59.178667-50.218667 101.034667 0 22.186667 5.546667 42.837333 15.317334 60.544 55.808-73.813333 139.136-122.752 233.130666-128.853334a125.994667 125.994667 0 0 0-2.944 27.306667c0 66.133333 50.645333 118.954667 113.109334 117.930667a112.554667 112.554667 0 0 0 82.56-38.997334 216.448 216.448 0 0 1 71.850666 27.733334 115.925333 115.925333 0 0 0-49.792-64.981334 215.466667 215.466667 0 0 1 64.981334 17.749334 232.533333 232.533333 0 0 0-56.448-60.672c0.256-5.12 0.341333-10.24 0.341333-15.36 0-157.013333-113.834667-338.176-321.877333-338.048a304.64 304.64 0 0 0-173.312 54.314666z"  horiz-adv-x="1024" />
      
      <glyph glyph-name="instagram1" unicode="&#59774;" d="M490.666667 362.666667m-490.666667 0a490.666667 490.666667 0 1 1 981.333333 0 490.666667 490.666667 0 1 1-981.333333 0ZM729.6 895.658667H293.546667C132.906667 895.658667 0.341333 765.610667 0.341333 602.453333V166.4c0-160.64 130.048-293.248 293.205334-293.248H729.6c160.64 0 293.248 130.048 293.248 293.248V602.453333C1020.288 765.610667 890.24 895.658667 729.6 895.658667z m-216.746667-770.048a262.272 262.272 0 0 0-262.656 262.613333 262.272 262.272 0 0 0 262.656 262.656 262.272 262.272 0 0 0 262.656-262.656 262.272 262.272 0 0 0-262.656-262.613333zM783.146667 599.893333a62.037333 62.037333 0 0 0-61.184 61.184c0 33.152 28.032 61.184 61.184 61.184 33.152 0 61.184-28.032 61.184-61.184 0-33.152-28.032-61.184-61.184-61.184zM512.853333 556.544a168.106667 168.106667 0 0 1-168.277333-168.32 168.106667 168.106667 0 0 1 168.277333-168.277333 168.106667 168.106667 0 0 1 168.32 168.277333c0 91.818667-76.501333 168.32-168.32 168.32z"  horiz-adv-x="1024" />
      
      <glyph glyph-name="wechat" unicode="&#59775;" d="M533.333333 362.666667m-448 0a448 448 0 1 1 896 0 448 448 0 1 1-896 0ZM348.373333 540.8a30.464 30.464 0 0 1 0.170667-60.928 30.464 30.464 0 0 1-0.170667 60.928m152.32-60.928a30.421333 30.421333 0 0 1-0.341333 60.885333 30.464 30.464 0 0 1 0.341333-60.885333m73.472-98.048a25.429333 25.429333 0 0 1-17.834666-43.306667 25.173333 25.173333 0 0 1 43.093333 18.090667 25.301333 25.301333 0 0 1-25.258667 25.216M827.605333 296.576c-2.005333-29.397333-12.970667-55.296-31.061333-78.250667a171.52 171.52 0 0 0-32.682667-31.616c-6.826667-5.12-8.106667-8.789333-5.973333-16.981333 2.858667-10.794667 5.717333-21.546667 8.704-32.341333 0.853333-3.114667 0.725333-5.973333-2.048-8.021334-2.688-2.133333-5.418667-1.493333-8.106667 0.085334-13.312 7.722667-26.709333 15.36-39.893333 23.125333a22.528 22.528 0 0 1-18.56 2.389333c-51.456-13.866667-101.845333-10.965333-150.613333 10.752-35.413333 15.786667-64.085333 39.722667-83.114667 74.112a133.376 133.376 0 0 0-16.853333 72.149334c1.536 31.573333 13.184 59.264 33.194666 83.413333 24.917333 30.165333 57.130667 49.322667 94.293334 60.373333a224.213333 224.213333 0 0 0 67.114666 8.746667c32.426667-0.213333 64.341333-7.893333 93.269334-22.528 34.176-17.152 61.44-41.813333 78.634666-76.416 10.794667-21.76 15.36-44.885333 13.696-68.992m-393.386666-37.888a271.36 271.36 0 0 0-83.968 10.24 23.765333 23.765333 0 0 1-19.2-2.56l-47.957334-27.733333-1.92-1.109334c-3.114667-1.834667-6.229333-2.048-9.173333 0.384-2.986667 2.261333-3.328 5.461333-2.474667 8.832 1.109333 4.266667 2.346667 8.490667 3.498667 12.714667l7.381333 27.733333c2.176 8.405333 0.298667 13.653333-6.698666 18.858667a208.213333 208.213333 0 0 0-35.754667 33.28c-21.034667 25.045333-35.072 53.333333-39.978667 85.802667a159.445333 159.445333 0 0 0 16.810667 99.754666c18.858667 36.181333 47.36 63.018667 82.645333 82.901334a250.88 250.88 0 0 0 91.861334 29.994666c11.733333 1.450667 23.509333 2.304 35.328 2.218667a258.816 258.816 0 0 0 107.349333-22.442667c40.832-18.432 74.368-45.482667 97.621333-84.352a162.133333 162.133333 0 0 0 19.754667-50.816c0.725333-3.2 0.682667-3.2-2.56-3.072a241.237333 241.237333 0 0 1-89.6-13.312c-39.168-13.866667-72.32-36.096-97.237333-69.76a150.656 150.656 0 0 1-29.994667-78.549333c-1.706667-18.944 0.512-37.973333 6.357333-56.064 0.725333-2.304 0.512-2.901333-2.133333-2.944M512 896C229.248 896 0 666.752 0 384c0-282.794667 229.248-512 512-512s512 229.205333 512 512c0 282.752-229.248 512-512 512M701.013333 381.866667a25.301333 25.301333 0 1 1 25.258667-25.514667 25.472 25.472 0 0 1-25.216 25.472"  horiz-adv-x="1024" />
      
      <glyph glyph-name="Btok" unicode="&#59776;" d="M512 384m-512 0a512 512 0 1 1 1024 0 512 512 0 1 1-1024 0ZM246.613333 184.91733299999999s-74.88-53.76 0-105.6c72.96-8.618667 185.216-0.938667 185.216-0.938666v-77.738667h47.061334v74.837333h109.397333v-74.837333h53.76v72.96s170.837333-21.162667 207.317333 145.877333c2.773333 103.296-63.36 142.72-63.36 142.72s88.32 68.394667 53.76 173.994667c-34.56 105.557333-124.8 117.077333-199.68 113.237333L639.146667 725.333333H589.226667v-75.904H483.712V725.333333H430.933333v-75.904l-175.658666-1.92s-85.418667-39.338667-7.68-109.397333L246.613333 184.91733299999999zM650.666667 547.541333a42.666667 42.666667 0 0 0 42.666666-42.666666v-234.666667a42.666667 42.666667 0 0 0-42.666666-42.666667H426.453333c-35.413333-67.029333-53.12-79.488-53.12-37.418666V504.874667a42.666667 42.666667 0 0 0 42.666667 42.666666h234.666667zM488.874667 405.333333a26.666667 26.666667 0 1 1 0-53.333333 26.666667 26.666667 0 0 1 0 53.333333z m106.666666 0a26.666667 26.666667 0 1 1 0-53.333333 26.666667 26.666667 0 0 1 0 53.333333z"  horiz-adv-x="1024" />
      
      <glyph glyph-name="right" unicode="&#59181;" d="M275.692308 35.446154V732.553846c0 19.692308 25.6 33.476923 43.323077 17.723077l417.476923-340.676923c15.753846-11.815385 15.753846-37.415385 0-49.230769L319.015385 15.753846c-17.723077-13.784615-43.323077-1.969231-43.323077 19.692308z"  horiz-adv-x="1024" />
      
      <glyph glyph-name="plus" unicode="&#59646;" d="M462.80754569 850.03377778m10.35630616 0l77.6722963 0q10.35630617 0 10.35630616-10.35630617l0-911.35494322q0-10.35630617-10.35630616-10.35630617l-77.6722963 0q-10.35630617 0-10.35630616 10.35630617l0 911.35494322q0 10.35630617 10.35630616 10.35630617ZM66.67883457 433.19245431m10.35630618 0l869.9297185 0q10.35630617 0 10.35630618-10.35630616l0-77.6722963q0-10.35630617-10.35630618-10.35630616l-869.9297185 0q-10.35630617 0-10.35630618 10.35630616l0 77.6722963q0 10.35630617 10.35630618 10.35630616Z"  horiz-adv-x="1024" />
      
      <glyph glyph-name="fenxiang" unicode="&#59568;" d="M900.3614811 359.72740779000003a36.40888889 36.40888889 0 0 0 72.81777778 0v-303.40740779c0-73.728-59.77125888-133.49925888-133.49925888-133.49925888H184.32c-73.728 0-133.49925888 59.77125888-133.49925888 133.49925888V675.27111111c0 73.728 59.77125888 133.49925888 133.49925888 133.49925888h315.54370333a36.40888889 36.40888889 0 0 0 0-72.81777778H184.32a60.6814811 60.6814811 0 0 1-60.6814811-60.6814811v-618.95111111a60.6814811 60.6814811 0 0 1 60.6814811-60.6814811h655.36a60.6814811 60.6814811 0 0 1 60.6814811 60.6814811V359.72740779000003z m-47.85341553 315.54370332l-102.16334223 108.54703446a36.40888889 36.40888889 0 0 0 53.03561444 49.90444998l159.90784-169.90814776C985.15778333 640.58557667 968.67669333 602.4533333300001 936.77036999 602.4533333300001H754.00988445C661.08226333 602.4533333300001 584.81777778 521.43141888 584.81777778 420.40888889v-218.45333334a36.40888889 36.40888889 0 1 0-72.81777778 0V420.40888889c0 140.28344889 107.84312889 254.86222222 242.00988445 254.86222222h98.49818112z"  horiz-adv-x="1024" />
      
      <glyph glyph-name="jiancebaogao" unicode="&#59803;" d="M501.76 895.616C322.112 829.248 89.792 796.032 89.792 796.032c-13.696-1.92-25.408-15.616-25.408-31.232v-372.928c0-3.84 5.888-83.968 58.56-179.584 31.296-56.64 95.68-107.392 146.432-150.4 62.528-52.672 138.624-95.616 228.48-124.928l7.808-1.92 7.808 1.92c87.872 29.312 163.968 72.256 226.496 124.992 50.752 42.88 115.2 93.696 146.432 150.336 52.672 95.616 58.56 177.664 58.56 179.584V764.8c0 13.696-11.712 27.328-25.408 31.232-3.84 0-204.992 33.216-417.792 99.584zM304.576 290.368A37.76 37.76 0 0 0 275.2 304c-13.696 15.68-13.696 41.024 1.92 54.72l138.624 126.912c15.616 13.632 39.04 13.632 52.736 0l85.888-80.064 169.92 167.872c15.616 15.616 40.96 15.616 54.656 0 15.616-15.616 15.616-40.96 0-54.656L583.68 323.584a37.76 37.76 0 0 0-54.656 0l-85.888 81.92-111.36-101.504a34.112 34.112 0 0 0-27.264-13.632zM671.616 583.232c-9.792-3.904-11.712-13.696-3.904-19.52l111.296-95.68c7.808-7.808 15.616-3.904 17.536 5.888l19.52 122.944c1.92 9.792-5.824 23.488-13.632 27.392l-17.6 7.808-113.28-48.832zM284.992 309.888a37.76 37.76 0 0 0-29.248 13.696c-13.696 15.616-13.696 40.96 1.92 54.656l138.624 126.912c15.616 13.632 39.04 13.632 52.736 0l85.888-80.064 169.856 167.872c15.616 15.68 41.024 15.68 54.72 0 15.616-15.616 15.616-40.96 0-54.656l-195.264-195.2a37.76 37.76 0 0 0-54.656 0L423.616 424.96 312.384 323.648a34.112 34.112 0 0 0-27.392-13.696zM654.08 600.832c-9.792-1.984-11.776-9.792-3.968-17.6l113.28-95.68c7.808-7.808 15.616-3.84 17.536 5.888l19.52 124.928a12.928 12.928 0 0 1-15.616 15.616l-130.816-33.152z"  horiz-adv-x="1024" />
      
      <glyph glyph-name="suo" unicode="&#58893;" d="M919.2 370.7h-80c0 211.1-148.2 382.9-330.4 382.9S178.4 581.8 178.4 370.7h-80c0 61.9 10.6 121.9 31.6 178.5 20.4 54.9 49.6 104.4 86.8 146.9 37.6 42.9 81.5 76.7 130.4 100.3 51.1 24.7 105.5 37.2 161.6 37.2 56.1 0 110.4-12.5 161.6-37.2 49-23.7 92.9-57.4 130.4-100.3 37.2-42.5 66.4-91.9 86.8-146.9 20.9-56.6 31.6-116.7 31.6-178.5zM515-63.6H124.2c-33.1 0-60 26.8-60 60V580.1c0 33.1 26.8 60 60 60H515v-703.7zM515 640h385.4c33.1 0 60-26.8 60-60v-583.7c0-33.1-26.8-60-60-60H515V640zM514.7 332.7m-92.4 0a92.4 92.4 0 1 1 184.8 0 92.4 92.4 0 1 1-184.8 0ZM492.6 277.5h44.2v-85.4h-44.2z"  horiz-adv-x="1024" />
      
      <glyph glyph-name="alert" unicode="&#59006;" d="M512-96c-262.4 0-480 217.6-480 480S249.6 864 512 864s480-217.6 480-480S774.4-96 512-96zM512 787.2C288 787.2 108.8 608 108.8 384s179.2-403.2 403.2-403.2c224 0 403.2 179.2 403.2 403.2S736 787.2 512 787.2zM512 153.60000000000002c-19.2 0-38.4 19.2-38.4 38.4 0 19.2 19.2 38.4 38.4 38.4 19.2 0 38.4-19.2 38.4-38.4C550.4 172.79999999999995 531.2 153.60000000000002 512 153.60000000000002zM518.4 268.79999999999995L505.6 268.79999999999995c-6.4 0-12.8 12.8-12.8 32L473.6 601.6c0 12.8 12.8 25.6 25.6 25.6l19.2 0c12.8 0 32-12.8 32-25.6L531.2 300.79999999999995C531.2 281.6 524.8 268.79999999999995 518.4 268.79999999999995z"  horiz-adv-x="1024" />
      
      <glyph glyph-name="uschain" unicode="&#60613;" d="M512 387.657143m-508.342857 0a508.342857 508.342857 0 1 1 1016.685714 0 508.342857 508.342857 0 1 1-1016.685714 0ZM405.47799313 867.78744498v-195.29034411c173.0982598 62.13783703 399.45752364-39.94575273 403.89594075-284.05868377-22.19208431-408.33435785-554.80211623-390.58068943-594.74786776-31.06891851h-4.4384171V783.45752364c-106.52200687-79.89150425-181.97509401-213.04401252-195.29034532-395.01910654 26.63050141-639.13203758 954.25963986-670.2009561 989.76697549 0-8.87683421 368.38860512-328.44285238 532.61003193-599.18628606 479.34902788zM482.742857 252.34285699999998s25.6-14.628571 51.2 0 106.057143 109.714286 106.057143 109.714286 18.285714 25.6 0 47.542857l-106.057143 106.057143s-25.6 18.285714-47.542857 3.657143l-87.771429-106.057143s-32.914286-36.571429 0-69.485714c32.914286-32.914286 84.114286-91.428571 84.114286-91.428572z"  horiz-adv-x="1024" />
      
      <glyph glyph-name="ashbin" unicode="&#58981;" d="M952.14301275 712.81272059h-245.962272V798.25224651c0 49.19245392-41.42522429 90.61767941-90.61767943 90.61767941h-207.12612264c-49.19245392 0-90.61767941-41.42522429-90.61767943-90.61767941v-85.43952592H71.85698725c-20.71261275 0-38.83614815-18.12353539-38.83614815-38.83614815s18.12353539-38.83614815 38.83614815-38.83614815h64.72691439V-30.252246509999964c0-49.19245392 41.42522429-90.61767941 90.6176782-90.61767941h569.59684032c49.19245392 0 90.61767941 41.42522429 90.6176782 90.61767941V635.14042429H952.14301275c20.71261275 0 38.83614815 18.12353539 38.83614815 38.83614815s-18.12353539 38.83614815-38.83614815 38.83614815zM395.49155555 798.25224651c0 7.76722963 5.17815349 12.94538311 12.94538313 12.94538312h207.12612264c7.76722963 0 12.94538311-5.17815349 12.94538313-12.94538312v-85.43952592h-233.0168889V798.25224651z m414.25224651-828.50449302c0-7.76722963-5.17815349-12.94538311-12.9453819-12.94538312H227.20157984c-7.76722963 0-12.94538311 5.17815349-12.9453819 12.94538312V629.96227201h595.48760412V-30.252246509999964zM408.43693868 112.14696297c20.71261275 0 38.83614815 18.12353539 38.83614815 38.83614814V409.89076502c0 20.71261275-18.12353539 38.83614815-38.83614815 38.83614815s-38.83614815-18.12353539-38.83614815-38.83614815v-258.90765391c0-20.71261275 18.12353539-38.83614815 38.83614815-38.83614814zM615.56306132 112.14696297c20.71261275 0 38.83614815 18.12353539 38.83614815 38.83614814V409.89076502c0 20.71261275-18.12353539 38.83614815-38.83614815 38.83614815s-38.83614815-18.12353539-38.83614815-38.83614815v-258.90765391c0-20.71261275 18.12353539-38.83614815 38.83614815-38.83614814z"  horiz-adv-x="1024" />
      
      <glyph glyph-name="zhongmingming" unicode="&#59762;" d="M82.221176 359.363765v-196.48753c0.602353-25.901176 21.925647-46.501647 47.887059-46.20047h202.691765a47.585882 47.585882 0 0 1 33.611294 13.854117l506.217412 490.315294a45.176471 45.176471 0 0 1 0 65.114353L669.816471 881.904941a49.453176 49.453176 0 0 1-33.551059 13.733647 46.863059 46.863059 0 0 1-33.611294-13.733647L95.954824 392.131765a45.959529 45.959529 0 0 1-13.733648-32.527059v-0.240941z m95.292236-19.215059l1.024 1.084235 457.788235 443.572706 134.927059-131.011765-458.872471-444.054588h-134.927059V340.148706zM79.751529-79.209412h809.682824a46.260706 46.260706 0 1 1 0 92.461177H79.209412a46.260706 46.260706 0 1 1 0-92.461177h0.542117z"  horiz-adv-x="1024" />
      
      <glyph glyph-name="edit" unicode="&#58990;" d="M949.00780206 419.70093867c-20.71261275 0-38.83614815-18.12353539-38.83614815-38.83614814v-388.36148148c0-7.76722963-5.17815349-12.94538311-12.94538191-12.94538313H120.50330905c-7.76722963 0-12.94538311 5.17815349-12.94538313 12.94538313V769.226272c0 7.76722963 5.17815349 12.94538311 12.94538313 12.94538191h388.36148148c20.71261275 0 38.83614815 18.12353539 38.83614814 38.83614815s-18.12353539 38.83614815-38.83614814 38.83614815H120.50330905c-49.19245392 0-90.61767941-41.42522429-90.61767942-90.61767821v-776.72296295c0-49.19245392 41.42522429-90.61767941 90.61767942-90.61767942h776.72296295c49.19245392 0 90.61767941 41.42522429 90.61767821 90.61767942V380.86479053000005c0 20.71261275-18.12353539 38.83614815-38.83614815 38.83614814zM405.30172799 440.41355021l-38.83614815-152.75551524c-2.58907614-12.94538311 0-28.47984238 10.35630699-36.247072 7.76722963-7.76722963 18.12353539-10.35630577 28.47984116-10.35630578h10.35630698l152.75551524 38.83614814c7.76722963 2.58907614 12.94538311 5.17815349 18.12353662 10.35630577l365.05979258 365.0597926c46.60337778 46.60337778 46.60337778 124.27567408 0 170.87905185-46.60337778 46.60337778-124.27567408 46.60337778-170.87905185 0L415.65803497 458.53708683c-5.17815349-5.17815349-7.76722963-10.35630577-10.35630698-18.12353662z m72.49414401-28.47984116L837.6775111 769.226272c15.53445925 15.53445925 44.01430164 15.53445925 59.5487609 0 15.53445925-15.53445925 15.53445925-44.01430164 0-59.5487609L539.93370905 349.79587200000003l-80.26137366-20.71261275 18.12353661 82.8504498z"  horiz-adv-x="1024" />
      
      <glyph glyph-name="nervos" unicode="&#59766;" d="M512 384m-512 0a512 512 0 1 1 1024 0 512 512 0 1 1-1024 0ZM208.592593 194.37036999999998l221.677037 379.25926h260.077037v-379.25926l120.604444 120.130371V194.37036999999998H567.049481V573.62963l-220.349629-379.25926z"  horiz-adv-x="1024" />
      
      <glyph glyph-name="avalanche" unicode="&#59017;" d="M512 384m-512 0a512 512 0 1 1 1024 0 512 512 0 1 1-1024 0ZM542.6432 744.0128c-17.7408 30.634667-45.960533 30.634667-63.701333 0L156.8256 176.77653299999997c-17.732267-31.035733-3.2256-55.637333 32.256-55.637333h161.664a102.382933 102.382933 0 0 1 79.8208 46.7712L625.288533 505.344a105.9584 105.9584 0 0 1 0 92.330667l-58.052266 101.9904-24.593067 44.347733zM756.718933 370.688c-17.749333 30.634667-46.3616 30.634667-64.1024 0L580.138667 176.77653299999997c-17.339733-30.634667-2.824533-55.637333 32.256-55.637333h222.532266c35.473067 0 49.988267 25.002667 32.247467 55.637333L756.718933 370.69653300000004z"  horiz-adv-x="1024" />
      
      <glyph glyph-name="xiazai" unicode="&#58951;" d="M746.7 299c-11.4 16.3-33.8 20.3-50.1 8.9L548 204.1V710.3c0 19.9-16.1 36-36 36s-36-16.1-36-36v-504.7L327 308.8c-16.5 11.4-38.9 7.5-50-8.8-11.1-16.3-6.8-38.7 9.7-50.1l205.5-142.4c0.3-0.2 0.5-0.3 0.8-0.5 12.1-8.6 28.7-9.1 41.5-0.2l203.3 142.1c16.3 11.4 20.2 33.8 8.9 50.1zM924 256c-19.9 0-36-16.1-36-36v-189.3c0-12.6-6.7-22.7-15-22.7H151c-8.3 0-15 10.2-15 22.7V220c0 19.9-16.1 36-36 36s-36-16.1-36-36v-197c0-48 39-87 87-87h722c48 0 87 39 87 87V220c0 19.9-16.1 36-36 36z"  horiz-adv-x="1024" />
      
      <glyph glyph-name="arbitrum" unicode="&#59167;" d="M623.490832 423.140918l70.995868 120.470354 191.364668-298.057595 0.091598-57.20251-0.62326 393.613485a29.65562 29.65562 0 0 1-13.713708 23.61418L527.076715 803.757543c-8.054588 3.962579-18.279634 3.91678-26.324265-0.125449-1.08722-0.541619-2.11072-1.13501-3.082448-1.782165l-1.202713-0.754682-334.417737-193.791996-1.296301-0.589409c-1.668664-0.76663-3.35724-1.74234-4.938289-2.875358a29.534154 29.534154 0 0 1-11.913622-18.813288 29.649646 29.649646 0 0 1-0.426127-3.482689l0.525689-320.755802 178.246343 276.27536c22.443328 36.632944 71.336371 48.433065 116.726812 47.791884l53.271792-1.40582L178.355861 80.057279l37.001324-21.300353L533.004653 582.936379l140.402722 0.509759-316.829066-537.407297 132.031525-75.942122 15.774648-9.072114c6.672664-2.712076 14.540075-2.849472 21.268493-0.418162l349.37 202.465862-66.79434-38.70583-184.737803 298.774443z m27.084922-390.13677l-133.351721 209.295834 81.404108 138.134693L773.762167 104.392291l-123.186413-71.388143zM517.226024 242.301973l133.34973-209.297825 123.188404 71.390134-175.136017 276.042384zM885.942966 188.353158l-0.091598 57.20251-191.364668 298.057595-70.995868-120.470354 184.735812-298.772452 66.79434 38.705831a29.609821 29.609821 0 0 1 10.931938 21.555232l-0.009956 3.721638zM84.032552 134.410317l94.323309-54.353038 313.887997 503.388859-53.271792 1.40582c-45.390442 0.641181-94.285475-11.15894-116.726812-47.791884L143.998911 260.784714l-59.966359-92.136921v-34.237476zM673.407375 583.446138l-140.402722-0.509759L215.357185 58.756926l111.027868-63.924955 30.193256 51.20687zM945.108844 584.16896c-1.174835 29.362906-17.072939 56.24273-41.975456 71.891929L554.087961 856.788393c-24.633698 12.403468-55.406407 12.419398-80.083912 0.007965-2.917175-1.47153-339.437668-196.639478-339.437668-196.639477a89.51246 89.51246 0 0 1-13.363249-7.915201c-22.230265-15.931955-35.780691-40.691102-37.172571-67.891516v-415.702371l59.966359 92.136921-0.523698 320.755802c0.069694 1.172844 0.217046 2.327766 0.426127 3.466759a29.538136 29.538136 0 0 0 11.913622 18.829217c1.58304 1.133019 343.852259 199.251992 344.939479 199.795602 8.044632 4.040237 18.269678 4.088027 26.324265 0.125449l344.529283-198.174728a29.65562 29.65562 0 0 0 13.713708-23.614181v-397.337114c-0.41617-8.42496-3.747524-16.232633-10.298722-21.555232l-66.79434-38.705831-34.464477-19.974184-123.186413-71.390134-124.92477-72.395713c-6.728419-2.431311-14.59583-2.293915-21.268494 0.418161l-147.806172 85.012245-30.193256-51.208861 132.828024-76.475775c4.392688-2.499013 8.305485-4.713278 11.517364-6.515356 4.97214-2.787744 8.36124-4.653541 9.557978-5.234984 9.440495-4.585838 23.024772-7.254107 35.264958-7.254108a88.801585 88.801585 0 0 1 32.521022 6.117107l362.854715 210.138131c20.826437 16.137054 33.078571 40.472065 34.181721 66.834164V584.16896z"  horiz-adv-x="1024" />
      
      <glyph glyph-name="ftm" unicode="&#59140;" d="M512 384m-512 0a512 512 0 1 1 1024 0 512 512 0 1 1-1024 0ZM480.953 733.1800000000001c17.25 9.093 43.496 9.093 60.746 0l176.016-92.795c10.39-5.477 16.095-13.638 17.117-22.063H735V151.89c-0.23-9.19-5.988-18.32-17.285-24.275L541.7 34.82000000000005c-17.25-9.093-43.497-9.093-60.746 0l-176.017 92.795c-11.249 5.93-16.647 15.123-16.914 24.275a32.372 32.372 0 0 0-0.001 2.35V615.1800000000001a24 24 0 0 0 0 1.937v1.204h0.08c0.781 8.518 6.228 16.47 16.835 22.063l176.017 92.795zM707 359l-165.355-87.46c-17.225-9.111-43.433-9.111-60.658 0L316 358.80499999999995v-205.474l164.987-86.802c9.75-5.217 19.888-10.3 29.76-10.521l0.569-0.008c9.852-0.032 19.418 4.978 29.117 9.72L707 154.08000000000004V359zM260.424 162c0-17.88 2.06-29.633 6.15-37.912 3.389-6.863 8.475-12.107 17.761-18.489l0.53-0.362c2.038-1.387 4.283-2.839 7.016-4.545l3.223-1.992 9.896-6.025L290.806 69l-11.076 6.75-1.862 1.153c-3.202 1.995-5.857 3.707-8.333 5.392-26.467 18.003-36.337 37.63-36.532 78.461L233 162h27.424zM498 483c-1.28-0.44-2.481-0.951-3.575-1.53l-175.748-93.094c-0.185-0.097-0.36-0.194-0.528-0.29L318 388l0.276-0.159 0.4-0.217 175.749-93.094c1.094-0.579 2.294-1.09 3.575-1.53V483z m28 0v-190a25.085 25.085 0 0 1 3.576 1.53l175.747 93.094c0.184 0.097 0.36 0.194 0.528 0.29L706 388l-0.276 0.159-0.401 0.217-175.747 93.094A25.085 25.085 0 0 1 526 483z m181 102l-158-83 158-83V585z m-391 0v-166l158 83-158 83z m213.422 123.373c-9.147 4.836-25.697 4.836-34.844 0l-175.9-92.997c-0.185-0.098-0.362-0.194-0.529-0.29L318 615l0.276-0.158 0.401-0.218 175.9-92.996c9.148-4.837 25.698-4.837 34.845 0l175.9 92.996c0.185 0.098 0.361 0.194 0.528 0.29L706 615l-0.276 0.158-0.402 0.218-175.9 92.997zM733.194 699l11.076-6.75 1.862-1.152c3.202-1.995 5.857-3.709 8.333-5.393 26.467-18.003 36.337-37.63 36.532-78.461L791 606h-27.424c0 17.882-2.06 29.633-6.15 37.913-3.388 6.862-8.474 12.107-17.76 18.488l-0.531 0.362a212.559 212.559 0 0 1-7.016 4.545l-3.223 1.992-9.896 6.025L733.194 699z"  horiz-adv-x="1024" />
      
      <glyph glyph-name="solana" unicode="&#58913;" d="M0.00512 383.92143599999997a511.858412 511.858412 0 0 1 315.98973-472.937594 511.868651 511.868651 0 0 1 557.859931 110.966825A511.924969 511.924969 0 0 1 707.783411 856.859031 511.89425 511.89425 0 0 1 0.00512 383.92143599999997zM444.59431 325.61700699999994h-29.469643c-37.425832 19.127621-73.674107 40.308287-111.099939 59.727737-23.571618 12.062279-46.262629 25.005166-69.834248 37.067446-6.486803 3.235722-13.260315 6.471443-18.569561 11.770449 4.423518 11.176551 16.798106 6.763273 25.931852 8.237779 59.819894-30.012343 118.46223-62.66651 177.104567-94.440068 6.486803-3.532671 13.260315-6.179614 19.747118-10.004114 4.126569-2.646943 10.019474-5.293887 6.189854-12.359229zM444.58919 325.61700699999994c-0.291829 5.299006-3.82962 7.357171-7.956189 9.415336-62.471957 32.951116-124.943913 66.19918-187.41587 99.442126-3.240842 1.766335-7.372531 2.943892-7.66436 7.945949h29.469643c35.951326-17.064336 69.839367-37.661343 105.201915-55.606287 26.228801-13.239836 51.571875-27.949058 77.795557-41.480724 8.841917-4.413279 21.216505-6.476563 22.987959-19.7164h-32.418655zM580.146476 502.731814H506.180539c-10.608252-0.588778-19.747118 2.938773-29.177813 7.94083-50.686147 26.479672-101.075346 52.959344-151.464544 80.319624-7.367411 3.8245-15.3236 7.94083-19.45017 16.475558 4.715348 5.002057 7.66436 10.592893 15.031771 10.884722 24.457346-13.239836 48.325914-27.954178 73.668987-40.011338 42.433009-20.008229 82.807853-44.424616 124.355135-66.491009 8.841917-4.710228 17.975663-3.235722 27.406359-3.235722h20.627726c3.82962 0 7.66436-0.296949 11.49398-1.766335 1.177557-1.177557 1.766335-2.355114 1.474506-4.11633zM400.681675 442.128589h26.520631c7.075581-2.063285 13.557264-5.299006 20.038947-8.534728 59.236235-30.601122 117.284673-62.963459 176.223959-93.85129 5.892905-2.943892 13.260315-5.299006 12.671537-14.125564h-26.52063c-30.058421 12.948007-58.350507 29.423565-87.226252 45.013395-35.659497 19.127621-71.902652 37.661343-107.562149 56.778725-5.892905 3.240842-14.146043 5.595955-14.146043 14.714342zM503.820305 442.128589h26.525751c43.610566-21.185786 85.751746-45.310344 128.773533-67.084908 23.576738-12.062279 46.267749-25.593945 69.547538-38.245002 4.126569-2.355114 11.197031-3.532671 7.65924-11.181672h-26.52063c-40.369724 18.538842-77.498607 42.95523-117.284674 62.374681-26.223682 12.942887-50.389198 29.418445-77.498607 41.188894-5.601075 2.355114-12.082758 4.710228-11.202151 12.942887zM556.569737 325.61700699999994h-26.52063c-66.598526 34.425622-132.311324 70.023681-198.618021 105.032962-4.121449 2.355114-10.905201 3.8245-7.65924 11.4735h26.520631c38.31156-17.653115 74.262886-39.719508 111.683598-58.842009 27.406358-14.120444 54.812717-28.240888 81.922126-43.247059 5.898024-3.235722 13.260315-5.293887 12.671536-14.417394zM556.569737 325.61700699999994c-5.892905 9.415336-16.204208 12.062279-25.046124 17.064337-51.274926 28.537837-104.904966 53.251174-155.299284 83.847175-8.550087 5.299006-19.450169 6.768393-25.931852 15.59495h26.52063c30.944149-13.823495 60.705621-29.715394 89.878315-46.487901 33.007434-19.117381 67.776083-35.004161 100.783517-54.42361 6.481683-3.8245 15.026651-5.882665 15.615429-15.594951h-26.520631zM412.467484 618.649497h29.469643c65.12402-32.362337 127.892926-68.257345 192.136338-101.797239 4.715348-2.646943 13.849094-4.413279 7.070461-13.531666-6.778632-0.296949-13.557264 0-20.330777-0.296949-25.640023 10.884722-49.80554 24.713337-74.262885 38.245002-40.369724 22.066393-81.625177 42.366452-121.703072 64.729795-5.304126 2.938773-12.968486 4.11633-12.379708 12.645937zM500.579464 149.09609899999998c-33.591092 14.709222-65.12402 33.248065-97.537555 50.307282-26.81758 14.125564-53.33821 28.537837-80.45274 42.074622-6.184734 3.235722-14.140923 4.705108-16.501157 12.942887 4.715348 3.8245 6.189854 7.94595 11.79093 9.123506 2.058165 1.469386 4.121449 1.172437 6.184733 0.588779 62.180127-33.248065 124.360255-66.49101 186.243433-100.327853 6.481683-3.527551 15.026651-5.293887 16.501157-14.709223M306.088012 607.4678260000001c59.236235-36.775616 122.885749-65.902231 183.59137-100.030904 5.595955-2.938773 11.785809-1.177557 16.501157-5.002057h-44.204464c-51.274926 28.834786-104.024358 54.72568-155.591113 82.966567-4.715348 2.646943-9.727644 5.002057-12.379708 10.004115 3.537791 4.710228 7.66436 8.237779 12.082758 12.062279zM544.783928 504.789979c-14.146043-2.355114-25.931852 2.943892-38.31156 9.707165-51.566755 27.954178-104.019238 55.017509-155.888062 82.674738-10.608252 5.590836-21.508334 11.468381-29.464523 21.180666 6.778632 0 13.849094 0.296949 20.627726 0.296949 39.483997-18.241893 77.795557-38.8389 115.810167-59.727737 23.868568-13.239836 48.331034-25.885774 72.491431-38.83378 6.481683-3.235722 15.3236-5.002057 14.734821-15.298001zM636.136749 325.61700699999994c-10.019474 13.828615-27.114529 16.772507-40.666673 24.713337-30.355371 18.241893-62.180127 33.836843-93.416106 50.90118-25.046125 13.823495-51.274926 24.713337-74.851664 41.188894h26.52063c35.659497-16.178609 69.255709-36.483787 103.732529-54.725679 30.6472-16.178609 61.586229-32.362337 91.9416-48.837895 5.007177-2.646943 13.260315-3.527551 10.311303-12.942887-7.956189-0.296949-15.615429-0.296949-23.571619-0.29695zM583.090368 325.61700699999994c-10.014354 11.181671-24.160397 16.475558-36.831934 23.5409-47.445306 26.182723-95.77122 50.89094-143.508355 76.490004-8.847037 4.710228-18.569561 8.826557-25.640022 16.772507h23.571618c15.031771-15.298001 35.659497-21.477615 53.926989-31.481729 49.80554-27.36028 99.897789-53.543003 149.995158-80.319624 2.063285-1.172437 3.537791-3.235722 5.304126-5.002058h-26.81758zM544.783928 504.789979c-13.557264 15.59495-33.893161 20.300058-50.983096 30.596001-32.710484 19.41945-66.598526 36.483787-100.486568 54.136902-17.386885 9.118387-36.540104 15.298001-51.571875 29.126615h26.520631c26.520631-11.47862 50.686147-27.068451 76.32617-40.308287 38.900338-19.71128 76.618-41.188895 115.221389-61.488952 4.715348-2.355114 12.082758-3.8245 8.544968-12.354109-7.65924 0.291829-15.615429 0.291829-23.571619 0.29183zM324.063675 442.128589c0.296949-5.007177 4.423518-6.179614 7.66436-7.65412 49.50859-23.827609 96.656947-52.365446 146.160418-76.786954 17.975663-8.826557 38.603389-15.59495 52.457603-32.070508h-23.576738c-66.009747 33.836843-131.133767 68.554294-196.257787 103.855405-5.012297 2.646943-10.905201 5.299006-10.019474 12.948006 7.956189-0.296949 15.615429-0.296949 23.571618-0.296949zM792.316641 325.61700699999994h-23.571619c-67.484253 33.539894-133.494001 70.023681-199.206799 106.502348-3.82962 2.063285-10.316423 2.943892-6.778632 10.301063h23.576738c21.508334-10.592893 42.433009-22.066393 63.649514-33.248064 44.496294-23.53578 88.700758-47.952167 133.197052-71.487948 4.715348-2.652063 12.379708-3.532671 9.133746-12.067399zM706.856724 507.436922c-1.469386-0.880608-2.943892-1.766335-5.595955-3.235722-3.537791-2.058165-7.367411-1.177557-10.905201-1.177557-38.895218 18.533723-75.732272 40.897065-113.746883 61.197124-23.279789 12.354108-47.148357 23.827609-70.136317 36.775615-7.367411 4.11633-17.089935 6.174494-17.386884 17.356166h20.632846c17.381765-2.943892 30.350251-15.001052 45.67385-22.947001 46.559578-23.832729 93.119156-47.665458 138.204229-73.848181 5.892905-2.938773 12.379708-5.882665 13.260315-14.120444zM706.861844 507.436922c-13.260315 11.181671-28.583915 19.41945-43.615686 27.954178-44.199345 24.416388-90.467093 45.305224-133.488881 71.779777-6.486803 4.121449-15.3236 3.82962-19.747118 11.47862h26.520631c56.876001-27.3654 111.688718-58.842009 167.382042-88.265574 5.601075-2.938773 11.49398-5.585716 15.3236-11.176551-3.82962-4.121449-7.65924-7.649-12.374588-11.77045zM489.085484 618.649497c13.854214-16.178609 34.184991-22.066393 51.868824-31.481729 34.768649-18.533723 69.250589-37.067445 103.43046-56.486896 15.031771-8.534728 31.532927-14.709222 45.090192-26.182723-6.778632-3.532671-13.854214-0.885728-20.627726-1.766335-16.209328 8.826557-32.418655 17.356166-49.211642 25.005166-1.182677 0.588778-2.360234 1.474506-3.53779 2.355114-25.931852 17.356166-54.812717 29.418445-81.922126 44.716446a1813.750027 1813.750027 0 0 1-52.749432 28.246007c-6.481683 3.532671-15.026651 5.590836-15.615429 15.298001 7.362291 0.296949 15.31848 0.296949 23.274669 0.296949zM659.708368 325.61700699999994c-10.608252 13.828615-27.406358 17.361285-41.547282 25.302116-45.090192 25.599064-90.764043 49.426673-136.443013 74.14001-9.722525 5.299006-20.919555 8.242899-28.286966 17.356166h20.627726c17.678714-6.174494 33.299263-16.470438 49.508591-25.005167 48.034084-25.005166 95.47427-51.187889 143.508354-76.198174 6.189854-3.235722 13.557264-6.179614 12.968486-15.594951h-20.335896zM689.178011 149.09609899999998c-42.14118 19.41945-81.922126 43.544008-123.177578 64.724675-22.102232 11.473501-44.793243 22.363343-66.009748 35.00928-5.892905 3.532671-15.912378 4.413279-12.963366 15.59495 5.887785 0.588778 11.785809 0.296949 17.970543 0.296949 16.506277-5.299006 30.944149-14.714342 45.97592-22.655172 45.673851-24.421507 91.64465-47.957287 137.026672-73.259402 6.778632-3.8245 15.912378-6.179614 16.209327-16.767387M474.058833 149.09609899999998c-55.396375 28.537837-110.209092 58.54506-165.610587 87.671676-4.126569 2.058165-9.430695 3.532671-11.197031 8.826557 3.240842 3.8245 6.481683 7.060222 8.544968 8.826558 25.931852-13.531665 51.863704-26.771502 77.795557-40.308287 27.406358-14.412273 54.812717-29.418445 82.213955-44.424616 11.790929-6.471443 25.087083-10.587773 34.814727-20.591888M562.462642 149.09609899999998c-24.160397 10.884722-46.559578 24.421507-70.131197 36.775616-41.255452 21.477615-82.510904 42.658281-123.182697 65.313453-4.710228 2.646943-12.963366 4.121449-9.133747 13.239836 5.898024 0.588778 12.082758 0.296949 17.975663 0.296949 26.520631-11.181671 50.983097-26.479672 76.618-39.719508 37.722781-19.71128 74.851664-40.308287 112.277496-60.608345 6.189854-3.527551 13.849094-5.882665 13.260316-15.298001M527.105214 149.09609899999998c-27.114529 15.298001-54.223938 31.18478-81.630296 46.190952-37.128883 20.003109-74.554715 39.422559-111.980547 59.133839-4.126569 2.058165-7.367411 5.002057-9.430696 8.826557 5.898024 3.235722 12.082758 0.885728 18.272613 1.766336 62.180127-33.831723 125.240862-66.49101 187.712819-99.733955 6.481683-3.532671 15.031771-5.887785 15.03177-15.88678M450.482095 149.09609899999998c-21.508334 7.352051-39.780946 20.888837-59.819894 30.892951-28.875745 14.412273-57.167831 29.418445-85.162967 45.894003-6.189854 3.8245-15.3236 6.179614-11.197031 17.064336 0.885728 0.880608 2.063285 1.766335 2.943893 2.943892 30.944149-14.417393 61.00257-31.1899 91.060991-47.665457 27.109409-14.709222 54.515767-28.829666 81.917006-43.24706 2.360234-1.177557 3.537791-3.235722 3.83474-5.882665M718.647653 519.2073720000001c-28.583915 14.709222-57.167831 28.829666-85.162967 44.424616-27.114529 15.001052-54.515767 30.007223-82.510904 43.835838-5.601075 2.943892-11.49398 5.299006-14.734822 11.4735h23.571619c51.571875-25.890894 102.258022-53.246054 153.235999-80.314504 5.012297-2.652063 10.316423-5.590836 14.146043-10.301064-2.355114-3.532671-4.715348-5.293887-8.544968-9.118386zM726.895672 528.033929c-20.330777 7.060222-38.014611 19.122501-56.579052 29.126616-31.527808 16.475558-63.060735 33.242945-94.885492 49.129724-6.481683 3.235722-11.785809 6.471443-15.620549 12.359228h26.520631c44.204464-22.655172 88.11198-45.602173 131.430716-69.731851 6.189854-3.527551 13.557264-6.471443 15.03177-14.709223-2.063285-2.355114-3.537791-3.8245-5.898024-6.174494zM703.912832 152.03999199999998c-15.3236 16.475558-36.540104 23.53578-55.401495 33.831723-47.148357 26.182723-95.77122 48.837895-141.742019 77.083903 4.126569 3.235722 9.133746 0.880608 13.557264 1.761215 2.943892 0 6.184734 0 9.133746-0.291829 40.958503-21.477615 81.625177-44.132787 122.880629-65.610402 16.506277-8.529608 32.710484-17.356166 49.211641-26.182723 5.309246-2.646943 12.379708-4.413279 11.49398-12.942887-3.240842-2.652063-5.595955-5.002057-9.133746-7.649zM668.550284 149.09609899999998c-26.520631 12.651058-51.863704 28.246008-78.681284 40.897066-34.47682 18.825552-69.542418 37.067445-104.019238 56.189946-5.601075 2.943892-11.49398 5.882665-15.620549 10.592893-2.063285 2.058165-5.601075 5.002057-0.588778 7.940829 5.304126-0.583659 10.905201 1.766335 15.912378-1.469386 20.924675-16.767387 45.673851-27.068451 68.95364-39.719508 39.197287-21.180666 78.681284-41.772553 117.873452-62.958339 5.898024-3.235722 13.260315-4.11633 16.209327-11.176552M580.146476 149.09609899999998c-11.197031 14.709222-28.880864 19.41945-43.615686 27.949059-38.009491 21.477615-76.909829 41.480724-115.810167 61.780782-14.140923 7.357171-28.583915 14.125564-40.666674 24.129678 5.898024 3.235722 12.082758 0.880608 18.272612 1.761215 35.070718-18.236773 69.839367-36.775616 105.201915-54.72056 6.778632-4.705108 13.849094-8.826557 21.513454-12.062279 2.652063-1.177557 5.007177-2.646943 7.36741-4.121449 19.15322-11.473501 38.895218-21.769444 58.642337-32.065388 4.715348-2.646943 13.260315-3.235722 10.019474-12.651058M624.35094 149.09609899999998c-30.6472 16.178609-63.065855 28.829666-91.352821 49.718503-21.513454 17.361285-48.034084 26.187843-71.610823 40.011338-7.070462 4.121449-14.437872 8.237779-21.508334 12.948006-4.126569 2.646943-10.019474 5.590836-6.486802 12.651058 4.423518 0.880608 8.841917 0.291829 13.260315 0.291829a3736.864378 3736.864378 0 0 1 151.172714-81.200232c13.557264-7.649 26.81758-15.886779 40.963623-22.655172 4.715348-2.349994 10.019474-4.705108 8.841917-11.76533M624.642769 442.420418h29.469643c31.824757-13.828615 60.705621-33.248065 91.644651-48.546065 1.771455-0.880608 3.240842-2.058165 5.304126-2.058165 12.082758-7.649 18.564441-20.597007 29.469643-29.418445-5.007177-8.534728-11.197031-3.240842-15.912379-0.588778-32.121706 18.236773-66.009747 33.242945-97.834504 52.365446-10.316423 6.179614-22.102232 10.295944-32.413535 16.772507-4.715348 2.646943-10.613372 4.413279-9.727645 11.468381zM456.08317 502.731814H335.557655c-0.291829 1.766335 0.296949 2.943892 1.766336 3.8245 3.537791 1.766335 7.372531 1.766335 11.20215 2.058165h17.678714c3.82962 0 7.65924-0.291829 14.146043 0.296949-27.995137 15.58983-54.515767 28.240888-80.447619 42.658281-10.608252 5.887785-22.102232 10.592893-29.469643 20.888836 2.943892 2.938773 6.189854 5.887785 9.133746 8.826558 6.778632 1.177557 12.082758-2.646943 17.683833-5.887785 35.065598-20.591887 71.605703-37.948053 106.379472-58.54506 11.49398-6.768393 22.98796-10.004114 36.248275-8.237779 5.595955-0.880608 12.963366 1.766335 16.204208-5.887785zM732.496747 534.2135430000001c-21.805283 17.944944-48.034084 27.949058-71.902652 41.777673-20.627726 12.057159-42.433009 22.358223-63.654633 33.534775-4.418399 2.355114-8.248019 5.002057-10.900082 9.420455h23.571619c36.837054-14.714342 70.136317-36.191957 105.201915-54.730799 10.019474-5.288767 22.98796-6.758153 29.469642-17.939825a152.145479 152.145479 0 0 0-11.785809-12.062279zM713.046578 160.272651c-12.963366 12.948007-30.6472 18.830672-46.262629 27.3654-44.501413 23.53578-88.997707 46.77461-132.608273 71.487947-1.474506 0.885728-2.652063 2.943892-3.83474 4.413278 6.778632 3.235722 13.854214 0.885728 20.924675 1.474507 28.292086-15.006172 56.287223-31.1899 84.574189-46.190952 24.165517-12.948007 49.50859-23.53578 72.49143-38.541951 5.012297-3.235722 12.082758-5.590836 10.608253-13.828615-2.063285-2.355114-4.126569-4.413279-5.892905-6.179614zM456.08317 502.731814c-5.595955 3.532671-11.785809 0.880608-17.386884 2.058165-32.710484 14.417393-63.649514 32.065388-94.885492 49.129724-19.455289 10.884722-40.666674 18.830672-58.350508 32.951116 2.949012 3.8245 5.304126 5.590836 8.841917 8.826557 44.793243-23.53578 89.878315-46.77973 134.374609-71.196118 11.49398-6.471443 26.520631-8.529608 33.596212-22.066393-2.063285 0.296949-4.126569 0.296949-6.189854 0.296949zM477.007845 325.61700699999994c-13.849094 16.183728-34.773769 20.888837-52.452482 31.189901-42.438129 24.713337-87.523201 44.716446-129.070483 70.602219-8.253138 5.007177-19.455289 5.007177-24.462466 14.714342h17.678714c35.659497-20.300058 72.199601-38.833781 108.447876-58.253231 28.875745-15.58983 57.756609-30.887831 86.637474-46.482781 4.710228-2.646943 11.785809-3.8245 10.905201-12.062279-5.898024 0.291829-11.790929 0.291829-17.683834 0.291829zM544.783928 149.09609899999998c-12.968486 15.58983-32.710484 20.591887-49.50859 29.715394-45.382021 24.416388-90.467093 50.010332-137.026672 71.784897-5.892905 2.646943-11.197031 5.882665-13.557264 12.354108 5.012297 2.652063 9.727644 2.652063 14.734821 0 7.956189-8.237779 18.272612-12.942887 27.995137-17.944944 38.30644-20.008229 76.618-40.011338 114.63261-60.019566 18.861391-9.998995 37.425832-20.300058 56.282103-30.299053 2.360234-1.177557 3.83474-2.943892 4.126569-5.299006M718.944603 166.160436c-5.898024 10.592893-17.386885 14.120444-27.114529 19.122501-41.844231 22.655172-84.574189 44.721565-126.710249 66.787959-5.012297 2.646943-8.550087 6.471443-11.49398 11.176551 5.007177 3.235722 10.608252 0.885728 15.912378 1.469386 37.717661-19.122501 75.732272-38.245002 112.861155-59.133838 11.202151-6.179614 22.98796-11.176551 33.596212-17.944944 5.304126-3.532671 12.968486-6.471443 8.841917-15.59495l-5.892904-5.882665zM285.460286 586.875938c19.450169-6.768393 36.837054-17.356166 54.812717-27.06845 29.761472-16.475558 59.819894-32.070508 89.581366-47.957287 3.537791-1.761216 7.075581-3.235722 8.841917-7.060222-15.615429-3.532671-28.286966 3.532671-41.255452 10.592893-39.192168 21.769444-78.384335 43.835838-117.576503 65.605282 1.766335 2.058165 3.82962 3.8245 5.595955 5.887784zM736.326367 325.61700699999994c-3.240842 10.301063-13.849094 10.004114-20.919555 13.828615-54.223938 30.007223-109.036655 58.842009-163.552422 87.968625-7.65924 4.11633-15.912378 7.649-21.513454 14.709222h17.683834c20.330777-9.707165 40.077895-21.180666 59.819893-32.357217 3.537791-3.240842 7.956189-5.007177 12.374588-6.773513 39.489117-20.003109 77.800676-42.069502 117.581622-61.488952 6.778632-3.235722 16.501157-4.996937 16.501157-16.178609-6.189854 0.291829-12.082758 0.291829-17.975663 0.291829zM612.560011 149.09609899999998c-27.406358 14.417393-54.812717 29.126615-82.510904 43.544009-2.360234 0-4.715348 0.588778-5.892905 2.938772-6.189854 5.002057-14.146043 7.065342-20.632846 11.77045-22.685891 5.002057-39.483997 21.477615-60.700501 30.007223-11.49398 4.710228-22.394061 11.181671-33.596212 17.064337-3.82962 2.058165-8.544968 2.943892-8.836797 8.534728 5.007177 3.527551 10.608252 0.880608 15.615429 1.761215 23.868568-9.998995 44.793243-25.296995 68.073032-36.478666 17.386885-8.237779 34.184991-18.241893 51.571875-26.771502 14.140923-15.006172 34.47682-19.41945 51.566755-29.423564 12.379708-7.352051 25.931852-13.239836 36.837054-22.947002M606.667106 407.406018c-20.335897 10.598013-41.552401 19.127621-58.939285 34.717451h14.734821c9.138866-11.181671 23.279789-14.709222 34.773769-21.769444 24.754295-15.001052 51.274926-27.657229 77.206778-41.188895a11291.030513 11291.030513 0 0 0 82.510904-43.835837c4.423518-2.355114 10.905201-2.943892 11.790929-9.712286h-14.734821c-4.715348 7.357171-12.379708 10.889842-19.747118 14.417394-39.192168 19.41945-78.087386 39.422559-115.810167 61.488952-3.82962 2.355114-8.248019 2.646943-11.78581 5.887785zM624.642769 442.420418c14.437872-13.828615 33.888041-18.830672 50.686148-28.834786 30.058421-17.653115 60.997451-32.951116 91.941599-49.129724 4.126569-2.058165 8.248019-6.179614 13.260316-2.058165 8.544968-7.94595 17.975663-14.417393 22.98284-25.599064-5.007177-4.413279-10.019474-2.646943-15.026651 0.588778-20.330777 14.417393-42.729958 25.890894-64.832191 37.072565-35.654377 18.236773-70.428146 38.245002-106.082522 56.486896-4.423518 2.355114-8.841917 4.710228-7.66436 11.176551 4.715348 0.296949 9.722525 0.296949 14.734821 0.296949zM379.76212 149.09609899999998c-35.659497 17.944944-71.610823 35.00928-105.201915 56.783845-3.245961 2.058165-7.075581 3.527551-8.841917 7.352051l8.841917 8.826558c4.121449 3.235722 7.367411 0 10.608252-1.766336 35.951326-20.300058 73.080209-38.833781 109.620313-58.253231 5.304126-2.938773 12.379708-4.705108 11.49398-12.942887M406.28275 149.09609899999998c-7.956189 11.77045-21.810403 13.531665-33.007433 20.008229-27.406358 15.58983-55.693324 30.007223-83.688461 44.127667-5.304126 2.646943-8.253138 8.826557-14.734822 8.826558 1.766335 2.058165 3.532671 3.8245 5.304126 5.882665 5.304126 4.413279 10.019474 0.885728 14.734822-1.469387 31.824757-15.006172 61.591349-33.539894 92.822207-49.426673 12.082758-6.179614 23.873687-13.239836 36.545224-17.944944 2.943892-2.646943 5.595955-5.590836 2.652063-10.004115M503.820305 442.128589c4.126569-7.357171 12.379708-8.831677 19.15834-12.359228a14556.170692 14556.170692 0 0 0 163.547302-89.146182c7.956189-4.413279 20.038948-3.235722 23.27979-15.006172h-14.734822c-43.318737 21.774564-84.866018 46.77973-127.892925 68.554295-21.805283 11.176551-43.318737 22.947001-64.832191 34.420502-5.595955 2.943892-13.552145 4.710228-13.260315 13.823495 4.715348-0.291829 9.727644-0.291829 14.734821-0.29183zM754.598979 389.461074c-13.260315-2.058165-25.931852 9.420456-35.951326 15.006172-21.513454 12.354108-45.085072 21.477615-64.535241 37.656223 12.671537 0.296949 25.343074 0.296949 38.014611 0.588779 6.773512 0.296949 12.374588-1.761216 17.089935-6.471444 13.849094-14.417393 32.710484-30.596002 45.382021-46.77973zM489.090604 442.128589c22.394061-17.361285 48.622863-28.246008 73.080209-41.777673 41.844231-22.952121 84.27724-45.310344 126.418419-67.673687 2.949012-1.761216 6.189854-2.938773 6.481683-7.060222h-14.729701c-7.075581 12.651058-21.221624 15.006172-32.418656 21.185786-56.282103 30.887831-113.158104 60.900174-169.737156 91.204347-1.474506 0.880608-2.652063 2.938773-3.82962 4.116329h14.734822zM759.017378 560.688096c-2.355114-3.235722-5.304126-5.590836-8.544968-8.826558-11.197031-2.058165-17.386885 7.357171-26.223681 11.181672-28.292086 12.062279-54.223938 28.829666-81.630297 42.366451-5.007177 2.646943-12.671537 4.413279-9.133746 13.239836h23.571619c31.241098-16.178609 63.357684-30.601122 93.713054-48.546065 3.82962-2.058165 7.65924-4.413279 8.248019-9.415336zM724.540558 172.04310099999998c-4.715348 16.183728-20.919555 17.361285-32.710484 23.832729-38.603389 21.477615-78.087386 42.069502-116.987724 62.958338-1.474506 0.885728-2.652063 2.943892-3.829621 4.413279 5.892905 3.235722 12.082758 0.885728 18.267493 1.469386 11.49398-4.11633 21.513454-11.176551 32.418655-16.767387 34.179871-17.944944 69.250589-34.128673 101.664124-55.017509 4.418399-2.646943 10.316423-4.11633 9.722525-11.176551-2.943892-3.532671-5.595955-7.357171-8.544968-9.712285zM789.372748 339.742571c4.418399-2.646943 9.133746-3.235722 13.849094-2.943892 1.177557-8.529608-2.949012-11.76533-10.905201-11.176552-5.595955 10.587773-17.678714 13.531665-27.109409 17.944944-51.571875 24.713337-99.897789 55.309338-151.761493 80.022676-10.019474 4.710228-19.450169 10.884722-27.406359 18.830671h11.785809c25.343074-12.651058 50.097369-26.187843 74.851665-39.422559 34.179871-18.533723 68.66181-36.191957 102.841681-55.017509 4.715348-2.943892 9.727644-4.710228 13.854213-8.237779zM388.895866 325.61700699999994h-20.632846c-35.654377 17.950064-69.542418 38.8389-106.082523 55.01751l-23.576738 23.535779c2.949012 10.295944 9.138866 3.532671 13.260315 2.058165 18.569561-6.471443 34.48194-18.533723 51.863705-27.652109 24.165517-12.651058 48.919812-24.421507 72.199601-39.13073 4.715348-3.235722 15.3236-2.943892 12.968486-13.828615zM665.606392 504.789979h23.571619c4.126569 0 7.956189-0.291829 12.082758-0.29183-4.715348-2.943892-11.197031-2.355114-17.089935-2.355114-34.773769 0-69.250589 0.291829-104.024358 0.588779 0 0.588778 0 1.177557-0.29695 1.766335-27.698188 18.533723-57.756609 32.357217-87.226251 47.952168-33.888041 17.950064-67.187304 37.364394-101.664125 54.136901-4.418399 2.058165-11.49398 4.413279-10.905201 12.062279h11.790929c55.104546-27.068451 107.853978-57.956282 162.661575-85.321681 16.798106-8.529608 31.829877-20.888837 50.983096-25.005166 4.418399-0.588778 9.133746-1.177557 12.963367-3.824501h23.576738c4.126569 3.532671 9.133746 3.8245 14.437872 3.532671 3.240842-0.296949 6.486803-1.177557 9.138866-3.240841zM733.382475 181.458436c-18.564441 12.942887-37.717661 24.713337-58.345388 34.420502-25.936972 12.354108-50.983097 26.182723-76.029221 39.719509-2.652063 1.469386-4.715348 4.705108-6.778632 7.352051 5.892905 3.532671 12.374588 0.885728 18.267492 1.474506 22.98796-9.712285 43.907515-23.5409 66.009748-34.717451 16.506277-8.237779 33.299263-16.772507 49.50859-25.890894 6.481683-3.532671 17.089935-5.293887 13.557265-17.356165-2.360234-1.474506-4.423518-2.943892-6.189854-5.002058zM656.764475 504.795099h-14.734821c-0.588778 6.174494-6.189854 7.055102-10.316423 9.113266-56.282103 30.601122-112.569326 60.905294-168.851429 91.501296-7.372531 4.11633-17.683834 3.532671-21.216504 13.531665h8.836797c39.197287-17.356166 76.029221-39.12561 113.752002-59.133838 17.975663-9.415336 36.540104-18.533723 53.926989-28.829666 9.430695-6.768393 20.627726-10.301063 30.6472-16.183729 4.418399-2.355114 9.430695-3.532671 7.956189-10.004114zM380.053949 618.649497c18.564441-16.178609 41.844231-24.713337 63.060735-36.186837 42.438129-23.53578 86.048695-45.310344 129.075602-67.960396 4.418399-2.355114 6.481683-5.887785 7.95619-10.004115-3.83474 0-7.66436 0-11.49398 0.29183-7.075581 13.239836-22.102232 15.001052-33.596212 21.477615-47.445306 26.776621-96.359998 50.89606-144.394083 76.490004-7.956189 4.418399-15.026651 10.598013-22.394061 16.183728 3.82962-0.291829 7.956189-0.291829 11.785809-0.291829zM215.620919 433.88569c19.450169-5.002057 35.362547-17.356166 53.041261-26.182723 22.691011-11.181671 44.798363-23.24395 66.895475-35.306229a10005.783409 10005.783409 0 0 0 76.914949-42.069503c1.474506-0.885728 1.766335-3.235722 2.652063-5.002057h-11.790929c-15.026651 5.002057-27.995137 13.828615-41.255452 21.477615-36.831934 20.591887-75.143494 38.833781-111.980547 59.722617-8.836797 5.002057-17.089935 10.884722-26.81246 14.120444-4.423518 4.710228-7.075581 8.242899-7.66436 13.239836zM633.187737 618.649497c2.652063-11.181671 13.849094-11.47862 21.216505-15.59495 31.532927-17.653115 63.946463-34.420502 96.068168-51.484838l-5.892904-5.887785c-35.362547 15.891899-68.66181 35.30623-102.258023 54.428731-10.900082 6.179614-24.457346 7.357171-32.116586 18.533722h22.98284zM494.686559 325.61700699999994c-15.912378 15.891899-37.425832 22.363343-56.287222 33.248065-45.382021 25.599064-91.64465 49.129724-137.615451 73.551232-4.710228 2.646943-9.430695 5.002057-12.082758 10.004114h11.785809c11.49398-13.828615 28.880864-18.241893 43.318737-26.479672 37.134003-21.180666 75.440443-40.600116 113.455053-60.608345a141383.120447 141383.120447 0 0 0 38.900338-20.300058c4.126569-2.058165 9.727644-2.938773 10.608253-9.118386-4.126569-0.296949-7.956189-0.296949-12.082759-0.29695zM306.088012 149.09609899999998c-23.279789 10.592893-46.851408 20.300058-66.004627 38.245002a78.609607 78.609607 0 0 0 10.905201 11.181672c5.299006 3.8245 9.128626-0.885728 13.260316-2.646943 21.805283-10.592893 42.13606-24.124558 63.946462-35.30623 4.121449-2.058165 10.900082-3.8245 7.362291-11.473501M759.017378 560.688096c-21.508334 15.298001-45.9708 25.599064-69.250589 37.661343-11.48886 5.882665-23.571618 11.176551-32.710484 20.591887h23.576738c28.880864-8.237779 52.452483-26.771502 78.681284-40.011337 3.82962-1.766335 7.65924-4.413279 8.544968-9.415336-2.949012-3.235722-6.189854-5.882665-8.841917-8.826557zM756.662264 204.99421600000005c-2.360234-3.235722-5.304126-5.882665-8.550088-9.415336-33.591092 17.950064-66.301577 37.364394-100.486567 53.839953-5.595955 2.652063-13.849094 5.590836-7.65924 15.006171 5.892905 0.588778 12.082758 0.296949 17.975663 0.296949 30.6472-15.891899 60.997451-32.070508 90.764043-49.134844 4.121449-2.058165 9.133746-4.11633 7.956189-10.592893zM270.725465 572.1615959999999c26.81758-14.412273 53.63516-29.121496 80.44762-43.538888a2037.665043 2037.665043 0 0 1 38.603389-20.597008c-8.248019-5.293887-15.3236-2.646943-21.805283-3.235721-30.350251 15.59495-59.819894 32.362337-90.758923 47.076679-5.601075 2.646943-11.49398 5.293887-14.734822 11.468381 2.943892 3.532671 4.710228 5.002057 8.248019 8.826557zM618.452916 504.795099h-14.729702c-62.477076 35.30111-126.423539 67.663447-189.484274 102.089068-5.007177 2.641823-11.785809 3.81938-10.608253 12.057159h8.841917c17.678714-14.120444 38.30644-22.650052 58.053558-32.951115 46.262629-25.005166 92.822207-49.426673 139.089957-73.843061 3.532671-2.058165 7.367411-3.532671 8.836797-7.357171zM223.285279 421.239752c11.197031 4.408159 18.267492-5.299006 25.046124-9.420455 48.622863-29.121496 101.372295-51.187889 149.703329-80.903283 2.058165-1.177557 3.532671-3.235722 5.299006-5.002057h-14.729701c-0.296949 6.768393-7.075581 6.179614-10.905202 8.237779a8689.4744 8689.4744 0 0 1-126.715368 68.257345c-3.532671 2.058165-7.65924 7.649-12.671537 1.761215-5.007177 5.590836-10.019474 11.47862-15.026651 17.064337zM403.630687 618.649497c14.437872-15.59495 35.070718-20.597007 52.452483-31.1899 20.924675-12.942887 43.907515-22.947001 65.717918-34.712331 25.634903-13.828615 51.274926-28.246008 76.909829-42.074622 2.949012-1.469386 5.012297-2.646943 5.304126-6.174495-18.267492 2.938773-32.121706 15.58983-47.737135 23.53578-50.394318 25.005166-99.017181 52.365446-148.228822 78.553289-5.887785 3.235722-12.671537 5.585716-16.204208 12.062279h11.785809zM359.129274 149.09609899999998c-35.362547 15.886779-68.95364 35.598059-102.252903 55.309339l8.841917 8.826557c30.939029-16.475558 61.591349-32.951116 92.530378-49.718503 7.65924-4.121449 16.792986-6.179614 21.508334-14.714342M756.662264 204.99421600000005c-16.798106 13.828615-36.837054 22.066393-55.693324 32.362337-14.442992 7.65412-29.177814 14.417393-41.260572 25.890894 6.778632 3.532671 13.854214 0.885728 20.924675 1.766336 27.698188-11.76533 52.749432-28.537837 79.270063-42.069503 3.240842-1.766335 6.778632-4.121449 5.601075-9.123506-2.949012-3.8245-5.012297-5.293887-8.841917-8.826558zM799.095273 263.539276c5.892905-5.002057 5.601075-10.295944 0.291829-15.58983a862.611672 862.611672 0 0 1-15.912378-16.475558c-16.792986 3.527551-30.6472 13.828615-45.376901 21.477615-4.126569 2.349994-11.790929 7.352051-0.593899 11.473501 20.335897-0.296949 40.963623 1.761216 61.591349-0.885728zM261.888668 380.63451699999996c7.367411 5.887785 13.557264-1.766335 17.678714-3.824501 27.995137-13.828615 55.109666-29.715394 82.510904-45.013394 2.355114-1.469386 3.83474-4.11633 5.898024-6.471444h-20.632845c-20.325657 8.237779-38.009491 21.769444-58.934166 28.537837-8.841917 9.118387-17.678714 17.944944-26.520631 26.771502zM335.854605 149.09609899999998c-6.486803 11.76533-19.747118 12.942887-30.058422 19.122501-17.683834 10.884722-36.248275 20.300058-54.515767 30.596002l5.887785 5.887785c27.114529-8.237779 49.80554-24.713337 74.262885-38.250122 9.430695-5.293887 22.102232-5.590836 27.995137-16.767387M427.202306 149.09609899999998c-0.880608 2.646943-2.063285 5.590836-2.943893 8.237779-17.386885 7.649-33.596212 17.356166-50.097369 26.182723-28.875745 15.298001-57.46478 30.892951-86.340524 45.899123-2.063285 1.172437-2.949012 2.349994-2.063284 4.413278a81.348707 81.348707 0 0 0 8.841916 8.529609c5.595955-16.767387 22.685891-18.533723 35.065599-25.593945 38.895218-22.363343 81.149034-46.190952 120.63815-67.668567M262.477446 563.335039c33.888041-17.647995 67.776083-35.00928 101.961074-52.662395 2.355114-1.177557 3.240842-3.235722 3.532671-5.882665h-20.627726c-27.406358 12.948007-52.452483 29.715394-80.150671 42.069502-4.715348 2.063285-9.727644 4.710228-10.905201 10.889842 2.063285 1.761216 4.126569 3.532671 6.189853 5.585716zM789.367629 339.742571c-19.15322 3.527551-34.179871 15.886779-50.681028 24.416388-38.603389 19.122501-76.029221 40.308287-114.043832 60.900174-9.430695 5.002057-19.15322 9.420456-26.81758 17.064336h11.78581c5.601075-9.707165 16.506277-11.473501 25.343073-16.178608 44.204464-24.421507 88.700758-47.957287 132.905223-72.081846 7.65924-3.8245 17.386885-4.710228 21.508334-14.120444zM256.287593 557.452374c25.046125-13.531665 50.097369-27.068451 75.440442-40.600116 5.887785-3.235722 12.671537-5.293887 15.912379-12.062279-3.82962 0-7.66436-0.296949-11.785809-0.296949-5.309246-2.355114-10.316423-1.177557-15.32872 1.474506-19.1481 10.592893-38.603389 20.591887-57.751489 31.476609-5.601075 3.240842-13.260315 5.299006-12.379708 14.125564 2.063285 2.355114 2.943892 3.532671 5.887785 5.882665zM767.859295 569.514653c-27.406358 15.886779-54.223938 32.362337-83.396632 45.310344-1.474506 0.588778-2.652063 2.646943-3.82962 4.116329h26.520631c19.15322-9.707165 39.192168-17.944944 57.756609-28.829666 5.012297-2.943892 10.905201-5.002057 12.082758-11.77045-3.240842-2.938773-6.184734-5.887785-9.133746-8.826557zM765.504181 213.82077400000003c-19.450169 13.536785-40.374844 24.124558-61.002571 35.0144-7.65924 4.11633-16.501157 5.882665-21.216504 14.412273 6.778632 3.532671 14.146043 0.885728 21.216504 1.766336 20.627726-9.415336 40.374844-20.888837 60.408673-31.184781 4.715348-2.646943 10.608252-6.179614 6.778632-13.531665-2.063285-2.355114-4.126569-4.413279-6.184734-6.476563zM233.002684 533.327816l9.138866 9.118386c4.126569 1.474506 7.66436-0.291829 10.905201-2.058164 14.734821-8.237779 29.172694-16.772507 44.199345-24.421508 3.83474-2.058165 8.550087-4.413279 6.778632-9.707165-1.474506-4.710228-6.481683-2.355114-10.311303-2.943892h-17.975663c-13.854214 5.590836-25.343074 15.006172-38.603389 22.066393-2.652063 1.474506-5.304126 3.8245-4.126569 7.94595zM294.594033 504.2012c2.360234 0.588778 5.898024 0.588778 6.783752 1.766336 2.355114 3.8245-2.063285 4.710228-4.12657 5.887784-18.272612 10.290824-36.540104 20.294938-54.812716 30.299053 2.652063 2.943892 5.601075 5.887785 8.253138 9.118387 17.089935-15.58983 38.30644-24.421507 58.345388-34.712331 8.841917-4.413279 15.615429-13.536785 27.109409-12.651058v-1.474506h-41.255452c-0.291829 0.885728-0.291829 1.177557-0.29183 1.766335zM618.458035 530.972702c-28.292086 8.826557-52.160654 26.479672-78.389455 39.13073-27.109409 13.239836-53.63004 27.657229-80.447619 41.485843-3.532671 1.761216-7.367411 3.235722-9.133746 7.060222h14.734821c19.445049-17.356166 44.199345-25.890894 66.598526-38.245002 26.223682-14.714342 53.33821-27.954178 79.858841-42.074622 2.943892-1.469386 4.715348-4.710228 6.778632-7.357171zM276.623489 149.09609899999998c-12.671537 4.705108-24.462466 11.77045-35.951326 18.533723-4.126569 2.355114-10.613372 3.8245-8.550087 11.181671 2.652063 2.646943 5.304126 5.590836 8.253138 8.237779 22.102232-12.651058 45.382021-22.655172 66.009748-38.245002M739.275379 186.75232300000005c-1.177557 9.707165-9.727644 11.181671-16.501156 14.709222a33710.26613 33710.26613 0 0 1-104.024358 55.606288c-2.360234 1.177557-4.126569 3.8245-6.189854 5.882665 4.126569 3.235722 8.841917 1.177557 13.260315 1.474506 37.128883-23.832729 77.503727-41.777673 115.518338-63.844066 2.943892-1.766335 5.007177-6.471443 3.82962-7.94595-1.766335-1.761216-3.82962-3.527551-5.892905-5.882665zM771.397085 220.00038800000004c-0.296949 5.590836-4.126569 9.707165-8.550087 10.884722-15.912378 4.11633-26.520631 18.241893-43.021788 21.180666-6.189854 0.885728-9.722525 6.476563-12.968486 11.181671a45.294984 45.294984 0 0 0 26.525751 0c9.425575-13.239836 25.634903-15.298001 38.30644-23.53578 3.82962-2.646943 9.133746-3.235722 11.49398-7.945949a224.06861 224.06861 0 0 0-11.78581-11.76533zM776.701212 578.34121a362.50835 362.50835 0 0 1-44.501414 24.421508c-9.133746 4.11633-19.445049 6.763273-25.343074 16.178608h29.469643c12.379708-7.060222 25.051244-14.120444 38.014611-20.591887 4.715348-2.355114 11.49398-4.121449 9.430695-12.359228-2.355114-2.646943-4.715348-5.293887-7.070461-7.649001zM285.460286 234.12083199999995c45.382021-26.771502 94.890612-46.77973 138.501178-76.786954-15.026651-0.291829-25.634903 10.592893-37.717661 16.475558-34.47682 16.767387-67.776083 35.895008-101.664124 53.839952-1.177557 0.588778-2.949012 0-4.423519 0.29183 1.771455 2.063285 2.949012 4.121449 5.304126 6.179614zM647.922558 149.09609899999998c-8.253138 11.473501-22.98796 12.354108-33.596212 20.591888-5.304126 4.121449-10.900082 7.649-16.501157 11.181671-3.537791 3.235722-10.311303 4.705108-5.892904 11.77045 24.165517-12.651058 48.622863-25.302115 72.788379-37.953173 2.355114-1.177557 3.532671-3.235722 3.82962-5.590836M733.382475 263.24744699999997h-94.301833c-3.82962-2.943892-7.956189-2.355114-11.78581 0h-97.245725c-2.949012 0-5.892905 0.296949-8.841917 0.296949v1.761216c90.764043 0.296949 181.528085 0.296949 272.287008 0.588778 1.771455 0 3.537791-1.469386 5.304126-2.058164-21.805283-0.291829-43.610566-0.588778-65.415849-0.588779zM288.409299 354.154844c2.063285 3.235722 5.007177 2.652063 7.65924 1.177557 17.386885-9.415336 36.545224-15.58983 51.280045-29.715394-32.715604 0-35.659497 3.532671-58.939285 28.537837zM627.591782 263.24744699999997h11.785809c0-5.293887 3.537791-7.352051 7.956189-9.707165 21.805283-10.884722 44.204464-20.597007 64.83219-32.951116 12.374588-7.649 27.698188-11.77045 36.540105-25.010286-0.885728-0.880608-1.771455-1.761216-2.949012-2.646943-13.260315 13.828615-32.413535 19.41945-48.325914 28.834786-18.272612 10.884722-37.722781 20.003109-56.579052 30.007223-5.304126 2.943892-10.905201 5.590836-13.260315 11.473501zM783.771673 585.9953310000001c-5.304126 9.707165-16.501157 10.879602-24.754295 15.881659-8.248019 4.710228-17.386885 7.94595-22.691011 17.064336h23.576739c8.841917-3.8245 17.089935-8.529608 25.634903-13.531665 3.83474-2.355114 9.430695-4.121449 7.36741-10.592893-2.943892-2.938773-6.184734-5.887785-9.133746-8.826557zM247.450796 149.09609899999998c-8.841917 6.179614-22.399181 6.768393-23.873688 21.185786 3.245961 3.235722 5.309246 5.882665 8.841917 8.826557 8.841917-10.592893 22.394061-14.125564 33.596212-21.185785 4.126569-2.646943 8.248019-4.705108 10.905202-8.826558M792.905419 594.816768c-4.418399 8.529608-14.140923 8.826557-20.919555 13.823495-4.126569 3.240842-9.138866 5.299006-11.790929 10.009234 7.66436 0.291829 15.620549 0.583659 23.279789 0.291829 6.778632-0.291829 15.620549 2.943892 19.450169-5.887784 4.126569-9.410216-5.007177-12.942887-10.019474-18.236774zM233.007804 533.327816c11.785809-12.062279 30.355371-14.709222 40.958503-28.537837-15.615429-4.11633-29.761472-2.355114-42.43301 8.242898-3.82962 2.938773-8.248019 5.580596-7.36229 11.468381l8.836797 8.826558zM224.165887 524.501258c13.557264-14.120444 29.177814-23.24395 49.80042-19.711279 6.778632 0 13.854214-0.296949 20.632845-0.296949v-1.469387c-20.924675-0.291829-41.84935-0.291829-63.065855-0.588778-6.481683 0-13.552145-0.588778-15.912378 7.065342-2.355114 7.055102 2.949012 9.707165 8.550088 15.001051zM521.504139 265.305612c0-0.588778-0.296949-1.177557 0-1.761216-5.012297 0-10.019474-0.296949-14.734821-0.296949H468.457758c-6.773512-5.882665-13.849094-3.532671-20.627726 0h-14.729702c-5.012297-4.413279-9.727644-2.355114-14.734821 0H324.063675c-2.063285 0.296949-4.126569 0.296949-5.892904 0.588779 2.355114 0.880608 4.418399 2.058165 6.778632 2.058164 65.420969-0.291829 130.836818-0.291829 196.554736-0.588778zM600.774202 149.09609899999998c-0.588778 5.590836-5.304126 6.471443-9.133746 8.534728-17.683834 9.118387-35.659497 17.944944-53.63516 27.063331a16.716189 16.716189 0 0 0-7.956189 8.237779c18.861391-3.8245 34.48194-15.001052 50.394318-24.416387 10.608252-6.179614 25.046125-6.768393 31.824757-19.122502M231.241468 148.80426999999997c-5.898024 0-12.379708-0.885728-15.3236 5.882665-3.245961 7.649 2.652063 11.473501 7.362291 15.58983 5.309246-10.295944 18.569561-11.176551 23.873688-21.180666M656.764475 504.789979c-5.012297 9.415336-15.3236 10.884722-23.279789 15.886779-5.304126 3.235722-12.082758 4.11633-15.03177 10.295944 16.798106-7.060222 35.362547-10.592893 47.153476-26.182723h-8.841917zM447.830032 262.95561799999996h20.632846c19.741998-17.653115 45.085072-26.479672 67.187304-40.308287 17.975663-11.181671 37.425832-20.300058 56.282103-30.007223-0.291829-5.002057 4.126569-7.649 5.892904-11.77045-4.710228-0.291829-8.544968 1.177557-12.666417 3.235722-43.318737 23.53578-86.934423 46.77973-130.248039 70.02368-3.83986 2.349994-5.309246 5.585716-7.075581 8.826558zM503.533596 207.34933c7.951069-2.063285 15.615429-4.413279 20.622606-11.77045-7.65924 2.355114-15.615429 4.413279-20.627726 11.77045zM418.365509 263.24744699999997h14.734821c12.671537-14.417393 30.6472-20.003109 46.262629-29.418445 18.564441-11.181671 40.077895-17.653115 56.876001-32.070507-17.975663 0.885728-30.944149 13.531665-45.975919 20.597007-21.800163 10.295944-42.724838 22.947001-63.946463 34.420502-3.532671 1.469386-6.476563 2.943892-7.951069 6.471443zM606.667106 407.406018c4.715348-0.588778 8.841917-2.058165 11.78581-5.882665-5.007177-0.291829-9.425575 0.588778-11.78581 5.887785z"  horiz-adv-x="1024" />
      
      <glyph glyph-name="eth" unicode="&#59374;" d="M1028.653987 384.01024c0-282.771945-229.222936-511.98976-511.98976-511.98976-282.761705 0-511.98976 229.217816-511.98976 511.98976 0 282.766825 229.228055 511.98976 511.98976 511.98976 282.766825 0 511.98976-229.222936 511.98976-511.98976M289.970521 320.56958899999995l219.602648 452.358312v-567.95536zM743.368173 320.56958899999995l-220.380873-115.597048V773.081498zM289.970521 304.02207999999996l219.602648-109.954921v-176.810544zM743.368173 304.02207999999996l-220.380873-286.765465v176.810544z"  horiz-adv-x="1029" />
      
      <glyph glyph-name="swap" unicode="&#58924;" d="M512-61.21739100000002c245.893565 0 445.217391 199.323826 445.217391 445.217391s-199.323826 445.217391-445.217391 445.217391-445.217391-199.323826-445.217391-445.217391 199.323826-445.217391 445.217391-445.217391z m0-66.782609C229.242435-128 0 101.242435 0 384S229.242435 896 512 896 1024 666.757565 1024 384 794.757565-128 512-128zM756.869565 228.17391299999997m-33.391304 0l-467.478261 0q-33.391304 0-33.391304 33.391304l0 0q0 33.391304 33.391304 33.391305l467.478261 0q33.391304 0 33.391304-33.391305l0 0q0-33.391304-33.391304-33.391304ZM394.266798 75.630766m-23.611218 23.611218l-133.7969 133.796901q-23.611218 23.611218 0 47.222435l0 0q23.611218 23.611218 47.222435 0l133.796901-133.7969q23.611218-23.611218 0-47.222436l0 0q-23.611218-23.611218-47.222436 0ZM222.608696 495.304348m33.391304 0l467.478261 0q33.391304 0 33.391304-33.391305l0 0q0-33.391304-33.391304-33.391304l-467.478261 0q-33.391304 0-33.391304 33.391304l0 0q0 33.391304 33.391304 33.391305ZM581.471637 651.142103m23.611217-23.611218l133.796901-133.7969q23.611218-23.611218 0-47.222436l0 0q-23.611218-23.611218-47.222436 0l-133.7969 133.796901q-23.611218 23.611218 0 47.222435l0 0q23.611218 23.611218 47.222435 0Z"  horiz-adv-x="1024" />
      
      <glyph glyph-name="quote" unicode="&#58897;" d="M499.809524 871.619048C223.792762 871.619048 0 647.875048 0 371.809524 0 95.79276200000004 223.792762-128 499.809524-128 775.875048-128 999.619048 95.79276200000004 999.619048 371.809524 999.619048 647.875048 775.875048 871.619048 499.809524 871.619048z m0-924.647619c-234.617905 0-424.838095 190.19581-424.838095 424.838095 0 234.617905 190.22019 424.838095 424.838095 424.838095 234.617905 0 424.838095-190.22019 424.838095-424.838095 0-234.642286-190.22019-424.838095-424.838095-424.838095z m301.592381 601.551238a37.351619 37.351619 0 0 1-29.403429 10.873904 37.351619 37.351619 0 0 1-2.438095 0.073143L594.651429 559.542857a37.546667 37.546667 0 0 1 0-74.995809h89.746285l-139.702857-139.654096-97.596952 97.645715a37.424762 37.424762 0 0 1-27.136 10.971428c-9.898667 0.24381-19.846095-3.413333-27.37981-10.971428L198.217143 248.17371400000002a37.497905 37.497905 0 0 1 53.00419-53.028571l168.594286 168.618667 97.962667-97.962667c7.314286-7.314286 16.944762-10.971429 26.575238-10.971429 9.874286-0.195048 19.821714 3.437714 27.355428 10.971429l165.668572 165.717333v-85.284571a37.546667 37.546667 0 0 1 37.473524-37.473524c20.72381 0 37.595429 16.749714 37.546666 37.449143v174.933333 0.438857a37.302857 37.302857 0 0 1-10.971428 26.965334z"  horiz-adv-x="1024" />
      
      </font>
</defs>
</svg>
