<svg width="14" height="14" viewBox="0 0 14 14" fill="none" xmlns="http://www.w3.org/2000/svg">
<path fill-rule="evenodd" clip-rule="evenodd" d="M9.5522 1.54469C9.56768 1.566 9.59782 1.58467 9.62383 1.58895C9.73786 1.60772 9.85438 1.61349 9.96717 1.63736C10.245 1.69612 10.5213 1.76225 10.8101 1.82812C10.802 1.79879 10.7958 1.76736 10.785 1.73765C10.6552 1.38315 10.453 1.07449 10.1987 0.796624C10.1288 0.720196 10.0619 0.712979 9.97542 0.753947C9.73989 0.865555 9.55563 1.03459 9.41589 1.25255C9.40342 1.272 9.40357 1.31165 9.41512 1.33225C9.45632 1.40565 9.50268 1.47655 9.5522 1.54469Z" fill="#999999"/>
<path fill-rule="evenodd" clip-rule="evenodd" d="M11.8434 3.5433C11.7131 3.54454 11.5992 3.43081 11.5979 3.29814C11.5965 3.16995 11.7017 3.06353 11.8281 3.06515C11.957 3.06678 12.0748 3.18393 12.0748 3.31056C12.0748 3.43917 11.9725 3.54206 11.8434 3.5433ZM6.99798 3.85774C6.21848 3.78488 5.4407 3.76374 4.67669 3.98045C4.49643 4.03159 4.31668 4.08806 4.14306 4.15791C3.97297 4.22631 3.81102 4.31488 3.63753 4.38911C3.74162 4.30578 3.84374 4.21987 3.95031 4.13985C4.05784 4.05908 4.1667 3.97929 4.2806 3.90806C4.39638 3.83567 4.51904 3.7743 4.66194 3.69524C4.02031 3.76124 3.44633 3.94978 2.91246 4.26422C3.46018 3.81186 4.07986 3.50855 4.78215 3.39792C5.81087 3.23588 6.78817 3.37729 7.69257 3.94236C7.45502 3.91306 7.22708 3.87914 6.99798 3.85774ZM13.9596 4.2342C13.4765 3.70792 12.9477 3.23793 12.3327 2.86734C11.5886 2.4189 10.7839 2.13763 9.93541 1.97122C9.85772 1.95598 9.7789 1.94661 9.69633 1.93383C9.73786 2.13695 9.77699 2.32674 9.81544 2.51664C9.8543 2.70866 9.89252 2.90083 9.93155 3.09555C9.82966 3.05635 9.73444 3.02582 9.64448 2.98398C9.33535 2.84024 9.15979 2.60733 9.16933 2.25441C9.1729 2.12293 9.17623 1.99135 9.17495 1.85988C9.17262 1.6209 9.09918 1.40435 8.95717 1.21218C8.69808 0.861532 8.27102 0.755073 7.88796 0.9442C7.50925 1.13117 7.28882 1.63159 7.40576 2.07761C7.54278 2.60021 7.91421 2.90024 8.40988 3.04991C8.66183 3.12598 8.92761 3.15625 9.18472 3.20677C9.03566 3.30424 8.86381 3.35324 8.67848 3.35848C8.30885 3.36893 7.98096 3.25743 7.70054 3.01593C7.64006 2.96384 7.59353 2.9535 7.51171 2.98017C7.37684 3.02411 7.23016 3.06436 7.09123 3.05658C6.79837 3.04019 6.50664 2.99665 6.21568 2.95548C5.46304 2.84894 4.7207 2.88918 3.9978 3.12887C2.85268 3.50857 1.96124 4.21596 1.34948 5.25721C0.66579 6.42079 0.528662 7.6625 0.866362 8.96266C0.883444 9.02845 0.903101 9.09358 0.921066 9.15723C0.862885 9.19844 0.812221 9.23507 0.760805 9.27063C0.0151598 9.78635 -0.341388 10.8595 0.437557 11.7702C0.750469 12.136 1.12861 12.413 1.55856 12.6217C2.29847 12.9807 3.08371 13.1835 3.89697 13.283C4.65564 13.3759 5.4157 13.3769 6.1745 13.2868C7.15702 13.1701 8.11273 12.9309 9.05718 12.6416C9.9281 12.3748 10.7979 12.1025 11.703 11.9704C12.2069 11.8969 12.7125 11.8707 13.2201 11.9226C13.373 11.9383 13.5252 11.9616 13.6777 11.9815C13.6656 11.959 13.6503 11.9491 13.6339 11.9419C13.5765 11.9168 13.5196 11.8906 13.4611 11.8686C13.0005 11.6956 12.52 11.6383 12.0322 11.6341C11.3395 11.6282 10.6592 11.7373 9.98564 11.8845C9.25202 12.0448 8.52374 12.2294 7.79016 12.3899C6.71537 12.6251 5.63067 12.762 4.52731 12.6617C3.79048 12.5947 3.07195 12.4459 2.38727 12.159C1.95634 11.9784 1.55755 11.7462 1.2449 11.3883C1.14024 11.2685 1.05942 11.1367 1.03155 10.977C0.980281 10.6833 1.20671 10.4551 1.50066 10.5094C1.60494 10.5287 1.70578 10.566 1.80972 10.5877C1.88019 10.6024 1.92001 10.6371 1.95175 10.703C2.00045 10.8041 2.0609 10.9004 2.12389 10.9936C2.25674 11.1903 2.43406 11.2949 2.68267 11.2943C4.17662 11.2905 5.67058 11.2939 7.16456 11.2946C7.18506 11.2946 7.20558 11.2914 7.22609 11.2896C7.23148 11.2814 7.23689 11.2731 7.24229 11.2648C7.10634 11.1433 6.97711 11.013 6.83265 10.9026C6.67733 10.7839 6.49236 10.7312 6.29562 10.731C5.7068 10.7305 5.11797 10.7314 4.52917 10.732C4.50102 10.7321 4.47291 10.7356 4.44475 10.7364C4.42023 10.7372 4.39569 10.7366 4.35478 10.7366C4.37945 10.7191 4.38622 10.712 4.3945 10.7088C5.183 10.4084 5.57491 9.8061 5.65564 8.99494C5.77375 7.80824 4.77623 6.55183 3.25121 6.71424C2.99221 6.74183 2.74293 6.79984 2.50758 6.91355C3.0687 6.45024 3.70437 6.23445 4.43508 6.32805C3.71858 5.96869 3.00657 5.99834 2.29475 6.3491C2.31434 6.32655 2.33469 6.30393 2.35961 6.28878C2.56236 6.16567 2.75502 6.01813 2.97126 5.9264C3.78069 5.5831 4.55304 5.65215 5.24766 6.21297C5.82152 6.67628 6.11222 7.30364 6.18149 8.02585C6.2495 8.73493 6.10482 9.40424 5.69624 10.0005C5.60851 10.1286 5.49846 10.2413 5.39353 10.3674C6.09627 10.1335 6.6486 9.68697 7.15518 9.1612C7.19194 9.20793 7.22227 9.24338 7.24916 9.28124C7.42318 9.52631 7.59459 9.77323 7.77035 10.017C8.078 10.4437 8.3787 10.8764 8.76385 11.2398C8.79553 11.2697 8.84894 11.2911 8.89252 11.2915C9.36222 11.2963 9.83197 11.2961 10.3017 11.2971C10.3777 11.2973 10.4538 11.2972 10.5402 11.2972C10.3846 11.0379 10.1724 10.8995 9.8807 10.8968C9.61137 10.8942 9.34192 10.8986 9.07272 10.8924C9.02794 10.8913 8.96972 10.8627 8.94204 10.8277C8.71059 10.5344 8.51081 10.2201 8.35162 9.88175C8.14919 9.4515 8.027 8.99909 8.03033 8.52175C8.03786 7.44088 8.52233 6.59987 9.36115 5.94969C9.81538 5.59761 10.3432 5.40345 10.902 5.29043C11.1729 5.23563 11.4458 5.19053 11.7177 5.14103C11.6914 5.172 11.6609 5.18664 11.63 5.20036C11.3927 5.30577 11.1537 5.40758 10.9182 5.51697C10.3638 5.77449 9.84656 6.08715 9.4173 6.5312C8.70691 7.26604 8.37487 8.12389 8.55894 9.15082C8.64976 9.65741 8.8458 10.1213 9.13645 10.5452C9.15939 10.5787 9.19711 10.6238 9.22968 10.6252C9.40636 10.6331 9.58358 10.629 9.77141 10.629C9.75855 10.6013 9.75214 10.5841 9.74307 10.5685C9.59806 10.3191 9.54296 10.0436 9.51224 9.76201C9.43994 9.09956 9.58094 8.47163 9.83885 7.86736C10.0808 7.30051 10.4039 6.7786 10.766 6.28128C10.9915 5.97164 11.2474 5.69298 11.6208 5.55821C11.7972 5.49454 11.9748 5.42987 12.1569 5.38757C12.4187 5.32678 12.6886 5.29958 12.9489 5.23366C13.4186 5.1147 13.7559 4.82186 13.9794 4.3943C14.0107 4.33439 14.008 4.28699 13.9596 4.2342Z" fill="#999999"/>
</svg>
