<?xml version="1.0" encoding="UTF-8"?>
<svg width="144px" height="144px" viewBox="0 0 144 144" version="1.1" xmlns="http://www.w3.org/2000/svg" xmlns:xlink="http://www.w3.org/1999/xlink">
    <title>聚合交易</title>
    <defs>
        <circle id="path-1" cx="60" cy="60" r="60"></circle>
        <filter x="-15.8%" y="-14.2%" width="131.7%" height="131.7%" filterUnits="objectBoundingBox" id="filter-2">
            <feOffset dx="0" dy="2" in="SourceAlpha" result="shadowOffsetOuter1"></feOffset>
            <feGaussianBlur stdDeviation="6" in="shadowOffsetOuter1" result="shadowBlurOuter1"></feGaussianBlur>
            <feColorMatrix values="0 0 0 0 0   0 0 0 0 0   0 0 0 0 0  0 0 0 0.06 0" type="matrix" in="shadowBlurOuter1"></feColorMatrix>
        </filter>
    </defs>
    <g id="avedex" stroke="none" stroke-width="1" fill="none" fill-rule="evenodd">
        <g id="首页0515备份" transform="translate(-890.000000, -1848.000000)">
            <g id="链上交易备份" transform="translate(0.000000, 1609.000000)">
                <g id="编组-24" transform="translate(446.000000, 249.000000)">
                    <g id="编组-6备份" transform="translate(451.000000, 0.000000)">
                        <g id="聚合交易" transform="translate(5.000000, 0.000000)">
                            <g id="椭圆形">
                                <use fill="black" fill-opacity="1" filter="url(#filter-2)" xlink:href="#path-1"></use>
                                <use fill="#FFFFFF" fill-rule="evenodd" xlink:href="#path-1"></use>
                            </g>
                            <g id="node" transform="translate(28.000000, 24.000000)" fill-rule="nonzero">
                                <path d="M54.8336203,22.2723322 L48.1280664,26.1435349 C48.5541573,26.7742044 48.9395156,27.4341647 49.2907774,28.1144913 L55.9743631,24.2556457 C55.4352277,23.7139931 55.0388854,23.0325223 54.8336203,22.2723322 Z" id="路径" fill-opacity="0.43159965" fill="#558BED"></path>
                                <path d="M9.16454902,22.2723322 C8.9595128,23.0325223 8.56294164,23.7139931 8.02380623,24.2558745 L14.7087649,28.1154067 C15.0597979,27.4348512 15.4451562,26.7751197 15.8712471,26.1442215 L9.16454902,22.2723322 Z" id="路径" fill-opacity="0.43159965" fill="#558BED"></path>
                                <path d="M31.9990847,9.90288166 C31.6029712,9.90288166 31.2208166,9.84613057 30.8549093,9.74933333 L30.8549093,17.6056987 C31.2338602,17.5837306 31.6146418,17.5695428 31.9990847,17.5695428 C32.3835276,17.5695428 32.7643091,17.5837306 33.14326,17.6056987 L33.14326,9.74933333 C32.7773527,9.8463594 32.395427,9.90288166 31.9990847,9.90288166 Z" id="路径" fill-opacity="0.43159965" fill="#558BED"></path>
                                <path d="M49.48277,45.5498925 C49.1461536,46.2382284 48.7678893,46.9016212 48.3552997,47.5412152 L54.8336203,51.2815243 C55.0388854,50.5215631 55.4352277,49.8398634 55.9743631,49.297982 L49.48277,45.5498925 Z" id="路径" fill-opacity="0.43159965" fill="#558BED"></path>
                                <path d="M14.5167723,45.549206 L8.02380623,49.297982 C8.56317047,49.8398634 8.9595128,50.5215631 9.16454902,51.2815243 L15.643785,47.5405287 C15.2316531,46.9009347 14.852931,46.2375419 14.5167723,45.549206 Z" id="路径" fill-opacity="0.43159965" fill="#558BED"></path>
                                <path d="M31.9990847,56.4699017 C31.6146418,56.4699017 31.2338602,56.455714 30.8549093,56.4337458 L30.8549093,63.8049809 C31.2210454,63.7079548 31.6034288,63.6512037 32,63.6512037 C32.3958847,63.6512037 32.7775815,63.7079548 33.14326,63.8045232 L33.14326,56.4337458 C32.7643091,56.455714 32.3835276,56.4699017 31.9990847,56.4699017 Z" id="路径" fill-opacity="0.43159965" fill="#558BED"></path>
                                <path d="M31.9990847,17.569314 C21.2575668,17.569314 12.5490196,26.2769458 12.5490196,37.0198367 C12.5490196,47.7618122 21.2575668,56.4696729 31.9990847,56.4696729 C42.7419755,56.4696729 51.4509804,47.7618122 51.4509804,37.0198367 C51.4509804,26.2769458 42.7419755,17.569314 31.9990847,17.569314 Z" id="路径" fill="#558BED"></path>
                                <path d="M31.9990847,22.4199308 C23.9358524,22.4199308 17.3984923,28.9561467 17.3984923,37.0200655 C17.3984923,45.083069 23.9356235,51.6202002 31.9990847,51.6202002 C40.0627746,51.6202002 46.5999059,45.0832978 46.5999059,37.0200655 C46.5999059,28.9561467 40.0627746,22.4199308 31.9990847,22.4199308 Z" id="路径" fill="#FFFFFF"></path>
                                <path d="M37.8860955,37.9301426 C37.3652669,37.3299082 36.6668623,36.9340235 35.7885933,36.7452346 C36.031845,36.6372245 36.2007253,36.5596494 36.2952341,36.511594 C36.3895142,36.4651405 36.5593098,36.3466039 36.801875,36.1573573 C37.5181287,35.6177642 37.8755691,34.7930427 37.8755691,33.6852521 C37.8755691,32.7662505 37.5586325,31.9433596 36.9236152,31.2142911 C36.5723534,30.821839 36.0487788,30.5117675 35.3526625,30.2804152 C35.1460245,30.2122224 34.9222238,30.1570731 34.690185,30.1099331 L34.690185,28.3080858 L32.2054939,28.3080858 L32.2054939,29.9369338 L30.5388881,29.9369338 L30.5388881,28.3080858 L28.0532817,28.3080858 L28.0532817,29.9369338 L27.3589961,29.9369338 L25.3328904,29.9369338 L25.3328904,32.6111003 L27.3589961,32.6111003 L27.3589961,41.4260558 L25.3328904,41.4260558 L25.3328904,44.1009089 L27.3589961,44.1009089 L28.0532817,44.1009089 L28.0532817,45.7304434 L30.5388881,45.7304434 L30.5388881,44.1009089 L32.2054939,44.1009089 L32.2054939,45.7304434 L34.690185,45.7304434 L34.690185,44.0407253 C36.0414561,43.8947285 37.032083,43.4798505 37.6531414,42.7851073 C38.3277472,42.0285785 38.6659654,41.1569458 38.6659654,40.170209 C38.6659654,39.2786676 38.4055511,38.533123 37.8860955,37.9301426 Z M30.5205813,32.6111003 L32.040275,32.6111003 C32.9720913,32.6111003 33.6331958,32.7127031 34.0247326,32.9152221 C34.4174136,33.1175123 34.6126099,33.5323903 34.6126099,34.1614579 C34.6126099,34.7889236 34.4000221,35.1987672 33.9746178,35.3868697 C33.5487557,35.5763451 32.8970334,35.670854 32.0199087,35.670854 L30.5205813,35.670854 L30.5205813,32.6111003 L30.5205813,32.6111003 Z M34.7251968,41.0919566 C34.2714168,41.3152997 33.592692,41.4262847 32.6878782,41.4262847 L30.5205813,41.4262847 L30.5205813,38.1649273 L32.3842141,38.1649273 C33.4375419,38.1649273 34.2039105,38.269505 34.6835488,38.4784314 C35.1636448,38.688502 35.4036929,39.1203137 35.4036929,39.7756973 C35.4039216,40.4301656 35.1778325,40.8693001 34.7251968,41.0919566 Z" id="形状" fill="#558BED"></path>
                                <circle id="椭圆形" fill="#0D5BE9" cx="31.9990847" cy="5.44082676" r="4.46228374"></circle>
                                <circle id="椭圆形" fill="#0D5BE9" cx="4.86084798" cy="52.4451506" r="4.46228374"></circle>
                                <circle id="椭圆形" fill="#0D5BE9" cx="59.1373213" cy="52.4451506" r="4.46228374"></circle>
                                <circle id="椭圆形" fill-opacity="0.43159965" fill="#558BED" cx="32" cy="68.1132586" r="4.46228374"></circle>
                                <circle id="椭圆形" fill-opacity="0.43159965" fill="#558BED" cx="4.86084798" cy="21.1087059" r="4.46228374"></circle>
                                <circle id="椭圆形" fill-opacity="0.43159965" fill="#558BED" cx="59.1373213" cy="21.1087059" r="4.46228374"></circle>
                            </g>
                        </g>
                    </g>
                </g>
            </g>
        </g>
    </g>
</svg>