<?xml version="1.0" encoding="UTF-8"?>
<svg width="144px" height="144px" viewBox="0 0 144 144" version="1.1" xmlns="http://www.w3.org/2000/svg" xmlns:xlink="http://www.w3.org/1999/xlink">
    <title>热门币</title>
    <defs>
        <circle id="path-1" cx="60" cy="60" r="60"></circle>
        <filter x="-15.8%" y="-14.2%" width="131.7%" height="131.7%" filterUnits="objectBoundingBox" id="filter-2">
            <feOffset dx="0" dy="2" in="SourceAlpha" result="shadowOffsetOuter1"></feOffset>
            <feGaussianBlur stdDeviation="6" in="shadowOffsetOuter1" result="shadowBlurOuter1"></feGaussianBlur>
            <feColorMatrix values="0 0 0 0 0   0 0 0 0 0   0 0 0 0 0  0 0 0 0.06 0" type="matrix" in="shadowBlurOuter1"></feColorMatrix>
        </filter>
    </defs>
    <g id="avedex" stroke="none" stroke-width="1" fill="none" fill-rule="evenodd">
        <g id="首页0515备份" transform="translate(-1287.000000, -1848.000000)">
            <g id="链上交易备份" transform="translate(0.000000, 1609.000000)">
                <g id="编组-24" transform="translate(446.000000, 249.000000)">
                    <g id="编组-6备份-2" transform="translate(832.000000, 0.000000)">
                        <g id="热门币" transform="translate(21.000000, 0.000000)">
                            <g id="椭圆形">
                                <use fill="black" fill-opacity="1" filter="url(#filter-2)" xlink:href="#path-1"></use>
                                <use fill="#FFFFFF" fill-rule="evenodd" xlink:href="#path-1"></use>
                            </g>
                            <g id="proof-of-burn" transform="translate(35.000000, 26.000000)" fill-rule="nonzero">
                                <path d="M46.957629,31.1063782 C46.957629,31.1063782 46.9950417,35.7376606 44.6876268,38.7523101 C43.0946586,40.8336714 41.6265495,41.14627 41.6265495,41.14627 C41.6265495,41.14627 46.6943881,35.2981744 44.1401848,24.7802569 C41.469236,13.7818346 25.8251071,0.522425062 25.8251071,0.522425062 C25.8251071,0.522425062 27.2968222,7.70588235 18.6229434,15.6783863 C13.7518594,20.1555105 5.32589588,27.3157539 4.1663286,36.1135903 C2.9508677,45.3376155 7.89610097,51.4480505 10.4532342,53.9328375 C10.4052288,53.418526 10.3777327,52.8976786 10.3777327,52.370746 C10.3777327,43.1834573 17.8251071,35.7376606 27.0110435,35.7376606 C36.1967546,35.7376606 43.6452558,43.1834573 43.6452558,52.370746 C43.6452558,53.1041244 43.5927428,53.8246563 43.5007888,54.5330178 C45.0601758,53.0504846 48.5792202,49.054316 49.3971152,42.5460897 C50.3380663,35.0588235 46.957629,31.1063782 46.957629,31.1063782 Z" id="路径" fill="#558BED"></path>
                                <path d="M27.0110435,35.7376606 C17.8251071,35.7376606 10.3777327,43.1834573 10.3777327,52.370746 C10.3777327,61.5571332 17.8251071,69.0033807 27.0110435,69.0033807 C36.1967546,69.0033807 43.6452558,61.5571332 43.6452558,52.370746 C43.6452558,43.1834573 36.1967546,35.7376606 27.0110435,35.7376606 Z" id="路径" fill="#FFBE1B"></path>
                                <path d="M38.2796935,35.402975 C37.5057471,20.5059725 23.5571332,16.2159117 23.5571332,16.2159117 C23.5571332,16.2159117 27.1471715,21.7667343 24.0180302,25.8690557 C20.654947,30.2783412 15.2803696,31.7683119 12.7610998,38.0295245 C11.7464503,40.5512734 11.8224025,42.7899482 12.3056119,44.5977011 C15.096687,39.3286004 20.6333108,35.737886 27.0110435,35.737886 C31.168357,35.737886 34.9668695,37.2666216 37.8830291,39.7883705 C38.1994591,38.4383593 38.3610548,36.9713771 38.2796935,35.402975 Z" id="路径" fill="#B6CDF7"></path>
                                <path d="M27.0110435,35.7376606 C17.8251071,35.7376606 10.3777327,43.1834573 10.3777327,52.370746 C10.3777327,61.5571332 17.8251071,69.0033807 27.0110435,69.0033807 C36.1967546,69.0033807 43.6452558,61.5571332 43.6452558,52.370746 C43.6452558,43.1834573 36.1967546,35.7376606 27.0110435,35.7376606 Z" id="路径" fill="#0D5BE9"></path>
                                <path d="M27.0110435,39.8850575 C20.1156187,39.8850575 14.5251296,45.474645 14.5251296,52.370746 C14.5251296,59.2659455 20.115844,64.8559838 27.0110435,64.8559838 C33.9053414,64.8559838 39.4958305,59.2657201 39.4958305,52.370746 C39.4958305,45.4744197 33.9053414,39.8850575 27.0110435,39.8850575 Z" id="路径" fill="#FFFFFF"></path>
                                <path d="M32.0455263,53.1496507 C31.5995042,52.6366915 31.001803,52.2979491 30.250169,52.1359026 C30.4584178,52.044174 30.6031102,51.9781384 30.6840207,51.9371197 C30.7649313,51.8965517 30.909849,51.795808 31.1174217,51.63286 C31.7308993,51.1712869 32.0362858,50.4667568 32.0362858,49.5190444 C32.0362858,48.7336038 31.7656074,48.0292991 31.2222222,47.4054541 C30.9213432,47.0700924 30.4744197,46.8043723 29.879423,46.6073924 C29.7018256,46.5485689 29.5098039,46.5019157 29.3121478,46.460897 L29.3121478,44.919991 L27.1863872,44.919991 L27.1863872,46.3139509 L25.7624521,46.3139509 L25.7624521,44.919991 L23.6351138,44.919991 L23.6351138,46.3139509 L23.0412441,46.3139509 L21.3094433,46.3139509 L21.3094433,48.6006311 L23.0412441,48.6006311 L23.0412441,56.1390579 L21.3094433,56.1390579 L21.3094433,58.4273158 L23.0412441,58.4273158 L23.6351138,58.4273158 L23.6351138,59.8199234 L25.7624521,59.8199234 L25.7624521,58.4273158 L27.1863872,58.4273158 L27.1863872,59.8199234 L29.3121478,59.8199234 L29.3121478,58.374352 C30.4665314,58.250169 31.3144016,57.8949741 31.8449403,57.3006536 C32.4230336,56.6542709 32.7121929,55.9091729 32.7121929,55.0646833 C32.7121929,54.3022312 32.4899707,53.665089 32.0455263,53.1496507 Z M25.745098,48.6006311 L27.045977,48.6006311 C27.8424611,48.6006311 28.4077079,48.6883029 28.7435204,48.8618436 C29.078206,49.0344828 29.2461122,49.3887762 29.2461122,49.9269777 C29.2461122,50.4642777 29.0642326,50.8138382 28.6997972,50.9740816 C28.3371648,51.1365788 27.7793554,51.2174893 27.0286229,51.2174893 L25.745098,51.2174893 L25.745098,48.6006311 L25.745098,48.6006311 Z M29.3409962,55.8528285 C28.954023,56.0437232 28.3741267,56.1390579 27.5999549,56.1390579 L25.745098,56.1390579 L25.745098,53.3493351 L27.34032,53.3493351 C28.2420554,53.3493351 28.8967771,53.4392608 29.306288,53.6175344 C29.7167005,53.7967095 29.9222448,54.1670047 29.9222448,54.7275186 C29.9222448,55.2869056 29.7281947,55.6628352 29.3409962,55.8528285 Z" id="形状" fill="#558BED"></path>
                                <path d="M16.4527834,11.0784314 C10.8201487,15.753437 3.24092856,18.6765833 1.13409962,26.4128916 C0.326346631,29.3793103 0.312373225,32.5609646 1.22785666,35.5059725 C1.38584629,36.0139734 1.81789497,37.0633311 1.81789497,37.0633311 C1.81789497,37.0633311 1.89655172,35.9409511 1.94365562,35.4284426 C2.24025242,32.2114041 3.06874014,28.9858012 4.7394636,26.1967546 C5.65021411,24.6768087 6.7615506,23.3628578 8.04642777,22.1469461 C12.4309218,17.9990985 18.7847645,14.9988731 20.1271129,8.55442867 C20.1929231,8.2384494 20.3619563,6.88009917 20.3619563,6.88009917 C20.3619563,6.88009917 17.9386973,9.84494027 16.4527834,11.0784314 Z" id="路径" fill="#558BED"></path>
                            </g>
                        </g>
                    </g>
                </g>
            </g>
        </g>
    </g>
</svg>