<svg width="16" height="16" viewBox="0 0 16 16" fill="currentColor" xmlns="http://www.w3.org/2000/svg">
<path d="M11.0775 12.1026V12.9231C11.0775 14.9071 9.9845 16 8.0004 16H3.07708C1.09298 16 0 14.9071 0 12.9231V3.07692C0 1.09292 1.09298 0 3.07708 0H8.0004C9.9845 0 11.0775 1.09292 11.0775 3.07692V3.89744C11.0775 4.23713 10.8018 4.51282 10.4621 4.51282C10.1224 4.51282 9.84665 4.23713 9.84665 3.89744V3.07692C9.84665 1.78297 9.29442 1.23077 8.0004 1.23077H3.07708C1.78306 1.23077 1.23083 1.78297 1.23083 3.07692V12.9231C1.23083 14.217 1.78306 14.7692 3.07708 14.7692H8.0004C9.29442 14.7692 9.84665 14.217 9.84665 12.9231V12.1026C9.84665 11.7629 10.1224 11.4872 10.4621 11.4872C10.8018 11.4872 11.0775 11.7629 11.0775 12.1026ZM15.9532 8.23548C16.0156 8.08532 16.0156 7.91548 15.9532 7.76532C15.922 7.68984 15.8769 7.62174 15.8203 7.56513L13.3586 5.10359C13.1182 4.86318 12.7284 4.86318 12.488 5.10359C12.2476 5.344 12.2476 5.73375 12.488 5.97416L13.8994 7.38544H4.71819C4.37848 7.38544 4.10277 7.66113 4.10277 8.00083C4.10277 8.34052 4.37848 8.61621 4.71819 8.61621H13.8994L12.488 10.0275C12.2476 10.2679 12.2476 10.6577 12.488 10.8981C12.6078 11.0179 12.7654 11.0786 12.9229 11.0786C13.0805 11.0786 13.238 11.0187 13.3578 10.8981L15.8195 8.43652C15.8769 8.37827 15.922 8.31014 15.9532 8.23548Z" fill="#E9E9E9"/>
</svg>
