<svg width="24" height="24" viewBox="0 0 24 24" fill="none" xmlns="http://www.w3.org/2000/svg">
<rect width="24" height="24" rx="12" fill="#F6465D" fill-opacity="0.1"/>
<path d="M16.7985 7.20525C16.7985 6.63043 16.6548 6.09622 16.3674 5.60262C16.08 5.10903 15.6926 4.71853 15.2053 4.43112C14.7179 4.14371 14.1837 4 13.6026 4C13.0216 4 12.4874 4.14371 12 4.43112C11.5127 4.71853 11.1253 5.10278 10.8379 5.58388C10.5505 6.06498 10.4068 6.59919 10.4068 7.1865C10.4068 7.91128 10.6286 8.5642 11.0722 9.14527C11.5158 9.72634 12.0937 10.1106 12.806 10.298V15.9963C12.806 16.4336 12.6967 16.8366 12.478 17.2052C12.2593 17.5739 11.9656 17.8644 11.597 18.0769C11.2284 18.2893 10.8285 18.3955 10.3974 18.3955C9.96627 18.3955 9.56639 18.2893 9.19776 18.0769C8.82912 17.8644 8.53859 17.5739 8.32615 17.2052C8.11372 16.8366 8.0075 16.4336 8.0075 15.9963H10.4068L6.39551 12.0037V15.9963C6.39551 16.5336 6.4986 17.0459 6.70479 17.5333C6.91097 18.0206 7.20151 18.4517 7.57639 18.8266C7.95127 19.2015 8.38239 19.492 8.86973 19.6982C9.35708 19.9044 9.8663 20.0075 10.3974 20.0075C10.9285 20.0075 11.4408 19.9044 11.9344 19.6982C12.428 19.492 12.8622 19.2015 13.2371 18.8266C13.612 18.4517 13.8994 18.0206 14.0993 17.5333C14.2993 17.0459 14.3993 16.5336 14.3993 15.9963V10.298C15.099 10.1106 15.6739 9.72946 16.1237 9.15464C16.5736 8.57982 16.7985 7.93002 16.7985 7.20525ZM13.5933 8.7985C13.1559 8.7985 12.781 8.6423 12.4686 8.3299C12.1562 8.01749 12 7.64261 12 7.20525C12 6.76789 12.1562 6.393 12.4686 6.0806C12.781 5.7682 13.159 5.612 13.6026 5.612C14.0462 5.612 14.4242 5.7682 14.7367 6.0806C15.0491 6.393 15.2053 6.76789 15.2053 7.20525C15.2053 7.64261 15.0491 8.01749 14.7367 8.3299C14.4242 8.6423 14.0431 8.7985 13.5933 8.7985Z" fill="#F6465D"/>
</svg>
