<svg width="219" height="43" viewBox="0 0 219 43" fill="none" xmlns="http://www.w3.org/2000/svg">
<path d="M91.4062 41.9375V0.6875H107.906V8.65625H99.7969V16.6953H107.578V24.4531H99.7969V33.8984H108.445V41.9375H91.4062Z" fill="#FFDE80"/>
<path d="M55.5938 41.9375V0.6875H68.1562L71.625 25.8359L75.0703 0.6875H87.75V41.9375H80.2031V12.2188L75.4688 41.9375H68.0625L63.0469 12.2188V41.9375H55.5938Z" fill="#FFDE80"/>
<path d="M35.8125 41.9375V0.6875H52.3125V8.65625H44.2031V16.6953H51.9844V24.4531H44.2031V33.8984H52.8516V41.9375H35.8125Z" fill="#FFDE80"/>
<path d="M0 41.9375V0.6875H12.5625L16.0312 25.8359L19.4766 0.6875H32.1562V41.9375H24.6094V12.2188L19.875 41.9375H12.4688L7.45312 12.2188V41.9375H0Z" fill="#FFDE80"/>
<path d="M185.484 41.9375V6.78125H193.688V10.8594C194.062 9.42188 194.703 8.32031 195.609 7.55469C196.516 6.78906 197.844 6.40625 199.594 6.40625C201 6.40625 202.195 6.73438 203.18 7.39062C204.18 8.03125 204.883 8.88281 205.289 9.94531C205.93 8.78906 206.68 7.91406 207.539 7.32031C208.414 6.71094 209.656 6.40625 211.266 6.40625C213.219 6.40625 214.719 6.82812 215.766 7.67188C216.828 8.5 217.562 9.65625 217.969 11.1406C218.391 12.6094 218.602 14.3125 218.602 16.25V41.9375H210.234V16.1094C210.234 13.8438 209.656 12.7109 208.5 12.7109C207.891 12.7109 207.422 12.9219 207.094 13.3438C206.766 13.75 206.539 14.2578 206.414 14.8672C206.289 15.4766 206.227 16.0859 206.227 16.6953V41.9375H197.859V16.1094C197.859 15.375 197.766 14.6406 197.578 13.9062C197.406 13.1719 196.953 12.8047 196.219 12.8047C195.594 12.8047 195.109 13.0312 194.766 13.4844C194.422 13.9375 194.188 14.5 194.062 15.1719C193.938 15.8281 193.875 16.4766 193.875 17.1172V41.9375H185.484Z" fill="white"/>
<path d="M168.68 42.3125C166.727 42.3125 165.234 41.8594 164.203 40.9531C163.188 40.0469 162.492 38.8047 162.117 37.2266C161.742 35.6484 161.555 33.8594 161.555 31.8594C161.555 29.7188 161.766 27.9688 162.188 26.6094C162.609 25.2344 163.328 24.1094 164.344 23.2344C165.375 22.3594 166.789 21.6172 168.586 21.0078L173.789 19.2266V15.6172C173.789 13.7266 173.172 12.7812 171.938 12.7812C170.812 12.7812 170.25 13.5469 170.25 15.0781V17.1875H162.094C162.078 17.0625 162.07 16.9062 162.07 16.7188C162.07 16.5156 162.07 16.2891 162.07 16.0391C162.07 12.5391 162.891 10.0625 164.531 8.60938C166.188 7.14062 168.805 6.40625 172.383 6.40625C174.258 6.40625 175.938 6.74219 177.422 7.41406C178.906 8.07031 180.078 9.04688 180.938 10.3438C181.812 11.6406 182.25 13.2422 182.25 15.1484V41.9375H173.906V37.7656C173.5 39.2344 172.828 40.3594 171.891 41.1406C170.953 41.9219 169.883 42.3125 168.68 42.3125ZM171.984 35.7969C172.672 35.7969 173.141 35.5078 173.391 34.9297C173.641 34.3516 173.766 33.7266 173.766 33.0547V23.2578C172.609 23.7266 171.711 24.3203 171.07 25.0391C170.43 25.7422 170.109 26.7812 170.109 28.1562V32.6797C170.109 34.7578 170.734 35.7969 171.984 35.7969Z" fill="white"/>
<path d="M148.688 42.3125C146.188 42.3125 144.195 41.8438 142.711 40.9062C141.227 39.9688 140.164 38.6172 139.523 36.8516C138.883 35.0859 138.562 32.9609 138.562 30.4766V16.3438C138.562 13.0781 139.5 10.6094 141.375 8.9375C143.25 7.25 145.828 6.40625 149.109 6.40625C155.859 6.40625 159.234 9.71875 159.234 16.3438V18.8984C159.234 21.9922 159.203 24.0703 159.141 25.1328H146.953V31.9297C146.953 32.5547 146.992 33.1719 147.07 33.7812C147.148 34.375 147.32 34.8672 147.586 35.2578C147.867 35.6484 148.312 35.8438 148.922 35.8438C149.797 35.8438 150.344 35.4688 150.562 34.7188C150.781 33.9531 150.891 32.9609 150.891 31.7422V28.3672H159.234V30.3594C159.234 32.9844 158.906 35.1875 158.25 36.9688C157.609 38.7344 156.516 40.0703 154.969 40.9766C153.438 41.8672 151.344 42.3125 148.688 42.3125ZM146.906 20.9609H150.891V16.2266C150.891 14.9609 150.734 14.0547 150.422 13.5078C150.109 12.9453 149.641 12.6641 149.016 12.6641C148.344 12.6641 147.82 12.9297 147.445 13.4609C147.086 13.9922 146.906 14.9141 146.906 16.2266V20.9609Z" fill="white"/>
<path d="M123.539 41.9375V8.60938H118.641V0.6875H136.688V8.60938H131.789V41.9375H123.539Z" fill="white"/>
</svg>
