<svg width="24" height="24" viewBox="0 0 24 24" fill="none" xmlns="http://www.w3.org/2000/svg">
<circle cx="12" cy="12" r="12" fill="#FFC94E"/>
<g clip-path="url(#clip0_16313_15659)">
<path fill-rule="evenodd" clip-rule="evenodd" d="M13 7.65601C13 7.10372 12.5523 6.65601 12 6.65601C11.4477 6.65601 11 7.10372 11 7.65601V13.656C11 14.2083 11.4477 14.656 12 14.656C12.5523 14.656 13 14.2083 13 13.656V7.65601ZM13 16.5C13 17.0523 12.5523 17.5 12 17.5C11.4477 17.5 11 17.0523 11 16.5C11 15.9477 11.4477 15.5 12 15.5C12.5523 15.5 13 15.9477 13 16.5Z" fill="white"/>
</g>
<defs>
<clipPath id="clip0_16313_15659">
<rect width="12" height="12" fill="white" transform="translate(6 6)"/>
</clipPath>
</defs>
</svg>
