<svg width="24" height="24" viewBox="0 0 24 24" fill="none" xmlns="http://www.w3.org/2000/svg">
<path d="M10.5396 14.4506C8.5135 17.1426 6.63752 19.778 3.93682 21.8428C4.21996 21.626 4.303 19.087 4.34553 18.655C4.46365 17.4273 4.51346 16.185 4.85282 14.9894C5.84986 11.4611 9.0173 8.15486 12.1075 6.28563C14.6681 4.7386 18.0252 3.83441 19.9611 1.4346C19.0675 3.08614 19.51 5.16437 19.6592 6.93358C20.1038 12.1836 17.7384 18.2128 12.6513 20.4688C10.1923 21.5591 7.34267 22.292 4.63298 22.3695C5.84521 21.7061 6.78515 20.7016 7.95138 20.0193C10.0269 18.8035 12.2181 18.139 13.7786 16.1257C12.3048 17.123 10.74 17.4099 9.14291 18.0655C9.68011 17.0077 10.7015 15.6214 11.6559 14.8652C12.3258 14.3336 13.2789 13.8406 14.0195 13.3496C15.1263 12.6163 16.0895 11.5593 17.031 10.8568C15.7249 11.8684 14.096 12.5968 12.5961 13.2817C14.6306 10.9577 15.841 8.17693 17.7113 5.77365C16.5727 7.24218 14.87 8.14397 13.6326 9.51767C12.36 10.9305 11.7026 12.9015 10.5396 14.4506Z" fill="#BDE00B"/>
</svg>
