<svg width="48" height="48" viewBox="0 0 48 48" fill="none" xmlns="http://www.w3.org/2000/svg">
<g clip-path="url(#clip0_11875_39405)">
<path d="M6.74997 37.768L0.719972 43.81C0.491781 44.0378 0.310744 44.3083 0.187223 44.6061C0.063702 44.9039 0.00012207 45.2231 0.00012207 45.5455C0.00012207 45.8679 0.063702 46.1871 0.187223 46.4849C0.310744 46.7827 0.491781 47.0532 0.719972 47.281C1.67897 48.241 3.22997 48.241 4.18997 47.281L10.22 41.249C18.84 48.131 31.48 47.531 39.51 39.499C40.471 38.539 41.19 37.529 41.96 36.458L42.41 35.778C42.9046 35.0387 43.0982 34.1385 42.9514 33.2613C42.8046 32.384 42.3283 31.5959 41.62 31.058L41.13 30.698C40.061 29.937 39.09 29.278 37.92 28.738C40.7 28.008 43.061 26.527 45.27 24.316C46.01 23.577 46.68 22.807 47.27 21.996L47.571 21.546C47.841 21.147 48.001 20.656 48.001 20.135C48.001 19.306 47.601 18.575 46.981 18.115L46.34 17.675C44.74 16.624 43.26 15.914 41.42 15.544C41.9 15.164 42.359 14.753 42.8 14.313C45.63 11.483 47.1 7.812 47.21 4.131C47.21 4.011 47.17 3.451 47.17 3.302C47.17 2.97369 47.1053 2.6486 46.9797 2.34529C46.854 2.04198 46.6699 1.76638 46.4377 1.53423C46.2056 1.30208 45.93 1.11794 45.6267 0.992299C45.3234 0.866662 44.9983 0.801998 44.67 0.801998L43.91 0.780998C40.21 0.880998 36.519 2.351 33.68 5.192C33.241 5.631 32.83 6.091 32.451 6.572C32.071 4.692 31.341 3.201 30.251 1.56L29.9 1.071C29.5305 0.540835 28.9704 0.174038 28.3367 0.0473069C27.7031 -0.0794247 27.0449 0.0437226 26.5 0.390998C26.35 0.480998 25.939 0.789998 25.88 0.829998C25.109 1.4 24.38 2.04 23.68 2.741C21.47 4.951 19.99 7.291 19.26 10.072C18.71 8.892 18.05 7.931 17.28 6.852L16.94 6.381C16.6116 5.94952 16.1882 5.59962 15.7025 5.35854C15.2169 5.11745 14.6822 4.99167 14.14 4.991C13.4414 4.99092 12.7588 5.19988 12.18 5.591C12.04 5.692 11.64 5.982 11.59 6.022C10.51 6.802 9.47997 7.501 8.49997 8.482C0.469971 16.513 -0.130028 29.156 6.74997 37.768Z" fill="#85E12F"/>
</g>
<defs>
<clipPath id="clip0_11875_39405">
<rect width="48" height="48" fill="white"/>
</clipPath>
</defs>
</svg>
