<svg width="11" height="15" viewBox="0 0 11 15" fill="none" xmlns="http://www.w3.org/2000/svg">
<path d="M0 12.375V11H0.916667V6.41667C0.916667 5.30903 1.25723 4.33507 1.93837 3.49479C2.6195 2.65451 3.50116 2.13252 4.58333 1.92882V0.916667C4.58333 0.662037 4.67245 0.445602 4.85069 0.267361C5.02893 0.0891204 5.24537 0 5.5 0C5.75463 0 5.97106 0.0891204 6.14931 0.267361C6.32755 0.445602 6.41667 0.662037 6.41667 0.916667V1.92882C7.49884 2.13252 8.3805 2.65451 9.06163 3.49479C9.74277 4.33507 10.0833 5.30903 10.0833 6.41667V11H11V12.375H0ZM5.49599 14.6667C5.11672 14.6667 4.7934 14.532 4.52604 14.2628C4.25868 13.9935 4.125 13.6698 4.125 13.2917H6.875C6.875 13.6736 6.73998 13.9983 6.46995 14.2656C6.19991 14.533 5.87526 14.6667 5.49599 14.6667Z" fill="#bdbdbd"/>
</svg>
