<svg width="20" height="27" viewBox="0 0 20 27" fill="none" xmlns="http://www.w3.org/2000/svg">
<path d="M0 22.5V20H1.66667V11.6667C1.66667 9.65278 2.28588 7.88194 3.52431 6.35417C4.76273 4.82639 6.36574 3.87731 8.33333 3.50694V1.66667C8.33333 1.2037 8.49537 0.810185 8.81944 0.486111C9.14352 0.162037 9.53704 0 10 0C10.463 0 10.8565 0.162037 11.1806 0.486111C11.5046 0.810185 11.6667 1.2037 11.6667 1.66667V3.50694C13.6343 3.87731 15.2373 4.82639 16.4757 6.35417C17.7141 7.88194 18.3333 9.65278 18.3333 11.6667V20H20V22.5H0ZM9.99271 26.6667C9.30313 26.6667 8.71528 26.4219 8.22917 25.9323C7.74306 25.4427 7.5 24.8542 7.5 24.1667H12.5C12.5 24.8611 12.2545 25.4514 11.7635 25.9375C11.2726 26.4236 10.6823 26.6667 9.99271 26.6667Z" fill="#F5F5F5"/>
</svg>
