<?xml version="1.0" standalone="no"?>
<!DOCTYPE svg PUBLIC "-//W3C//DTD SVG 1.1//EN" "http://www.w3.org/Graphics/SVG/1.1/DTD/svg11.dtd" >
<svg xmlns="http://www.w3.org/2000/svg" xmlns:xlink="http://www.w3.org/1999/xlink" version="1.1">
<metadata>
Created by FontForge 20170731 at Fri Mar 17 16:10:02 2023
 By Aleksey,,,
Copyright 2021 The Outfit Project Authors (https://github.com/Outfitio/Outfit-Fonts)
</metadata>
<defs>
<font id="Outfit-Medium" horiz-adv-x="590" >
  <font-face 
    font-family="Outfit Medium"
    font-weight="500"
    font-stretch="normal"
    units-per-em="1000"
    panose-1="0 0 0 0 0 0 0 0 0 0"
    ascent="800"
    descent="-200"
    x-height="480"
    cap-height="700"
    bbox="-130 -366 3655 1005"
    underline-thickness="50"
    underline-position="-175"
    unicode-range="U+000D-FB02"
  />
<missing-glyph horiz-adv-x="689" 
d="M75 0v700h537v-700h-537zM190 115h307v470h-307v-470zM213 433l48 49l214 -214l-49 -49zM431 487l49 -50l-223 -223l-49 50z" />
    <glyph glyph-name="fi" unicode="fi" horiz-adv-x="589" 
d="M127 0v563q0 48 21.5 85.5t59.5 59.5t89 22q38 0 66.5 -12.5t53.5 -35.5l-72 -72q-10 8 -21.5 12.5t-26.5 4.5q-29 0 -44.5 -17t-15.5 -46v-564h-110zM12 380v100h468v-100h-468zM417 0v480h110v-480h-110zM472 522q-28 0 -46.5 19t-18.5 47t18.5 47t46.5 19q29 0 47 -19
t18 -47t-18 -47t-47 -19z" />
    <glyph glyph-name="fl" unicode="fl" horiz-adv-x="588" 
d="M127 0v533q0 52 25 97t71.5 72.5t109.5 27.5v-103q-48 0 -72 -27.5t-24 -65.5v-534h-110zM12 380v100h451v-100h-451zM417 0v720h110v-720h-110z" />
    <glyph glyph-name="f_f" unicode="ff" horiz-adv-x="693" 
d="M127 0v521q0 58 25 102.5t70.5 70.5t104.5 26q60 0 97.5 -25.5t55 -70.5t17.5 -102h-80q0 46 -22.5 72t-67.5 26t-67.5 -25.5t-22.5 -69.5v-525h-110zM12 380v100h660v-100h-660zM417 0v543q0 55 24.5 97t68 66t100.5 24q44 0 75 -15t58 -43l-71 -71q-12 12 -26 19t-36 7
q-40 0 -61.5 -21.5t-21.5 -61.5v-544h-110z" />
    <glyph glyph-name="f_j" unicode="fj" horiz-adv-x="586" 
d="M127 0v563q0 48 21.5 85.5t59.5 59.5t89 22q38 0 66.5 -12.5t53.5 -35.5l-72 -72q-10 8 -21.5 12.5t-26.5 4.5q-29 0 -44.5 -17t-15.5 -46v-564h-110zM12 380v100h468v-100h-468zM359 -210q-51 0 -83.5 16t-59.5 47l71 71q12 -16 27 -23.5t37 -7.5q27 0 46.5 16.5
t19.5 48.5v522h110v-521q0 -55 -23.5 -92.5t-61.5 -57t-83 -19.5zM472 522q-28 0 -46.5 19t-18.5 47t18.5 47t46.5 19q29 0 47 -19t18 -47t-18 -47t-47 -19z" />
    <glyph glyph-name="o_u_t_f_i_t" unicode="outfit" horiz-adv-x="2339" 
d="M281 -10q-70 0 -127 33.5t-90.5 90.5t-33.5 127t33.5 126t90.5 89.5t127 33.5q71 0 128 -33t90.5 -89.5t33.5 -126.5t-33.5 -127t-90.5 -90.5t-128 -33.5zM281 96q41 0 72.5 18.5t49 51.5t17.5 75t-18 74t-49 50.5t-72 18.5q-40 0 -71.5 -18.5t-49 -50.5t-17.5 -74
t17.5 -75t49 -51.5t71.5 -18.5zM821 -10q-61 0 -108.5 27t-74 74.5t-26.5 109.5v279h110v-274q0 -35 11.5 -59.5t34 -37.5t53.5 -13q48 0 73.5 28.5t25.5 81.5v274h110v-279q0 -63 -26.5 -110.5t-73.5 -74t-109 -26.5zM980 380v100h1340v-100h-1340zM1195 0v680h110v-680
h-110zM1485 0v563q0 48 21.5 85.5t60 59.5t88.5 22q38 0 66.5 -12.5t53.5 -35.5l-72 -72q-10 8 -21.5 12.5t-26.5 4.5q-29 0 -44.5 -17t-15.5 -46v-564h-110zM1775 0v480h110v-480h-110zM1830 520q-27 0 -44.5 18.5t-17.5 44.5t17.5 44.5t44.5 18.5t44.5 -18.5t17.5 -44.5
t-17.5 -44.5t-44.5 -18.5zM2065 0v680h110v-680h-110z" />
    <glyph glyph-name="o_u_t_f_i_t_t_e_d" unicode="outfitted" horiz-adv-x="3716" 
d="M281 -10q-70 0 -127 33.5t-90.5 90.5t-33.5 127t33.5 126t90.5 89.5t127 33.5q71 0 128 -33t90.5 -89.5t33.5 -126.5t-33.5 -127t-90.5 -90.5t-128 -33.5zM281 96q41 0 72.5 18.5t49 51.5t17.5 75t-18 74t-49 50.5t-72 18.5q-40 0 -71.5 -18.5t-49 -50.5t-17.5 -74
t17.5 -75t49 -51.5t71.5 -18.5zM821 -10q-61 0 -108.5 27t-74 74.5t-26.5 109.5v279h110v-274q0 -35 11.5 -59.5t34 -37.5t53.5 -13q48 0 73.5 28.5t25.5 81.5v274h110v-279q0 -63 -26.5 -110.5t-73.5 -74t-109 -26.5zM1195 0v680h110v-680h-110zM1485 0v563q0 48 21.5 85.5
t60 59.5t88.5 22q38 0 66.5 -12.5t53.5 -35.5l-72 -72q-10 8 -21.5 12.5t-26.5 4.5q-29 0 -44.5 -17t-15.5 -46v-564h-110zM1775 0v480h110v-480h-110zM980 380v100h1630v-100h-1630zM1830 520q-27 0 -44.5 18.5t-17.5 44.5t17.5 44.5t44.5 18.5t44.5 -18.5t17.5 -44.5
t-17.5 -44.5t-44.5 -18.5zM2065 0v680h110v-680h-110zM2355 0v680h110v-680h-110zM2886 -10q-72 0 -129.5 32.5t-91 89.5t-33.5 128t33 127.5t89.5 89.5t125.5 33q67 0 118.5 -31t81 -85t29.5 -123q0 -12 -1.5 -24.5t-4.5 -27.5h-394v90h337l-41 -36q-2 44 -17 74t-42.5 46
t-67.5 16q-42 0 -73 -18t-48 -50.5t-17 -77.5t18 -79t51 -52.5t76 -18.5q37 0 68.5 13t53.5 38l70 -71q-35 -41 -85 -62t-106 -21zM3398 -10q-65 0 -117.5 33t-83 89.5t-30.5 126.5q0 71 30.5 127.5t83 90t117.5 33.5q55 0 97.5 -23.5t67.5 -64.5t25 -93v-138
q0 -52 -24.5 -93t-67.5 -64.5t-98 -23.5zM3416 94q41 0 71.5 18.5t47.5 51.5t17 76t-17 76t-47.5 51.5t-71.5 18.5q-40 0 -70.5 -18.5t-48 -51.5t-17.5 -76t17.5 -76t48 -51.5t70.5 -18.5zM3545 0v129l19 117l-19 116v358h110v-720h-110z" />
    <glyph glyph-name="o_u_t_f_i_t_t_e_r" unicode="outfitter" horiz-adv-x="3561" 
d="M281 -10q-70 0 -127 33.5t-90.5 90.5t-33.5 127t33.5 126t90.5 89.5t127 33.5q71 0 128 -33t90.5 -89.5t33.5 -126.5t-33.5 -127t-90.5 -90.5t-128 -33.5zM281 96q41 0 72.5 18.5t49 51.5t17.5 75t-18 74t-49 50.5t-72 18.5q-40 0 -71.5 -18.5t-49 -50.5t-17.5 -74
t17.5 -75t49 -51.5t71.5 -18.5zM821 -10q-61 0 -108.5 27t-74 74.5t-26.5 109.5v279h110v-274q0 -35 11.5 -59.5t34 -37.5t53.5 -13q48 0 73.5 28.5t25.5 81.5v274h110v-279q0 -63 -26.5 -110.5t-73.5 -74t-109 -26.5zM1195 0v680h110v-680h-110zM1485 0v563q0 48 21.5 85.5
t60 59.5t88.5 22q38 0 66.5 -12.5t53.5 -35.5l-72 -72q-10 8 -21.5 12.5t-26.5 4.5q-29 0 -44.5 -17t-15.5 -46v-564h-110zM1775 0v480h110v-480h-110zM980 380v100h1630v-100h-1630zM1830 520q-27 0 -44.5 18.5t-17.5 44.5t17.5 44.5t44.5 18.5t44.5 -18.5t17.5 -44.5
t-17.5 -44.5t-44.5 -18.5zM2065 0v680h110v-680h-110zM2355 0v680h110v-680h-110zM2886 -10q-72 0 -129.5 32.5t-91 89.5t-33.5 128t33 127.5t89.5 89.5t125.5 33q67 0 118.5 -31t81 -85t29.5 -123q0 -12 -1.5 -24.5t-4.5 -27.5h-394v90h337l-41 -36q-2 44 -17 74t-42.5 46
t-67.5 16q-42 0 -73 -18t-48 -50.5t-17 -77.5t18 -79t51 -52.5t76 -18.5q37 0 68.5 13t53.5 38l70 -71q-35 -41 -85 -62t-106 -21zM3197 0v480h110v-480h-110zM3307 267l-38 19q0 91 40.5 147.5t122.5 56.5q36 0 65 -13t54 -42l-72 -74q-13 14 -29 20t-37 6q-46 0 -76 -29
t-30 -91z" />
    <glyph glyph-name="t_t" unicode="tt" horiz-adv-x="668" 
d="M134 0v680h110v-680h-110zM19 380v100h630v-100h-630zM424 0v680h110v-680h-110z" />
    <glyph glyph-name=".notdef" horiz-adv-x="689" 
d="M75 0v700h537v-700h-537zM190 115h307v470h-307v-470zM213 433l48 49l214 -214l-49 -49zM431 487l49 -50l-223 -223l-49 50z" />
    <glyph glyph-name=".null" horiz-adv-x="0" 
 />
    <glyph glyph-name="nonmarkingreturn" horiz-adv-x="333" 
 />
    <glyph glyph-name="CR" unicode="&#xd;" horiz-adv-x="600" 
 />
    <glyph glyph-name="space" unicode=" " horiz-adv-x="200" 
 />
    <glyph glyph-name="exclam" unicode="!" horiz-adv-x="262" 
d="M85 232l-15 488h115l-15 -488h-85zM127 -10q-32 0 -52.5 21.5t-20.5 52.5q0 32 20.5 53t52.5 21t52.5 -21t20.5 -53q0 -31 -20.5 -52.5t-52.5 -21.5z" />
    <glyph glyph-name="quotedbl" unicode="&#x22;" horiz-adv-x="426" 
d="M270 454l-25 266h120l-25 -266h-70zM86 454l-25 266h120l-25 -266h-70z" />
    <glyph glyph-name="numbersign" unicode="#" horiz-adv-x="641" 
d="M324 0l110 700h93l-110 -700h-93zM43 210v88h523v-88h-523zM108 0l110 700h93l-110 -700h-93zM74 417v88h524v-88h-524z" />
    <glyph glyph-name="dollar" unicode="$" horiz-adv-x="584" 
d="M283 -10q-76 0 -132.5 30t-102.5 88l77 77q29 -42 68 -68t94 -26q58 0 92.5 25t34.5 71q0 35 -18 57t-47.5 36.5t-65 26t-71 26t-65 36.5t-47.5 57t-18 89q0 62 30.5 105.5t82.5 66.5t116 23q62 0 115 -27t87 -69l-77 -77q-30 34 -61.5 53t-66.5 19q-56 0 -86 -21.5
t-30 -64.5q0 -32 18.5 -51.5t48.5 -33t65.5 -25.5t71.5 -27t66 -38.5t48.5 -60.5t18.5 -93q0 -94 -66.5 -149t-179.5 -55zM267 -100v900h80v-900h-80z" />
    <glyph glyph-name="percent" unicode="%" horiz-adv-x="658" 
d="M50 0l449 700h109l-449 -700h-109zM475 -10q-39 0 -71.5 19t-51.5 51t-19 72t19 71.5t51 50.5t72 19t72.5 -19t51.5 -50.5t19 -71.5t-19 -72t-51 -51t-73 -19zM475 75q25 0 40.5 16t15.5 41q0 24 -16 40t-40 16t-39 -16t-15 -40q0 -25 15 -41t39 -16zM182 427
q-39 0 -71.5 19t-51.5 51t-19 72t19 71.5t51 50.5t72 19t72.5 -19t51.5 -50.5t19 -71.5t-19 -72t-51 -51t-73 -19zM182 512q25 0 40 16t15 41t-15.5 40.5t-39.5 15.5t-39 -15.5t-15 -40.5t15 -41t39 -16z" />
    <glyph glyph-name="ampersand" unicode="&#x26;" horiz-adv-x="669" 
d="M527 0l-332 363q-37 41 -55.5 78t-18.5 82q0 53 26 95.5t71 67.5t103 25q44 0 80 -14.5t63.5 -38t45.5 -51.5l-79 -70q-22 30 -47.5 49t-62.5 19q-38 0 -64 -22.5t-26 -56.5t14 -56t39 -51l375 -419h-132zM288 -10q-72 0 -125.5 27.5t-83 76t-29.5 110.5q0 63 34.5 113
t101.5 81l51 -67q-37 -20 -57 -49.5t-20 -74.5q0 -36 16.5 -61t46.5 -38.5t69 -13.5q51 0 84.5 21t50.5 50l72 -84q-21 -26 -54 -46.5t-73 -32.5t-84 -12z" />
    <glyph glyph-name="quotesingle" unicode="'" horiz-adv-x="242" 
d="M86 454l-25 266h120l-25 -266h-70z" />
    <glyph glyph-name="parenleft" unicode="(" horiz-adv-x="299" 
d="M212 -119q-53 47 -91.5 115t-59.5 149t-21 168t21 168t59.5 149t91.5 115l63 -56q-66 -61 -102.5 -157.5t-36.5 -218.5q0 -121 36.5 -218t102.5 -158z" />
    <glyph glyph-name="parenright" unicode=")" horiz-adv-x="299" 
d="M87 -119l-63 56q66 61 102.5 158t36.5 218q0 122 -36.5 218.5t-102.5 157.5l63 56q53 -47 91.5 -115t59.5 -149t21 -168t-21 -168t-59.5 -149t-91.5 -115z" />
    <glyph glyph-name="asterisk" unicode="*" horiz-adv-x="491" 
d="M222 327l-5 158l-129 -87l-46 89l146 53l-121 94l71 71l94 -121l53 146l90 -46l-88 -129l158 -5l-16 -99l-151 44l44 -152z" />
    <glyph glyph-name="plus" unicode="+" horiz-adv-x="547" 
d="M53 285v100h441v-100h-441zM223 566h102v-461h-102v461z" />
    <glyph glyph-name="comma" unicode="," horiz-adv-x="276" 
d="M61 -117l68 127l37 10q-6 -12 -14 -20t-19 -8q-23 0 -42.5 19.5t-19.5 49.5q0 32 21.5 54.5t53.5 22.5q30 0 52.5 -22.5t22.5 -54.5q0 -13 -5.5 -30.5t-19.5 -44.5l-74 -136z" />
    <glyph glyph-name="hyphen" unicode="-" horiz-adv-x="461" 
d="M61 203v104h339v-104h-339z" />
    <glyph glyph-name="period" unicode="." horiz-adv-x="290" 
d="M145 -10q-32 0 -52.5 21.5t-20.5 52.5q0 32 20.5 53t52.5 21t52.5 -21t20.5 -53q0 -31 -20.5 -52.5t-52.5 -21.5z" />
    <glyph glyph-name="slash" unicode="/" horiz-adv-x="401" 
d="M9 -40l280 780h103l-280 -780h-103z" />
    <glyph glyph-name="zero" unicode="0" horiz-adv-x="655" 
d="M329 -10q-79 0 -144.5 44.5t-104.5 125.5t-39 191t38.5 190.5t103.5 124.5t144 44q80 0 145 -44t103.5 -124.5t38.5 -191.5q0 -110 -38.5 -191t-103 -125t-143.5 -44zM327 98q52 0 90 28t59.5 84t21.5 141q0 84 -21.5 140t-60 83.5t-89.5 27.5t-89.5 -27.5t-59.5 -83
t-21 -140.5t21 -141t59.5 -84t89.5 -28z" />
    <glyph glyph-name="one" unicode="1" horiz-adv-x="355" 
d="M166 0v700h113v-700h-113zM26 597v103h243v-103h-243z" />
    <glyph glyph-name="two" unicode="2" horiz-adv-x="541" 
d="M28 68l258 274q32 34 52 61t29 51t9 49q0 47 -30.5 73.5t-77.5 26.5q-50 0 -88 -25t-68 -78l-80 66q41 71 101 107.5t139 36.5q65 0 114 -26t76 -72.5t27 -107.5q0 -44 -10.5 -78.5t-35.5 -69t-69 -80.5l-198 -205zM28 0v68l99 35h376v-103h-475z" />
    <glyph glyph-name="three" unicode="3" horiz-adv-x="540" 
d="M246 -10q-70 0 -126.5 25.5t-95.5 74.5l78 78q21 -32 59 -51t83 -19q43 0 74 16t48.5 45t17.5 67q0 40 -17.5 68t-50 43.5t-78.5 15.5q-18 0 -37 -2.5t-34 -7.5l51 66q21 8 44.5 13.5t45.5 5.5q54 0 97.5 -26t69 -72.5t25.5 -109.5q0 -68 -32 -120t-89 -81t-133 -29z
M167 343v68l187 218l138 3l-195 -224zM59 597v103h433v-68l-99 -35h-334z" />
    <glyph glyph-name="four" unicode="4" horiz-adv-x="599" 
d="M28 250l249 450h130l-255 -450h-124zM28 180v70l49 33h494v-103h-543zM360 0v458h113v-458h-113z" />
    <glyph glyph-name="five" unicode="5" horiz-adv-x="545" 
d="M247 -10q-73 0 -130 25.5t-96 74.5l78 78q21 -32 59.5 -51t86.5 -19q44 0 77 16t52 46t19 71q0 43 -18.5 71.5t-49 43t-65.5 14.5q-40 0 -71.5 -9t-61.5 -32l3 72q16 21 37 34.5t49 20.5t66 7q74 0 124.5 -31t76.5 -82.5t26 -114.5q0 -68 -33.5 -121t-92.5 -83.5
t-136 -30.5zM127 319l-63 63l31 318h105l-36 -331zM115 597l-20 103h375v-103h-355z" />
    <glyph glyph-name="six" unicode="6" horiz-adv-x="562" 
d="M281 -10q-70 0 -126 32.5t-88.5 87.5t-32.5 122q0 96 67 194l191 274h133l-204 -287l-42 -25q10 23 25.5 39.5t41 25.5t63.5 9q61 0 110.5 -28.5t79.5 -79t30 -118.5t-33 -124t-89.5 -89t-125.5 -33zM281 98q38 0 68 18t47.5 49.5t17.5 70.5t-17.5 70t-47.5 48.5
t-68 17.5t-68 -18t-47 -48.5t-17 -69.5t17 -70.5t47 -49.5t68 -18z" />
    <glyph glyph-name="seven" unicode="7" horiz-adv-x="522" 
d="M126 0l255 630h114l-249 -630h-120zM26 597v103h469v-70l-49 -33h-420z" />
    <glyph glyph-name="eight" unicode="8" horiz-adv-x="548" 
d="M274 -10q-72 0 -125 26t-82.5 72.5t-29.5 105.5q0 47 18.5 86.5t54 67.5t84.5 40l-3 -32q-40 11 -67.5 36t-41.5 59t-14 71q0 56 26.5 98.5t73.5 66.5t106 24q60 0 106.5 -24t73 -66.5t26.5 -98.5q0 -37 -14 -71t-41 -59t-68 -36l-3 32q50 -12 85 -40t53.5 -67.5
t18.5 -86.5q0 -59 -29 -105.5t-82.5 -72.5t-125.5 -26zM274 94q37 0 65.5 15t45 41t16.5 59q0 34 -16.5 59.5t-45 40.5t-65.5 15t-65.5 -15t-45 -40.5t-16.5 -59.5q0 -33 16.5 -59t45 -41t65.5 -15zM274 414q44 0 72 28t28 72t-28 71.5t-72 27.5q-43 0 -71.5 -27.5
t-28.5 -71.5t28.5 -72t71.5 -28z" />
    <glyph glyph-name="nine" unicode="9" horiz-adv-x="562" 
d="M137 0l205 287l41 25q-10 -22 -25.5 -39t-40.5 -26t-64 -9q-60 0 -110 28.5t-80 79.5t-30 118q0 68 33.5 124t89.5 89t125 33q70 0 126 -32.5t88.5 -87t32.5 -122.5q0 -96 -67 -194l-191 -274h-133zM281 328q38 0 68 18t47 49t17 69q0 40 -17 71t-47 49t-68 18t-68 -18
t-47.5 -49t-17.5 -71q0 -39 17.5 -69.5t48 -48.5t67.5 -18z" />
    <glyph glyph-name="colon" unicode=":" horiz-adv-x="271" 
d="M135 -10q-32 0 -52.5 21.5t-20.5 52.5q0 32 20.5 53t52.5 21t52.5 -21t20.5 -53q0 -31 -20.5 -52.5t-52.5 -21.5zM135 299q-32 0 -52.5 21.5t-20.5 52.5q0 32 20.5 53t52.5 21t52.5 -21t20.5 -53q0 -31 -20.5 -52.5t-52.5 -21.5z" />
    <glyph glyph-name="semicolon" unicode=";" horiz-adv-x="269" 
d="M55 -117l68 127l37 10q-6 -12 -14 -20t-19 -8q-23 0 -42.5 19.5t-19.5 49.5q0 32 22 54.5t53 22.5q30 0 52.5 -22.5t22.5 -54.5q0 -13 -5.5 -30.5t-19.5 -44.5l-74 -136zM135 299q-32 0 -52.5 21.5t-20.5 52.5q0 32 20.5 53t52.5 21t52.5 -21t20.5 -53q0 -31 -20.5 -52.5
t-52.5 -21.5z" />
    <glyph glyph-name="less" unicode="&#x3c;" horiz-adv-x="547" 
d="M494 100l-441 195v80l441 195v-111l-349 -144v40l349 -144v-111z" />
    <glyph glyph-name="equal" unicode="=" horiz-adv-x="547" 
d="M53 400v100h441v-100h-441zM53 170v100h441v-100h-441z" />
    <glyph glyph-name="greater" unicode="&#x3e;" horiz-adv-x="547" 
d="M53 459v111l441 -195v-80l-441 -195v111l349 144v-40z" />
    <glyph glyph-name="question" unicode="?" horiz-adv-x="506" 
d="M214 232v193h27q33 0 57.5 12.5t38 35t13.5 52.5t-13 52t-37 34t-57 12q-43 0 -76.5 -23.5t-53.5 -69.5l-80 66q30 65 86.5 99.5t129.5 34.5q63 0 111.5 -25t75.5 -69.5t27 -102.5q0 -54 -23.5 -96t-66.5 -70t-102 -39l48 49l-10 -145h-95zM261 -10q-32 0 -52.5 21.5
t-20.5 52.5q0 32 20.5 53t52.5 21t52.5 -21t20.5 -53q0 -31 -20.5 -52.5t-52.5 -21.5z" />
    <glyph glyph-name="at" unicode="@" horiz-adv-x="737" 
d="M371 -94q-69 0 -129 25t-105 69.5t-70 104.5t-25 130q0 71 25.5 131t71.5 105t107 70t131 25q94 0 165.5 -42t112 -116t40.5 -170q0 -43 -8.5 -78.5t-27.5 -65.5l-94 3q15 19 24 41t13.5 48.5t4.5 58.5q0 76 -26.5 128.5t-77.5 80t-124 27.5q-75 0 -130 -30t-84.5 -85
t-29.5 -132q0 -75 28.5 -129.5t81.5 -84t124 -29.5q50 0 90 13.5t71 40.5l60 -61q-44 -38 -99.5 -58t-119.5 -20zM352 88q-38 0 -70 19.5t-51.5 53t-19.5 74.5q0 42 19.5 75.5t51.5 53.5t70 20q48 0 77.5 -22.5t29.5 -69.5v-112q0 -46 -29 -69t-78 -23zM358 163
q31 0 49.5 20.5t18.5 52.5q0 33 -18.5 53t-49.5 20q-30 0 -49 -20.5t-19 -52.5t19 -52.5t49 -20.5zM470 94v70h189v-70h-189zM434 94v76l11 70l-11 68v70h77v-284h-77z" />
    <glyph glyph-name="A" unicode="A" horiz-adv-x="702" 
d="M24 0l288 700h80l286 -700h-124l-224 567h42l-226 -567h-122zM166 135v100h371v-100h-371z" />
    <glyph glyph-name="B" unicode="B" horiz-adv-x="622" 
d="M155 0v100h201q53 0 82 33t29 76q0 29 -13 54t-38 40t-60 15h-201v100h184q45 0 72 23t27 68t-27 68t-72 23h-184v100h187q71 0 118 -26t70 -67t23 -88q0 -55 -30.5 -97t-89.5 -68l9 36q66 -27 103 -76t37 -115q0 -54 -26.5 -99t-78 -72.5t-126.5 -27.5h-196zM76 0v700
h115v-700h-115z" />
    <glyph glyph-name="C" unicode="C" horiz-adv-x="683" 
d="M394 -10q-76 0 -140.5 27.5t-112.5 77t-74 115t-26 140.5t26 140.5t74 114.5t112.5 77t140.5 28q85 0 147 -28t110 -76l-78 -78q-31 34 -75.5 53t-103.5 19q-52 0 -95 -18t-74.5 -51.5t-48.5 -79.5t-17 -101t17 -101t48.5 -79.5t74.5 -51.5t95 -18q64 0 108.5 19.5
t75.5 53.5l78 -78q-48 -49 -113 -77t-149 -28z" />
    <glyph glyph-name="D" unicode="D" horiz-adv-x="740" 
d="M155 0v105h184q72 0 126.5 31t85 86.5t30.5 128.5q0 72 -31 127t-85.5 86t-125.5 31h-184v105h187q76 0 141 -26.5t113.5 -74t75.5 -111t27 -138.5q0 -74 -27 -138t-75 -111.5t-113 -74t-140 -26.5h-189zM76 0v700h115v-700h-115z" />
    <glyph glyph-name="E" unicode="E" 
d="M76 0v700h115v-700h-115zM155 0v105h392v-105h-392zM155 307v101h358v-101h-358zM155 595v105h387v-105h-387z" />
    <glyph glyph-name="F" unicode="F" horiz-adv-x="566" 
d="M76 0v700h115v-700h-115zM155 300v105h356v-105h-356zM155 595v105h373v-105h-373z" />
    <glyph glyph-name="G" unicode="G" horiz-adv-x="772" 
d="M392 -10q-72 0 -136 28t-112 77.5t-75.5 115t-27.5 140.5t27.5 140t76 114.5t114 77t141.5 27.5q83 0 154 -32t119 -91l-78 -78q-31 44 -83 67.5t-112 23.5q-72 0 -126.5 -31.5t-84.5 -87.5t-30 -130t30.5 -130.5t82.5 -88.5t118 -32q70 0 120.5 25.5t77.5 76t27 124.5
l72 -52h-299v105h346v-16q0 -125 -44.5 -208t-121.5 -124t-176 -41z" />
    <glyph glyph-name="H" unicode="H" horiz-adv-x="712" 
d="M76 0v700h115v-700h-115zM521 0v700h115v-700h-115zM155 310v105h391v-105h-391z" />
    <glyph glyph-name="I" unicode="I" horiz-adv-x="267" 
d="M76 0v700h115v-700h-115z" />
    <glyph glyph-name="J" unicode="J" horiz-adv-x="494" 
d="M208 -10q-61 0 -108.5 24.5t-76.5 65.5l81 74q17 -26 43 -40t57 -14q34 0 58 14t37 40t13 62v484h115v-475q0 -70 -27.5 -123t-76.5 -82.5t-115 -29.5z" />
    <glyph glyph-name="K" unicode="K" horiz-adv-x="672" 
d="M499 0l-324 365l317 335h147l-350 -364v63l360 -399h-150zM76 0v700h115v-700h-115z" />
    <glyph glyph-name="L" unicode="L" horiz-adv-x="550" 
d="M76 0v700h115v-700h-115zM155 0v105h366v-105h-366z" />
    <glyph glyph-name="M" unicode="M" horiz-adv-x="842" 
d="M76 0v700h80l291 -479h-52l291 479h80v-700h-115v498l26 -7l-216 -355h-80l-216 355l26 7v-498h-115z" />
    <glyph glyph-name="N" unicode="N" horiz-adv-x="717" 
d="M76 0v700h80l35 -132v-568h-115zM561 0l-419 547l14 153l419 -547zM561 0l-35 123v577h115v-700h-80z" />
    <glyph glyph-name="O" unicode="O" horiz-adv-x="794" 
d="M398 -10q-75 0 -140 28t-114 77.5t-76.5 115t-27.5 140.5t27.5 140t76 114.5t113 77t139.5 27.5t139.5 -27.5t113.5 -77t76.5 -115t27.5 -140.5t-27.5 -140.5t-76 -114.5t-113 -77t-138.5 -28zM396 100q71 0 124.5 32t84 88.5t30.5 130.5q0 55 -17.5 100.5t-49.5 79
t-75.5 51.5t-96.5 18q-70 0 -123.5 -31.5t-84 -87.5t-30.5 -130q0 -55 17.5 -101.5t49 -79.5t75.5 -51.5t96 -18.5z" />
    <glyph glyph-name="P" unicode="P" horiz-adv-x="604" 
d="M155 264v100h175q36 0 63.5 14.5t43.5 41t16 62.5t-16 62.5t-43.5 41t-63.5 14.5h-175v100h181q66 0 118.5 -27t83 -76t30.5 -115t-30.5 -115t-83 -76t-118.5 -27h-181zM76 0v700h115v-700h-115z" />
    <glyph glyph-name="Q" unicode="Q" horiz-adv-x="820" 
d="M399 -10q-75 0 -140 28t-114 77.5t-76.5 115t-27.5 140.5t27.5 140t76 114.5t113 77t139.5 27.5t139.5 -27.5t113.5 -77t76.5 -115t27.5 -140.5t-27.5 -140.5t-76 -114.5t-113 -77t-138.5 -28zM719 -48l-315 315l74 74l315 -315zM397 100q71 0 124.5 32t84 88.5
t30.5 130.5q0 55 -17.5 100.5t-49.5 79t-75.5 51.5t-96.5 18q-70 0 -123.5 -31.5t-84 -87.5t-30.5 -130q0 -55 17.5 -101.5t49 -79.5t75.5 -51.5t96 -18.5z" />
    <glyph glyph-name="R" unicode="R" horiz-adv-x="628" 
d="M155 297v95h177q53 0 82.5 27.5t29.5 76.5q0 44 -29 74t-82 30h-178v100h183q66 0 116 -26.5t77.5 -72t27.5 -103.5q0 -61 -27.5 -106t-77.5 -70t-116 -25h-183zM76 0v700h115v-700h-115zM460 0l-245 304l107 39l283 -343h-145z" />
    <glyph glyph-name="S" unicode="S" horiz-adv-x="556" 
d="M271 -10q-83 0 -141 30t-104 88l78 78q29 -42 69 -65.5t102 -23.5q58 0 92.5 24t34.5 66q0 35 -18 57t-47.5 36.5t-65 26t-71 26t-65 36.5t-47.5 57t-18 89q0 62 30.5 105.5t82.5 66.5t116 23q69 0 123.5 -27t88.5 -69l-78 -78q-30 34 -62.5 50.5t-74.5 16.5
q-52 0 -81.5 -21t-29.5 -59q0 -32 18 -51.5t47.5 -33t65 -25.5t71 -27t65 -38.5t47.5 -60.5t18 -93q0 -94 -66.5 -149t-179.5 -55z" />
    <glyph glyph-name="T" unicode="T" horiz-adv-x="619" 
d="M252 0v680h115v-680h-115zM24 595v105h571v-105h-571z" />
    <glyph glyph-name="U" unicode="U" horiz-adv-x="690" 
d="M346 -10q-79 0 -142 36t-99.5 98.5t-36.5 141.5v434h115v-433q0 -51 21.5 -88.5t58.5 -58t83 -20.5q47 0 83 20.5t57 58t21 87.5v434h115v-435q0 -79 -36 -141t-98 -98t-142 -36z" />
    <glyph glyph-name="V" unicode="V" horiz-adv-x="696" 
d="M307 0l-283 700h125l221 -567h-44l223 567h123l-285 -700h-80z" />
    <glyph glyph-name="W" unicode="W" horiz-adv-x="982" 
d="M256 0l-230 700h113l173 -539h-30l169 539h80l169 -539h-30l173 539h113l-230 -700h-80l-170 538h30l-170 -538h-80z" />
    <glyph glyph-name="X" unicode="X" horiz-adv-x="698" 
d="M540 0l-206 312h-21l-277 388h136l207 -294h21l274 -406h-134zM24 0l266 374l79 -67l-216 -307h-129zM408 335l-79 67l204 298h129z" />
    <glyph glyph-name="Y" unicode="Y" horiz-adv-x="672" 
d="M295 280l-273 420h133l213 -335h-62l213 335h131l-275 -420h-80zM279 0v352h115v-352h-115z" />
    <glyph glyph-name="Z" unicode="Z" horiz-adv-x="589" 
d="M34 80l382 540h135l-382 -540h-135zM34 0v80l99 25h410v-105h-509zM57 595v105h494v-80l-100 -25h-394z" />
    <glyph glyph-name="bracketleft" unicode="[" horiz-adv-x="341" 
d="M73 -96v816h92v-816h-92zM118 -96v87h191v-87h-191zM118 633v87h191v-87h-191z" />
    <glyph glyph-name="backslash" unicode="\" horiz-adv-x="401" 
d="M289 -40l-280 780h103l280 -780h-103z" />
    <glyph glyph-name="bracketright" unicode="]" horiz-adv-x="341" 
d="M176 -96v816h92v-816h-92zM32 -96v87h191v-87h-191zM32 633v87h191v-87h-191z" />
    <glyph glyph-name="asciicircum" unicode="^" horiz-adv-x="451" 
d="M315 457l-112 204h46l-113 -204h-91l144 263h72l145 -263h-91z" />
    <glyph glyph-name="underscore" unicode="_" horiz-adv-x="481" 
d="M0 -135v95h481v-95h-481z" />
    <glyph glyph-name="grave" unicode="`" horiz-adv-x="293" 
d="M203 539l-163 128l85 85l128 -163z" />
    <glyph glyph-name="a" unicode="a" horiz-adv-x="580" 
d="M262 -10q-65 0 -117.5 33t-83 89.5t-30.5 126.5q0 71 30.5 127.5t83 90t117.5 33.5q55 0 97.5 -23.5t67.5 -64.5t25 -93v-138q0 -52 -24.5 -93t-67.5 -64.5t-98 -23.5zM280 94q61 0 98.5 41t37.5 105q0 43 -17 76t-47.5 51.5t-71.5 18.5q-40 0 -70.5 -18.5t-48 -51.5
t-17.5 -76t17.5 -76t48 -51.5t70.5 -18.5zM409 0v129l19 117l-19 116v118h110v-480h-110z" />
    <glyph glyph-name="b" unicode="b" horiz-adv-x="580" 
d="M318 -10q-55 0 -98 23.5t-67.5 64.5t-24.5 93v138q0 52 25 93t68 64.5t97 23.5q65 0 117.5 -33.5t83 -90t30.5 -127.5q0 -70 -30.5 -126.5t-83 -89.5t-117.5 -33zM61 0v720h110v-358l-19 -116l19 -117v-129h-110zM300 94q40 0 70.5 18.5t48 51.5t17.5 76t-17.5 76
t-48 51.5t-70.5 18.5t-71 -18.5t-48 -51.5t-17 -76t17 -76t48 -51.5t71 -18.5z" />
    <glyph glyph-name="c" unicode="c" horiz-adv-x="487" 
d="M282 -10q-71 0 -128.5 33t-90.5 90t-33 127q0 71 33 127.5t90.5 89.5t128.5 33q56 0 104.5 -21.5t82.5 -61.5l-72 -73q-21 25 -50.5 37.5t-64.5 12.5q-41 0 -72.5 -18.5t-49 -50.5t-17.5 -75q0 -42 17.5 -74.5t49 -51t72.5 -18.5q35 0 64.5 12.5t50.5 37.5l72 -73
q-34 -40 -82.5 -61.5t-104.5 -21.5z" />
    <glyph glyph-name="d" unicode="d" horiz-adv-x="580" 
d="M262 -10q-65 0 -117.5 33t-83 89.5t-30.5 126.5q0 71 30.5 127.5t83 90t117.5 33.5q55 0 97.5 -23.5t67.5 -64.5t25 -93v-138q0 -52 -24.5 -93t-67.5 -64.5t-98 -23.5zM280 94q41 0 71.5 18.5t47.5 51.5t17 76t-17 76t-47.5 51.5t-70.5 18.5q-41 0 -71.5 -18.5t-48 -51.5
t-17.5 -76t17.5 -76t48 -51.5t70.5 -18.5zM519 0h-110v129l19 117l-19 116v358h110v-720z" />
    <glyph glyph-name="e" unicode="e" horiz-adv-x="534" 
d="M284 -10q-72 0 -129.5 32.5t-91 89.5t-33.5 128t33 127.5t89.5 89.5t125.5 33q67 0 118.5 -31t81 -85t29.5 -123q0 -12 -1.5 -24.5t-4.5 -27.5h-394v90h337l-41 -36q-2 44 -17 74t-42.5 46t-67.5 16q-42 0 -73 -18t-48 -50.5t-17 -77.5t18 -79t51 -52.5t76 -18.5
q37 0 68.5 13t53.5 38l70 -71q-35 -41 -85 -62t-106 -21z" />
    <glyph glyph-name="f" unicode="f" horiz-adv-x="403" 
d="M127 0v543q0 55 24.5 97t68 66t100.5 24q44 0 75 -15t58 -43l-71 -71q-12 12 -26 19t-36 7q-40 0 -61.5 -21.5t-21.5 -61.5v-544h-110zM12 380v100h370v-100h-370z" />
    <glyph glyph-name="g" unicode="g" horiz-adv-x="575" 
d="M261 -210q-76 0 -133 27.5t-92 77.5l72 72q29 -36 66 -54t89 -18q65 0 103 33.5t38 91.5v118l19 106l-19 107v129h110v-460q0 -69 -32 -120.5t-89 -80.5t-132 -29zM256 10q-64 0 -115.5 31.5t-81 86.5t-29.5 123t29.5 122t81 85.5t115.5 31.5q57 0 100 -23t67 -63.5
t24 -94.5v-118q0 -53 -24.5 -94t-67.5 -64t-99 -23zM278 114q40 0 70 17t46.5 47.5t16.5 71.5t-16.5 71.5t-46.5 47.5t-70 17t-70.5 -17t-47.5 -47.5t-17 -71.5q0 -40 17 -71t47.5 -48t70.5 -17z" />
    <glyph glyph-name="h" unicode="h" horiz-adv-x="551" 
d="M390 0v277q0 48 -30.5 79t-78.5 31q-32 0 -57 -14t-39 -39t-14 -57l-43 24q0 55 24 97.5t66.5 67t95.5 24.5q54 0 96 -24t66 -66.5t24 -98.5v-301h-110zM61 0v720h110v-720h-110z" />
    <glyph glyph-name="i" unicode="i" horiz-adv-x="234" 
d="M62 0v480h110v-480h-110zM117 568q-28 0 -46.5 19t-18.5 47t18.5 47t46.5 19q29 0 47 -19t18 -47t-18 -47t-47 -19z" />
    <glyph glyph-name="j" unicode="j" horiz-adv-x="242" 
d="M13 -210q-51 0 -83.5 16t-59.5 47l71 71q12 -16 27 -23.5t37 -7.5q27 0 46.5 16.5t19.5 48.5v522h110v-521q0 -55 -23.5 -92.5t-61.5 -57t-83 -19.5zM128 568q-28 0 -46.5 19t-18.5 47t18.5 47t46.5 19q29 0 47 -19t18 -47t-18 -47t-47 -19z" />
    <glyph glyph-name="k" unicode="k" horiz-adv-x="511" 
d="M366 0l-203 245l202 235h131l-232 -264l5 63l237 -279h-140zM61 0v720h110v-720h-110z" />
    <glyph glyph-name="l" unicode="l" horiz-adv-x="232" 
d="M61 0v720h110v-720h-110z" />
    <glyph glyph-name="m" unicode="m" horiz-adv-x="861" 
d="M61 0v480h110v-480h-110zM380 0v286q0 48 -30 74.5t-74 26.5q-30 0 -53.5 -12t-37.5 -34.5t-14 -54.5l-43 24q0 55 24 95t65 62.5t92 22.5t92 -22t65 -62t24 -96v-310h-110zM699 0v286q0 48 -30 74.5t-74 26.5q-29 0 -53 -12t-38 -34.5t-14 -54.5l-62 24q5 55 32 95
t69.5 62.5t93.5 22.5q52 0 94 -22t67 -62t25 -96v-310h-110z" />
    <glyph glyph-name="n" unicode="n" horiz-adv-x="551" 
d="M390 0v277q0 48 -30.5 79t-78.5 31q-32 0 -57 -14t-39 -39t-14 -57l-43 24q0 55 24 97.5t66.5 67t95.5 24.5q54 0 96 -27.5t66 -71t24 -90.5v-301h-110zM61 0v480h110v-480h-110z" />
    <glyph glyph-name="o" unicode="o" horiz-adv-x="563" 
d="M281 -10q-70 0 -127 33.5t-90.5 90.5t-33.5 127t33.5 126t90.5 89.5t127 33.5q71 0 128 -33t90.5 -89.5t33.5 -126.5t-33.5 -127t-90.5 -90.5t-128 -33.5zM281 96q41 0 72.5 18.5t49 51.5t17.5 75t-18 74t-49 50.5t-72 18.5q-40 0 -71.5 -18.5t-49 -50.5t-17.5 -74
t17.5 -75t49 -51.5t71.5 -18.5z" />
    <glyph glyph-name="p" unicode="p" horiz-adv-x="580" 
d="M318 -10q-55 0 -98 23.5t-67.5 64.5t-24.5 93v138q0 52 25 93t68 64.5t97 23.5q65 0 117.5 -33.5t83 -90t30.5 -127.5q0 -70 -30.5 -126.5t-83 -89.5t-117.5 -33zM61 -200v680h110v-129l-19 -117l19 -116v-318h-110zM300 94q40 0 70.5 18.5t48 51.5t17.5 76t-17.5 76
t-48 51.5t-70.5 18.5t-71 -18.5t-48 -51.5t-17 -76t17 -76t48 -51.5t71 -18.5z" />
    <glyph glyph-name="q" unicode="q" horiz-adv-x="580" 
d="M262 -10q-65 0 -117.5 33t-83 89.5t-30.5 126.5q0 71 30.5 127.5t83 90t117.5 33.5q55 0 97.5 -23.5t67.5 -64.5t25 -93v-138q0 -52 -24.5 -93t-67.5 -64.5t-98 -23.5zM280 94q61 0 98.5 41t37.5 105q0 43 -17 76t-47.5 51.5t-71.5 18.5q-40 0 -70.5 -18.5t-48 -51.5
t-17.5 -76t17.5 -76t48 -51.5t70.5 -18.5zM409 -200v318l19 116l-19 117v129h110v-680h-110z" />
    <glyph glyph-name="r" unicode="r" horiz-adv-x="425" 
d="M61 0v480h110v-480h-110zM171 267l-38 19q0 91 40.5 147.5t122.5 56.5q36 0 65 -13t54 -42l-72 -74q-13 14 -29 20t-37 6q-46 0 -76 -29t-30 -91z" />
    <glyph glyph-name="s" unicode="s" horiz-adv-x="430" 
d="M218 -10q-40 0 -77 10.5t-68 30t-54 47.5l70 70q25 -29 57.5 -43.5t73.5 -14.5q37 0 56 11t19 32q0 22 -18 34t-46.5 20.5t-60 17.5t-60 24.5t-46.5 42.5t-18 70q0 46 21.5 79t61 51t94.5 18q58 0 102.5 -20.5t74.5 -61.5l-70 -70q-21 26 -48 39t-62 13q-33 0 -51 -10
t-18 -29q0 -20 18 -31t46.5 -19t60 -17.5t60 -26t46.5 -44t18 -71.5q0 -70 -49 -111t-133 -41z" />
    <glyph glyph-name="t" unicode="t" horiz-adv-x="378" 
d="M134 0v680h110v-680h-110zM19 380v100h340v-100h-340z" />
    <glyph glyph-name="u" unicode="u" horiz-adv-x="517" 
d="M258 -10q-61 0 -108.5 27t-74 74.5t-26.5 109.5v279h110v-274q0 -35 11.5 -59.5t34 -37.5t53.5 -13q48 0 73.5 28.5t25.5 81.5v274h110v-279q0 -63 -26.5 -110.5t-73.5 -74t-109 -26.5z" />
    <glyph glyph-name="v" unicode="v" horiz-adv-x="510" 
d="M223 0l-219 480h122l167 -391h-72l168 391h117l-219 -480h-64z" />
    <glyph glyph-name="w" unicode="w" horiz-adv-x="754" 
d="M201 0l-193 480h114l130 -349l-34 -1l127 350h64l127 -350l-34 1l130 349h114l-193 -480h-64l-130 332h36l-130 -332h-64z" />
    <glyph glyph-name="x" unicode="x" horiz-adv-x="509" 
d="M365 0l-138 203l-20 18l-186 259h133l123 -178l19 -17l201 -285h-132zM12 0l194 269l64 -79l-130 -190h-128zM306 223l-65 78l120 179h127z" />
    <glyph glyph-name="y" unicode="y" horiz-adv-x="518" 
d="M216 -5l-205 485h121l140 -356h-35l148 356h122l-223 -485h-68zM73 -200l149 307l62 -112l-89 -195h-122z" />
    <glyph glyph-name="z" unicode="z" horiz-adv-x="451" 
d="M25 60l268 360h129l-268 -360h-129zM25 0v60l100 40h291v-100h-391zM43 380v100h379v-60l-100 -40h-279z" />
    <glyph glyph-name="braceleft" unicode="{" horiz-adv-x="326" 
d="M238 -96q-81 0 -119.5 43.5t-31.5 126.5l11 130q3 35 -7 51t-38 16h-28v85h28q28 0 38 16.5t7 50.5l-11 127q-7 83 31.5 126.5t119.5 43.5h56v-87h-48q-42 0 -56.5 -18.5t-10.5 -60.5l9 -111q4 -42 -3.5 -71t-31 -48t-67.5 -31v38q44 -10 67.5 -28.5t31 -47.5t3.5 -71
l-9 -114q-3 -42 11 -60.5t56 -18.5h48v-87h-56z" />
    <glyph glyph-name="bar" unicode="|" horiz-adv-x="282" 
d="M91 -130v900h100v-900h-100z" />
    <glyph glyph-name="braceright" unicode="}" horiz-adv-x="326" 
d="M88 -96h-56v87h48q42 0 56 18.5t11 60.5l-9 114q-3 42 4 71t30.5 47.5t67.5 28.5v-38q-44 12 -67.5 31t-30.5 48t-4 71l9 111q4 42 -10.5 60.5t-56.5 18.5h-48v87h56q81 0 120 -43.5t31 -126.5l-11 -127q-3 -34 7 -50.5t38 -16.5h28v-85h-28q-28 0 -38 -16t-7 -51
l11 -130q7 -83 -31.5 -126.5t-119.5 -43.5z" />
    <glyph glyph-name="asciitilde" unicode="~" horiz-adv-x="547" 
d="M358 272q-29 0 -50.5 7t-39.5 16.5t-35.5 16.5t-39.5 7q-23 0 -43.5 -10t-38.5 -30l-62 63q27 41 62.5 61.5t78.5 20.5q29 0 50.5 -7t39.5 -16.5t35.5 -16.5t39.5 -7q23 0 43.5 10t38.5 30l62 -63q-27 -40 -62.5 -61t-78.5 -21z" />
    <glyph glyph-name="uni00A0" unicode="&#xa0;" horiz-adv-x="200" 
 />
    <glyph glyph-name="exclamdown" unicode="&#xa1;" horiz-adv-x="269" 
d="M77 -200l15 448h85l15 -448h-115zM134 342q-32 0 -52.5 21.5t-20.5 52.5q0 32 20.5 53t52.5 21t52.5 -21t20.5 -53q0 -31 -20.5 -52.5t-52.5 -21.5z" />
    <glyph glyph-name="cent" unicode="&#xa2;" horiz-adv-x="527" 
d="M300 100q-71 0 -128.5 33t-90.5 90t-33 127q0 71 33 127.5t90.5 89.5t128.5 33q56 0 104.5 -21.5t82.5 -61.5l-72 -73q-21 25 -50.5 37.5t-64.5 12.5q-41 0 -72.5 -18.5t-49 -50.5t-17.5 -75q0 -42 17.5 -74.5t49 -51t72.5 -18.5q35 0 64.5 12.5t50.5 37.5l72 -73
q-34 -40 -82.5 -61.5t-104.5 -21.5zM253 10v680h80v-680h-80z" />
    <glyph glyph-name="sterling" unicode="&#xa3;" horiz-adv-x="621" 
d="M152 0v480q0 72 29 123.5t80 79t115 27.5q73 0 119 -29.5t73 -71.5l-75 -75q-22 34 -48 52.5t-70 18.5q-32 0 -56.5 -14t-38 -39.5t-13.5 -61.5v-490h-115zM62 0v105h491v-105h-491zM62 293v90h389v-90h-389z" />
    <glyph glyph-name="currency" unicode="&#xa4;" horiz-adv-x="599" 
d="M299 147q-58 0 -105.5 27t-75 73t-27.5 103t27.5 102.5t74.5 72.5t106 27t106.5 -26.5t75 -72.5t27.5 -103t-27.5 -103t-74.5 -73t-107 -27zM121 115l-57 56l93 94l57 -57zM299 249q29 0 50.5 13t34 35.5t12.5 52.5t-12.5 52.5t-34 35t-50.5 12.5q-28 0 -50 -13
t-34 -35.5t-12 -51.5t12 -52t34 -36t50 -13zM478 115l-94 93l57 57l93 -94zM157 435l-93 93l57 57l93 -93zM441 435l-57 57l94 93l56 -57z" />
    <glyph glyph-name="yen" unicode="&#xa5;" horiz-adv-x="642" 
d="M280 270l-233 430h133l173 -360h-62l173 360h131l-235 -430h-80zM264 0v332h115v-332h-115zM223 483l31 -90h-187v90h156zM67 218v90h508v-90h-508zM397 393l40 90h138v-90h-178z" />
    <glyph glyph-name="brokenbar" unicode="&#xa6;" horiz-adv-x="282" 
d="M91 395v375h100v-375h-100zM91 -130v375h100v-375h-100z" />
    <glyph glyph-name="section" unicode="&#xa7;" horiz-adv-x="515" 
d="M262 139l2 81q42 0 65.5 16.5t23.5 47.5q0 30 -20 47t-51.5 27.5t-67 22t-67 29.5t-51.5 49t-20 83q0 51 23 89t66 58.5t102 20.5q62 0 111 -24t81 -71l-71 -71q-23 32 -54 48t-70 16t-60.5 -16t-21.5 -43t20 -43t51.5 -27.5t67 -23.5t67 -31t51.5 -50t20 -81
q0 -48 -26 -82.5t-70.5 -53t-100.5 -18.5zM248 -121q-62 0 -111 24.5t-81 70.5l71 71q23 -32 54 -48t70 -16t60.5 16t21.5 43t-20 43t-51.5 27.5t-67 23.5t-67 31t-51.5 50t-20 81q0 49 26 83t71 52.5t100 18.5l-2 -81q-42 0 -65.5 -16.5t-23.5 -47.5q0 -30 20 -47
t51.5 -27.5t67 -22t67 -29.5t51.5 -49t20 -83q0 -51 -23 -88.5t-65.5 -58.5t-102.5 -21z" />
    <glyph glyph-name="dieresis" unicode="&#xa8;" horiz-adv-x="460" 
d="M125 558q-28 0 -46.5 19t-18.5 47t18.5 47t46.5 19q29 0 47 -19t18 -47t-18 -47t-47 -19zM335 558q-28 0 -46.5 19t-18.5 47t18.5 47t46.5 19q29 0 47 -19t18 -47t-18 -47t-47 -19z" />
    <glyph glyph-name="copyright" unicode="&#xa9;" horiz-adv-x="824" 
d="M413 -10q-78 0 -143.5 27.5t-113.5 77t-74 115t-26 141.5t26 141t73.5 114t112.5 76t143 27q79 0 144.5 -27.5t113 -76t73.5 -114t26 -141.5t-26 -141.5t-73.5 -114.5t-112.5 -76.5t-143 -27.5zM423 149q-58 0 -104.5 26.5t-73.5 72t-27 102.5t27 102.5t74 72t105 26.5
q44 0 83 -16.5t67 -48.5l-64 -65q-16 19 -38 28t-48 9q-30 0 -54 -13.5t-37.5 -38t-13.5 -56.5t13.5 -56.5t37.5 -38t54 -13.5q29 0 50.5 10.5t35.5 27.5l64 -65q-28 -32 -67.5 -49t-83.5 -17zM411 34q92 0 162 42t109.5 114t39.5 161q0 88 -39.5 159t-109.5 113t-162 42
q-91 0 -161 -41.5t-109 -112.5t-39 -160t39.5 -161t109 -114t160.5 -42z" />
    <glyph glyph-name="ordfeminine" unicode="&#xaa;" horiz-adv-x="355" 
d="M155 403q-40 0 -71.5 20t-50 54t-18.5 77q0 44 18.5 78t50 54t71.5 20q46 0 76.5 -27t32.5 -65v-119q-2 -37 -32 -64.5t-77 -27.5zM172 482q30 0 49 20.5t19 52.5t-19 52t-49 20t-49 -20.5t-19 -51.5q0 -32 19.5 -52.5t48.5 -20.5zM236 409v78l13 71l-13 70v72h86v-291
h-86z" />
    <glyph glyph-name="guillemotleft" unicode="&#xab;" horiz-adv-x="476" 
d="M136 81l-104 161l104 161h110l-109 -161l109 -161h-110zM335 81l-104 161l104 161h110l-109 -161l109 -161h-110z" />
    <glyph glyph-name="logicalnot" unicode="&#xac;" horiz-adv-x="547" 
d="M53 335v100h441v-100h-441zM392 416h102v-241h-102v241z" />
    <glyph glyph-name="registered" unicode="&#xae;" horiz-adv-x="558" 
d="M279 270q-63 0 -112.5 29.5t-77.5 79.5t-28 112t27.5 111.5t76.5 78.5t113 29t113.5 -29t77.5 -78.5t28 -111.5t-28 -112.5t-77 -79.5t-113 -29zM206 378v231h38v-231h-38zM332 378l-81 101h45l84 -101h-48zM278 302q55 0 96.5 25t65.5 68t24 96t-24 95t-65.5 67
t-96.5 25q-54 0 -95.5 -25t-65 -67t-23.5 -95t23.5 -96t65 -68t95.5 -25zM231 476v32h59q17 0 27 9t10 25q0 14 -10 24t-27 10h-59v33h61q32 0 52.5 -18.5t20.5 -47.5q0 -31 -20.5 -49t-52.5 -18h-61z" />
    <glyph glyph-name="macron" unicode="&#xaf;" horiz-adv-x="456" 
d="M40 668h376v-90h-376v90z" />
    <glyph glyph-name="degree" unicode="&#xb0;" horiz-adv-x="392" 
d="M196 396q-47 0 -83 20.5t-56.5 56t-20.5 79.5q0 45 20.5 80.5t56.5 56.5t83 21t83 -21t56.5 -56.5t20.5 -80.5q0 -44 -20.5 -79.5t-56.5 -56t-83 -20.5zM196 483q29 0 47.5 20.5t18.5 48.5q0 31 -18.5 50.5t-47.5 19.5t-47.5 -19.5t-18.5 -50.5q0 -28 18.5 -48.5
t47.5 -20.5z" />
    <glyph glyph-name="plusminus" unicode="&#xb1;" horiz-adv-x="547" 
d="M53 355v100h441v-100h-441zM223 576h102v-341h-102v341zM53 95v100h441v-100h-441z" />
    <glyph glyph-name="uni00B2" unicode="&#xb2;" horiz-adv-x="340" 
d="M32 398l142 142q14 14 18.5 24t4.5 20q0 17 -11 27.5t-30 10.5q-17 0 -31.5 -10.5t-31.5 -34.5l-65 58q23 37 58.5 54t77.5 17q61 0 96 -31.5t35 -86.5q0 -31 -12.5 -56.5t-41.5 -52.5l-90 -85zM32 344v54l83 28h187v-82h-270z" />
    <glyph glyph-name="uni00B3" unicode="&#xb3;" horiz-adv-x="338" 
d="M150 338q-38 0 -70.5 13t-55.5 36l63 62q9 -13 27 -20.5t35 -7.5q23 0 37.5 11.5t14.5 31.5t-16 31t-42 11q-10 0 -21.5 -1.5t-17.5 -3.5l44 54q26 6 37 8t18 2q41 0 68 -28t27 -76q0 -55 -40 -89t-108 -34zM104 501v54l79 92h106l-81 -92zM51 618v82h238v-53l-73 -29
h-165z" />
    <glyph glyph-name="acute" unicode="&#xb4;" horiz-adv-x="293" 
d="M90 549l-50 50l128 163l85 -85z" />
    <glyph glyph-name="uni00B5" unicode="&#xb5;" horiz-adv-x="576" 
d="M91 -190v670h110v-670h-110zM319 -10q-84 0 -127.5 53.5t-43.5 135.5l53 24q0 -57 30 -82t70 -25q41 0 69.5 25t28.5 82v277h110v-291q0 -57 -24 -102t-66.5 -71t-99.5 -26z" />
    <glyph glyph-name="paragraph" unicode="&#xb6;" horiz-adv-x="719" 
d="M383 264h-102q-66 0 -118.5 27t-83 76t-30.5 115t30.5 115t83 76t118.5 27h395v-100h-389q-36 0 -63.5 -14.5t-43.5 -41t-16 -62.5t16 -62.5t43.5 -41t63.5 -14.5h96v-100zM421 -100h-95v800h95v-800zM591 -100h-95v800h95v-800z" />
    <glyph glyph-name="periodcentered" unicode="&#xb7;" horiz-adv-x="146" 
d="M73 293q-32 0 -52.5 21.5t-20.5 52.5q0 32 20.5 53t52.5 21t52.5 -21t20.5 -53q0 -31 -20.5 -52.5t-52.5 -21.5z" />
    <glyph glyph-name="cedilla" unicode="&#xb8;" horiz-adv-x="275" 
d="M128 -210q-37 0 -65 9t-54 26l45 57q11 -10 27 -16.5t39 -6.5q26 0 37.5 7t11.5 17q0 11 -10.5 19.5t-33.5 8.5h-52l33 103h80l-24 -72l-40 30q62 2 100 -24.5t38 -66.5q0 -39 -36.5 -65t-95.5 -26z" />
    <glyph glyph-name="uni00B9" unicode="&#xb9;" horiz-adv-x="268" 
d="M93 344v356h99v-356h-99zM26 618v82h161v-82h-161z" />
    <glyph glyph-name="ordmasculine" unicode="&#xba;" horiz-adv-x="344" 
d="M172 401q-44 0 -80 20.5t-57 55t-21 77.5t21 77t56.5 54.5t80.5 20.5t80.5 -20t56.5 -54.5t21 -77.5t-20.5 -77.5t-56.5 -55t-81 -20.5zM173 482q30 0 49 20t19 52t-19.5 51.5t-49.5 19.5q-31 0 -50 -20t-19 -51q0 -32 19.5 -52t50.5 -20z" />
    <glyph glyph-name="guillemotright" unicode="&#xbb;" horiz-adv-x="476" 
d="M230 81l109 161l-109 161h110l104 -161l-104 -161h-110zM31 81l109 161l-109 161h110l104 -161l-104 -161h-110z" />
    <glyph glyph-name="onequarter" unicode="&#xbc;" horiz-adv-x="689" 
d="M286 304l47 -45l-215 -275l-91 91zM384 400l-47 45l215 275l91 -91zM148 344v356h99v-356h-99zM81 618v82h161v-82h-161zM357 114l107 236h106l-109 -236h-104zM357 61v53l27 29h267v-82h-294zM524 -6v208h98v-208h-98z" />
    <glyph glyph-name="onehalf" unicode="&#xbd;" horiz-adv-x="683" 
d="M286 304l47 -45l-215 -275l-91 91zM384 400l-47 45l215 275l91 -91zM148 344v356h99v-356h-99zM81 618v82h161v-82h-161zM361 48l142 142q14 14 18.5 24t4.5 20q0 17 -11 27.5t-30 10.5q-17 0 -31.5 -10.5t-31.5 -34.5l-65 58q23 37 58.5 54t77.5 17q61 0 96 -31.5
t35 -86.5q0 -31 -12.5 -56.5t-41.5 -52.5l-90 -85zM361 -6v54l83 28h187v-82h-270z" />
    <glyph glyph-name="threequarters" unicode="&#xbe;" horiz-adv-x="684" 
d="M268 309l47 -40l-195 -285l-91 91zM416 395l-47 40l195 285l91 -91zM177 338q-38 0 -70.5 13t-55.5 36l63 62q9 -13 27 -20.5t35 -7.5q23 0 37.5 11.5t14.5 31.5t-16 31t-42 11q-10 0 -21.5 -1.5t-17.5 -3.5l44 54q26 6 37 8t18 2q41 0 68 -28t27 -76q0 -55 -40 -89
t-108 -34zM131 501v54l79 92h106l-81 -92zM78 618v82h238v-53l-73 -29h-165zM329 114l107 236h106l-109 -236h-104zM329 61v53l27 29h267v-82h-294zM496 -6v208h98v-208h-98z" />
    <glyph glyph-name="questiondown" unicode="&#xbf;" horiz-adv-x="483" 
d="M253 -210q-60 0 -107.5 25t-74.5 69.5t-27 102.5q0 54 23.5 96t67 70t101.5 39l-48 -49l10 105h95v-153h-27q-49 0 -79 -27.5t-30 -72.5q0 -29 13 -51.5t36 -34.5t53 -12q44 0 77 23.5t53 69.5l80 -66q-30 -64 -86 -99t-130 -35zM246 342q-32 0 -52.5 21.5t-20.5 52.5
q0 32 20.5 53t52.5 21t52.5 -21t20.5 -53q0 -31 -20.5 -52.5t-52.5 -21.5z" />
    <glyph glyph-name="Agrave" unicode="&#xc0;" horiz-adv-x="702" 
d="M24 0l288 700h80l286 -700h-124l-224 567h42l-226 -567h-122zM166 135v100h371v-100h-371zM391 759l-163 128l85 85l128 -163z" />
    <glyph glyph-name="Aacute" unicode="&#xc1;" horiz-adv-x="702" 
d="M24 0l288 700h80l286 -700h-124l-224 567h42l-226 -567h-122zM166 135v100h371v-100h-371zM294 769l-50 50l128 163l85 -85z" />
    <glyph glyph-name="Acircumflex" unicode="&#xc2;" horiz-adv-x="702" 
d="M24 0l288 700h80l286 -700h-124l-224 567h42l-226 -567h-122zM166 135v100h371v-100h-371zM223 767l-50 50l136 155h83l136 -155l-50 -50l-164 133l74 -1z" />
    <glyph glyph-name="Atilde" unicode="&#xc3;" horiz-adv-x="702" 
d="M24 0l288 700h80l286 -700h-124l-224 567h42l-226 -567h-122zM166 135v100h371v-100h-371zM423 769q-33 0 -56 12t-42.5 23.5t-43.5 11.5q-25 0 -40 -9t-29 -27l-59 59q29 33 58 52.5t68 19.5q33 0 56 -11.5t43 -23.5t43 -12q26 0 41 9t28 27l59 -59q-29 -33 -58 -52.5
t-68 -19.5z" />
    <glyph glyph-name="Adieresis" unicode="&#xc4;" horiz-adv-x="702" 
d="M24 0l288 700h80l286 -700h-124l-224 567h42l-226 -567h-122zM166 135v100h371v-100h-371zM246 778q-28 0 -46.5 19t-18.5 47t18.5 47t46.5 19q29 0 47 -19t18 -47t-18 -47t-47 -19zM456 778q-28 0 -46.5 19t-18.5 47t18.5 47t46.5 19q29 0 47 -19t18 -47t-18 -47
t-47 -19z" />
    <glyph glyph-name="Aring" unicode="&#xc5;" horiz-adv-x="702" 
d="M24 0l288 700h80l286 -700h-124l-224 567h42l-226 -567h-122zM166 135v100h371v-100h-371zM352 657q-37 0 -65.5 16.5t-45 44.5t-16.5 63t16.5 63t45 44.5t65.5 16.5q36 0 64 -16.5t44 -44.5t16 -63t-16 -63t-44 -44.5t-64 -16.5zM352 735q18 0 31 13.5t13 32.5
q0 20 -13 33t-31 13q-21 0 -33.5 -13t-12.5 -33q0 -19 12.5 -32.5t33.5 -13.5z" />
    <glyph glyph-name="AE" unicode="&#xc6;" horiz-adv-x="982" 
d="M24 0l288 700h280v-105h-209l-237 -595h-122zM166 235v100h371v-100h-371zM573 0v105h366v-105h-366zM494 0v700h115v-700h-115zM573 307v101h332v-101h-332zM573 595v105h361v-105h-361z" />
    <glyph glyph-name="Ccedilla" unicode="&#xc7;" horiz-adv-x="683" 
d="M394 -10q-76 0 -140.5 27.5t-112.5 77t-74 115t-26 140.5t26 140.5t74 114.5t112.5 77t140.5 28q85 0 147 -28t110 -76l-78 -78q-31 34 -75.5 53t-103.5 19q-52 0 -95 -18t-74.5 -51.5t-48.5 -79.5t-17 -101t17 -101t48.5 -79.5t74.5 -51.5t95 -18q64 0 108.5 19.5
t75.5 53.5l78 -78q-48 -49 -113 -77t-149 -28zM356 -210q-37 0 -65 9t-54 26l45 57q11 -10 27 -16.5t39 -6.5q26 0 37.5 7t11.5 17q0 11 -10.5 19.5t-33.5 8.5h-52l33 103h80l-24 -72l-40 30q62 2 100 -24.5t38 -66.5q0 -39 -36.5 -65t-95.5 -26z" />
    <glyph glyph-name="Egrave" unicode="&#xc8;" 
d="M76 0v700h115v-700h-115zM155 0v105h392v-105h-392zM155 307v101h358v-101h-358zM155 595v105h387v-105h-387zM355 759l-163 128l85 85l128 -163z" />
    <glyph glyph-name="Eacute" unicode="&#xc9;" 
d="M76 0v700h115v-700h-115zM155 0v105h392v-105h-392zM155 307v101h358v-101h-358zM155 595v105h387v-105h-387zM258 769l-50 50l128 163l85 -85z" />
    <glyph glyph-name="Ecircumflex" unicode="&#xca;" 
d="M76 0v700h115v-700h-115zM155 0v105h392v-105h-392zM155 307v101h358v-101h-358zM155 595v105h387v-105h-387zM187 767l-50 50l136 155h83l136 -155l-50 -50l-164 133l74 -1z" />
    <glyph glyph-name="Edieresis" unicode="&#xcb;" 
d="M76 0v700h115v-700h-115zM155 0v105h392v-105h-392zM155 307v101h358v-101h-358zM155 595v105h387v-105h-387zM210 778q-28 0 -46.5 19t-18.5 47t18.5 47t46.5 19q29 0 47 -19t18 -47t-18 -47t-47 -19zM420 778q-28 0 -46.5 19t-18.5 47t18.5 47t46.5 19q29 0 47 -19
t18 -47t-18 -47t-47 -19z" />
    <glyph glyph-name="Igrave" unicode="&#xcc;" horiz-adv-x="267" 
d="M76 0v700h115v-700h-115zM174 759l-163 128l85 85l128 -163z" />
    <glyph glyph-name="Iacute" unicode="&#xcd;" horiz-adv-x="267" 
d="M76 0v700h115v-700h-115zM77 769l-50 50l128 163l85 -85z" />
    <glyph glyph-name="Icircumflex" unicode="&#xce;" horiz-adv-x="267" 
d="M76 0v700h115v-700h-115zM6 767l-50 50l136 155h83l136 -155l-50 -50l-164 133l74 -1z" />
    <glyph glyph-name="Idieresis" unicode="&#xcf;" horiz-adv-x="267" 
d="M76 0v700h115v-700h-115zM29 778q-28 0 -46.5 19t-18.5 47t18.5 47t46.5 19q29 0 47 -19t18 -47t-18 -47t-47 -19zM239 778q-28 0 -46.5 19t-18.5 47t18.5 47t46.5 19q29 0 47 -19t18 -47t-18 -47t-47 -19z" />
    <glyph glyph-name="Eth" unicode="&#xd0;" horiz-adv-x="760" 
d="M24 400h382v-95h-382v95zM175 0v105h184q72 0 126.5 31t85 86.5t30.5 128.5q0 72 -31 127t-85.5 86t-125.5 31h-184v105h187q76 0 141 -26.5t113.5 -74t75.5 -111t27 -138.5q0 -74 -27 -138t-75 -111.5t-113 -74t-140 -26.5h-189zM96 0v700h115v-700h-115z" />
    <glyph glyph-name="Ntilde" unicode="&#xd1;" horiz-adv-x="717" 
d="M76 0v700h80l35 -132v-568h-115zM561 0l-419 547l14 153l419 -547zM561 0l-35 123v577h115v-700h-80zM431 769q-33 0 -56 12t-42.5 23.5t-43.5 11.5q-25 0 -40 -9t-29 -27l-59 59q29 33 58 52.5t68 19.5q33 0 56 -11.5t43 -23.5t43 -12q26 0 41 9t28 27l59 -59
q-29 -33 -58 -52.5t-68 -19.5z" />
    <glyph glyph-name="Ograve" unicode="&#xd2;" horiz-adv-x="794" 
d="M398 -10q-75 0 -140 28t-114 77.5t-76.5 115t-27.5 140.5t27.5 140t76 114.5t113 77t139.5 27.5t139.5 -27.5t113.5 -77t76.5 -115t27.5 -140.5t-27.5 -140.5t-76 -114.5t-113 -77t-138.5 -28zM396 100q71 0 124.5 32t84 88.5t30.5 130.5q0 55 -17.5 100.5t-49.5 79
t-75.5 51.5t-96.5 18q-70 0 -123.5 -31.5t-84 -87.5t-30.5 -130q0 -55 17.5 -101.5t49 -79.5t75.5 -51.5t96 -18.5zM437 759l-163 128l85 85l128 -163z" />
    <glyph glyph-name="Oacute" unicode="&#xd3;" horiz-adv-x="794" 
d="M398 -10q-75 0 -140 28t-114 77.5t-76.5 115t-27.5 140.5t27.5 140t76 114.5t113 77t139.5 27.5t139.5 -27.5t113.5 -77t76.5 -115t27.5 -140.5t-27.5 -140.5t-76 -114.5t-113 -77t-138.5 -28zM396 100q71 0 124.5 32t84 88.5t30.5 130.5q0 55 -17.5 100.5t-49.5 79
t-75.5 51.5t-96.5 18q-70 0 -123.5 -31.5t-84 -87.5t-30.5 -130q0 -55 17.5 -101.5t49 -79.5t75.5 -51.5t96 -18.5zM340 769l-50 50l128 163l85 -85z" />
    <glyph glyph-name="Ocircumflex" unicode="&#xd4;" horiz-adv-x="794" 
d="M398 -10q-75 0 -140 28t-114 77.5t-76.5 115t-27.5 140.5t27.5 140t76 114.5t113 77t139.5 27.5t139.5 -27.5t113.5 -77t76.5 -115t27.5 -140.5t-27.5 -140.5t-76 -114.5t-113 -77t-138.5 -28zM396 100q71 0 124.5 32t84 88.5t30.5 130.5q0 55 -17.5 100.5t-49.5 79
t-75.5 51.5t-96.5 18q-70 0 -123.5 -31.5t-84 -87.5t-30.5 -130q0 -55 17.5 -101.5t49 -79.5t75.5 -51.5t96 -18.5zM269 767l-50 50l136 155h83l136 -155l-50 -50l-164 133l74 -1z" />
    <glyph glyph-name="Otilde" unicode="&#xd5;" horiz-adv-x="794" 
d="M398 -10q-75 0 -140 28t-114 77.5t-76.5 115t-27.5 140.5t27.5 140t76 114.5t113 77t139.5 27.5t139.5 -27.5t113.5 -77t76.5 -115t27.5 -140.5t-27.5 -140.5t-76 -114.5t-113 -77t-138.5 -28zM396 100q71 0 124.5 32t84 88.5t30.5 130.5q0 55 -17.5 100.5t-49.5 79
t-75.5 51.5t-96.5 18q-70 0 -123.5 -31.5t-84 -87.5t-30.5 -130q0 -55 17.5 -101.5t49 -79.5t75.5 -51.5t96 -18.5zM469 769q-33 0 -56 12t-42.5 23.5t-43.5 11.5q-25 0 -40 -9t-29 -27l-59 59q29 33 58 52.5t68 19.5q33 0 56 -11.5t43 -23.5t43 -12q26 0 41 9t28 27l59 -59
q-29 -33 -58 -52.5t-68 -19.5z" />
    <glyph glyph-name="Odieresis" unicode="&#xd6;" horiz-adv-x="794" 
d="M398 -10q-75 0 -140 28t-114 77.5t-76.5 115t-27.5 140.5t27.5 140t76 114.5t113 77t139.5 27.5t139.5 -27.5t113.5 -77t76.5 -115t27.5 -140.5t-27.5 -140.5t-76 -114.5t-113 -77t-138.5 -28zM396 100q71 0 124.5 32t84 88.5t30.5 130.5q0 55 -17.5 100.5t-49.5 79
t-75.5 51.5t-96.5 18q-70 0 -123.5 -31.5t-84 -87.5t-30.5 -130q0 -55 17.5 -101.5t49 -79.5t75.5 -51.5t96 -18.5zM292 778q-28 0 -46.5 19t-18.5 47t18.5 47t46.5 19q29 0 47 -19t18 -47t-18 -47t-47 -19zM502 778q-28 0 -46.5 19t-18.5 47t18.5 47t46.5 19q29 0 47 -19
t18 -47t-18 -47t-47 -19z" />
    <glyph glyph-name="multiply" unicode="&#xd7;" horiz-adv-x="547" 
d="M129 118l-72 72l362 362l72 -72zM411 125l-348 348l72 72l348 -348z" />
    <glyph glyph-name="Oslash" unicode="&#xd8;" horiz-adv-x="794" 
d="M677 706l76 -76l-636 -636l-76 76zM398 -10q-75 0 -140 28t-114 77.5t-76.5 115t-27.5 140.5t27.5 140t76 114.5t113 77t139.5 27.5t139.5 -27.5t113.5 -77t76.5 -115t27.5 -140.5t-27.5 -140.5t-76 -114.5t-113 -77t-138.5 -28zM396 100q71 0 124.5 32t84 88.5
t30.5 130.5q0 55 -17.5 100.5t-49.5 79t-75.5 51.5t-96.5 18q-70 0 -123.5 -31.5t-84 -87.5t-30.5 -130q0 -55 17.5 -101.5t49 -79.5t75.5 -51.5t96 -18.5z" />
    <glyph glyph-name="Ugrave" unicode="&#xd9;" horiz-adv-x="690" 
d="M346 -10q-79 0 -142 36t-99.5 98.5t-36.5 141.5v434h115v-433q0 -51 21.5 -88.5t58.5 -58t83 -20.5q47 0 83 20.5t57 58t21 87.5v434h115v-435q0 -79 -36 -141t-98 -98t-142 -36zM385 759l-163 128l85 85l128 -163z" />
    <glyph glyph-name="Uacute" unicode="&#xda;" horiz-adv-x="690" 
d="M346 -10q-79 0 -142 36t-99.5 98.5t-36.5 141.5v434h115v-433q0 -51 21.5 -88.5t58.5 -58t83 -20.5q47 0 83 20.5t57 58t21 87.5v434h115v-435q0 -79 -36 -141t-98 -98t-142 -36zM288 769l-50 50l128 163l85 -85z" />
    <glyph glyph-name="Ucircumflex" unicode="&#xdb;" horiz-adv-x="690" 
d="M346 -10q-79 0 -142 36t-99.5 98.5t-36.5 141.5v434h115v-433q0 -51 21.5 -88.5t58.5 -58t83 -20.5q47 0 83 20.5t57 58t21 87.5v434h115v-435q0 -79 -36 -141t-98 -98t-142 -36zM217 767l-50 50l136 155h83l136 -155l-50 -50l-164 133l74 -1z" />
    <glyph glyph-name="Udieresis" unicode="&#xdc;" horiz-adv-x="690" 
d="M346 -10q-79 0 -142 36t-99.5 98.5t-36.5 141.5v434h115v-433q0 -51 21.5 -88.5t58.5 -58t83 -20.5q47 0 83 20.5t57 58t21 87.5v434h115v-435q0 -79 -36 -141t-98 -98t-142 -36zM240 778q-28 0 -46.5 19t-18.5 47t18.5 47t46.5 19q29 0 47 -19t18 -47t-18 -47t-47 -19z
M450 778q-28 0 -46.5 19t-18.5 47t18.5 47t46.5 19q29 0 47 -19t18 -47t-18 -47t-47 -19z" />
    <glyph glyph-name="Yacute" unicode="&#xdd;" horiz-adv-x="672" 
d="M295 280l-273 420h133l213 -335h-62l213 335h131l-275 -420h-80zM279 0v352h115v-352h-115zM279 769l-50 50l128 163l85 -85z" />
    <glyph glyph-name="Thorn" unicode="&#xde;" horiz-adv-x="604" 
d="M155 140v100h175q36 0 63.5 14.5t43.5 41t16 62.5t-16 62.5t-43.5 41t-63.5 14.5h-175v100h181q66 0 118.5 -27t83 -76t30.5 -115t-30.5 -115t-83 -76t-118.5 -27h-181zM76 0v700h115v-700h-115z" />
    <glyph glyph-name="germandbls" unicode="&#xdf;" horiz-adv-x="578" 
d="M328 -10q-49 0 -78.5 11t-53.5 33l65 84q11 -10 27 -17t44 -7q26 0 48 13t35.5 37.5t13.5 58.5q0 33 -15.5 59t-42 41.5t-58.5 15.5h-60v97h37q28 0 49 13t32.5 37t11.5 57q0 30 -12.5 53t-35.5 36.5t-54 13.5q-48 0 -79 -28.5t-31 -74.5v-523h-110v523q0 57 28 104
t77.5 75t114.5 28q64 0 111 -27t73.5 -72t26.5 -100q0 -64 -35.5 -108.5t-93.5 -60.5l10 44q52 -7 92 -34t62.5 -70.5t22.5 -101.5q0 -46 -17 -84.5t-47 -66.5t-70.5 -43.5t-87.5 -15.5z" />
    <glyph glyph-name="agrave" unicode="&#xe0;" horiz-adv-x="580" 
d="M262 -10q-65 0 -117.5 33t-83 89.5t-30.5 126.5q0 71 30.5 127.5t83 90t117.5 33.5q55 0 97.5 -23.5t67.5 -64.5t25 -93v-138q0 -52 -24.5 -93t-67.5 -64.5t-98 -23.5zM280 94q61 0 98.5 41t37.5 105q0 43 -17 76t-47.5 51.5t-71.5 18.5q-40 0 -70.5 -18.5t-48 -51.5
t-17.5 -76t17.5 -76t48 -51.5t70.5 -18.5zM409 0v129l19 117l-19 116v118h110v-480h-110zM330 539l-163 128l85 85l128 -163z" />
    <glyph glyph-name="aacute" unicode="&#xe1;" horiz-adv-x="580" 
d="M262 -10q-65 0 -117.5 33t-83 89.5t-30.5 126.5q0 71 30.5 127.5t83 90t117.5 33.5q55 0 97.5 -23.5t67.5 -64.5t25 -93v-138q0 -52 -24.5 -93t-67.5 -64.5t-98 -23.5zM280 94q61 0 98.5 41t37.5 105q0 43 -17 76t-47.5 51.5t-71.5 18.5q-40 0 -70.5 -18.5t-48 -51.5
t-17.5 -76t17.5 -76t48 -51.5t70.5 -18.5zM409 0v129l19 117l-19 116v118h110v-480h-110zM233 549l-50 50l128 163l85 -85z" />
    <glyph glyph-name="acircumflex" unicode="&#xe2;" horiz-adv-x="580" 
d="M262 -10q-65 0 -117.5 33t-83 89.5t-30.5 126.5q0 71 30.5 127.5t83 90t117.5 33.5q55 0 97.5 -23.5t67.5 -64.5t25 -93v-138q0 -52 -24.5 -93t-67.5 -64.5t-98 -23.5zM280 94q61 0 98.5 41t37.5 105q0 43 -17 76t-47.5 51.5t-71.5 18.5q-40 0 -70.5 -18.5t-48 -51.5
t-17.5 -76t17.5 -76t48 -51.5t70.5 -18.5zM409 0v129l19 117l-19 116v118h110v-480h-110zM162 547l-50 50l136 155h83l136 -155l-50 -50l-164 133l74 -1z" />
    <glyph glyph-name="atilde" unicode="&#xe3;" horiz-adv-x="580" 
d="M262 -10q-65 0 -117.5 33t-83 89.5t-30.5 126.5q0 71 30.5 127.5t83 90t117.5 33.5q55 0 97.5 -23.5t67.5 -64.5t25 -93v-138q0 -52 -24.5 -93t-67.5 -64.5t-98 -23.5zM280 94q61 0 98.5 41t37.5 105q0 43 -17 76t-47.5 51.5t-71.5 18.5q-40 0 -70.5 -18.5t-48 -51.5
t-17.5 -76t17.5 -76t48 -51.5t70.5 -18.5zM409 0v129l19 117l-19 116v118h110v-480h-110zM362 549q-33 0 -56 12t-42.5 23.5t-43.5 11.5q-25 0 -40 -9t-29 -27l-59 59q29 33 58 52.5t68 19.5q33 0 56 -11.5t43 -23.5t43 -12q26 0 41 9t28 27l59 -59q-29 -33 -58 -52.5
t-68 -19.5z" />
    <glyph glyph-name="adieresis" unicode="&#xe4;" horiz-adv-x="580" 
d="M262 -10q-65 0 -117.5 33t-83 89.5t-30.5 126.5q0 71 30.5 127.5t83 90t117.5 33.5q55 0 97.5 -23.5t67.5 -64.5t25 -93v-138q0 -52 -24.5 -93t-67.5 -64.5t-98 -23.5zM280 94q61 0 98.5 41t37.5 105q0 43 -17 76t-47.5 51.5t-71.5 18.5q-40 0 -70.5 -18.5t-48 -51.5
t-17.5 -76t17.5 -76t48 -51.5t70.5 -18.5zM409 0v129l19 117l-19 116v118h110v-480h-110zM185 558q-28 0 -46.5 19t-18.5 47t18.5 47t46.5 19q29 0 47 -19t18 -47t-18 -47t-47 -19zM395 558q-28 0 -46.5 19t-18.5 47t18.5 47t46.5 19q29 0 47 -19t18 -47t-18 -47t-47 -19z
" />
    <glyph glyph-name="aring" unicode="&#xe5;" horiz-adv-x="580" 
d="M262 -10q-65 0 -117.5 33t-83 89.5t-30.5 126.5q0 71 30.5 127.5t83 90t117.5 33.5q55 0 97.5 -23.5t67.5 -64.5t25 -93v-138q0 -52 -24.5 -93t-67.5 -64.5t-98 -23.5zM280 94q61 0 98.5 41t37.5 105q0 43 -17 76t-47.5 51.5t-71.5 18.5q-40 0 -70.5 -18.5t-48 -51.5
t-17.5 -76t17.5 -76t48 -51.5t70.5 -18.5zM409 0v129l19 117l-19 116v118h110v-480h-110zM291 537q-37 0 -65.5 16.5t-45 44.5t-16.5 63t16.5 63t45 44.5t65.5 16.5q36 0 64 -16.5t44 -44.5t16 -63t-16 -63t-44 -44.5t-64 -16.5zM291 615q18 0 31 13.5t13 32.5q0 20 -13 33
t-31 13q-21 0 -33.5 -13t-12.5 -33q0 -19 12.5 -32.5t33.5 -13.5z" />
    <glyph glyph-name="ae" unicode="&#xe6;" horiz-adv-x="920" 
d="M670 -10q-72 0 -129.5 32.5t-91 89.5t-33.5 128t33 127.5t89.5 89.5t125.5 33q67 0 118.5 -31t81 -85t29.5 -123q0 -12 -1.5 -24.5t-4.5 -27.5h-394v90h337l-41 -36q-2 44 -17 74t-42.5 46t-67.5 16q-42 0 -73 -18t-48 -50.5t-17 -77.5t18 -79t51 -52.5t76 -18.5
q37 0 68.5 13t53.5 38l70 -71q-35 -41 -85 -62t-106 -21zM262 -10q-65 0 -117.5 33t-83 89.5t-30.5 126.5q0 71 30.5 127.5t83 90t117.5 33.5q55 0 97.5 -23.5t67.5 -64.5t25 -93v-138q0 -52 -24.5 -93t-67.5 -64.5t-98 -23.5zM280 94q61 0 98.5 41t37.5 105q0 43 -17 76
t-47.5 51.5t-71.5 18.5q-40 0 -70.5 -18.5t-48 -51.5t-17.5 -76t17.5 -76t48 -51.5t70.5 -18.5zM409 0v129l19 117l-19 116v118h110v-480h-110z" />
    <glyph glyph-name="ccedilla" unicode="&#xe7;" horiz-adv-x="487" 
d="M282 -10q-71 0 -128.5 33t-90.5 90t-33 127q0 71 33 127.5t90.5 89.5t128.5 33q56 0 104.5 -21.5t82.5 -61.5l-72 -73q-21 25 -50.5 37.5t-64.5 12.5q-41 0 -72.5 -18.5t-49 -50.5t-17.5 -75q0 -42 17.5 -74.5t49 -51t72.5 -18.5q35 0 64.5 12.5t50.5 37.5l72 -73
q-34 -40 -82.5 -61.5t-104.5 -21.5zM251 -210q-37 0 -65 9t-54 26l45 57q11 -10 27 -16.5t39 -6.5q26 0 37.5 7t11.5 17q0 11 -10.5 19.5t-33.5 8.5h-52l33 103h80l-24 -72l-40 30q62 2 100 -24.5t38 -66.5q0 -39 -36.5 -65t-95.5 -26z" />
    <glyph glyph-name="egrave" unicode="&#xe8;" horiz-adv-x="534" 
d="M284 -10q-72 0 -129.5 32.5t-91 89.5t-33.5 128t33 127.5t89.5 89.5t125.5 33q67 0 118.5 -31t81 -85t29.5 -123q0 -12 -1.5 -24.5t-4.5 -27.5h-394v90h337l-41 -36q-2 44 -17 74t-42.5 46t-67.5 16q-42 0 -73 -18t-48 -50.5t-17 -77.5t18 -79t51 -52.5t76 -18.5
q37 0 68.5 13t53.5 38l70 -71q-35 -41 -85 -62t-106 -21zM317 539l-163 128l85 85l128 -163z" />
    <glyph glyph-name="eacute" unicode="&#xe9;" horiz-adv-x="534" 
d="M284 -10q-72 0 -129.5 32.5t-91 89.5t-33.5 128t33 127.5t89.5 89.5t125.5 33q67 0 118.5 -31t81 -85t29.5 -123q0 -12 -1.5 -24.5t-4.5 -27.5h-394v90h337l-41 -36q-2 44 -17 74t-42.5 46t-67.5 16q-42 0 -73 -18t-48 -50.5t-17 -77.5t18 -79t51 -52.5t76 -18.5
q37 0 68.5 13t53.5 38l70 -71q-35 -41 -85 -62t-106 -21zM220 549l-50 50l128 163l85 -85z" />
    <glyph glyph-name="ecircumflex" unicode="&#xea;" horiz-adv-x="534" 
d="M284 -10q-72 0 -129.5 32.5t-91 89.5t-33.5 128t33 127.5t89.5 89.5t125.5 33q67 0 118.5 -31t81 -85t29.5 -123q0 -12 -1.5 -24.5t-4.5 -27.5h-394v90h337l-41 -36q-2 44 -17 74t-42.5 46t-67.5 16q-42 0 -73 -18t-48 -50.5t-17 -77.5t18 -79t51 -52.5t76 -18.5
q37 0 68.5 13t53.5 38l70 -71q-35 -41 -85 -62t-106 -21zM149 547l-50 50l136 155h83l136 -155l-50 -50l-164 133l74 -1z" />
    <glyph glyph-name="edieresis" unicode="&#xeb;" horiz-adv-x="534" 
d="M284 -10q-72 0 -129.5 32.5t-91 89.5t-33.5 128t33 127.5t89.5 89.5t125.5 33q67 0 118.5 -31t81 -85t29.5 -123q0 -12 -1.5 -24.5t-4.5 -27.5h-394v90h337l-41 -36q-2 44 -17 74t-42.5 46t-67.5 16q-42 0 -73 -18t-48 -50.5t-17 -77.5t18 -79t51 -52.5t76 -18.5
q37 0 68.5 13t53.5 38l70 -71q-35 -41 -85 -62t-106 -21zM172 558q-28 0 -46.5 19t-18.5 47t18.5 47t46.5 19q29 0 47 -19t18 -47t-18 -47t-47 -19zM382 558q-28 0 -46.5 19t-18.5 47t18.5 47t46.5 19q29 0 47 -19t18 -47t-18 -47t-47 -19z" />
    <glyph glyph-name="igrave" unicode="&#xec;" horiz-adv-x="232" 
d="M61 0v480h110v-480h-110zM156 539l-163 128l85 85l128 -163z" />
    <glyph glyph-name="iacute" unicode="&#xed;" horiz-adv-x="232" 
d="M61 0v480h110v-480h-110zM59 549l-50 50l128 163l85 -85z" />
    <glyph glyph-name="icircumflex" unicode="&#xee;" horiz-adv-x="232" 
d="M61 0v480h110v-480h-110zM-12 547l-50 50l136 155h83l136 -155l-50 -50l-164 133l74 -1z" />
    <glyph glyph-name="idieresis" unicode="&#xef;" horiz-adv-x="232" 
d="M61 0v480h110v-480h-110zM11 558q-28 0 -46.5 19t-18.5 47t18.5 47t46.5 19q29 0 47 -19t18 -47t-18 -47t-47 -19zM221 558q-28 0 -46.5 19t-18.5 47t18.5 47t46.5 19q29 0 47 -19t18 -47t-18 -47t-47 -19z" />
    <glyph glyph-name="eth" unicode="&#xf0;" horiz-adv-x="562" 
d="M282 -10q-69 0 -125 33t-89.5 89t-33.5 124t30 118.5t80 79t110 28.5q39 0 64 -9t40.5 -25.5t25.5 -39.5l-42 25l-204 287h133l191 -274q67 -98 67 -194q0 -67 -32.5 -122t-88.5 -87.5t-126 -32.5zM282 98q38 0 68 18t47 49.5t17 70.5t-17 69.5t-47 48.5t-68 18
q-37 0 -67.5 -17.5t-48 -48.5t-17.5 -70t17.5 -70.5t47.5 -49.5t68 -18zM109 492l-31 79l349 129l31 -79z" />
    <glyph glyph-name="ntilde" unicode="&#xf1;" horiz-adv-x="551" 
d="M390 0v277q0 48 -30.5 79t-78.5 31q-32 0 -57 -14t-39 -39t-14 -57l-43 24q0 55 24 97.5t66.5 67t95.5 24.5q54 0 96 -27.5t66 -71t24 -90.5v-301h-110zM61 0v480h110v-480h-110zM348 549q-33 0 -56 12t-42.5 23.5t-43.5 11.5q-25 0 -40 -9t-29 -27l-59 59q29 33 58 52.5
t68 19.5q33 0 56 -11.5t43 -23.5t43 -12q26 0 41 9t28 27l59 -59q-29 -33 -58 -52.5t-68 -19.5z" />
    <glyph glyph-name="ograve" unicode="&#xf2;" horiz-adv-x="563" 
d="M281 -10q-70 0 -127 33.5t-90.5 90.5t-33.5 127t33.5 126t90.5 89.5t127 33.5q71 0 128 -33t90.5 -89.5t33.5 -126.5t-33.5 -127t-90.5 -90.5t-128 -33.5zM281 96q41 0 72.5 18.5t49 51.5t17.5 75t-18 74t-49 50.5t-72 18.5q-40 0 -71.5 -18.5t-49 -50.5t-17.5 -74
t17.5 -75t49 -51.5t71.5 -18.5zM322 539l-163 128l85 85l128 -163z" />
    <glyph glyph-name="oacute" unicode="&#xf3;" horiz-adv-x="563" 
d="M281 -10q-70 0 -127 33.5t-90.5 90.5t-33.5 127t33.5 126t90.5 89.5t127 33.5q71 0 128 -33t90.5 -89.5t33.5 -126.5t-33.5 -127t-90.5 -90.5t-128 -33.5zM281 96q41 0 72.5 18.5t49 51.5t17.5 75t-18 74t-49 50.5t-72 18.5q-40 0 -71.5 -18.5t-49 -50.5t-17.5 -74
t17.5 -75t49 -51.5t71.5 -18.5zM225 549l-50 50l128 163l85 -85z" />
    <glyph glyph-name="ocircumflex" unicode="&#xf4;" horiz-adv-x="563" 
d="M281 -10q-70 0 -127 33.5t-90.5 90.5t-33.5 127t33.5 126t90.5 89.5t127 33.5q71 0 128 -33t90.5 -89.5t33.5 -126.5t-33.5 -127t-90.5 -90.5t-128 -33.5zM281 96q41 0 72.5 18.5t49 51.5t17.5 75t-18 74t-49 50.5t-72 18.5q-40 0 -71.5 -18.5t-49 -50.5t-17.5 -74
t17.5 -75t49 -51.5t71.5 -18.5zM154 547l-50 50l136 155h83l136 -155l-50 -50l-164 133l74 -1z" />
    <glyph glyph-name="otilde" unicode="&#xf5;" horiz-adv-x="563" 
d="M281 -10q-70 0 -127 33.5t-90.5 90.5t-33.5 127t33.5 126t90.5 89.5t127 33.5q71 0 128 -33t90.5 -89.5t33.5 -126.5t-33.5 -127t-90.5 -90.5t-128 -33.5zM281 96q41 0 72.5 18.5t49 51.5t17.5 75t-18 74t-49 50.5t-72 18.5q-40 0 -71.5 -18.5t-49 -50.5t-17.5 -74
t17.5 -75t49 -51.5t71.5 -18.5zM354 549q-33 0 -56 12t-42.5 23.5t-43.5 11.5q-25 0 -40 -9t-29 -27l-59 59q29 33 58 52.5t68 19.5q33 0 56 -11.5t43 -23.5t43 -12q26 0 41 9t28 27l59 -59q-29 -33 -58 -52.5t-68 -19.5z" />
    <glyph glyph-name="odieresis" unicode="&#xf6;" horiz-adv-x="563" 
d="M281 -10q-70 0 -127 33.5t-90.5 90.5t-33.5 127t33.5 126t90.5 89.5t127 33.5q71 0 128 -33t90.5 -89.5t33.5 -126.5t-33.5 -127t-90.5 -90.5t-128 -33.5zM281 96q41 0 72.5 18.5t49 51.5t17.5 75t-18 74t-49 50.5t-72 18.5q-40 0 -71.5 -18.5t-49 -50.5t-17.5 -74
t17.5 -75t49 -51.5t71.5 -18.5zM177 558q-28 0 -46.5 19t-18.5 47t18.5 47t46.5 19q29 0 47 -19t18 -47t-18 -47t-47 -19zM387 558q-28 0 -46.5 19t-18.5 47t18.5 47t46.5 19q29 0 47 -19t18 -47t-18 -47t-47 -19z" />
    <glyph glyph-name="divide" unicode="&#xf7;" horiz-adv-x="547" 
d="M53 285v100h441v-100h-441zM274 436q-28 0 -46.5 19t-18.5 47t18.5 47t46.5 19q29 0 47 -19t18 -47t-18 -47t-47 -19zM274 103q-28 0 -46.5 19t-18.5 47t18.5 47t46.5 19q29 0 47 -19t18 -47t-18 -47t-47 -19z" />
    <glyph glyph-name="oslash" unicode="&#xf8;" horiz-adv-x="563" 
d="M85 -29l-72 72l466 466l72 -72zM281 -10q-70 0 -127 33.5t-90.5 90.5t-33.5 127t33.5 126t90.5 89.5t127 33.5q71 0 128 -33t90.5 -89.5t33.5 -126.5t-33.5 -127t-90.5 -90.5t-128 -33.5zM281 96q41 0 72.5 18.5t49 51.5t17.5 75t-18 74t-49 50.5t-72 18.5
q-40 0 -71.5 -18.5t-49 -50.5t-17.5 -74t17.5 -75t49 -51.5t71.5 -18.5z" />
    <glyph glyph-name="ugrave" unicode="&#xf9;" horiz-adv-x="517" 
d="M258 -10q-61 0 -108.5 27t-74 74.5t-26.5 109.5v279h110v-274q0 -35 11.5 -59.5t34 -37.5t53.5 -13q48 0 73.5 28.5t25.5 81.5v274h110v-279q0 -63 -26.5 -110.5t-73.5 -74t-109 -26.5zM299 539l-163 128l85 85l128 -163z" />
    <glyph glyph-name="uacute" unicode="&#xfa;" horiz-adv-x="517" 
d="M258 -10q-61 0 -108.5 27t-74 74.5t-26.5 109.5v279h110v-274q0 -35 11.5 -59.5t34 -37.5t53.5 -13q48 0 73.5 28.5t25.5 81.5v274h110v-279q0 -63 -26.5 -110.5t-73.5 -74t-109 -26.5zM202 549l-50 50l128 163l85 -85z" />
    <glyph glyph-name="ucircumflex" unicode="&#xfb;" horiz-adv-x="517" 
d="M258 -10q-61 0 -108.5 27t-74 74.5t-26.5 109.5v279h110v-274q0 -35 11.5 -59.5t34 -37.5t53.5 -13q48 0 73.5 28.5t25.5 81.5v274h110v-279q0 -63 -26.5 -110.5t-73.5 -74t-109 -26.5zM131 547l-50 50l136 155h83l136 -155l-50 -50l-164 133l74 -1z" />
    <glyph glyph-name="udieresis" unicode="&#xfc;" horiz-adv-x="517" 
d="M258 -10q-61 0 -108.5 27t-74 74.5t-26.5 109.5v279h110v-274q0 -35 11.5 -59.5t34 -37.5t53.5 -13q48 0 73.5 28.5t25.5 81.5v274h110v-279q0 -63 -26.5 -110.5t-73.5 -74t-109 -26.5zM154 558q-28 0 -46.5 19t-18.5 47t18.5 47t46.5 19q29 0 47 -19t18 -47t-18 -47
t-47 -19zM364 558q-28 0 -46.5 19t-18.5 47t18.5 47t46.5 19q29 0 47 -19t18 -47t-18 -47t-47 -19z" />
    <glyph glyph-name="yacute" unicode="&#xfd;" horiz-adv-x="518" 
d="M216 -5l-205 485h121l140 -356h-35l148 356h122l-223 -485h-68zM73 -200l149 307l62 -112l-89 -195h-122zM202 549l-50 50l128 163l85 -85z" />
    <glyph glyph-name="thorn" unicode="&#xfe;" horiz-adv-x="580" 
d="M318 -10q-55 0 -98 23.5t-67.5 64.5t-24.5 93v138q0 52 25 93t68 64.5t97 23.5q65 0 117.5 -33.5t83 -90t30.5 -127.5q0 -70 -30.5 -126.5t-83 -89.5t-117.5 -33zM61 -200v920h110v-369l-19 -117l19 -116v-318h-110zM300 94q40 0 70.5 18.5t48 51.5t17.5 76t-17.5 76
t-48 51.5t-70.5 18.5t-71 -18.5t-48 -51.5t-17 -76t17 -76t48 -51.5t71 -18.5z" />
    <glyph glyph-name="ydieresis" unicode="&#xff;" horiz-adv-x="518" 
d="M216 -5l-205 485h121l140 -356h-35l148 356h122l-223 -485h-68zM73 -200l149 307l62 -112l-89 -195h-122zM154 558q-28 0 -46.5 19t-18.5 47t18.5 47t46.5 19q29 0 47 -19t18 -47t-18 -47t-47 -19zM364 558q-28 0 -46.5 19t-18.5 47t18.5 47t46.5 19q29 0 47 -19t18 -47
t-18 -47t-47 -19z" />
    <glyph glyph-name="Amacron" unicode="&#x100;" horiz-adv-x="702" 
d="M24 0l288 700h80l286 -700h-124l-224 567h42l-226 -567h-122zM166 135v100h371v-100h-371zM163 888h376v-90h-376v90z" />
    <glyph glyph-name="amacron" unicode="&#x101;" horiz-adv-x="580" 
d="M262 -10q-65 0 -117.5 33t-83 89.5t-30.5 126.5q0 71 30.5 127.5t83 90t117.5 33.5q55 0 97.5 -23.5t67.5 -64.5t25 -93v-138q0 -52 -24.5 -93t-67.5 -64.5t-98 -23.5zM280 94q61 0 98.5 41t37.5 105q0 43 -17 76t-47.5 51.5t-71.5 18.5q-40 0 -70.5 -18.5t-48 -51.5
t-17.5 -76t17.5 -76t48 -51.5t70.5 -18.5zM409 0v129l19 117l-19 116v118h110v-480h-110zM102 668h376v-90h-376v90z" />
    <glyph glyph-name="Abreve" unicode="&#x102;" horiz-adv-x="702" 
d="M24 0l288 700h80l286 -700h-124l-224 567h42l-226 -567h-122zM166 135v100h371v-100h-371zM528 932q0 -49 -23 -88.5t-62.5 -63t-90.5 -23.5t-91.5 23.5t-64 63t-23.5 88.5h100q0 -34 21.5 -57t57.5 -23q22 0 39.5 10.5t27.5 29t10 40.5h99z" />
    <glyph glyph-name="abreve" unicode="&#x103;" horiz-adv-x="580" 
d="M262 -10q-65 0 -117.5 33t-83 89.5t-30.5 126.5q0 71 30.5 127.5t83 90t117.5 33.5q55 0 97.5 -23.5t67.5 -64.5t25 -93v-138q0 -52 -24.5 -93t-67.5 -64.5t-98 -23.5zM280 94q61 0 98.5 41t37.5 105q0 43 -17 76t-47.5 51.5t-71.5 18.5q-40 0 -70.5 -18.5t-48 -51.5
t-17.5 -76t17.5 -76t48 -51.5t70.5 -18.5zM409 0v129l19 117l-19 116v118h110v-480h-110zM467 712q0 -49 -23 -88.5t-62.5 -63t-90.5 -23.5t-91.5 23.5t-64 63t-23.5 88.5h100q0 -34 21.5 -57t57.5 -23q22 0 39.5 10.5t27.5 29t10 40.5h99z" />
    <glyph glyph-name="Aogonek" unicode="&#x104;" horiz-adv-x="702" 
d="M24 0l288 700h80l286 -700h-124l-224 567h42l-226 -567h-122zM166 135v100h371v-100h-371zM624 -210q-43 0 -77 20.5t-34 71.5q0 42 26 77t81 61l58 -20q-36 -20 -58.5 -45t-22.5 -56q0 -17 10 -27.5t30 -10.5q15 0 26.5 5t19.5 9l28 -61q-14 -8 -34.5 -16t-52.5 -8z" />
    <glyph glyph-name="aogonek" unicode="&#x105;" horiz-adv-x="580" 
d="M262 -10q-65 0 -117.5 33t-83 89.5t-30.5 126.5q0 71 30.5 127.5t83 90t117.5 33.5q55 0 97.5 -23.5t67.5 -64.5t25 -93v-138q0 -52 -24.5 -93t-67.5 -64.5t-98 -23.5zM280 94q61 0 98.5 41t37.5 105q0 43 -17 76t-47.5 51.5t-71.5 18.5q-40 0 -70.5 -18.5t-48 -51.5
t-17.5 -76t17.5 -76t48 -51.5t70.5 -18.5zM409 0v129l19 117l-19 116v118h110v-480h-110zM465 -210q-43 0 -77 20.5t-34 71.5q0 42 26 77t81 61l58 -20q-36 -20 -58.5 -45t-22.5 -56q0 -17 10 -27.5t30 -10.5q15 0 26.5 5t19.5 9l28 -61q-14 -8 -34.5 -16t-52.5 -8z" />
    <glyph glyph-name="Cacute" unicode="&#x106;" horiz-adv-x="683" 
d="M394 -10q-76 0 -140.5 27.5t-112.5 77t-74 115t-26 140.5t26 140.5t74 114.5t112.5 77t140.5 28q85 0 147 -28t110 -76l-78 -78q-31 34 -75.5 53t-103.5 19q-52 0 -95 -18t-74.5 -51.5t-48.5 -79.5t-17 -101t17 -101t48.5 -79.5t74.5 -51.5t95 -18q64 0 108.5 19.5
t75.5 53.5l78 -78q-48 -49 -113 -77t-149 -28zM317 769l-50 50l128 163l85 -85z" />
    <glyph glyph-name="cacute" unicode="&#x107;" horiz-adv-x="487" 
d="M282 -10q-71 0 -128.5 33t-90.5 90t-33 127q0 71 33 127.5t90.5 89.5t128.5 33q56 0 104.5 -21.5t82.5 -61.5l-72 -73q-21 25 -50.5 37.5t-64.5 12.5q-41 0 -72.5 -18.5t-49 -50.5t-17.5 -75q0 -42 17.5 -74.5t49 -51t72.5 -18.5q35 0 64.5 12.5t50.5 37.5l72 -73
q-34 -40 -82.5 -61.5t-104.5 -21.5zM222 549l-50 50l128 163l85 -85z" />
    <glyph glyph-name="Cdotaccent" unicode="&#x10a;" horiz-adv-x="683" 
d="M394 -10q-76 0 -140.5 27.5t-112.5 77t-74 115t-26 140.5t26 140.5t74 114.5t112.5 77t140.5 28q85 0 147 -28t110 -76l-78 -78q-31 34 -75.5 53t-103.5 19q-52 0 -95 -18t-74.5 -51.5t-48.5 -79.5t-17 -101t17 -101t48.5 -79.5t74.5 -51.5t95 -18q64 0 108.5 19.5
t75.5 53.5l78 -78q-48 -49 -113 -77t-149 -28zM374 778q-28 0 -46.5 19t-18.5 47t18.5 47t46.5 19q29 0 47 -19t18 -47t-18 -47t-47 -19z" />
    <glyph glyph-name="cdotaccent" unicode="&#x10b;" horiz-adv-x="487" 
d="M282 -10q-71 0 -128.5 33t-90.5 90t-33 127q0 71 33 127.5t90.5 89.5t128.5 33q56 0 104.5 -21.5t82.5 -61.5l-72 -73q-21 25 -50.5 37.5t-64.5 12.5q-41 0 -72.5 -18.5t-49 -50.5t-17.5 -75q0 -42 17.5 -74.5t49 -51t72.5 -18.5q35 0 64.5 12.5t50.5 37.5l72 -73
q-34 -40 -82.5 -61.5t-104.5 -21.5zM279 558q-28 0 -46.5 19t-18.5 47t18.5 47t46.5 19q29 0 47 -19t18 -47t-18 -47t-47 -19z" />
    <glyph glyph-name="Ccaron" unicode="&#x10c;" horiz-adv-x="683" 
d="M394 -10q-76 0 -140.5 27.5t-112.5 77t-74 115t-26 140.5t26 140.5t74 114.5t112.5 77t140.5 28q85 0 147 -28t110 -76l-78 -78q-31 34 -75.5 53t-103.5 19q-52 0 -95 -18t-74.5 -51.5t-48.5 -79.5t-17 -101t17 -101t48.5 -79.5t74.5 -51.5t95 -18q64 0 108.5 19.5
t75.5 53.5l78 -78q-48 -49 -113 -77t-149 -28zM501 972l50 -50l-136 -155h-83l-136 155l50 50l164 -133l-74 1z" />
    <glyph glyph-name="ccaron" unicode="&#x10d;" horiz-adv-x="487" 
d="M282 -10q-71 0 -128.5 33t-90.5 90t-33 127q0 71 33 127.5t90.5 89.5t128.5 33q56 0 104.5 -21.5t82.5 -61.5l-72 -73q-21 25 -50.5 37.5t-64.5 12.5q-41 0 -72.5 -18.5t-49 -50.5t-17.5 -75q0 -42 17.5 -74.5t49 -51t72.5 -18.5q35 0 64.5 12.5t50.5 37.5l72 -73
q-34 -40 -82.5 -61.5t-104.5 -21.5zM406 752l50 -50l-136 -155h-83l-136 155l50 50l164 -133l-74 1z" />
    <glyph glyph-name="Dcaron" unicode="&#x10e;" horiz-adv-x="740" 
d="M155 0v105h184q72 0 126.5 31t85 86.5t30.5 128.5q0 72 -31 127t-85.5 86t-125.5 31h-184v105h187q76 0 141 -26.5t113.5 -74t75.5 -111t27 -138.5q0 -74 -27 -138t-75 -111.5t-113 -74t-140 -26.5h-189zM76 0v700h115v-700h-115zM469 972l50 -50l-136 -155h-83l-136 155
l50 50l164 -133l-74 1z" />
    <glyph glyph-name="dcaron" unicode="&#x10f;" horiz-adv-x="770" 
d="M262 -10q-65 0 -117.5 33t-83 89.5t-30.5 126.5q0 71 30.5 127.5t83 90t117.5 33.5q55 0 97.5 -23.5t67.5 -64.5t25 -93v-138q0 -52 -24.5 -93t-67.5 -64.5t-98 -23.5zM280 94q41 0 71.5 18.5t47.5 51.5t17 76t-17 76t-47.5 51.5t-70.5 18.5q-41 0 -71.5 -18.5t-48 -51.5
t-17.5 -76t17.5 -76t48 -51.5t70.5 -18.5zM519 0h-110v129l19 117l-19 116v358h110v-720zM616 411l-61 33l68 127l37 10q-6 -12 -14 -20t-19 -8q-23 0 -42.5 19.5t-19.5 49.5q0 32 21.5 54.5t53.5 22.5q30 0 52.5 -22.5t22.5 -54.5q0 -13 -5.5 -30.5t-19.5 -44.5z" />
    <glyph glyph-name="Dcroat" unicode="&#x110;" horiz-adv-x="759" 
d="M0 303v94h431v-94h-431zM174 0v105h184q72 0 126.5 31t85 86.5t30.5 128.5q0 72 -31 127t-85.5 86t-125.5 31h-184v105h187q76 0 141 -26.5t113.5 -74t75.5 -111t27 -138.5q0 -74 -27 -138t-75 -111.5t-113 -74t-140 -26.5h-189zM95 0v700h115v-700h-115z" />
    <glyph glyph-name="dcroat" unicode="&#x111;" horiz-adv-x="600" 
d="M261 545v104h339v-104h-339zM262 -10q-65 0 -117.5 33t-83 89.5t-30.5 126.5q0 71 30.5 127.5t83 90t117.5 33.5q55 0 97.5 -23.5t67.5 -64.5t25 -93v-138q0 -52 -24.5 -93t-67.5 -64.5t-98 -23.5zM280 94q41 0 71.5 18.5t47.5 51.5t17 76t-17 76t-47.5 51.5t-70.5 18.5
q-41 0 -71.5 -18.5t-48 -51.5t-17.5 -76t17.5 -76t48 -51.5t70.5 -18.5zM519 0h-110v129l19 117l-19 116v358h110v-720z" />
    <glyph glyph-name="Emacron" unicode="&#x112;" 
d="M76 0v700h115v-700h-115zM155 0v105h392v-105h-392zM155 307v101h358v-101h-358zM155 595v105h387v-105h-387zM127 888h376v-90h-376v90z" />
    <glyph glyph-name="emacron" unicode="&#x113;" horiz-adv-x="534" 
d="M284 -10q-72 0 -129.5 32.5t-91 89.5t-33.5 128t33 127.5t89.5 89.5t125.5 33q67 0 118.5 -31t81 -85t29.5 -123q0 -12 -1.5 -24.5t-4.5 -27.5h-394v90h337l-41 -36q-2 44 -17 74t-42.5 46t-67.5 16q-42 0 -73 -18t-48 -50.5t-17 -77.5t18 -79t51 -52.5t76 -18.5
q37 0 68.5 13t53.5 38l70 -71q-35 -41 -85 -62t-106 -21zM89 668h376v-90h-376v90z" />
    <glyph glyph-name="Edotaccent" unicode="&#x116;" 
d="M76 0v700h115v-700h-115zM155 0v105h392v-105h-392zM155 307v101h358v-101h-358zM155 595v105h387v-105h-387zM315 778q-28 0 -46.5 19t-18.5 47t18.5 47t46.5 19q29 0 47 -19t18 -47t-18 -47t-47 -19z" />
    <glyph glyph-name="edotaccent" unicode="&#x117;" horiz-adv-x="534" 
d="M284 -10q-72 0 -129.5 32.5t-91 89.5t-33.5 128t33 127.5t89.5 89.5t125.5 33q67 0 118.5 -31t81 -85t29.5 -123q0 -12 -1.5 -24.5t-4.5 -27.5h-394v90h337l-41 -36q-2 44 -17 74t-42.5 46t-67.5 16q-42 0 -73 -18t-48 -50.5t-17 -77.5t18 -79t51 -52.5t76 -18.5
q37 0 68.5 13t53.5 38l70 -71q-35 -41 -85 -62t-106 -21zM277 558q-28 0 -46.5 19t-18.5 47t18.5 47t46.5 19q29 0 47 -19t18 -47t-18 -47t-47 -19z" />
    <glyph glyph-name="Eogonek" unicode="&#x118;" 
d="M76 0v700h115v-700h-115zM155 0v105h392v-105h-392zM155 307v101h358v-101h-358zM155 595v105h387v-105h-387zM493 -210q-43 0 -77 20.5t-34 71.5q0 42 26 77t81 61l58 -20q-36 -20 -58.5 -45t-22.5 -56q0 -17 10 -27.5t30 -10.5q15 0 26.5 5t19.5 9l28 -61
q-14 -8 -34.5 -16t-52.5 -8z" />
    <glyph glyph-name="eogonek" unicode="&#x119;" horiz-adv-x="534" 
d="M284 -10q-72 0 -129.5 32.5t-91 89.5t-33.5 128t33 127.5t89.5 89.5t125.5 33q67 0 118.5 -31t81 -85t29.5 -123q0 -12 -1.5 -24.5t-4.5 -27.5h-394v90h337l-41 -36q-2 44 -17 74t-42.5 46t-67.5 16q-42 0 -73 -18t-48 -50.5t-17 -77.5t18 -79t51 -52.5t76 -18.5
q37 0 68.5 13t53.5 38l70 -71q-35 -41 -85 -62t-106 -21zM332 -200q-43 0 -77 20.5t-34 71.5q0 42 26 77t81 61l58 -20q-36 -20 -58.5 -45t-22.5 -56q0 -17 10 -27.5t30 -10.5q15 0 26.5 5t19.5 9l28 -61q-14 -8 -34.5 -16t-52.5 -8z" />
    <glyph glyph-name="Ecaron" unicode="&#x11a;" 
d="M76 0v700h115v-700h-115zM155 0v105h392v-105h-392zM155 307v101h358v-101h-358zM155 595v105h387v-105h-387zM442 972l50 -50l-136 -155h-83l-136 155l50 50l164 -133l-74 1z" />
    <glyph glyph-name="ecaron" unicode="&#x11b;" horiz-adv-x="534" 
d="M284 -10q-72 0 -129.5 32.5t-91 89.5t-33.5 128t33 127.5t89.5 89.5t125.5 33q67 0 118.5 -31t81 -85t29.5 -123q0 -12 -1.5 -24.5t-4.5 -27.5h-394v90h337l-41 -36q-2 44 -17 74t-42.5 46t-67.5 16q-42 0 -73 -18t-48 -50.5t-17 -77.5t18 -79t51 -52.5t76 -18.5
q37 0 68.5 13t53.5 38l70 -71q-35 -41 -85 -62t-106 -21zM404 752l50 -50l-136 -155h-83l-136 155l50 50l164 -133l-74 1z" />
    <glyph glyph-name="Gbreve" unicode="&#x11e;" horiz-adv-x="772" 
d="M392 -10q-72 0 -136 28t-112 77.5t-75.5 115t-27.5 140.5t27.5 140t76 114.5t114 77t141.5 27.5q83 0 154 -32t119 -91l-78 -78q-31 44 -83 67.5t-112 23.5q-72 0 -126.5 -31.5t-84.5 -87.5t-30 -130t30.5 -130.5t82.5 -88.5t118 -32q70 0 120.5 25.5t77.5 76t27 124.5
l72 -52h-299v105h346v-16q0 -125 -44.5 -208t-121.5 -124t-176 -41zM574 932q0 -49 -23 -88.5t-62.5 -63t-90.5 -23.5t-91.5 23.5t-64 63t-23.5 88.5h100q0 -34 21.5 -57t57.5 -23q22 0 39.5 10.5t27.5 29t10 40.5h99z" />
    <glyph glyph-name="gbreve" unicode="&#x11f;" horiz-adv-x="575" 
d="M261 -210q-76 0 -133 27.5t-92 77.5l72 72q29 -36 66 -54t89 -18q65 0 103 33.5t38 91.5v118l19 106l-19 107v129h110v-460q0 -69 -32 -120.5t-89 -80.5t-132 -29zM256 10q-64 0 -115.5 31.5t-81 86.5t-29.5 123t29.5 122t81 85.5t115.5 31.5q57 0 100 -23t67 -63.5
t24 -94.5v-118q0 -53 -24.5 -94t-67.5 -64t-99 -23zM278 114q40 0 70 17t46.5 47.5t16.5 71.5t-16.5 71.5t-46.5 47.5t-70 17t-70.5 -17t-47.5 -47.5t-17 -71.5q0 -40 17 -71t47.5 -48t70.5 -17zM467 712q0 -49 -23 -88.5t-62.5 -63t-90.5 -23.5t-91.5 23.5t-64 63
t-23.5 88.5h100q0 -34 21.5 -57t57.5 -23q22 0 39.5 10.5t27.5 29t10 40.5h99z" />
    <glyph glyph-name="Gdotaccent" unicode="&#x120;" horiz-adv-x="772" 
d="M392 -10q-72 0 -136 28t-112 77.5t-75.5 115t-27.5 140.5t27.5 140t76 114.5t114 77t141.5 27.5q83 0 154 -32t119 -91l-78 -78q-31 44 -83 67.5t-112 23.5q-72 0 -126.5 -31.5t-84.5 -87.5t-30 -130t30.5 -130.5t82.5 -88.5t118 -32q70 0 120.5 25.5t77.5 76t27 124.5
l72 -52h-299v105h346v-16q0 -125 -44.5 -208t-121.5 -124t-176 -41zM397 778q-28 0 -46.5 19t-18.5 47t18.5 47t46.5 19q29 0 47 -19t18 -47t-18 -47t-47 -19z" />
    <glyph glyph-name="gdotaccent" unicode="&#x121;" horiz-adv-x="575" 
d="M261 -210q-76 0 -133 27.5t-92 77.5l72 72q29 -36 66 -54t89 -18q65 0 103 33.5t38 91.5v118l19 106l-19 107v129h110v-460q0 -69 -32 -120.5t-89 -80.5t-132 -29zM256 10q-64 0 -115.5 31.5t-81 86.5t-29.5 123t29.5 122t81 85.5t115.5 31.5q57 0 100 -23t67 -63.5
t24 -94.5v-118q0 -53 -24.5 -94t-67.5 -64t-99 -23zM278 114q40 0 70 17t46.5 47.5t16.5 71.5t-16.5 71.5t-46.5 47.5t-70 17t-70.5 -17t-47.5 -47.5t-17 -71.5q0 -40 17 -71t47.5 -48t70.5 -17zM290 558q-28 0 -46.5 19t-18.5 47t18.5 47t46.5 19q29 0 47 -19t18 -47
t-18 -47t-47 -19z" />
    <glyph glyph-name="uni0122" unicode="&#x122;" horiz-adv-x="772" 
d="M392 -10q-72 0 -136 28t-112 77.5t-75.5 115t-27.5 140.5t27.5 140t76 114.5t114 77t141.5 27.5q83 0 154 -32t119 -91l-78 -78q-31 44 -83 67.5t-112 23.5q-72 0 -126.5 -31.5t-84.5 -87.5t-30 -130t30.5 -130.5t82.5 -88.5t118 -32q70 0 120.5 25.5t77.5 76t27 124.5
l72 -52h-299v105h346v-16q0 -125 -44.5 -208t-121.5 -124t-176 -41zM378 -366l-61 33l68 127l37 10q-6 -12 -14 -20t-19 -8q-23 0 -42.5 19.5t-19.5 49.5q0 32 21.5 54.5t53.5 22.5q30 0 52.5 -22.5t22.5 -54.5q0 -13 -5.5 -30.5t-19.5 -44.5z" />
    <glyph glyph-name="uni0123" unicode="&#x123;" horiz-adv-x="575" 
d="M261 -210q-76 0 -133 27.5t-92 77.5l72 72q29 -36 66 -54t89 -18q65 0 103 33.5t38 91.5v118l19 106l-19 107v129h110v-460q0 -69 -32 -120.5t-89 -80.5t-132 -29zM256 10q-64 0 -115.5 31.5t-81 86.5t-29.5 123t29.5 122t81 85.5t115.5 31.5q57 0 100 -23t67 -63.5
t24 -94.5v-118q0 -53 -24.5 -94t-67.5 -64t-99 -23zM278 114q40 0 70 17t46.5 47.5t16.5 71.5t-16.5 71.5t-46.5 47.5t-70 17t-70.5 -17t-47.5 -47.5t-17 -71.5q0 -40 17 -71t47.5 -48t70.5 -17zM370 772l-68 -127l-37 -10q6 12 14.5 20t18.5 8q23 0 42.5 -19.5t19.5 -49.5
q0 -31 -21.5 -54t-53.5 -23q-30 0 -52.5 22.5t-22.5 54.5q0 13 5.5 30.5t19.5 44.5l74 136z" />
    <glyph glyph-name="Hbar" unicode="&#x126;" horiz-adv-x="712" 
d="M0 514v90h712v-90h-712zM76 0v700h115v-700h-115zM521 0v700h115v-700h-115zM155 310v105h391v-105h-391z" />
    <glyph glyph-name="hbar" unicode="&#x127;" horiz-adv-x="551" 
d="M0 545v104h339v-104h-339zM390 0v277q0 48 -30.5 79t-78.5 31q-32 0 -57 -14t-39 -39t-14 -57l-43 24q0 55 24 97.5t66.5 67t95.5 24.5q54 0 96 -24t66 -66.5t24 -98.5v-301h-110zM61 0v720h110v-720h-110z" />
    <glyph glyph-name="Imacron" unicode="&#x12a;" horiz-adv-x="267" 
d="M-36 888h340v-90h-340v90zM76 0v700h115v-700h-115z" />
    <glyph glyph-name="imacron" unicode="&#x12b;" horiz-adv-x="232" 
d="M-54 668h340v-90h-340v90zM61 0v480h110v-480h-110z" />
    <glyph glyph-name="Iogonek" unicode="&#x12e;" horiz-adv-x="267" 
d="M76 0v700h115v-700h-115zM137 -210q-43 0 -77 20.5t-34 71.5q0 42 26 77t81 61l58 -20q-36 -20 -58.5 -45t-22.5 -56q0 -17 10 -27.5t30 -10.5q15 0 26.5 5t19.5 9l28 -61q-14 -8 -34.5 -16t-52.5 -8z" />
    <glyph glyph-name="iogonek" unicode="&#x12f;" horiz-adv-x="234" 
d="M62 0v480h110v-480h-110zM117 568q-28 0 -46.5 19t-18.5 47t18.5 47t46.5 19q29 0 47 -19t18 -47t-18 -47t-47 -19zM117 -210q-43 0 -77 20.5t-34 71.5q0 42 26 77t81 61l58 -20q-36 -20 -58.5 -45t-22.5 -56q0 -17 10 -27.5t30 -10.5q15 0 26.5 5t19.5 9l28 -61
q-14 -8 -34.5 -16t-52.5 -8z" />
    <glyph glyph-name="Idotaccent" unicode="&#x130;" horiz-adv-x="267" 
d="M76 0v700h115v-700h-115zM134 778q-28 0 -46.5 19t-18.5 47t18.5 47t46.5 19q29 0 47 -19t18 -47t-18 -47t-47 -19z" />
    <glyph glyph-name="dotlessi" unicode="&#x131;" horiz-adv-x="232" 
d="M61 0v480h110v-480h-110z" />
    <glyph glyph-name="IJ" unicode="&#x132;" horiz-adv-x="609" 
d="M323 -10q-61 0 -108.5 24.5t-76.5 65.5l81 74q17 -26 43 -40t57 -14q34 0 58 14t37 40t13 62v484h115v-475q0 -70 -27.5 -123t-76.5 -82.5t-115 -29.5zM76 220v480h110v-480h-110z" />
    <glyph glyph-name="ij" unicode="&#x133;" horiz-adv-x="476" 
d="M62 0v480h110v-480h-110zM117 568q-28 0 -46.5 19t-18.5 47t18.5 47t46.5 19q29 0 47 -19t18 -47t-18 -47t-47 -19zM247 -210q-51 0 -83.5 16t-59.5 47l71 71q12 -16 27 -23.5t37 -7.5q27 0 46.5 16.5t19.5 48.5v522h110v-521q0 -55 -23.5 -92.5t-61.5 -57t-83 -19.5z
M362 568q-28 0 -46.5 19t-18.5 47t18.5 47t46.5 19q29 0 47 -19t18 -47t-18 -47t-47 -19z" />
    <glyph glyph-name="uni0136" unicode="&#x136;" horiz-adv-x="672" 
d="M499 0l-324 365l317 335h147l-350 -364v63l360 -399h-150zM76 0v700h115v-700h-115zM296 -366l-61 33l68 127l37 10q-6 -12 -14 -20t-19 -8q-23 0 -42.5 19.5t-19.5 49.5q0 32 21.5 54.5t53.5 22.5q30 0 52.5 -22.5t22.5 -54.5q0 -13 -5.5 -30.5t-19.5 -44.5z" />
    <glyph glyph-name="uni0137" unicode="&#x137;" horiz-adv-x="511" 
d="M366 0l-203 245l202 235h131l-232 -264l5 63l237 -279h-140zM61 0v720h110v-720h-110zM250 -366l-61 33l68 127l37 10q-6 -12 -14 -20t-19 -8q-23 0 -42.5 19.5t-19.5 49.5q0 32 21.5 54.5t53.5 22.5q30 0 52.5 -22.5t22.5 -54.5q0 -13 -5.5 -30.5t-19.5 -44.5z" />
    <glyph glyph-name="Lacute" unicode="&#x139;" horiz-adv-x="550" 
d="M76 0v700h115v-700h-115zM155 0v105h366v-105h-366zM242 769l-50 50l128 163l85 -85z" />
    <glyph glyph-name="lacute" unicode="&#x13a;" horiz-adv-x="232" 
d="M61 0v720h110v-720h-110zM59 769l-50 50l128 163l85 -85z" />
    <glyph glyph-name="uni013B" unicode="&#x13b;" horiz-adv-x="550" 
d="M76 0v700h115v-700h-115zM155 0v105h366v-105h-366zM280 -366l-61 33l68 127l37 10q-6 -12 -14 -20t-19 -8q-23 0 -42.5 19.5t-19.5 49.5q0 32 21.5 54.5t53.5 22.5q30 0 52.5 -22.5t22.5 -54.5q0 -13 -5.5 -30.5t-19.5 -44.5z" />
    <glyph glyph-name="uni013C" unicode="&#x13c;" horiz-adv-x="232" 
d="M61 0v720h110v-720h-110zM97 -366l-61 33l68 127l37 10q-6 -12 -14 -20t-19 -8q-23 0 -42.5 19.5t-19.5 49.5q0 32 21.5 54.5t53.5 22.5q30 0 52.5 -22.5t22.5 -54.5q0 -13 -5.5 -30.5t-19.5 -44.5z" />
    <glyph glyph-name="Lcaron" unicode="&#x13d;" horiz-adv-x="550" 
d="M76 0v700h115v-700h-115zM155 0v105h366v-105h-366zM323 412l-61 33l68 127l37 10q-6 -12 -14 -20t-19 -8q-23 0 -42.5 19.5t-19.5 49.5q0 32 21.5 54.5t53.5 22.5q30 0 52.5 -22.5t22.5 -54.5q0 -13 -5.5 -30.5t-19.5 -44.5z" />
    <glyph glyph-name="lcaron" unicode="&#x13e;" horiz-adv-x="422" 
d="M61 0v720h110v-720h-110zM268 412l-61 33l68 127l37 10q-6 -12 -14 -20t-19 -8q-23 0 -42.5 19.5t-19.5 49.5q0 32 21.5 54.5t53.5 22.5q30 0 52.5 -22.5t22.5 -54.5q0 -13 -5.5 -30.5t-19.5 -44.5z" />
    <glyph glyph-name="Lslash" unicode="&#x141;" horiz-adv-x="620" 
d="M61 332l280 162v-104l-280 -162v104zM146 0v700h115v-700h-115zM225 0v105h366v-105h-366z" />
    <glyph glyph-name="lslash" unicode="&#x142;" horiz-adv-x="402" 
d="M61 332l280 162v-104l-280 -162v104zM146 0v720h110v-720h-110z" />
    <glyph glyph-name="Nacute" unicode="&#x143;" horiz-adv-x="717" 
d="M76 0v700h80l35 -132v-568h-115zM561 0l-419 547l14 153l419 -547zM561 0l-35 123v577h115v-700h-80zM302 769l-50 50l128 163l85 -85z" />
    <glyph glyph-name="nacute" unicode="&#x144;" horiz-adv-x="551" 
d="M390 0v277q0 48 -30.5 79t-78.5 31q-32 0 -57 -14t-39 -39t-14 -57l-43 24q0 55 24 97.5t66.5 67t95.5 24.5q54 0 96 -27.5t66 -71t24 -90.5v-301h-110zM61 0v480h110v-480h-110zM219 549l-50 50l128 163l85 -85z" />
    <glyph glyph-name="uni0145" unicode="&#x145;" horiz-adv-x="717" 
d="M76 0v700h80l35 -132v-568h-115zM561 0l-419 547l14 153l419 -547zM561 0l-35 123v577h115v-700h-80zM340 -366l-61 33l68 127l37 10q-6 -12 -14 -20t-19 -8q-23 0 -42.5 19.5t-19.5 49.5q0 32 21.5 54.5t53.5 22.5q30 0 52.5 -22.5t22.5 -54.5q0 -13 -5.5 -30.5
t-19.5 -44.5z" />
    <glyph glyph-name="uni0146" unicode="&#x146;" horiz-adv-x="551" 
d="M390 0v277q0 48 -30.5 79t-78.5 31q-32 0 -57 -14t-39 -39t-14 -57l-43 24q0 55 24 97.5t66.5 67t95.5 24.5q54 0 96 -27.5t66 -71t24 -90.5v-301h-110zM61 0v480h110v-480h-110zM257 -366l-61 33l68 127l37 10q-6 -12 -14 -20t-19 -8q-23 0 -42.5 19.5t-19.5 49.5
q0 32 21.5 54.5t53.5 22.5q30 0 52.5 -22.5t22.5 -54.5q0 -13 -5.5 -30.5t-19.5 -44.5z" />
    <glyph glyph-name="Ncaron" unicode="&#x147;" horiz-adv-x="717" 
d="M76 0v700h80l35 -132v-568h-115zM561 0l-419 547l14 153l419 -547zM561 0l-35 123v577h115v-700h-80zM486 972l50 -50l-136 -155h-83l-136 155l50 50l164 -133l-74 1z" />
    <glyph glyph-name="ncaron" unicode="&#x148;" horiz-adv-x="551" 
d="M390 0v277q0 48 -30.5 79t-78.5 31q-32 0 -57 -14t-39 -39t-14 -57l-43 24q0 55 24 97.5t66.5 67t95.5 24.5q54 0 96 -27.5t66 -71t24 -90.5v-301h-110zM61 0v480h110v-480h-110zM403 752l50 -50l-136 -155h-83l-136 155l50 50l164 -133l-74 1z" />
    <glyph glyph-name="Eng" unicode="&#x14a;" horiz-adv-x="717" 
d="M76 0v700h80l35 -132v-568h-115zM561 0l-419 547l14 153l419 -547zM561 0l-35 123v577h115v-700h-80zM473 -210q-51 0 -83.5 16t-59.5 47l71 71q12 -16 27 -23.5t37 -7.5q27 0 46.5 16.5t19.5 48.5v522h110v-521q0 -55 -23.5 -92.5t-61.5 -57t-83 -19.5z" />
    <glyph glyph-name="eng" unicode="&#x14b;" horiz-adv-x="551" 
d="M332 -210q-51 0 -83.5 16t-59.5 47l71 71q12 -16 27 -23.5t37 -7.5q27 0 46.5 16.5t19.5 48.5v225h110v-224q0 -55 -23.5 -92.5t-61.5 -57t-83 -19.5zM390 0v277q0 48 -30.5 79t-78.5 31q-32 0 -57 -14t-39 -39t-14 -57l-43 24q0 55 24 97.5t66.5 67t95.5 24.5
q54 0 96 -27.5t66 -71t24 -90.5v-301h-110zM61 0v480h110v-480h-110z" />
    <glyph glyph-name="Omacron" unicode="&#x14c;" horiz-adv-x="794" 
d="M398 -10q-75 0 -140 28t-114 77.5t-76.5 115t-27.5 140.5t27.5 140t76 114.5t113 77t139.5 27.5t139.5 -27.5t113.5 -77t76.5 -115t27.5 -140.5t-27.5 -140.5t-76 -114.5t-113 -77t-138.5 -28zM396 100q71 0 124.5 32t84 88.5t30.5 130.5q0 55 -17.5 100.5t-49.5 79
t-75.5 51.5t-96.5 18q-70 0 -123.5 -31.5t-84 -87.5t-30.5 -130q0 -55 17.5 -101.5t49 -79.5t75.5 -51.5t96 -18.5zM209 888h376v-90h-376v90z" />
    <glyph glyph-name="omacron" unicode="&#x14d;" horiz-adv-x="563" 
d="M281 -10q-70 0 -127 33.5t-90.5 90.5t-33.5 127t33.5 126t90.5 89.5t127 33.5q71 0 128 -33t90.5 -89.5t33.5 -126.5t-33.5 -127t-90.5 -90.5t-128 -33.5zM281 96q41 0 72.5 18.5t49 51.5t17.5 75t-18 74t-49 50.5t-72 18.5q-40 0 -71.5 -18.5t-49 -50.5t-17.5 -74
t17.5 -75t49 -51.5t71.5 -18.5zM94 668h376v-90h-376v90z" />
    <glyph glyph-name="Ohungarumlaut" unicode="&#x150;" horiz-adv-x="794" 
d="M398 -10q-75 0 -140 28t-114 77.5t-76.5 115t-27.5 140.5t27.5 140t76 114.5t113 77t139.5 27.5t139.5 -27.5t113.5 -77t76.5 -115t27.5 -140.5t-27.5 -140.5t-76 -114.5t-113 -77t-138.5 -28zM396 100q71 0 124.5 32t84 88.5t30.5 130.5q0 55 -17.5 100.5t-49.5 79
t-75.5 51.5t-96.5 18q-70 0 -123.5 -31.5t-84 -87.5t-30.5 -130q0 -55 17.5 -101.5t49 -79.5t75.5 -51.5t96 -18.5zM291 776l-67 24l47 202l113 -42zM481 776l-67 24l47 202l113 -42z" />
    <glyph glyph-name="ohungarumlaut" unicode="&#x151;" horiz-adv-x="563" 
d="M281 -10q-70 0 -127 33.5t-90.5 90.5t-33.5 127t33.5 126t90.5 89.5t127 33.5q71 0 128 -33t90.5 -89.5t33.5 -126.5t-33.5 -127t-90.5 -90.5t-128 -33.5zM281 96q41 0 72.5 18.5t49 51.5t17.5 75t-18 74t-49 50.5t-72 18.5q-40 0 -71.5 -18.5t-49 -50.5t-17.5 -74
t17.5 -75t49 -51.5t71.5 -18.5zM176 556l-67 24l47 202l113 -42zM366 556l-67 24l47 202l113 -42z" />
    <glyph glyph-name="OE" unicode="&#x152;" horiz-adv-x="1149" 
d="M398 -10q-75 0 -140 28t-114 77.5t-76.5 115t-27.5 140.5t27.5 140t76 114.5t113 77t139.5 27.5t135 -27.5t103 -77t66 -115t23 -140.5t-23 -140.5t-65.5 -114.5t-102.5 -77t-134 -28zM396 100q71 0 124.5 32t84 88.5t30.5 130.5q0 73 -30.5 129t-84.5 88t-124 32
t-123.5 -31.5t-84 -87.5t-30.5 -130q0 -55 17.5 -101.5t49 -79.5t75.5 -51.5t96 -18.5zM635 0v700h115v-700h-115zM714 0v105h392v-105h-392zM714 307v101h358v-101h-358zM714 595v105h387v-105h-387z" />
    <glyph glyph-name="oe" unicode="&#x153;" horiz-adv-x="929" 
d="M281 -10q-70 0 -127 33.5t-90.5 90.5t-33.5 127t33.5 126t90.5 89.5t127 33.5q71 0 128 -33t90.5 -89.5t33.5 -126.5t-33.5 -127t-90.5 -90.5t-128 -33.5zM281 96q41 0 72.5 18.5t49 51.5t17.5 75t-18 74t-49 50.5t-72 18.5q-40 0 -71.5 -18.5t-49 -50.5t-17.5 -74
t17.5 -75t49 -51.5t71.5 -18.5zM679 -10q-72 0 -129.5 32.5t-91 89.5t-33.5 128t33 127.5t89.5 89.5t125.5 33q67 0 118.5 -31t81 -85t29.5 -123q0 -12 -1.5 -24.5t-4.5 -27.5h-394v90h337l-41 -36q-2 44 -17 74t-42.5 46t-67.5 16q-42 0 -73 -18t-48 -50.5t-17 -77.5
t18 -79t51 -52.5t76 -18.5q37 0 68.5 13t53.5 38l70 -71q-35 -41 -85 -62t-106 -21z" />
    <glyph glyph-name="Racute" unicode="&#x154;" horiz-adv-x="628" 
d="M155 297v95h177q53 0 82.5 27.5t29.5 76.5q0 44 -29 74t-82 30h-178v100h183q66 0 116 -26.5t77.5 -72t27.5 -103.5q0 -61 -27.5 -106t-77.5 -70t-116 -25h-183zM76 0v700h115v-700h-115zM460 0l-245 304l107 39l283 -343h-145zM240 769l-50 50l128 163l85 -85z" />
    <glyph glyph-name="racute" unicode="&#x155;" horiz-adv-x="425" 
d="M61 0v480h110v-480h-110zM171 267l-38 19q0 91 40.5 147.5t122.5 56.5q36 0 65 -13t54 -42l-72 -74q-13 14 -29 20t-37 6q-46 0 -76 -29t-30 -91zM158 549l-50 50l128 163l85 -85z" />
    <glyph glyph-name="uni0156" unicode="&#x156;" horiz-adv-x="628" 
d="M155 297v95h177q53 0 82.5 27.5t29.5 76.5q0 44 -29 74t-82 30h-178v100h183q66 0 116 -26.5t77.5 -72t27.5 -103.5q0 -61 -27.5 -106t-77.5 -70t-116 -25h-183zM76 0v700h115v-700h-115zM460 0l-245 304l107 39l283 -343h-145zM293 -366l-61 33l68 127l37 10
q-6 -12 -14 -20t-19 -8q-23 0 -42.5 19.5t-19.5 49.5q0 32 21.5 54.5t53.5 22.5q30 0 52.5 -22.5t22.5 -54.5q0 -13 -5.5 -30.5t-19.5 -44.5z" />
    <glyph glyph-name="uni0157" unicode="&#x157;" horiz-adv-x="425" 
d="M61 0v480h110v-480h-110zM171 267l-38 19q0 91 40.5 147.5t122.5 56.5q36 0 65 -13t54 -42l-72 -74q-13 14 -29 20t-37 6q-46 0 -76 -29t-30 -91zM97 -366l-61 33l68 127l37 10q-6 -12 -14 -20t-19 -8q-23 0 -42.5 19.5t-19.5 49.5q0 32 21.5 54.5t53.5 22.5
q30 0 52.5 -22.5t22.5 -54.5q0 -13 -5.5 -30.5t-19.5 -44.5z" />
    <glyph glyph-name="Rcaron" unicode="&#x158;" horiz-adv-x="628" 
d="M155 297v95h177q53 0 82.5 27.5t29.5 76.5q0 44 -29 74t-82 30h-178v100h183q66 0 116 -26.5t77.5 -72t27.5 -103.5q0 -61 -27.5 -106t-77.5 -70t-116 -25h-183zM76 0v700h115v-700h-115zM460 0l-245 304l107 39l283 -343h-145zM424 972l50 -50l-136 -155h-83l-136 155
l50 50l164 -133l-74 1z" />
    <glyph glyph-name="rcaron" unicode="&#x159;" horiz-adv-x="425" 
d="M61 0v480h110v-480h-110zM171 267l-38 19q0 91 40.5 147.5t122.5 56.5q36 0 65 -13t54 -42l-72 -74q-13 14 -29 20t-37 6q-46 0 -76 -29t-30 -91zM342 752l50 -50l-136 -155h-83l-136 155l50 50l164 -133l-74 1z" />
    <glyph glyph-name="Sacute" unicode="&#x15a;" horiz-adv-x="556" 
d="M271 -10q-83 0 -141 30t-104 88l78 78q29 -42 69 -65.5t102 -23.5q58 0 92.5 24t34.5 66q0 35 -18 57t-47.5 36.5t-65 26t-71 26t-65 36.5t-47.5 57t-18 89q0 62 30.5 105.5t82.5 66.5t116 23q69 0 123.5 -27t88.5 -69l-78 -78q-30 34 -62.5 50.5t-74.5 16.5
q-52 0 -81.5 -21t-29.5 -59q0 -32 18 -51.5t47.5 -33t65 -25.5t71 -27t65 -38.5t47.5 -60.5t18 -93q0 -94 -66.5 -149t-179.5 -55zM242 769l-50 50l128 163l85 -85z" />
    <glyph glyph-name="sacute" unicode="&#x15b;" horiz-adv-x="430" 
d="M218 -10q-40 0 -77 10.5t-68 30t-54 47.5l70 70q25 -29 57.5 -43.5t73.5 -14.5q37 0 56 11t19 32q0 22 -18 34t-46.5 20.5t-60 17.5t-60 24.5t-46.5 42.5t-18 70q0 46 21.5 79t61 51t94.5 18q58 0 102.5 -20.5t74.5 -61.5l-70 -70q-21 26 -48 39t-62 13q-33 0 -51 -10
t-18 -29q0 -20 18 -31t46.5 -19t60 -17.5t60 -26t46.5 -44t18 -71.5q0 -70 -49 -111t-133 -41zM166 549l-50 50l128 163l85 -85z" />
    <glyph glyph-name="Scedilla" unicode="&#x15e;" horiz-adv-x="556" 
d="M271 -10q-83 0 -141 30t-104 88l78 78q29 -42 69 -65.5t102 -23.5q58 0 92.5 24t34.5 66q0 35 -18 57t-47.5 36.5t-65 26t-71 26t-65 36.5t-47.5 57t-18 89q0 62 30.5 105.5t82.5 66.5t116 23q69 0 123.5 -27t88.5 -69l-78 -78q-30 34 -62.5 50.5t-74.5 16.5
q-52 0 -81.5 -21t-29.5 -59q0 -32 18 -51.5t47.5 -33t65 -25.5t71 -27t65 -38.5t47.5 -60.5t18 -93q0 -94 -66.5 -149t-179.5 -55zM257 -210q-37 0 -65 9t-54 26l45 57q11 -10 27 -16.5t39 -6.5q26 0 37.5 7t11.5 17q0 11 -10.5 19.5t-33.5 8.5h-52l33 103h80l-24 -72
l-40 30q62 2 100 -24.5t38 -66.5q0 -39 -36.5 -65t-95.5 -26z" />
    <glyph glyph-name="scedilla" unicode="&#x15f;" horiz-adv-x="430" 
d="M218 -10q-40 0 -77 10.5t-68 30t-54 47.5l70 70q25 -29 57.5 -43.5t73.5 -14.5q37 0 56 11t19 32q0 22 -18 34t-46.5 20.5t-60 17.5t-60 24.5t-46.5 42.5t-18 70q0 46 21.5 79t61 51t94.5 18q58 0 102.5 -20.5t74.5 -61.5l-70 -70q-21 26 -48 39t-62 13q-33 0 -51 -10
t-18 -29q0 -20 18 -31t46.5 -19t60 -17.5t60 -26t46.5 -44t18 -71.5q0 -70 -49 -111t-133 -41zM205 -210q-37 0 -65 9t-54 26l45 57q11 -10 27 -16.5t39 -6.5q26 0 37.5 7t11.5 17q0 11 -10.5 19.5t-33.5 8.5h-52l33 103h80l-24 -72l-40 30q62 2 100 -24.5t38 -66.5
q0 -39 -36.5 -65t-95.5 -26z" />
    <glyph glyph-name="Scaron" unicode="&#x160;" horiz-adv-x="556" 
d="M271 -10q-83 0 -141 30t-104 88l78 78q29 -42 69 -65.5t102 -23.5q58 0 92.5 24t34.5 66q0 35 -18 57t-47.5 36.5t-65 26t-71 26t-65 36.5t-47.5 57t-18 89q0 62 30.5 105.5t82.5 66.5t116 23q69 0 123.5 -27t88.5 -69l-78 -78q-30 34 -62.5 50.5t-74.5 16.5
q-52 0 -81.5 -21t-29.5 -59q0 -32 18 -51.5t47.5 -33t65 -25.5t71 -27t65 -38.5t47.5 -60.5t18 -93q0 -94 -66.5 -149t-179.5 -55zM426 972l50 -50l-136 -155h-83l-136 155l50 50l164 -133l-74 1z" />
    <glyph glyph-name="scaron" unicode="&#x161;" horiz-adv-x="430" 
d="M218 -10q-40 0 -77 10.5t-68 30t-54 47.5l70 70q25 -29 57.5 -43.5t73.5 -14.5q37 0 56 11t19 32q0 22 -18 34t-46.5 20.5t-60 17.5t-60 24.5t-46.5 42.5t-18 70q0 46 21.5 79t61 51t94.5 18q58 0 102.5 -20.5t74.5 -61.5l-70 -70q-21 26 -48 39t-62 13q-33 0 -51 -10
t-18 -29q0 -20 18 -31t46.5 -19t60 -17.5t60 -26t46.5 -44t18 -71.5q0 -70 -49 -111t-133 -41zM350 752l50 -50l-136 -155h-83l-136 155l50 50l164 -133l-74 1z" />
    <glyph glyph-name="Tcaron" unicode="&#x164;" horiz-adv-x="619" 
d="M252 0v680h115v-680h-115zM24 595v105h571v-105h-571zM437 972l50 -50l-136 -155h-83l-136 155l50 50l164 -133l-74 1z" />
    <glyph glyph-name="tcaron" unicode="&#x165;" horiz-adv-x="483" 
d="M134 0v680h110v-680h-110zM19 380v100h340v-100h-340zM329 508l-61 33l68 127l37 10q-6 -12 -14 -20t-19 -8q-23 0 -42.5 19.5t-19.5 49.5q0 32 21.5 54.5t53.5 22.5q30 0 52.5 -22.5t22.5 -54.5q0 -13 -5.5 -30.5t-19.5 -44.5z" />
    <glyph glyph-name="Umacron" unicode="&#x16a;" horiz-adv-x="690" 
d="M346 -10q-79 0 -142 36t-99.5 98.5t-36.5 141.5v434h115v-433q0 -51 21.5 -88.5t58.5 -58t83 -20.5q47 0 83 20.5t57 58t21 87.5v434h115v-435q0 -79 -36 -141t-98 -98t-142 -36zM157 888h376v-90h-376v90z" />
    <glyph glyph-name="umacron" unicode="&#x16b;" horiz-adv-x="517" 
d="M258 -10q-61 0 -108.5 27t-74 74.5t-26.5 109.5v279h110v-274q0 -35 11.5 -59.5t34 -37.5t53.5 -13q48 0 73.5 28.5t25.5 81.5v274h110v-279q0 -63 -26.5 -110.5t-73.5 -74t-109 -26.5zM71 668h376v-90h-376v90z" />
    <glyph glyph-name="Ubreve" unicode="&#x16c;" horiz-adv-x="690" 
d="M346 -10q-79 0 -142 36t-99.5 98.5t-36.5 141.5v434h115v-433q0 -51 21.5 -88.5t58.5 -58t83 -20.5q47 0 83 20.5t57 58t21 87.5v434h115v-435q0 -79 -36 -141t-98 -98t-142 -36zM522 932q0 -49 -23 -88.5t-62.5 -63t-90.5 -23.5t-91.5 23.5t-64 63t-23.5 88.5h100
q0 -34 21.5 -57t57.5 -23q22 0 39.5 10.5t27.5 29t10 40.5h99z" />
    <glyph glyph-name="ubreve" unicode="&#x16d;" horiz-adv-x="517" 
d="M258 -10q-61 0 -108.5 27t-74 74.5t-26.5 109.5v279h110v-274q0 -35 11.5 -59.5t34 -37.5t53.5 -13q48 0 73.5 28.5t25.5 81.5v274h110v-279q0 -63 -26.5 -110.5t-73.5 -74t-109 -26.5zM436 712q0 -49 -23 -88.5t-62.5 -63t-90.5 -23.5t-91.5 23.5t-64 63t-23.5 88.5h100
q0 -34 21.5 -57t57.5 -23q22 0 39.5 10.5t27.5 29t10 40.5h99z" />
    <glyph glyph-name="Uring" unicode="&#x16e;" horiz-adv-x="690" 
d="M346 -10q-79 0 -142 36t-99.5 98.5t-36.5 141.5v434h115v-433q0 -51 21.5 -88.5t58.5 -58t83 -20.5q47 0 83 20.5t57 58t21 87.5v434h115v-435q0 -79 -36 -141t-98 -98t-142 -36zM346 757q-37 0 -65.5 16.5t-45 44.5t-16.5 63t16.5 63t45 44.5t65.5 16.5q36 0 64 -16.5
t44 -44.5t16 -63t-16 -63t-44 -44.5t-64 -16.5zM346 835q18 0 31 13.5t13 32.5q0 20 -13 33t-31 13q-21 0 -33.5 -13t-12.5 -33q0 -19 12.5 -32.5t33.5 -13.5z" />
    <glyph glyph-name="uring" unicode="&#x16f;" horiz-adv-x="517" 
d="M258 -10q-61 0 -108.5 27t-74 74.5t-26.5 109.5v279h110v-274q0 -35 11.5 -59.5t34 -37.5t53.5 -13q48 0 73.5 28.5t25.5 81.5v274h110v-279q0 -63 -26.5 -110.5t-73.5 -74t-109 -26.5zM260 537q-37 0 -65.5 16.5t-45 44.5t-16.5 63t16.5 63t45 44.5t65.5 16.5
q36 0 64 -16.5t44 -44.5t16 -63t-16 -63t-44 -44.5t-64 -16.5zM260 615q18 0 31 13.5t13 32.5q0 20 -13 33t-31 13q-21 0 -33.5 -13t-12.5 -33q0 -19 12.5 -32.5t33.5 -13.5z" />
    <glyph glyph-name="Uhungarumlaut" unicode="&#x170;" horiz-adv-x="690" 
d="M346 -10q-79 0 -142 36t-99.5 98.5t-36.5 141.5v434h115v-433q0 -51 21.5 -88.5t58.5 -58t83 -20.5q47 0 83 20.5t57 58t21 87.5v434h115v-435q0 -79 -36 -141t-98 -98t-142 -36zM239 776l-67 24l47 202l113 -42zM429 776l-67 24l47 202l113 -42z" />
    <glyph glyph-name="uhungarumlaut" unicode="&#x171;" horiz-adv-x="517" 
d="M258 -10q-61 0 -108.5 27t-74 74.5t-26.5 109.5v279h110v-274q0 -35 11.5 -59.5t34 -37.5t53.5 -13q48 0 73.5 28.5t25.5 81.5v274h110v-279q0 -63 -26.5 -110.5t-73.5 -74t-109 -26.5zM153 556l-67 24l47 202l113 -42zM343 556l-67 24l47 202l113 -42z" />
    <glyph glyph-name="Uogonek" unicode="&#x172;" horiz-adv-x="690" 
d="M346 -10q-79 0 -142 36t-99.5 98.5t-36.5 141.5v434h115v-433q0 -51 21.5 -88.5t58.5 -58t83 -20.5q47 0 83 20.5t57 58t21 87.5v434h115v-435q0 -79 -36 -141t-98 -98t-142 -36zM399 -200q-43 0 -77 20.5t-34 71.5q0 42 26 77t81 61l58 -20q-36 -20 -58.5 -45t-22.5 -56
q0 -17 10 -27.5t30 -10.5q15 0 26.5 5t19.5 9l28 -61q-14 -8 -34.5 -16t-52.5 -8z" />
    <glyph glyph-name="uogonek" unicode="&#x173;" horiz-adv-x="517" 
d="M258 -10q-61 0 -108.5 27t-74 74.5t-26.5 109.5v279h110v-274q0 -35 11.5 -59.5t34 -37.5t53.5 -13q48 0 73.5 28.5t25.5 81.5v274h110v-279q0 -63 -26.5 -110.5t-73.5 -74t-109 -26.5zM299 -200q-43 0 -77 20.5t-34 71.5q0 42 26 77t81 61l58 -20q-36 -20 -58.5 -45
t-22.5 -56q0 -17 10 -27.5t30 -10.5q15 0 26.5 5t19.5 9l28 -61q-14 -8 -34.5 -16t-52.5 -8z" />
    <glyph glyph-name="Wcircumflex" unicode="&#x174;" horiz-adv-x="982" 
d="M256 0l-230 700h113l173 -539h-30l169 539h80l169 -539h-30l173 539h113l-230 -700h-80l-170 538h30l-170 -538h-80zM363 767l-50 50l136 155h83l136 -155l-50 -50l-164 133l74 -1z" />
    <glyph glyph-name="wcircumflex" unicode="&#x175;" horiz-adv-x="754" 
d="M201 0l-193 480h114l130 -349l-34 -1l127 350h64l127 -350l-34 1l130 349h114l-193 -480h-64l-130 332h36l-130 -332h-64zM249 547l-50 50l136 155h83l136 -155l-50 -50l-164 133l74 -1z" />
    <glyph glyph-name="Ycircumflex" unicode="&#x176;" horiz-adv-x="672" 
d="M295 280l-273 420h133l213 -335h-62l213 335h131l-275 -420h-80zM279 0v352h115v-352h-115zM208 767l-50 50l136 155h83l136 -155l-50 -50l-164 133l74 -1z" />
    <glyph glyph-name="ycircumflex" unicode="&#x177;" horiz-adv-x="518" 
d="M216 -5l-205 485h121l140 -356h-35l148 356h122l-223 -485h-68zM73 -200l149 307l62 -112l-89 -195h-122zM131 547l-50 50l136 155h83l136 -155l-50 -50l-164 133l74 -1z" />
    <glyph glyph-name="Ydieresis" unicode="&#x178;" horiz-adv-x="672" 
d="M295 280l-273 420h133l213 -335h-62l213 335h131l-275 -420h-80zM279 0v352h115v-352h-115zM231 778q-28 0 -46.5 19t-18.5 47t18.5 47t46.5 19q29 0 47 -19t18 -47t-18 -47t-47 -19zM441 778q-28 0 -46.5 19t-18.5 47t18.5 47t46.5 19q29 0 47 -19t18 -47t-18 -47
t-47 -19z" />
    <glyph glyph-name="Zacute" unicode="&#x179;" horiz-adv-x="589" 
d="M34 80l382 540h135l-382 -540h-135zM34 0v80l99 25h410v-105h-509zM57 595v105h494v-80l-100 -25h-394zM234 769l-50 50l128 163l85 -85z" />
    <glyph glyph-name="zacute" unicode="&#x17a;" horiz-adv-x="451" 
d="M25 60l268 360h129l-268 -360h-129zM25 0v60l100 40h291v-100h-391zM43 380v100h379v-60l-100 -40h-279zM184 549l-50 50l128 163l85 -85z" />
    <glyph glyph-name="Zdotaccent" unicode="&#x17b;" horiz-adv-x="589" 
d="M34 80l382 540h135l-382 -540h-135zM34 0v80l99 25h410v-105h-509zM57 595v105h494v-80l-100 -25h-394zM291 778q-28 0 -46.5 19t-18.5 47t18.5 47t46.5 19q29 0 47 -19t18 -47t-18 -47t-47 -19z" />
    <glyph glyph-name="zdotaccent" unicode="&#x17c;" horiz-adv-x="451" 
d="M25 60l268 360h129l-268 -360h-129zM25 0v60l100 40h291v-100h-391zM43 380v100h379v-60l-100 -40h-279zM241 558q-28 0 -46.5 19t-18.5 47t18.5 47t46.5 19q29 0 47 -19t18 -47t-18 -47t-47 -19z" />
    <glyph glyph-name="Zcaron" unicode="&#x17d;" horiz-adv-x="589" 
d="M34 80l382 540h135l-382 -540h-135zM34 0v80l99 25h410v-105h-509zM57 595v105h494v-80l-100 -25h-394zM418 972l50 -50l-136 -155h-83l-136 155l50 50l164 -133l-74 1z" />
    <glyph glyph-name="zcaron" unicode="&#x17e;" horiz-adv-x="451" 
d="M25 60l268 360h129l-268 -360h-129zM25 0v60l100 40h291v-100h-391zM43 380v100h379v-60l-100 -40h-279zM368 752l50 -50l-136 -155h-83l-136 155l50 50l164 -133l-74 1z" />
    <glyph glyph-name="uni01CD" unicode="&#x1cd;" horiz-adv-x="702" 
d="M24 0l288 700h80l286 -700h-124l-224 567h42l-226 -567h-122zM166 135v100h371v-100h-371zM478 972l50 -50l-136 -155h-83l-136 155l50 50l164 -133l-74 1z" />
    <glyph glyph-name="uni01CE" unicode="&#x1ce;" horiz-adv-x="580" 
d="M262 -10q-65 0 -117.5 33t-83 89.5t-30.5 126.5q0 71 30.5 127.5t83 90t117.5 33.5q55 0 97.5 -23.5t67.5 -64.5t25 -93v-138q0 -52 -24.5 -93t-67.5 -64.5t-98 -23.5zM280 94q61 0 98.5 41t37.5 105q0 43 -17 76t-47.5 51.5t-71.5 18.5q-40 0 -70.5 -18.5t-48 -51.5
t-17.5 -76t17.5 -76t48 -51.5t70.5 -18.5zM409 0v129l19 117l-19 116v118h110v-480h-110zM417 752l50 -50l-136 -155h-83l-136 155l50 50l164 -133l-74 1z" />
    <glyph glyph-name="uni0218" unicode="&#x218;" horiz-adv-x="556" 
d="M271 -10q-83 0 -141 30t-104 88l78 78q29 -42 69 -65.5t102 -23.5q58 0 92.5 24t34.5 66q0 35 -18 57t-47.5 36.5t-65 26t-71 26t-65 36.5t-47.5 57t-18 89q0 62 30.5 105.5t82.5 66.5t116 23q69 0 123.5 -27t88.5 -69l-78 -78q-30 34 -62.5 50.5t-74.5 16.5
q-52 0 -81.5 -21t-29.5 -59q0 -32 18 -51.5t47.5 -33t65 -25.5t71 -27t65 -38.5t47.5 -60.5t18 -93q0 -94 -66.5 -149t-179.5 -55zM256 -366l-61 33l68 127l37 10q-6 -12 -14 -20t-19 -8q-23 0 -42.5 19.5t-19.5 49.5q0 32 21.5 54.5t53.5 22.5q30 0 52.5 -22.5t22.5 -54.5
q0 -13 -5.5 -30.5t-19.5 -44.5z" />
    <glyph glyph-name="uni0219" unicode="&#x219;" horiz-adv-x="430" 
d="M218 -10q-40 0 -77 10.5t-68 30t-54 47.5l70 70q25 -29 57.5 -43.5t73.5 -14.5q37 0 56 11t19 32q0 22 -18 34t-46.5 20.5t-60 17.5t-60 24.5t-46.5 42.5t-18 70q0 46 21.5 79t61 51t94.5 18q58 0 102.5 -20.5t74.5 -61.5l-70 -70q-21 26 -48 39t-62 13q-33 0 -51 -10
t-18 -29q0 -20 18 -31t46.5 -19t60 -17.5t60 -26t46.5 -44t18 -71.5q0 -70 -49 -111t-133 -41zM204 -366l-61 33l68 127l37 10q-6 -12 -14 -20t-19 -8q-23 0 -42.5 19.5t-19.5 49.5q0 32 21.5 54.5t53.5 22.5q30 0 52.5 -22.5t22.5 -54.5q0 -13 -5.5 -30.5t-19.5 -44.5z" />
    <glyph glyph-name="uni021A" unicode="&#x21a;" horiz-adv-x="619" 
d="M252 0v680h115v-680h-115zM24 595v105h571v-105h-571zM291 -366l-61 33l68 127l37 10q-6 -12 -14 -20t-19 -8q-23 0 -42.5 19.5t-19.5 49.5q0 32 21.5 54.5t53.5 22.5q30 0 52.5 -22.5t22.5 -54.5q0 -13 -5.5 -30.5t-19.5 -44.5z" />
    <glyph glyph-name="uni021B" unicode="&#x21b;" horiz-adv-x="378" 
d="M134 0v680h110v-680h-110zM19 380v100h340v-100h-340zM170 -366l-61 33l68 127l37 10q-6 -12 -14 -20t-19 -8q-23 0 -42.5 19.5t-19.5 49.5q0 32 21.5 54.5t53.5 22.5q30 0 52.5 -22.5t22.5 -54.5q0 -13 -5.5 -30.5t-19.5 -44.5z" />
    <glyph glyph-name="uni0237" unicode="&#x237;" horiz-adv-x="242" 
d="M13 -210q-51 0 -83.5 16t-59.5 47l71 71q12 -16 27 -23.5t37 -7.5q27 0 46.5 16.5t19.5 48.5v522h110v-521q0 -55 -23.5 -92.5t-61.5 -57t-83 -19.5z" />
    <glyph glyph-name="apostrophe" unicode="&#x2bc;" horiz-adv-x="260" 
d="M38 475l83 127l42 10q-6 -12 -14 -20t-19 -8q-23 0 -42.5 19.5t-19.5 49.5q0 32 21.5 54.5t54.5 22.5q32 0 53 -21.5t21 -53.5q0 -14 -6.5 -32.5t-23.5 -44.5l-89 -136z" />
    <glyph glyph-name="circumflex" unicode="&#x2c6;" horiz-adv-x="435" 
d="M90 547l-50 50l136 155h83l136 -155l-50 -50l-164 133l74 -1z" />
    <glyph glyph-name="caron" unicode="&#x2c7;" horiz-adv-x="435" 
d="M345 752l50 -50l-136 -155h-83l-136 155l50 50l164 -133l-74 1z" />
    <glyph glyph-name="breve" unicode="&#x2d8;" horiz-adv-x="435" 
d="M395 712q0 -49 -23 -88.5t-62.5 -63t-90.5 -23.5t-91.5 23.5t-64 63t-23.5 88.5h100q0 -34 21.5 -57t57.5 -23q22 0 39.5 10.5t27.5 29t10 40.5h99z" />
    <glyph glyph-name="dotaccent" unicode="&#x2d9;" horiz-adv-x="310" 
d="M155 558q-28 0 -46.5 19t-18.5 47t18.5 47t46.5 19q29 0 47 -19t18 -47t-18 -47t-47 -19z" />
    <glyph glyph-name="ring" unicode="&#x2da;" horiz-adv-x="331" 
d="M167 537q-37 0 -65.5 16.5t-45 44.5t-16.5 63t16.5 63t45 44.5t65.5 16.5q36 0 64 -16.5t44 -44.5t16 -63t-16 -63t-44 -44.5t-64 -16.5zM167 615q18 0 31 13.5t13 32.5q0 20 -13 33t-31 13q-21 0 -33.5 -13t-12.5 -33q0 -19 12.5 -32.5t33.5 -13.5z" />
    <glyph glyph-name="ogonek" unicode="&#x2db;" horiz-adv-x="278" 
d="M151 -210q-43 0 -77 20.5t-34 71.5q0 42 26 77t81 61l58 -20q-36 -20 -58.5 -45t-22.5 -56q0 -17 10 -27.5t30 -10.5q15 0 26.5 5t19.5 9l28 -61q-14 -8 -34.5 -16t-52.5 -8z" />
    <glyph glyph-name="tilde" unicode="&#x2dc;" horiz-adv-x="476" 
d="M310 549q-33 0 -56 12t-42.5 23.5t-43.5 11.5q-25 0 -40 -9t-29 -27l-59 59q29 33 58 52.5t68 19.5q33 0 56 -11.5t43 -23.5t43 -12q26 0 41 9t28 27l59 -59q-29 -33 -58 -52.5t-68 -19.5z" />
    <glyph glyph-name="hungarumlaut" unicode="&#x2dd;" horiz-adv-x="430" 
d="M107 536l-67 24l47 202l113 -42zM297 536l-67 24l47 202l113 -42z" />
    <glyph glyph-name="gravecomb" unicode="&#x300;" horiz-adv-x="0" 
d="M203 539l-163 128l85 85l128 -163z" />
    <glyph glyph-name="acutecomb" unicode="&#x301;" horiz-adv-x="0" 
d="M90 549l-50 50l128 163l85 -85z" />
    <glyph glyph-name="uni0302" unicode="&#x302;" horiz-adv-x="0" 
d="M90 547l-50 50l136 155h83l136 -155l-50 -50l-164 133l74 -1z" />
    <glyph glyph-name="tildecomb" unicode="&#x303;" horiz-adv-x="0" 
d="M310 549q-33 0 -56 12t-42.5 23.5t-43.5 11.5q-25 0 -40 -9t-29 -27l-59 59q29 33 58 52.5t68 19.5q33 0 56 -11.5t43 -23.5t43 -12q26 0 41 9t28 27l59 -59q-29 -33 -58 -52.5t-68 -19.5z" />
    <glyph glyph-name="uni0304" unicode="&#x304;" horiz-adv-x="0" 
d="M40 668h376v-90h-376v90z" />
    <glyph glyph-name="uni0306" unicode="&#x306;" horiz-adv-x="0" 
d="M395 712q0 -49 -23 -88.5t-62.5 -63t-90.5 -23.5t-91.5 23.5t-64 63t-23.5 88.5h100q0 -34 21.5 -57t57.5 -23q22 0 39.5 10.5t27.5 29t10 40.5h99z" />
    <glyph glyph-name="uni0307" unicode="&#x307;" horiz-adv-x="0" 
d="M155 558q-28 0 -46.5 19t-18.5 47t18.5 47t46.5 19q29 0 47 -19t18 -47t-18 -47t-47 -19z" />
    <glyph glyph-name="uni0308" unicode="&#x308;" horiz-adv-x="0" 
d="M125 558q-28 0 -46.5 19t-18.5 47t18.5 47t46.5 19q29 0 47 -19t18 -47t-18 -47t-47 -19zM335 558q-28 0 -46.5 19t-18.5 47t18.5 47t46.5 19q29 0 47 -19t18 -47t-18 -47t-47 -19z" />
    <glyph glyph-name="uni030A" unicode="&#x30a;" horiz-adv-x="0" 
d="M167 537q-37 0 -65.5 16.5t-45 44.5t-16.5 63t16.5 63t45 44.5t65.5 16.5q36 0 64 -16.5t44 -44.5t16 -63t-16 -63t-44 -44.5t-64 -16.5zM167 615q18 0 31 13.5t13 32.5q0 20 -13 33t-31 13q-21 0 -33.5 -13t-12.5 -33q0 -19 12.5 -32.5t33.5 -13.5z" />
    <glyph glyph-name="uni030B" unicode="&#x30b;" horiz-adv-x="0" 
d="M107 536l-67 24l47 202l113 -42zM297 536l-67 24l47 202l113 -42z" />
    <glyph glyph-name="uni030C" unicode="&#x30c;" horiz-adv-x="0" 
d="M345 752l50 -50l-136 -155h-83l-136 155l50 50l164 -133l-74 1z" />
    <glyph glyph-name="uni0312" unicode="&#x312;" horiz-adv-x="0" 
d="M200 772l-68 -127l-37 -10q6 12 14.5 20t18.5 8q23 0 42.5 -19.5t19.5 -49.5q0 -31 -21.5 -54t-53.5 -23q-30 0 -52.5 22.5t-22.5 54.5q0 13 5.5 30.5t19.5 44.5l74 136z" />
    <glyph glyph-name="uni0326" unicode="&#x326;" horiz-adv-x="0" 
d="M101 -366l-61 33l68 127l37 10q-6 -12 -14 -20t-19 -8q-23 0 -42.5 19.5t-19.5 49.5q0 32 21.5 54.5t53.5 22.5q30 0 52.5 -22.5t22.5 -54.5q0 -13 -5.5 -30.5t-19.5 -44.5z" />
    <glyph glyph-name="uni0327" unicode="&#x327;" horiz-adv-x="0" 
d="M128 -210q-37 0 -65 9t-54 26l45 57q11 -10 27 -16.5t39 -6.5q26 0 37.5 7t11.5 17q0 11 -10.5 19.5t-33.5 8.5h-52l33 103h80l-24 -72l-40 30q62 2 100 -24.5t38 -66.5q0 -39 -36.5 -65t-95.5 -26z" />
    <glyph glyph-name="uni0328" unicode="&#x328;" horiz-adv-x="0" 
d="M151 -210q-43 0 -77 20.5t-34 71.5q0 42 26 77t81 61l58 -20q-36 -20 -58.5 -45t-22.5 -56q0 -17 10 -27.5t30 -10.5q15 0 26.5 5t19.5 9l28 -61q-14 -8 -34.5 -16t-52.5 -8z" />
    <glyph glyph-name="Wgrave" unicode="&#x1e80;" horiz-adv-x="982" 
d="M256 0l-230 700h113l173 -539h-30l169 539h80l169 -539h-30l173 539h113l-230 -700h-80l-170 538h30l-170 -538h-80zM531 759l-163 128l85 85l128 -163z" />
    <glyph glyph-name="wgrave" unicode="&#x1e81;" horiz-adv-x="754" 
d="M201 0l-193 480h114l130 -349l-34 -1l127 350h64l127 -350l-34 1l130 349h114l-193 -480h-64l-130 332h36l-130 -332h-64zM417 539l-163 128l85 85l128 -163z" />
    <glyph glyph-name="Wacute" unicode="&#x1e82;" horiz-adv-x="982" 
d="M256 0l-230 700h113l173 -539h-30l169 539h80l169 -539h-30l173 539h113l-230 -700h-80l-170 538h30l-170 -538h-80zM434 769l-50 50l128 163l85 -85z" />
    <glyph glyph-name="wacute" unicode="&#x1e83;" horiz-adv-x="754" 
d="M201 0l-193 480h114l130 -349l-34 -1l127 350h64l127 -350l-34 1l130 349h114l-193 -480h-64l-130 332h36l-130 -332h-64zM320 549l-50 50l128 163l85 -85z" />
    <glyph glyph-name="Wdieresis" unicode="&#x1e84;" horiz-adv-x="982" 
d="M256 0l-230 700h113l173 -539h-30l169 539h80l169 -539h-30l173 539h113l-230 -700h-80l-170 538h30l-170 -538h-80zM386 778q-28 0 -46.5 19t-18.5 47t18.5 47t46.5 19q29 0 47 -19t18 -47t-18 -47t-47 -19zM596 778q-28 0 -46.5 19t-18.5 47t18.5 47t46.5 19
q29 0 47 -19t18 -47t-18 -47t-47 -19z" />
    <glyph glyph-name="wdieresis" unicode="&#x1e85;" horiz-adv-x="754" 
d="M201 0l-193 480h114l130 -349l-34 -1l127 350h64l127 -350l-34 1l130 349h114l-193 -480h-64l-130 332h36l-130 -332h-64zM272 558q-28 0 -46.5 19t-18.5 47t18.5 47t46.5 19q29 0 47 -19t18 -47t-18 -47t-47 -19zM482 558q-28 0 -46.5 19t-18.5 47t18.5 47t46.5 19
q29 0 47 -19t18 -47t-18 -47t-47 -19z" />
    <glyph glyph-name="uni1E9E" unicode="&#x1e9e;" horiz-adv-x="718" 
d="M344 409l182 201l109 -29l-161 -175l-130 -65v68zM423 -12q-59 0 -91.5 9t-52.5 25v144q21 -32 59 -51t83 -19q43 0 74 16t48.5 45t17.5 67q0 40 -17.5 68t-50 43.5t-78.5 15.5q-18 0 -37 -2.5t-34 -7.5l51 66q21 8 44.5 13.5t45.5 5.5q54 0 97.5 -26t69 -72.5
t25.5 -109.5q0 -68 -32 -120t-89 -81t-133 -29zM372 724q48 0 95 -10t85 -23.5t60.5 -23.5l22.5 -10v-76l-20 4.5t-52 11.5t-68 14t-68.5 11.5t-53.5 4.5q-57 0 -99 -20.5t-65 -54.5t-23 -74v-478h-110v486q0 75 41 128t108.5 81.5t146.5 28.5z" />
    <glyph glyph-name="Ygrave" unicode="&#x1ef2;" horiz-adv-x="672" 
d="M295 280l-273 420h133l213 -335h-62l213 335h131l-275 -420h-80zM279 0v352h115v-352h-115zM376 759l-163 128l85 85l128 -163z" />
    <glyph glyph-name="ygrave" unicode="&#x1ef3;" horiz-adv-x="518" 
d="M216 -5l-205 485h121l140 -356h-35l148 356h122l-223 -485h-68zM73 -200l149 307l62 -112l-89 -195h-122zM299 539l-163 128l85 85l128 -163z" />
    <glyph glyph-name="endash" unicode="&#x2013;" horiz-adv-x="553" 
d="M61 208v94h431v-94h-431z" />
    <glyph glyph-name="emdash" unicode="&#x2014;" horiz-adv-x="861" 
d="M61 210v90h731v-90h-731z" />
    <glyph glyph-name="quoteleft" unicode="&#x2018;" horiz-adv-x="251" 
d="M203 696l-68 -127l-37 -10q6 12 14.5 20t18.5 8q23 0 42.5 -19.5t19.5 -49.5q0 -31 -22 -54t-53 -23q-30 0 -52.5 22.5t-22.5 54.5q0 13 5.5 30.5t19.5 44.5l74 136z" />
    <glyph glyph-name="quoteright" unicode="&#x2019;" horiz-adv-x="252" 
d="M49 455l68 127l37 10q-6 -12 -14 -20t-19 -8q-23 0 -42.5 19.5t-19.5 49.5q0 32 22 54.5t53 22.5q30 0 52.5 -22.5t22.5 -54.5q0 -13 -5.5 -30.5t-19.5 -44.5l-74 -136z" />
    <glyph glyph-name="quotesinglbase" unicode="&#x201a;" horiz-adv-x="276" 
d="M61 -117l68 127l37 10q-6 -12 -14 -20t-19 -8q-23 0 -42.5 19.5t-19.5 49.5q0 32 21.5 54.5t53.5 22.5q30 0 52.5 -22.5t22.5 -54.5q0 -13 -5.5 -30.5t-19.5 -44.5l-74 -136z" />
    <glyph glyph-name="quotedblleft" unicode="&#x201c;" horiz-adv-x="455" 
d="M203 696l-68 -127l-37 -10q6 12 14.5 20t18.5 8q23 0 42.5 -19.5t19.5 -49.5q0 -31 -22 -54t-53 -23q-30 0 -52.5 22.5t-22.5 54.5q0 13 5.5 30.5t19.5 44.5l74 136zM407 696l-68 -127l-37 -10q6 12 14.5 20t18.5 8q23 0 42.5 -19.5t19.5 -49.5q0 -31 -22 -54t-53 -23
q-30 0 -52.5 22.5t-22.5 54.5q0 13 5.5 30.5t19.5 44.5l74 136z" />
    <glyph glyph-name="quotedblright" unicode="&#x201d;" horiz-adv-x="456" 
d="M253 455l68 127l37 10q-6 -12 -14 -20t-19 -8q-23 0 -42.5 19.5t-19.5 49.5q0 32 22 54.5t53 22.5q30 0 52.5 -22.5t22.5 -54.5q0 -13 -5.5 -30.5t-19.5 -44.5l-74 -136zM49 455l68 127l37 10q-6 -12 -14 -20t-19 -8q-23 0 -42.5 19.5t-19.5 49.5q0 32 22 54.5t53 22.5
q30 0 52.5 -22.5t22.5 -54.5q0 -13 -5.5 -30.5t-19.5 -44.5l-74 -136z" />
    <glyph glyph-name="quotedblbase" unicode="&#x201e;" horiz-adv-x="480" 
d="M265 -117l68 127l37 10q-6 -12 -14 -20t-19 -8q-23 0 -42.5 19.5t-19.5 49.5q0 32 22 54.5t53 22.5q30 0 52.5 -22.5t22.5 -54.5q0 -13 -5.5 -30.5t-19.5 -44.5l-74 -136zM61 -117l68 127l37 10q-6 -12 -14 -20t-19 -8q-23 0 -42.5 19.5t-19.5 49.5q0 32 22 54.5t53 22.5
q30 0 52.5 -22.5t22.5 -54.5q0 -13 -5.5 -30.5t-19.5 -44.5l-74 -136z" />
    <glyph glyph-name="bullet" unicode="&#x2022;" horiz-adv-x="342" 
d="M171 262q-31 0 -55 14t-37.5 38.5t-13.5 53.5t13.5 53t37.5 38.5t55 14.5t54.5 -14.5t37 -38.5t13.5 -53t-13.5 -53.5t-37 -38.5t-54.5 -14z" />
    <glyph glyph-name="ellipsis" unicode="&#x2026;" horiz-adv-x="770" 
d="M385 -10q-32 0 -52.5 21.5t-20.5 52.5q0 32 20.5 53t52.5 21t52.5 -21t20.5 -53q0 -31 -20.5 -52.5t-52.5 -21.5zM625 -10q-32 0 -52.5 21.5t-20.5 52.5q0 32 20.5 53t52.5 21t52.5 -21t20.5 -53q0 -31 -20.5 -52.5t-52.5 -21.5zM145 -10q-32 0 -52.5 21.5t-20.5 52.5
q0 32 20.5 53t52.5 21t52.5 -21t20.5 -53q0 -31 -20.5 -52.5t-52.5 -21.5z" />
    <glyph glyph-name="guilsinglleft" unicode="&#x2039;" horiz-adv-x="277" 
d="M136 81l-104 161l104 161h110l-109 -161l109 -161h-110z" />
    <glyph glyph-name="guilsinglright" unicode="&#x203a;" horiz-adv-x="277" 
d="M31 81l109 161l-109 161h110l104 -161l-104 -161h-110z" />
    <glyph glyph-name="fraction" unicode="&#x2044;" horiz-adv-x="683" 
d="M286 304l47 -45l-215 -275l-91 91zM384 400l-47 45l215 275l91 -91z" />
    <glyph glyph-name="uni2074" unicode="&#x2074;" horiz-adv-x="350" 
d="M28 464l107 236h106l-109 -236h-104zM28 411v53l27 29h267v-82h-294zM195 344v208h98v-208h-98z" />
    <glyph glyph-name="Euro" unicode="&#x20ac;" horiz-adv-x="720" 
d="M433 -10q-77 0 -140 27.5t-109 77t-70.5 115t-24.5 140.5t24.5 140.5t70.5 114.5t109 77t140 28q79 0 136.5 -28t105.5 -76l-78 -78q-31 36 -72 55.5t-97 19.5q-68 0 -118.5 -32t-78 -89t-27.5 -132t28 -132t79.5 -89t123.5 -32q55 0 95.5 20t71.5 56l78 -78
q-48 -49 -109 -77t-138 -28zM22 393v90h481l-29 -90h-452zM22 218v90h440l-29 -90h-411z" />
    <glyph glyph-name="uni2120" unicode="&#x2120;" horiz-adv-x="676" 
d="M147 314q-42 0 -71 15t-52 44l39 39q15 -21 35 -32.5t51 -11.5q29 0 46.5 12t17.5 33q0 17 -9 28t-24 18t-33 13t-35.5 13t-32.5 18.5t-24 29t-9 44.5q0 30 15.5 52t41.5 33.5t58 11.5q35 0 62 -13.5t44 -34.5l-39 -39q-15 17 -31.5 25.5t-37.5 8.5q-26 0 -40.5 -10.5
t-14.5 -29.5q0 -16 9 -26t23.5 -17t32.5 -12.5t36 -13.5t32.5 -19.5t23.5 -30t9 -46.5q0 -47 -33 -74.5t-90 -27.5zM305 319v350h40l147 -239h-27l147 239h40v-350h-58v249l13 -3l-108 -178h-41l-108 178l13 3v-249h-58z" />
    <glyph glyph-name="trademark" unicode="&#x2122;" horiz-adv-x="702" 
d="M138 319v340h58v-340h-58zM24 617v52h286v-52h-286zM331 319v350h40l147 -239h-27l147 239h40v-350h-58v249l13 -3l-108 -178h-41l-108 178l13 3v-249h-58z" />
    <glyph glyph-name="arrowleft" unicode="&#x2190;" horiz-adv-x="658" 
d="M155 286v104h477v-104h-477zM425 591l-253 -253l253 -253h-146l-253 253l253 253h146z" />
    <glyph glyph-name="arrowup" unicode="&#x2191;" horiz-adv-x="658" 
d="M277 512h104v-477h-104v477zM582 242l-253 253l-253 -253v146l253 253l253 -253v-146z" />
    <glyph glyph-name="arrowright" unicode="&#x2192;" horiz-adv-x="658" 
d="M503 390v-104h-477v104h477zM233 85l253 253l-253 253h146l253 -253l-253 -253h-146z" />
    <glyph glyph-name="arrowdown" unicode="&#x2193;" horiz-adv-x="658" 
d="M381 164h-104v477h104v-477zM76 434l253 -253l253 253v-146l-253 -253l-253 253v146z" />
    <glyph glyph-name="uni2196" unicode="&#x2196;" horiz-adv-x="658" 
d="M131 463l73 73l378 -377l-74 -74zM537 488h-358v-358l-103 103v358h358z" />
    <glyph glyph-name="uni2197" unicode="&#x2197;" horiz-adv-x="658" 
d="M454 536l73 -73l-377 -378l-74 74zM479 130v358h-358l103 103h358v-358z" />
    <glyph glyph-name="uni2198" unicode="&#x2198;" horiz-adv-x="658" 
d="M527 213l-73 -73l-378 377l74 74zM121 188h358v358l103 -103v-358h-358z" />
    <glyph glyph-name="uni2199" unicode="&#x2199;" horiz-adv-x="658" 
d="M204 140l-73 73l377 378l74 -74zM179 546v-358h358l-103 -103h-358v358z" />
    <glyph glyph-name="minus" unicode="&#x2212;" horiz-adv-x="547" 
d="M53 285v100h441v-100h-441z" />
    <glyph glyph-name="uni2215" unicode="&#x2215;" horiz-adv-x="401" 
d="M9 -40l280 780h103l-280 -780h-103z" />
    <glyph glyph-name="uni2713" unicode="&#x2713;" horiz-adv-x="799" 
d="M262 70l-243 243l70 70l231 -233l-48 -1l437 486l71 -71l-454 -494h-64z" />
    <glyph glyph-name="T_T" horiz-adv-x="1103" 
d="M252 0v680h115v-680h-115zM24 595v105h571v-105h-571zM736 0v680h115v-680h-115zM508 595v105h571v-105h-571z" />
    <glyph glyph-name="T_h" horiz-adv-x="1093" 
d="M252 0v680h115v-680h-115zM24 595v105h619v-105h-619zM932 0v277q0 48 -30.5 79t-78.5 31q-32 0 -57 -14t-39 -39t-14 -57l-43 24q0 55 24 97.5t66.5 67t95.5 24.5q54 0 96 -24t66 -66.5t24 -98.5v-301h-110zM603 0v700h110v-700h-110z" />
    <glyph glyph-name="T_l" horiz-adv-x="774" 
d="M252 0v680h115v-680h-115zM24 595v105h631v-105h-631zM603 0v700h110v-700h-110z" />
    <glyph glyph-name="ae.ss01" horiz-adv-x="899" 
d="M675 -10q-76 0 -134.5 33.5t-91.5 90.5t-33 127t33.5 126t91 89.5t129.5 33.5q74 0 125 -32.5t82 -91.5l-281 -282l-64 64l254 254l2 -81q-15 32 -42 50t-74 18q-45 0 -78.5 -19t-51.5 -52.5t-18 -76.5q0 -44 18 -77.5t52 -52t80 -18.5q41 0 73 13t54 38l70 -71
q-35 -41 -85.5 -62t-110.5 -21zM262 -10q-65 0 -117.5 33t-83 89.5t-30.5 126.5q0 71 30.5 127.5t83 90t117.5 33.5q55 0 97.5 -23.5t67.5 -64.5t25 -93v-138q0 -52 -24.5 -93t-67.5 -64.5t-98 -23.5zM280 94q61 0 98.5 41t37.5 105q0 43 -17 76t-47.5 51.5t-71.5 18.5
q-40 0 -70.5 -18.5t-48 -51.5t-17.5 -76t17.5 -76t48 -51.5t70.5 -18.5zM409 0v129l19 117l-19 116v118h110v-480h-110z" />
    <glyph glyph-name="e.ss01" horiz-adv-x="513" 
d="M289 -10q-76 0 -134.5 33.5t-91.5 90.5t-33 127t33.5 126t91 89.5t129.5 33.5q74 0 125 -32.5t82 -91.5l-281 -282l-64 64l254 254l2 -81q-15 32 -42 50t-74 18q-45 0 -78.5 -19t-51.5 -52.5t-18 -76.5q0 -44 18 -77.5t52 -52t80 -18.5q41 0 73 13t54 38l70 -71
q-35 -41 -85.5 -62t-110.5 -21z" />
    <glyph glyph-name="eacute.ss01" horiz-adv-x="513" 
d="M289 -10q-76 0 -134.5 33.5t-91.5 90.5t-33 127t33.5 126t91 89.5t129.5 33.5q74 0 125 -32.5t82 -91.5l-281 -282l-64 64l254 254l2 -81q-15 32 -42 50t-74 18q-45 0 -78.5 -19t-51.5 -52.5t-18 -76.5q0 -44 18 -77.5t52 -52t80 -18.5q41 0 73 13t54 38l70 -71
q-35 -41 -85.5 -62t-110.5 -21zM220 549l-50 50l128 163l85 -85z" />
    <glyph glyph-name="ecaron.ss01" horiz-adv-x="513" 
d="M289 -10q-76 0 -134.5 33.5t-91.5 90.5t-33 127t33.5 126t91 89.5t129.5 33.5q74 0 125 -32.5t82 -91.5l-281 -282l-64 64l254 254l2 -81q-15 32 -42 50t-74 18q-45 0 -78.5 -19t-51.5 -52.5t-18 -76.5q0 -44 18 -77.5t52 -52t80 -18.5q41 0 73 13t54 38l70 -71
q-35 -41 -85.5 -62t-110.5 -21zM404 752l50 -50l-136 -155h-83l-136 155l50 50l164 -133l-74 1z" />
    <glyph glyph-name="ecircumflex.ss01" horiz-adv-x="513" 
d="M289 -10q-76 0 -134.5 33.5t-91.5 90.5t-33 127t33.5 126t91 89.5t129.5 33.5q74 0 125 -32.5t82 -91.5l-281 -282l-64 64l254 254l2 -81q-15 32 -42 50t-74 18q-45 0 -78.5 -19t-51.5 -52.5t-18 -76.5q0 -44 18 -77.5t52 -52t80 -18.5q41 0 73 13t54 38l70 -71
q-35 -41 -85.5 -62t-110.5 -21zM149 547l-50 50l136 155h83l136 -155l-50 -50l-164 133l74 -1z" />
    <glyph glyph-name="edieresis.ss01" horiz-adv-x="513" 
d="M289 -10q-76 0 -134.5 33.5t-91.5 90.5t-33 127t33.5 126t91 89.5t129.5 33.5q74 0 125 -32.5t82 -91.5l-281 -282l-64 64l254 254l2 -81q-15 32 -42 50t-74 18q-45 0 -78.5 -19t-51.5 -52.5t-18 -76.5q0 -44 18 -77.5t52 -52t80 -18.5q41 0 73 13t54 38l70 -71
q-35 -41 -85.5 -62t-110.5 -21zM172 558q-28 0 -46.5 19t-18.5 47t18.5 47t46.5 19q29 0 47 -19t18 -47t-18 -47t-47 -19zM382 558q-28 0 -46.5 19t-18.5 47t18.5 47t46.5 19q29 0 47 -19t18 -47t-18 -47t-47 -19z" />
    <glyph glyph-name="edotaccent.ss01" horiz-adv-x="513" 
d="M289 -10q-76 0 -134.5 33.5t-91.5 90.5t-33 127t33.5 126t91 89.5t129.5 33.5q74 0 125 -32.5t82 -91.5l-281 -282l-64 64l254 254l2 -81q-15 32 -42 50t-74 18q-45 0 -78.5 -19t-51.5 -52.5t-18 -76.5q0 -44 18 -77.5t52 -52t80 -18.5q41 0 73 13t54 38l70 -71
q-35 -41 -85.5 -62t-110.5 -21zM277 558q-28 0 -46.5 19t-18.5 47t18.5 47t46.5 19q29 0 47 -19t18 -47t-18 -47t-47 -19z" />
    <glyph glyph-name="egrave.ss01" horiz-adv-x="513" 
d="M289 -10q-76 0 -134.5 33.5t-91.5 90.5t-33 127t33.5 126t91 89.5t129.5 33.5q74 0 125 -32.5t82 -91.5l-281 -282l-64 64l254 254l2 -81q-15 32 -42 50t-74 18q-45 0 -78.5 -19t-51.5 -52.5t-18 -76.5q0 -44 18 -77.5t52 -52t80 -18.5q41 0 73 13t54 38l70 -71
q-35 -41 -85.5 -62t-110.5 -21zM317 539l-163 128l85 85l128 -163z" />
    <glyph glyph-name="emacron.ss01" horiz-adv-x="513" 
d="M289 -10q-76 0 -134.5 33.5t-91.5 90.5t-33 127t33.5 126t91 89.5t129.5 33.5q74 0 125 -32.5t82 -91.5l-281 -282l-64 64l254 254l2 -81q-15 32 -42 50t-74 18q-45 0 -78.5 -19t-51.5 -52.5t-18 -76.5q0 -44 18 -77.5t52 -52t80 -18.5q41 0 73 13t54 38l70 -71
q-35 -41 -85.5 -62t-110.5 -21zM89 668h376v-90h-376v90z" />
    <glyph glyph-name="eogonek.ss01" horiz-adv-x="513" 
d="M289 -10q-76 0 -134.5 33.5t-91.5 90.5t-33 127t33.5 126t91 89.5t129.5 33.5q74 0 125 -32.5t82 -91.5l-281 -282l-64 64l254 254l2 -81q-15 32 -42 50t-74 18q-45 0 -78.5 -19t-51.5 -52.5t-18 -76.5q0 -44 18 -77.5t52 -52t80 -18.5q41 0 73 13t54 38l70 -71
q-35 -41 -85.5 -62t-110.5 -21zM342 -200q-43 0 -77 20.5t-34 71.5q0 42 26 77t81 61l58 -20q-36 -20 -58.5 -45t-22.5 -56q0 -17 10 -27.5t30 -10.5q15 0 26.5 5t19.5 9l28 -61q-14 -8 -34.5 -16t-52.5 -8z" />
    <glyph glyph-name="g.ss01" horiz-adv-x="514" 
d="M241 -210q-62 0 -113 23t-81 64t-30 95q0 41 11.5 67t34.5 47l88 -57q-10 -9 -15.5 -22t-5.5 -33q0 -35 30 -56.5t81 -21.5q55 0 85 25t30 71q0 29 -14 52t-39 36.5t-57 13.5q-56 0 -101 25.5t-71 70t-26 101.5q0 58 26.5 102.5t72 70.5t102.5 26t102.5 -25t72 -67.5
t26.5 -96.5t-25.5 -95.5t-69.5 -65t-101 -23.5l-6 59q65 0 114.5 -24.5t78 -67.5t28.5 -99q0 -58 -28 -102t-79 -68.5t-121 -24.5zM249 197q29 0 50.5 12t33.5 33.5t12 48.5q0 28 -12 49t-33.5 33t-50.5 12t-50.5 -12t-33.5 -33t-12 -49q0 -27 12 -48.5t34 -33.5t50 -12z
M387 360l-68 68l116 117l68 -68z" />
    <glyph glyph-name="k.ss01" horiz-adv-x="503" 
d="M406 -16l-243 261l242 251l73 -69l-210 -215l5 71l213 -226zM61 0v720h110v-720h-110z" />
    <glyph glyph-name="uni0137.ss01" horiz-adv-x="503" 
d="M406 -16l-243 261l242 251l73 -69l-210 -215l5 71l213 -226zM61 0v720h110v-720h-110zM250 -366l-61 33l68 127l37 10q-6 -12 -14 -20t-19 -8q-23 0 -42.5 19.5t-19.5 49.5q0 32 21.5 54.5t53.5 22.5q30 0 52.5 -22.5t22.5 -54.5q0 -13 -5.5 -30.5t-19.5 -44.5z" />
    <glyph glyph-name="m.ss01" horiz-adv-x="840" 
d="M49 0v279q0 62 27 109.5t75 74.5t111 27q62 0 106.5 -27.5t68.5 -74.5h-34q24 47 68.5 74.5t106.5 27.5q64 0 111.5 -27t74.5 -74.5t27 -109.5v-279h-110v264q0 58 -26.5 89t-76.5 31q-51 0 -77 -30.5t-26 -89.5v-264h-110v264q0 59 -26 89.5t-77 30.5q-50 0 -76.5 -30.5
t-26.5 -89.5v-264h-110z" />
    <glyph glyph-name="n.ss01" horiz-adv-x="526" 
d="M49 0v274q0 64 27 112.5t75 76t112 27.5q65 0 113 -27t74.5 -75.5t26.5 -113.5v-274h-110v266q0 53 -26 85.5t-78 32.5q-51 0 -77.5 -32.5t-26.5 -85.5v-266h-110z" />
    <glyph glyph-name="nacute.ss01" horiz-adv-x="526" 
d="M49 0v274q0 64 27 112.5t75 76t112 27.5q65 0 113 -27t74.5 -75.5t26.5 -113.5v-274h-110v266q0 53 -26 85.5t-78 32.5q-51 0 -77.5 -32.5t-26.5 -85.5v-266h-110zM207 549l-50 50l128 163l85 -85z" />
    <glyph glyph-name="ncaron.ss01" horiz-adv-x="526" 
d="M49 0v274q0 64 27 112.5t75 76t112 27.5q65 0 113 -27t74.5 -75.5t26.5 -113.5v-274h-110v266q0 53 -26 85.5t-78 32.5q-51 0 -77.5 -32.5t-26.5 -85.5v-266h-110zM391 752l50 -50l-136 -155h-83l-136 155l50 50l164 -133l-74 1z" />
    <glyph glyph-name="uni0146.ss01" horiz-adv-x="526" 
d="M49 0v274q0 64 27 112.5t75 76t112 27.5q65 0 113 -27t74.5 -75.5t26.5 -113.5v-274h-110v266q0 53 -26 85.5t-78 32.5q-51 0 -77.5 -32.5t-26.5 -85.5v-266h-110zM245 -366l-61 33l68 127l37 10q-6 -12 -14 -20t-19 -8q-23 0 -42.5 19.5t-19.5 49.5q0 32 21.5 54.5
t53.5 22.5q30 0 52.5 -22.5t22.5 -54.5q0 -13 -5.5 -30.5t-19.5 -44.5z" />
    <glyph glyph-name="ntilde.ss01" horiz-adv-x="526" 
d="M49 0v274q0 64 27 112.5t75 76t112 27.5q65 0 113 -27t74.5 -75.5t26.5 -113.5v-274h-110v266q0 53 -26 85.5t-78 32.5q-51 0 -77.5 -32.5t-26.5 -85.5v-266h-110zM336 549q-33 0 -56 12t-42.5 23.5t-43.5 11.5q-25 0 -40 -9t-29 -27l-59 59q29 33 58 52.5t68 19.5
q33 0 56 -11.5t43 -23.5t43 -12q26 0 41 9t28 27l59 -59q-29 -33 -58 -52.5t-68 -19.5z" />
    <glyph glyph-name="eng.ss01" horiz-adv-x="526" 
d="M309 -210q-51 0 -83.5 16t-59.5 47l71 71q12 -16 27 -23.5t37 -7.5q27 0 46.5 16.5t19.5 48.5v225h110v-224q0 -55 -23.5 -92.5t-61.5 -57t-83 -19.5zM49 0v274q0 64 27 112.5t75 76t112 27.5q65 0 113 -27t74.5 -75.5t26.5 -113.5v-274h-110v266q0 53 -26 85.5t-78 32.5
q-51 0 -77.5 -32.5t-26.5 -85.5v-266h-110z" />
    <glyph glyph-name="oe.ss01" horiz-adv-x="908" 
d="M281 -10q-70 0 -127 33.5t-90.5 90.5t-33.5 127t33.5 126t90.5 89.5t127 33.5q71 0 128 -33t90.5 -89.5t33.5 -126.5t-33.5 -127t-90.5 -90.5t-128 -33.5zM281 96q41 0 72.5 18.5t49 51.5t17.5 75t-18 74t-49 50.5t-72 18.5q-40 0 -71.5 -18.5t-49 -50.5t-17.5 -74
t17.5 -75t49 -51.5t71.5 -18.5zM684 -10q-76 0 -134.5 33.5t-91.5 90.5t-33 127t33.5 126t91 89.5t129.5 33.5q74 0 125 -32.5t82 -91.5l-281 -282l-64 64l254 254l2 -81q-15 32 -42 50t-74 18q-45 0 -78.5 -19t-51.5 -52.5t-18 -76.5q0 -44 18 -77.5t52 -52t80 -18.5
q41 0 73 13t54 38l70 -71q-35 -41 -85.5 -62t-110.5 -21z" />
    <glyph glyph-name="t.ss01" horiz-adv-x="460" 
d="M300 -10q-45 0 -82.5 19.5t-60.5 57t-23 92.5v521h110v-520q0 -34 19.5 -50.5t44.5 -16.5q22 0 38 7.5t29 21.5l66 -67q-27 -33 -59 -49t-82 -16zM19 377v103h398v-103h-398z" />
    <glyph glyph-name="tcaron.ss01" horiz-adv-x="460" 
d="M300 -10q-45 0 -82.5 19.5t-60.5 57t-23 92.5v521h110v-520q0 -34 19.5 -50.5t44.5 -16.5q22 0 38 7.5t29 21.5l66 -67q-27 -33 -59 -49t-82 -16zM19 377v103h398v-103h-398zM342 508l-61 33l68 127l37 10q-6 -12 -14 -20t-19 -8q-23 0 -42.5 19.5t-19.5 49.5
q0 32 21.5 54.5t53.5 22.5q30 0 52.5 -22.5t22.5 -54.5q0 -13 -5.5 -30.5t-19.5 -44.5z" />
    <glyph glyph-name="uni021B.ss01" horiz-adv-x="460" 
d="M300 -10q-45 0 -82.5 19.5t-60.5 57t-23 92.5v521h110v-520q0 -34 19.5 -50.5t44.5 -16.5q22 0 38 7.5t29 21.5l66 -67q-27 -33 -59 -49t-82 -16zM19 377v103h398v-103h-398zM249 -366l-61 33l68 127l37 10q-6 -12 -14 -20t-19 -8q-23 0 -42.5 19.5t-19.5 49.5
q0 32 21.5 54.5t53.5 22.5q30 0 52.5 -22.5t22.5 -54.5q0 -13 -5.5 -30.5t-19.5 -44.5z" />
    <glyph glyph-name="f_t" horiz-adv-x="661" 
d="M127 0v543q0 55 24.5 97t68 66t100.5 24v-103q-40 0 -61.5 -21.5t-21.5 -61.5v-544h-110zM12 380v100h630v-100h-630zM417 0v680h110v-680h-110z" />
    <glyph glyph-name="r_f" horiz-adv-x="699" 
d="M61 0v480h110v-480h-110zM423 0v543q0 55 24.5 97t68 66t100.5 24q44 0 75 -15t58 -43l-71 -71q-12 12 -26 19t-36 7q-40 0 -61.5 -21.5t-21.5 -61.5v-544h-110zM171 267l-38 19q0 91 43 142.5t140 51.5h362v-100h-381q-61 0 -93.5 -25.5t-32.5 -87.5z" />
    <glyph glyph-name="r_t" horiz-adv-x="671" 
d="M61 0v480h110v-480h-110zM171 267l-38 19q0 91 43 142.5t140 51.5h336v-100h-355q-61 0 -93.5 -25.5t-32.5 -87.5zM427 0v680h110v-680h-110z" />
    <glyph glyph-name="t_f" horiz-adv-x="700" 
d="M134 0v680h110v-680h-110zM19 380v100h660v-100h-660zM424 0v543q0 55 24.5 97t68 66t100.5 24q44 0 75 -15t58 -43l-71 -71q-12 12 -26 19t-36 7q-40 0 -61.5 -21.5t-21.5 -61.5v-544h-110z" />
    <glyph glyph-name="one.ss01" horiz-adv-x="366" 
d="M180 0v621l33 79h80v-700h-113zM84 444l-64 63l193 193l12 -115z" />
    <glyph glyph-name="zero.tf" 
d="M296 -10q-77 0 -140 44.5t-100.5 126t-37.5 190.5q0 110 37 190.5t100 124.5t139 44q77 0 140 -44t100.5 -124.5t37.5 -191.5q0 -110 -37 -191t-99.5 -125t-139.5 -44zM296 98q48 0 84 28t56 84t20 141q0 84 -20.5 140t-56.5 83.5t-84 27.5q-49 0 -85 -27.5t-56 -83
t-20 -140.5t20 -141t56.5 -84t85.5 -28z" />
    <glyph glyph-name="one.tf" 
d="M256 0v700h113v-700h-113zM79 597v103h276v-103h-276zM79 0v103h442v-103h-442z" />
    <glyph glyph-name="two.tf" 
d="M45 68l267 274q34 34 55 61t30.5 51t9.5 49q0 47 -32 73.5t-82 26.5t-90.5 -24t-72.5 -79l-81 66q42 71 104 107.5t144 36.5q67 0 117 -26t78 -72.5t28 -107.5q0 -45 -11 -79.5t-37 -68.5t-72 -80l-206 -205zM45 0v68l99 35h391v-103h-490z" />
    <glyph glyph-name="three.tf" 
d="M270 -10q-73 0 -130.5 25.5t-98.5 74.5l78 78q23 -32 62.5 -51t86.5 -19q45 0 78 16t51.5 45t18.5 67q0 40 -18.5 68t-53 43.5t-82.5 15.5q-19 0 -38 -2.5t-35 -7.5l51 66q21 8 45 13.5t47 5.5q57 0 102 -26t71.5 -72.5t26.5 -109.5q0 -68 -33 -120t-92 -81t-137 -29z
M189 343v68l196 218l139 3l-205 -224zM77 597v103h447v-68l-100 -35h-347z" />
    <glyph glyph-name="four.tf" 
d="M25 250l247 450h130l-253 -450h-124zM25 180v70l49 33h491v-103h-540zM355 0v458h113v-458h-113z" />
    <glyph glyph-name="five.tf" 
d="M269 -10q-71 0 -130.5 24.5t-101.5 75.5l78 78q23 -32 62.5 -51t89.5 -19q46 0 80.5 16t54.5 46t20 71q0 43 -19.5 71.5t-51.5 43t-69 14.5q-41 0 -74 -9t-64 -32l3 72q17 21 38.5 34.5t51 20.5t67.5 7q76 0 128 -31t79 -82.5t27 -114.5q0 -68 -34.5 -121t-95 -83.5
t-139.5 -30.5zM144 319l-63 63l32 318h105l-37 -331zM134 597l-21 103h385v-103h-364z" />
    <glyph glyph-name="six.tf" 
d="M295 -10q-71 0 -128 32.5t-90 87.5t-33 122q0 97 68 194l196 274h133l-208 -287l-42 -25q10 23 26 39.5t42 25.5t64 9q62 0 112.5 -28.5t81 -79t30.5 -118.5t-34 -124t-91 -89t-127 -33zM295 98q39 0 70 18t49 49.5t18 70.5t-18 70t-49 48.5t-70 17.5t-70 -18
t-48.5 -48.5t-17.5 -69.5t17.5 -70.5t48.5 -49.5t70 -18z" />
    <glyph glyph-name="seven.tf" 
d="M162 0l266 630h114l-260 -630h-120zM46 597v103h496v-70l-49 -33h-447z" />
    <glyph glyph-name="eight.tf" 
d="M294 -10q-73 0 -128 26t-85 72.5t-30 105.5q0 47 19 86.5t55.5 67.5t86.5 40l-2 -32q-41 11 -69.5 36t-43 58.5t-14.5 71.5q0 56 27.5 98.5t75.5 66.5t108 24q61 0 109 -24t75.5 -66.5t27.5 -98.5q0 -38 -14.5 -71.5t-42.5 -58.5t-70 -36l-2 32q51 -12 87 -40t55 -67.5
t19 -86.5q0 -59 -30 -105.5t-85 -72.5t-129 -26zM294 94q39 0 69.5 15t47.5 41t17 59q0 34 -17 59.5t-47.5 40.5t-69.5 15t-69 -15t-47 -40.5t-17 -59.5q0 -33 17 -59t47 -41t69 -15zM294 414q46 0 76 28t30 72t-30 71.5t-76 27.5q-45 0 -75 -27.5t-30 -71.5t30 -72t75 -28z
" />
    <glyph glyph-name="nine.tf" 
d="M149 0l209 287l41 25q-10 -22 -26 -39t-41.5 -26t-64.5 -9q-61 0 -112 28.5t-81.5 79.5t-30.5 118q0 68 34 124t91 89t127 33q71 0 128 -32.5t90 -87t33 -122.5q0 -97 -68 -194l-196 -274h-133zM295 328q39 0 70 18t48.5 49t17.5 69q0 40 -17.5 71t-48.5 49t-70 18
t-70 -18t-49 -49t-18 -71q0 -39 18 -69.5t49.5 -48.5t69.5 -18z" />
    <glyph glyph-name="ampersand.ss01" horiz-adv-x="647" 
d="M302 -10q-77 0 -133 26t-85.5 72.5t-29.5 105.5q0 71 41.5 123t115.5 71l-3 -32q-40 11 -67.5 36t-41.5 59t-14 71q0 56 27.5 98.5t75.5 66.5t111 24q77 0 126.5 -31t76.5 -73l-79 -70q-22 30 -49.5 49t-76.5 19q-52 0 -79 -27t-27 -68q0 -27 13 -48t34.5 -33t48.5 -12
v-96q-35 0 -63 -14t-44 -39t-16 -59q0 -33 17 -59t48 -41t73 -15q43 0 73.5 15t47.5 41t17 59q0 28 -9.5 49.5t-26.5 36.5t-39 21l33 71q47 -12 81 -39.5t52.5 -67t18.5 -86.5q0 -59 -32 -105.5t-87.5 -72.5t-128.5 -26zM365 316v101h257v-101h-257z" />
    <glyph glyph-name="uni030C.alt" horiz-adv-x="0" 
d="M141 192l-61 33l68 127l37 10q-6 -12 -14 -20t-19 -8q-23 0 -42.5 19.5t-19.5 49.5q0 32 21.5 54.5t53.5 22.5q30 0 52.5 -22.5t22.5 -54.5q0 -13 -5.5 -30.5t-19.5 -44.5z" />
    </font>
</defs>
</svg>
