<svg width="60" height="60" viewBox="0 0 60 60" fill="none" xmlns="http://www.w3.org/2000/svg">
<circle cx="30" cy="30" r="29.5" stroke="#666666"/>
<path d="M25.118 30.901L25.753 32.781L27.568 23.818C27.568 23.818 27.655 23.546 27.943 23.546H28.837C29.067 23.492 29.269 23.6 29.327 23.818L31.748 35.097L33.536 26.978C33.594 26.76 33.766 26.596 33.969 26.651H34.689C34.919 26.597 35.15 26.733 35.208 26.924L36.448 30.602H45.808C45.3888 28.5535 44.3051 26.7007 42.7251 25.3312C41.1452 23.9617 39.1572 23.1521 37.07 23.028C36.3291 21.5195 35.1803 20.2488 33.7539 19.3601C32.3275 18.4714 30.6806 18.0002 29 18C26.7281 18.0016 24.5409 18.8628 22.8777 20.4105C21.2146 21.9583 20.1987 24.078 20.034 26.344C17.697 27.01 15.787 28.597 14.778 30.656H24.6C24.86 30.656 25.061 30.683 25.119 30.901H25.118ZM45.993 32.209H35.64C35.41 32.263 35.18 32.127 35.122 31.936L34.487 30.056L32.527 38.774C32.527 38.774 32.498 39.237 32.209 39.237H31.489C31.258 39.291 31.056 39.183 30.999 38.965L28.547 27.604L26.703 35.832C26.6674 35.9441 26.592 36.0392 26.491 36.0995C26.3901 36.1597 26.2705 36.1809 26.155 36.159H25.492C25.262 36.213 25.031 36.076 24.973 35.886L23.733 32.263H14.203C14.0684 32.8322 14.0003 33.4151 14 34C14 38.258 17.538 41.756 22 42H37C41.968 42 46 37.746 46 32.5C46 32.402 45.996 32.306 45.993 32.209Z" fill="url(#paint0_linear_15525_22799)"/>
<defs>
<linearGradient id="paint0_linear_15525_22799" x1="28" y1="18" x2="28.2151" y2="42.4981" gradientUnits="userSpaceOnUse">
<stop offset="0.549254" stop-color="#12B886"/>
<stop offset="0.558448" stop-color="#424ADF"/>
</linearGradient>
</defs>
</svg>
