<svg width="14" height="14" viewBox="0 0 14 14" fill="none" xmlns="http://www.w3.org/2000/svg">
<g clip-path="url(#clip0_13947_77192)">
<path d="M7.00004 0.853027C3.60514 0.853027 0.853027 3.60514 0.853027 7.00004C0.853027 10.3949 3.60514 13.1471 7.00004 13.1471C10.3949 13.1471 13.1471 10.3949 13.1471 7.00004C13.1471 3.60514 10.3949 0.853027 7.00004 0.853027ZM10.7531 10.7531C10.2654 11.2408 9.69765 11.6236 9.06573 11.8909C8.41192 12.1674 7.71691 12.3076 7.00003 12.3076C6.28314 12.3076 5.58813 12.1674 4.93433 11.8909C4.3024 11.6236 3.7347 11.2408 3.24699 10.7531C2.75928 10.2654 2.37647 9.69765 2.10918 9.06573C1.83264 8.41192 1.69243 7.71691 1.69243 7.00004C1.69243 6.28315 1.83264 5.58814 2.10918 4.93434C2.37645 4.30242 2.75928 3.73471 3.24699 3.247C3.7347 2.75929 4.3024 2.37648 4.93433 2.10919C5.58813 1.83266 6.28312 1.69244 7.00003 1.69244C7.71691 1.69244 8.41191 1.83266 9.06573 2.10919C9.69765 2.37647 10.2654 2.75929 10.7531 3.247C11.2408 3.73471 11.6236 4.30242 11.8909 4.93434C12.1674 5.58814 12.3076 6.28315 12.3076 7.00004C12.3076 7.71693 12.1674 8.41192 11.8909 9.06573C11.6236 9.69765 11.2408 10.2654 10.7531 10.7531Z" fill="#FFA622"/>
<path d="M9.55882 3.9082H7.98263C7.93883 3.9082 7.90332 3.94371 7.90332 3.98752V10.0127C7.90332 10.0565 7.93883 10.092 7.98263 10.092H9.55882C9.60262 10.092 9.63813 10.0565 9.63813 10.0127V3.98752C9.63814 3.94371 9.60264 3.9082 9.55882 3.9082Z" fill="#FFA622"/>
<path d="M6.01733 3.9082H4.44113C4.39732 3.9082 4.36182 3.94371 4.36182 3.98752V10.0127C4.36182 10.0565 4.39732 10.092 4.44113 10.092H6.01733C6.06113 10.092 6.09664 10.0565 6.09664 10.0127V3.98752C6.09664 3.94371 6.06113 3.9082 6.01733 3.9082Z" fill="#FFA622"/>
</g>
<defs>
<clipPath id="clip0_13947_77192">
<rect width="14" height="14" fill="white"/>
</clipPath>
</defs>
</svg>
