<svg width="16" height="16" viewBox="0 0 16 16" fill="none" xmlns="http://www.w3.org/2000/svg">
<path d="M11.3267 5.90667L7.68 8L4.01333 5.90667C3.38667 5.55333 3 5.33333 3 4.17333V3C3 2.44667 3.44667 2 4 2H11.3333C11.8867 2 12.3333 2.44667 12.3333 3V4.17333C12.3333 5.33333 11.9467 5.55333 11.3267 5.90667ZM3 11.8267V13C3 13.5533 3.44667 14 4 14H11.3333C11.8867 14 12.3333 13.5533 12.3333 13V11.8267C12.3333 10.6667 11.9467 10.4467 11.3267 10.0933L7.68 8L4.01333 10.0933C3.38667 10.4467 3 10.6667 3 11.8267Z" fill="#FBBC04"/>
</svg>
