<svg width="14" height="14" viewBox="0 0 14 14" fill="none" xmlns="http://www.w3.org/2000/svg">
<path d="M9.51731 4.61412C8.99633 4.06638 8.59345 3.42381 8.35221 2.75593C8.17821 2.2742 8.09258 1.78618 8.09626 1.31531C7.42645 1.65714 6.79721 2.11714 6.2191 2.68914C5.45277 3.44737 4.83925 4.33331 4.39561 5.32233C4.03899 6.11737 3.79016 6.98136 3.65606 7.89025C3.49193 9.0026 3.54175 9.91442 3.58448 10.3497C4.04486 10.3926 5.02841 10.4489 6.20028 10.307C7.14448 10.1926 8.02494 9.97354 8.81715 9.65597C9.79734 9.26306 10.6451 8.71685 11.3367 8.03247C11.8906 7.48444 12.3391 6.85645 12.6751 6.16045C11.5698 6.12185 10.4272 5.57081 9.51731 4.61412ZM10.2465 7.03857C10.2027 7.20696 10.0506 7.31863 9.88388 7.31863C9.85268 7.31863 9.821 7.31472 9.7894 7.30652C8.70049 7.02469 7.0292 5.30418 6.80894 4.23825C6.76714 4.03598 6.89771 3.83825 7.1005 3.7966C7.3032 3.75505 7.50163 3.88509 7.54341 4.08733C7.61701 4.44353 7.99684 5.01603 8.51105 5.54582C9.02864 6.07905 9.60437 6.48607 9.97778 6.58273C10.1782 6.63461 10.2986 6.83868 10.2465 7.03857Z" fill="#999999"/>
<path d="M2.87886 10.7506C2.87334 10.7182 2.79052 10.2178 2.79159 9.43213L0.830526 10.3681C0.633269 10.4623 0.535881 10.6885 0.605852 10.8951C1.00663 12.0786 1.94372 13.0038 3.13345 13.3918C3.33961 13.4591 3.56383 13.3624 3.65794 13.1675L4.63387 11.1465C3.78287 11.1444 3.22766 11.0629 3.1924 11.0576C3.03241 11.0334 2.90597 10.9097 2.87886 10.7506Z" fill="#999999"/>
<path d="M7.89575 10.7451L9.67768 12.5082C9.89271 12.721 10.2576 12.6279 10.3439 12.3384L11.3233 9.0498C10.6713 9.58286 9.9214 10.0207 9.08481 10.3547C8.70566 10.5061 8.30849 10.6364 7.89575 10.7451Z" fill="#999999"/>
<path d="M3.27641 6.17448C3.39723 5.78202 3.53988 5.40071 3.70415 5.03276C4.06509 4.22431 4.5305 3.47911 5.09255 2.80835L2.02888 4.17456C1.77201 4.28912 1.71053 4.62514 1.91027 4.82277L3.27641 6.17448Z" fill="#999999"/>
<path d="M13.3154 1.35609C13.2721 1.06685 13.0557 0.833734 12.7701 0.767171C12.3508 0.669407 11.7505 0.572545 11.0469 0.5845C10.2943 0.597131 9.56228 0.730181 8.86894 0.980016C8.73731 1.99896 9.18245 3.17528 10.0615 4.09957C10.9169 4.99894 11.994 5.47721 12.9851 5.40864C13.2154 4.74301 13.3553 4.02478 13.4006 3.26951C13.4471 2.49304 13.3843 1.81791 13.3154 1.35609ZM11.1382 2.43966C10.9305 2.43966 10.7622 2.27135 10.7622 2.06374C10.7622 1.85613 10.9305 1.68782 11.1382 1.68782C11.3458 1.68782 11.5141 1.85613 11.5141 2.06374C11.5141 2.27135 11.3458 2.43966 11.1382 2.43966Z" fill="#999999"/>
</svg>
