<?xml version="1.0" standalone="no"?><!DOCTYPE svg PUBLIC "-//W3C//DTD SVG 1.1//EN" "http://www.w3.org/Graphics/SVG/1.1/DTD/svg11.dtd"><svg t="1744946957675" class="icon" viewBox="0 0 1024 1024" version="1.1" xmlns="http://www.w3.org/2000/svg" p-id="26478" xmlns:xlink="http://www.w3.org/1999/xlink" width="200" height="200"><path d="M725.248 142.592a426.666667 426.666667 0 0 0-496.554667 50.346667l-56.661333-63.829334a512 512 0 0 1 841.386667 485.802667l-17.92 87.381333-56.746667-68.778666L804.010667 470.186667l65.877333-54.357334 68.437333 83.029334A426.325333 426.325333 0 0 0 725.333333 142.592zM28.330667 321.706667l56.746666 68.778666 134.826667 163.328-65.877333 54.357334-68.522667-83.029334a426.666667 426.666667 0 0 0 709.632 305.92l56.746667 63.829334A512 512 0 0 1 10.410667 409.088l17.92-87.381333z" p-id="26479" fill="#999999"></path><path d="M477.184 780.458667v-55.637334a201.557333 201.557333 0 0 1-77.482667-21.248 201.642667 201.642667 0 0 1-54.442666-42.325333l54.442666-49.664c11.690667 12.117333 24.576 22.186667 38.741334 30.293333 14.08 7.68 29.610667 12.714667 46.592 15.104V548.096c-45.568-9.301333-78.250667-23.893333-98.048-43.52a100.181333 100.181333 0 0 1-29.696-73.898667c0-31.829333 10.154667-57.856 30.293333-78.08 20.565333-20.138667 50.432-32.426667 89.6-36.864v-56.917333H546.133333V315.733333c24.234667 2.816 45.397333 8.874667 63.573334 18.176 18.090667 8.874667 33.877333 20.906667 47.189333 36.266667l-55.125333 49.664a113.834667 113.834667 0 0 0-62.890667-36.266667V483.84c42.752 9.728 74.24 23.637333 94.378667 41.813333 20.565333 18.090667 30.890667 42.666667 30.890666 73.813334 0 29.866667-9.728 56.064-29.013333 78.677333-19.029333 22.528-48.64 37.290667-89.002667 44.117333v58.026667h-68.949333z m-36.352-352.170667c0 11.690667 3.413333 20.736 10.24 27.221333 7.338667 6.485333 18.602667 11.946667 33.962667 16.298667V382.293333c-15.36 3.328-26.624 8.96-33.877334 17.066667a41.898667 41.898667 0 0 0-10.24 29.013333z m139.776 177.92a45.909333 45.909333 0 0 0-7.850667-25.429333c-5.205333-8.533333-16.554667-15.36-33.877333-20.565334v95.573334a60.416 60.416 0 0 0 31.488-18.773334 49.066667 49.066667 0 0 0 10.24-30.805333z" p-id="26480" fill="#999999"></path></svg>