<svg width="9" height="9" viewBox="0 0 9 9" fill="none" xmlns="http://www.w3.org/2000/svg">
<path d="M4.5002 4.93353C4.44311 4.93411 4.38647 4.92329 4.33361 4.90171C4.28075 4.88013 4.23273 4.84821 4.19236 4.80784C4.15198 4.76747 4.12007 4.71945 4.09849 4.66659C4.07691 4.61373 4.06609 4.55709 4.06667 4.5V0.433526C4.06667 0.195087 4.26176 -1.01608e-08 4.5002 0C6.97997 0 9.0002 2.02023 9.0002 4.5C9.0002 4.73844 8.80511 4.93353 8.56667 4.93353H4.5002ZM4.93372 0.888728V4.06647L8.10713 4.06214C8.0079 3.25502 7.64165 2.50425 7.06663 1.92923C6.49161 1.35421 5.74085 0.987963 4.93372 0.888728Z" fill="#959A9F"/>
<path d="M7.79913 5.99136C7.21387 7.27459 5.92197 8.12864 4.5 8.12864C2.49711 8.12864 0.867052 6.49858 0.867052 4.49569C0.867052 3.02604 1.75578 1.72113 3.09104 1.15754V0.234131C3.0737 0.238466 3.05202 0.234131 3.03468 0.242801C1.21821 0.867079 -1.01608e-08 2.57951 0 4.50003C0 6.9798 2.02023 9.00003 4.5 9.00003C6.34682 9.00003 8.03324 7.84251 8.70087 6.11708C8.71821 6.07806 8.71821 6.03471 8.72254 5.99569H7.79913V5.99136Z" fill="#959A9F"/>
</svg>
