<svg width="14" height="14" viewBox="0 0 14 14" fill="none" xmlns="http://www.w3.org/2000/svg">
<g clip-path="url(#clip0_43927_80974)">
<path d="M4.30899 7.27886C4.30012 7.27886 4.29126 7.27854 4.28228 7.27801L0.427881 7.03736C0.281229 7.02828 0.149637 6.94444 0.0793549 6.81551C0.00917968 6.68659 0.0100342 6.53054 0.0818115 6.40237C0.101999 6.36626 0.587778 5.50974 1.51287 4.7627C2.763 3.75333 4.21627 3.42596 5.71548 3.81603C5.83992 3.8484 5.9431 3.93513 5.9965 4.05209C6.04991 4.16904 6.04777 4.30384 5.99063 4.41898L4.69169 7.04131C4.61927 7.18743 4.47049 7.27886 4.30899 7.27886Z" fill="#FF5B5B"/>
<path d="M7.41619 13.9999C7.34591 13.9999 7.27563 13.9826 7.21186 13.9478C7.08294 13.8775 6.99909 13.746 6.9899 13.5994L6.74936 9.74499C6.73868 9.57335 6.83193 9.41195 6.98606 9.33558L9.60839 8.03654C9.72364 7.9795 9.85833 7.97737 9.97529 8.03077C10.0924 8.08407 10.179 8.18736 10.2113 8.31179C10.6015 9.811 10.2741 11.2643 9.26467 12.5144C8.51774 13.4395 7.66111 13.9252 7.62501 13.9455C7.56017 13.9818 7.48818 13.9999 7.41619 13.9999Z" fill="#FF193D"/>
<path d="M13.3421 3.44685L10.5804 0.685133C10.4697 0.574477 10.3074 0.533247 10.1573 0.577574C8.3085 1.12445 6.79082 1.98215 5.64612 3.12674C5.4074 3.36557 5.17807 3.62437 4.96466 3.89589C4.34409 4.68491 3.82573 5.6178 3.42412 6.66872C3.16831 7.33853 2.96002 8.05609 2.80504 8.80142C2.53438 10.1033 2.51985 11.0365 2.51932 11.0755C2.51793 11.1906 2.563 11.3015 2.64439 11.3828C2.7245 11.463 2.83324 11.5079 2.94646 11.5079H2.95169C2.99089 11.5075 3.924 11.493 5.22582 11.2223C5.97115 11.0673 6.68871 10.859 7.35863 10.6031C8.40944 10.2015 9.34233 9.68326 10.1311 9.06279C10.4029 8.84928 10.6617 8.61995 10.9005 8.38112C12.0452 7.23642 12.9029 5.71874 13.4497 3.86993C13.4941 3.71986 13.4528 3.55751 13.3421 3.44685Z" fill="#E1F1FA"/>
<path d="M5.51774 10.579L3.44858 8.50984C3.29584 8.3571 3.05306 8.34247 2.88302 8.47577C2.75089 8.57938 2.62517 8.69068 2.50939 8.80646C1.06968 10.2462 1.02514 12.4769 1.02396 12.5711C1.02247 12.6863 1.06754 12.7972 1.14904 12.8785C1.22915 12.9588 1.33777 13.0037 1.45099 13.0037C1.45281 13.0037 1.45463 13.0037 1.45644 13.0036C1.55065 13.0024 3.78152 12.9579 5.22112 11.5182C5.33691 11.4024 5.4482 11.2767 5.55181 11.1446C5.68511 10.9745 5.67048 10.7317 5.51774 10.579Z" fill="#FFF261"/>
<path d="M3.45714 6.5835L2.18768 7.85306C2.10757 7.93306 2.0625 8.04169 2.0625 8.15501C2.0625 8.26824 2.10757 8.37686 2.18768 8.45697L5.57051 11.8398C5.65051 11.9199 5.75914 11.9649 5.87247 11.9649C5.9858 11.9649 6.09432 11.9199 6.17443 11.8398L7.44388 10.5703L3.45714 6.5835Z" fill="#1B3B6B"/>
<path d="M8.99889 6.33147C8.65089 6.33147 8.32362 6.19592 8.07753 5.94983C7.56953 5.44183 7.56953 4.61533 8.07753 4.10722C8.32362 3.86113 8.65089 3.72559 8.99889 3.72559C9.34688 3.72559 9.67415 3.86113 9.92024 4.10722C10.1663 4.35332 10.3019 4.68048 10.3019 5.02858C10.3019 5.37657 10.1663 5.70374 9.92024 5.94983C9.67415 6.19592 9.34688 6.33147 8.99889 6.33147Z" fill="#06CCAB"/>
<path d="M8.9988 6.74936C8.53919 6.74936 8.10714 6.57034 7.78222 6.24542C7.11133 5.57454 7.11133 4.48293 7.78222 3.81204C8.10714 3.48712 8.5393 3.30811 8.9988 3.30811C9.45841 3.30811 9.89046 3.48712 10.2155 3.81204C10.5405 4.13707 10.7194 4.56912 10.7194 5.02873C10.7194 5.48834 10.5405 5.9204 10.2155 6.24542C9.89046 6.57034 9.45841 6.74936 8.9988 6.74936ZM8.9988 4.16228C8.76745 4.16228 8.54976 4.25243 8.38613 4.41606C8.04839 4.75391 8.04839 5.30356 8.38613 5.6414C8.54976 5.80504 8.76745 5.89519 8.9988 5.89519C9.23026 5.89519 9.44783 5.80504 9.61147 5.6414C9.77511 5.47777 9.86525 5.26019 9.86525 5.02873C9.86525 4.79727 9.77511 4.5797 9.61147 4.41606C9.44783 4.25243 9.23026 4.16228 8.9988 4.16228Z" fill="#1B3B6B"/>
<path d="M13.9024 0.125155C13.8209 0.0436578 13.7094 -0.00216438 13.5949 7.86646e-05C13.5315 0.000826346 12.0218 0.0262475 10.1575 0.577609L13.4498 3.86997C14.0012 2.00568 14.0266 0.495898 14.0274 0.432559C14.0289 0.317416 13.9838 0.206545 13.9024 0.125155Z" fill="#FF5B5B"/>
<path d="M13.3422 3.44678L11.9614 2.06592L2.64453 11.3828C2.72464 11.4629 2.83327 11.5078 2.94649 11.5078H2.95183C2.99092 11.5074 3.92403 11.4929 5.22595 11.2222C5.97128 11.0672 6.68874 10.859 7.35866 10.603C8.40958 10.2014 9.34247 9.68319 10.1313 9.06272C10.4029 8.8492 10.6618 8.61988 10.9005 8.38104C12.0452 7.23635 12.9029 5.71866 13.4497 3.86986C13.4942 3.71979 13.4529 3.55743 13.3422 3.44678Z" fill="#CDEBFC"/>
<path d="M5.51773 10.579L4.48316 9.54443L1.14893 12.8786V12.8787C1.22914 12.9588 1.33777 13.0037 1.45099 13.0037H1.45633C1.55064 13.0026 3.7814 12.9579 5.22112 11.5182C5.3369 11.4024 5.4482 11.2767 5.5517 11.1446C5.68511 10.9745 5.67058 10.7318 5.51773 10.579Z" fill="#FDBF00"/>
<path d="M5.45067 8.57666L3.87915 10.1482L5.57062 11.8396C5.65062 11.9196 5.75925 11.9647 5.87257 11.9647C5.9859 11.9647 6.09442 11.9196 6.17453 11.8396L7.44399 10.5701L5.45067 8.57666Z" fill="#001035"/>
<path d="M9.92035 4.10742C9.92024 4.10742 9.92024 4.10742 9.92024 4.10742L8.07764 5.95003H8.07774C8.32373 6.19612 8.651 6.33167 8.99899 6.33167C9.34699 6.33167 9.67426 6.19612 9.92035 5.95003C10.1664 5.70393 10.302 5.37677 10.302 5.02878C10.3019 4.68079 10.1664 4.35352 9.92035 4.10742Z" fill="#1CADB5"/>
<path d="M10.2154 3.81201L9.61134 4.41603C9.77498 4.57967 9.86513 4.79724 9.86513 5.0287C9.86513 5.26016 9.77498 5.47774 9.61134 5.64137C9.44771 5.80501 9.23013 5.89516 8.99867 5.89516C8.76721 5.89516 8.54964 5.80501 8.386 5.64137C8.386 5.64137 8.386 5.64137 8.386 5.64127L7.78198 6.24529V6.24539C8.10701 6.57031 8.53906 6.74933 8.99867 6.74933C9.45828 6.74933 9.89034 6.57031 10.2154 6.24539C10.5403 5.92037 10.7193 5.48831 10.7193 5.0287C10.7193 4.56909 10.5403 4.13704 10.2154 3.81201Z" fill="#001035"/>
<path d="M13.9021 0.125L11.8035 2.22374L13.4496 3.86992C14.001 2.00563 14.0264 0.49585 14.0272 0.43251C14.0287 0.317368 13.9836 0.206497 13.9021 0.125Z" fill="#FF193D"/>
</g>
<defs>
<clipPath id="clip0_43927_80974">
<rect width="14" height="14" fill="white"/>
</clipPath>
</defs>
</svg>
