<svg width="14" height="14" viewBox="0 0 14 14" fill="none" xmlns="http://www.w3.org/2000/svg">
<path d="M12.1052 7.68535C12.1346 7.46661 12.1493 7.24057 12.1493 6.99994C12.1493 6.76661 12.1346 6.53328 12.0978 6.31453L13.5891 5.16246C13.7214 5.06038 13.7581 4.8635 13.6773 4.71767L12.2668 2.29686C12.1786 2.13644 11.995 2.0854 11.8334 2.13644L10.0776 2.83644C9.7103 2.55935 9.32094 2.32602 8.88752 2.15102L8.62305 0.298956C8.59366 0.123957 8.44674 0 8.27043 0H5.44946C5.27315 0 5.13357 0.123957 5.10419 0.298956L4.83972 2.15102C4.40629 2.32602 4.00959 2.56665 3.64963 2.83644L1.89387 2.13644C1.73225 2.07811 1.54859 2.13644 1.46044 2.29686L0.0573011 4.71767C-0.0308541 4.87079 -0.00146908 5.06038 0.145456 5.16246L1.63675 6.31453C1.60002 6.53328 1.57063 6.7739 1.57063 6.99994C1.57063 7.22598 1.58532 7.46661 1.62206 7.68535L0.130764 8.83743C-0.00146907 8.93951 -0.0382003 9.13638 0.0426086 9.28222L1.45309 11.703C1.54125 11.8634 1.7249 11.9145 1.88652 11.8634L3.64228 11.1635C4.00959 11.4405 4.39895 11.6739 4.83238 11.8489L5.09684 13.7009C5.13357 13.8759 5.27315 13.9999 5.44946 13.9999H8.27043C8.44674 13.9999 8.59366 13.8759 8.6157 13.7009L8.88017 11.8489C9.3136 11.6739 9.7103 11.4405 10.0703 11.1635L11.826 11.8634C11.9876 11.9218 12.1713 11.8634 12.2595 11.703L13.6699 9.28222C13.7581 9.1218 13.7214 8.93951 13.5818 8.83743L12.1052 7.68535ZM6.85994 9.62492C5.40538 9.62492 4.21529 8.44368 4.21529 6.99994C4.21529 5.5562 5.40538 4.37496 6.85994 4.37496C8.31451 4.37496 9.5046 5.5562 9.5046 6.99994C9.5046 8.44368 8.31451 9.62492 6.85994 9.62492Z" fill="#999999"/>
</svg>
