<svg width="16" height="16" viewBox="0 0 16 16" fill="none" xmlns="http://www.w3.org/2000/svg">
<g id="&#229;&#136;&#134;&#228;&#186;&#171; 1" clip-path="url(#clip0_19101_94239)">
<path id="Vector" d="M14.0823 9.09375C14.0823 8.67205 14.4241 8.3302 14.8458 8.3302C15.2675 8.3302 15.6094 8.67203 15.6094 9.09375V14.0823C15.6094 14.9257 14.9257 15.6094 14.0823 15.6094H1.93334C1.08995 15.6094 0.40625 14.9257 0.40625 14.0823V1.93334C0.40625 1.08995 1.08995 0.40625 1.93334 0.40625H6.92188C7.34358 0.40625 7.68542 0.748094 7.68542 1.1698C7.68542 1.5915 7.34358 1.93334 6.92188 1.93334H1.93334V14.0823H14.0823V9.09375ZM14.135 2.98784L8.93013 8.1815C8.62761 8.48336 8.13714 8.48336 7.83461 8.1815C7.53211 7.87963 7.53211 7.3902 7.83461 7.08833L13.0567 1.8775H10.4653C10.0582 1.8775 9.72812 1.54817 9.72812 1.14188C9.72812 0.735609 10.0582 0.406266 10.4653 0.406266H14.209C14.9824 0.40625 15.6094 1.03191 15.6094 1.80369V5.53928C15.6094 5.94556 15.2793 6.27491 14.8722 6.27491C14.465 6.27491 14.135 5.94556 14.135 5.53928V2.98784Z" fill="#999999"/>
</g>
<defs>
<clipPath id="clip0_19101_94239">
<rect width="16" height="16" fill="white"/>
</clipPath>
</defs>
</svg>
