<svg width="49" height="60" viewBox="0 0 49 60" fill="none" xmlns="http://www.w3.org/2000/svg">
<path d="M2.1141 4.9302L24.3 0L46.4859 4.9302C47.0855 5.06348 47.6217 5.39721 48.006 5.87629C48.3904 6.35538 48.5999 6.95119 48.6 7.5654V34.5303C48.5998 37.1972 47.9412 39.8228 46.6827 42.174C45.4242 44.5253 43.6046 46.5295 41.3856 48.0087L24.3 59.4L7.2144 48.0087C4.99574 46.5297 3.17644 44.526 1.91794 42.1752C0.659436 39.8245 0.000638162 37.1994 0 34.533V7.5654C0.000105402 6.95119 0.209622 6.35538 0.593972 5.87629C0.978321 5.39721 1.51453 5.06348 2.1141 4.9302ZM5.4 9.7308V34.5303C5.40003 36.3081 5.83895 38.0585 6.67781 39.626C7.51666 41.1935 8.72951 42.5296 10.2087 43.5159L24.3 52.9119L38.3913 43.5159C39.8701 42.5299 41.0827 41.1942 41.9216 39.6272C42.7604 38.0602 43.1995 36.3104 43.2 34.533V9.7308L24.3 5.535L5.4 9.7308Z" fill="#FCFDFF"/>
</svg>
