<svg width="16" height="18" viewBox="0 0 16 18" fill="currentColor" xmlns="http://www.w3.org/2000/svg">
<path d="M7.9996 18C7.93396 18 7.86827 17.9891 7.8051 17.9673C6.50137 17.5234 0 14.9614 0 8.0653V3.13404C0 2.83505 0.206781 2.57617 0.494767 2.51838C4.49867 1.70096 5.91811 0.982454 7.71576 0.0720708C7.88888 -0.0158686 8.11853 -0.0275235 8.29165 0.0604159C10.0647 0.972474 11.4652 1.69342 15.5052 2.51838C15.7932 2.577 16 2.83505 16 3.13404V8.06612C16 14.9623 9.49863 17.5242 8.1949 17.9681C8.13091 17.989 8.06524 18 7.9996 18ZM1.23071 3.64666V8.0653C1.23071 13.8149 6.49649 16.1558 7.9996 16.7061C9.5027 16.1558 14.7685 13.814 14.7685 8.0653V3.64666C11.1412 2.87195 9.61584 2.14484 8.01182 1.32324C6.3077 2.18337 4.82848 2.87949 1.23071 3.64666ZM7.62382 11.1156L10.9057 7.76555C11.1461 7.52015 11.1461 7.1223 10.9057 6.87691C10.6653 6.63152 10.2756 6.63152 10.0352 6.87691L7.18814 9.78308L5.98207 8.55195C5.74167 8.30655 5.35192 8.30655 5.11152 8.55195C4.87112 8.79734 4.87112 9.19519 5.11152 9.44058L6.75247 11.1156C6.87225 11.2379 7.02981 11.2999 7.18734 11.2999C7.34487 11.2999 7.50403 11.2387 7.62382 11.1156Z" fill="#222"/>
</svg>
