<svg width="50" height="60" viewBox="0 0 50 60" fill="currentColor" xmlns="http://www.w3.org/2000/svg">
<path d="M2.8143 5.23L25.0002 0.299805L47.1861 5.23C47.7857 5.36329 48.3219 5.69701 48.7062 6.1761C49.0906 6.65518 49.3001 7.251 49.3002 7.8652V34.8301C49.3 37.497 48.6414 40.1226 47.3829 42.4738C46.1244 44.8251 44.3048 46.8293 42.0858 48.3085L25.0002 59.6998L7.9146 48.3085C5.69593 46.8295 3.87664 44.8258 2.61814 42.475C1.35963 40.1243 0.700833 37.4992 0.700195 34.8328V7.8652C0.700301 7.251 0.909818 6.65518 1.29417 6.1761C1.67852 5.69701 2.21473 5.36329 2.8143 5.23ZM6.1002 10.0306V34.8301C6.10023 36.6079 6.53915 38.3583 7.378 39.9258C8.21686 41.4933 9.4297 42.8294 10.9089 43.8157L25.0002 53.2117L39.0915 43.8157C40.5703 42.8297 41.7829 41.494 42.6218 39.927C43.4606 38.36 43.8997 36.6102 43.9002 34.8328V10.0306L25.0002 5.8348L6.1002 10.0306ZM25.0002 27.2998C23.21 27.2998 21.4931 26.5886 20.2272 25.3228C18.9614 24.0569 18.2502 22.34 18.2502 20.5498C18.2502 18.7596 18.9614 17.0427 20.2272 15.7768C21.4931 14.511 23.21 13.7998 25.0002 13.7998C26.7904 13.7998 28.5073 14.511 29.7732 15.7768C31.039 17.0427 31.7502 18.7596 31.7502 20.5498C31.7502 22.34 31.039 24.0569 29.7732 25.3228C28.5073 26.5886 26.7904 27.2998 25.0002 27.2998ZM12.9231 40.7998C13.2504 37.8255 14.6637 35.0765 16.8923 33.0798C19.1209 31.083 22.0079 29.9788 25.0002 29.9788C27.9925 29.9788 30.8795 31.083 33.1081 33.0798C35.3367 35.0765 36.75 37.8255 37.0773 40.7998H12.9231Z" fill="#FCFDFF"/>
</svg>
