<svg width="24" height="24" viewBox="0 0 24 24" fill="none" xmlns="http://www.w3.org/2000/svg">
<path d="M14.2707 11.574C14.2707 12.6587 13.3226 13.5385 12.1539 13.5385C10.9799 13.5385 10.0344 12.6587 10.0344 11.574C10.0344 10.4893 10.9799 9.60951 12.1539 9.60951C13.3226 9.60951 14.2707 10.4893 14.2707 11.574ZM11.3056 7.57678C10.0424 6.57611 10.4468 0.667005 12.7816 1.26846C15.6363 1.99854 12.6817 6.70746 11.9096 7.87617M8.28013 9.53076C6.68333 9.71456 2.79376 5.25253 4.86589 4.02344C7.40293 2.52382 8.64254 7.94182 8.92874 9.31804M7.52898 13.05C6.52569 14.3132 0.621784 13.9088 1.21796 11.574C1.94809 8.71917 6.65696 11.6738 7.83095 12.4406M9.48034 16.0728C9.66681 17.6722 5.20733 21.5617 3.97822 19.4897C2.47337 16.9526 7.89662 15.713 9.26762 15.4267M13.0021 16.8292C14.2628 17.8299 13.8583 23.7338 11.5235 23.1323C8.66874 22.4022 11.6286 17.6986 12.3928 16.522M16.0224 14.8752C17.6244 14.6887 21.5113 19.1482 19.4419 20.3773C16.9048 21.8769 15.6678 16.4562 15.3763 15.0854M16.7788 11.3561C17.7794 10.0901 23.6806 10.4972 23.0845 12.8294C22.3543 15.6868 17.648 12.7243 16.4742 11.96M14.8248 8.33315C14.6409 6.72848 19.1004 2.83896 20.3243 4.91107C21.8291 7.45071 16.411 8.68772 15.0349 8.97658" fill="#6AD02F"/>
</svg>
