<?xml version="1.0" encoding="UTF-8"?>
<svg width="21px" height="26px" viewBox="0 0 21 26" version="1.1" xmlns="http://www.w3.org/2000/svg" xmlns:xlink="http://www.w3.org/1999/xlink">
    <title>3</title>
    <defs>
        <polygon id="path-1" points="0 0 20.8856507 0 20.8856507 20.885578 0 20.885578"></polygon>
    </defs>
    <g id="页面-1" stroke="none" stroke-width="1" fill="none" fill-rule="evenodd">
        <g id="swap列表" transform="translate(-84.000000, -380.000000)">
            <g id="编组-11" transform="translate(72.000000, 110.000000)">
                <g id="支持的链备份-2" transform="translate(3.000000, 90.000000)">
                    <g id="编组-2" transform="translate(0.000000, 60.000000)">
                        <g id="编组-4备份-6" transform="translate(0.000000, 120.000000)">
                            <g id="3" transform="translate(9.000000, 0.000000)">
                                <polygon id="Fill-1" fill="#FFA675" points="3.67162162 13.835134 3.67162162 25.1324313 10.2788126 22.7873781 17.0998302 25.1324313 17.0998302 13.835134"></polygon>
                                <g id="Group-15">
                                    <path d="M3.67162162,19.6355085 C5.48270575,21.1251734 7.80950638,22.0256745 10.3507994,22.0256745 C12.8544913,22.0256745 15.1494037,21.1565326 16.9459459,19.7069378 L16.9459459,16.6594583 L3.67162162,16.6594583 L3.67162162,19.6355085 Z" id="Fill-2" fill="#FF9B63"></path>
                                    <g id="Group-6">
                                        <mask id="mask-2" fill="white">
                                            <use xlink:href="#path-1"></use>
                                        </mask>
                                        <g id="Clip-5"></g>
                                        <path d="M0,10.4427526 C0,16.2102168 4.67536119,20.885578 10.4428254,20.885578 C16.2102896,20.885578 20.8856507,16.2102168 20.8856507,10.4427526 C20.8856507,4.67528841 16.2102896,-7.27860697e-05 10.4428254,-7.27860697e-05 C4.67536119,-7.27860697e-05 0,4.67528841 0,10.4427526" id="Fill-4" fill="#FFA675" mask="url(#mask-2)"></path>
                                    </g>
                                    <path d="M1.97702703,10.4459448 C1.97702703,15.1255368 5.77049002,18.9189177 10.4499471,18.9189177 C15.12951,18.9189177 18.922973,15.1255368 18.922973,10.4459448 C18.922973,5.76645846 15.12951,1.9729718 10.4499471,1.9729718 C5.77049002,1.9729718 1.97702703,5.76645846 1.97702703,10.4459448" id="Fill-7" fill="#F68F52"></path>
                                    <path d="M3.10675676,10.4458923 C3.10675676,13.0694197 4.50627907,15.4936147 6.77835215,16.8053259 C9.05032031,18.117142 11.8496797,18.117142 14.1215429,16.8053259 C16.3937209,15.4936147 17.7932432,13.0694197 17.7932432,10.4458923 C17.7932432,6.39032004 14.5055198,3.10270153 10.4499475,3.10270153 C6.39437526,3.10270153 3.10675676,6.39032004 3.10675676,10.4458923" id="Fill-9" fill="#FFBE98"></path>
                                </g>
                                <text font-family="Poppins-Regular, Poppins" font-size="12" font-weight="normal" fill="#F78647">
                                    <tspan x="7" y="14.5108096">3</tspan>
                                </text>
                            </g>
                        </g>
                    </g>
                </g>
            </g>
        </g>
    </g>
</svg>