<?xml version="1.0" encoding="UTF-8"?>
<svg width="21px" height="26px" viewBox="0 0 21 26" version="1.1" xmlns="http://www.w3.org/2000/svg" xmlns:xlink="http://www.w3.org/1999/xlink">
    <title>1</title>
    <defs>
        <polygon id="path-1" points="0 0 20.882218 0 20.882218 20.8821452 0 20.8821452"></polygon>
    </defs>
    <g id="页面-1" stroke="none" stroke-width="1" fill="none" fill-rule="evenodd">
        <g id="swap列表" transform="translate(-84.000000, -262.000000)">
            <g id="编组-11" transform="translate(72.000000, 110.000000)">
                <g id="支持的链备份-2" transform="translate(3.000000, 90.000000)">
                    <g id="编组-2" transform="translate(0.000000, 60.000000)">
                        <g id="1" transform="translate(9.000000, 2.000000)">
                            <polygon id="Fill-1" fill="#FED730" points="3.67101816 13.83286 3.67101816 25.1283005 10.2771232 22.7836328 17.0970197 25.1283005 17.0970197 13.83286"></polygon>
                            <g id="Group-15">
                                <path d="M3.67101816,19.6322813 C5.48180462,21.1217012 7.80822281,22.0220544 10.3490981,22.0220544 C12.8523785,22.0220544 15.1469137,21.1530553 16.9431607,19.7036988 L16.9431607,16.6567202 L3.67101816,16.6567202 L3.67101816,19.6322813 Z" id="Fill-2" fill="#FFCD29"></path>
                                <g id="Group-6">
                                    <mask id="mask-2" fill="white">
                                        <use xlink:href="#path-1"></use>
                                    </mask>
                                    <g id="Clip-5"></g>
                                    <path d="M0,10.4410362 C0,16.2075525 4.67459276,20.8821452 10.441109,20.8821452 C16.2076252,20.8821452 20.882218,16.2075525 20.882218,10.4410362 C20.882218,4.67451998 16.2076252,-7.27741066e-05 10.441109,-7.27741066e-05 C4.67459276,-7.27741066e-05 0,4.67451998 0,10.4410362" id="Fill-4" fill="#FED52F" mask="url(#mask-2)"></path>
                                </g>
                                <path d="M1.97670208,10.4442279 C1.97670208,15.1230508 5.76954159,18.9158083 10.4482296,18.9158083 C15.1270233,18.9158083 18.9198628,15.1230508 18.9198628,10.4442279 C18.9198628,5.76551069 15.1270233,1.97264753 10.4482296,1.97264753 C5.76954159,1.97264753 1.97670208,5.76551069 1.97670208,10.4442279" id="Fill-7" fill="#FCC502"></path>
                                <path d="M3.10624613,10.4441754 C3.10624613,13.0672716 4.50553843,15.4910682 6.77723807,16.8025638 C9.04883281,18.1141643 11.8477321,18.1141643 14.1192219,16.8025638 C16.3910265,15.4910682 17.7903188,13.0672716 17.7903188,10.4441754 C17.7903188,6.38926973 14.5031357,3.10219158 10.44823,3.10219158 C6.39332429,3.10219158 3.10624613,6.38926973 3.10624613,10.4441754" id="Fill-9" fill="#FED730"></path>
                            </g>
                            <text font-family="Poppins-Regular, Poppins" font-size="12" font-weight="normal" line-spacing="15" fill="#F89323">
                                <tspan x="8.53521914" y="15.3158171">1</tspan>
                            </text>
                        </g>
                    </g>
                </g>
            </g>
        </g>
    </g>
</svg>