<?xml version="1.0" encoding="UTF-8"?>
<svg width="20px" height="24px" viewBox="0 0 20 24" version="1.1" xmlns="http://www.w3.org/2000/svg" xmlns:xlink="http://www.w3.org/1999/xlink">
    <title>2</title>
    <defs>
        <polygon id="path-1" points="0 0.00386567164 19.9093984 0.00386567164 19.9093984 19.9131947 0 19.9131947"></polygon>
    </defs>
    <g id="页面-1" stroke="none" stroke-width="1" fill="none" fill-rule="evenodd">
        <g id="swap列表" transform="translate(-84.000000, -321.000000)">
            <g id="编组-11" transform="translate(72.000000, 110.000000)">
                <g id="支持的链备份-2" transform="translate(3.000000, 90.000000)">
                    <g id="编组-2" transform="translate(0.000000, 60.000000)">
                        <g id="编组-4备份-5" transform="translate(0.000000, 61.000000)">
                            <g id="2" transform="translate(9.000000, 0.000000)">
                                <polygon id="Fill-1" fill="#E7EEF3" points="3.5 13.1923077 3.5 23.9615385 9.79835282 21.7260995 16.3005374 23.9615385 16.3005374 13.1923077"></polygon>
                                <g id="Group-15">
                                    <path d="M3.5,18.7215569 C5.22642911,20.1415907 7.44446872,21 9.86697473,21 C12.2536372,21 14.4412792,20.1714841 16.1538462,18.7896474 L16.1538462,15.8846154 L3.5,15.8846154 L3.5,18.7215569 Z" id="Fill-2" fill="#DCE0E9"></path>
                                    <g id="Group-6">
                                        <mask id="mask-2" fill="white">
                                            <use xlink:href="#path-1"></use>
                                        </mask>
                                        <g id="Clip-5"></g>
                                        <path d="M0,9.95849548 C0,15.4563726 4.45682204,19.9131947 9.9546992,19.9131947 C15.4525763,19.9131947 19.9093984,15.4563726 19.9093984,9.95849548 C19.9093984,4.46061833 15.4525763,0.00379628779 9.9546992,0.00379628779 C4.45682204,0.00379628779 0,4.46061833 0,9.95849548" id="Fill-4" fill="#E8EBEF" mask="url(#mask-2)"></path>
                                    </g>
                                    <path d="M1.88461538,9.96153846 C1.88461538,14.4223936 5.50076156,18.0384615 9.96148807,18.0384615 C14.4223154,18.0384615 18.0384615,14.4223936 18.0384615,9.96153846 C18.0384615,5.50078412 14.4223154,1.88461538 9.96148807,1.88461538 C5.50076156,1.88461538 1.88461538,5.50078412 1.88461538,9.96153846" id="Fill-7" fill-opacity="0.908627717" fill="#C6C7DB"></path>
                                    <path d="M3,9.99995 C3,12.5008465 4.33410482,14.8117281 6.499975,16.0621263 C8.66574517,17.3126246 11.3342548,17.3126246 13.499925,16.0621263 C15.6658952,14.8117281 17,12.5008465 17,9.99995 C17,6.13394624 13.8659538,3 9.99995,3 C6.13394624,3 3,6.13394624 3,9.99995" id="Fill-9" fill="#E8EBEF"></path>
                                </g>
                                <text font-family="Poppins-Regular, Poppins" font-size="12" font-weight="normal" line-spacing="10" fill="#B0B6C6">
                                    <tspan x="7" y="17">2</tspan>
                                </text>
                            </g>
                        </g>
                    </g>
                </g>
            </g>
        </g>
    </g>
</svg>