<svg width="95" height="14" viewBox="0 0 95 14" fill="none" xmlns="http://www.w3.org/2000/svg">
<path d="M27.9646 3.91709V3.84456V2.97409V2.90155H27.8921H21.3636H21.291V2.97409V3.84456V3.91709H21.3636H24.0475V10.9534V11.0984H24.12H25.1356H25.2081V10.9534V3.91709H27.8921H27.9646Z" fill="#fff"/>
<path d="M32.1716 5.65804C31.6639 5.15026 31.011 4.93265 30.2131 4.93265C29.3426 4.93265 28.6172 5.2228 28.1095 5.80311C27.6017 6.38343 27.3115 7.10881 27.3115 8.12436C27.3115 9.1399 27.6017 9.93783 28.182 10.4456C28.6898 11.0259 29.4877 11.3161 30.3582 11.3161C31.2286 11.3161 31.954 11.0259 32.6069 10.4456V10.3731V9.43006C32.6069 9.28498 32.4618 9.21244 32.3167 9.35752C32.0991 9.64767 31.7364 9.86529 31.3737 10.0829C31.011 10.228 30.5758 10.3731 30.2856 10.3731C29.7053 10.3731 29.1975 10.1554 28.9074 9.86529C28.5447 9.5026 28.3996 9.06736 28.3996 8.55959H32.8245H32.897V8.48705V8.41451C32.9696 6.96374 32.7519 6.23835 32.1716 5.65804ZM29.0525 6.23835C29.3426 6.02073 29.7053 5.87565 30.1405 5.87565C30.6483 5.87565 31.0835 6.02073 31.3737 6.31089C31.6639 6.60104 31.8089 6.96374 31.8815 7.39897H28.4721C28.5447 6.96374 28.6898 6.5285 29.0525 6.23835Z" fill="#fff"/>
<path d="M38.4105 5.51296C37.9753 5.07772 37.395 4.86011 36.6696 4.86011H36.597C35.9442 4.86011 35.3639 5.07772 34.9286 5.44042V5.07772V5.00519H34.8561H33.9856H33.9131V5.07772V10.9534V11.0259H33.9856H34.9286H35.0012V10.9534V7.61658C35.0012 7.10881 35.1462 6.60104 35.4364 6.38342C35.7266 6.09327 36.1618 5.94819 36.597 5.94819C36.9597 5.94819 37.3224 6.09327 37.54 6.31088C37.8302 6.5285 37.9753 6.8912 37.9753 7.39897V11.0259V11.0984H38.0478H38.9908H39.0633V11.0259V7.39897C39.0633 6.60104 38.8457 5.94819 38.4105 5.51296Z" fill="#fff"/>
<path d="M71.6324 8.84976C70.9796 9.57515 70.0366 10.1555 68.8034 10.1555C67.9329 10.1555 67.135 9.86531 66.6272 9.285C66.1195 8.70468 65.8293 7.90676 65.8293 6.96375C65.8293 6.02075 66.1195 5.22282 66.6272 4.64251C67.135 4.0622 67.8604 3.77204 68.7308 3.77204C69.7464 3.77204 70.8345 4.27981 71.4873 4.93266C71.5599 5.0052 71.7049 4.93266 71.7049 4.86013V3.84458V3.77204C70.907 3.04665 69.8189 2.68396 68.7308 2.68396C67.5702 2.68396 66.5547 3.11919 65.8293 3.84458C65.1039 4.64251 64.7412 5.73059 64.7412 6.96375C64.7412 8.26945 65.1764 9.35753 65.8293 10.0829C66.5547 10.8083 67.5702 11.2435 68.7308 11.2435C69.8915 11.2435 70.9796 10.8083 71.7775 10.0829V10.0104V8.9223V8.84976C71.85 8.77722 71.7049 8.77722 71.6324 8.84976Z" fill="#fff"/>
<path d="M86.2857 5.00519L86.2131 5.07773V8.05182C86.2131 8.84975 85.9955 9.35752 85.7053 9.64767C85.4152 9.93783 84.98 10.0829 84.6173 10.0829C83.8919 10.0829 83.0939 9.57514 83.0939 8.63213V5.00519V4.93265H83.0214H82.0784H82.0059V5.07773V8.70467C82.0059 9.43006 82.296 10.0829 82.7312 10.5181C83.1665 10.9534 83.8193 11.2435 84.5447 11.2435C85.2701 11.2435 85.8504 11.0259 86.2857 10.5907V11.0259V11.0985H86.3582H87.2287H87.3012V11.0259V5.07773V5.00519H87.2287H86.2857Z" fill="#fff"/>
<path d="M78.1613 4.86011C77.2909 4.86011 76.5655 5.15026 76.0577 5.73057C75.5499 6.31088 75.2598 7.10881 75.2598 8.05182C75.2598 8.99482 75.5499 9.79275 76.0577 10.3731C76.5655 10.9534 77.2909 11.2435 78.1613 11.2435C79.0318 11.2435 79.7572 10.9534 80.2649 10.3731C80.7727 9.79275 81.0629 8.99482 81.0629 8.05182C81.0629 7.10881 80.7727 6.31088 80.2649 5.73057C79.7572 5.2228 79.0318 4.86011 78.1613 4.86011ZM78.1613 10.1554C77.6535 10.1554 77.2183 9.93783 76.8556 9.64767C76.5655 9.35752 76.3478 8.84974 76.2753 8.26943V8.05182C76.2753 7.39897 76.4929 6.8912 76.7831 6.5285C77.1458 6.16581 77.581 5.94819 78.1613 5.94819C78.7416 5.94819 79.1769 6.16581 79.5396 6.5285C79.9023 6.8912 80.0473 7.39897 80.0473 8.05182C80.0473 8.70467 79.8297 9.21244 79.5396 9.57513C79.1769 9.93783 78.7416 10.1554 78.1613 10.1554Z" fill="#fff"/>
<path d="M93.9747 2.90155H93.0317H92.9592V2.97409V5.51295C92.4514 5.07772 91.6535 4.8601 91.1457 4.8601C90.3478 4.8601 89.6224 5.15026 89.0421 5.73057C88.5343 6.31088 88.2441 7.1088 88.2441 8.05181C88.2441 9.13989 88.6068 9.93782 89.1871 10.4456C89.7675 10.9534 90.4928 11.2435 91.2182 11.2435C91.9436 11.2435 92.5965 11.0259 93.0317 10.5181V10.9534V11.0259H93.1042H94.0473H94.1198V10.9534V2.97409V2.90155H93.9747ZM89.7675 6.60103C90.0576 6.1658 90.4928 5.94818 91.0732 5.94818C91.726 5.94818 92.2338 6.23834 92.4514 6.60103C92.7415 7.03627 92.8866 7.54404 92.8866 8.05181C92.8866 8.55958 92.7415 9.13989 92.4514 9.50259C92.1612 9.86528 91.726 10.1554 91.1457 10.1554C90.7105 10.1554 90.2752 10.0104 89.9125 9.64766C89.5498 9.28497 89.3322 8.7772 89.3322 8.05181C89.4048 7.54404 89.4773 7.03627 89.7675 6.60103Z" fill="#fff"/>
<path d="M73.0833 2.90155H73.0107V2.97409V10.9534V11.0984H73.0833H74.0263H74.1714V10.9534V2.97409V2.90155H74.0263H73.0833Z" fill="#fff"/>
<path d="M43.0528 4.86011C42.1098 4.86011 41.3844 5.15026 40.8041 5.73057C40.2963 6.31088 39.9336 7.10881 39.9336 8.05182C39.9336 8.99482 40.2237 9.79275 40.8041 10.3731C41.3118 10.9534 42.1098 11.2435 43.0528 11.2435C43.7782 11.2435 44.5761 11.0259 45.1564 10.5907H45.2289V10.5181V9.50259C45.2289 9.35752 45.0839 9.28498 45.0113 9.43006C44.7212 9.72021 44.3585 9.86529 43.9958 10.0104C43.6331 10.1554 43.3429 10.1554 43.1253 10.1554C42.4725 10.1554 41.9647 9.93783 41.6745 9.57513C41.3118 9.21244 41.0942 8.70467 41.0942 8.05182C41.0942 7.39897 41.3118 6.8912 41.6745 6.5285C42.0372 6.16581 42.545 5.94819 43.1253 5.94819C43.488 5.94819 44.3585 6.09327 45.0113 6.60104C45.0839 6.67358 45.2289 6.60104 45.2289 6.45596V5.5855V5.51296H45.1564C44.7937 5.29534 43.9232 4.86011 43.0528 4.86011Z" fill="#fff"/>
<path d="M50.7419 5.65804C50.2342 5.15026 49.5813 4.93265 48.7834 4.93265C47.9129 4.93265 47.1875 5.2228 46.6798 5.80311C46.172 6.38343 45.8818 7.10881 45.8818 8.12436C45.8818 9.1399 46.2445 9.93783 46.7523 10.4456C47.2601 11.0259 48.058 11.3161 48.9285 11.3161C49.7989 11.3161 50.5243 11.0259 51.1772 10.4456V10.3731V9.43006C51.1772 9.28498 51.0321 9.21244 50.887 9.35752C50.6694 9.64767 50.3067 9.86529 49.944 10.0829C49.5813 10.228 49.1461 10.3731 48.8559 10.3731C48.2756 10.3731 47.7678 10.1554 47.4777 9.86529C47.115 9.5026 46.9699 9.06736 46.9699 8.55959H51.3948H51.4673V8.48705V8.41451C51.5399 6.96374 51.3223 6.23835 50.7419 5.65804ZM47.6953 6.23835C47.9855 6.02073 48.3482 5.87565 48.7834 5.87565C49.2912 5.87565 49.7264 6.02073 50.0166 6.31089C50.3067 6.60104 50.4518 6.96374 50.5243 7.39897H47.0425C47.115 6.96374 47.3326 6.5285 47.6953 6.23835Z" fill="#fff"/>
<path d="M56.8343 5.51296C56.3991 5.07772 55.8188 4.86011 55.0934 4.86011H55.0209C54.368 4.86011 53.7877 5.07772 53.3525 5.44042V5.07772V5.00519H53.2799H52.4095H52.3369V5.07772V10.9534V11.0259H52.4095H53.3525H53.425V10.9534V7.61658C53.425 7.10881 53.5701 6.60104 53.8602 6.38342C54.1504 6.09327 54.5856 5.94819 55.0209 5.94819C55.3835 5.94819 55.7462 6.09327 55.9639 6.31088C56.254 6.5285 56.3991 6.8912 56.3991 7.39897V11.0259V11.0984H56.4716H57.4146H57.4872V11.0259V7.39897C57.5597 6.5285 57.3421 5.94819 56.8343 5.51296Z" fill="#fff"/>
<path d="M60.5343 5.00519V3.55441V3.40933H60.4618H59.5187H59.3737V3.48187V4.93265H58.5032H58.4307V5.07773V5.94819V6.02073H58.5032H59.3737V10.0104C59.3737 10.3731 59.5187 10.6632 59.7364 10.8808C59.954 11.0985 60.2441 11.171 60.6068 11.171C60.897 11.171 61.1871 11.0985 61.4048 11.0259C61.5498 11.0259 61.6224 10.9534 61.6949 10.9534H61.7675C61.7675 10.9534 61.7675 10.9534 61.7675 10.8808V10.9534H61.84V10.8808V10.0104C61.84 9.93783 61.7675 9.86529 61.6224 9.86529C61.4048 9.93783 60.897 10.0829 60.6794 10.1554C60.6068 10.1554 60.6068 10.1554 60.5343 10.1554H60.4618V10.0829V6.23835H62.0576H62.1301V6.16581V5.07773V5.00519H62.0576H60.5343Z" fill="#fff"/>
<path d="M17.8089 6.23834C17.0109 5.51295 15.9228 5.07772 14.7622 5.07772C13.6741 5.07772 12.7311 5.44041 11.9332 6.09326C11.5705 6.38342 11.2078 6.74611 10.7726 7.18135C10.6275 7.32643 7.58088 10.3005 5.54979 12.2591C5.25963 12.2591 4.89694 12.2591 4.53425 12.2591C3.5187 12.2591 2.93839 11.8238 2.5757 11.5337C1.48761 10.4456 1.48761 8.7772 2.50316 7.68912C3.01093 7.18135 3.66378 6.89119 4.46171 6.89119C4.96948 6.89119 5.54979 7.03627 6.27518 7.61658C6.63787 7.90674 7.36326 8.55959 7.72596 8.84974H7.79849L8.95912 7.68912V7.61658C8.3788 7.10881 7.58088 6.38342 7.07311 6.02073L7.00057 5.80311C6.49279 5.44041 5.98502 5.2228 5.40471 5.07772C5.40471 5.07772 5.40471 5.07772 5.47725 5.07772C5.91248 3.11917 7.58088 1.74093 9.61197 1.74093C11.2804 1.74093 12.8037 2.75648 13.4565 4.20725C13.4565 4.20725 13.4565 4.20725 13.5291 4.20725C14.0368 4.06218 14.6171 3.98964 15.1975 4.06218C15.27 4.06218 15.27 4.06218 15.27 3.98964L15.1975 3.77202C14.327 1.59586 12.1508 0 9.61197 0C6.63787 0 4.17155 2.17617 3.73632 5.07772C2.79331 5.2228 1.92285 5.73057 1.27 6.38342C-0.470936 8.12435 -0.398397 10.9534 1.34254 12.6943C2.06792 13.4197 2.93839 13.7824 3.80886 13.9275C4.17155 14 4.67932 14 5.04202 14C5.47725 14 13.1664 14 13.4565 14C14.1094 14 14.5446 14 14.9798 14C15.9954 13.9275 17.0109 13.5648 17.8089 12.7668C19.5498 11.0259 19.6223 8.19689 17.8814 6.45596L17.8089 6.23834ZM16.7208 11.4611L16.5757 11.5337C16.213 11.8238 15.6327 12.114 14.7622 12.1865C14.327 12.1865 13.7467 12.1865 13.5291 12.1865H8.16119C10.1197 10.3005 11.8607 8.63212 12.0057 8.41451C12.1508 8.26943 12.5861 7.8342 12.9488 7.54404C13.6741 6.89119 14.3995 6.74611 14.8348 6.74611C15.5602 6.74611 16.2855 7.03627 16.7933 7.54404C17.8089 8.63212 17.7363 10.3731 16.7208 11.4611Z" fill="#fff"/>
</svg>
