<!-- <svg width="15" height="16" viewBox="0 0 15 16" fill="none" xmlns="http://www.w3.org/2000/svg">
<path d="M15 13.398V12.5164C15 12.2464 14.7787 12.0274 14.5059 12.0274H9.37504V13.887H14.5059C14.7788 13.8861 15 13.6671 15 13.398ZM0 7.55828V8.43989C0 8.70989 0.221323 8.92889 0.494101 8.92889H8.12442V7.0692H0.494101C0.221323 7.07115 0 7.28828 0 7.55828ZM0 12.5155V13.397C0 13.6671 0.221323 13.8861 0.494101 13.8861H4.9997V12.0274H0.494084C0.221323 12.0283 0 12.2464 0 12.5155ZM0 2.6011V3.48264C0 3.75273 0.221323 3.97171 0.494101 3.97171H3.12659V2.1121H0.494084C0.221323 2.11391 0 2.33102 0 2.6011ZM3.75006 1.49411V4.5925C3.75006 4.93495 4.02944 5.21147 4.37534 5.21147H6.25032C6.59629 5.21147 6.87567 4.93495 6.87567 4.5925V1.49411C6.87567 1.15166 6.59531 0.87507 6.25032 0.87507H4.37532C4.02942 0.873249 3.75006 1.15256 3.75006 1.49411ZM15 3.48452V2.60297C15 2.33298 14.7787 2.11391 14.5059 2.11391H7.50003V3.97352H14.5059C14.7788 3.97171 15 3.75362 15 3.48452ZM8.74968 6.45031V9.54975C8.74968 9.89213 9.02905 10.1687 9.37502 10.1687H11.25C11.5959 10.1687 11.8753 9.89213 11.8753 9.54975V6.45211C11.8753 6.10974 11.5959 5.83321 11.25 5.83321H9.37504C9.02905 5.83043 8.74968 6.10786 8.74968 6.45031ZM15 8.4417V7.56015C15 7.29007 14.7787 7.07115 14.5059 7.07115H12.4997V8.92889H14.5059C14.7788 8.92889 15 8.71178 15 8.4417ZM5.62505 11.4075V14.506C5.62505 14.8484 5.90442 15.1249 6.25032 15.1249H8.12531C8.47128 15.1249 8.75066 14.8484 8.75066 14.506V11.4075C8.75066 11.065 8.4703 10.7886 8.12531 10.7886H6.25032C5.90442 10.7886 5.62505 11.065 5.62505 11.4075Z" fill="#999999"/>
</svg> -->

<svg xmlns="http://www.w3.org/2000/svg" width="16" height="16" viewBox="0 0 16 16" fill="none">
<path d="M16 13.398V12.5164C16 12.2464 15.7787 12.0274 15.5059 12.0274H10.375V13.887H15.5059C15.7788 13.8861 16 13.6671 16 13.398ZM1 7.55828V8.43989C1 8.70989 1.22132 8.92889 1.4941 8.92889H9.12442V7.0692H1.4941C1.22132 7.07115 1 7.28828 1 7.55828ZM1 12.5155V13.397C1 13.6671 1.22132 13.8861 1.4941 13.8861H5.9997V12.0274H1.49408C1.22132 12.0283 1 12.2464 1 12.5155ZM1 2.6011V3.48264C1 3.75273 1.22132 3.97171 1.4941 3.97171H4.12659V2.1121H1.49408C1.22132 2.11391 1 2.33102 1 2.6011ZM4.75006 1.49411V4.5925C4.75006 4.93495 5.02944 5.21147 5.37534 5.21147H7.25032C7.59629 5.21147 7.87567 4.93495 7.87567 4.5925V1.49411C7.87567 1.15166 7.59531 0.87507 7.25032 0.87507H5.37532C5.02942 0.873249 4.75006 1.15256 4.75006 1.49411ZM16 3.48452V2.60297C16 2.33298 15.7787 2.11391 15.5059 2.11391H8.50003V3.97352H15.5059C15.7788 3.97171 16 3.75362 16 3.48452ZM9.74968 6.45031V9.54975C9.74968 9.89213 10.0291 10.1687 10.375 10.1687H12.25C12.5959 10.1687 12.8753 9.89213 12.8753 9.54975V6.45211C12.8753 6.10974 12.5959 5.83321 12.25 5.83321H10.375C10.0291 5.83043 9.74968 6.10786 9.74968 6.45031ZM16 8.4417V7.56015C16 7.29007 15.7787 7.07115 15.5059 7.07115H13.4997V8.92889H15.5059C15.7788 8.92889 16 8.71178 16 8.4417ZM6.62505 11.4075V14.506C6.62505 14.8484 6.90442 15.1249 7.25032 15.1249H9.12531C9.47128 15.1249 9.75066 14.8484 9.75066 14.506V11.4075C9.75066 11.065 9.4703 10.7886 9.12531 10.7886H7.25032C6.90442 10.7886 6.62505 11.065 6.62505 11.4075Z" fill="#F5F5F5"/>
</svg>