<svg width="15" height="16" viewBox="0 0 15 16" fill="none" xmlns="http://www.w3.org/2000/svg">
<path d="M15 13.398V12.5164C15 12.2464 14.7787 12.0274 14.5059 12.0274H9.37504V13.887H14.5059C14.7788 13.8861 15 13.6671 15 13.398ZM0 7.55828V8.43989C0 8.70989 0.221323 8.92889 0.494101 8.92889H8.12442V7.0692H0.494101C0.221323 7.07115 0 7.28828 0 7.55828ZM0 12.5155V13.397C0 13.6671 0.221323 13.8861 0.494101 13.8861H4.9997V12.0274H0.494084C0.221323 12.0283 0 12.2464 0 12.5155ZM0 2.6011V3.48264C0 3.75273 0.221323 3.97171 0.494101 3.97171H3.12659V2.1121H0.494084C0.221323 2.11391 0 2.33102 0 2.6011ZM3.75006 1.49411V4.5925C3.75006 4.93495 4.02944 5.21147 4.37534 5.21147H6.25032C6.59629 5.21147 6.87567 4.93495 6.87567 4.5925V1.49411C6.87567 1.15166 6.59531 0.87507 6.25032 0.87507H4.37532C4.02942 0.873249 3.75006 1.15256 3.75006 1.49411ZM15 3.48452V2.60297C15 2.33298 14.7787 2.11391 14.5059 2.11391H7.50003V3.97352H14.5059C14.7788 3.97171 15 3.75362 15 3.48452ZM8.74968 6.45031V9.54975C8.74968 9.89213 9.02905 10.1687 9.37502 10.1687H11.25C11.5959 10.1687 11.8753 9.89213 11.8753 9.54975V6.45211C11.8753 6.10974 11.5959 5.83321 11.25 5.83321H9.37504C9.02905 5.83043 8.74968 6.10786 8.74968 6.45031ZM15 8.4417V7.56015C15 7.29007 14.7787 7.07115 14.5059 7.07115H12.4997V8.92889H14.5059C14.7788 8.92889 15 8.71178 15 8.4417ZM5.62505 11.4075V14.506C5.62505 14.8484 5.90442 15.1249 6.25032 15.1249H8.12531C8.47128 15.1249 8.75066 14.8484 8.75066 14.506V11.4075C8.75066 11.065 8.4703 10.7886 8.12531 10.7886H6.25032C5.90442 10.7886 5.62505 11.065 5.62505 11.4075Z" fill="#286DFF"/>
</svg>
