<svg width="10" height="8" viewBox="0 0 10 8" fill="none" xmlns="http://www.w3.org/2000/svg">
<g clip-path="url(#clip0_36251_158856)">
<path d="M9.17146 6.41504V6.82209C9.17146 6.96773 9.05649 7.08724 8.91092 7.09258C8.19401 7.11871 6.1676 7.18867 4.99995 7.18867C3.83221 7.18867 1.80588 7.11878 1.08897 7.09258C0.943403 7.08724 0.82843 6.96773 0.82843 6.82209V6.41504H9.17146Z" fill="url(#paint0_linear_36251_158856)"/>
<path d="M9.17146 6.41504V6.82209C9.17146 6.96773 9.05649 7.08724 8.91092 7.09258C8.19401 7.11871 6.1676 7.18867 4.99995 7.18867C3.83221 7.18867 1.80588 7.11878 1.08897 7.09258C0.943403 7.08724 0.82843 6.96773 0.82843 6.82209V6.41504H9.17146Z" fill="url(#paint1_linear_36251_158856)"/>
<path opacity="0.78" d="M9.17146 6.41504V6.82209C9.17146 6.96773 9.05649 7.08724 8.91092 7.09258C8.19401 7.11871 6.1676 7.18867 4.99995 7.18867C3.83221 7.18867 1.80588 7.11878 1.08897 7.09258C0.943403 7.08724 0.82843 6.96773 0.82843 6.82209V6.41504H9.17146Z" fill="url(#paint2_radial_36251_158856)"/>
<path d="M0.133362 1.20215H0.413219C0.611622 1.20215 0.798828 1.29414 0.920095 1.45127L2.12588 3.01376C2.17309 3.07494 2.24598 3.11073 2.32326 3.11073H2.35627V3.66188H0.558637L0.133362 1.20215Z" fill="url(#paint3_linear_36251_158856)"/>
<path d="M5.00002 6.77198C6.24415 6.77198 8.99926 6.68635 8.99926 6.68635C9.22803 6.68635 9.42036 6.51452 9.44597 6.28713L9.99947 1.28483C10.0046 1.2407 9.97012 1.20191 9.92562 1.20191C9.8408 1.20191 9.76184 1.24501 9.71595 1.3163L8.63524 2.9961C8.58935 3.06738 8.51038 3.11049 8.42556 3.11049H7.29311C7.16438 3.11049 7.04508 3.04316 6.97856 2.93301L5.31456 0.177472C5.24804 0.0673297 5.12875 0 5.00002 0C4.87129 0 4.752 0.0673297 4.68547 0.177472L3.02148 2.93301C2.95495 3.04316 2.83566 3.11049 2.70693 3.11049H1.43842L0.284083 1.3163C0.238196 1.24501 0.15923 1.20191 0.0744096 1.20191C0.0299135 1.20191 -0.00455643 1.2407 0.000566486 1.28483L0.554061 6.28713C0.579675 6.51452 0.771931 6.68635 1.00078 6.68635C1.00078 6.68635 3.75588 6.77198 5.00002 6.77198Z" fill="url(#paint4_linear_36251_158856)"/>
<path d="M9.86664 1.20173H9.58679C9.38838 1.20173 9.20118 1.29373 9.07991 1.45085L7.87412 3.01334C7.82692 3.07452 7.75403 3.11031 7.67674 3.11031H7.64374V3.66146H9.44137L9.86664 1.20166V1.20173Z" fill="url(#paint5_linear_36251_158856)"/>
<path d="M5.00002 6.77198C6.24415 6.77198 8.99926 6.68635 8.99926 6.68635C9.22803 6.68635 9.42036 6.51452 9.44597 6.28713L9.99947 1.28483C10.0046 1.2407 9.97012 1.20191 9.92562 1.20191H9.84937C9.81212 1.20191 9.77743 1.22086 9.75723 1.25219L8.63524 2.9961C8.58935 3.06738 8.51038 3.11049 8.42556 3.11049H7.29311C7.16438 3.11049 7.04508 3.04316 6.97856 2.93301L5.31456 0.177472C5.24804 0.0673297 5.12875 0 5.00002 0C4.87129 0 4.752 0.0673297 4.68547 0.177472L3.02148 2.93301C2.95495 3.04316 2.83566 3.11049 2.70693 3.11049H1.57447C1.48965 3.11049 1.41068 3.06738 1.3648 2.9961L0.242807 1.25219C0.222681 1.22086 0.187919 1.20191 0.150668 1.20191H0.0744096C0.0299135 1.20191 -0.00455643 1.2407 0.000566486 1.28483L0.554061 6.28713C0.579675 6.51452 0.771931 6.68635 1.00078 6.68635C1.00078 6.68635 3.75588 6.77198 5.00002 6.77198Z" fill="url(#paint6_linear_36251_158856)"/>
</g>
<defs>
<linearGradient id="paint0_linear_36251_158856" x1="0.82843" y1="6.80189" x2="9.17146" y2="6.80189" gradientUnits="userSpaceOnUse">
<stop offset="0.01" stop-color="#F1AD40" stop-opacity="0"/>
<stop offset="0.28" stop-color="#EF933E" stop-opacity="0"/>
<stop offset="0.37" stop-color="#F4AA4B" stop-opacity="0.53"/>
<stop offset="0.44" stop-color="#F9C057"/>
<stop offset="0.45" stop-color="#F9C35A"/>
<stop offset="0.49" stop-color="#FBD96D"/>
<stop offset="0.53" stop-color="#FDE97C"/>
<stop offset="0.59" stop-color="#FEF384"/>
<stop offset="0.66" stop-color="#FFF687"/>
<stop offset="0.93" stop-color="#E97724"/>
<stop offset="0.94" stop-color="#EE8D26"/>
<stop offset="0.95" stop-color="#F5AA29"/>
<stop offset="0.97" stop-color="#F6B129"/>
<stop offset="1" stop-color="#F7B32A"/>
</linearGradient>
<linearGradient id="paint1_linear_36251_158856" x1="0.82843" y1="6.80189" x2="9.17146" y2="6.80189" gradientUnits="userSpaceOnUse">
<stop offset="0.01" stop-color="#F1AD40"/>
<stop offset="0.05" stop-color="#E17328"/>
<stop offset="0.08" stop-color="#F5B053"/>
<stop offset="0.15" stop-color="#EFD566"/>
<stop offset="0.21" stop-color="#ECA347"/>
<stop offset="0.28" stop-color="#EF933E"/>
<stop offset="0.44" stop-color="#F9C057"/>
<stop offset="0.46" stop-color="#FAC95F" stop-opacity="0.83"/>
<stop offset="0.48" stop-color="#FBD368" stop-opacity="0.63"/>
<stop offset="0.5" stop-color="#FCDC70" stop-opacity="0.46"/>
<stop offset="0.52" stop-color="#FDE477" stop-opacity="0.32"/>
<stop offset="0.54" stop-color="#FDEB7D" stop-opacity="0.2"/>
<stop offset="0.56" stop-color="#FEEF81" stop-opacity="0.11"/>
<stop offset="0.59" stop-color="#FEF384" stop-opacity="0.05"/>
<stop offset="0.62" stop-color="#FEF586" stop-opacity="0.01"/>
<stop offset="0.66" stop-color="#FFF687" stop-opacity="0"/>
<stop offset="0.99" stop-color="#F7B32A" stop-opacity="0"/>
</linearGradient>
<radialGradient id="paint2_radial_36251_158856" cx="0" cy="0" r="1" gradientUnits="userSpaceOnUse" gradientTransform="translate(4.87802 7.48402) scale(6.35563 0.635563)">
<stop offset="0.57" stop-color="#CB3A0D" stop-opacity="0"/>
<stop offset="0.73" stop-color="#CA3A0D" stop-opacity="0"/>
<stop offset="0.79" stop-color="#CA3A0D" stop-opacity="0.04"/>
<stop offset="0.83" stop-color="#CA3B0D" stop-opacity="0.1"/>
<stop offset="0.86" stop-color="#CA3C0D" stop-opacity="0.19"/>
<stop offset="0.89" stop-color="#CA3D0D" stop-opacity="0.29"/>
<stop offset="0.92" stop-color="#CA3F0D" stop-opacity="0.43"/>
<stop offset="0.94" stop-color="#CA410E" stop-opacity="0.59"/>
<stop offset="0.96" stop-color="#CA440E" stop-opacity="0.77"/>
<stop offset="0.98" stop-color="#CA460E" stop-opacity="0.98"/>
<stop offset="0.99" stop-color="#CA470F"/>
</radialGradient>
<linearGradient id="paint3_linear_36251_158856" x1="1.64733" y1="3.92439" x2="0.658534" y2="1.12282" gradientUnits="userSpaceOnUse">
<stop offset="0.42" stop-color="#F4BC5D"/>
<stop offset="0.43" stop-color="#F4C060"/>
<stop offset="0.52" stop-color="#F9D972"/>
<stop offset="0.6" stop-color="#FCEB7E"/>
<stop offset="0.7" stop-color="#FEF586"/>
<stop offset="0.8" stop-color="#FFF989"/>
<stop offset="1" stop-color="#F9EA73"/>
</linearGradient>
<linearGradient id="paint4_linear_36251_158856" x1="0.246393" y1="3.90249" x2="10.2122" y2="3.07733" gradientUnits="userSpaceOnUse">
<stop offset="0.01" stop-color="#F1AD40"/>
<stop offset="0.05" stop-color="#E17328"/>
<stop offset="0.08" stop-color="#F5B053"/>
<stop offset="0.15" stop-color="#EFD566"/>
<stop offset="0.21" stop-color="#ECA347"/>
<stop offset="0.28" stop-color="#EF933E"/>
<stop offset="0.44" stop-color="#F9C057"/>
<stop offset="0.46" stop-color="#FAC95F" stop-opacity="0.83"/>
<stop offset="0.48" stop-color="#FBD368" stop-opacity="0.63"/>
<stop offset="0.5" stop-color="#FCDC70" stop-opacity="0.46"/>
<stop offset="0.52" stop-color="#FDE477" stop-opacity="0.32"/>
<stop offset="0.54" stop-color="#FDEB7D" stop-opacity="0.2"/>
<stop offset="0.56" stop-color="#FEEF81" stop-opacity="0.11"/>
<stop offset="0.59" stop-color="#FEF384" stop-opacity="0.05"/>
<stop offset="0.62" stop-color="#FEF586" stop-opacity="0.01"/>
<stop offset="0.66" stop-color="#FFF687" stop-opacity="0"/>
<stop offset="0.99" stop-color="#F7B32A" stop-opacity="0"/>
</linearGradient>
<linearGradient id="paint5_linear_36251_158856" x1="8.52312" y1="3.42983" x2="9.5215" y2="1.177" gradientUnits="userSpaceOnUse">
<stop offset="0.42" stop-color="#F4BC5D"/>
<stop offset="0.43" stop-color="#F4C060"/>
<stop offset="0.52" stop-color="#F9D972"/>
<stop offset="0.6" stop-color="#FCEB7E"/>
<stop offset="0.7" stop-color="#FEF586"/>
<stop offset="0.8" stop-color="#FFF989"/>
<stop offset="1" stop-color="#F9EA73"/>
</linearGradient>
<linearGradient id="paint6_linear_36251_158856" x1="-0.0767895" y1="3.14115" x2="9.90169" y2="3.79659" gradientUnits="userSpaceOnUse">
<stop offset="0.01" stop-color="#F1AD40" stop-opacity="0"/>
<stop offset="0.28" stop-color="#EF933E" stop-opacity="0"/>
<stop offset="0.37" stop-color="#F4AA4B" stop-opacity="0.53"/>
<stop offset="0.44" stop-color="#F9C057"/>
<stop offset="0.45" stop-color="#F9C35A"/>
<stop offset="0.49" stop-color="#FBD96D"/>
<stop offset="0.53" stop-color="#FDE97C"/>
<stop offset="0.59" stop-color="#FEF384"/>
<stop offset="0.66" stop-color="#FFF687"/>
<stop offset="0.93" stop-color="#E97724"/>
<stop offset="0.94" stop-color="#EE8D26"/>
<stop offset="0.95" stop-color="#F5AA29"/>
<stop offset="0.97" stop-color="#F6B129"/>
<stop offset="1" stop-color="#F7B32A"/>
</linearGradient>
<clipPath id="clip0_36251_158856">
<rect width="10" height="7.18884" fill="white"/>
</clipPath>
</defs>
</svg>
