<svg width="17" height="18" viewBox="0 0 17 18" fill="none" xmlns="http://www.w3.org/2000/svg">
<path d="M16.6657 12.9543L11.05 2.4519C9.962 0.417075 7.03895 0.417075 5.95014 2.4519L0.334454 12.9543C-0.66341 14.8208 0.691474 17.0749 2.81215 17.0749H14.188C16.3078 17.0749 17.6635 14.82 16.6657 12.9543ZM7.86258 6.87523C7.86258 6.52334 8.14816 6.23775 8.50005 6.23775C8.85194 6.23775 9.13753 6.52334 9.13753 6.87523V10.2751C9.13753 10.627 8.85194 10.9126 8.50005 10.9126C8.14816 10.9126 7.86258 10.627 7.86258 10.2751V6.87523ZM8.51707 13.675C8.04788 13.675 7.66274 13.2942 7.66274 12.825C7.66274 12.3558 8.03938 11.975 8.50856 11.975H8.51707C8.9871 11.975 9.36704 12.3558 9.36704 12.825C9.36704 13.2942 8.98625 13.675 8.51707 13.675Z" fill="#999999"/>
</svg>
