<svg width="14" height="14" viewBox="0 0 14 14" fill="none" xmlns="http://www.w3.org/2000/svg">
<g clip-path="url(#clip0_18297_79917)">
<path d="M14 5.47636C14 5.77455 13.7527 6.02182 13.4545 6.02182H12.1818V7.29454C12.1818 7.59273 11.9345 7.84 11.6364 7.84C11.3382 7.84 11.0909 7.59273 11.0909 7.29454V6.02182H9.81818C9.52 6.02182 9.27273 5.77455 9.27273 5.47636C9.27273 5.17818 9.52 4.93091 9.81818 4.93091H11.0909V3.65818C11.0909 3.36 11.3382 3.11273 11.6364 3.11273C11.9345 3.11273 12.1818 3.36 12.1818 3.65818V4.93091H13.4545C13.7527 4.93091 14 5.17818 14 5.47636ZM5.46182 5.81818C7.06909 5.81818 8.37091 4.51636 8.37091 2.90909C8.37091 1.30182 7.06182 0 5.46182 0C3.86182 0 2.55273 1.30182 2.55273 2.90909C2.55273 4.51636 3.85455 5.81818 5.46182 5.81818ZM6.90909 7.27273H4C1.04727 7.27273 0 9.43273 0 11.2873C0 12.9455 0.88 13.8182 2.54545 13.8182H8.35636C10.0218 13.8182 10.9018 12.9455 10.9018 11.2873C10.9018 9.43273 9.85455 7.27273 6.90182 7.27273H6.90909Z" fill="#999999"/>
</g>
<defs>
<clipPath id="clip0_18297_79917">
<rect width="14" height="13.8182" fill="white"/>
</clipPath>
</defs>
</svg>
