<svg width="32" height="32" viewBox="0 0 32 32" fill="none" xmlns="http://www.w3.org/2000/svg">
<rect x="9" y="11" width="14" height="13" fill="#424ADF"/>
<path d="M22.4812 5.80103H20.8413C20.8675 5.93913 20.8806 6.06342 20.8806 6.20153C20.8806 7.19588 20.2116 8.16261 19.3982 8.16261H12.4451C11.5793 8.16261 10.9233 7.18207 10.9233 6.20153C10.9233 6.06342 10.9495 5.93913 10.9627 5.80103H9.29655C7.44677 5.80103 7.00073 6.89205 7.00073 8.49406V24.3346C6.97449 26.0195 7.65668 27 9.42774 27H22.3368C24.1341 27 25 26.2404 25 24.307V8.46644C25 6.89205 24.1997 5.80103 22.4812 5.80103ZM20.7757 22.415H10.8971C10.5429 22.415 10.1624 21.9454 10.1624 21.5449C10.1624 21.172 10.4773 20.8406 10.8315 20.8406H20.6707C21.0249 20.8406 21.3398 21.1582 21.366 21.5449C21.3923 21.9592 21.1561 22.415 20.7757 22.415ZM20.8282 18.2166H10.9495C10.5953 18.2166 10.3592 17.7885 10.3592 17.4156C10.3592 17.0151 10.674 16.6422 11.0283 16.6422H20.8675C21.2217 16.6422 21.5366 17.0013 21.5628 17.4156C21.5628 17.8161 21.2086 18.2166 20.8282 18.2166ZM20.8282 13.9077H10.9495C10.5953 13.9077 10.3592 13.4796 10.3592 13.1067C10.3592 12.7062 10.674 12.3334 11.0283 12.3334H20.8675C21.2217 12.3334 21.5366 12.6924 21.5628 13.1067C21.5628 13.5072 21.2086 13.9077 20.8282 13.9077Z" fill="#12B886"/>
<path d="M13.5996 5H18.165C18.7291 5 19.2014 5.53861 19.1883 6.17389C19.1883 6.80917 18.716 7.34777 18.1912 7.34777H13.6127C13.0486 7.34777 12.6025 6.82298 12.6025 6.17389C12.6025 5.53861 13.0355 5 13.5996 5Z" fill="#424ADF"/>
</svg>
