<?xml version="1.0" encoding="UTF-8"?>
<svg width="204px" height="220px" viewBox="0 0 204 220" version="1.1" xmlns="http://www.w3.org/2000/svg" xmlns:xlink="http://www.w3.org/1999/xlink">
    <title>等待检测</title>
    <g id="avePC改版" stroke="none" stroke-width="1" fill="none" fill-rule="evenodd">
        <g id="04合约检测" transform="translate(-1282.000000, -460.000000)">
            <g id="等待检测" transform="translate(1282.000000, 460.000000)">
                <path d="M129.266654,124.863974 L41.1769178,147.631145 C34.9552695,149.231636 28.6168786,145.475482 27.0081673,139.234691 L0.367510841,35.4017449 C-1.22714486,29.1573203 2.51530938,22.7957246 8.7333389,21.1811259 L90.6864509,0 L111.662591,9.42470401 L137.63249,110.643355 C139.227145,116.887782 135.484687,123.249379 129.266654,124.863974 Z" id="路径" fill="#1C2335" fill-rule="nonzero"></path>
                <path d="M9.25230618,24.8746261 C4.80073912,26.0236727 2.12146576,30.5510306 3.26310911,34.9949965 L30.0455534,138.761992 C31.1972353,143.203379 35.7349713,145.876525 40.1891238,144.737492 L128.747695,121.984784 C133.19926,120.835736 135.878533,116.308379 134.736892,111.864414 L109.033307,12.2774006 L90.5009695,4 L9.25230618,24.8746261 Z" id="路径" fill="#22293B"></path>
                <path d="M111.819368,9.44296393 L98.2729948,12.879253 C96.2136657,13.4016381 94.1143568,12.1806148 93.584055,10.1520197 L91.0076108,0.296174096 C90.9845951,0.208126471 91.0147283,0.114868646 91.0851746,0.0561255266 C91.1556208,-0.00261759302 91.2539675,-0.0164954358 91.3383221,0.0204035233 L111.857018,8.9967443 C111.950614,9.03768872 112.007651,9.13249904 111.999168,9.2330341 C111.990686,9.33356916 111.918541,9.41780265 111.819368,9.44296393 L111.819368,9.44296393 Z" id="路径" fill="#424755" fill-rule="nonzero"></path>
                <path d="M104.544986,98.7593837 L64.4217682,108.939618 C63.7511416,109.109772 63.0393258,108.914488 62.5544551,108.427327 C62.0695844,107.940167 61.8853221,107.235141 62.0710781,106.577826 C62.256834,105.920512 62.7843875,105.41077 63.4550141,105.240616 L103.578232,95.0603823 C104.248858,94.8902283 104.960674,95.0855124 105.445545,95.5726729 C105.930416,96.0598334 106.114678,96.7648591 105.928922,97.4221736 C105.743166,98.0794881 105.215612,98.5892297 104.544986,98.7593837 Z" id="路径" fill="#CCCCCC" fill-rule="nonzero"></path>
                <path d="M113.538997,102.767617 L65.4342577,114.939068 C64.3923943,115.202679 63.3303047,114.586512 63.0620141,113.562822 C62.7937234,112.539132 63.4208279,111.495568 64.4626912,111.231957 L112.56743,99.0605028 C113.608874,98.7979758 114.669864,99.414133 114.937986,100.437175 C115.206109,101.460217 114.579966,102.503253 113.539004,102.767617 L113.538997,102.767617 Z" id="路径" fill="#CCCCCC" fill-rule="nonzero"></path>
                <circle id="a597741b-ffcf-4aba-98b0-6652ef5d57c9" fill="#22293B" fill-rule="nonzero" cx="47.5" cy="114.5" r="6.5"></circle>
                <path d="M100.465998,81.1119958 L46.7930952,94.8109709 C43.5633635,95.6314625 40.2732676,93.7049477 39.4384924,90.5044851 L28.1906442,47.1801544 C27.3631369,43.9778457 29.3061419,40.7156898 32.5339961,39.8880007 L86.2069202,26.1890256 C89.4366464,25.3685431 92.7267315,27.2950563 93.5615052,30.4955114 L104.809357,73.8198421 C105.636862,77.0221526 103.693854,80.2843082 100.465998,81.1119958 Z" id="路径" fill="#1C2335" fill-rule="nonzero"></path>
                <path d="M83.2987359,39.936877 L56.2183979,46.9637956 C55.7271449,47.1020425 55.2136019,46.833147 55.0433161,46.3485127 C54.9661216,46.1019316 54.9928887,45.8342037 55.1173409,45.6081084 C55.2417931,45.3820131 55.4529837,45.2174374 55.7013907,45.1529726 L83.2675126,38 C84.3810536,38.5687538 84.0880433,39.7320643 83.2984127,39.9369629 L83.2987359,39.936877 Z" id="b056fd3f-f1a0-44f0-b006-deff0bee637d-151" fill="#22293B" fill-rule="nonzero"></path>
                <path d="M85.2987229,43.9368808 L58.218386,50.9638002 C57.7271357,51.1020365 57.2136018,50.8331417 57.0433149,50.3485136 C56.9661215,50.1019321 56.9928896,49.8342042 57.1173424,49.608109 C57.2417952,49.3820139 57.452986,49.2174383 57.701393,49.1529734 L85.2675139,42 C86.3810549,42.5687538 86.088041,43.7320645 85.2984139,43.9369631 L85.2987229,43.9368808 Z" id="f1ea6668-a825-428d-96fe-a2c4e1b5a672-152" fill="#22293B" fill-rule="nonzero"></path>
                <path d="M52.2034849,55.836609 L43.8600095,57.9667564 C43.2926324,58.1110079 42.7146128,57.7724473 42.5680283,57.2100105 L40.0335185,47.4447048 C39.888075,46.8819777 40.2294307,46.3086948 40.7965126,46.1633098 L49.139988,44.0331659 C49.707335,43.889124 50.2852141,44.2276023 50.4319692,44.7899118 L52.9664826,54.5552282 C53.1119236,55.1179552 52.7705665,55.6912362 52.2034849,55.8366197 L52.2034849,55.836609 Z" id="ee9aa382-a9c9-40d0-8ed3-22ec2dd616d6-153" fill="#22293B" fill-rule="nonzero"></path>
                <path d="M87.302448,53.9831126 L46.2113657,64.9629341 C45.7229484,65.1044719 45.2123709,64.8291716 45.0430678,64.3329951 C44.9663166,64.08054 44.9929288,63.8064333 45.116664,63.5749517 C45.2403991,63.34347 45.4503734,63.1749748 45.6973488,63.1089771 L87.2717404,52 C88.3788562,52.5823052 88.087533,53.7733223 87.3024621,53.9831052 L87.302448,53.9831126 Z" id="be954d2b-d8b8-4d26-80a0-a319e99a4b10-154" fill="#22293B" fill-rule="nonzero"></path>
                <path d="M88.3024515,58.9830917 L47.2113645,69.9629342 C46.7229481,70.1044718 46.2123717,69.8291712 46.0430701,69.3329949 C45.9663166,69.0805396 45.9929273,68.8064318 46.1166619,68.5749489 C46.2403966,68.3434661 46.4503714,68.17497 46.6973476,68.1089725 L88.2717404,57 C89.3788562,57.5823019 89.087533,58.7733233 88.3024621,58.9831027 L88.3024515,58.9830917 Z" id="baaae9e4-1b4d-40c2-8a9d-f2abb078b489-155" fill="#22293B" fill-rule="nonzero"></path>
                <path d="M89.3024503,63.9831027 L48.2113645,74.9629342 C47.7229481,75.1044718 47.2123717,74.8291712 47.0430701,74.3329949 C46.9663166,74.0805396 46.9929273,73.8064318 47.1166619,73.5749489 C47.2403966,73.3434661 47.4503713,73.17497 47.6973476,73.1089725 L89.2717392,62 C90.3788549,62.5823019 90.0875353,63.7733233 89.3024609,63.9831027 L89.3024503,63.9831027 Z" id="a91bf4c9-37f6-4391-92ed-1882bd0ce21c-156" fill="#22293B" fill-rule="nonzero"></path>
                <path d="M90.302448,67.9830934 L49.2113658,78.9629341 C48.7229485,79.104472 48.212371,78.8291714 48.0430679,78.3329942 C47.9663167,78.0805382 47.9929288,77.8064307 48.1166639,77.5749481 C48.2403989,77.3434656 48.4503732,77.1749694 48.6973489,77.1089708 L90.2717404,66 C91.3788562,66.5823024 91.087533,67.7733248 90.3024621,67.9831044 L90.302448,67.9830934 Z" id="efb98e07-468b-4c85-9a64-ee4cc5493d6f-157" fill="#22293B" fill-rule="nonzero"></path>
                <path d="M91.302448,72.9831029 L50.2113657,83.9629352 C49.7229476,84.1044708 49.2123709,83.8291692 49.0430678,83.3329921 C48.9663166,83.0805368 48.9929288,82.80643 49.116664,82.5749482 C49.2403991,82.3434664 49.4503734,82.174971 49.6973488,82.1089734 L91.2717404,71 C92.3788562,71.5823019 92.087533,72.7733234 91.3024621,72.9831029 L91.302448,72.9831029 Z" id="aeb1db98-32e5-40b8-ab89-fdad6a3263dc-158" fill="#22293B" fill-rule="nonzero"></path>
                <path d="M48.6731787,116.976526 C48.5287408,117.016447 48.3760409,117.005228 48.2381079,116.944561 L48.2295538,116.940798 L46.4226885,116.124331 C46.1945436,116.021396 46.0353431,115.79643 46.0051683,115.534333 C45.9749935,115.272237 46.078439,115.012917 46.2764649,114.854241 C46.4744909,114.695565 46.7369454,114.661692 46.9647795,114.765406 L48.1355987,115.29621 L49.6698494,111.449244 C49.7417048,111.269113 49.8777523,111.126785 50.0480624,111.053571 C50.2183725,110.980357 50.4089939,110.982255 50.5779911,111.058848 L50.5782233,111.058949 L50.5690033,111.084107 L50.5786057,111.058844 C50.9302576,111.218746 51.0940767,111.651906 50.9447759,112.027049 L49.1397546,116.550234 C49.0549394,116.761618 48.8825953,116.918839 48.6735578,116.975521 L48.6731787,116.976526 Z" id="be265de5-288f-49a7-867d-c42e7cdbf4db-159" fill="#2D364D" fill-rule="nonzero"></path>
                <path d="M163.287037,164 L71.712963,164 C65.2470999,163.992695 60.0073038,158.751787 60,152.284553 L60,44.7154472 C60.0073038,38.2482128 65.2470999,33.0073054 71.712963,33 L156.907678,33 L175,47.4238136 L175,152.284553 C174.992696,158.751787 169.7529,163.992695 163.287037,164 L163.287037,164 Z" id="路径" fill="#1C2335" fill-rule="nonzero"></path>
                <path d="M72.3213115,37 C67.727725,37.0051818 64.0051791,40.7296973 64,45.3257143 L64,152.674286 C64.0051771,157.270303 67.7277242,160.99482 72.3213115,161 L163.678689,161 C168.272276,160.99482 171.994823,157.270303 172,152.674286 L172,49.6499734 L156.13776,37 L72.3213115,37 Z" id="路径" fill="#22293B"></path>
                <path d="M145.074867,69 L103.925133,69 C102.861911,69 102,68.1045695 102,67 C102,65.8954305 102.861911,65 103.925133,65 L145.074867,65 C146.138089,65 147,65.8954305 147,67 C147,68.1045695 146.138089,69 145.074867,69 L145.074867,69 Z" id="路径" fill="#558BED" fill-rule="nonzero"></path>
                <path d="M154.033712,75 L103.96099,75 C102.877538,74.9985096 102,74.103516 102,73 C102,71.896484 102.877538,71.0014904 103.96099,71 L154.033712,71 C154.735883,70.9990371 155.385121,71.3800235 155.736481,71.9992213 C156.08784,72.6184191 156.08784,73.3815809 155.736481,74.0007787 C155.385121,74.6199765 154.735883,75.0009629 154.033712,75 L154.033712,75 Z" id="路径" fill="#558BED" fill-rule="nonzero"></path>
                <path d="M145.074932,94 L103.925068,94 C102.861882,94 102,94.8954305 102,96 C102,97.1045695 102.861882,98 103.925068,98 L145.074932,98 C146.138118,98 147,97.1045695 147,96 C147,94.8954305 146.138118,94 145.074932,94 Z" id="路径" fill="#22293B"></path>
                <path d="M154.03646,101 L103.96354,101 C102.879107,101 102,101.895431 102,103 C102,104.104569 102.879107,105 103.96354,105 L154.03646,105 C155.120893,105 156,104.104569 156,103 C156,101.895431 155.120893,101 154.03646,101 Z" id="路径" fill="#1F273C" fill-rule="nonzero"></path>
                <path d="M145.074867,127 L103.925133,127 C102.861911,127 102,126.104569 102,125 C102,123.895431 102.861911,123 103.925133,123 L145.074867,123 C146.138089,123 147,123.895431 147,125 C147,126.104569 146.138089,127 145.074867,127 L145.074867,127 Z" id="路径" fill="#22293B"></path>
                <path d="M154.033712,134 L103.96099,134 C102.877538,133.99851 102,133.103516 102,132 C102,130.896484 102.877538,130.00149 103.96099,130 L154.033712,130 C154.735883,129.999037 155.385121,130.380023 155.736481,130.999221 C156.08784,131.618419 156.08784,132.381581 155.736481,133.000779 C155.385121,133.619977 154.735883,134.000963 154.033712,134 L154.033712,134 Z" id="路径" fill="#22293B"></path>
                <circle id="abdb8e2f-a218-463c-85f4-c869fef49971" fill="#558BED" fill-rule="nonzero" cx="87.5" cy="69.5" r="6.5"></circle>
                <path d="M86.3491418,72 C86.1935225,72.0002496 86.0420371,71.9524019 85.9175331,71.8636725 L85.909812,71.8581689 L84.2841433,70.6762741 C84.0786758,70.5272365 83.9726421,70.2852286 84.0060849,70.0416423 C84.0395276,69.7980559 84.2073508,69.5900089 84.4461776,69.4960682 C84.6850045,69.4021274 84.9584423,69.4366077 85.1632302,69.5864878 L86.2162093,70.3539029 L88.7044508,67.2687474 C88.8209772,67.1242922 88.9931111,67.0297475 89.1829847,67.0059123 C89.3728582,66.982077 89.5649178,67.0309038 89.7169119,67.141651 L89.7171184,67.1418 L89.7016762,67.1621794 L89.7175387,67.1418 C90.0336833,67.3727201 90.0934438,67.8032972 89.8511158,68.1042293 L86.9243993,71.7314246 C86.7871565,71.9008223 86.5747302,71.9998084 86.3497757,71.9991867 L86.3491418,72 Z" id="ba7dbbd6-0052-44b1-a552-47a8298b8d3e-160" fill="#FFFFFF" fill-rule="nonzero"></path>
                <path d="M94,99.4994646 C94.00066,101.223058 93.3162347,102.876296 92.0973345,104.095377 C90.8784342,105.314458 89.2249381,105.999487 87.5007054,105.999721 C87.4448432,106.000837 87.3889643,105.998602 87.3333697,105.993031 C83.7661284,105.901581 80.9396432,102.952465 81.0009797,99.3859006 C81.0623161,95.8193363 83.9885368,92.9690796 87.5568147,93.0002533 C91.1250926,93.031427 94.0010314,95.9323735 94,99.4994646 L94,99.4994646 Z" id="路径" fill="#22293B" fill-rule="nonzero"></path>
                <circle id="e4a71040-498e-4958-ad41-c2d79154b8f7" fill="#22293B" fill-rule="nonzero" cx="87.5" cy="128.5" r="6.5"></circle>
                <path d="M174.760394,49 L160.833487,49 C158.71631,49 157,47.2071066 157,44.9954637 L157,34.2502857 C157,34.1542913 157.052559,34.0667542 157.135288,34.0249639 C157.218017,33.9831737 157.316339,33.994494 157.388369,34.0541027 L174.909161,48.5535273 C174.989088,48.6196636 175.020189,48.731398 174.986671,48.8319923 C174.953152,48.9325866 174.862359,49 174.760394,49 Z" id="路径" fill="#424755" fill-rule="nonzero"></path>
                <path d="M94,99.4526861 C94.0006878,101.188683 93.2875032,102.853818 92.0173853,104.081671 C90.7472674,105.309525 89.0242922,105.999484 87.2276081,105.999719 C87.1693985,106.000843 87.1111717,105.998592 87.0532409,105.99298 C85.2774309,101.713274 85.7678817,96.8663268 88.3679691,93 C91.6210595,93.5388015 93.9993441,96.2636313 94,99.4526861 Z" id="路径" fill="#558BED" fill-rule="nonzero"></path>
                <path d="M102,96.0018198 C102.001842,94.8970661 102.834838,94.0019792 103.862956,94 L113.777271,94 C114.356333,95.265589 114.767892,96.6119528 115,98 L103.862956,98 C102.835495,97.9997434 102.002109,97.1058654 102,96.0018198 L102,96.0018198 Z" id="路径" fill="#558BED" fill-rule="nonzero"></path>
                <path d="M116,101 C116.000709,102.350978 115.824716,103.696069 115.476635,105 L103.969781,105 C102.881901,105 102,104.104569 102,103 C102,101.895431 102.881901,101 103.969781,101 L116,101 Z" id="路径" fill="#558BED" fill-rule="nonzero"></path>
                <path d="M140.689332,124.000903 C140.079098,124.983503 138.773437,125.294192 137.773012,124.694858 L113.016908,109.863248 C112.369749,109.475529 111.982342,108.778149 112.000619,108.033805 C112.018897,107.289461 112.440082,106.611236 113.105518,106.254611 C113.770955,105.897986 114.579547,105.917141 115.226706,106.30486 L139.982807,121.13647 C140.983204,121.735848 141.29952,123.018277 140.689332,124.000903 Z" id="路径" fill="#20232C" fill-rule="nonzero"></path>
                <path d="M116.517679,109.852034 C112.936763,115.721968 106.172007,118.85711 99.3778061,117.795547 C92.5836054,116.733984 87.0979618,111.684774 85.4788224,105.002355 C83.859683,98.3199357 86.4259098,91.3202961 91.980875,87.2673573 C97.5358402,83.2144184 104.985589,82.9063374 110.856314,86.4867718 C118.863384,91.3825468 121.395995,101.834993 116.517679,109.852034 Z M91.1166203,94.3604554 C87.4493699,100.371909 89.3503789,108.217648 95.3626429,111.884404 C101.374907,115.55116 109.221704,113.650408 112.888955,107.638955 C116.556206,101.627501 114.655197,93.7817624 108.642934,90.1150057 C102.629344,86.456747 94.7889399,88.3559507 91.1166203,94.3604554 L91.1166203,94.3604554 Z" id="形状" fill="#20232C" fill-rule="nonzero"></path>
                <circle id="椭圆形" fill="#E6A37B" fill-rule="nonzero" cx="170.5" cy="94.5" r="8.5"></circle>
                <path d="M170.184935,143.309405 C169.848313,142.258224 169.975131,141.11304 170.533545,140.161417 C171.091959,139.209794 172.028924,138.542124 173.109166,138.326063 C173.278382,138.292952 173.449711,138.271808 173.621887,138.262786 L182.71223,123.64048 L174.408682,115.728894 C173.545306,114.906349 173.188816,113.68269 173.47493,112.523771 C173.761045,111.364852 174.645742,110.448984 175.792213,110.124841 C176.938684,109.800699 178.170533,110.118155 179.018789,110.956353 L190.483587,122.286233 L190.506661,122.314433 C191.234892,123.42498 191.149987,124.882795 190.297782,125.900886 L177.560836,140.998434 C177.598864,141.119457 177.63053,141.242395 177.655704,141.366743 C177.871138,142.449468 177.615466,143.57288 176.952887,144.454891 C176.290308,145.336902 175.283759,145.893733 174.185984,145.985562 C174.076267,145.995187 173.967095,146 173.858467,146 C172.182477,145.992974 170.700648,144.907642 170.184935,143.309405 Z" id="路径" fill="#E6A37B" fill-rule="nonzero"></path>
                <polygon id="路径" fill="#E6A37B" fill-rule="nonzero" points="156.999226 215 152.256218 214.999662 150 199 157 199.000338"></polygon>
                <path d="M157.999731,220 L144,219.999449 L144,219.810623 C144,218.269529 144.574082,216.79155 145.595996,215.70184 C146.61791,214.61213 148.003925,214 149.449119,214 L149.449473,214 L158,214.000378 L157.999731,220 Z" id="路径" fill="#20232C" fill-rule="nonzero"></path>
                <polygon id="路径" fill="#E6A37B" fill-rule="nonzero" points="199 209.860435 195.288885 212 185 199.157836 190.477189 196"></polygon>
                <path d="M203,211.83576 L190.865333,219 L190.773942,218.847811 C190.028039,217.605718 189.810306,216.120675 190.168646,214.719393 C190.526985,213.31811 191.432041,212.115381 192.684701,211.375807 L192.685001,211.37563 L200.096428,207 L203,211.83576 Z" id="路径" fill="#20232C" fill-rule="nonzero"></path>
                <path d="M149.218974,208.532663 C146.302533,174.116272 144.567581,142.143825 155.228806,129.101136 L155.311251,129 L173.253176,136.192803 L173.282739,136.257097 C173.343252,136.389163 179.310255,149.543412 177.918355,158.39123 L182.343913,178.79354 L196.773882,203.00842 C197.008863,203.402742 197.063665,203.879177 196.924369,204.316739 C196.785074,204.754301 196.465083,205.110898 196.045653,205.295974 L189.774784,208.061046 C189.043271,208.380097 188.18897,208.112467 187.768992,207.432685 L172.071879,181.78035 L163.205687,162.104757 C163.106645,161.88521 162.873158,161.759344 162.635784,161.797538 C162.398411,161.835733 162.215972,162.028525 162.190483,162.268109 L157.27579,208.567764 C157.190711,209.382767 156.504482,210.00131 155.686832,210 L150.811849,210 C149.983008,209.995146 149.293497,209.359978 149.218974,208.532663 L149.218974,208.532663 Z" id="路径" fill="#20232C" fill-rule="nonzero"></path>
                <path d="M156.326949,129.124863 L156.242078,129.084309 L156.228822,128.991168 C155.563364,124.342038 156.35105,119.176365 158.569845,113.637777 C160.830214,108.035164 166.859777,104.929615 172.743814,106.337421 L172.743814,106.337421 C176.059363,107.152944 178.880602,109.318516 180.521693,112.307689 C182.141715,115.266257 182.445162,118.767226 181.35827,121.959579 C178.561039,130.124662 174.932397,137.764239 174.896072,137.840529 L174.820065,138 L156.326949,129.124863 Z" id="路径" fill="#558BED" fill-rule="nonzero"></path>
                <path d="M136.464667,117.83683 C137.327055,117.141846 138.438967,116.855387 139.521194,117.049384 C140.603421,117.243381 141.553162,117.899406 142.131932,118.852728 C142.221908,119.002323 142.301468,119.15819 142.370023,119.319176 L159.177208,122.786388 L163.652303,112.053114 C164.117539,110.937132 165.133779,110.16185 166.314135,110.022423 C167.494492,109.882995 168.657357,110.400874 169.360022,111.3789 C170.062686,112.356926 170.19704,113.644621 169.711932,114.751753 L163.154362,129.715823 L163.136137,129.747862 C162.3552,130.837419 160.966478,131.275065 159.719664,130.824539 L141.195598,124.048792 C141.096058,124.128112 140.99251,124.202047 140.88538,124.270294 C139.951254,124.860921 138.814631,125.01675 137.760918,124.698651 C136.707205,124.380552 135.836491,123.618741 135.367411,122.604509 C135.32011,122.503304 135.277486,122.400904 135.23954,122.297309 C134.660638,120.696483 135.15483,118.897211 136.464667,117.83683 L136.464667,117.83683 Z" id="路径" fill="#E6A37B" fill-rule="nonzero"></path>
                <path d="M202.414927,103.423253 C201.588179,101.948301 200.383633,100.597337 198.791224,100.052118 C196.734676,99.3480307 194.507828,100.097734 192.39343,100.59828 C190.764333,100.983909 189.062376,101.219956 187.42031,100.894524 C185.778412,100.569075 184.194537,99.6069561 183.447475,98.0992558 C182.348392,95.881226 183.274278,93.2362259 183.207389,90.7583981 C183.137759,88.0254896 181.826526,85.4758632 179.650074,83.8413789 C177.473621,82.2068946 174.672639,81.6683062 172.051138,82.3802134 C170.026497,81.7919152 168.193317,81.7374954 166.940991,83.3046191 C163.65988,83.3046385 161,85.9827483 161,89.2863701 L166.680765,89.2863701 C166.411442,90.744827 166.719238,92.2515045 167.5384,93.4845354 C168.541249,94.9679463 170.285017,96.0410302 170.620666,97.8033597 C170.946075,99.5111531 169.793061,101.131564 168.58357,102.372956 C167.374246,103.614346 165.971246,104.844408 165.59362,106.541273 C165.362264,107.829424 165.624987,109.157979 166.328737,110.258667 C167.03127,111.345987 167.902807,112.312549 168.910003,113.121375 C173.447965,117.035789 178.841249,119.813816 184.649296,121.228526 C188.739528,122.220023 193.21336,122.477031 197.010432,120.653047 C200.080781,119.178128 202.405551,116.486458 203.430069,113.220246 C204.454588,109.954035 204.086971,106.406211 202.414931,103.423257 L202.414927,103.423253 Z" id="路径" fill="#20232C" fill-rule="nonzero"></path>
                <path d="M203.645833,220 L136.354167,220 C136.158566,220 136,219.776142 136,219.5 C136,219.223858 136.158566,219 136.354167,219 L203.645833,219 C203.841434,219 204,219.223858 204,219.5 C204,219.776142 203.841434,220 203.645833,220 Z" id="路径" fill="#1C2335" fill-rule="nonzero"></path>
            </g>
        </g>
    </g>
</svg>