<svg width="16" height="16" viewBox="0 0 16 16" fill="none" xmlns="http://www.w3.org/2000/svg">
<path d="M13.2423 2.5H2.7501C2.61104 2.5 2.49854 2.6125 2.49854 2.75156V13.2437C2.49854 13.3828 2.61104 13.4953 2.7501 13.4953H13.2423C13.3813 13.4953 13.4938 13.3828 13.4938 13.2437V10.5469H10.386C8.97979 10.5469 7.83604 9.40312 7.83604 7.99687C7.83604 6.59062 8.97979 5.44688 10.386 5.44688H13.4938V2.75156C13.4938 2.6125 13.3813 2.5 13.2423 2.5Z" fill="#F5F5F5"/>
<path d="M8.93604 7.99687C8.93604 8.79687 9.5876 9.44687 10.386 9.44687H13.4938V6.54688H10.386C9.58603 6.54688 8.93604 7.19687 8.93604 7.99687ZM11.0267 8.01562C11.0267 8.31875 10.7798 8.56563 10.4767 8.56563C10.1735 8.56563 9.92666 8.31875 9.92666 8.01562C9.92666 7.7125 10.1735 7.46562 10.4767 7.46562C10.7798 7.46562 11.0267 7.7125 11.0267 8.01562Z" fill="#F5F5F5"/>
</svg>
