<svg width="16" height="16" viewBox="0 0 16 16" fill="none" xmlns="http://www.w3.org/2000/svg">
<path d="M13.5385 3.32061V3.07692C13.5385 1.09292 12.4455 0 10.4615 0H2.25641C1.01169 0 0 1.01169 0 2.25641V12.9231C0 14.9071 1.09292 16 3.07692 16H12.9231C14.9071 16 16 14.9071 16 12.9231V6.35897C16 4.59077 15.1319 3.53066 13.5385 3.32061ZM14.7692 11.0769H11.6923C10.9005 11.0769 10.2564 10.4328 10.2564 9.64103C10.2564 8.84923 10.9005 8.20513 11.6923 8.20513H14.7692V11.0769ZM2.25641 1.23077H10.4615C11.7555 1.23077 12.3077 1.78297 12.3077 3.07692V3.28205H2.25641C1.69108 3.28205 1.23077 2.82174 1.23077 2.25641C1.23077 1.69108 1.69108 1.23077 2.25641 1.23077ZM12.9231 14.7692H3.07692C1.78297 14.7692 1.23077 14.217 1.23077 12.9231V4.26583C1.53846 4.42336 1.88718 4.51282 2.25641 4.51282H12.9231C14.217 4.51282 14.7692 5.06503 14.7692 6.35897V6.97436H11.6923C10.2219 6.97436 9.02564 8.17067 9.02564 9.64103C9.02564 11.1114 10.2219 12.3077 11.6923 12.3077H14.7692V12.9231C14.7692 14.217 14.217 14.7692 12.9231 14.7692ZM12.1108 8.82051H12.119C12.5727 8.82051 12.9395 9.1881 12.9395 9.64103C12.9395 10.0939 12.5727 10.4615 12.119 10.4615C11.6661 10.4615 11.2944 10.0939 11.2944 9.64103C11.2944 9.1881 11.6579 8.82051 12.1108 8.82051Z" fill="#222"/>
</svg>
