<svg width="16" height="16" viewBox="0 0 16 16" fill="none" xmlns="http://www.w3.org/2000/svg">
<path d="M13.2422 2.5H2.75C2.61094 2.5 2.49844 2.6125 2.49844 2.75156V13.2437C2.49844 13.3828 2.61094 13.4953 2.75 13.4953H13.2422C13.3813 13.4953 13.4937 13.3828 13.4937 13.2437V10.5469H10.3859C8.97969 10.5469 7.83594 9.40312 7.83594 7.99687C7.83594 6.59062 8.97969 5.44688 10.3859 5.44688H13.4937V2.75156C13.4937 2.6125 13.3813 2.5 13.2422 2.5Z" fill="#222222"/>
<path d="M8.93594 7.99687C8.93594 8.79687 9.5875 9.44687 10.3859 9.44687H13.4937V6.54688H10.3859C9.58594 6.54688 8.93594 7.19687 8.93594 7.99687ZM11.0266 8.01562C11.0266 8.31875 10.7797 8.56563 10.4766 8.56563C10.1734 8.56563 9.92656 8.31875 9.92656 8.01562C9.92656 7.7125 10.1734 7.46562 10.4766 7.46562C10.7797 7.46562 11.0266 7.7125 11.0266 8.01562Z" fill="#222222"/>
</svg>
