<svg width="32" height="32" viewBox="0 0 32 32" fill="none" xmlns="http://www.w3.org/2000/svg">
<circle cx="16" cy="16" r="9" fill="#424ADF"/>
<path d="M15.9999 4C9.3723 4 4 9.3723 4 15.9999C4 22.6277 9.3723 28 15.9999 28C22.6277 28 27.9997 22.6277 27.9997 15.9999C27.9997 9.3723 22.6276 4 15.9999 4ZM10.8683 11.665C10.8683 11.4563 10.9429 11.2771 11.0931 11.1272C11.2429 10.9774 11.4219 10.9025 11.6309 10.9025H21.9732C22.1818 10.9025 22.3635 10.9774 22.518 11.1272C22.6715 11.277 22.7491 11.4563 22.7491 11.665V12.6155C22.7491 12.8246 22.6715 13.0061 22.518 13.1603C22.3635 13.3145 22.1842 13.3918 21.9732 13.3918H11.6309C11.4219 13.3918 11.2429 13.3145 11.0931 13.1603C10.9429 13.0061 10.8683 12.8269 10.8683 12.6155V11.665ZM9.17132 15.0209C9.17132 14.8122 9.24623 14.6329 9.39573 14.4831C9.54559 14.3336 9.72482 14.2587 9.93352 14.2587H19.906C19.7701 14.2948 19.6384 14.3426 19.5113 14.4015C19.3842 14.4603 19.2708 14.5537 19.1715 14.6808C18.8802 15.0075 18.5922 15.3571 18.3016 15.7333C18.0226 16.0956 17.7465 16.4602 17.4735 16.827H9.93352C9.72482 16.827 9.54561 16.7501 9.39573 16.5959C9.24625 16.4413 9.17132 16.2621 9.17132 16.051V15.0209V15.0209ZM9.93352 20.2647V20.2671C9.72482 20.2671 9.54561 20.1922 9.39573 20.0424C9.24625 19.8926 9.17132 19.709 9.17132 19.4936V18.4745C9.17132 18.2658 9.24623 18.0865 9.39573 17.9367C9.54559 17.7872 9.72482 17.7123 9.93352 17.7123H16.7948C16.7681 17.7303 16.743 17.7551 16.7202 17.7872C16.6975 17.8186 16.677 17.8437 16.659 17.8618C16.5684 17.9888 16.5141 18.1387 16.4954 18.3089C16.4777 18.4788 16.4954 18.6447 16.5499 18.8035C16.6048 18.9624 16.6931 19.0962 16.8156 19.2029C16.938 19.3119 17.0901 19.3661 17.2713 19.3661H17.9112L18.4944 19.3524V19.4614C18.4944 19.516 18.4971 19.6045 18.5015 19.727C18.5062 19.8497 18.5085 20.0287 18.5085 20.2648L9.93352 20.2647ZM22.726 18.5062C22.6581 18.529 22.5467 18.54 22.3926 18.54H21.6581C21.4581 18.54 21.3079 18.5902 21.2106 18.6898C21.111 18.7899 21.0611 18.9216 21.0611 19.0848V20.4029C21.0611 20.5574 20.9929 20.7117 20.8567 20.8661C20.7206 21.0203 20.5574 21.0976 20.3664 21.0976H19.838C19.7012 21.0976 19.5815 21.045 19.4771 20.9434C19.3731 20.8387 19.3226 20.6575 19.3226 20.3942C19.3226 20.2761 19.325 20.2013 19.3297 20.1695C19.334 20.1377 19.336 20.0969 19.336 20.0467C19.336 19.9969 19.3387 19.9129 19.3437 19.7949C19.3477 19.6771 19.35 19.4728 19.35 19.1848C19.35 18.9577 19.3116 18.7945 19.234 18.6945C19.1571 18.5948 19.0186 18.5447 18.8189 18.5447H18.0838C17.8754 18.5447 17.7437 18.5015 17.6891 18.4152C17.6346 18.3293 17.6801 18.1951 17.8252 18.0162C17.9614 17.8346 18.1112 17.6232 18.2814 17.3854C18.4544 17.1374 18.6261 16.8885 18.7965 16.6386C18.9734 16.3801 19.146 16.1283 19.3116 15.8831C19.4794 15.6383 19.6404 15.4206 19.7925 15.2296C19.856 15.157 19.9377 15.1005 20.0373 15.0596C20.137 15.0189 20.2431 14.9959 20.3507 14.9917C20.4598 14.9867 20.5598 14.9981 20.65 15.0256C20.739 15.0526 20.8096 15.0981 20.8547 15.1617C20.9634 15.3523 21.0882 15.561 21.229 15.7924C21.3698 16.0239 21.5146 16.2553 21.6715 16.4914C21.8257 16.7272 21.9778 16.9586 22.127 17.1904C22.2775 17.4216 22.4136 17.6373 22.5427 17.8346L22.7471 18.1751C22.8016 18.2657 22.8284 18.3383 22.8284 18.3928C22.8284 18.4451 22.7948 18.4858 22.726 18.5062Z" fill="#12B886"/>
</svg>
