<svg width="50" height="14" viewBox="0 0 50 14" fill="none" xmlns="http://www.w3.org/2000/svg">
<path d="M12.218 10.7482L11.6008 9.70849H2.73048L7.17255 2.02289L6.01267 0H4.51587C4.19446 0.000721346 3.879 0.0867449 3.60171 0.249283C3.32443 0.411822 3.09525 0.64505 2.9376 0.925144L0.253303 5.66133C0.0972264 5.93471 0.0151367 6.24406 0.0151367 6.55886C0.0151367 6.87365 0.0972264 7.18301 0.253303 7.45639L2.13259 10.7703L2.9376 12.1898C3.07559 12.4333 3.26806 12.6415 3.49995 12.7982C3.73184 12.9548 3.99685 13.0557 4.27423 13.0929C4.35383 13.104 4.43412 13.1095 4.51449 13.1094H9.82371C10.145 13.1096 10.4606 13.0246 10.7384 12.863C11.0161 12.7015 11.246 12.4692 11.4047 12.1898L12.2042 10.7703L12.218 10.7482Z" fill="url(#paint0_linear_34887_161646)"/>
<path d="M11.6008 9.70878H2.74707L2.78435 9.68668L5.75586 7.89991C6.21429 7.60166 6.55949 7.42768 6.88398 7.37106C6.89133 7.37041 6.89873 7.37041 6.90608 7.37106L6.96959 7.36278L7.08006 7.35449H7.14634C7.19945 7.35594 7.25245 7.36009 7.30513 7.36692C7.64343 7.41249 8.00659 7.58095 8.50092 7.86677L11.5843 9.69773L11.6008 9.70878Z" fill="url(#paint1_linear_34887_161646)"/>
<path d="M12.218 10.7488L12.2028 10.775L11.402 12.189C11.2439 12.4683 11.0145 12.7007 10.7372 12.8622C10.4599 13.0238 10.1446 13.1088 9.82369 13.1086H4.51447C4.43409 13.1086 4.35381 13.1031 4.27421 13.092C3.99637 13.0552 3.73085 12.9544 3.49847 12.7978C3.26609 12.6411 3.07316 12.4327 2.93482 12.189L2.13257 10.7709L2.74565 9.71039L2.77741 9.69106L5.75444 7.89601C6.21425 7.59775 6.55807 7.42239 6.88394 7.36716C6.89129 7.3665 6.89869 7.3665 6.90604 7.36716L6.96955 7.35887L7.08002 7.35059H7.1463C7.19941 7.35203 7.25241 7.35618 7.30509 7.36301C7.64339 7.40858 8.00516 7.57842 8.4995 7.86287L11.5842 9.69797L11.6022 9.70901L12.218 10.7488Z" fill="url(#paint2_linear_34887_161646)"/>
<g opacity="0.5">
<path d="M8.4909 7.86188C7.31998 7.17976 6.88226 7.15905 5.74585 7.89917L2.73706 9.70803L5.74585 8.28441C6.88226 7.54292 7.31583 7.56915 8.4909 8.24575L11.5922 9.70941L8.4909 7.86188Z" fill="url(#paint3_linear_34887_161646)"/>
</g>
<path d="M14.0868 7.45639L12.2047 10.7703L12.2199 10.7441L11.6013 9.70849L7.18273 2.01322V2.02289L6.01318 0H9.82561C10.1472 0.00090393 10.4627 0.0869911 10.7402 0.249499C11.0177 0.412006 11.2472 0.645131 11.4053 0.925144L14.0868 5.66133C14.2422 5.93493 14.3239 6.2442 14.3239 6.55886C14.3239 6.87352 14.2422 7.18279 14.0868 7.45639Z" fill="url(#paint4_linear_34887_161646)"/>
<path d="M0.238167 7.45639L2.12159 10.7703L2.10641 10.7441L2.72363 9.70435L7.14223 2.00908V2.01875L8.31454 0H4.50073C4.17932 0.000721346 3.86386 0.0867449 3.58657 0.249283C3.30929 0.411822 3.08012 0.64505 2.92247 0.925144L0.238167 5.66133C0.0820897 5.93471 0 6.24406 0 6.55886C0 6.87365 0.0820897 7.18301 0.238167 7.45639Z" fill="url(#paint5_linear_34887_161646)"/>
<path opacity="0.51" d="M8.31468 0L7.16309 2.00356L7.37711 2.34462L8.31468 0Z" fill="url(#paint6_linear_34887_161646)"/>
<path d="M48.3099 9.94174V3.47954H49.8122V9.94174H48.3099ZM48.1221 1.89989C48.1221 1.33652 48.4866 0.960938 49.061 0.960938C49.6465 0.960938 50 1.33652 50 1.89989C50 2.46326 49.6465 2.8278 49.061 2.8278C48.4535 2.8278 48.1221 2.46326 48.1221 1.89989Z" fill="black"/>
<path d="M43.8694 10.075C42.3118 10.075 40.688 8.83776 40.688 6.71684C40.688 4.57382 42.2566 3.34766 43.8915 3.34766C44.7421 3.34766 45.4932 3.6901 45.9682 4.25347V3.48021H47.4595V9.94241H45.9682V9.10288C45.4932 9.71044 44.72 10.075 43.8694 10.075ZM44.1124 8.70521C45.2281 8.70521 46.0455 7.81044 46.0455 6.69474C46.0455 5.59009 45.2281 4.70638 44.1124 4.70638C43.0078 4.70638 42.1572 5.57905 42.1572 6.69474C42.1572 7.82149 43.0078 8.70521 44.1124 8.70521Z" fill="black"/>
<path d="M38.4233 9.17974C38.4233 8.63846 38.7658 8.27393 39.3292 8.27393C39.8925 8.27393 40.2239 8.63846 40.2239 9.17974C40.2239 9.70997 39.8815 10.0745 39.3181 10.0745C38.7547 10.0745 38.4233 9.70997 38.4233 9.17974Z" fill="black"/>
<path d="M34.6729 10.075C32.6403 10.075 31.2595 8.59474 31.2595 6.72788C31.2595 4.83893 32.7287 3.34766 34.6177 3.34766C36.5397 3.34766 37.9427 4.76161 37.9427 6.67265V7.23602H32.6845C32.8944 8.15288 33.6124 8.76044 34.6729 8.76044C35.5124 8.76044 36.1531 8.31858 36.4624 7.62265L37.6886 8.32963C37.1252 9.37904 36.131 10.075 34.6729 10.075ZM34.6177 4.66219C33.7229 4.66219 33.027 5.19242 32.7618 5.98777H36.4293C36.2084 5.1151 35.5456 4.66219 34.6177 4.66219Z" fill="black"/>
<path d="M27.4851 9.94121L25.0217 3.479H26.5793L28.2473 8.03016L29.8822 3.479H31.4177L28.9874 9.94121H27.4851Z" fill="black"/>
<path d="M18.5508 9.94041L21.4229 1.87646H22.9362L25.8083 9.94041H24.2397L23.7426 8.50436H20.6165L20.1194 9.94041H18.5508ZM22.1851 4.00844L21.1246 7.06832H23.2455L22.1851 4.00844Z" fill="black"/>
<defs>
<linearGradient id="paint0_linear_34887_161646" x1="10.6614" y1="11.944" x2="0.296292" y2="4.4829" gradientUnits="userSpaceOnUse">
<stop stop-color="#8B4FDD"/>
<stop offset="1" stop-color="#12B886"/>
</linearGradient>
<linearGradient id="paint1_linear_34887_161646" x1="10.4714" y1="9.49948" x2="9.26424" y2="5.98872" gradientUnits="userSpaceOnUse">
<stop stop-color="#8B4FDD"/>
<stop offset="1" stop-color="#12B886"/>
</linearGradient>
<linearGradient id="paint2_linear_34887_161646" x1="10.9315" y1="12.5967" x2="6.34349" y2="6.38227" gradientUnits="userSpaceOnUse">
<stop stop-color="#8B4FDD"/>
<stop offset="1" stop-color="#12B886"/>
</linearGradient>
<linearGradient id="paint3_linear_34887_161646" x1="10.4626" y1="9.49941" x2="9.24827" y2="5.97918" gradientUnits="userSpaceOnUse">
<stop stop-color="#8B4FDD"/>
<stop offset="1" stop-color="#12B886"/>
</linearGradient>
<linearGradient id="paint4_linear_34887_161646" x1="13.2638" y1="9.81287" x2="5.36085" y2="5.09714" gradientUnits="userSpaceOnUse">
<stop stop-color="#8B4FDD"/>
<stop offset="1" stop-color="#12B886"/>
</linearGradient>
<linearGradient id="paint5_linear_34887_161646" x1="7.25393" y1="9.81287" x2="-0.65073" y2="5.09396" gradientUnits="userSpaceOnUse">
<stop stop-color="#8B4FDD"/>
<stop offset="1" stop-color="#12B886"/>
</linearGradient>
<linearGradient id="paint6_linear_34887_161646" x1="8.16779" y1="2.13619" x2="6.87" y2="1.64326" gradientUnits="userSpaceOnUse">
<stop stop-color="#8B4FDD"/>
<stop offset="1" stop-color="#12B886"/>
</linearGradient>
</defs>
</svg>
