<svg width="14" height="15" viewBox="0 0 14 15" fill="none" xmlns="http://www.w3.org/2000/svg">
<g clip-path="url(#clip0_1560_172640)">
<path d="M12.734 2.29395C12.7121 2.27208 12.693 2.2502 12.6711 2.22833C12.6492 2.20645 12.6273 2.18458 12.6055 2.16544C11.7578 1.35606 10.6012 0.978717 9.43359 1.13184C8.24413 1.28497 7.20234 1.96036 6.5789 2.98301L6.56249 3.01036C6.29452 3.44786 5.99921 3.87169 5.68202 4.27637C5.41406 4.06856 5.02851 4.0877 4.78242 4.33379C4.65117 4.46504 4.58554 4.63731 4.58281 4.80958C4.40234 4.81231 4.23554 4.88067 4.10702 5.00919C3.97577 5.14044 3.91015 5.3127 3.90742 5.48497C3.72695 5.4877 3.56015 5.55606 3.43163 5.68458C3.18554 5.93067 3.1664 6.31622 3.37421 6.58419C2.96952 6.90137 2.5457 7.19669 2.1082 7.46465L2.08085 7.48106C1.0582 8.10723 0.38554 9.14629 0.229681 10.3357C0.0765559 11.5061 0.4539 12.6627 1.26327 13.5076C1.28515 13.5295 1.30429 13.5514 1.32617 13.5732C1.34804 13.5951 1.36992 13.617 1.39179 13.6361C2.1164 14.3279 3.06523 14.7025 4.05507 14.7025C4.2246 14.7025 4.39413 14.6916 4.56367 14.6697C5.75312 14.5166 6.79492 13.8412 7.41835 12.8186L7.43476 12.7912C7.44843 12.7721 7.45937 12.7502 7.47304 12.7311C7.74101 13.8795 8.7746 14.7381 10.0023 14.7381C10.3797 14.7381 10.6859 14.4318 10.6859 14.0545C10.6859 13.6772 10.3797 13.3709 10.0023 13.3709C9.32421 13.3709 8.77187 12.8186 8.77187 12.1404V11.6674C8.9332 11.6592 9.09179 11.5908 9.21484 11.4705C9.34609 11.3393 9.41171 11.167 9.41445 10.9947C9.59492 10.992 9.76171 10.9236 9.89023 10.7951C10.0215 10.6639 10.0871 10.4916 10.0898 10.3193C10.2703 10.3166 10.4371 10.2482 10.5656 10.1197C10.8117 9.87364 10.8309 9.48809 10.623 9.22012C11.0277 8.90294 11.4516 8.60762 11.8891 8.33965L11.9164 8.32325C12.9391 7.69708 13.6117 6.65801 13.7676 5.46856C13.9207 4.29825 13.5434 3.14161 12.734 2.29395ZM6.41757 11.8861L6.28085 12.1076C5.8707 12.7748 5.18984 13.2178 4.41054 13.319C3.64765 13.4174 2.8957 13.174 2.34335 12.649C2.32695 12.6326 2.31054 12.619 2.29413 12.6025C2.27773 12.5861 2.26132 12.5697 2.24765 12.5533C1.72265 12.001 1.47929 11.2463 1.57773 10.4861C1.6789 9.70684 2.12187 9.02598 2.78906 8.61583L3.01054 8.47911C3.46992 8.19747 3.91562 7.88575 4.33945 7.55215L4.72773 7.94044C4.33124 8.24942 3.91562 8.542 3.48632 8.8045L3.06796 9.06153C2.87929 9.17911 2.70976 9.32403 2.56757 9.49356C2.51562 9.55645 2.17656 10.065 2.12187 10.4615C2.0371 10.9647 2.14101 11.4705 2.41992 11.8916C2.49648 12.0065 2.58398 12.1158 2.68242 12.2143C2.78085 12.3127 2.89023 12.4002 3.00507 12.4768C3.3332 12.6928 3.70781 12.8049 4.09335 12.8049C4.23827 12.8049 4.38593 12.7885 4.53359 12.7557C5.07226 12.6354 5.54804 12.299 5.83788 11.8287L6.09492 11.4104C6.35742 10.9811 6.64726 10.5654 6.95898 10.169L7.34726 10.5572C7.01093 10.9811 6.69921 11.4268 6.41757 11.8861ZM5.63281 8.84278L6.05663 9.26661C5.56718 9.85176 5.11327 10.4725 4.70312 11.115L4.69765 11.126C4.51992 11.4049 4.17538 11.5197 3.88007 11.4022C3.79531 11.3666 3.71874 11.3174 3.65312 11.2518C3.57929 11.1779 3.5246 11.0904 3.48906 10.9947C3.38788 10.7076 3.5082 10.3795 3.77617 10.21L3.7871 10.2018C4.42695 9.78887 5.04765 9.33223 5.63281 8.84278ZM10.0078 13.7783C10.1582 13.7783 10.2812 13.9014 10.2812 14.0518C10.2812 14.2022 10.1582 14.3252 10.0078 14.3252C8.80195 14.3252 7.82031 13.3436 7.82031 12.1377V11.033L8.25507 11.4678C8.29062 11.5033 8.32617 11.5334 8.36718 11.558V12.1377C8.36718 13.0428 9.10273 13.7783 10.0078 13.7783ZM10.2785 9.82989C10.2266 9.88184 10.1582 9.90919 10.0871 9.90919C10.016 9.90919 9.94765 9.88184 9.8957 9.82989L6.88242 6.81661C6.80312 6.73731 6.67187 6.73731 6.59257 6.81661C6.51328 6.8959 6.51328 7.02715 6.59257 7.10645L9.60585 10.1197C9.65781 10.1717 9.68515 10.24 9.68515 10.3111C9.68515 10.3822 9.65781 10.4506 9.60585 10.5025C9.5539 10.5545 9.48554 10.5818 9.41445 10.5818C9.34335 10.5818 9.27499 10.5545 9.22304 10.5025L4.39687 5.67911C4.34492 5.62715 4.31757 5.55879 4.31757 5.4877C4.31757 5.41661 4.34492 5.34825 4.39687 5.29629C4.44882 5.24434 4.51718 5.217 4.58827 5.217C4.65937 5.217 4.72773 5.24434 4.77968 5.29629L5.23085 5.74747C5.31015 5.82676 5.4414 5.82676 5.5207 5.74747C5.59999 5.66817 5.59999 5.53692 5.5207 5.45762L5.06952 5.00645C4.96288 4.89981 4.96288 4.72754 5.06952 4.62364C5.17617 4.517 5.34843 4.517 5.45234 4.62364L10.2758 9.44708C10.3824 9.55098 10.3824 9.72325 10.2785 9.82989ZM7.94335 6.53223C8.43281 5.94708 8.88671 5.32637 9.29687 4.68379C9.4746 4.40489 9.81913 4.28731 10.1144 4.40762C10.1992 4.44317 10.2758 4.49239 10.3414 4.55801C10.407 4.62364 10.459 4.7002 10.4918 4.78497C10.6121 5.08028 10.4945 5.42481 10.2156 5.60254C9.57304 6.0127 8.95234 6.46661 8.36718 6.95606L7.94335 6.53223ZM12.4332 5.1377C12.4305 5.20333 12.4387 6.48848 11.2027 7.18848L10.9867 7.31973C10.5273 7.60137 10.0816 7.91309 9.65781 8.24669L9.27226 7.86114C9.66874 7.55215 10.0871 7.26231 10.5137 6.99708L10.9238 6.74551C11.3941 6.45567 11.7332 5.97989 11.8535 5.44122C11.9711 4.90801 11.8726 4.36387 11.5746 3.9127C11.498 3.79786 11.4105 3.68848 11.3121 3.59004C11.2137 3.49161 11.1043 3.40411 10.9894 3.32754C10.5383 3.0295 9.99413 2.93106 9.46093 3.04864C8.92226 3.16895 8.44648 3.50528 8.15663 3.97833L7.90507 4.38848C7.64257 4.81778 7.35273 5.2334 7.04101 5.62989L6.65546 5.24434C6.98906 4.82051 7.30077 4.37481 7.58242 3.91544L7.71367 3.70215C8.12382 3.03497 8.80468 2.592 9.58398 2.49083C10.3469 2.38965 11.0988 2.63575 11.6512 3.16075C11.6676 3.17715 11.684 3.19083 11.7004 3.20723C11.7168 3.22364 11.7332 3.24004 11.7469 3.25645C12.2309 3.75958 12.4742 4.4295 12.4332 5.1377Z" fill="#111111"/>
<path d="M6.05664 6.48572C6.1699 6.48572 6.26172 6.3939 6.26172 6.28064C6.26172 6.16738 6.1699 6.07556 6.05664 6.07556C5.94338 6.07556 5.85156 6.16738 5.85156 6.28064C5.85156 6.3939 5.94338 6.48572 6.05664 6.48572Z" fill="#111111"/>
</g>
<defs>
<clipPath id="clip0_1560_172640">
<rect width="14" height="14" fill="white" transform="translate(0 0.899414)"/>
</clipPath>
</defs>
</svg>
