<svg width="13" height="15" viewBox="0 0 13 15" fill="none" xmlns="http://www.w3.org/2000/svg">
<path d="M11.6075 9.96075C11.2807 9.45847 10.8216 9.01311 10.243 8.63702C10.1759 8.59337 10.1074 8.55098 10.0377 8.5097V4.06923C10.0377 3.61023 9.91953 3.16794 9.68641 2.75458C9.47255 2.37536 9.17175 2.03876 8.79233 1.75424C8.05736 1.20299 7.09252 0.899414 6.07547 0.899414C5.05846 0.899414 4.09358 1.20299 3.35861 1.75424C2.97919 2.0388 2.67839 2.37536 2.4645 2.75458C2.23142 3.16794 2.11321 3.61023 2.11321 4.06923V8.50967C2.0436 8.55098 1.97509 8.59334 1.90793 8.63699C1.32934 9.01307 0.870245 9.45843 0.543392 9.96072C0.182825 10.5149 0 11.11 0 11.7296V12.2579C0 12.5996 0.121873 13.1077 0.70241 13.5882C1.04109 13.8684 1.50391 14.1124 2.07804 14.3133C3.15783 14.6913 4.57747 14.8994 6.07547 14.8994C7.57344 14.8994 8.99308 14.6913 10.0729 14.3133C10.647 14.1124 11.1098 13.8684 11.4485 13.5882C12.0291 13.1077 12.1509 12.5996 12.1509 12.2579V11.7296C12.1509 11.11 11.9681 10.5149 11.6075 9.96075Z" fill="#111111"/>
<path d="M0.79248 11.7296C0.79248 9.83311 3.15779 8.29565 6.0755 8.29565C8.99321 8.29565 11.3585 9.83311 11.3585 11.7296V12.2579C11.3585 13.2791 8.99321 14.107 6.0755 14.107C3.15779 14.107 0.79248 13.2791 0.79248 12.2579V11.7296Z" fill="#111111"/>
<path d="M6.07547 8.29559V14.1069C8.99318 14.1069 11.3585 13.2791 11.3585 12.2579V11.7296C11.3585 9.83305 8.99318 8.29559 6.07547 8.29559Z" fill="#111111"/>
<path d="M7.60193 11.6416H7.70465V12.258H7.60193V11.6416Z" fill="#17191C"/>
<path d="M7.49921 11.6416H7.60193V12.258H7.49921V11.6416Z" fill="#17191C"/>
<path d="M7.39648 10.4089V11.6416C7.39648 11.7551 7.48847 11.8471 7.60196 11.8471V10.4089H7.39648Z" fill="#17191C"/>
<path d="M7.80741 10.4089V11.6416C7.80741 11.7551 7.71545 11.8471 7.60196 11.8471V10.4089H7.80741Z" fill="#17191C"/>
<path d="M4.54919 11.6414H4.65192V12.2577H4.54919V11.6414Z" fill="#17191C"/>
<path d="M4.4465 11.6414H4.54922V12.2578H4.4465V11.6414Z" fill="#17191C"/>
<path d="M4.4465 11.7441V11.9361C4.47939 11.9446 4.5137 11.9496 4.54922 11.9496C4.58475 11.9496 4.61906 11.9446 4.65195 11.9361V11.7441H4.54922H4.4465Z" fill="#17191C"/>
<path d="M4.34378 10.4088V11.6415C4.34378 11.755 4.43577 11.847 4.54926 11.847V10.4088H4.34378Z" fill="#17191C"/>
<path d="M4.75467 10.4087V11.6414C4.75467 11.7549 4.66268 11.8469 4.54919 11.8469V10.4087H4.75467Z" fill="#17191C"/>
<path d="M4.54916 11.2304L4.75464 11.0249V10.8195L4.54916 11.0249V11.2304Z" fill="#17191C"/>
<path d="M4.54916 11.6413L4.75464 11.4359V11.2304L4.54916 11.4359V11.6413Z" fill="#17191C"/>
<path d="M4.54919 10.8196L4.75467 10.6142V10.4087L4.54919 10.6142V10.8196Z" fill="#17191C"/>
<path d="M6.07548 1.69189C4.32482 1.69189 2.90567 2.75629 2.90567 4.06925V8.55982C2.90567 9.87278 4.32482 10.9372 6.07548 10.9372C7.82614 10.9372 9.24529 9.87278 9.24529 8.55982V4.06925C9.24529 2.75629 7.82614 1.69189 6.07548 1.69189Z" fill="#111111"/>
<path d="M2.37735 11.7296V13.5782C2.4207 13.5931 2.46465 13.6078 2.50943 13.6221V11.4655C2.43649 11.4655 2.37735 11.5837 2.37735 11.7296Z" fill="#17191C"/>
<path d="M2.50943 11.4655V13.6221C2.55278 13.636 2.59682 13.6496 2.6415 13.663V11.7296C2.6415 11.5837 2.58236 11.4655 2.50943 11.4655Z" fill="#17191C"/>
<path d="M9.64151 13.6221V11.4655C9.56857 11.4655 9.50943 11.5837 9.50943 11.7296V13.663C9.5541 13.6496 9.59818 13.636 9.64151 13.6221Z" fill="#17191C"/>
<path d="M9.77359 13.5782V11.7296C9.77359 11.5837 9.71445 11.4655 9.64151 11.4655V13.6221C9.68628 13.6078 9.73026 13.5931 9.77359 13.5782Z" fill="#17191C"/>
<path d="M6.07547 1.69189V4.79567C7.68025 4.79567 8.98113 5.77138 8.98113 6.97491V8.3727C8.98113 9.57624 7.68025 10.5519 6.07547 10.5519V10.9372C7.82613 10.9372 9.24528 9.87278 9.24528 8.55982V4.06925C9.24528 2.75629 7.82613 1.69189 6.07547 1.69189Z" fill="#111111"/>
<path d="M6.07546 5.39001C4.47068 5.39001 3.1698 6.33614 3.1698 7.50322V8.29568C3.1698 8.38852 3.17812 8.47992 3.19407 8.56963C3.20724 8.5872 3.22071 8.60404 3.23435 8.62015C3.23505 8.62094 3.23571 8.62184 3.2364 8.62263C3.25046 8.6391 3.2647 8.65472 3.27922 8.66922L4.38116 9.77116C4.58661 9.97663 4.99244 10.1447 5.28301 10.1447H6.07546H6.86791C7.15848 10.1447 7.56431 9.97663 7.76976 9.77119L8.8717 8.66925C8.88619 8.65476 8.90046 8.63914 8.91452 8.62266C8.91522 8.62187 8.91588 8.62098 8.91657 8.62018C8.93021 8.60407 8.94364 8.58723 8.95685 8.56967C8.9728 8.47992 8.98112 8.38852 8.98112 8.29568V7.50322C8.98112 6.33614 7.68021 5.39001 6.07546 5.39001Z" fill="#D7D9DB"/>
<path d="M6.07548 5.91827L5.54718 8.03148H6.60378L6.07548 8.55978V10.1447H6.86794C7.1585 10.1447 7.56434 9.97659 7.76978 9.77115L8.87172 8.66921C8.88621 8.65471 8.90048 8.6391 8.91454 8.62262C8.91524 8.62183 8.9159 8.62093 8.91659 8.62014C8.93023 8.60403 8.94367 8.58719 8.95687 8.56962C8.97282 8.47988 8.98114 8.38848 8.98114 8.29563V7.50321C8.98114 6.62788 7.68023 5.91827 6.07548 5.91827Z" fill="#F1F2F2"/>
<path d="M5.81131 8.82397H6.33961L6.07546 9.61643L5.81131 8.82397Z" fill="#231F20"/>
<path d="M5.44811 6.52912H5.28301C5.28301 6.28333 5.08305 6.08337 4.83726 6.08337C4.59147 6.08337 4.3915 6.28333 4.3915 6.52912H4.22641C4.22641 6.1923 4.50043 5.91827 4.83726 5.91827C5.17408 5.91827 5.44811 6.1923 5.44811 6.52912Z" fill="#231F20"/>
<path d="M7.92452 6.52912H7.75942C7.75942 6.28333 7.55946 6.08337 7.31367 6.08337C7.06788 6.08337 6.86791 6.28333 6.86791 6.52912H6.70282C6.70282 6.1923 6.97684 5.91827 7.31367 5.91827C7.65049 5.91827 7.92452 6.1923 7.92452 6.52912Z" fill="#231F20"/>
<path d="M4.09435 8.03147C4.31318 8.03147 4.49057 7.85407 4.49057 7.63524C4.49057 7.41641 4.31318 7.23901 4.09435 7.23901C3.87552 7.23901 3.69812 7.41641 3.69812 7.63524C3.69812 7.85407 3.87552 8.03147 4.09435 8.03147Z" fill="#E5CFCF"/>
<path d="M8.0566 8.03147C8.27543 8.03147 8.45282 7.85407 8.45282 7.63524C8.45282 7.41641 8.27543 7.23901 8.0566 7.23901C7.83777 7.23901 7.66037 7.41641 7.66037 7.63524C7.66037 7.85407 7.83777 8.03147 8.0566 8.03147Z" fill="#E5CFCF"/>
<path d="M7.45533 8.53024C7.42284 8.54652 7.36654 8.5598 7.33022 8.5598H6.93399C6.89767 8.5598 6.85468 8.53322 6.8384 8.50073L6.6038 8.03149H6.0755L6.53053 8.71406C6.57085 8.77448 6.66324 8.82395 6.73588 8.82395H7.26418C7.33682 8.82395 7.43826 8.78195 7.48963 8.73057L7.92456 8.29565L7.45533 8.53024Z" fill="#231F20"/>
<path d="M5.54716 8.03149L5.31257 8.50073C5.29629 8.53322 5.2533 8.5598 5.21698 8.5598H4.82075C4.78443 8.5598 4.72813 8.54652 4.69564 8.53024L4.22641 8.29565L4.66133 8.73057C4.71271 8.78195 4.81415 8.82395 4.88679 8.82395H5.41509C5.48773 8.82395 5.58012 8.77448 5.62043 8.71406L6.07547 8.03149H5.54716Z" fill="#231F20"/>
</svg>
