<svg width="14" height="14" viewBox="0 0 14 14" fill="none" xmlns="http://www.w3.org/2000/svg">
<path fill-rule="evenodd" clip-rule="evenodd" d="M11.8434 3.44272C11.7131 3.44396 11.5992 3.33022 11.5979 3.19755C11.5965 3.06937 11.7017 2.96295 11.8281 2.96456C11.957 2.9662 12.0748 3.08335 12.0748 3.20997C12.0748 3.33859 11.9725 3.44148 11.8434 3.44272ZM6.99798 3.75715C6.21848 3.68429 5.4407 3.66315 4.67669 3.87987C4.49643 3.931 4.31668 3.98747 4.14306 4.05732C3.97297 4.12573 3.81102 4.21429 3.63753 4.28852C3.74162 4.2052 3.84374 4.11928 3.95031 4.03926C4.05784 3.95849 4.1667 3.8787 4.2806 3.80748C4.39638 3.73509 4.51904 3.67371 4.66194 3.59465C4.02031 3.66065 3.44633 3.8492 2.91246 4.16363C3.46018 3.71128 4.07986 3.40797 4.78215 3.29734C5.81087 3.13529 6.78817 3.2767 7.69257 3.84177C7.45502 3.81248 7.22708 3.77856 6.99798 3.75715ZM13.9596 4.13362C13.4765 3.60734 12.9477 3.13734 12.3327 2.76675C11.5886 2.31831 10.7839 2.03704 9.93541 1.87064C9.85772 1.8554 9.7789 1.84602 9.69633 1.83324C9.73786 2.03637 9.77699 2.22615 9.81544 2.41605C9.8543 2.60807 9.89252 2.80024 9.93155 2.99497C9.82966 2.95577 9.73444 2.92523 9.64448 2.8834C9.33535 2.73965 9.15979 2.50674 9.16933 2.15382C9.1729 2.02235 9.17623 1.89076 9.17495 1.75929C9.17262 1.52031 9.09918 1.30376 8.95717 1.11159C8.69808 0.760946 8.27102 0.654487 7.88796 0.843614C7.50925 1.03058 7.28882 1.531 7.40576 1.97702C7.54278 2.49962 7.91421 2.79966 8.40988 2.94932C8.66183 3.02539 8.92761 3.05567 9.18472 3.10618C9.03566 3.20366 8.86381 3.25265 8.67848 3.25789C8.30885 3.26834 7.98096 3.15685 7.70054 2.91534C7.64006 2.86325 7.59353 2.85292 7.51171 2.87958C7.37684 2.92352 7.23016 2.96377 7.09123 2.95599C6.79837 2.93961 6.50664 2.89606 6.21568 2.85489C5.46304 2.74836 4.7207 2.78859 3.9978 3.02829C2.85268 3.40799 1.96124 4.11537 1.34948 5.15662C0.66579 6.32021 0.528662 7.56192 0.866362 8.86207C0.883444 8.92786 0.903101 8.993 0.921066 9.05665C0.862885 9.09786 0.812221 9.13448 0.760805 9.17004C0.0151598 9.68576 -0.341388 10.759 0.437557 11.6696C0.750469 12.0354 1.12861 12.3124 1.55856 12.5211C2.29847 12.8801 3.08371 13.0829 3.89697 13.1824C4.65564 13.2753 5.4157 13.2764 6.1745 13.1862C7.15702 13.0695 8.11273 12.8303 9.05718 12.541C9.9281 12.2742 10.7979 12.0019 11.703 11.8698C12.2069 11.7963 12.7125 11.7702 13.2201 11.8221C13.373 11.8377 13.5252 11.8611 13.6777 11.8809C13.6656 11.8584 13.6503 11.8485 13.6339 11.8413C13.5765 11.8162 13.5196 11.79 13.4611 11.768C13.0005 11.595 12.52 11.5377 12.0322 11.5335C11.3395 11.5276 10.6592 11.6368 9.98564 11.7839C9.25202 11.9442 8.52374 12.1288 7.79016 12.2893C6.71537 12.5245 5.63067 12.6614 4.52731 12.5611C3.79048 12.4941 3.07195 12.3453 2.38727 12.0584C1.95634 11.8778 1.55755 11.6457 1.2449 11.2877C1.14024 11.1679 1.05942 11.0361 1.03155 10.8764C0.980281 10.5827 1.20671 10.3545 1.50066 10.4088C1.60494 10.4281 1.70578 10.4654 1.80972 10.4871C1.88019 10.5018 1.92001 10.5365 1.95175 10.6024C2.00045 10.7035 2.0609 10.7998 2.12389 10.893C2.25674 11.0898 2.43406 11.1943 2.68267 11.1937C4.17662 11.1899 5.67058 11.1933 7.16456 11.194C7.18506 11.194 7.20558 11.1908 7.22609 11.189C7.23148 11.1808 7.23689 11.1725 7.24229 11.1642C7.10634 11.0427 6.97711 10.9124 6.83265 10.802C6.67733 10.6833 6.49236 10.6306 6.29562 10.6304C5.7068 10.6299 5.11797 10.6308 4.52917 10.6314C4.50102 10.6315 4.47291 10.635 4.44475 10.6358C4.42023 10.6366 4.39569 10.636 4.35478 10.636C4.37945 10.6185 4.38622 10.6114 4.3945 10.6082C5.183 10.3078 5.57491 9.70551 5.65564 8.89435C5.77375 7.70765 4.77623 6.45125 3.25121 6.61365C2.99221 6.64124 2.74293 6.69925 2.50758 6.81296C3.0687 6.34966 3.70437 6.13386 4.43508 6.22747C3.71858 5.8681 3.00657 5.89776 2.29475 6.24852C2.31434 6.22597 2.33469 6.20334 2.35961 6.18819C2.56236 6.06508 2.75502 5.91754 2.97126 5.82582C3.78069 5.48252 4.55304 5.55156 5.24766 6.11238C5.82152 6.57569 6.11222 7.20306 6.18149 7.92527C6.2495 8.63434 6.10482 9.30365 5.69624 9.89996C5.60851 10.028 5.49846 10.1407 5.39353 10.2668C6.09627 10.033 6.6486 9.58639 7.15518 9.06061C7.19194 9.10735 7.22227 9.14279 7.24916 9.18066C7.42318 9.42573 7.59459 9.67264 7.77035 9.91644C8.078 10.3431 8.3787 10.7758 8.76385 11.1392C8.79553 11.1691 8.84894 11.1905 8.89252 11.1909C9.36222 11.1957 9.83197 11.1955 10.3017 11.1965C10.3777 11.1967 10.4538 11.1966 10.5402 11.1966C10.3846 10.9373 10.1724 10.7989 9.8807 10.7962C9.61137 10.7936 9.34192 10.798 9.07272 10.7918C9.02794 10.7907 8.96972 10.7622 8.94204 10.7271C8.71059 10.4338 8.51081 10.1195 8.35162 9.78117C8.14919 9.35092 8.027 8.89851 8.03033 8.42116C8.03786 7.3403 8.52233 6.49928 9.36115 5.8491C9.81538 5.49703 10.3432 5.30286 10.902 5.18985C11.1729 5.13505 11.4458 5.08995 11.7177 5.04045C11.6914 5.07142 11.6609 5.08606 11.63 5.09977C11.3927 5.20518 11.1537 5.307 10.9182 5.41639C10.3638 5.6739 9.84656 5.98657 9.4173 6.43061C8.70691 7.16545 8.37487 8.02331 8.55894 9.05024C8.64976 9.55682 8.8458 10.0207 9.13645 10.4446C9.15939 10.4781 9.19711 10.5232 9.22968 10.5246C9.40636 10.5325 9.58358 10.5284 9.77141 10.5284C9.75855 10.5007 9.75214 10.4835 9.74307 10.4679C9.59806 10.2185 9.54296 9.94303 9.51224 9.66142C9.43994 8.99897 9.58094 8.37104 9.83885 7.76677C10.0808 7.19992 10.4039 6.67802 10.766 6.18069C10.9915 5.87105 11.2474 5.5924 11.6208 5.45762C11.7972 5.39395 11.9748 5.32929 12.1569 5.28698C12.4187 5.22619 12.6886 5.199 12.9489 5.13307C13.4186 5.01412 13.7559 4.72128 13.9794 4.29371C14.0107 4.2338 14.008 4.18641 13.9596 4.13362Z" fill="#F5F5F5"/>
</svg>
