<svg width="14" height="15" viewBox="0 0 14 15" fill="none" xmlns="http://www.w3.org/2000/svg">
<path fill-rule="evenodd" clip-rule="evenodd" d="M9.5521 2.44423C9.56759 2.46554 9.59773 2.4842 9.62374 2.48849C9.73777 2.50726 9.85429 2.51303 9.96708 2.5369C10.2449 2.59566 10.5212 2.66179 10.81 2.72766C10.8019 2.69832 10.7957 2.6669 10.7849 2.63719C10.6551 2.28269 10.4529 1.97402 10.1987 1.69616C10.1287 1.61973 10.0618 1.61252 9.97533 1.65348C9.7398 1.76509 9.55554 1.93413 9.4158 2.15208C9.40332 2.17153 9.40348 2.21119 9.41503 2.23178C9.45623 2.30518 9.50259 2.37609 9.5521 2.44423Z" fill="#111111"/>
<path fill-rule="evenodd" clip-rule="evenodd" d="M11.8434 4.44284C11.7131 4.44408 11.5992 4.33035 11.5979 4.19767C11.5965 4.06949 11.7017 3.96307 11.8281 3.96468C11.957 3.96632 12.0748 4.08347 12.0748 4.21009C12.0748 4.33871 11.9725 4.4416 11.8434 4.44284ZM6.99798 4.75727C6.21848 4.68441 5.4407 4.66327 4.67669 4.87999C4.49643 4.93112 4.31668 4.98759 4.14306 5.05744C3.97297 5.12585 3.81102 5.21442 3.63753 5.28865C3.74162 5.20532 3.84374 5.1194 3.95031 5.03938C4.05784 4.95861 4.1667 4.87882 4.2806 4.8076C4.39638 4.73521 4.51904 4.67383 4.66194 4.59477C4.02031 4.66077 3.44633 4.84932 2.91246 5.16375C3.46018 4.7114 4.07986 4.40809 4.78215 4.29746C5.81087 4.13541 6.78817 4.27683 7.69257 4.84189C7.45502 4.8126 7.22708 4.77868 6.99798 4.75727ZM13.9596 5.13374C13.4765 4.60746 12.9477 4.13746 12.3327 3.76688C11.5886 3.31843 10.7839 3.03717 9.93541 2.87076C9.85772 2.85552 9.7789 2.84614 9.69633 2.83336C9.73786 3.03649 9.77699 3.22627 9.81544 3.41617C9.8543 3.60819 9.89252 3.80036 9.93155 3.99509C9.82966 3.95589 9.73444 3.92535 9.64448 3.88352C9.33535 3.73978 9.15979 3.50686 9.16933 3.15394C9.1729 3.02247 9.17623 2.89089 9.17495 2.75941C9.17262 2.52043 9.09918 2.30389 8.95717 2.11172C8.69808 1.76107 8.27102 1.65461 7.88796 1.84374C7.50925 2.0307 7.28882 2.53112 7.40576 2.97714C7.54278 3.49974 7.91421 3.79978 8.40988 3.94944C8.66183 4.02552 8.92761 4.05579 9.18472 4.1063C9.03566 4.20378 8.86381 4.25277 8.67848 4.25801C8.30885 4.26846 7.98096 4.15697 7.70054 3.91547C7.64006 3.86337 7.59353 3.85304 7.51171 3.8797C7.37684 3.92364 7.23016 3.96389 7.09123 3.95611C6.79837 3.93973 6.50664 3.89619 6.21568 3.85501C5.46304 3.74848 4.7207 3.78871 3.9978 4.02841C2.85268 4.40811 1.96124 5.11549 1.34948 6.15674C0.66579 7.32033 0.528662 8.56204 0.866362 9.86219C0.883444 9.92798 0.903101 9.99312 0.921066 10.0568C0.862885 10.098 0.812221 10.1346 0.760805 10.1702C0.0151598 10.6859 -0.341388 11.7591 0.437557 12.6697C0.750469 13.0356 1.12861 13.3126 1.55856 13.5212C2.29847 13.8803 3.08371 14.0831 3.89697 14.1826C4.65564 14.2754 5.4157 14.2765 6.1745 14.1863C7.15702 14.0697 8.11273 13.8305 9.05718 13.5411C9.9281 13.2743 10.7979 13.002 11.703 12.87C12.2069 12.7964 12.7125 12.7703 13.2201 12.8222C13.373 12.8378 13.5252 12.8612 13.6777 12.881C13.6656 12.8585 13.6503 12.8486 13.6339 12.8414C13.5765 12.8163 13.5196 12.7901 13.4611 12.7681C13.0005 12.5952 12.52 12.5378 12.0322 12.5336C11.3395 12.5277 10.6592 12.6369 9.98564 12.784C9.25202 12.9443 8.52374 13.129 7.79016 13.2895C6.71537 13.5246 5.63067 13.6615 4.52731 13.5612C3.79048 13.4943 3.07195 13.3454 2.38727 13.0585C1.95634 12.8779 1.55755 12.6458 1.2449 12.2879C1.14024 12.168 1.05942 12.0362 1.03155 11.8765C0.980281 11.5828 1.20671 11.3546 1.50066 11.4089C1.60494 11.4282 1.70578 11.4655 1.80972 11.4872C1.88019 11.5019 1.92001 11.5366 1.95175 11.6025C2.00045 11.7036 2.0609 11.7999 2.12389 11.8932C2.25674 12.0899 2.43406 12.1944 2.68267 12.1938C4.17662 12.19 5.67058 12.1934 7.16456 12.1941C7.18506 12.1941 7.20558 12.1909 7.22609 12.1892C7.23148 12.1809 7.23689 12.1726 7.24229 12.1644C7.10634 12.0428 6.97711 11.9125 6.83265 11.8021C6.67733 11.6835 6.49236 11.6307 6.29562 11.6305C5.7068 11.6301 5.11797 11.6309 4.52917 11.6316C4.50102 11.6316 4.47291 11.6351 4.44475 11.636C4.42023 11.6368 4.39569 11.6361 4.35478 11.6361C4.37945 11.6187 4.38622 11.6115 4.3945 11.6083C5.183 11.3079 5.57491 10.7056 5.65564 9.89448C5.77375 8.70777 4.77623 7.45137 3.25121 7.61377C2.99221 7.64136 2.74293 7.69937 2.50758 7.81309C3.0687 7.34978 3.70437 7.13399 4.43508 7.22759C3.71858 6.86822 3.00657 6.89788 2.29475 7.24864C2.31434 7.22609 2.33469 7.20346 2.35961 7.18831C2.56236 7.06521 2.75502 6.91767 2.97126 6.82594C3.78069 6.48264 4.55304 6.55168 5.24766 7.11251C5.82152 7.57581 6.11222 8.20318 6.18149 8.92539C6.2495 9.63447 6.10482 10.3038 5.69624 10.9001C5.60851 11.0281 5.49846 11.1409 5.39353 11.2669C6.09627 11.0331 6.6486 10.5865 7.15518 10.0607C7.19194 10.1075 7.22227 10.1429 7.24916 10.1808C7.42318 10.4259 7.59459 10.6728 7.77035 10.9166C8.078 11.3432 8.3787 11.7759 8.76385 12.1393C8.79553 12.1692 8.84894 12.1906 8.89252 12.1911C9.36222 12.1958 9.83197 12.1956 10.3017 12.1967C10.3777 12.1968 10.4538 12.1967 10.5402 12.1967C10.3846 11.9375 10.1724 11.7991 9.8807 11.7963C9.61137 11.7937 9.34192 11.7981 9.07272 11.7919C9.02794 11.7909 8.96972 11.7623 8.94204 11.7272C8.71059 11.4339 8.51081 11.1196 8.35162 10.7813C8.14919 10.351 8.027 9.89863 8.03033 9.42128C8.03786 8.34042 8.52233 7.4994 9.36115 6.84922C9.81538 6.49715 10.3432 6.30299 10.902 6.18997C11.1729 6.13517 11.4458 6.09007 11.7177 6.04057C11.6914 6.07154 11.6609 6.08618 11.63 6.0999C11.3927 6.2053 11.1537 6.30712 10.9182 6.41651C10.3638 6.67402 9.84656 6.98669 9.4173 7.43074C8.70691 8.16558 8.37487 9.02343 8.55894 10.0504C8.64976 10.5569 8.8458 11.0208 9.13645 11.4447C9.15939 11.4782 9.19711 11.5233 9.22968 11.5248C9.40636 11.5326 9.58358 11.5285 9.77141 11.5285C9.75855 11.5008 9.75214 11.4836 9.74307 11.468C9.59806 11.2186 9.54296 10.9431 9.51224 10.6615C9.43994 9.99909 9.58094 9.37117 9.83885 8.7669C10.0808 8.20004 10.4039 7.67814 10.766 7.18082C10.9915 6.87117 11.2474 6.59252 11.6208 6.45774C11.7972 6.39407 11.9748 6.32941 12.1569 6.28711C12.4187 6.22631 12.6886 6.19912 12.9489 6.1332C13.4186 6.01424 13.7559 5.7214 13.9794 5.29383C14.0107 5.23392 14.008 5.18653 13.9596 5.13374Z" fill="#111111"/>
</svg>
