<svg width="27" height="24" viewBox="0 0 27 24" fill="none" xmlns="http://www.w3.org/2000/svg">
<path d="M22.3697 19.6773L21.2397 17.7737H5.00039L13.1327 3.70339L11.0092 0H8.26898C7.68056 0.0013206 7.10303 0.158808 6.59539 0.456374C6.08775 0.75394 5.6682 1.18092 5.37958 1.6937L0.465319 10.3644C0.179582 10.8649 0.0292969 11.4313 0.0292969 12.0076C0.0292969 12.5839 0.179582 13.1502 0.465319 13.6507L3.90581 19.7177L5.37958 22.3164C5.63219 22.7621 5.98456 23.1434 6.40909 23.4302C6.83362 23.717 7.31879 23.9016 7.8266 23.9697C7.97233 23.99 8.11931 24.0001 8.26646 24H17.9863C18.5745 24.0003 19.1523 23.8447 19.6608 23.5489C20.1692 23.2532 20.5902 22.8279 20.8807 22.3164L22.3444 19.7177L22.3697 19.6773Z" fill="url(#paint0_linear_36759_76785)"/>
<path d="M21.2397 17.7744H5.03076L5.09902 17.734L10.5391 14.4629C11.3784 13.9169 12.0103 13.5983 12.6044 13.4947C12.6178 13.4935 12.6314 13.4935 12.6448 13.4947L12.7611 13.4795L12.9634 13.4644H13.0847C13.1819 13.467 13.2789 13.4746 13.3754 13.4871C13.9947 13.5705 14.6596 13.8789 15.5646 14.4022L21.2094 17.7542L21.2397 17.7744Z" fill="url(#paint1_linear_36759_76785)"/>
<path d="M22.3696 19.679L22.3418 19.727L20.8756 22.3156C20.5863 22.827 20.1663 23.2524 19.6587 23.5482C19.151 23.844 18.5738 23.9996 17.9862 23.9992H8.26641C8.11927 23.9993 7.97229 23.9892 7.82655 23.9688C7.31791 23.9014 6.83181 23.717 6.40638 23.4301C5.98094 23.1433 5.62774 22.7618 5.37448 22.3156L3.90576 19.7194L5.02816 17.778L5.0863 17.7426L10.5365 14.4563C11.3783 13.9103 12.0077 13.5892 12.6043 13.4881C12.6178 13.4869 12.6313 13.4869 12.6448 13.4881L12.761 13.4729L12.9633 13.4578H13.0846C13.1818 13.4604 13.2789 13.468 13.3753 13.4805C13.9947 13.5639 14.657 13.8749 15.562 14.3956L21.2093 17.7552L21.2422 17.7754L22.3696 19.679Z" fill="url(#paint2_linear_36759_76785)"/>
<g opacity="0.5">
<path d="M15.5436 14.3925C13.3999 13.1437 12.5986 13.1058 10.5181 14.4608L5.00977 17.7723L10.5181 15.166C12.5986 13.8086 13.3923 13.8566 15.5436 15.0953L21.2213 17.7749L15.5436 14.3925Z" fill="url(#paint3_linear_36759_76785)"/>
</g>
<path d="M25.7905 13.6507L22.3449 19.7177L22.3727 19.6697L21.2402 17.7738L13.1509 3.6857V3.70339L11.0098 0H17.9893C18.578 0.00165486 19.1558 0.159258 19.6638 0.456768C20.1717 0.754277 20.5918 1.18107 20.8813 1.6937L25.7905 10.3644C26.075 10.8653 26.2246 11.4315 26.2246 12.0076C26.2246 12.5836 26.075 13.1498 25.7905 13.6507Z" fill="url(#paint4_linear_36759_76785)"/>
<path d="M0.436022 13.6507L3.88409 19.7177L3.85629 19.6697L4.98626 17.7662L13.0756 3.67811V3.69581L15.2218 0H8.23969C7.65126 0.0013206 7.07373 0.158808 6.5661 0.456374C6.05846 0.75394 5.6389 1.18092 5.35028 1.6937L0.436022 10.3644C0.150285 10.8649 0 11.4313 0 12.0076C0 12.5839 0.150285 13.1502 0.436022 13.6507Z" fill="url(#paint5_linear_36759_76785)"/>
<path opacity="0.51" d="M15.222 0L13.1138 3.668L13.5056 4.2924L15.222 0Z" fill="url(#paint6_linear_36759_76785)"/>
<defs>
<linearGradient id="paint0_linear_36759_76785" x1="2.58498" y1="6" x2="21.4534" y2="17.2859" gradientUnits="userSpaceOnUse">
<stop stop-color="#12B886"/>
<stop offset="1" stop-color="#424ADF"/>
</linearGradient>
<linearGradient id="paint1_linear_36759_76785" x1="6.88503" y1="14.5419" x2="9.60269" y2="21.1092" gradientUnits="userSpaceOnUse">
<stop stop-color="#12B886"/>
<stop offset="1" stop-color="#424ADF"/>
</linearGradient>
<linearGradient id="paint2_linear_36759_76785" x1="6.01798" y1="16.0931" x2="15.3589" y2="26.6063" gradientUnits="userSpaceOnUse">
<stop stop-color="#12B886"/>
<stop offset="1" stop-color="#424ADF"/>
</linearGradient>
<linearGradient id="paint3_linear_36759_76785" x1="6.86432" y1="14.5314" x2="9.59738" y2="21.1147" gradientUnits="userSpaceOnUse">
<stop stop-color="#12B886"/>
<stop offset="1" stop-color="#424ADF"/>
</linearGradient>
<linearGradient id="paint4_linear_36759_76785" x1="12.7503" y1="4.92943" x2="26.755" y2="11.8734" gradientUnits="userSpaceOnUse">
<stop stop-color="#12B886"/>
<stop offset="1" stop-color="#424ADF"/>
</linearGradient>
<linearGradient id="paint5_linear_36759_76785" x1="1.74133" y1="4.92943" x2="15.7499" y2="11.8785" gradientUnits="userSpaceOnUse">
<stop stop-color="#12B886"/>
<stop offset="1" stop-color="#424ADF"/>
</linearGradient>
<linearGradient id="paint6_linear_36759_76785" x1="13.355" y1="1.0731" x2="15.5536" y2="1.76702" gradientUnits="userSpaceOnUse">
<stop stop-color="#12B886"/>
<stop offset="1" stop-color="#424ADF"/>
</linearGradient>
</defs>
</svg>
