<svg width="61" height="60" viewBox="0 0 61 60" fill="none" xmlns="http://www.w3.org/2000/svg">
<path d="M45.6205 41.1205H14.1539C13.7366 41.1205 13.3364 40.9548 13.0414 40.6597C12.7463 40.3647 12.5806 39.9645 12.5806 39.5472V31.9952C12.5806 31.5779 12.7463 31.1777 13.0414 30.8826C13.3364 30.5876 13.7366 30.4218 14.1539 30.4218C14.5712 30.4218 14.9714 30.5876 15.2664 30.8826C15.5615 31.1777 15.7272 31.5779 15.7272 31.9952V37.9739H44.0472V22.2404H15.7272V24.3172C15.7272 24.7345 15.5615 25.1347 15.2664 25.4298C14.9714 25.7248 14.5712 25.8906 14.1539 25.8906C13.7366 25.8906 13.3364 25.7248 13.0414 25.4298C12.7463 25.1347 12.5806 24.7345 12.5806 24.3172V20.6671C12.5806 20.2498 12.7463 19.8496 13.0414 19.5546C13.3364 19.2595 13.7366 19.0938 14.1539 19.0938H45.6205C46.0378 19.0938 46.438 19.2595 46.733 19.5546C47.0281 19.8496 47.1939 20.2498 47.1939 20.6671V39.5472C47.1939 39.9645 47.0281 40.3647 46.733 40.6597C46.438 40.9548 46.0378 41.1205 45.6205 41.1205Z" fill="#3F80F7"/>
<path d="M29.8871 31.6797C29.7102 31.7122 29.529 31.7122 29.3521 31.6797L13.6188 25.8898C13.4191 25.8239 13.2345 25.7186 13.0762 25.5801C12.9178 25.4416 12.7889 25.2728 12.6969 25.0836C12.6049 24.8944 12.5518 24.6887 12.5408 24.4786C12.5297 24.2686 12.5608 24.0584 12.6324 23.8606C12.7039 23.6628 12.8144 23.4813 12.9573 23.327C13.1002 23.1726 13.2726 23.0484 13.4643 22.9619C13.6561 22.8753 13.8632 22.828 14.0735 22.8229C14.2838 22.8177 14.493 22.8548 14.6887 22.9319L29.8871 28.533L39.1697 25.1032C39.5667 24.9686 40.0001 24.9915 40.3807 25.1672C40.7613 25.3428 41.0599 25.6578 41.2151 26.0472C41.3568 26.4394 41.3369 26.8719 41.1599 27.2495C40.9829 27.6271 40.6632 27.919 40.2711 28.061L30.422 31.6797C30.2452 31.7122 30.0639 31.7122 29.8871 31.6797Z" fill="#3F80F7"/>
<path d="M55.0605 44.6446C54.8116 44.6373 54.5662 44.584 54.3367 44.4872C53.9695 44.287 53.6949 43.9513 53.5714 43.5517C53.448 43.152 53.4855 42.7199 53.6759 42.3475C55.7748 38.2696 56.7899 33.7206 56.6237 29.1373C56.4574 24.554 55.1154 20.0904 52.7266 16.1754C50.3378 12.2603 46.9824 9.02532 42.9827 6.78108C38.983 4.53683 34.4734 3.35877 29.8872 3.36004C23.3005 3.35332 16.9447 5.78581 12.0456 10.1884C11.7326 10.4679 11.3214 10.6117 10.9025 10.5881C10.4835 10.5645 10.091 10.3754 9.81146 10.0625C9.53188 9.74953 9.38808 9.33833 9.41169 8.91934C9.43529 8.50036 9.62437 8.10791 9.93732 7.82834C15.1328 3.08339 21.8342 0.320949 28.8642 0.0262715C35.8942 -0.268407 42.8032 1.92353 48.3775 6.21703C53.9519 10.5105 57.8351 16.631 59.3451 23.5033C60.855 30.3756 59.895 37.5602 56.6338 43.795C56.4854 44.0767 56.2566 44.3079 55.9764 44.4592C55.6963 44.6105 55.3774 44.675 55.0605 44.6446Z" fill="#3F80F7"/>
<path d="M18.3077 10.6291H11.0074C10.7941 10.6339 10.5821 10.5943 10.3849 10.5129C10.1877 10.4315 10.0095 10.3101 9.86159 10.1563C9.71371 10.0025 9.59936 9.81968 9.52577 9.61941C9.45218 9.41914 9.42095 9.20578 9.43407 8.99282C9.45668 8.5829 9.6297 8.19572 9.92 7.90542C10.2103 7.61512 10.5975 7.4421 11.0074 7.41948H18.3077C18.7249 7.41948 19.1251 7.58524 19.4202 7.8803C19.7152 8.17536 19.881 8.57555 19.881 8.99282C19.8852 9.20358 19.8478 9.4131 19.771 9.6094C19.6941 9.8057 19.5794 9.98495 19.4333 10.1369C19.2872 10.2889 19.1126 10.4105 18.9194 10.495C18.7263 10.5794 18.5184 10.625 18.3077 10.6291Z" fill="#3F80F7"/>
<path d="M29.8872 60C24.7635 59.9936 19.7273 58.6717 15.2609 56.1609C10.7946 53.6502 7.04767 50.0347 4.37912 45.6608C1.71057 41.2868 0.209756 36.301 0.0204381 31.1808C-0.16888 26.0605 0.959636 20.9775 3.29789 16.4184C3.39294 16.2345 3.52327 16.0712 3.68144 15.9376C3.83962 15.8041 4.02255 15.7031 4.21978 15.6402C4.41701 15.5774 4.62468 15.5541 4.83094 15.5715C5.0372 15.5889 5.23801 15.6468 5.42189 15.7419C5.60578 15.8369 5.76914 15.9672 5.90266 16.1254C6.03618 16.2836 6.13723 16.4665 6.20005 16.6638C6.26288 16.861 6.28623 17.0687 6.2688 17.2749C6.25136 17.4812 6.19347 17.682 6.09842 17.8659C3.99953 21.9437 2.98445 26.4928 3.15071 31.0761C3.31696 35.6594 4.65896 40.1229 7.04779 44.038C9.43662 47.953 12.792 51.188 16.7917 53.4323C20.7914 55.6765 25.3009 56.8546 29.8872 56.8533C36.4738 56.86 42.8296 54.4275 47.7288 50.025C48.0417 49.7454 48.4529 49.6016 48.8719 49.6252C49.2909 49.6488 49.6833 49.8379 49.9629 50.1509C50.2425 50.4638 50.3863 50.875 50.3627 51.294C50.3391 51.713 50.15 52.1054 49.837 52.385C44.3483 57.2878 37.2468 59.9985 29.8872 60Z" fill="#3F80F7"/>
<path d="M48.7671 52.7948H41.4669C41.0496 52.7948 40.6494 52.6291 40.3544 52.334C40.0593 52.0389 39.8936 51.6388 39.8936 51.2215C39.9016 50.8067 40.07 50.4112 40.3633 50.1179C40.6566 49.8246 41.0521 49.6562 41.4669 49.6481H48.7671C48.9723 49.6481 49.1754 49.689 49.3646 49.7685C49.5537 49.8479 49.7251 49.9643 49.8687 50.1108C50.0123 50.2573 50.1252 50.4311 50.2008 50.6218C50.2764 50.8125 50.3132 51.0164 50.309 51.2215C50.3091 51.6334 50.1477 52.0289 49.8594 52.323C49.5711 52.6172 49.1789 52.7866 48.7671 52.7948Z" fill="#3F80F7"/>
</svg>
