<svg width="32" height="32" viewBox="0 0 32 32" fill="none" xmlns="http://www.w3.org/2000/svg">
<path d="M16 0C7.16228 0 0 7.16418 0 16C0 24.8358 7.16418 32 16 32C24.8358 32 32 24.8358 32 16C32 7.16418 24.8377 0 16 0ZM6.98981 10.788L12.9751 5.97015C13.3428 5.67449 13.8905 5.93603 13.8905 6.40796V9.56172H18.9074C20.6112 9.56172 24.5496 9.79863 25.2187 14.5141C25.2528 14.7529 24.9533 14.8913 24.7922 14.7112C23.8977 13.7029 22.8363 12.941 20.7553 12.941H13.8905V16.0417C13.8905 16.5136 13.3428 16.7771 12.9751 16.4795L6.98981 11.6636C6.85686 11.5572 6.77948 11.3961 6.77948 11.2258C6.77948 11.0555 6.85686 10.8944 6.98981 10.788ZM25.0121 20.761L19.0268 25.5788C18.6591 25.8744 18.1113 25.6129 18.1113 25.141V21.9872H13.0945C11.3907 21.9872 7.45226 21.7503 6.78323 17.0348C6.74911 16.796 7.04857 16.6577 7.20967 16.8377C8.10424 17.846 9.1656 18.6079 11.2466 18.6079H18.1113V15.5034C18.1113 15.0315 18.6591 14.7681 19.0268 15.0656L25.0121 19.8834C25.1443 19.9908 25.221 20.1519 25.221 20.3222C25.221 20.4925 25.1443 20.6536 25.0121 20.761Z" fill="#6C6CEA"/>
</svg>
