<svg width="36" height="20" viewBox="0 0 36 20" fill="none" xmlns="http://www.w3.org/2000/svg">
<path d="M36 16.7756C36 17.0824 35.9374 17.386 35.8184 17.674C35.5805 18.2469 35.1235 18.704 34.5506 18.9419C34.2626 19.0609 33.9589 19.1235 33.6521 19.1235H24.6363C23.3402 19.1235 22.2884 18.0716 22.2884 16.7756C22.2884 15.4796 23.3402 14.4277 24.6363 14.4277H27.9828L20.8859 7.32773C20.7451 7.18998 20.5197 7.19311 20.3788 7.32773L15.7676 11.9421C13.7985 13.9143 10.5897 13.9143 8.62062 11.9421L0.687928 4.00939C-0.229309 3.09215 -0.229309 1.60517 0.687928 0.687928C1.60517 -0.229309 3.08902 -0.229309 4.00626 0.687928L11.939 8.62375C12.0579 8.73958 12.3271 8.74271 12.4461 8.62375L17.0605 4.00939C18.9701 2.10292 22.3009 2.10605 24.2043 4.00939L31.3042 11.1062V7.75973C31.3042 6.46371 32.3561 5.41186 33.6521 5.41186C34.9482 5.41186 36 6.46371 36 7.75973V16.7756Z" fill="#F6465D"/>
</svg>
