<svg width="36" height="36" viewBox="0 0 36 36" fill="none" xmlns="http://www.w3.org/2000/svg">
<path fill-rule="evenodd" clip-rule="evenodd" d="M24 16.56C17.38 16.56 12 19.24 12 22.54C12 25.84 17.38 28.52 24 28.52C30.62 28.52 36 25.84 36 22.54C36 19.24 30.62 16.56 24 16.56ZM24 31.52C18.98 31.52 14.7 30.2 12 28.06V30.02C12 34 18 36 24 36C30 36 36 34 36 30.02V28.06C33.3 30.2 29.02 31.52 24 31.52ZM12 0C6 0 0 2 0 5.98C0 10 6 11.96 12 11.96C18 11.96 24 10 24 5.98C24 2 18 0 12 0ZM24 11.7V13.06C24 13.24 23.98 13.4 23.96 13.56C22.38 13.56 20.88 13.7 19.48 13.94C21.28 13.4 22.8 12.64 24 11.7ZM16.88 14.56C13.84 15.5 11.46 17.04 10.14 18.96C4.82 18.62 0 16.66 0 13.06V11.7C2.62 13.76 6.82 14.96 12 14.96C13.74 14.96 15.38 14.82 16.88 14.56ZM9.08001 21.88C9.06001 21.9 9.06 21.92 9.06 21.94C9.02 22.14 9 22.34 9 22.54V26.36C4.16 25.8 0 23.88 0 20.54V18.78C2.1 20.44 5.22 21.54 9.06 21.88H9.08001ZM9 30.02C9 31.48 9.43999 32.8 10.26 33.94C4.89999 33.6 0 31.64 0 28.02V26.26C2.1 27.9 5.2 29 9 29.36V30.02Z" fill="#F68646"/>
</svg>
