<svg width="28" height="28" viewBox="0 0 28 28" fill="none" xmlns="http://www.w3.org/2000/svg">
<g clip-path="url(#clip0_4666_1648)">
<path d="M4.36117 23.3333C4.32918 23.1007 4.26812 22.8681 4.26812 22.6384C4.26231 16.9161 4.26231 11.1968 4.26522 5.47453C4.26522 5.30007 4.30302 5.1227 4.32046 4.94824C7.49853 7.92277 10.5632 11.0136 13.6075 14.1248C10.5254 17.1924 7.44328 20.2629 4.36117 23.3333Z" fill="#4285F2"/>
<path d="M13.6075 14.125C10.5632 11.0138 7.4985 7.92299 4.32043 4.94555C4.85254 3.20677 6.46628 2.45369 8.01897 3.32599C11.5314 5.3061 15.0061 7.35018 18.4982 9.371C16.9077 10.9586 15.3172 12.5462 13.7238 14.1337C13.686 14.1337 13.6482 14.1308 13.6075 14.125Z" fill="#36A854"/>
<path d="M13.6075 14.125C13.6453 14.1308 13.686 14.1337 13.7238 14.1337C15.2794 15.7184 16.835 17.306 18.3906 18.8906C14.916 20.894 11.453 22.9177 7.96086 24.892C6.51285 25.712 4.60252 24.8368 4.35828 23.3306C7.4433 20.2631 10.5254 17.1926 13.6075 14.125Z" fill="#E84537"/>
<path d="M18.3905 18.8908C16.8349 17.3061 15.2794 15.7185 13.7238 14.1339C15.3171 12.5463 16.9076 10.9587 18.4981 9.37402C20.0159 10.2347 21.5541 11.0576 23.0428 11.9677C24.7176 12.9911 24.7496 15.2039 23.0922 16.2274C21.5599 17.1694 19.9607 18.0068 18.3905 18.8908Z" fill="#FABB06"/>
</g>
<defs>
<clipPath id="clip0_4666_1648">
<rect width="23" height="23" fill="white" transform="translate(2.5 2.5)"/>
</clipPath>
</defs>
</svg>
