<svg width="35" height="36" viewBox="0 0 35 36" fill="none" xmlns="http://www.w3.org/2000/svg">
<g clip-path="url(#clip0_4572_1895)">
<path d="M2.19482 34.3011C2.43235 32.4211 4.37468 27.9179 6.26064 23.9084C6.6921 22.8666 7.62267 21.0956 8.27212 19.0353C9.58154 15.222 21.882 13.8502 24.9097 19.1308C25.4652 20.6552 26.4341 22.8403 26.8656 23.8821C29.0116 28.414 30.1992 31.3928 30.6976 34.3169L2.19482 34.3018V34.3011Z" fill="#FFEF75"/>
<path d="M24.2076 20.0869C23.0846 21.6842 20.0313 23.6108 16.8314 23.6724C13.6316 23.734 9.77095 21.7669 8.79979 20.0245C8.40366 19.3142 6.9191 17.1644 6.88828 14.965C5.24061 10.2618 5.81037 5.79229 9.54019 1.8009C10.6391 1.01389 12.8431 0.0134105 16.3105 -0.000119643C19.778 -0.0136498 22.3036 1.07853 23.4026 1.86479C26.3875 5.21425 27.7458 8.04882 26.5935 14.9402C26.4709 16.9434 24.7939 19.2518 24.2069 20.0862L24.2076 20.0869Z" fill="#FFEF75"/>
<path d="M9.73038 1.68435C6.64175 2.0662 1.13197 6.26957 0.562198 8.54489C0.105179 10.848 3.40879 13.6315 5.23912 17.362C5.96674 18.8459 7.63546 14.8853 7.18371 11.0976C6.83117 8.14274 7.74596 5.71182 9.44249 3.995C9.99272 3.13132 9.68904 2.50743 9.73114 1.68359L9.73038 1.68435Z" fill="#D5882C"/>
<path d="M23.3951 1.65723C26.6521 2.17588 31.9236 5.87789 32.564 8.51852C33.021 10.8217 29.7174 13.6051 27.8871 17.3364C27.1595 18.8202 26.2176 14.3605 26.3845 11.2922C26.5469 8.31031 25.3803 5.68546 23.6837 3.96863C23.2395 3.23048 23.02 2.2285 23.3951 1.65723Z" fill="#D5882C"/>
<path d="M11.6178 6.85818C9.87014 7.07016 10.2219 9.51761 11.6178 9.2207C13.5721 8.80502 12.8678 6.70634 11.6178 6.85818Z" fill="#0C0B0B"/>
<path d="M11.823 6.89879C11.3089 6.88075 11.2592 7.56628 11.823 7.55726C12.2537 7.55049 12.4176 6.91983 11.823 6.89879Z" fill="white"/>
<path d="M21.8008 6.97854C23.5492 7.19052 23.1967 9.63797 21.8008 9.34106C19.8464 8.92538 20.5508 6.82671 21.8008 6.97854Z" fill="#0C0B0B"/>
<path d="M21.5955 7.0189C22.1097 7.00086 22.1593 7.68564 21.5955 7.67737C21.1648 7.67061 21.0009 7.03995 21.5955 7.0189Z" fill="white"/>
<path d="M16.5925 15.1168C14.5269 15.0657 14.021 12.3544 16.6879 12.3409C19.3549 12.3281 18.6581 15.1672 16.5925 15.1168Z" fill="#0C0B0B"/>
<path d="M11.4983 16.9961C11.8057 18.852 12.8453 20.3704 14.4238 20.7718C14.4193 20.0231 14.287 18.9241 14.2923 18.9189C13.2084 18.746 12.0929 18.4942 11.4983 16.9961Z" fill="#0C0B0B"/>
<path d="M22.0195 17.0352C21.3588 19.3954 20.5718 20.4989 19.094 20.7484C19.0985 19.9998 19.2308 18.9008 19.2255 18.8956C20.4109 18.8234 21.4249 18.5332 22.0195 17.0352Z" fill="#0C0B0B"/>
<path d="M19.2278 18.9489C19.1421 21.7278 18.4994 24.1152 16.7593 24.1264C15.0222 24.1377 14.3765 21.7504 14.2908 18.9715C15.7866 18.3859 15.9475 17.4944 16.7006 16.7405C17.7071 17.747 18.1912 18.4986 19.2278 18.9489Z" fill="#FD655A"/>
<path d="M16.7074 14.8184C16.6089 14.8221 16.5323 14.9056 16.536 15.004L16.5834 16.7742C16.5834 16.8727 16.6623 16.9531 16.7608 16.9539C16.8592 16.9539 16.9397 16.875 16.9404 16.7765C16.9404 16.7727 16.9404 16.7682 16.9404 16.7645L16.8938 14.9943C16.8923 14.8958 16.8119 14.8169 16.7134 14.8176C16.7119 14.8176 16.7097 14.8176 16.7082 14.8176L16.7074 14.8184Z" fill="#D5882C"/>
<path d="M11.8975 14.7291C11.8321 14.7306 11.7727 14.7674 11.7426 14.826C11.2879 15.6739 11.1826 16.6767 11.4675 17.3321C11.9689 18.4882 13.0408 19.0933 13.9488 19.073C14.8568 19.0527 15.5311 18.5716 16.0106 18.0613C16.2504 17.8064 16.4436 17.5426 16.5992 17.3201C16.6826 17.2006 16.7247 17.1472 16.7864 17.0608C16.9299 17.3629 17.1419 17.7335 17.5042 18.1064C17.9808 18.5964 18.6686 19.0309 19.5713 19.0505C20.4388 19.0692 21.6016 18.6288 22.139 17.5343C22.463 16.8759 22.3939 15.8401 21.9391 14.8463C21.8985 14.7569 21.7925 14.717 21.7023 14.7576C21.6129 14.799 21.573 14.905 21.6144 14.9944C22.0338 15.9115 22.0631 16.8789 21.8188 17.3765C21.355 18.3198 20.3162 18.7092 19.5788 18.6934C18.7866 18.6761 18.192 18.301 17.7605 17.8575C17.3298 17.4141 17.0705 16.8969 16.9833 16.6564C16.9502 16.5639 16.8473 16.5151 16.7548 16.5489C16.7277 16.5587 16.7029 16.5752 16.6834 16.5962C16.5721 16.718 16.4586 16.8984 16.3075 17.1156C16.1557 17.3329 15.9723 17.5817 15.7513 17.817C15.3093 18.2875 14.7283 18.6987 13.942 18.716C13.2024 18.7325 12.2425 18.2161 11.7967 17.1893C11.5833 16.697 11.6517 15.7536 12.0591 14.9937C12.1072 14.9072 12.0756 14.799 11.9892 14.7509C11.9614 14.7351 11.9305 14.7276 11.899 14.7283L11.8975 14.7291Z" fill="#0C0B0B"/>
<path d="M4.023 30.9772C1.9559 30.7825 -1.56495 34.2087 0.77276 35.4918C2.37308 36.3705 5.479 35.8902 6.55089 35.6722C8.89161 35.1971 7.2041 31.2771 4.023 30.9772Z" fill="#FAE965"/>
<path d="M30.2737 30.8307C32.3408 30.636 35.8617 34.0622 33.524 35.3453C31.9229 36.224 28.8177 35.7437 27.7451 35.5257C25.4044 35.0506 27.0926 31.1306 30.273 30.8307H30.2737Z" fill="#FAE965"/>
</g>
<defs>
<clipPath id="clip0_4572_1895">
<rect width="34.2967" height="36" fill="white"/>
</clipPath>
</defs>
</svg>
