<svg width="36" height="20" viewBox="0 0 36 20" fill="none" xmlns="http://www.w3.org/2000/svg">
<path d="M36 11.3637C36 12.6598 34.9482 13.7116 33.6521 13.7116C32.3561 13.7116 31.3042 12.6598 31.3042 11.3637V8.01409L24.2043 15.1141C22.3009 17.0205 18.9701 17.0237 17.0605 15.1141L12.4461 10.4997C12.3271 10.3807 12.0579 10.3807 11.939 10.4997L4.00626 18.4324C3.54921 18.8926 2.94815 19.1211 2.34709 19.1211C1.74604 19.1211 1.14498 18.8926 0.687928 18.4324C-0.229309 17.5152 -0.229309 16.0313 0.687928 15.1141L8.62062 7.17824C10.5866 5.20916 13.7953 5.20603 15.7676 7.17824L20.3788 11.7926C20.5197 11.9303 20.7451 11.9335 20.8859 11.7926L27.9828 4.69575H24.6363C23.3402 4.69575 22.2884 3.64391 22.2884 2.34788C22.2884 1.04872 23.3402 0 24.6363 0H33.6521C33.9589 0 34.2626 0.0626099 34.5506 0.178438C35.1235 0.419487 35.5805 0.876541 35.8184 1.44942C35.9374 1.73743 36 2.04109 36 2.34788V11.3637Z" fill="#12B886"/>
</svg>
