<svg width="34" height="34" viewBox="0 0 34 34" fill="none" xmlns="http://www.w3.org/2000/svg">
<path d="M33.9535 18.2147C33.9535 22.7792 31.2192 25.7504 25.632 27.0961C25.3123 27.1882 25.087 27.4741 25.0722 27.8066V32.2526C25.0722 32.4679 24.2971 33.06 22.8546 33.06C22.3354 33.0641 21.8203 32.9691 21.3367 32.7801C21.084 32.6849 20.7996 32.7344 20.5939 32.9093C19.5519 33.6979 18.2586 34.0805 16.9553 33.9858C15.6587 34.0501 14.379 33.6704 13.3274 32.9093C13.1865 32.789 13.0067 32.7239 12.8214 32.7263C12.7346 32.6941 12.6391 32.6941 12.5523 32.7263C12.0596 32.8882 11.5419 32.9611 11.0236 32.9416C9.55956 32.9416 8.87059 32.3495 8.87059 32.1342V27.6881C8.86999 27.3447 8.63408 27.0465 8.30003 26.9669C2.8313 25.6643 0.129231 22.833 2.35576e-05 18.3547V18.0856C-0.00124974 17.2937 0.0490948 16.5026 0.150761 15.7172C0.140014 15.6422 0.140014 15.5661 0.150761 15.4911C0.279944 14.6838 0.462952 13.8441 0.678257 13.0044C0.704697 12.9342 0.726278 12.8622 0.742848 12.7891C0.958152 12.0786 1.18422 11.3573 1.48565 10.636C1.48565 10.5499 1.58254 10.4638 1.61483 10.3669C1.8409 9.8717 2.0562 9.3765 2.29304 8.90283C2.38993 8.71983 2.48681 8.53682 2.5837 8.37534C2.84897 7.8935 3.14006 7.42633 3.45568 6.97586C3.52689 6.85933 3.60602 6.74782 3.69252 6.64214C4.09937 6.04968 4.54533 5.48505 5.0274 4.952L5.40419 4.57522C5.78097 4.16614 6.21158 3.83242 6.62066 3.4987L7.11586 3.08962C7.63168 2.69821 8.17095 2.3387 8.73064 2.0131C8.80073 1.94225 8.88515 1.8872 8.97824 1.85162C9.65016 1.50602 10.3485 1.21444 11.0667 0.979635L11.6803 0.796626C12.2748 0.598769 12.8828 0.444066 13.4996 0.333722C13.7388 0.310158 13.9762 0.270597 14.2101 0.215304C15.0943 0.0843475 15.9862 0.0124203 16.8799 0H17.1167C30.3472 0.129183 33.9535 11.465 33.9535 18.2147ZM14.5762 13.1766C14.5762 10.7984 12.6483 8.87054 10.2701 8.87054C7.89188 8.87054 5.96398 10.7984 5.96398 13.1766C5.96398 15.5548 7.89188 17.4827 10.2701 17.4827C11.4121 17.4827 12.5074 17.029 13.3149 16.2215C14.1225 15.4139 14.5762 14.3187 14.5762 13.1766ZM19.9588 24.9215C19.9093 23.2111 18.6545 21.7757 16.966 21.4981C15.2817 21.7771 14.034 23.2147 13.9948 24.9215C13.9948 26.6547 15.6634 26.6547 16.966 26.6547C18.2686 26.6547 19.9588 26.6654 19.9588 24.9215ZM27.6021 13.1766C27.6021 10.7984 25.6742 8.87054 23.296 8.87054C20.9178 8.87054 18.9899 10.7984 18.9899 13.1766C18.9899 15.5548 20.9178 17.4827 23.296 17.4827C24.438 17.4827 25.5333 17.029 26.3408 16.2215C27.1484 15.4139 27.6021 14.3187 27.6021 13.1766Z" fill="#F6465D"/>
</svg>
