<svg width="37" height="36" viewBox="0 0 37 36" fill="none" xmlns="http://www.w3.org/2000/svg">
<g clip-path="url(#clip0_4572_1917)">
<path d="M26.8947 25.7882C26.3139 24.0796 26.1881 22.9674 25.7408 21.8832C22.8648 18.1108 13.02 18.2996 10.0646 21.9326C9.61735 23.0168 9.49248 24.129 8.91069 25.8376C7.80327 27.9566 7.88361 31.607 7.88361 33.7338H27.1338C27.7659 31.2053 27.25 28.2393 26.8937 25.7872L26.8947 25.7882Z" fill="#F2F2F2"/>
<path d="M29.2645 30.2257C29.9112 31.4289 30.4 32.5761 30.43 33.7183L27.2355 33.8752C26.7535 33.304 26.3469 30.8665 26.3837 28.9518C27.2781 28.672 28.433 29.1676 29.2635 30.2257H29.2645Z" fill="#CB6F1C"/>
<path d="M29.2645 30.2258C28.522 28.8444 27.5714 27.3904 26.8686 25.7864C26.4436 26.857 26.4068 28.0177 26.3778 29.2035C26.8057 29.644 27.5617 30.4358 29.2645 30.2258Z" fill="#1A1A1A"/>
<path d="M6.49168 30.1764C5.84503 31.3796 5.35618 32.5267 5.32617 33.669L8.52066 33.8258C9.00274 33.2547 9.40931 30.8172 9.37253 28.9024C8.47807 28.6227 7.32321 29.1183 6.49265 30.1764H6.49168Z" fill="#CB6F1C"/>
<path d="M6.49158 30.1764C7.23405 28.7951 8.18369 27.3411 8.88745 25.7371C9.31241 26.8077 9.51086 28.5327 9.33758 29.2752C8.90971 29.7157 8.19434 30.3865 6.49158 30.1764Z" fill="#1A1A1A"/>
<path d="M25.7418 21.8833C26.1542 21.3528 26.8057 20.5165 27.1348 20.0237C26.7263 13.7345 24.9384 4.29618 18.1457 1.86353C12.4934 4.24584 8.54483 13.9019 8.65712 19.9327C9.15662 20.6462 9.60869 21.2415 10.0656 21.9327C11.2292 22.9491 15.5572 24.7768 17.9144 24.7148C20.2706 24.6528 24.5231 22.7313 25.7418 21.8823V21.8833Z" fill="#F2F2F2"/>
<path d="M18.1699 16.5166C21.347 16.5224 20.9375 12.9001 18.1176 12.8788C15.3026 12.8575 15.2794 16.5118 18.1699 16.5166Z" fill="#DA7418"/>
<path d="M18.2231 16.3916C18.1166 16.3964 18.0334 16.4865 18.0372 16.593L18.045 17.5939C18.043 17.7004 18.1292 17.7885 18.2357 17.7904C18.3422 17.7914 18.4303 17.7062 18.4322 17.5997C18.4322 17.5978 18.4322 17.5958 18.4322 17.5939L18.4245 16.5939C18.4293 16.4874 18.346 16.3964 18.2396 16.3926C18.2337 16.3926 18.2289 16.3926 18.2231 16.3926V16.3916Z" fill="#DA7418"/>
<path d="M15.4963 19.1262C14.0384 18.6606 12.839 17.5077 12.3163 16.5513C12.6473 17.8813 13.1565 19.6131 14.3627 20.5144C14.6686 21.1601 14.9745 21.6983 15.6879 21.6983C15.6444 20.8977 15.5146 19.9945 15.4953 19.1272L15.4963 19.1262Z" fill="#02030B"/>
<path d="M21.0353 19.3199C22.679 18.7642 23.8948 17.9763 24.5928 16.7227C24.3953 17.834 23.1068 20.1224 22.2124 20.6209C21.7729 21.5279 21.3595 21.799 20.6451 21.799C21.0449 21.1291 20.7032 20.0575 21.0343 19.3208L21.0353 19.3199Z" fill="#02030B"/>
<path d="M20.9627 19.2503C20.9607 21.135 20.8233 24.6529 18.2435 24.5444C15.6637 24.436 15.1981 22.016 15.5136 19.1603C16.866 19.0896 17.9173 18.2542 18.3267 17.8438C19.0053 18.351 19.8233 19.3936 20.9627 19.2503Z" fill="#FD655A"/>
<path d="M27.0235 20.2202C27.5007 19.5223 27.9092 18.7817 28.1077 18.0876C29.4562 15.3936 31.3419 10.0772 27.8115 4.13351C25.4446 1.56146 23.2424 -0.0241717 17.9037 2.89829e-05C12.565 0.0251977 10.3628 1.61083 7.99594 4.18288C5.95727 6.98145 4.43263 13.2194 7.66971 18.1854C7.873 18.7294 8.26892 19.4109 8.73164 20.0944C9.25147 18.3868 10.3996 16.6036 11.6212 15.5901C12.1081 12.0917 15.0461 11.2882 16.7711 10.8816C15.8379 8.68615 16.3132 5.4539 18.0954 2.64178C20.1466 5.17898 20.9588 8.31249 19.5668 10.8816C21.7845 11.6299 24.4224 12.3956 25.011 15.443C25.9074 16.8273 26.9848 18.6104 27.0254 20.2202H27.0235Z" fill="#DA7418"/>
<path d="M12.6299 7.02505C9.9562 7.05409 9.64256 10.9368 12.8341 10.7123C15.2668 10.5409 15.0209 6.99891 12.6299 7.02505Z" fill="#F2F2F2"/>
<path d="M23.4824 7.17495C26.1571 7.20399 26.4698 11.0868 23.2782 10.8622C20.8455 10.6908 21.0914 7.14881 23.4824 7.17495Z" fill="#F2F2F2"/>
<path d="M12.7054 9.92617C14.3307 9.89132 14.1904 7.83136 12.5893 7.77812C11.1324 7.72972 10.9543 9.96393 12.7054 9.92617Z" fill="#02030B"/>
<path d="M23.4079 10.0763C21.7826 10.0415 21.9229 7.9815 23.5241 7.92729C24.9809 7.87889 25.1591 10.1131 23.4079 10.0763Z" fill="#02030B"/>
<path d="M12.2059 16.3356C12.1014 16.3569 12.0336 16.4595 12.0559 16.5641C12.0607 16.5892 12.0714 16.6125 12.0849 16.6338C12.689 17.5844 13.0994 18.3423 14.2388 18.9328C14.2504 18.9386 14.2591 18.9435 14.2707 18.9493C14.8912 19.4159 15.7373 19.3994 16.5049 19.1516C17.2038 18.9261 17.8176 18.4963 18.2309 18.0219C18.6336 18.5621 19.2338 19.0335 19.9085 19.2804C20.6365 19.5466 21.4399 19.5611 22.0546 19.1109C23.0256 18.7266 24.1282 17.717 24.7651 16.7877C24.8251 16.6986 24.8019 16.5776 24.7128 16.5176C24.6238 16.4576 24.5028 16.4808 24.4428 16.5699C23.8513 17.4324 22.7526 18.414 21.9094 18.7479C21.892 18.7567 21.8755 18.7673 21.861 18.7799C21.378 19.1594 20.7042 19.1613 20.0382 18.9173C19.3722 18.6734 18.742 18.1758 18.409 17.6512C18.3519 17.5611 18.2329 17.5331 18.1419 17.5902C18.1196 17.6037 18.1012 17.6221 18.0857 17.6434C17.7585 18.0916 17.0896 18.5524 16.3839 18.7809C15.6782 19.0083 14.96 19.0045 14.4798 18.6279C14.4701 18.6182 14.4595 18.6105 14.4479 18.6037C13.3666 18.0539 13.0249 17.3985 12.4073 16.4256C12.3647 16.3569 12.2843 16.3211 12.2059 16.3366V16.3356Z" fill="#DA7418"/>
<path d="M7.93592 4.22558C4.54879 6.89346 -0.355238 12.6232 0.0203569 15.354C0.413376 18.2136 3.19839 23.8736 5.784 22.7672C8.04337 21.8001 8.11307 18.3414 7.10729 14.7539C5.91274 10.4936 8.69292 7.57205 8.66775 6.08129C8.22924 5.3301 8.32507 5.03485 7.93496 4.22461L7.93592 4.22558Z" fill="#79461A"/>
<path d="M27.8715 4.17505C29.9538 6.49444 36.2808 10.4827 36.2605 14.259C36.245 17.1437 32.6081 23.8241 30.0235 22.7176C27.7641 21.7506 27.6944 18.2918 28.7002 14.7043C29.8947 10.444 27.1145 7.52249 27.1397 6.03173C27.3091 5.13049 27.4688 4.92817 27.8725 4.17505H27.8715Z" fill="#79461A"/>
<path d="M12.6996 7.92822C12.2001 7.91273 12.2824 8.65521 12.7615 8.60777C13.2407 8.55937 13.1991 7.94467 12.6996 7.92822Z" fill="white"/>
<path d="M23.3557 8.04052C23.8552 8.02503 23.7729 8.76751 23.2937 8.72008C22.8145 8.67168 22.8562 8.05698 23.3557 8.04052Z" fill="white"/>
<path d="M5.22351 30.9913C0.943859 30.3989 -0.219711 36.6078 5.05798 35.9515C10.4422 35.2816 8.19729 31.4037 5.22351 30.9913Z" fill="#E4E4E4"/>
<path d="M30.729 30.8946C28.5703 30.7465 26.0583 33.0271 27.5878 34.5314C29.3467 36.2613 32.6767 36.1219 33.7048 34.5314C34.9051 32.6757 32.7241 31.0311 30.729 30.8946Z" fill="#E4E4E4"/>
</g>
<defs>
<clipPath id="clip0_4572_1917">
<rect width="36.2604" height="36" fill="white"/>
</clipPath>
</defs>
</svg>
