<svg width="24" height="15" viewBox="0 0 24 15" fill="none" xmlns="http://www.w3.org/2000/svg">
<path d="M17.5039 10.646C17.4697 10.646 17.4403 10.646 17.4061 10.6411C17.3719 10.6363 17.3426 10.6314 17.3084 10.6265C17.2741 10.6216 17.2448 10.6118 17.2106 10.602C17.1813 10.5923 17.147 10.5776 17.1177 10.5678L17.0297 10.5238C17.0004 10.5092 16.9711 10.4896 16.9466 10.4701C16.9173 10.4505 16.8929 10.431 16.8684 10.4065C16.844 10.3821 16.8196 10.3625 16.7951 10.3381C16.7707 10.3136 16.7511 10.2892 16.7316 10.2599C16.712 10.2305 16.6925 10.2061 16.6729 10.1768C16.6534 10.1475 16.6387 10.1181 16.624 10.0888C16.6094 10.0595 16.5947 10.0253 16.58 9.99593C16.5654 9.96171 16.5556 9.93238 16.5458 9.89817C16.536 9.86395 16.5263 9.82974 16.5214 9.79552L16.5067 9.69287C16.5018 9.65866 16.5018 9.62444 16.5018 9.59022C16.5018 9.55601 16.5018 9.52179 16.5067 9.48758L16.5214 9.38493C16.5263 9.35071 16.536 9.3165 16.5458 9.28228C16.5556 9.24807 16.5654 9.21874 16.58 9.18452C16.5947 9.15031 16.6045 9.12098 16.624 9.09165C16.6387 9.06232 16.6582 9.03299 16.6729 9.00367C16.6925 8.97434 16.712 8.94501 16.7316 8.92057C16.7511 8.89613 16.7756 8.8668 16.8 8.84236C16.8244 8.81792 16.8489 8.79348 16.8733 8.77393C16.8978 8.75438 16.9271 8.72994 16.9515 8.71039C16.9809 8.69084 17.0053 8.67128 17.0346 8.65662L17.1226 8.61263C17.1519 8.59796 17.1862 8.58819 17.2155 8.57841C17.2448 8.56864 17.279 8.55886 17.3132 8.55397C17.3475 8.54908 17.3768 8.5442 17.411 8.53931C17.4452 8.53442 17.4745 8.53442 17.5088 8.53442C17.543 8.53442 17.5723 8.53442 17.6065 8.53931C17.6407 8.5442 17.6701 8.54908 17.7043 8.55397C17.7385 8.55886 17.7678 8.56864 17.802 8.57841C17.8314 8.58819 17.8656 8.59796 17.8949 8.61263L17.9829 8.65662C18.0122 8.67128 18.0415 8.69084 18.066 8.71039C18.0953 8.72994 18.1198 8.74949 18.1442 8.77393C18.1686 8.79837 18.1931 8.81792 18.2175 8.84236C18.242 8.8668 18.2615 8.89124 18.2859 8.92057C18.3055 8.94501 18.3251 8.97434 18.3446 9.00367C18.3642 9.03299 18.3788 9.06232 18.3935 9.09165C18.4081 9.12098 18.4228 9.15519 18.4375 9.18452C18.4521 9.21874 18.4619 9.24807 18.4717 9.28228C18.4815 9.3165 18.4912 9.35071 18.4961 9.38493L18.5108 9.48758C18.5157 9.52179 18.5157 9.55601 18.5157 9.59022C18.5157 9.62444 18.5157 9.65866 18.5108 9.69287L18.4961 9.79552C18.4912 9.82974 18.4815 9.86395 18.4717 9.89817C18.4619 9.93238 18.4521 9.9666 18.4375 9.99593C18.4228 10.0301 18.413 10.0595 18.3935 10.0888C18.3739 10.1181 18.3593 10.1475 18.3446 10.1768C18.3251 10.2061 18.3055 10.2354 18.2859 10.2599C18.2664 10.2843 18.242 10.3136 18.2175 10.3381C18.1931 10.3625 18.1686 10.387 18.1442 10.4065C18.1198 10.431 18.0904 10.4505 18.066 10.4701C18.0367 10.4896 18.0122 10.5092 17.9829 10.5238L17.8949 10.5678C17.8656 10.5825 17.8314 10.5923 17.802 10.602C17.7727 10.6118 17.7385 10.6216 17.7043 10.6265C17.6701 10.6314 17.6407 10.6363 17.6065 10.6411C17.5723 10.6411 17.5381 10.646 17.5039 10.646ZM6.49124 10.646C6.45703 10.646 6.4277 10.646 6.39348 10.6411C6.35927 10.6363 6.32994 10.6314 6.29572 10.6265C6.26151 10.6216 6.23218 10.6118 6.19796 10.602C6.16864 10.5923 6.13442 10.5825 6.10509 10.5678L6.01711 10.5238C5.98778 10.5092 5.95845 10.4896 5.93401 10.4701C5.90468 10.4505 5.88024 10.431 5.8558 10.4065C5.83136 10.3821 5.80692 10.3625 5.78248 10.3381C5.75804 10.3136 5.73849 10.2892 5.71405 10.2599C5.6945 10.2354 5.67495 10.2061 5.6554 10.1768C5.63585 10.1475 5.62118 10.1181 5.60652 10.0888C5.59185 10.0595 5.57719 10.0253 5.56253 9.99593C5.54786 9.9666 5.53809 9.93238 5.52831 9.89817C5.51853 9.86395 5.50876 9.82974 5.50387 9.79552L5.48921 9.69287C5.48432 9.65866 5.48432 9.62444 5.48432 9.59022C5.48432 9.55601 5.48432 9.52179 5.48921 9.48758L5.50387 9.38493C5.50876 9.35071 5.51853 9.3165 5.52831 9.28228C5.53809 9.24807 5.54786 9.21874 5.56253 9.18452C5.57719 9.15031 5.58697 9.12098 5.60652 9.09165C5.62118 9.06232 5.64073 9.03299 5.6554 9.00367C5.67495 8.97434 5.6945 8.94501 5.71405 8.92057C5.7336 8.89613 5.75804 8.8668 5.78248 8.84236C5.80692 8.81792 5.83136 8.79348 5.8558 8.77393C5.88024 8.74949 5.90957 8.72994 5.93401 8.71039C5.96334 8.69084 5.98778 8.67128 6.01711 8.65662L6.10509 8.61263C6.13442 8.59796 6.16864 8.58819 6.19796 8.57841C6.22729 8.56864 6.26151 8.55886 6.29572 8.55397C6.32994 8.54908 6.35927 8.5442 6.39348 8.53931C6.4277 8.53442 6.45703 8.53442 6.49124 8.53442C6.52546 8.53442 6.55479 8.53442 6.589 8.53931C6.62322 8.5442 6.65255 8.54908 6.68676 8.55397C6.72098 8.55886 6.75031 8.56864 6.78452 8.57841C6.81385 8.58819 6.84807 8.59796 6.87739 8.61263L6.96538 8.65662C6.9947 8.67128 7.02403 8.69084 7.04847 8.71039C7.0778 8.72994 7.10224 8.74949 7.12668 8.77393C7.15112 8.79837 7.17556 8.81792 7.2 8.84236C7.22444 8.8668 7.24399 8.89124 7.26843 8.92057C7.28798 8.94501 7.30754 8.97434 7.32709 9.00367C7.34664 9.03299 7.3613 9.06232 7.37597 9.09165C7.39063 9.12098 7.4053 9.15519 7.41996 9.18452C7.43462 9.21874 7.4444 9.24807 7.45418 9.28228C7.46395 9.3165 7.47373 9.35071 7.47862 9.38493L7.49328 9.48758C7.49817 9.52179 7.49817 9.55601 7.49817 9.59022C7.49817 9.62444 7.49817 9.65866 7.49328 9.69287L7.47862 9.79552C7.47373 9.82974 7.46395 9.86395 7.45418 9.89817C7.4444 9.93238 7.43462 9.96171 7.41996 9.99593C7.4053 10.0301 7.39552 10.0595 7.37597 10.0888C7.3613 10.1181 7.34175 10.1475 7.32709 10.1768C7.30754 10.2061 7.28798 10.2354 7.26843 10.2599C7.24888 10.2843 7.22444 10.3136 7.2 10.3381C7.17556 10.3625 7.15112 10.387 7.12668 10.4065C7.10224 10.431 7.07291 10.4505 7.04847 10.4701C7.01914 10.4896 6.9947 10.5092 6.96538 10.5238L6.87739 10.5678C6.84807 10.5825 6.81385 10.5923 6.78452 10.602C6.75519 10.6118 6.72098 10.6216 6.68676 10.6265C6.65255 10.6314 6.62322 10.6363 6.589 10.6411C6.55479 10.6411 6.52546 10.646 6.49124 10.646ZM17.8558 4.28187L19.8452 0.645214C19.8599 0.620774 19.8697 0.596334 19.8794 0.567006C19.8892 0.542566 19.8941 0.513238 19.899 0.48391C19.9039 0.454583 19.9039 0.430143 19.9039 0.400815C19.9039 0.371487 19.899 0.347047 19.8892 0.317719C19.8843 0.288391 19.8745 0.263951 19.8599 0.239511C19.8501 0.215071 19.8354 0.190631 19.8208 0.166192C19.8061 0.141752 19.7866 0.1222 19.767 0.107536C19.7475 0.0879839 19.7279 0.07332 19.7035 0.058656C19.679 0.0439921 19.6546 0.0342159 19.6301 0.0244399C19.6057 0.014664 19.5813 0.00977627 19.5519 0.00488828C19.5275 2.98266e-07 19.4982 0 19.4737 0C19.4493 0 19.42 0.00488813 19.3955 0.0146641C19.3711 0.0195521 19.3466 0.029328 19.3222 0.0439919C19.2978 0.0586559 19.2782 0.0733199 19.2538 0.0879839C19.2342 0.102648 19.2147 0.1222 19.1951 0.14664C19.1756 0.166191 19.1609 0.190631 19.1511 0.215071L17.1324 3.90061C15.5927 3.15764 13.8623 2.74705 12 2.74705C10.1377 2.74705 8.40733 3.16253 6.86762 3.90061L4.85377 0.215071C4.8391 0.190631 4.82444 0.166191 4.80978 0.14664L4.75112 0.0879839C4.73157 0.0733199 4.70713 0.0586559 4.68269 0.0439919C4.65825 0.029328 4.63381 0.0195521 4.60937 0.0146641C4.58493 0.00977612 4.5556 0.00488798 4.53116 0C4.50672 0 4.47739 2.98266e-07 4.45295 0.00488828C4.42851 0.00977627 4.39919 0.014664 4.37475 0.0244399C4.35031 0.0342159 4.32587 0.0439921 4.30143 0.058656C4.27699 0.07332 4.25743 0.0879839 4.23788 0.107536C4.21833 0.127088 4.19878 0.14664 4.18411 0.166192C4.16945 0.190631 4.15479 0.210183 4.14012 0.239511C4.13035 0.263951 4.12057 0.288391 4.11079 0.317719C4.10591 0.347047 4.10102 0.371487 4.09613 0.400815C4.09124 0.430143 4.09613 0.454583 4.10102 0.48391C4.10591 0.513238 4.11079 0.537679 4.12057 0.567006C4.13035 0.591446 4.14012 0.620774 4.15479 0.645214L6.13931 4.28187C2.70794 6.24196 0.386151 9.90794 0 14.1996H24C23.6138 9.90794 21.2921 6.24196 17.8558 4.28187Z" fill="white"/>
</svg>
