<svg width="20" height="19" viewBox="0 0 20 19" fill="none" xmlns="http://www.w3.org/2000/svg">
<path d="M16.7052 7.25713C16.6742 2.68664 19.2425 2.56837 19.3579 2.49515C17.9133 0.383095 15.6661 0.0507994 14.8663 0.0198226C12.9542 -0.174486 11.135 1.12372 10.1635 1.12372C9.19472 1.12372 7.69657 0.0170067 6.11112 0.0451674C4.02723 0.0761442 2.10385 1.25326 1.02811 3.12032C-1.13744 6.87977 0.473348 12.4471 2.5854 15.4941C3.61608 16.9867 4.84671 18.6622 6.46313 18.6031C8.0176 18.5411 8.60616 17.5949 10.4873 17.5949C12.3684 17.5949 12.895 18.6031 14.5424 18.5693C16.2152 18.5383 17.2768 17.0486 18.2991 15.5505C19.4846 13.8186 19.9718 12.2275 20 12.143C19.9634 12.1261 16.7362 10.3041 16.7024 7.25713H16.7052Z" fill="white"/>
</svg>
