<svg width="23" height="23" viewBox="0 0 23 23" fill="none" xmlns="http://www.w3.org/2000/svg">
<path d="M-1.90735e-06 11.5C-1.90735e-06 5.1865 5.11366 0.0479092 11.4166 0.00190918L11.4377 0H11.5623L11.5834 0.00190918C17.8863 0.0479092 23 5.1865 23 11.5C23.0016 13.4785 22.4895 15.4235 21.5136 17.1446C21.504 17.1609 21.5002 17.1791 21.4906 17.1963L21.4274 17.3046C21.4178 17.3209 21.4053 17.3334 21.3957 17.3497C19.3909 20.7288 15.7061 23 11.5 23C7.29291 23 3.60906 20.7288 1.60425 17.3487C1.59466 17.3324 1.58125 17.32 1.57069 17.3027L1.50937 17.1963C1.49978 17.18 1.495 17.1618 1.48637 17.1455C0.510626 15.4241 -0.00153351 13.4788 -1.90735e-06 11.5ZM9.92353 1.00243C4.81562 1.76619 0.884508 6.18219 0.884508 11.5C0.884508 12.7324 1.09726 13.915 1.48635 15.0152L1.62148 15.3793C1.77065 15.1825 1.96184 15.0214 2.18113 14.9078L9.31594 11.2288C9.35177 10.9362 9.44608 10.6539 9.59327 10.3985C9.74045 10.1432 9.9375 9.92005 10.1727 9.74241L9.79128 1.72597C9.78057 1.47792 9.82576 1.23065 9.92353 1.00243ZM11.5 10.1737C10.7688 10.1737 10.1727 10.7678 10.1727 11.5C10.1727 12.2312 10.7688 12.8273 11.5 12.8273C11.8519 12.827 12.1894 12.6871 12.4382 12.4382C12.6871 12.1894 12.827 11.8519 12.8273 11.5C12.8273 10.7688 12.2312 10.1727 11.5 10.1727V10.1737ZM13.0784 1.00243C13.1754 1.23047 13.22 1.47742 13.2087 1.725L12.8273 9.74243C13.0624 9.92014 13.2594 10.1433 13.4066 10.3986C13.5537 10.654 13.6481 10.9363 13.684 11.2288L20.8188 14.9078C21.045 15.0238 21.2309 15.1867 21.3775 15.3803C21.8654 14.1448 22.1158 12.8283 22.1154 11.5C22.1154 6.18316 18.1863 1.76716 13.0784 1.00243ZM11.5 22.1145C13.0934 22.1144 14.6663 21.755 16.1016 21.0631C17.537 20.3713 18.7979 19.3647 19.7905 18.1182C19.5481 18.0855 19.3158 17.9997 19.1101 17.8671L12.3673 13.5336C12.0931 13.6508 11.7981 13.7112 11.5 13.7112C11.2019 13.7112 10.9068 13.6508 10.6327 13.5336L3.8889 17.8662C3.67806 18.0023 3.4471 18.0857 3.2085 18.1173C4.20104 19.3642 5.46201 20.3713 6.89755 21.0635C8.3331 21.7557 9.90627 22.1153 11.5 22.1155V22.1145Z" fill="white"/>
</svg>
