<svg width="22" height="22" viewBox="0 0 22 22" fill="none" xmlns="http://www.w3.org/2000/svg">
<path d="M11 0C4.92485 0 0 4.92485 0 11C0 17.0751 4.92485 22 11 22C17.0751 22 22 17.0751 22 11C22 4.92485 17.0751 0 11 0ZM16.0987 7.48089C15.9331 9.22026 15.2169 13.4412 14.8523 15.3894C14.6981 16.2136 14.3945 16.4901 14.1006 16.5171C13.4619 16.5759 12.9767 16.095 12.358 15.6894C11.3899 15.0547 10.8429 14.6597 9.90315 14.0404C8.81712 13.3247 9.52117 12.9315 10.1401 12.2884C10.3021 12.1201 13.1166 9.56011 13.1711 9.32787C13.1779 9.29881 13.1844 9.19037 13.1199 9.13342C13.0554 9.07646 12.9607 9.09576 12.8921 9.11124C12.7951 9.1333 11.2484 10.1556 8.25226 12.178C7.8133 12.4795 7.41567 12.6263 7.05938 12.6186C6.66662 12.6102 5.91112 12.3966 5.34946 12.214C4.66058 11.9901 4.11307 11.8717 4.16075 11.4914C4.18559 11.2933 4.45837 11.0907 4.9791 10.8837C8.18583 9.48663 10.3242 8.56553 11.394 8.12044C14.4489 6.84981 15.0836 6.6291 15.4974 6.62173C15.5884 6.62023 15.7918 6.64276 15.9236 6.7497C16.0113 6.82588 16.0671 6.93218 16.0802 7.04758C16.1025 7.19087 16.1087 7.33622 16.0987 7.48089Z" fill="white"/>
</svg>
